<svg xmlns="http://www.w3.org/2000/svg" width="44" height="42" preserveAspectRatio="xMinYMin slice" viewBox="2 -2 44 42"><path fill="#fffaed" d="M2 40V-2h44v42Z"/><path fill="#9a7312" d="M13.312 37.975q-3.9 0-6.906-3.006T3.4 28.063q0-4.063 3.006-6.988t6.906-2.925q4.063 0 6.988 2.925t2.925 6.988q0 3.9-2.925 6.906t-6.988 3.006m21.25 0q-3.9 0-6.906-3.006t-3.006-6.906q0-4.063 3.006-6.988t6.906-2.925q4.063 0 6.988 2.925t2.925 6.988q0 3.9-2.925 6.906t-6.988 3.006m-10.625-18.75q-3.9 0-6.906-3.006t-3.006-6.906q0-4.063 3.006-6.988T23.937-.6Q28-.6 30.925 2.325t2.925 6.988q0 3.9-2.925 6.906t-6.988 3.006"/><path fill="#d4af37" d="M13.312 36.45q-3.3 0-5.843-2.544t-2.544-5.843q0-3.438 2.544-5.913t5.843-2.475q3.438 0 5.913 2.475t2.475 5.913q0 3.3-2.475 5.843t-5.913 2.544M23.937 17.7q-3.3 0-5.843-2.544T15.55 9.313q0-3.438 2.544-5.913T23.937.925q3.438 0 5.913 2.475t2.475 5.913q0 3.3-2.475 5.843T23.937 17.7m10.625 18.75q-3.3 0-5.843-2.544t-2.544-5.843q0-3.438 2.544-5.913t5.843-2.475q3.438 0 5.913 2.475t2.475 5.913q0 3.3-2.475 5.843t-5.913 2.544"/><path fill="#902900" d="M12.562 17.6q-.9 0-1.593-.694-.694-.693-.694-1.593 0-.938.694-1.613.693-.675 1.593-.675.938 0 1.613.675t.675 1.613q0 .9-.675 1.593-.675.694-1.613.694m11.375 6.375q-.9 0-1.593-.694-.694-.693-.694-1.593 0-.938.694-1.613.693-.675 1.593-.675.938 0 1.613.675t.675 1.613q0 .9-.675 1.593-.675.694-1.613.694M35.062 17.6q-.9 0-1.593-.694-.694-.693-.694-1.593 0-.938.694-1.613.693-.675 1.593-.675.938 0 1.613.675t.675 1.613q0 .9-.675 1.593-.675.694-1.613.694M23.937 37.1q-.9 0-1.593-.694-.694-.693-.694-1.593 0-.938.694-1.613.693-.675 1.593-.675.938 0 1.613.675t.675 1.613q0 .9-.675 1.593-.675.694-1.613.694"/></svg>