<?xml version='1.0' encoding='ASCII'?>
<svg xmlns="http://www.w3.org/2000/svg" width="44" height="42" preserveAspectRatio="xMinYMin slice" viewBox="2 -2 44 42" version="1.1">
  <path d="M2,-2 v42 h44 v-42 Z" fill="#FFFAED" transform="matrix(1,0,0,-1,0,38)"/>
  <path d="M14.3124,0.025 q-3.9,0 -6.9062,3.0062 q-3.0062,3.0062 -3.0062,6.9062 q0,4.0625 3.0062,6.9874 q3.0062,2.925 6.9062,2.925 q4.0625,0 6.9874,-2.925 q2.925,-2.925 2.925,-6.9874 q0,-3.9 -2.925,-6.9062 q-2.925,-3.0062 -6.9874,-3.0062 Z M35.5624,0.025 q-3.9,0 -6.9062,3.0062 q-3.0062,3.0062 -3.0062,6.9062 q0,4.0625 3.0062,6.9874 q3.0062,2.925 6.9062,2.925 q4.0625,0 6.9874,-2.925 q2.925,-2.925 2.925,-6.9874 q0,-3.9 -2.925,-6.9062 q-2.925,-3.0062 -6.9874,-3.0062 Z M24.9374,18.775 q-3.9,0 -6.9062,3.0062 q-3.0062,3.0062 -3.0062,6.9062 q0,4.0625 3.0062,6.9874 q3.0062,2.925 6.9062,2.925 q4.0625,0 6.9874,-2.925 q2.925,-2.925 2.925,-6.9874 q0,-3.9 -2.925,-6.9062 q-2.925,-3.0062 -6.9874,-3.0062 Z" fill="#9A7312" transform="matrix(1,0,0,-1,-1,38)"/>
  <path d="M14.3123,1.55 q-3.2999,0 -5.8436,2.5437 q-2.5437,2.5437 -2.5437,5.8436 q0,3.4374 2.5437,5.9124 q2.5437,2.4749 5.8436,2.4749 q3.4374,0 5.9124,-2.4749 q2.4749,-2.4749 2.4749,-5.9124 q0,-3.2999 -2.4749,-5.8436 q-2.4749,-2.5437 -5.9124,-2.5437 Z M24.9373,20.3 q-3.2999,0 -5.8436,2.5437 q-2.5437,2.5437 -2.5437,5.8436 q0,3.4374 2.5437,5.9124 q2.5437,2.4749 5.8436,2.4749 q3.4374,0 5.9124,-2.4749 q2.4749,-2.4749 2.4749,-5.9124 q0,-3.2999 -2.4749,-5.8436 q-2.4749,-2.5437 -5.9124,-2.5437 Z M35.5623,1.55 q-3.2999,0 -5.8436,2.5437 q-2.5437,2.5437 -2.5437,5.8436 q0,3.4374 2.5437,5.9124 q2.5437,2.4749 5.8436,2.4749 q3.4374,0 5.9124,-2.4749 q2.4749,-2.4749 2.4749,-5.9124 q0,-3.2999 -2.4749,-5.8436 q-2.4749,-2.5437 -5.9124,-2.5437 Z" fill="#D4AF37" transform="matrix(1,0,0,-1,-1,38)"/>
  <path d="M13.5624,20.4 q-0.9,0 -1.5937,0.6937 q-0.6937,0.6937 -0.6937,1.5937 q0,0.9375 0.6937,1.6124 q0.6937,0.675 1.5937,0.675 q0.9375,0 1.6124,-0.675 q0.675,-0.675 0.675,-1.6124 q0,-0.9 -0.675,-1.5937 q-0.675,-0.6937 -1.6124,-0.6937 Z M24.9374,14.025 q-0.9,0 -1.5937,0.6937 q-0.6937,0.6937 -0.6937,1.5937 q0,0.9375 0.6937,1.6124 q0.6937,0.675 1.5937,0.675 q0.9375,0 1.6124,-0.675 q0.675,-0.675 0.675,-1.6124 q0,-0.9 -0.675,-1.5937 q-0.675,-0.6937 -1.6124,-0.6937 Z M36.0624,20.4 q-0.9,0 -1.5937,0.6937 q-0.6937,0.6937 -0.6937,1.5937 q0,0.9375 0.6937,1.6124 q0.6937,0.675 1.5937,0.675 q0.9375,0 1.6124,-0.675 q0.675,-0.675 0.675,-1.6124 q0,-0.9 -0.675,-1.5937 q-0.675,-0.6937 -1.6124,-0.6937 Z M24.9374,0.9 q-0.9,0 -1.5937,0.6937 q-0.6937,0.6937 -0.6937,1.5937 q0,0.9375 0.6937,1.6124 q0.6937,0.675 1.5937,0.675 q0.9375,0 1.6124,-0.675 q0.675,-0.675 0.675,-1.6124 q0,-0.9 -0.675,-1.5937 q-0.675,-0.6937 -1.6124,-0.6937 Z" fill="#902900" transform="matrix(1,0,0,-1,-1,38)"/>
</svg>
