<svg xmlns="http://www.w3.org/2000/svg" width="38" height="52" preserveAspectRatio="xMinYMin slice" viewBox="4 -4 38 52"><path d="M4 48V-4h38v52Z"/><path fill="#ffe2a1" d="M28.25 45.25q-2.625.125-6.312-.375t-7.25-2.062-5.938-4.5-2.375-7.563q0-5.375 2.875-8.937 2.875-3.563 7.375-5.625 4.5-2.063 9.375-2.938-.125-.625-.25-1.062t-.375-.938q-.25-1.125-.062-2.5.187-1.375 1.437-2.25 1.875-1.375 3.75-3.437Q32.375 1 34.75-1.375q1.375-1.375 2.563-1.75Q38.5-3.5 39.625-1q.875 2 1.313 6.188T41.5 14.5t.063 9.875-.188 7.875v3.25q-.125 4.125-2.062 6.125-1.938 2-4.876 2.688-2.937.687-6.187.937"/><path fill="#a67300" d="M28.125 44q-2.625.125-6.062-.312-3.438-.438-6.75-1.876-3.313-1.437-5.5-4.124Q7.624 35 7.624 30.75q0-5.125 2.875-8.5t7.375-5.312 9.5-2.688q-.125-1-.312-1.812-.188-.813-.438-1.563-.25-.875-.125-1.812t1-1.563q2-1.5 3.875-3.562Q33.25 1.874 35.625-.5 35.75-.625 36-1q.625-.625 1.188-.875T38.5-.5q.875 1.875 1.25 6t.5 9.125.063 9.688-.188 7.937v3.25q-.125 3.625-1.812 5.313T34 43.125 28.125 44m.375-15.25q1 0 1-1t-1-1-1 1 1 1"/></svg>