<?xml version='1.0' encoding='ASCII'?>
<svg xmlns="http://www.w3.org/2000/svg" width="424" height="98" preserveAspectRatio="xMinYMin slice" viewBox="22 -26 424 98" version="1.1">
  <path d="M22,-26 v98 h424 v-98 Z" fill="#000000" transform="matrix(1,0,0,-1,0,46)"/>
  <path d="M24.625,33.75 q-0.5,2.875 0.625,5.25 q1.125,2.375 3.125,3.625 q2.375,1.125 4.625,1 q-0.625,3.25 1.5,6.125 q1,1.25 2.25,2 q1.25,0.75 2.5,1 q-1.25,3.625 0.625,6.625 q1.5,2.5 3.9375,3.5625 q2.4375,1.0625 4.8125,0.5625 q0.875,-0.25 1.6875,-0.625 q0.8125,-0.375 1.5625,-1 q1.375,2.5 4.25,3.5 q1.625,0.625 3.0625,0.5625 q1.4375,-0.0625 2.6875,-0.5625 q0.375,1.5 1.4375,2.875 q1.0625,1.375 2.6875,2.125 q2.75,1.375 5.375,0.8125 q2.625,-0.5625 4.25,-2.3125 q1.5,-1.625 2,-3.5 q1.375,0.75 3,0.875 q1.625,0.125 3.375,-0.625 q1.5,-0.5 2.625,-1.5625 q1.125,-1.0625 1.625,-2.1875 q1.375,0.875 3.125,1.25 q1.75,0.375 3.375,-0.125 q2.875,-0.875 4.5,-2.9375 q1.625,-2.0625 1.75,-4.5625 q0,-1.75 -0.625,-3.375 q1.375,-0.25 2.5625,-0.9375 q1.1875,-0.6875 2.0625,-2.0625 q1.875,-2.625 1.625,-5.5 q3.5,0.375 6.125,-2.25 q2.125,-2.25 2.375,-4.875 q0.25,-2.625 -0.875,-4.75 q-1.25,-2 -2.875,-3 q0.875,-1 1.375,-2.25 q0.5,-1.25 0.5,-2.875 q-0.125,-1.625 -0.6875,-3 q-0.5625,-1.375 -1.4375,-2.375 q1.375,-0.875 2.3125,-2.375 q0.9375,-1.5 1.0625,-3.25 q0.25,-3 -1.125,-5.25 q-1.375,-2.25 -3.625,-3.25 q-2,-0.875 -4.375,-0.5 q0,-2.25 -1.25,-4.25 q-0.875,-1.375 -2.0625,-2.25 q-1.1875,-0.875 -2.4375,-1.25 q0.625,-1.5 0.6875,-3.25 q0.0625,-1.75 -0.6875,-3.375 q-1.25,-2.75 -3.625,-3.9375 q-2.375,-1.1875 -4.75,-0.9375 q-2.625,0.375 -4.25,2 q-0.625,-0.875 -1.5625,-1.6875 q-0.9375,-0.8125 -2.3125,-1.3125 q-1.5,-0.5 -2.9375,-0.4375 q-1.4375,0.0625 -2.6875,0.4375 q-0.875,-3.625 -4.125,-5.125 q-2.75,-1.25 -5.3125,-0.75 q-2.5625,0.5 -4.3125,2.125 q-1.625,1.75 -2.125,4 q-1,-0.375 -2.25,-0.5 q-1.25,-0.125 -2.625,0.25 q-3.125,0.875 -4.75,3.375 q-1.25,-1.125 -2.875,-1.6875 q-1.625,-0.5625 -3.375,-0.3125 q-3,0.5 -4.8125,2.375 q-1.8125,1.875 -2.3125,4.25 q-0.375,2.375 0.625,4.625 q-1.875,0.75 -3.5,2.375 q-1,1.25 -1.5,2.6875 q-0.5,1.4375 -0.5,2.6875 q-1.625,-0.125 -3.25,0.25 q-1.625,0.375 -3,1.625 q-2.25,2.125 -2.6875,4.6875 q-0.4375,2.5625 0.4375,4.8125 q1.25,2.5 3.5,3.625 q-1.5,1.875 -1.625,4.25 q-0.125,1.625 0.25,3.0625 q0.375,1.4375 1.125,2.4375 q-1.375,0.75 -2.5,2.125 q-1.125,1.375 -1.375,3.125 Z" fill="#FFFFE6" transform="matrix(1,0,0,-1,-1,46)"/>
  <path d="M68.5543,47.8949 q-6.069,-0.8347 -10.4854,0.6805 q-4.4163,1.5152 -6.1728,5.4134 q-1.4313,3.4434 -0.4386,6.7645 q0.9927,3.3211 4.7026,4.6681 q1.5659,0.5011 3.0345,0.4173 q1.4687,-0.0838 2.6776,-0.5251 q0.3826,1.5793 1.4932,2.9575 q1.1106,1.3782 2.6373,2.1262 q2.7027,1.314 5.3185,0.7791 q2.6158,-0.5349 4.2868,-2.2951 q1.853,-2.1111 2.1793,-4.9702 q0.3263,-2.8591 -2.0183,-5.635 q-1.825,-2.0608 -4.6353,-2.6958 q-2.8102,-0.6349 -5.9163,-1.0003 q-0.6173,-0.0978 -1.2963,-0.2053 q-0.679,-0.1075 -1.2963,-0.2053 q-0.5134,0.0452 -1.1374,0.3894 q-0.624,0.3441 -0.7218,0.9614 q-0.2408,0.7212 0.1975,1.5499 q0.4382,0.8287 1.3025,0.9656 l0.7408,0.1173 q0.7139,1.8849 -1.3922,3.1965 q-2.1061,1.3117 -4.1462,0.6089 q-2.0401,-0.7028 -2.5786,-2.4966 q-0.5385,-1.7938 0.4308,-3.9183 q1.0475,-2.6183 4.8007,-3.5425 q3.7532,-0.9242 7.8274,-0.2789 l0.6062,-3.8272 Z M66.7296,58.6162 q2.0988,0.3324 3.7362,0.7816 q1.6374,0.4492 2.4882,1.4698 q1.2016,1.2028 1.1815,2.5284 q-0.0201,1.3256 -0.833,2.4625 q-0.8324,1.2603 -2.3402,1.591 q-1.5078,0.3307 -3.1189,-0.6838 q-1.2798,-0.7089 -1.877,-2.1324 q-0.5972,-1.4234 0.2291,-3.444 q0.5464,-1.0525 0.5341,-2.5731 Z M81.9099,44.2829 q-5.1279,3.3517 -7.4668,7.3926 q-2.3389,4.0409 -1.1071,8.1352 q1.1789,3.5378 4.1069,5.393 q2.928,1.8552 6.6115,0.4378 q1.5105,-0.6491 2.5639,-1.6758 q1.0534,-1.0267 1.6763,-2.1529 q1.3249,0.9408 3.0672,1.2524 q1.7423,0.3115 3.3853,-0.1256 q2.9017,-0.7815 4.525,-2.9013 q1.6233,-2.1198 1.7295,-4.5445 q0.0135,-2.8089 -1.616,-5.1807 q-1.6295,-2.3718 -5.2201,-2.9286 q-2.7294,-0.358 -5.2668,1.0065 q-2.5374,1.3645 -5.1213,3.1264 q-0.53,0.3312 -1.113,0.6955 q-0.583,0.3643 -1.113,0.6955 q-0.3578,0.371 -0.603,1.04 q-0.2452,0.6691 0.086,1.1991 q0.2914,0.7023 1.1659,1.0402 q0.8744,0.3379 1.6165,-0.1257 l0.636,-0.3974 q1.7754,0.9541 1.0464,3.3257 q-0.7289,2.3716 -2.7297,3.1797 q-2.0008,0.808 -3.584,-0.1924 q-1.5832,-1.0005 -2.2455,-3.2397 q-0.9272,-2.6633 1.299,-5.8231 q2.2262,-3.1598 5.7243,-5.3457 l-2.0534,-3.2861 Z M87.5667,53.5714 q1.802,-1.1261 3.3324,-1.8613 q1.5304,-0.7352 2.8421,-0.5231 q1.6959,0.1194 2.5504,1.1331 q0.8545,1.0137 0.9869,2.4049 q0.1986,1.4972 -0.7224,2.736 q-0.921,1.2388 -2.8024,1.5301 q-1.431,0.3046 -2.8155,-0.3779 q-1.3845,-0.6825 -2.0866,-2.7495 q-0.2781,-1.1527 -1.285,-2.2923 Z M92.1299,31.9469 q-2.6693,5.5141 -2.5929,10.1825 q0.0764,4.6684 3.241,7.5434 q2.8326,2.4253 6.2979,2.5075 q3.4653,0.0822 5.8927,-3.0299 q0.9605,-1.3344 1.3346,-2.757 q0.3742,-1.4227 0.328,-2.7088 q1.6202,0.1241 3.2741,-0.5062 q1.6539,-0.6303 2.8371,-1.8512 q2.0848,-2.1644 2.3845,-4.8175 q0.2996,-2.6531 -0.8581,-4.7862 q-1.4351,-2.4147 -4.0535,-3.6085 q-2.6183,-1.1938 -5.9829,0.1782 q-2.5239,1.0989 -3.9962,3.5754 q-1.4723,2.4765 -2.7796,5.3176 q-0.2837,0.5569 -0.5958,1.1694 q-0.3121,0.6126 -0.5958,1.1694 q-0.1156,0.5022 0.0188,1.202 q0.1344,0.6998 0.6913,0.9835 q0.6115,0.4519 1.5351,0.2912 q0.9236,-0.1607 1.3208,-0.9403 l0.3405,-0.6682 q2.0132,-0.0965 2.6099,2.3118 q0.5966,2.4083 -0.7022,4.1314 q-1.2988,1.7231 -3.1712,1.681 q-1.8724,-0.0422 -3.5934,-1.6205 q-2.1665,-1.8053 -1.8857,-5.6604 q0.2808,-3.8551 2.1535,-7.5305 l-3.4526,-1.7592 Z M101.7627,36.9953 q0.9647,-1.8934 1.8979,-3.3118 q0.9332,-1.4184 2.1667,-1.9122 q1.5152,-0.7711 2.7698,-0.3423 q1.2545,0.4288 2.0845,1.5531 q0.9414,1.1811 0.79,2.7173 q-0.1514,1.5362 -1.6141,2.7549 q-1.0697,0.9981 -2.608,1.1262 q-1.5383,0.1281 -3.2047,-1.2821 q-0.8321,-0.8448 -2.2821,-1.3031 Z M92.4791,17.9233 q1.2913,5.9886 4.2257,9.6205 q2.9343,3.6319 7.1982,3.9492 q3.7253,0.1673 6.5067,-1.9014 q2.7814,-2.0687 2.7783,-6.0156 q-0.0646,-1.6428 -0.6457,-2.9943 q-0.581,-1.3515 -1.4092,-2.3366 q1.3532,-0.8997 2.2685,-2.4147 q0.9153,-1.515 1.096,-3.2055 q0.3104,-2.9891 -1.0869,-5.2643 q-1.3973,-2.2752 -3.6229,-3.2433 q-2.6176,-1.0193 -5.4159,-0.3481 q-2.7983,0.6712 -4.605,3.8239 q-1.3124,2.4199 -0.9479,5.2778 q0.3645,2.858 1.0834,5.9017 q0.1192,0.6135 0.2504,1.2884 q0.1312,0.6749 0.2504,1.2884 q0.2181,0.467 0.7549,0.9357 q0.5368,0.4687 1.1503,0.3494 q0.7601,-0.0204 1.389,-0.7157 q0.6289,-0.6953 0.462,-1.5542 l-0.1431,-0.7362 q1.5271,-1.3155 3.4799,0.215 q1.9529,1.5305 1.9902,3.688 q0.0373,2.1575 -1.4641,3.2771 q-1.5015,1.1195 -3.8294,0.9353 q-2.8187,-0.0888 -4.9709,-3.2997 q-2.1522,-3.2109 -2.9392,-7.2601 l-3.8038,0.7393 Z M103.1782,15.9711 q-0.4054,-2.086 -0.5434,-3.7782 q-0.1379,-1.6923 0.5302,-2.8408 q0.7193,-1.5405 1.9719,-1.975 q1.2526,-0.4345 2.5989,-0.0595 q1.469,0.3512 2.2954,1.6549 q0.8264,1.3038 0.4241,3.1647 q-0.2285,1.4451 -1.3618,2.4931 q-1.1334,1.048 -3.3147,0.9626 q-1.1759,-0.1535 -2.6006,0.3781 Z M83.4884,5.1686 q4.1913,4.4682 8.5771,6.0701 q4.3858,1.6018 8.2041,-0.3223 q3.2795,-1.7753 4.5982,-4.9811 q1.3187,-3.2058 -0.7168,-6.5874 q-0.9015,-1.3749 -2.0957,-2.2341 q-1.1941,-0.8592 -2.4114,-1.2771 q0.6965,-1.4682 0.7008,-3.2382 q0.0043,-1.77 -0.7115,-3.3122 q-1.2735,-2.7221 -3.643,-3.9527 q-2.3695,-1.2306 -4.7759,-0.9142 q-2.7687,0.4744 -4.8217,2.4911 q-2.053,2.0166 -1.9779,5.6495 q0.1214,2.7502 1.9058,5.0123 q1.7844,2.2621 3.9683,4.5008 q0.4182,0.4645 0.8782,0.9754 q0.46,0.5109 0.8782,0.9754 q0.4275,0.2879 1.129,0.4132 q0.7015,0.1253 1.166,-0.2929 q0.641,-0.409 0.822,-1.3288 q0.181,-0.9199 -0.4045,-1.5701 l-0.5018,-0.5574 q0.6314,-1.9141 3.0937,-1.608 q2.4623,0.3061 3.6055,2.1362 q1.1432,1.8301 0.4328,3.5631 q-0.7104,1.733 -2.8007,2.774 q-2.4619,1.3756 -5.9604,-0.2682 q-3.4985,-1.6438 -6.2587,-4.7094 l-2.8798,2.5929 Z M91.654,-2.0153 q-1.4219,-1.5792 -2.4117,-2.9588 q-0.9898,-1.3796 -1.0087,-2.7082 q-0.1769,-1.691 0.6731,-2.7086 q0.8499,-1.0176 2.1971,-1.3895 q1.4401,-0.4556 2.82,0.2363 q1.3799,0.6919 1.9935,2.4943 q0.5485,1.3564 0.1167,2.8385 q-0.4317,1.4821 -2.3455,2.5324 q-1.087,0.4741 -2.0344,1.6636 Z M70.4765,0.7155 q6.0536,0.9405 10.4958,-0.4975 q4.4422,-1.438 6.2663,-5.3049 q1.4912,-3.418 0.5566,-6.7559 q-0.9346,-3.338 -4.6204,-4.7495 q-1.5569,-0.5284 -3.0268,-0.4702 q-1.4699,0.0581 -2.6863,0.4783 q-0.355,-1.5857 -1.4414,-2.9831 q-1.0863,-1.3974 -2.5998,-2.1719 q-2.6794,-1.3609 -5.3042,-0.8718 q-2.6248,0.4891 -4.3262,2.22 q-1.8896,2.0784 -2.2657,4.9314 q-0.3761,2.853 1.9197,5.6694 q1.7888,2.0924 4.5876,2.7763 q2.7987,0.6839 5.898,1.1034 q0.6155,0.1085 1.2925,0.2279 q0.6771,0.1194 1.2926,0.2279 q0.5141,-0.0363 1.144,-0.3695 q0.6299,-0.3332 0.7384,-0.9487 q0.2533,-0.7169 -0.1704,-1.5532 q-0.4237,-0.8363 -1.2854,-0.9882 l-0.7386,-0.1302 q-0.6809,-1.897 1.4478,-3.1718 q2.1287,-1.2747 4.1563,-0.5364 q2.0276,0.7383 2.5347,2.5412 q0.5071,1.8029 -0.4991,3.9102 q-1.093,2.5997 -4.8618,3.4583 q-3.7688,0.8586 -7.8311,0.1423 l-0.6729,3.8161 Z M72.488,-9.9725 q-2.0927,-0.369 -3.722,-0.8467 q-1.6293,-0.4777 -2.4622,-1.513 q-1.1805,-1.2236 -1.1372,-2.5487 q0.0433,-1.3251 0.8758,-2.4476 q0.8543,-1.2456 2.3676,-1.5499 q1.5133,-0.3043 3.1065,0.7381 q1.2673,0.7312 1.8395,2.1648 q0.5722,1.4336 -0.2892,3.4395 q-0.5647,1.0428 -0.5789,2.5634 Z M56.2457,4.8745 q5.4983,-2.7018 8.3124,-6.4276 q2.8141,-3.7258 2.0904,-7.9398 q-0.7389,-3.6552 -3.419,-5.8535 q-2.6801,-2.1983 -6.509,-1.2404 q-1.5784,0.4602 -2.7492,1.3509 q-1.1708,0.8907 -1.9262,1.9326 q-1.2004,-1.0953 -2.8917,-1.6169 q-1.6914,-0.5216 -3.3754,-0.288 q-2.9754,0.422 -4.845,2.3282 q-1.8696,1.9062 -2.2705,4.2999 q-0.3558,2.7864 0.9725,5.3392 q1.3283,2.5528 4.8243,3.5431 q2.6655,0.688 5.3504,-0.3571 q2.6849,-1.0451 5.4643,-2.479 q0.5664,-0.2641 1.1895,-0.5547 q0.6231,-0.2905 1.1895,-0.5547 q0.4003,-0.3246 0.7252,-0.9588 q0.3249,-0.6342 0.0608,-1.2007 q-0.2037,-0.7326 -1.0304,-1.1746 q-0.8268,-0.442 -1.6198,-0.0722 l-0.6797,0.317 q-1.6459,-1.1634 -0.6333,-3.4286 q1.0126,-2.2651 3.097,-2.8233 q2.0844,-0.5582 3.5339,0.6279 q1.4495,1.186 1.834,3.4894 q0.5957,2.7565 -1.9991,5.6215 q-2.5948,2.865 -6.3334,4.6083 l1.6376,3.512 Z M51.7631,-5.0345 q-1.9259,0.898 -3.5345,1.4413 q-1.6086,0.5432 -2.8847,0.1728 q-1.6688,-0.3252 -2.3934,-1.4355 q-0.7246,-1.1103 -0.6864,-2.5073 q-0.0146,-1.5103 1.0505,-2.6276 q1.0651,-1.1173 2.9681,-1.1771 q1.4575,-0.1279 2.7485,0.7182 q1.291,0.8462 1.7359,2.9834 q0.1356,1.1781 0.9961,2.4319 Z M47.4139,16.4582 q3.0473,-5.3146 3.2967,-9.977 q0.2494,-4.6625 -2.7071,-7.7512 q-2.6566,-2.617 -6.1078,-2.9406 q-3.4512,-0.3237 -6.0898,2.6116 q-1.0512,1.2642 -1.5237,2.6573 q-0.4725,1.3931 -0.5161,2.6793 q-1.6077,-0.2368 -3.3015,0.2767 q-1.6939,0.5135 -2.9593,1.6489 q-2.2307,2.0137 -2.7146,4.6395 q-0.4839,2.6258 0.5223,4.8344 q1.2633,2.5089 3.792,3.8824 q2.5288,1.3735 5.9809,0.2394 q2.5945,-0.9202 4.2359,-3.288 q1.6414,-2.3678 3.1437,-5.1109 q0.3219,-0.5357 0.676,-1.125 q0.3541,-0.5893 0.676,-1.125 q0.1504,-0.493 0.065,-1.2004 q-0.0853,-0.7075 -0.6211,-1.0294 q-0.5785,-0.4934 -1.5111,-0.3975 q-0.9326,0.0959 -1.3832,0.8459 l-0.3863,0.6429 q-2.0151,-0.0441 -2.4423,-2.4882 q-0.4273,-2.4441 0.9886,-4.0725 q1.4158,-1.6284 3.2808,-1.4557 q1.8649,0.1726 3.4717,1.8671 q2.0354,1.952 1.4864,5.7782 q-0.549,3.8262 -2.6734,7.3621 l3.3216,1.9957 Z M38.1565,10.7503 q-1.0944,1.8215 -2.1242,3.1714 q-1.0298,1.3499 -2.2949,1.7565 q-1.5653,0.6636 -2.7869,0.1484 q-1.2216,-0.5152 -1.9712,-1.6947 q-0.8567,-1.2439 -0.5986,-2.7658 q0.2582,-1.5219 1.8023,-2.6357 q1.1367,-0.9211 2.6802,-0.9416 q1.5435,-0.0205 3.1075,1.5025 q0.7712,0.9008 2.1857,1.4591 Z M47.0763,30.7519 q-0.6584,-6.0909 -3.1971,-10.0097 q-2.5387,-3.9187 -6.7462,-4.6799 q-3.6875,-0.5557 -6.67,1.211 q-2.9824,1.7667 -3.3919,5.6924 q-0.1074,1.6406 0.3292,3.0455 q0.4366,1.4048 1.1573,2.4711 q-1.4398,0.7534 -2.5085,2.1644 q-1.0686,1.411 -1.4251,3.0735 q-0.6211,2.9404 0.5307,5.3492 q1.1518,2.4088 3.2641,3.6043 q2.4967,1.2873 5.35,0.9122 q2.8532,-0.3751 4.9796,-3.3217 q1.5582,-2.2695 1.4944,-5.1499 q-0.0638,-2.8805 -0.4607,-5.9827 q-0.0545,-0.6226 -0.1144,-1.3075 q-0.0599,-0.6849 -0.1144,-1.3075 q-0.1681,-0.4872 -0.653,-1.0095 q-0.4849,-0.5222 -1.1075,-0.4678 q-0.7581,-0.0592 -1.4562,0.5666 q-0.6981,0.6257 -0.6219,1.4974 l0.0654,0.7472 q-1.6562,1.1487 -3.4385,-0.5775 q-1.7823,-1.7263 -1.5939,-3.8759 q0.1884,-2.1496 1.7987,-3.1061 q1.6103,-0.9565 3.9063,-0.53 q2.7941,0.3829 4.5989,3.8012 q1.8048,3.4183 2.1644,7.5277 l3.8603,-0.3377 Z M36.2316,31.5752 q0.1852,2.117 0.1455,3.8144 q-0.0397,1.6975 -0.8242,2.7699 q-0.8764,1.457 -2.1676,1.7581 q-1.2912,0.3012 -2.5909,-0.2125 q-1.4243,-0.5028 -2.1099,-1.8858 q-0.6857,-1.383 -0.091,-3.1918 q0.3783,-1.4134 1.615,-2.3372 q1.2367,-0.9238 3.3973,-0.6109 q1.1534,0.2755 2.626,-0.1043 Z M54.5392,42.1021 q-4.5646,-4.0859 -9.0732,-5.2994 q-4.5086,-1.2135 -8.1446,1.0359 q-3.1122,2.0543 -4.1465,5.3627 q-1.0343,3.3084 1.2881,6.4997 q1.0179,1.2911 2.2823,2.0429 q1.2644,0.7518 2.5134,1.062 q-0.5659,1.5232 -0.416,3.2868 q0.15,1.7636 0.9974,3.2375 q1.5058,2.6007 3.9735,3.6201 q2.4677,1.0194 4.8373,0.4945 q2.7168,-0.7139 4.5861,-2.9017 q1.8694,-2.1878 1.478,-5.8002 q-0.3605,-2.7291 -2.3352,-4.827 q-1.9747,-2.0979 -4.3453,-4.1377 q-0.4571,-0.4263 -0.9599,-0.8951 q-0.5028,-0.4689 -0.9599,-0.8951 q-0.4509,-0.2496 -1.1607,-0.3133 q-0.7097,-0.0637 -1.136,0.3934 q-0.6029,0.4632 -0.7031,1.3954 q-0.1001,0.9321 0.5398,1.5289 l0.5485,0.5115 q-0.4622,1.9618 -2.9417,1.8715 q-2.4795,-0.0904 -3.7778,-1.8139 q-1.2983,-1.7235 -0.7416,-3.5117 q0.5567,-1.7882 2.5483,-3.0075 q2.3326,-1.5849 5.9609,-0.2522 q3.6283,1.3327 6.6451,4.1459 l2.6428,-2.8339 Z M47.0309,49.97 q1.5541,1.4493 2.6603,2.7373 q1.1062,1.288 1.2408,2.6099 q0.3236,1.6691 -0.4344,2.7568 q-0.758,1.0877 -2.0676,1.5756 q-1.3948,0.5793 -2.8297,0.0103 q-1.4349,-0.569 -2.2032,-2.311 q-0.6646,-1.3034 -0.3636,-2.8174 q0.3009,-1.514 2.1159,-2.7271 q1.0415,-0.567 1.8817,-1.8345 Z M69.75,-3.125 q-7.5,0 -13.75,3.6875 q-6.25,3.6875 -9.9375,9.9375 q-3.6875,6.25 -3.6875,13.875 q0,7.625 3.6875,13.8125 q3.6875,6.1875 9.9375,9.875 q6.25,3.6875 13.75,3.6875 q7.625,0 13.875,-3.6875 q6.25,-3.6875 9.9375,-9.875 q3.6875,-6.1875 3.6875,-13.8125 q0,-7.625 -3.6875,-13.875 q-3.6875,-6.25 -9.9375,-9.9375 q-6.25,-3.6875 -13.875,-3.6875 Z M69.75,1.875 q6.25,0 11.375,3 q5.125,3 8.125,8.125 q3,5.125 3,11.375 q0,6.25 -3,11.3125 q-3,5.0625 -8.125,8.0625 q-5.125,3 -11.375,3 q-6.125,0 -11.25,-3 q-5.125,-3 -8.125,-8.0625 q-3,-5.0625 -3,-11.3125 q0,-6.25 3,-11.375 q3,-5.125 8.125,-8.125 q5.125,-3 11.25,-3 Z" fill="#9A7312" transform="matrix(1,0,0,-1,-1,46)"/>
  <path d="M67.8392,48.4144 q-5.7182,-0.6526 -9.7446,0.7979 q-4.0264,1.4504 -5.6007,4.9978 q-1.3922,3.1965 -0.4936,6.3129 q0.8985,3.1164 4.3811,4.3007 q1.6893,0.5207 3.1678,0.3752 q1.4784,-0.1455 2.8499,-0.8142 q0.401,3.8602 3.8249,5.4149 q2.5792,1.2944 5.0001,0.7919 q2.4209,-0.5025 3.9488,-2.1588 q1.6905,-1.8837 1.9874,-4.5576 q0.297,-2.6739 -1.8398,-5.1638 q-1.5977,-1.8983 -4.2844,-2.5137 q-2.6868,-0.6154 -5.6693,-0.9612 q-0.6173,-0.0978 -1.2963,-0.2053 q-0.679,-0.1075 -1.4198,-0.2249 q-1.1502,0.0709 -1.2871,0.9351 q-0.2212,0.5977 0.1424,1.0983 q0.3637,0.5005 0.8575,0.5788 l1.1111,0.176 q0.753,1.6379 -0.1509,2.9502 q-0.9039,1.3122 -2.6555,1.984 q-1.7516,0.6717 -3.4214,0.0276 q-2.2675,-0.8654 -2.9619,-2.8737 q-0.6944,-2.0083 0.4375,-4.3602 q1.1905,-2.7222 4.9016,-3.7797 q3.7111,-1.0574 7.8047,-0.5356 l0.4106,-2.5926 Z M66.0867,57.8816 q2.4692,0.3911 4.3535,0.8794 q1.8843,0.4883 2.9624,1.6715 q1.286,1.4692 1.2267,3.0418 q-0.0592,1.5726 -0.8721,2.7094 q-0.9754,1.3642 -2.6977,1.8507 q-1.7223,0.4865 -3.5608,-0.6905 q-1.4033,-0.7285 -2.1563,-2.3664 q-0.753,-1.6379 0.2554,-4.0093 q0.605,-1.4228 0.4889,-3.0865 Z M81.7111,45.1441 q-4.7437,3.259 -6.8308,6.9952 q-2.0872,3.7362 -0.948,7.4462 q1.0464,3.3257 3.7691,5.0882 q2.7226,1.7624 6.1279,0.3715 q1.6165,-0.7153 2.6368,-1.7951 q1.0203,-1.0798 1.6167,-2.4842 q2.8352,2.6502 6.4392,1.5773 q2.7957,-0.7152 4.2931,-2.6827 q1.4974,-1.9674 1.5638,-4.2199 q0.04,-2.5307 -1.4902,-4.7435 q-1.5301,-2.2128 -4.7762,-2.6901 q-2.4511,-0.3845 -4.8826,0.9138 q-2.4314,1.2982 -4.9092,2.994 q-0.53,0.3312 -1.113,0.6955 q-0.583,0.3643 -1.219,0.7617 q-0.8215,0.8082 -0.3579,1.5502 q0.2252,0.5963 0.828,0.7354 q0.6028,0.1392 1.0269,-0.1258 l0.954,-0.5961 q1.6429,0.7421 1.8216,2.3255 q0.1787,1.5833 -0.7025,3.2395 q-0.8812,1.6561 -2.564,2.2654 q-2.279,0.8345 -4.1206,-0.2256 q-1.8416,-1.0601 -2.5303,-3.5776 q-0.8875,-2.8355 1.2195,-6.0682 q2.107,-3.2327 5.5388,-5.5246 l-1.391,-2.2261 Z M86.5994,53.4388 q2.1201,-1.3248 3.8625,-2.1925 q1.7424,-0.8677 3.3323,-0.6821 q1.9344,0.2652 2.9214,1.4908 q0.987,1.2257 1.1194,2.6169 q0.1588,1.6695 -0.8218,3.1666 q-0.9806,1.4971 -3.1403,1.8149 q-1.537,0.3708 -3.1799,-0.3713 q-1.6429,-0.7421 -2.4376,-3.1934 q-0.4769,-1.4707 -1.656,-2.6501 Z M92.4031,32.7875 q-2.3876,5.2367 -2.2524,9.5142 q0.1352,4.2775 3.0225,6.871 q2.6099,2.3118 5.8514,2.4202 q3.2415,0.1085 5.4441,-2.8377 q1.0172,-1.4457 1.3357,-2.8968 q0.3185,-1.451 0.1063,-2.962 q3.7952,0.8114 6.3319,-1.9644 q2.0281,-2.053 2.2983,-4.5106 q0.2702,-2.4576 -0.8329,-4.4226 q-1.2691,-2.1898 -3.7204,-3.2985 q-2.4513,-1.1087 -5.4796,0.1541 q-2.2991,0.9329 -3.7146,3.298 q-1.4155,2.3651 -2.6661,5.0948 q-0.2837,0.5569 -0.5958,1.1694 q-0.3121,0.6126 -0.6526,1.2808 q-0.288,1.1159 0.4916,1.5131 q0.5001,0.3951 1.0885,0.2039 q0.5884,-0.1912 0.8154,-0.6367 l0.5107,-1.0024 q1.7905,-0.21 2.7592,1.0551 q0.9687,1.2652 1.0663,3.1386 q0.0976,1.8735 -1.031,3.2625 q-1.5237,1.8891 -3.6483,1.9289 q-2.1246,0.0398 -4.0116,-1.7634 q-2.2211,-1.9734 -2.08,-5.8296 q0.1411,-3.8562 1.9024,-7.5883 l-2.3389,-1.1917 Z M100.8654,37.3798 q1.1349,-2.2275 2.1816,-3.8687 q1.0466,-1.6412 2.5051,-2.3009 q1.7947,-0.769 3.272,-0.2267 q1.4773,0.5423 2.3073,1.6666 q0.996,1.3492 0.9265,3.1376 q-0.0695,1.7883 -1.757,3.1731 q-1.1265,1.1095 -2.9169,1.3195 q-1.7905,0.21 -3.7342,-1.4818 q-1.1662,-1.0151 -2.7843,-1.4187 Z M93.2119,18.4175 q1.3425,5.5967 4.0826,8.8843 q2.7401,3.2876 6.612,3.5537 q3.4799,0.215 6.1011,-1.6952 q2.6212,-1.9102 2.5431,-5.5879 q-0.0885,-1.7655 -0.7309,-3.1051 q-0.6424,-1.3395 -1.7398,-2.3996 q3.4903,-1.6971 3.7803,-5.4463 q0.3342,-2.8664 -0.9659,-4.9695 q-1.3001,-2.1031 -3.3792,-2.9724 q-2.3483,-0.9443 -4.9626,-0.3088 q-2.6143,0.6355 -4.2232,3.495 q-1.2374,2.1506 -0.8968,4.8858 q0.3406,2.7353 1.0357,5.6563 q0.1192,0.6135 0.2504,1.2884 q0.1312,0.6749 0.2743,1.4111 q0.4601,1.0566 1.319,0.8897 q0.6374,0.0035 0.9834,-0.5095 q0.346,-0.5129 0.2506,-1.0037 l-0.2146,-1.1043 q1.2816,-1.2678 2.8239,-0.8672 q1.5423,0.4006 2.7726,1.8169 q1.2303,1.4163 1.1961,3.2057 q-0.0377,2.4268 -1.6874,3.7661 q-1.6498,1.3394 -4.2469,1.0801 q-2.9653,-0.1877 -5.2282,-3.3133 q-2.2629,-3.1257 -3.1727,-7.151 l-2.5768,0.5008 Z M102.7078,16.8265 q-0.477,-2.4541 -0.6626,-4.3918 q-0.1856,-1.9377 0.5575,-3.3555 q0.9408,-1.7109 2.4389,-2.1931 q1.498,-0.4822 2.8443,-0.1072 q1.6155,0.45 2.6618,1.9021 q1.0463,1.452 0.5689,3.5823 q-0.2046,1.5678 -1.4863,2.8357 q-1.2816,1.2678 -3.855,1.1313 q-1.544,-0.0819 -3.0676,0.5962 Z M84.3711,5.2149 q4.0333,4.1059 8.0753,5.5127 q4.042,1.4068 7.498,-0.3593 q3.0937,-1.608 4.3567,-4.5955 q1.263,-2.9874 -0.6981,-6.0996 q-0.9852,-1.4678 -2.2257,-2.2852 q-1.2406,-0.8174 -2.7272,-1.1608 q2.1177,-3.2524 0.4353,-6.6155 q-1.1898,-2.6292 -3.3875,-3.7623 q-2.1976,-1.1331 -4.4275,-0.8074 q-2.4993,0.4 -4.4129,2.2912 q-1.9136,1.8912 -1.82,5.171 q0.047,2.4808 1.7477,4.6499 q1.7008,2.1692 3.801,4.315 q0.4182,0.4645 0.8782,0.9754 q0.46,0.5109 0.9619,1.0683 q0.9386,0.6688 1.5888,0.0833 q0.5481,-0.3253 0.5805,-0.9432 q0.0324,-0.6179 -0.3022,-0.9895 l-0.7528,-0.8361 q0.4456,-1.7469 1.9739,-2.1978 q1.5283,-0.4509 3.3124,0.1294 q1.784,0.5803 2.6763,2.1318 q1.2176,2.0996 0.4933,4.0974 q-0.7243,1.9978 -3.0841,3.1132 q-2.6384,1.3664 -6.188,-0.1474 q-3.5496,-1.5137 -6.4026,-4.4957 l-1.9508,1.7565 Z M91.6913,-1.0397 q-1.6728,-1.8579 -2.8299,-3.4233 q-1.1571,-1.5653 -1.2503,-3.1634 q-0.0747,-1.9512 0.961,-3.136 q1.0357,-1.1849 2.3829,-1.5568 q1.6166,-0.4463 3.2613,0.2595 q1.6447,0.7058 2.3327,2.7776 q0.6321,1.4493 0.1865,3.1962 q-0.4456,1.7469 -2.7217,2.9552 q-1.3657,0.725 -2.3224,2.091 Z M71.2006,0.2085 q5.706,0.7523 9.7572,-0.6277 q4.0512,-1.38 5.6871,-4.8993 q1.4478,-3.1718 0.6037,-6.3034 q-0.844,-3.1316 -4.3054,-4.3766 q-1.68,-0.5501 -3.1608,-0.4304 q-1.4808,0.1197 -2.8637,0.7643 q-0.3336,-3.8667 -3.7299,-5.4809 q-2.5563,-1.3392 -4.9856,-0.8791 q-2.4293,0.4601 -3.9859,2.0896 q-1.7231,1.8539 -2.0667,4.5223 q-0.3436,2.6684 1.7494,5.1952 q1.5643,1.9259 4.24,2.5881 q2.6757,0.6622 5.6518,1.06 q0.6155,0.1085 1.2926,0.2279 q0.677,0.1194 1.4156,0.2496 q1.1513,-0.0508 1.3033,-0.9126 q0.2316,-0.5938 -0.1233,-1.1006 q-0.3549,-0.5068 -0.8473,-0.5936 l-1.1079,-0.1954 q-0.7243,-1.6508 0.2023,-2.9471 q0.9267,-1.2963 2.6898,-1.9374 q1.7631,-0.6411 3.4214,0.0321 q2.2521,0.9048 2.9113,2.925 q0.6592,2.0201 -0.5135,4.3519 q-1.2378,2.7011 -4.9668,3.6936 q-3.729,0.9925 -7.813,0.3994 l-0.4558,2.5851 Z M73.1181,-9.2268 q-2.462,-0.4341 -4.3375,-0.9552 q-1.8755,-0.5211 -2.9329,-1.7229 q-1.2601,-1.4915 -1.1735,-3.0628 q0.0867,-1.5713 0.9192,-2.6938 q0.9991,-1.347 2.7296,-1.8034 q1.7305,-0.4564 3.5482,0.7526 q1.3904,0.7529 2.1147,2.4037 q0.7243,1.6508 -0.3253,4.0043 q-0.6298,1.4121 -0.5426,3.0775 Z M56.548,4.0439 q5.1056,-2.6566 7.6327,-6.1106 q2.527,-3.454 1.8486,-7.2753 q-0.6333,-3.4286 -3.1209,-5.5098 q-2.4876,-2.0812 -6.0371,-1.1157 q-1.6917,0.513 -2.836,1.4604 q-1.1443,0.9474 -1.9075,2.2686 q-2.4911,-2.9761 -6.1991,-2.3504 q-2.8621,0.3691 -4.5882,2.1395 q-1.7261,1.7703 -2.0666,3.9979 q-0.3481,2.507 0.9009,4.8899 q1.249,2.3829 4.4129,3.2523 q2.3861,0.6804 4.9577,-0.3119 q2.5716,-0.9922 5.2377,-2.3733 q0.5664,-0.2641 1.1895,-0.5547 q0.6231,-0.2905 1.3028,-0.6075 q0.9139,-0.702 0.5442,-1.495 q-0.1508,-0.6193 -0.7322,-0.8309 q-0.5814,-0.2116 -1.0346,-0.0003 l-1.0196,0.4754 q-1.5402,-0.9369 -1.5246,-2.5302 q0.0156,-1.5934 1.0922,-3.1298 q1.0766,-1.5364 2.8211,-1.9361 q2.3638,-0.5505 4.0625,0.7262 q1.6987,1.2767 2.0755,3.8595 q0.5353,2.9226 -1.9501,5.8745 q-2.4854,2.9519 -6.1711,4.8084 l1.1093,2.3791 Z M52.707,-4.785 q-2.2658,1.0565 -4.101,1.7054 q-1.8352,0.6489 -3.3907,0.2708 q-1.8877,-0.499 -2.718,-1.8358 q-0.8303,-1.3369 -0.7921,-2.7339 q0.0458,-1.6764 1.2016,-3.0429 q1.1558,-1.3665 3.3382,-1.4187 q1.5708,-0.1808 3.111,0.7561 q1.5402,0.9369 2.0303,3.4668 q0.294,1.5179 1.3206,2.8322 Z M47.2001,15.6006 q2.747,-5.0575 2.9104,-9.3342 q0.1634,-4.2766 -2.536,-7.0651 q-2.4423,-2.4882 -5.6684,-2.8224 q-3.2261,-0.3342 -5.6288,2.4511 q-1.1156,1.3713 -1.5345,2.7966 q-0.4189,1.4253 -0.3126,2.9474 q-3.7294,-1.0741 -6.4535,1.5181 q-2.1663,1.9066 -2.6073,4.3395 q-0.4409,2.4329 0.5225,4.47 q1.1134,2.273 3.4814,3.55 q2.368,1.277 5.4771,0.2284 q2.3586,-0.7703 3.9356,-3.031 q1.577,-2.2607 3.0149,-4.8966 q0.3219,-0.5357 0.676,-1.125 q0.3541,-0.5893 0.7403,-1.2322 q0.3651,-1.0931 -0.3849,-1.5437 q-0.4714,-0.429 -1.0717,-0.2793 q-0.6003,0.1497 -0.8578,0.5783 l-0.5794,0.9643 q-1.8008,0.0847 -2.6789,-1.245 q-0.8781,-1.3296 -0.8448,-3.2054 q0.0333,-1.8757 1.256,-3.1827 q1.6517,-1.7783 3.774,-1.6698 q2.1222,0.1085 3.8789,2.0389 q2.0781,2.1236 1.6685,5.9606 q-0.4096,3.837 -2.4269,7.4373 l2.2501,1.3519 Z M39.0785,10.4293 q-1.2875,2.1429 -2.4461,3.7072 q-1.1586,1.5642 -2.6595,2.1207 q-1.844,0.642 -3.2799,-0.002 q-1.4359,-0.644 -2.1855,-1.8235 q-0.8995,-1.4154 -0.7055,-3.1946 q0.194,-1.7792 1.9741,-3.0429 q1.2011,-1.0283 3.0019,-1.1129 q1.8008,-0.0847 3.6218,1.7386 q1.0926,1.094 2.6787,1.6094 Z M46.3992,30.1838 q-0.7502,-5.7065 -3.1318,-9.2625 q-2.3815,-3.556 -6.2045,-4.2254 q-3.4385,-0.5775 -6.245,1.0483 q-2.8065,1.6258 -3.1132,5.2916 q-0.0965,1.7652 0.4023,3.1645 q0.4989,1.3994 1.4795,2.5684 q-3.6487,1.3231 -4.3289,5.0215 q-0.632,2.8159 0.4412,5.0433 q1.0732,2.2275 3.0501,3.3093 q2.2368,1.1846 4.9032,0.8258 q2.6664,-0.3588 4.5655,-3.0345 q1.4554,-2.0095 1.4025,-4.7655 q-0.0529,-2.7559 -0.4389,-5.7337 q-0.0545,-0.6226 -0.1144,-1.3075 q-0.0599,-0.6849 -0.1253,-1.4321 q-0.3471,-1.099 -1.2188,-1.0227 q-0.6335,-0.0701 -1.0312,0.4039 q-0.3977,0.474 -0.3541,0.9721 l0.0981,1.1207 q-1.4072,1.127 -2.8991,0.5673 q-1.492,-0.5596 -2.5676,-2.0967 q-1.0756,-1.5371 -0.8545,-3.3132 q0.2911,-2.4096 2.0719,-3.5692 q1.7807,-1.1596 4.3367,-0.6304 q2.9295,0.4966 4.8534,3.8417 q1.9239,3.3451 2.408,7.4436 l2.6151,-0.2288 Z M36.7888,30.7736 q0.2179,2.4905 0.2,4.437 q-0.0179,1.9465 -0.9052,3.2789 q-1.1145,1.6033 -2.6548,1.9262 q-1.5402,0.323 -2.84,-0.1907 q-1.5597,-0.6164 -2.4485,-2.1699 q-0.8888,-1.5535 -0.1914,-3.6222 q0.3674,-1.5379 1.7745,-2.6649 q1.4072,-1.127 3.9522,-0.7222 q1.527,0.2428 3.1132,-0.2724 Z M53.6559,42.1329 q-4.3756,-3.7387 -8.5247,-4.7879 q-4.1491,-1.0492 -7.438,1.0113 q-2.9417,1.8715 -3.9395,4.9575 q-0.9978,3.086 1.227,6.0154 q1.1093,1.3763 2.4163,2.0825 q1.307,0.7061 2.8179,0.9187 q-1.8262,3.4245 0.1428,6.6281 q1.4144,2.5154 3.7023,3.4527 q2.2879,0.9372 4.4809,0.4185 q2.4548,-0.6163 4.1963,-2.667 q1.7415,-2.0507 1.3624,-5.3098 q-0.263,-2.4672 -2.1462,-4.4798 q-1.8833,-2.0126 -4.1625,-3.9672 q-0.4571,-0.4263 -0.9599,-0.8951 q-0.5028,-0.4689 -1.0513,-0.9804 q-0.9932,-0.5844 -1.59,0.0555 q-0.5177,0.3718 -0.4961,0.9902 q0.0216,0.6183 0.3872,0.9593 l0.8227,0.7673 q-0.2917,1.779 -1.7749,2.3614 q-1.4832,0.5824 -3.311,0.1598 q-1.8278,-0.4226 -2.8518,-1.8904 q-1.3959,-1.9854 -0.8484,-4.0387 q0.5474,-2.0532 2.8009,-3.37 q2.5093,-1.591 6.1772,-0.3924 q3.6679,1.1986 6.7699,3.9205 l1.7903,-1.9197 Z M46.9087,49.0014 q1.8283,1.705 3.1174,3.1635 q1.2891,1.4585 1.5212,3.0423 q0.2445,1.9372 -0.684,3.2077 q-0.9285,1.2706 -2.2381,1.7585 q-1.5715,0.5855 -3.2714,0.0257 q-1.6999,-0.5598 -2.5658,-2.5637 q-0.756,-1.3887 -0.4643,-3.1677 q0.2917,-1.779 2.4538,-3.181 q1.2973,-0.8412 2.1313,-2.2854 Z M69.75,-2.5 q-7.375,0 -13.4375,3.625 q-6.0625,3.625 -9.6875,9.75 q-3.625,6.125 -3.625,13.5 q0,7.375 3.625,13.4375 q3.625,6.0625 9.6875,9.6875 q6.0625,3.625 13.4375,3.625 q7.5,0 13.5625,-3.625 q6.0625,-3.625 9.6875,-9.6875 q3.625,-6.0625 3.625,-13.4375 q0,-7.375 -3.625,-13.5 q-3.625,-6.125 -9.6875,-9.75 q-6.0625,-3.625 -13.5625,-3.625 Z M69.75,1.25 q6.5,0 11.6875,3.125 q5.1875,3.125 8.3125,8.375 q3.125,5.25 3.125,11.625 q0,6.375 -3.125,11.5625 q-3.125,5.1875 -8.3125,8.3125 q-5.1875,3.125 -11.6875,3.125 q-6.375,0 -11.5625,-3.125 q-5.1875,-3.125 -8.3125,-8.3125 q-3.125,-5.1875 -3.125,-11.5625 q0,-6.375 3.125,-11.625 q3.125,-5.25 8.3125,-8.375 q5.1875,-3.125 11.5625,-3.125 Z" fill="#D4AF37" transform="matrix(1,0,0,-1,-1,46)"/>
  <path d="M107.3125,31.75 q-1.5,0 -2.6562,1.1562 q-1.1562,1.1562 -1.1562,2.6562 q0,1.5625 1.1562,2.6875 q1.1562,1.125 2.6562,1.125 q1.5625,0 2.6875,-1.125 q1.125,-1.125 1.125,-2.6875 q0,-1.5 -1.125,-2.6562 q-1.125,-1.1562 -2.6875,-1.1562 Z M92.1875,-11.5 q-1.5,0 -2.6562,1.1562 q-1.1562,1.1562 -1.1562,2.6562 q0,1.5625 1.1562,2.6875 q1.1562,1.125 2.6562,1.125 q1.5625,0 2.6875,-1.125 q1.125,-1.125 1.125,-2.6875 q0,-1.5 -1.125,-2.6562 q-1.125,-1.1562 -2.6875,-1.1562 Z M32.4375,32 q-1.5,0 -2.6562,1.1562 q-1.1562,1.1562 -1.1562,2.6562 q0,1.5625 1.1562,2.6875 q1.1562,1.125 2.6562,1.125 q1.5625,0 2.6875,-1.125 q1.125,-1.125 1.125,-2.6875 q0,-1.5 -1.125,-2.6562 q-1.125,-1.1562 -2.6875,-1.1562 Z M69.8125,59.75 q-1.5,0 -2.6562,1.1562 q-1.1562,1.1562 -1.1562,2.6562 q0,1.5625 1.1562,2.6875 q1.1562,1.125 2.6562,1.125 q1.5625,0 2.6875,-1.125 q1.125,-1.125 1.125,-2.6875 q0,-1.5 -1.125,-2.6562 q-1.125,-1.1562 -2.6875,-1.1562 Z M46.4375,-11 q-1.5,0 -2.6562,1.1562 q-1.1562,1.1562 -1.1562,2.6562 q0,1.5625 1.1562,2.6875 q1.1562,1.125 2.6562,1.125 q1.5625,0 2.6875,-1.125 q1.125,-1.125 1.125,-2.6875 q0,-1.5 -1.125,-2.6562 q-1.125,-1.1562 -2.6875,-1.1562 Z" fill="#802001" transform="matrix(1,0,0,-1,-1,46)"/>
  <path d="M32.4375,8.125 q-1.5,0 -2.6562,1.1562 q-1.1562,1.1562 -1.1562,2.6562 q0,1.5625 1.1562,2.6875 q1.1562,1.125 2.6562,1.125 q1.5625,0 2.6875,-1.125 q1.125,-1.125 1.125,-2.6875 q0,-1.5 -1.125,-2.6562 q-1.125,-1.1562 -2.6875,-1.1562 Z M106.6875,7.625 q-1.5,0 -2.6562,1.1562 q-1.1562,1.1562 -1.1562,2.6562 q0,1.5625 1.1562,2.6875 q1.1562,1.125 2.6562,1.125 q1.5625,0 2.6875,-1.125 q1.125,-1.125 1.125,-2.6875 q0,-1.5 -1.125,-2.6562 q-1.125,-1.1562 -2.6875,-1.1562 Z M69.4375,-18.75 q-1.5,0 -2.6562,1.1562 q-1.1562,1.1562 -1.1562,2.6562 q0,1.5625 1.1562,2.6875 q1.1562,1.125 2.6562,1.125 q1.5625,0 2.6875,-1.125 q1.125,-1.125 1.125,-2.6875 q0,-1.5 -1.125,-2.6562 q-1.125,-1.1562 -2.6875,-1.1562 Z M46.9375,51.875 q-1.5,0 -2.6562,1.1562 q-1.1562,1.1562 -1.1562,2.6562 q0,1.5625 1.1562,2.6875 q1.1562,1.125 2.6562,1.125 q1.5625,0 2.6875,-1.125 q1.125,-1.125 1.125,-2.6875 q0,-1.5 -1.125,-2.6562 q-1.125,-1.1562 -2.6875,-1.1562 Z M93.0625,51.375 q-1.5,0 -2.6562,1.1562 q-1.1562,1.1562 -1.1562,2.6562 q0,1.5625 1.1562,2.6875 q1.1562,1.125 2.6562,1.125 q1.5625,0 2.6875,-1.125 q1.125,-1.125 1.125,-2.6875 q0,-1.5 -1.125,-2.6562 q-1.125,-1.1562 -2.6875,-1.1562 Z" fill="#E22E00" transform="matrix(1,0,0,-1,-1,46)"/>
  <path d="M-73.875,13.5 q-1,-0.25 -3.6875,-0.5 q-2.6875,-0.25 -5.9375,0 q-3.25,0.25 -6.1875,1.5 q-2.9375,1.25 -4.4375,3.875 q4,0.75 6.75,4.625 q0.25,-0.375 0.625,-0.625 q0.375,-0.25 0.625,-0.5 q-0.5,0.875 -0.875,2.0625 q-0.375,1.1875 -0.375,2.8125 q0,3.25 1.9375,6.5 q1.9375,3.25 6.1875,3.25 q3.625,0 5.625,-2 q2,-2 2.875,-4.125 q0,0.875 -0.0625,1.625 q-0.0625,0.75 -0.1875,1.25 l5.625,6 q-0.125,2 -0.25,3.9375 q-0.125,1.9375 -0.375,3.8125 q1.5,1.25 3.1875,3 q1.6875,1.75 3.0625,3.5 q0.375,-5 0.75,-9.625 q0.375,-4.625 0.5,-9.125 q1.5,1.375 3,2.875 q1.5,1.5 3,3.5 q0,-3.125 0.0625,-6.9375 q0.0625,-3.8125 0.0625,-6.75 q0,-2.9375 0,-3.4375 q0,-1.5 -1.125,-2.875 q-1.125,-1.375 -2.875,-1.375 h-13 q-0.125,-2.625 -1.25,-4.125 q-1.125,-1.5 -3.25,-2.125 Z M-69.125,-1.125 q-3.875,0 -6,1 q-2.125,1 -2.625,1.875 q4.125,1.625 5.875,4.875 q1.375,-1.25 2.6875,-1.625 q1.3125,-0.375 2.5625,-0.25 q0.375,3.75 -1.875,5.25 q-2.25,1.5 -6.625,2.875 q3.5,0.625 5.8125,2.4375 q2.3125,1.8125 2.4375,5.3125 q2.125,-1.5 3.3125,-3.875 q1.1875,-2.375 1.6875,-4.9375 q0.5,-2.5625 0.6875,-4.5 q0.1875,-1.9375 0.1875,-2.5625 q0.125,-1.625 -0.5,-3.125 q-0.625,-1.5 -2.375,-2.125 q-0.75,-0.125 -1.9375,-0.375 q-1.1875,-0.25 -3.3125,-0.25 Z" fill="#9A7312" transform="matrix(1,0,0,-1,139,46)"/>
  <path d="M-74,14.125 q-1,-0.25 -3.4375,-0.5 q-2.4375,-0.25 -5.5,-0.0625 q-3.0625,0.1875 -5.8125,1.1875 q-2.75,1 -4.375,3.25 q3.25,1 5.75,4 q2.75,-2.625 5.875,-2.6875 q3.125,-0.0625 4.875,0.1875 q0.25,0 0.375,0 l-0.25,0.625 q-4.625,-0.5 -7.4375,0.625 q-2.8125,1.125 -2.8125,6 q0,3.125 1.8125,6.125 q1.8125,3 5.6875,3 q3.375,0 5.25,-1.875 q1.875,-1.875 2.6875,-4.125 q0.8125,-2.25 0.8125,-3.5 h0.5 q0,0.75 -0.0625,3 q-0.0625,2.25 -0.3125,3.625 l5,5.375 q0.25,-2.875 0.4375,-5.875 q0.1875,-3 0.1875,-6.125 h0.625 q0,4.875 -0.4375,10.125 q-0.4375,5.25 -0.8125,10.25 q2.625,2.125 5.125,5.125 q0.5,-6.5 0.9375,-12.6875 q0.4375,-6.1875 0.4375,-12.8125 h0.625 q0,1.875 0,3.8125 q0,1.9375 -0.125,3.8125 q1.375,1.125 2.6875,2.375 q1.3125,1.25 2.5625,2.875 q0,-3.125 0.0625,-6.4375 q0.0625,-3.3125 0.0625,-5.8125 q0,-2.5 0,-3 q0,-1.25 -0.9375,-2.4375 q-0.9375,-1.1875 -2.4375,-1.1875 h-13.625 q0,-2.75 -1,-4.1875 q-1,-1.4375 -3,-2.0625 Z M-79,27.75 q0.625,0 0.625,0.625 q0,0.625 -0.625,0.625 q-0.625,0 -0.625,-0.625 q0,-0.625 0.625,-0.625 Z M-69.125,-0.5 q-3.125,0 -5,0.625 q-1.875,0.625 -2.625,1.375 q3.375,1.625 5,4.125 q1.5,-1.125 2.9375,-1.375 q1.4375,-0.25 2.8125,-0.125 q0.5,3.875 -1.375,5.625 q-1.875,1.75 -5.375,3 q2.5,0.75 4.1875,2.375 q1.6875,1.625 2.1875,4.25 q2.25,-2 3.25,-5.25 q1,-3.25 1.25,-5.9375 q0.25,-2.6875 0.25,-3.4375 q0.125,-1.625 -0.4375,-2.875 q-0.5625,-1.25 -1.9375,-1.75 q-0.75,-0.125 -1.9375,-0.375 q-1.1875,-0.25 -3.1875,-0.25 Z" fill="#D4AF37" transform="matrix(1,0,0,-1,139,46)"/>
  <path d="" fill="#D3D3D3" transform="matrix(1,0,0,-1,139,46)"/>
  <path d="M24.625,33.75 q-0.5,2.875 0.625,5.25 q1.125,2.375 3.125,3.625 q2.375,1.125 4.625,1 q-0.625,3.25 1.5,6.125 q1,1.25 2.25,2 q1.25,0.75 2.5,1 q-1.25,3.625 0.625,6.625 q1.5,2.5 3.9375,3.5625 q2.4375,1.0625 4.8125,0.5625 q0.875,-0.25 1.6875,-0.625 q0.8125,-0.375 1.5625,-1 q1.375,2.5 4.25,3.5 q1.625,0.625 3.0625,0.5625 q1.4375,-0.0625 2.6875,-0.5625 q0.375,1.5 1.4375,2.875 q1.0625,1.375 2.6875,2.125 q2.75,1.375 5.375,0.8125 q2.625,-0.5625 4.25,-2.3125 q1.5,-1.625 2,-3.5 q1.375,0.75 3,0.875 q1.625,0.125 3.375,-0.625 q1.5,-0.5 2.625,-1.5625 q1.125,-1.0625 1.625,-2.1875 q1.375,0.875 3.125,1.25 q1.75,0.375 3.375,-0.125 q2.875,-0.875 4.5,-2.9375 q1.625,-2.0625 1.75,-4.5625 q0,-1.75 -0.625,-3.375 q1.375,-0.25 2.5625,-0.9375 q1.1875,-0.6875 2.0625,-2.0625 q1.875,-2.625 1.625,-5.5 q3.5,0.375 6.125,-2.25 q2.125,-2.25 2.375,-4.875 q0.25,-2.625 -0.875,-4.75 q-1.25,-2 -2.875,-3 q0.875,-1 1.375,-2.25 q0.5,-1.25 0.5,-2.875 q-0.125,-1.625 -0.6875,-3 q-0.5625,-1.375 -1.4375,-2.375 q1.375,-0.875 2.3125,-2.375 q0.9375,-1.5 1.0625,-3.25 q0.25,-3 -1.125,-5.25 q-1.375,-2.25 -3.625,-3.25 q-2,-0.875 -4.375,-0.5 q0,-2.25 -1.25,-4.25 q-0.875,-1.375 -2.0625,-2.25 q-1.1875,-0.875 -2.4375,-1.25 q0.625,-1.5 0.6875,-3.25 q0.0625,-1.75 -0.6875,-3.375 q-1.25,-2.75 -3.625,-3.9375 q-2.375,-1.1875 -4.75,-0.9375 q-2.625,0.375 -4.25,2 q-0.625,-0.875 -1.5625,-1.6875 q-0.9375,-0.8125 -2.3125,-1.3125 q-1.5,-0.5 -2.9375,-0.4375 q-1.4375,0.0625 -2.6875,0.4375 q-0.875,-3.625 -4.125,-5.125 q-2.75,-1.25 -5.3125,-0.75 q-2.5625,0.5 -4.3125,2.125 q-1.625,1.75 -2.125,4 q-1,-0.375 -2.25,-0.5 q-1.25,-0.125 -2.625,0.25 q-3.125,0.875 -4.75,3.375 q-1.25,-1.125 -2.875,-1.6875 q-1.625,-0.5625 -3.375,-0.3125 q-3,0.5 -4.8125,2.375 q-1.8125,1.875 -2.3125,4.25 q-0.375,2.375 0.625,4.625 q-1.875,0.75 -3.5,2.375 q-1,1.25 -1.5,2.6875 q-0.5,1.4375 -0.5,2.6875 q-1.625,-0.125 -3.25,0.25 q-1.625,0.375 -3,1.625 q-2.25,2.125 -2.6875,4.6875 q-0.4375,2.5625 0.4375,4.8125 q1.25,2.5 3.5,3.625 q-1.5,1.875 -1.625,4.25 q-0.125,1.625 0.25,3.0625 q0.375,1.4375 1.125,2.4375 q-1.375,0.75 -2.5,2.125 q-1.125,1.375 -1.375,3.125 Z" fill="#FFFFE6" transform="matrix(1,0,0,-1,164,46)"/>
  <path d="M68.5543,47.8949 q-6.069,-0.8347 -10.4854,0.6805 q-4.4163,1.5152 -6.1728,5.4134 q-1.4313,3.4434 -0.4386,6.7645 q0.9927,3.3211 4.7026,4.6681 q1.5659,0.5011 3.0345,0.4173 q1.4687,-0.0838 2.6776,-0.5251 q0.3826,1.5793 1.4932,2.9575 q1.1106,1.3782 2.6373,2.1262 q2.7027,1.314 5.3185,0.7791 q2.6158,-0.5349 4.2868,-2.2951 q1.853,-2.1111 2.1793,-4.9702 q0.3263,-2.8591 -2.0183,-5.635 q-1.825,-2.0608 -4.6353,-2.6958 q-2.8102,-0.6349 -5.9163,-1.0003 q-0.6173,-0.0978 -1.2963,-0.2053 q-0.679,-0.1075 -1.2963,-0.2053 q-0.5134,0.0452 -1.1374,0.3894 q-0.624,0.3441 -0.7218,0.9614 q-0.2408,0.7212 0.1975,1.5499 q0.4382,0.8287 1.3025,0.9656 l0.7408,0.1173 q0.7139,1.8849 -1.3922,3.1965 q-2.1061,1.3117 -4.1462,0.6089 q-2.0401,-0.7028 -2.5786,-2.4966 q-0.5385,-1.7938 0.4308,-3.9183 q1.0475,-2.6183 4.8007,-3.5425 q3.7532,-0.9242 7.8274,-0.2789 l0.6062,-3.8272 Z M66.7296,58.6162 q2.0988,0.3324 3.7362,0.7816 q1.6374,0.4492 2.4882,1.4698 q1.2016,1.2028 1.1815,2.5284 q-0.0201,1.3256 -0.833,2.4625 q-0.8324,1.2603 -2.3402,1.591 q-1.5078,0.3307 -3.1189,-0.6838 q-1.2798,-0.7089 -1.877,-2.1324 q-0.5972,-1.4234 0.2291,-3.444 q0.5464,-1.0525 0.5341,-2.5731 Z M81.9099,44.2829 q-5.1279,3.3517 -7.4668,7.3926 q-2.3389,4.0409 -1.1071,8.1352 q1.1789,3.5378 4.1069,5.393 q2.928,1.8552 6.6115,0.4378 q1.5105,-0.6491 2.5639,-1.6758 q1.0534,-1.0267 1.6763,-2.1529 q1.3249,0.9408 3.0672,1.2524 q1.7423,0.3115 3.3853,-0.1256 q2.9017,-0.7815 4.525,-2.9013 q1.6233,-2.1198 1.7295,-4.5445 q0.0135,-2.8089 -1.616,-5.1807 q-1.6295,-2.3718 -5.2201,-2.9286 q-2.7294,-0.358 -5.2668,1.0065 q-2.5374,1.3645 -5.1213,3.1264 q-0.53,0.3312 -1.113,0.6955 q-0.583,0.3643 -1.113,0.6955 q-0.3578,0.371 -0.603,1.04 q-0.2452,0.6691 0.086,1.1991 q0.2914,0.7023 1.1659,1.0402 q0.8744,0.3379 1.6165,-0.1257 l0.636,-0.3974 q1.7754,0.9541 1.0464,3.3257 q-0.7289,2.3716 -2.7297,3.1797 q-2.0008,0.808 -3.584,-0.1924 q-1.5832,-1.0005 -2.2455,-3.2397 q-0.9272,-2.6633 1.299,-5.8231 q2.2262,-3.1598 5.7243,-5.3457 l-2.0534,-3.2861 Z M87.5667,53.5714 q1.802,-1.1261 3.3324,-1.8613 q1.5304,-0.7352 2.8421,-0.5231 q1.6959,0.1194 2.5504,1.1331 q0.8545,1.0137 0.9869,2.4049 q0.1986,1.4972 -0.7224,2.736 q-0.921,1.2388 -2.8024,1.5301 q-1.431,0.3046 -2.8155,-0.3779 q-1.3845,-0.6825 -2.0866,-2.7495 q-0.2781,-1.1527 -1.285,-2.2923 Z M92.1299,31.9469 q-2.6693,5.5141 -2.5929,10.1825 q0.0764,4.6684 3.241,7.5434 q2.8326,2.4253 6.2979,2.5075 q3.4653,0.0822 5.8927,-3.0299 q0.9605,-1.3344 1.3346,-2.757 q0.3742,-1.4227 0.328,-2.7088 q1.6202,0.1241 3.2741,-0.5062 q1.6539,-0.6303 2.8371,-1.8512 q2.0848,-2.1644 2.3845,-4.8175 q0.2996,-2.6531 -0.8581,-4.7862 q-1.4351,-2.4147 -4.0535,-3.6085 q-2.6183,-1.1938 -5.9829,0.1782 q-2.5239,1.0989 -3.9962,3.5754 q-1.4723,2.4765 -2.7796,5.3176 q-0.2837,0.5569 -0.5958,1.1694 q-0.3121,0.6126 -0.5958,1.1694 q-0.1156,0.5022 0.0188,1.202 q0.1344,0.6998 0.6913,0.9835 q0.6115,0.4519 1.5351,0.2912 q0.9236,-0.1607 1.3208,-0.9403 l0.3405,-0.6682 q2.0132,-0.0965 2.6099,2.3118 q0.5966,2.4083 -0.7022,4.1314 q-1.2988,1.7231 -3.1712,1.681 q-1.8724,-0.0422 -3.5934,-1.6205 q-2.1665,-1.8053 -1.8857,-5.6604 q0.2808,-3.8551 2.1535,-7.5305 l-3.4526,-1.7592 Z M101.7627,36.9953 q0.9647,-1.8934 1.8979,-3.3118 q0.9332,-1.4184 2.1667,-1.9122 q1.5152,-0.7711 2.7698,-0.3423 q1.2545,0.4288 2.0845,1.5531 q0.9414,1.1811 0.79,2.7173 q-0.1514,1.5362 -1.6141,2.7549 q-1.0697,0.9981 -2.608,1.1262 q-1.5383,0.1281 -3.2047,-1.2821 q-0.8321,-0.8448 -2.2821,-1.3031 Z M92.4791,17.9233 q1.2913,5.9886 4.2257,9.6205 q2.9343,3.6319 7.1982,3.9492 q3.7253,0.1673 6.5067,-1.9014 q2.7814,-2.0687 2.7783,-6.0156 q-0.0646,-1.6428 -0.6457,-2.9943 q-0.581,-1.3515 -1.4092,-2.3366 q1.3532,-0.8997 2.2685,-2.4147 q0.9153,-1.515 1.096,-3.2055 q0.3104,-2.9891 -1.0869,-5.2643 q-1.3973,-2.2752 -3.6229,-3.2433 q-2.6176,-1.0193 -5.4159,-0.3481 q-2.7983,0.6712 -4.605,3.8239 q-1.3124,2.4199 -0.9479,5.2778 q0.3645,2.858 1.0834,5.9017 q0.1192,0.6135 0.2504,1.2884 q0.1312,0.6749 0.2504,1.2884 q0.2181,0.467 0.7549,0.9357 q0.5368,0.4687 1.1503,0.3494 q0.7601,-0.0204 1.389,-0.7157 q0.6289,-0.6953 0.462,-1.5542 l-0.1431,-0.7362 q1.5271,-1.3155 3.4799,0.215 q1.9529,1.5305 1.9902,3.688 q0.0373,2.1575 -1.4641,3.2771 q-1.5015,1.1195 -3.8294,0.9353 q-2.8187,-0.0888 -4.9709,-3.2997 q-2.1522,-3.2109 -2.9392,-7.2601 l-3.8038,0.7393 Z M103.1782,15.9711 q-0.4054,-2.086 -0.5434,-3.7782 q-0.1379,-1.6923 0.5302,-2.8408 q0.7193,-1.5405 1.9719,-1.975 q1.2526,-0.4345 2.5989,-0.0595 q1.469,0.3512 2.2954,1.6549 q0.8264,1.3038 0.4241,3.1647 q-0.2285,1.4451 -1.3618,2.4931 q-1.1334,1.048 -3.3147,0.9626 q-1.1759,-0.1535 -2.6006,0.3781 Z M83.4884,5.1686 q4.1913,4.4682 8.5771,6.0701 q4.3858,1.6018 8.2041,-0.3223 q3.2795,-1.7753 4.5982,-4.9811 q1.3187,-3.2058 -0.7168,-6.5874 q-0.9015,-1.3749 -2.0957,-2.2341 q-1.1941,-0.8592 -2.4114,-1.2771 q0.6965,-1.4682 0.7008,-3.2382 q0.0043,-1.77 -0.7115,-3.3122 q-1.2735,-2.7221 -3.643,-3.9527 q-2.3695,-1.2306 -4.7759,-0.9142 q-2.7687,0.4744 -4.8217,2.4911 q-2.053,2.0166 -1.9779,5.6495 q0.1214,2.7502 1.9058,5.0123 q1.7844,2.2621 3.9683,4.5008 q0.4182,0.4645 0.8782,0.9754 q0.46,0.5109 0.8782,0.9754 q0.4275,0.2879 1.129,0.4132 q0.7015,0.1253 1.166,-0.2929 q0.641,-0.409 0.822,-1.3288 q0.181,-0.9199 -0.4045,-1.5701 l-0.5018,-0.5574 q0.6314,-1.9141 3.0937,-1.608 q2.4623,0.3061 3.6055,2.1362 q1.1432,1.8301 0.4328,3.5631 q-0.7104,1.733 -2.8007,2.774 q-2.4619,1.3756 -5.9604,-0.2682 q-3.4985,-1.6438 -6.2587,-4.7094 l-2.8798,2.5929 Z M91.654,-2.0153 q-1.4219,-1.5792 -2.4117,-2.9588 q-0.9898,-1.3796 -1.0087,-2.7082 q-0.1769,-1.691 0.6731,-2.7086 q0.8499,-1.0176 2.1971,-1.3895 q1.4401,-0.4556 2.82,0.2363 q1.3799,0.6919 1.9935,2.4943 q0.5485,1.3564 0.1167,2.8385 q-0.4317,1.4821 -2.3455,2.5324 q-1.087,0.4741 -2.0344,1.6636 Z M70.4765,0.7155 q6.0536,0.9405 10.4958,-0.4975 q4.4422,-1.438 6.2663,-5.3049 q1.4912,-3.418 0.5566,-6.7559 q-0.9346,-3.338 -4.6204,-4.7495 q-1.5569,-0.5284 -3.0268,-0.4702 q-1.4699,0.0581 -2.6863,0.4783 q-0.355,-1.5857 -1.4414,-2.9831 q-1.0863,-1.3974 -2.5998,-2.1719 q-2.6794,-1.3609 -5.3042,-0.8718 q-2.6248,0.4891 -4.3262,2.22 q-1.8896,2.0784 -2.2657,4.9314 q-0.3761,2.853 1.9197,5.6694 q1.7888,2.0924 4.5876,2.7763 q2.7987,0.6839 5.898,1.1034 q0.6155,0.1085 1.2925,0.2279 q0.6771,0.1194 1.2926,0.2279 q0.5141,-0.0363 1.144,-0.3695 q0.6299,-0.3332 0.7384,-0.9487 q0.2533,-0.7169 -0.1704,-1.5532 q-0.4237,-0.8363 -1.2854,-0.9882 l-0.7386,-0.1302 q-0.6809,-1.897 1.4478,-3.1718 q2.1287,-1.2747 4.1563,-0.5364 q2.0276,0.7383 2.5347,2.5412 q0.5071,1.8029 -0.4991,3.9102 q-1.093,2.5997 -4.8618,3.4583 q-3.7688,0.8586 -7.8311,0.1423 l-0.6729,3.8161 Z M72.488,-9.9725 q-2.0927,-0.369 -3.722,-0.8467 q-1.6293,-0.4777 -2.4622,-1.513 q-1.1805,-1.2236 -1.1372,-2.5487 q0.0433,-1.3251 0.8758,-2.4476 q0.8543,-1.2456 2.3676,-1.5499 q1.5133,-0.3043 3.1065,0.7381 q1.2673,0.7312 1.8395,2.1648 q0.5722,1.4336 -0.2892,3.4395 q-0.5647,1.0428 -0.5789,2.5634 Z M56.2457,4.8745 q5.4983,-2.7018 8.3124,-6.4276 q2.8141,-3.7258 2.0904,-7.9398 q-0.7389,-3.6552 -3.419,-5.8535 q-2.6801,-2.1983 -6.509,-1.2404 q-1.5784,0.4602 -2.7492,1.3509 q-1.1708,0.8907 -1.9262,1.9326 q-1.2004,-1.0953 -2.8917,-1.6169 q-1.6914,-0.5216 -3.3754,-0.288 q-2.9754,0.422 -4.845,2.3282 q-1.8696,1.9062 -2.2705,4.2999 q-0.3558,2.7864 0.9725,5.3392 q1.3283,2.5528 4.8243,3.5431 q2.6655,0.688 5.3504,-0.3571 q2.6849,-1.0451 5.4643,-2.479 q0.5664,-0.2641 1.1895,-0.5547 q0.6231,-0.2905 1.1895,-0.5547 q0.4003,-0.3246 0.7252,-0.9588 q0.3249,-0.6342 0.0608,-1.2007 q-0.2037,-0.7326 -1.0304,-1.1746 q-0.8268,-0.442 -1.6198,-0.0722 l-0.6797,0.317 q-1.6459,-1.1634 -0.6333,-3.4286 q1.0126,-2.2651 3.097,-2.8233 q2.0844,-0.5582 3.5339,0.6279 q1.4495,1.186 1.834,3.4894 q0.5957,2.7565 -1.9991,5.6215 q-2.5948,2.865 -6.3334,4.6083 l1.6376,3.512 Z M51.7631,-5.0345 q-1.9259,0.898 -3.5345,1.4413 q-1.6086,0.5432 -2.8847,0.1728 q-1.6688,-0.3252 -2.3934,-1.4355 q-0.7246,-1.1103 -0.6864,-2.5073 q-0.0146,-1.5103 1.0505,-2.6276 q1.0651,-1.1173 2.9681,-1.1771 q1.4575,-0.1279 2.7485,0.7182 q1.291,0.8462 1.7359,2.9834 q0.1356,1.1781 0.9961,2.4319 Z M47.4139,16.4582 q3.0473,-5.3146 3.2967,-9.977 q0.2494,-4.6625 -2.7071,-7.7512 q-2.6566,-2.617 -6.1078,-2.9406 q-3.4512,-0.3237 -6.0898,2.6116 q-1.0512,1.2642 -1.5237,2.6573 q-0.4725,1.3931 -0.5161,2.6793 q-1.6077,-0.2368 -3.3015,0.2767 q-1.6939,0.5135 -2.9593,1.6489 q-2.2307,2.0137 -2.7146,4.6395 q-0.4839,2.6258 0.5223,4.8344 q1.2633,2.5089 3.792,3.8824 q2.5288,1.3735 5.9809,0.2394 q2.5945,-0.9202 4.2359,-3.288 q1.6414,-2.3678 3.1437,-5.1109 q0.3219,-0.5357 0.676,-1.125 q0.3541,-0.5893 0.676,-1.125 q0.1504,-0.493 0.065,-1.2004 q-0.0853,-0.7075 -0.6211,-1.0294 q-0.5785,-0.4934 -1.5111,-0.3975 q-0.9326,0.0959 -1.3832,0.8459 l-0.3863,0.6429 q-2.0151,-0.0441 -2.4423,-2.4882 q-0.4273,-2.4441 0.9886,-4.0725 q1.4158,-1.6284 3.2808,-1.4557 q1.8649,0.1726 3.4717,1.8671 q2.0354,1.952 1.4864,5.7782 q-0.549,3.8262 -2.6734,7.3621 l3.3216,1.9957 Z M38.1565,10.7503 q-1.0944,1.8215 -2.1242,3.1714 q-1.0298,1.3499 -2.2949,1.7565 q-1.5653,0.6636 -2.7869,0.1484 q-1.2216,-0.5152 -1.9712,-1.6947 q-0.8567,-1.2439 -0.5986,-2.7658 q0.2582,-1.5219 1.8023,-2.6357 q1.1367,-0.9211 2.6802,-0.9416 q1.5435,-0.0205 3.1075,1.5025 q0.7712,0.9008 2.1857,1.4591 Z M47.0763,30.7519 q-0.6584,-6.0909 -3.1971,-10.0097 q-2.5387,-3.9187 -6.7462,-4.6799 q-3.6875,-0.5557 -6.67,1.211 q-2.9824,1.7667 -3.3919,5.6924 q-0.1074,1.6406 0.3292,3.0455 q0.4366,1.4048 1.1573,2.4711 q-1.4398,0.7534 -2.5085,2.1644 q-1.0686,1.411 -1.4251,3.0735 q-0.6211,2.9404 0.5307,5.3492 q1.1518,2.4088 3.2641,3.6043 q2.4967,1.2873 5.35,0.9122 q2.8532,-0.3751 4.9796,-3.3217 q1.5582,-2.2695 1.4944,-5.1499 q-0.0638,-2.8805 -0.4607,-5.9827 q-0.0545,-0.6226 -0.1144,-1.3075 q-0.0599,-0.6849 -0.1144,-1.3075 q-0.1681,-0.4872 -0.653,-1.0095 q-0.4849,-0.5222 -1.1075,-0.4678 q-0.7581,-0.0592 -1.4562,0.5666 q-0.6981,0.6257 -0.6219,1.4974 l0.0654,0.7472 q-1.6562,1.1487 -3.4385,-0.5775 q-1.7823,-1.7263 -1.5939,-3.8759 q0.1884,-2.1496 1.7987,-3.1061 q1.6103,-0.9565 3.9063,-0.53 q2.7941,0.3829 4.5989,3.8012 q1.8048,3.4183 2.1644,7.5277 l3.8603,-0.3377 Z M36.2316,31.5752 q0.1852,2.117 0.1455,3.8144 q-0.0397,1.6975 -0.8242,2.7699 q-0.8764,1.457 -2.1676,1.7581 q-1.2912,0.3012 -2.5909,-0.2125 q-1.4243,-0.5028 -2.1099,-1.8858 q-0.6857,-1.383 -0.091,-3.1918 q0.3783,-1.4134 1.615,-2.3372 q1.2367,-0.9238 3.3973,-0.6109 q1.1534,0.2755 2.626,-0.1043 Z M54.5392,42.1021 q-4.5646,-4.0859 -9.0732,-5.2994 q-4.5086,-1.2135 -8.1446,1.0359 q-3.1122,2.0543 -4.1465,5.3627 q-1.0343,3.3084 1.2881,6.4997 q1.0179,1.2911 2.2823,2.0429 q1.2644,0.7518 2.5134,1.062 q-0.5659,1.5232 -0.416,3.2868 q0.15,1.7636 0.9974,3.2375 q1.5058,2.6007 3.9735,3.6201 q2.4677,1.0194 4.8373,0.4945 q2.7168,-0.7139 4.5861,-2.9017 q1.8694,-2.1878 1.478,-5.8002 q-0.3605,-2.7291 -2.3352,-4.827 q-1.9747,-2.0979 -4.3453,-4.1377 q-0.4571,-0.4263 -0.9599,-0.8951 q-0.5028,-0.4689 -0.9599,-0.8951 q-0.4509,-0.2496 -1.1607,-0.3133 q-0.7097,-0.0637 -1.136,0.3934 q-0.6029,0.4632 -0.7031,1.3954 q-0.1001,0.9321 0.5398,1.5289 l0.5485,0.5115 q-0.4622,1.9618 -2.9417,1.8715 q-2.4795,-0.0904 -3.7778,-1.8139 q-1.2983,-1.7235 -0.7416,-3.5117 q0.5567,-1.7882 2.5483,-3.0075 q2.3326,-1.5849 5.9609,-0.2522 q3.6283,1.3327 6.6451,4.1459 l2.6428,-2.8339 Z M47.0309,49.97 q1.5541,1.4493 2.6603,2.7373 q1.1062,1.288 1.2408,2.6099 q0.3236,1.6691 -0.4344,2.7568 q-0.758,1.0877 -2.0676,1.5756 q-1.3948,0.5793 -2.8297,0.0103 q-1.4349,-0.569 -2.2032,-2.311 q-0.6646,-1.3034 -0.3636,-2.8174 q0.3009,-1.514 2.1159,-2.7271 q1.0415,-0.567 1.8817,-1.8345 Z M69.75,-3.125 q-7.5,0 -13.75,3.6875 q-6.25,3.6875 -9.9375,9.9375 q-3.6875,6.25 -3.6875,13.875 q0,7.625 3.6875,13.8125 q3.6875,6.1875 9.9375,9.875 q6.25,3.6875 13.75,3.6875 q7.625,0 13.875,-3.6875 q6.25,-3.6875 9.9375,-9.875 q3.6875,-6.1875 3.6875,-13.8125 q0,-7.625 -3.6875,-13.875 q-3.6875,-6.25 -9.9375,-9.9375 q-6.25,-3.6875 -13.875,-3.6875 Z M69.75,1.875 q6.25,0 11.375,3 q5.125,3 8.125,8.125 q3,5.125 3,11.375 q0,6.25 -3,11.3125 q-3,5.0625 -8.125,8.0625 q-5.125,3 -11.375,3 q-6.125,0 -11.25,-3 q-5.125,-3 -8.125,-8.0625 q-3,-5.0625 -3,-11.3125 q0,-6.25 3,-11.375 q3,-5.125 8.125,-8.125 q5.125,-3 11.25,-3 Z" fill="#9A7312" transform="matrix(1,0,0,-1,164,46)"/>
  <path d="M67.8392,48.4144 q-5.7182,-0.6526 -9.7446,0.7979 q-4.0264,1.4504 -5.6007,4.9978 q-1.3922,3.1965 -0.4936,6.3129 q0.8985,3.1164 4.3811,4.3007 q1.6893,0.5207 3.1678,0.3752 q1.4784,-0.1455 2.8499,-0.8142 q0.401,3.8602 3.8249,5.4149 q2.5792,1.2944 5.0001,0.7919 q2.4209,-0.5025 3.9488,-2.1588 q1.6905,-1.8837 1.9874,-4.5576 q0.297,-2.6739 -1.8398,-5.1638 q-1.5977,-1.8983 -4.2844,-2.5137 q-2.6868,-0.6154 -5.6693,-0.9612 q-0.6173,-0.0978 -1.2963,-0.2053 q-0.679,-0.1075 -1.4198,-0.2249 q-1.1502,0.0709 -1.2871,0.9351 q-0.2212,0.5977 0.1424,1.0983 q0.3637,0.5005 0.8575,0.5788 l1.1111,0.176 q0.753,1.6379 -0.1509,2.9502 q-0.9039,1.3122 -2.6555,1.984 q-1.7516,0.6717 -3.4214,0.0276 q-2.2675,-0.8654 -2.9619,-2.8737 q-0.6944,-2.0083 0.4375,-4.3602 q1.1905,-2.7222 4.9016,-3.7797 q3.7111,-1.0574 7.8047,-0.5356 l0.4106,-2.5926 Z M66.0867,57.8816 q2.4692,0.3911 4.3535,0.8794 q1.8843,0.4883 2.9624,1.6715 q1.286,1.4692 1.2267,3.0418 q-0.0592,1.5726 -0.8721,2.7094 q-0.9754,1.3642 -2.6977,1.8507 q-1.7223,0.4865 -3.5608,-0.6905 q-1.4033,-0.7285 -2.1563,-2.3664 q-0.753,-1.6379 0.2554,-4.0093 q0.605,-1.4228 0.4889,-3.0865 Z M81.7111,45.1441 q-4.7437,3.259 -6.8308,6.9952 q-2.0872,3.7362 -0.948,7.4462 q1.0464,3.3257 3.7691,5.0882 q2.7226,1.7624 6.1279,0.3715 q1.6165,-0.7153 2.6368,-1.7951 q1.0203,-1.0798 1.6167,-2.4842 q2.8352,2.6502 6.4392,1.5773 q2.7957,-0.7152 4.2931,-2.6827 q1.4974,-1.9674 1.5638,-4.2199 q0.04,-2.5307 -1.4902,-4.7435 q-1.5301,-2.2128 -4.7762,-2.6901 q-2.4511,-0.3845 -4.8826,0.9138 q-2.4314,1.2982 -4.9092,2.994 q-0.53,0.3312 -1.113,0.6955 q-0.583,0.3643 -1.219,0.7617 q-0.8215,0.8082 -0.3579,1.5502 q0.2252,0.5963 0.828,0.7354 q0.6028,0.1392 1.0269,-0.1258 l0.954,-0.5961 q1.6429,0.7421 1.8216,2.3255 q0.1787,1.5833 -0.7025,3.2395 q-0.8812,1.6561 -2.564,2.2654 q-2.279,0.8345 -4.1206,-0.2256 q-1.8416,-1.0601 -2.5303,-3.5776 q-0.8875,-2.8355 1.2195,-6.0682 q2.107,-3.2327 5.5388,-5.5246 l-1.391,-2.2261 Z M86.5994,53.4388 q2.1201,-1.3248 3.8625,-2.1925 q1.7424,-0.8677 3.3323,-0.6821 q1.9344,0.2652 2.9214,1.4908 q0.987,1.2257 1.1194,2.6169 q0.1588,1.6695 -0.8218,3.1666 q-0.9806,1.4971 -3.1403,1.8149 q-1.537,0.3708 -3.1799,-0.3713 q-1.6429,-0.7421 -2.4376,-3.1934 q-0.4769,-1.4707 -1.656,-2.6501 Z M92.4031,32.7875 q-2.3876,5.2367 -2.2524,9.5142 q0.1352,4.2775 3.0225,6.871 q2.6099,2.3118 5.8514,2.4202 q3.2415,0.1085 5.4441,-2.8377 q1.0172,-1.4457 1.3357,-2.8968 q0.3185,-1.451 0.1063,-2.962 q3.7952,0.8114 6.3319,-1.9644 q2.0281,-2.053 2.2983,-4.5106 q0.2702,-2.4576 -0.8329,-4.4226 q-1.2691,-2.1898 -3.7204,-3.2985 q-2.4513,-1.1087 -5.4796,0.1541 q-2.2991,0.9329 -3.7146,3.298 q-1.4155,2.3651 -2.6661,5.0948 q-0.2837,0.5569 -0.5958,1.1694 q-0.3121,0.6126 -0.6526,1.2808 q-0.288,1.1159 0.4916,1.5131 q0.5001,0.3951 1.0885,0.2039 q0.5884,-0.1912 0.8154,-0.6367 l0.5107,-1.0024 q1.7905,-0.21 2.7592,1.0551 q0.9687,1.2652 1.0663,3.1386 q0.0976,1.8735 -1.031,3.2625 q-1.5237,1.8891 -3.6483,1.9289 q-2.1246,0.0398 -4.0116,-1.7634 q-2.2211,-1.9734 -2.08,-5.8296 q0.1411,-3.8562 1.9024,-7.5883 l-2.3389,-1.1917 Z M100.8654,37.3798 q1.1349,-2.2275 2.1816,-3.8687 q1.0466,-1.6412 2.5051,-2.3009 q1.7947,-0.769 3.272,-0.2267 q1.4773,0.5423 2.3073,1.6666 q0.996,1.3492 0.9265,3.1376 q-0.0695,1.7883 -1.757,3.1731 q-1.1265,1.1095 -2.9169,1.3195 q-1.7905,0.21 -3.7342,-1.4818 q-1.1662,-1.0151 -2.7843,-1.4187 Z M93.2119,18.4175 q1.3425,5.5967 4.0826,8.8843 q2.7401,3.2876 6.612,3.5537 q3.4799,0.215 6.1011,-1.6952 q2.6212,-1.9102 2.5431,-5.5879 q-0.0885,-1.7655 -0.7309,-3.1051 q-0.6424,-1.3395 -1.7398,-2.3996 q3.4903,-1.6971 3.7803,-5.4463 q0.3342,-2.8664 -0.9659,-4.9695 q-1.3001,-2.1031 -3.3792,-2.9724 q-2.3483,-0.9443 -4.9626,-0.3088 q-2.6143,0.6355 -4.2232,3.495 q-1.2374,2.1506 -0.8968,4.8858 q0.3406,2.7353 1.0357,5.6563 q0.1192,0.6135 0.2504,1.2884 q0.1312,0.6749 0.2743,1.4111 q0.4601,1.0566 1.319,0.8897 q0.6374,0.0035 0.9834,-0.5095 q0.346,-0.5129 0.2506,-1.0037 l-0.2146,-1.1043 q1.2816,-1.2678 2.8239,-0.8672 q1.5423,0.4006 2.7726,1.8169 q1.2303,1.4163 1.1961,3.2057 q-0.0377,2.4268 -1.6874,3.7661 q-1.6498,1.3394 -4.2469,1.0801 q-2.9653,-0.1877 -5.2282,-3.3133 q-2.2629,-3.1257 -3.1727,-7.151 l-2.5768,0.5008 Z M102.7078,16.8265 q-0.477,-2.4541 -0.6626,-4.3918 q-0.1856,-1.9377 0.5575,-3.3555 q0.9408,-1.7109 2.4389,-2.1931 q1.498,-0.4822 2.8443,-0.1072 q1.6155,0.45 2.6618,1.9021 q1.0463,1.452 0.5689,3.5823 q-0.2046,1.5678 -1.4863,2.8357 q-1.2816,1.2678 -3.855,1.1313 q-1.544,-0.0819 -3.0676,0.5962 Z M84.3711,5.2149 q4.0333,4.1059 8.0753,5.5127 q4.042,1.4068 7.498,-0.3593 q3.0937,-1.608 4.3567,-4.5955 q1.263,-2.9874 -0.6981,-6.0996 q-0.9852,-1.4678 -2.2257,-2.2852 q-1.2406,-0.8174 -2.7272,-1.1608 q2.1177,-3.2524 0.4353,-6.6155 q-1.1898,-2.6292 -3.3875,-3.7623 q-2.1976,-1.1331 -4.4275,-0.8074 q-2.4993,0.4 -4.4129,2.2912 q-1.9136,1.8912 -1.82,5.171 q0.047,2.4808 1.7477,4.6499 q1.7008,2.1692 3.801,4.315 q0.4182,0.4645 0.8782,0.9754 q0.46,0.5109 0.9619,1.0683 q0.9386,0.6688 1.5888,0.0833 q0.5481,-0.3253 0.5805,-0.9432 q0.0324,-0.6179 -0.3022,-0.9895 l-0.7528,-0.8361 q0.4456,-1.7469 1.9739,-2.1978 q1.5283,-0.4509 3.3124,0.1294 q1.784,0.5803 2.6763,2.1318 q1.2176,2.0996 0.4933,4.0974 q-0.7243,1.9978 -3.0841,3.1132 q-2.6384,1.3664 -6.188,-0.1474 q-3.5496,-1.5137 -6.4026,-4.4957 l-1.9508,1.7565 Z M91.6913,-1.0397 q-1.6728,-1.8579 -2.8299,-3.4233 q-1.1571,-1.5653 -1.2503,-3.1634 q-0.0747,-1.9512 0.961,-3.136 q1.0357,-1.1849 2.3829,-1.5568 q1.6166,-0.4463 3.2613,0.2595 q1.6447,0.7058 2.3327,2.7776 q0.6321,1.4493 0.1865,3.1962 q-0.4456,1.7469 -2.7217,2.9552 q-1.3657,0.725 -2.3224,2.091 Z M71.2006,0.2085 q5.706,0.7523 9.7572,-0.6277 q4.0512,-1.38 5.6871,-4.8993 q1.4478,-3.1718 0.6037,-6.3034 q-0.844,-3.1316 -4.3054,-4.3766 q-1.68,-0.5501 -3.1608,-0.4304 q-1.4808,0.1197 -2.8637,0.7643 q-0.3336,-3.8667 -3.7299,-5.4809 q-2.5563,-1.3392 -4.9856,-0.8791 q-2.4293,0.4601 -3.9859,2.0896 q-1.7231,1.8539 -2.0667,4.5223 q-0.3436,2.6684 1.7494,5.1952 q1.5643,1.9259 4.24,2.5881 q2.6757,0.6622 5.6518,1.06 q0.6155,0.1085 1.2926,0.2279 q0.677,0.1194 1.4156,0.2496 q1.1513,-0.0508 1.3033,-0.9126 q0.2316,-0.5938 -0.1233,-1.1006 q-0.3549,-0.5068 -0.8473,-0.5936 l-1.1079,-0.1954 q-0.7243,-1.6508 0.2023,-2.9471 q0.9267,-1.2963 2.6898,-1.9374 q1.7631,-0.6411 3.4214,0.0321 q2.2521,0.9048 2.9113,2.925 q0.6592,2.0201 -0.5135,4.3519 q-1.2378,2.7011 -4.9668,3.6936 q-3.729,0.9925 -7.813,0.3994 l-0.4558,2.5851 Z M73.1181,-9.2268 q-2.462,-0.4341 -4.3375,-0.9552 q-1.8755,-0.5211 -2.9329,-1.7229 q-1.2601,-1.4915 -1.1735,-3.0628 q0.0867,-1.5713 0.9192,-2.6938 q0.9991,-1.347 2.7296,-1.8034 q1.7305,-0.4564 3.5482,0.7526 q1.3904,0.7529 2.1147,2.4037 q0.7243,1.6508 -0.3253,4.0043 q-0.6298,1.4121 -0.5426,3.0775 Z M56.548,4.0439 q5.1056,-2.6566 7.6327,-6.1106 q2.527,-3.454 1.8486,-7.2753 q-0.6333,-3.4286 -3.1209,-5.5098 q-2.4876,-2.0812 -6.0371,-1.1157 q-1.6917,0.513 -2.836,1.4604 q-1.1443,0.9474 -1.9075,2.2686 q-2.4911,-2.9761 -6.1991,-2.3504 q-2.8621,0.3691 -4.5882,2.1395 q-1.7261,1.7703 -2.0666,3.9979 q-0.3481,2.507 0.9009,4.8899 q1.249,2.3829 4.4129,3.2523 q2.3861,0.6804 4.9577,-0.3119 q2.5716,-0.9922 5.2377,-2.3733 q0.5664,-0.2641 1.1895,-0.5547 q0.6231,-0.2905 1.3028,-0.6075 q0.9139,-0.702 0.5442,-1.495 q-0.1508,-0.6193 -0.7322,-0.8309 q-0.5814,-0.2116 -1.0346,-0.0003 l-1.0196,0.4754 q-1.5402,-0.9369 -1.5246,-2.5302 q0.0156,-1.5934 1.0922,-3.1298 q1.0766,-1.5364 2.8211,-1.9361 q2.3638,-0.5505 4.0625,0.7262 q1.6987,1.2767 2.0755,3.8595 q0.5353,2.9226 -1.9501,5.8745 q-2.4854,2.9519 -6.1711,4.8084 l1.1093,2.3791 Z M52.707,-4.785 q-2.2658,1.0565 -4.101,1.7054 q-1.8352,0.6489 -3.3907,0.2708 q-1.8877,-0.499 -2.718,-1.8358 q-0.8303,-1.3369 -0.7921,-2.7339 q0.0458,-1.6764 1.2016,-3.0429 q1.1558,-1.3665 3.3382,-1.4187 q1.5708,-0.1808 3.111,0.7561 q1.5402,0.9369 2.0303,3.4668 q0.294,1.5179 1.3206,2.8322 Z M47.2001,15.6006 q2.747,-5.0575 2.9104,-9.3342 q0.1634,-4.2766 -2.536,-7.0651 q-2.4423,-2.4882 -5.6684,-2.8224 q-3.2261,-0.3342 -5.6288,2.4511 q-1.1156,1.3713 -1.5345,2.7966 q-0.4189,1.4253 -0.3126,2.9474 q-3.7294,-1.0741 -6.4535,1.5181 q-2.1663,1.9066 -2.6073,4.3395 q-0.4409,2.4329 0.5225,4.47 q1.1134,2.273 3.4814,3.55 q2.368,1.277 5.4771,0.2284 q2.3586,-0.7703 3.9356,-3.031 q1.577,-2.2607 3.0149,-4.8966 q0.3219,-0.5357 0.676,-1.125 q0.3541,-0.5893 0.7403,-1.2322 q0.3651,-1.0931 -0.3849,-1.5437 q-0.4714,-0.429 -1.0717,-0.2793 q-0.6003,0.1497 -0.8578,0.5783 l-0.5794,0.9643 q-1.8008,0.0847 -2.6789,-1.245 q-0.8781,-1.3296 -0.8448,-3.2054 q0.0333,-1.8757 1.256,-3.1827 q1.6517,-1.7783 3.774,-1.6698 q2.1222,0.1085 3.8789,2.0389 q2.0781,2.1236 1.6685,5.9606 q-0.4096,3.837 -2.4269,7.4373 l2.2501,1.3519 Z M39.0785,10.4293 q-1.2875,2.1429 -2.4461,3.7072 q-1.1586,1.5642 -2.6595,2.1207 q-1.844,0.642 -3.2799,-0.002 q-1.4359,-0.644 -2.1855,-1.8235 q-0.8995,-1.4154 -0.7055,-3.1946 q0.194,-1.7792 1.9741,-3.0429 q1.2011,-1.0283 3.0019,-1.1129 q1.8008,-0.0847 3.6218,1.7386 q1.0926,1.094 2.6787,1.6094 Z M46.3992,30.1838 q-0.7502,-5.7065 -3.1318,-9.2625 q-2.3815,-3.556 -6.2045,-4.2254 q-3.4385,-0.5775 -6.245,1.0483 q-2.8065,1.6258 -3.1132,5.2916 q-0.0965,1.7652 0.4023,3.1645 q0.4989,1.3994 1.4795,2.5684 q-3.6487,1.3231 -4.3289,5.0215 q-0.632,2.8159 0.4412,5.0433 q1.0732,2.2275 3.0501,3.3093 q2.2368,1.1846 4.9032,0.8258 q2.6664,-0.3588 4.5655,-3.0345 q1.4554,-2.0095 1.4025,-4.7655 q-0.0529,-2.7559 -0.4389,-5.7337 q-0.0545,-0.6226 -0.1144,-1.3075 q-0.0599,-0.6849 -0.1253,-1.4321 q-0.3471,-1.099 -1.2188,-1.0227 q-0.6335,-0.0701 -1.0312,0.4039 q-0.3977,0.474 -0.3541,0.9721 l0.0981,1.1207 q-1.4072,1.127 -2.8991,0.5673 q-1.492,-0.5596 -2.5676,-2.0967 q-1.0756,-1.5371 -0.8545,-3.3132 q0.2911,-2.4096 2.0719,-3.5692 q1.7807,-1.1596 4.3367,-0.6304 q2.9295,0.4966 4.8534,3.8417 q1.9239,3.3451 2.408,7.4436 l2.6151,-0.2288 Z M36.7888,30.7736 q0.2179,2.4905 0.2,4.437 q-0.0179,1.9465 -0.9052,3.2789 q-1.1145,1.6033 -2.6548,1.9262 q-1.5402,0.323 -2.84,-0.1907 q-1.5597,-0.6164 -2.4485,-2.1699 q-0.8888,-1.5535 -0.1914,-3.6222 q0.3674,-1.5379 1.7745,-2.6649 q1.4072,-1.127 3.9522,-0.7222 q1.527,0.2428 3.1132,-0.2724 Z M53.6559,42.1329 q-4.3756,-3.7387 -8.5247,-4.7879 q-4.1491,-1.0492 -7.438,1.0113 q-2.9417,1.8715 -3.9395,4.9575 q-0.9978,3.086 1.227,6.0154 q1.1093,1.3763 2.4163,2.0825 q1.307,0.7061 2.8179,0.9187 q-1.8262,3.4245 0.1428,6.6281 q1.4144,2.5154 3.7023,3.4527 q2.2879,0.9372 4.4809,0.4185 q2.4548,-0.6163 4.1963,-2.667 q1.7415,-2.0507 1.3624,-5.3098 q-0.263,-2.4672 -2.1462,-4.4798 q-1.8833,-2.0126 -4.1625,-3.9672 q-0.4571,-0.4263 -0.9599,-0.8951 q-0.5028,-0.4689 -1.0513,-0.9804 q-0.9932,-0.5844 -1.59,0.0555 q-0.5177,0.3718 -0.4961,0.9902 q0.0216,0.6183 0.3872,0.9593 l0.8227,0.7673 q-0.2917,1.779 -1.7749,2.3614 q-1.4832,0.5824 -3.311,0.1598 q-1.8278,-0.4226 -2.8518,-1.8904 q-1.3959,-1.9854 -0.8484,-4.0387 q0.5474,-2.0532 2.8009,-3.37 q2.5093,-1.591 6.1772,-0.3924 q3.6679,1.1986 6.7699,3.9205 l1.7903,-1.9197 Z M46.9087,49.0014 q1.8283,1.705 3.1174,3.1635 q1.2891,1.4585 1.5212,3.0423 q0.2445,1.9372 -0.684,3.2077 q-0.9285,1.2706 -2.2381,1.7585 q-1.5715,0.5855 -3.2714,0.0257 q-1.6999,-0.5598 -2.5658,-2.5637 q-0.756,-1.3887 -0.4643,-3.1677 q0.2917,-1.779 2.4538,-3.181 q1.2973,-0.8412 2.1313,-2.2854 Z M69.75,-2.5 q-7.375,0 -13.4375,3.625 q-6.0625,3.625 -9.6875,9.75 q-3.625,6.125 -3.625,13.5 q0,7.375 3.625,13.4375 q3.625,6.0625 9.6875,9.6875 q6.0625,3.625 13.4375,3.625 q7.5,0 13.5625,-3.625 q6.0625,-3.625 9.6875,-9.6875 q3.625,-6.0625 3.625,-13.4375 q0,-7.375 -3.625,-13.5 q-3.625,-6.125 -9.6875,-9.75 q-6.0625,-3.625 -13.5625,-3.625 Z M69.75,1.25 q6.5,0 11.6875,3.125 q5.1875,3.125 8.3125,8.375 q3.125,5.25 3.125,11.625 q0,6.375 -3.125,11.5625 q-3.125,5.1875 -8.3125,8.3125 q-5.1875,3.125 -11.6875,3.125 q-6.375,0 -11.5625,-3.125 q-5.1875,-3.125 -8.3125,-8.3125 q-3.125,-5.1875 -3.125,-11.5625 q0,-6.375 3.125,-11.625 q3.125,-5.25 8.3125,-8.375 q5.1875,-3.125 11.5625,-3.125 Z" fill="#D4AF37" transform="matrix(1,0,0,-1,164,46)"/>
  <path d="M107.3125,31.75 q-1.5,0 -2.6562,1.1562 q-1.1562,1.1562 -1.1562,2.6562 q0,1.5625 1.1562,2.6875 q1.1562,1.125 2.6562,1.125 q1.5625,0 2.6875,-1.125 q1.125,-1.125 1.125,-2.6875 q0,-1.5 -1.125,-2.6562 q-1.125,-1.1562 -2.6875,-1.1562 Z M92.1875,-11.5 q-1.5,0 -2.6562,1.1562 q-1.1562,1.1562 -1.1562,2.6562 q0,1.5625 1.1562,2.6875 q1.1562,1.125 2.6562,1.125 q1.5625,0 2.6875,-1.125 q1.125,-1.125 1.125,-2.6875 q0,-1.5 -1.125,-2.6562 q-1.125,-1.1562 -2.6875,-1.1562 Z M32.4375,32 q-1.5,0 -2.6562,1.1562 q-1.1562,1.1562 -1.1562,2.6562 q0,1.5625 1.1562,2.6875 q1.1562,1.125 2.6562,1.125 q1.5625,0 2.6875,-1.125 q1.125,-1.125 1.125,-2.6875 q0,-1.5 -1.125,-2.6562 q-1.125,-1.1562 -2.6875,-1.1562 Z M69.8125,59.75 q-1.5,0 -2.6562,1.1562 q-1.1562,1.1562 -1.1562,2.6562 q0,1.5625 1.1562,2.6875 q1.1562,1.125 2.6562,1.125 q1.5625,0 2.6875,-1.125 q1.125,-1.125 1.125,-2.6875 q0,-1.5 -1.125,-2.6562 q-1.125,-1.1562 -2.6875,-1.1562 Z M46.4375,-11 q-1.5,0 -2.6562,1.1562 q-1.1562,1.1562 -1.1562,2.6562 q0,1.5625 1.1562,2.6875 q1.1562,1.125 2.6562,1.125 q1.5625,0 2.6875,-1.125 q1.125,-1.125 1.125,-2.6875 q0,-1.5 -1.125,-2.6562 q-1.125,-1.1562 -2.6875,-1.1562 Z" fill="#802001" transform="matrix(1,0,0,-1,164,46)"/>
  <path d="M32.4375,8.125 q-1.5,0 -2.6562,1.1562 q-1.1562,1.1562 -1.1562,2.6562 q0,1.5625 1.1562,2.6875 q1.1562,1.125 2.6562,1.125 q1.5625,0 2.6875,-1.125 q1.125,-1.125 1.125,-2.6875 q0,-1.5 -1.125,-2.6562 q-1.125,-1.1562 -2.6875,-1.1562 Z M106.6875,7.625 q-1.5,0 -2.6562,1.1562 q-1.1562,1.1562 -1.1562,2.6562 q0,1.5625 1.1562,2.6875 q1.1562,1.125 2.6562,1.125 q1.5625,0 2.6875,-1.125 q1.125,-1.125 1.125,-2.6875 q0,-1.5 -1.125,-2.6562 q-1.125,-1.1562 -2.6875,-1.1562 Z M69.4375,-18.75 q-1.5,0 -2.6562,1.1562 q-1.1562,1.1562 -1.1562,2.6562 q0,1.5625 1.1562,2.6875 q1.1562,1.125 2.6562,1.125 q1.5625,0 2.6875,-1.125 q1.125,-1.125 1.125,-2.6875 q0,-1.5 -1.125,-2.6562 q-1.125,-1.1562 -2.6875,-1.1562 Z M46.9375,51.875 q-1.5,0 -2.6562,1.1562 q-1.1562,1.1562 -1.1562,2.6562 q0,1.5625 1.1562,2.6875 q1.1562,1.125 2.6562,1.125 q1.5625,0 2.6875,-1.125 q1.125,-1.125 1.125,-2.6875 q0,-1.5 -1.125,-2.6562 q-1.125,-1.1562 -2.6875,-1.1562 Z M93.0625,51.375 q-1.5,0 -2.6562,1.1562 q-1.1562,1.1562 -1.1562,2.6562 q0,1.5625 1.1562,2.6875 q1.1562,1.125 2.6562,1.125 q1.5625,0 2.6875,-1.125 q1.125,-1.125 1.125,-2.6875 q0,-1.5 -1.125,-2.6562 q-1.125,-1.1562 -2.6875,-1.1562 Z" fill="#E22E00" transform="matrix(1,0,0,-1,164,46)"/>
  <path d="M-83.625,17.875 q-1.375,-0.375 -4.1875,-0.5625 q-2.8125,-0.1875 -6.125,0.0625 q-3.3125,0.25 -6.25,1.25 q-2.9375,1 -4.5625,3 q1.875,0.625 3.25,1.875 q1.375,1.25 2.875,2.875 l1.25,-0.625 l-0.75,0.625 q0.5,0 1.9375,1.3125 q1.4375,1.3125 3.125,3.0625 q1.6875,1.75 3,3.1875 q1.3125,1.4375 1.5625,1.6875 q1.125,-0.5 2.1875,-1.375 q1.0625,-0.875 1.8125,-1.75 q2.875,1.75 5.375,5.875 q0.25,-0.5 0.8125,-2.3125 q0.5625,-1.8125 1.3125,-3.5625 q1.375,1.125 2.375,2.5625 q1,1.4375 2.5,3.6875 q0.25,-0.5 0.6875,-2.125 q0.4375,-1.625 0.9375,-3.25 q1,0.5 2.25,1.8125 q1.25,1.3125 2.25,2.75 q1,1.4375 1.25,2.0625 q0.375,-0.625 0.5,-2.25 q0.125,-1.625 0.625,-3.375 q0.25,1 0.875,1.625 q1,1.125 3.5,3.4375 q2.5,2.3125 4.375,3.9375 l1,-1 q-0.75,-1 -1.5625,-2.3125 q-0.8125,-1.3125 -1.4375,-2.5625 q-1,-2 0.5,-3.5625 q1.5,-1.5625 4.4375,-2.625 q2.9375,-1.0625 6.375,-1.375 q3.4375,-0.3125 6.1875,0.1875 l-7.125,-6.5 q-1.875,-0.25 -5.8125,-0.375 q-3.9375,-0.125 -8.8125,-0.1875 q-4.875,-0.0625 -9.875,0 q-5,0.0625 -9.125,0.1875 q0,-1.125 -0.5,-2.9375 q-0.5,-1.8125 -3,-2.4375 Z M-53.25,7 q-1.125,-1.625 -3.6875,-2.5 q-2.5625,-0.875 -5.6875,-0.8125 q-3.125,0.0625 -6.125,1 q-3,0.9375 -4.875,2.8125 q1.5,0.375 2.875,1.1875 q1.375,0.8125 2.25,2.5625 q0.375,-0.25 0.75,-0.4375 q0.375,-0.1875 0.75,-0.4375 q-1.5,1.5 -1.5,4.125 q0,3.25 2.125,5.5 q2.125,2.25 5.125,2.25 q2.875,0 4.875,-2.25 q2,-2.25 3,-5.125 q1,-2.875 1,-4.75 q0,-1.75 -0.875,-3.125 Z M-80.875,2.25 q-3.875,0 -6,1 q-2.125,1 -2.625,1.875 q4.125,1.625 5.875,4.875 q1.375,-1.25 2.6875,-1.625 q1.3125,-0.375 2.5625,-0.25 q0.375,3.75 -1.875,5.25 q-2.25,1.5 -6.625,2.875 q3.5,0.625 5.8125,2.4375 q2.3125,1.8125 2.4375,5.3125 q2.125,-1.5 3.3125,-3.875 q1.1875,-2.375 1.6875,-4.9375 q0.5,-2.5625 0.6875,-4.5 q0.1875,-1.9375 0.1875,-2.5625 q0.125,-1.625 -0.5,-3.125 q-0.625,-1.5 -2.375,-2.125 q-0.75,-0.125 -1.9375,-0.375 q-1.1875,-0.25 -3.3125,-0.25 Z" fill="#9A7312" transform="matrix(1,0,0,-1,304,46)"/>
  <path d="M-83.75,18.5 q-1.25,-0.375 -3.8125,-0.5625 q-2.5625,-0.1875 -5.625,-0.0625 q-3.0625,0.125 -5.875,1 q-2.8125,0.875 -4.5625,2.5 q1.5,0.625 2.6875,1.8125 q1.1875,1.1875 2.4375,2.4375 q2,-1 5.4375,-1.8125 q3.4375,-0.8125 6.1875,-0.4375 l-0.25,0.5 q-2.25,0 -5.1875,0.5625 q-2.9375,0.5625 -4.6875,1.8125 q1.25,1 2.9375,2.6875 q1.6875,1.6875 3.3125,3.375 q1.625,1.6875 2.375,2.5625 q2.125,-1.25 3.6875,-3.1875 q1.5625,-1.9375 2.1875,-2.8125 l0.375,0.25 q-0.125,0.25 -0.6875,1.1875 q-0.5625,0.9375 -1.1875,1.6875 q1.75,1 2.75,2.1875 q1,1.1875 2,2.8125 q0.25,-0.625 1.1875,-3.3125 q0.9375,-2.6875 2.1875,-4.5625 l0.375,0.375 q-0.375,0.5 -0.6875,1.125 q-0.3125,0.625 -0.5625,1.25 q1.375,1 2.3125,2.3125 q0.9375,1.3125 2.0625,3.0625 q0.25,-0.625 1.0625,-3.1875 q0.8125,-2.5625 2.0625,-4.0625 l0.375,0.375 q-0.125,0.25 -0.5625,0.9375 q-0.4375,0.6875 -0.6875,1.5625 q1.25,0.625 2.75,2.375 q1.5,1.75 2.375,3.125 q0.25,-1.125 0.6875,-4.0625 q0.4375,-2.9375 2.4375,-4.6875 l0.375,0.375 q-1.25,1.375 -1.5625,2.875 q-0.3125,1.5 0.8125,2.75 q0.625,0.75 2.25,2.25 q1.625,1.5 3.1875,2.875 q1.5625,1.375 1.9375,1.75 l0.25,-0.25 q-0.375,-0.5 -1.375,-2.0625 q-1,-1.5625 -1.375,-2.4375 q-0.875,-2.125 0.375,-3.8125 q1.25,-1.6875 3.8125,-2.8125 q2.5625,-1.125 5.75,-1.625 q3.1875,-0.5 6.1875,-0.25 l-5.5,-5 q-2,-0.25 -6.0625,-0.375 q-4.0625,-0.125 -9.0625,-0.1875 q-5,-0.0625 -10,0 q-5,0.0625 -9,0.1875 q0,0 0,0 q0.125,-0.875 -0.0625,-2.8125 q-0.1875,-1.9375 -2.8125,-2.5625 Z M-72.375,7.25 q1.125,0.375 2.1875,1.125 q1.0625,0.75 1.9375,2 q2.375,-1.375 5.0625,-1.625 q2.6875,-0.25 5.6875,0.375 l-0.25,0.5 q-4.125,-0.75 -7.125,0.125 q-3,0.875 -3,4.75 q0,2.875 1.9375,5 q1.9375,2.125 4.6875,2.125 q2.625,0 4.5,-2.125 q1.875,-2.125 2.8125,-4.875 q0.9375,-2.75 0.9375,-4.5 q0,-1.875 -0.75,-2.75 q-1.25,-1.875 -4.8125,-2.625 q-3.5625,-0.75 -7.5,-0.125 q-3.9375,0.625 -6.3125,2.625 Z M-61.75,15.625 q0.5,0 0.5,0.5 q0,0.375 -0.5,0.375 q-0.5,0 -0.5,-0.375 q0,-0.5 0.5,-0.5 Z M-80.875,2.875 q-3.125,0 -5,0.625 q-1.875,0.625 -2.625,1.375 q3.375,1.625 5,4.125 q1.5,-1.125 2.9375,-1.375 q1.4375,-0.25 2.8125,-0.125 q0.5,3.875 -1.375,5.625 q-1.875,1.75 -5.375,3 q2.5,0.75 4.1875,2.375 q1.6875,1.625 2.1875,4.25 q2.25,-2 3.25,-5.25 q1,-3.25 1.25,-5.9375 q0.25,-2.6875 0.25,-3.4375 q0.125,-1.625 -0.4375,-2.875 q-0.5625,-1.25 -1.9375,-1.75 q-0.75,-0.125 -1.9375,-0.375 q-1.1875,-0.25 -3.1875,-0.25 Z" fill="#D4AF37" transform="matrix(1,0,0,-1,304,46)"/>
  <path d="" fill="#D3D3D3" transform="matrix(1,0,0,-1,304,46)"/>
  <path d="M24.625,33.75 q-0.5,2.875 0.625,5.25 q1.125,2.375 3.125,3.625 q2.375,1.125 4.625,1 q-0.625,3.25 1.5,6.125 q1,1.25 2.25,2 q1.25,0.75 2.5,1 q-1.25,3.625 0.625,6.625 q1.5,2.5 3.9375,3.5625 q2.4375,1.0625 4.8125,0.5625 q0.875,-0.25 1.6875,-0.625 q0.8125,-0.375 1.5625,-1 q1.375,2.5 4.25,3.5 q1.625,0.625 3.0625,0.5625 q1.4375,-0.0625 2.6875,-0.5625 q0.375,1.5 1.4375,2.875 q1.0625,1.375 2.6875,2.125 q2.75,1.375 5.375,0.8125 q2.625,-0.5625 4.25,-2.3125 q1.5,-1.625 2,-3.5 q1.375,0.75 3,0.875 q1.625,0.125 3.375,-0.625 q1.5,-0.5 2.625,-1.5625 q1.125,-1.0625 1.625,-2.1875 q1.375,0.875 3.125,1.25 q1.75,0.375 3.375,-0.125 q2.875,-0.875 4.5,-2.9375 q1.625,-2.0625 1.75,-4.5625 q0,-1.75 -0.625,-3.375 q1.375,-0.25 2.5625,-0.9375 q1.1875,-0.6875 2.0625,-2.0625 q1.875,-2.625 1.625,-5.5 q3.5,0.375 6.125,-2.25 q2.125,-2.25 2.375,-4.875 q0.25,-2.625 -0.875,-4.75 q-1.25,-2 -2.875,-3 q0.875,-1 1.375,-2.25 q0.5,-1.25 0.5,-2.875 q-0.125,-1.625 -0.6875,-3 q-0.5625,-1.375 -1.4375,-2.375 q1.375,-0.875 2.3125,-2.375 q0.9375,-1.5 1.0625,-3.25 q0.25,-3 -1.125,-5.25 q-1.375,-2.25 -3.625,-3.25 q-2,-0.875 -4.375,-0.5 q0,-2.25 -1.25,-4.25 q-0.875,-1.375 -2.0625,-2.25 q-1.1875,-0.875 -2.4375,-1.25 q0.625,-1.5 0.6875,-3.25 q0.0625,-1.75 -0.6875,-3.375 q-1.25,-2.75 -3.625,-3.9375 q-2.375,-1.1875 -4.75,-0.9375 q-2.625,0.375 -4.25,2 q-0.625,-0.875 -1.5625,-1.6875 q-0.9375,-0.8125 -2.3125,-1.3125 q-1.5,-0.5 -2.9375,-0.4375 q-1.4375,0.0625 -2.6875,0.4375 q-0.875,-3.625 -4.125,-5.125 q-2.75,-1.25 -5.3125,-0.75 q-2.5625,0.5 -4.3125,2.125 q-1.625,1.75 -2.125,4 q-1,-0.375 -2.25,-0.5 q-1.25,-0.125 -2.625,0.25 q-3.125,0.875 -4.75,3.375 q-1.25,-1.125 -2.875,-1.6875 q-1.625,-0.5625 -3.375,-0.3125 q-3,0.5 -4.8125,2.375 q-1.8125,1.875 -2.3125,4.25 q-0.375,2.375 0.625,4.625 q-1.875,0.75 -3.5,2.375 q-1,1.25 -1.5,2.6875 q-0.5,1.4375 -0.5,2.6875 q-1.625,-0.125 -3.25,0.25 q-1.625,0.375 -3,1.625 q-2.25,2.125 -2.6875,4.6875 q-0.4375,2.5625 0.4375,4.8125 q1.25,2.5 3.5,3.625 q-1.5,1.875 -1.625,4.25 q-0.125,1.625 0.25,3.0625 q0.375,1.4375 1.125,2.4375 q-1.375,0.75 -2.5,2.125 q-1.125,1.375 -1.375,3.125 Z" fill="#FFFFE6" transform="matrix(1,0,0,-1,329,46)"/>
  <path d="M68.5543,47.8949 q-6.069,-0.8347 -10.4854,0.6805 q-4.4163,1.5152 -6.1728,5.4134 q-1.4313,3.4434 -0.4386,6.7645 q0.9927,3.3211 4.7026,4.6681 q1.5659,0.5011 3.0345,0.4173 q1.4687,-0.0838 2.6776,-0.5251 q0.3826,1.5793 1.4932,2.9575 q1.1106,1.3782 2.6373,2.1262 q2.7027,1.314 5.3185,0.7791 q2.6158,-0.5349 4.2868,-2.2951 q1.853,-2.1111 2.1793,-4.9702 q0.3263,-2.8591 -2.0183,-5.635 q-1.825,-2.0608 -4.6353,-2.6958 q-2.8102,-0.6349 -5.9163,-1.0003 q-0.6173,-0.0978 -1.2963,-0.2053 q-0.679,-0.1075 -1.2963,-0.2053 q-0.5134,0.0452 -1.1374,0.3894 q-0.624,0.3441 -0.7218,0.9614 q-0.2408,0.7212 0.1975,1.5499 q0.4382,0.8287 1.3025,0.9656 l0.7408,0.1173 q0.7139,1.8849 -1.3922,3.1965 q-2.1061,1.3117 -4.1462,0.6089 q-2.0401,-0.7028 -2.5786,-2.4966 q-0.5385,-1.7938 0.4308,-3.9183 q1.0475,-2.6183 4.8007,-3.5425 q3.7532,-0.9242 7.8274,-0.2789 l0.6062,-3.8272 Z M66.7296,58.6162 q2.0988,0.3324 3.7362,0.7816 q1.6374,0.4492 2.4882,1.4698 q1.2016,1.2028 1.1815,2.5284 q-0.0201,1.3256 -0.833,2.4625 q-0.8324,1.2603 -2.3402,1.591 q-1.5078,0.3307 -3.1189,-0.6838 q-1.2798,-0.7089 -1.877,-2.1324 q-0.5972,-1.4234 0.2291,-3.444 q0.5464,-1.0525 0.5341,-2.5731 Z M81.9099,44.2829 q-5.1279,3.3517 -7.4668,7.3926 q-2.3389,4.0409 -1.1071,8.1352 q1.1789,3.5378 4.1069,5.393 q2.928,1.8552 6.6115,0.4378 q1.5105,-0.6491 2.5639,-1.6758 q1.0534,-1.0267 1.6763,-2.1529 q1.3249,0.9408 3.0672,1.2524 q1.7423,0.3115 3.3853,-0.1256 q2.9017,-0.7815 4.525,-2.9013 q1.6233,-2.1198 1.7295,-4.5445 q0.0135,-2.8089 -1.616,-5.1807 q-1.6295,-2.3718 -5.2201,-2.9286 q-2.7294,-0.358 -5.2668,1.0065 q-2.5374,1.3645 -5.1213,3.1264 q-0.53,0.3312 -1.113,0.6955 q-0.583,0.3643 -1.113,0.6955 q-0.3578,0.371 -0.603,1.04 q-0.2452,0.6691 0.086,1.1991 q0.2914,0.7023 1.1659,1.0402 q0.8744,0.3379 1.6165,-0.1257 l0.636,-0.3974 q1.7754,0.9541 1.0464,3.3257 q-0.7289,2.3716 -2.7297,3.1797 q-2.0008,0.808 -3.584,-0.1924 q-1.5832,-1.0005 -2.2455,-3.2397 q-0.9272,-2.6633 1.299,-5.8231 q2.2262,-3.1598 5.7243,-5.3457 l-2.0534,-3.2861 Z M87.5667,53.5714 q1.802,-1.1261 3.3324,-1.8613 q1.5304,-0.7352 2.8421,-0.5231 q1.6959,0.1194 2.5504,1.1331 q0.8545,1.0137 0.9869,2.4049 q0.1986,1.4972 -0.7224,2.736 q-0.921,1.2388 -2.8024,1.5301 q-1.431,0.3046 -2.8155,-0.3779 q-1.3845,-0.6825 -2.0866,-2.7495 q-0.2781,-1.1527 -1.285,-2.2923 Z M92.1299,31.9469 q-2.6693,5.5141 -2.5929,10.1825 q0.0764,4.6684 3.241,7.5434 q2.8326,2.4253 6.2979,2.5075 q3.4653,0.0822 5.8927,-3.0299 q0.9605,-1.3344 1.3346,-2.757 q0.3742,-1.4227 0.328,-2.7088 q1.6202,0.1241 3.2741,-0.5062 q1.6539,-0.6303 2.8371,-1.8512 q2.0848,-2.1644 2.3845,-4.8175 q0.2996,-2.6531 -0.8581,-4.7862 q-1.4351,-2.4147 -4.0535,-3.6085 q-2.6183,-1.1938 -5.9829,0.1782 q-2.5239,1.0989 -3.9962,3.5754 q-1.4723,2.4765 -2.7796,5.3176 q-0.2837,0.5569 -0.5958,1.1694 q-0.3121,0.6126 -0.5958,1.1694 q-0.1156,0.5022 0.0188,1.202 q0.1344,0.6998 0.6913,0.9835 q0.6115,0.4519 1.5351,0.2912 q0.9236,-0.1607 1.3208,-0.9403 l0.3405,-0.6682 q2.0132,-0.0965 2.6099,2.3118 q0.5966,2.4083 -0.7022,4.1314 q-1.2988,1.7231 -3.1712,1.681 q-1.8724,-0.0422 -3.5934,-1.6205 q-2.1665,-1.8053 -1.8857,-5.6604 q0.2808,-3.8551 2.1535,-7.5305 l-3.4526,-1.7592 Z M101.7627,36.9953 q0.9647,-1.8934 1.8979,-3.3118 q0.9332,-1.4184 2.1667,-1.9122 q1.5152,-0.7711 2.7698,-0.3423 q1.2545,0.4288 2.0845,1.5531 q0.9414,1.1811 0.79,2.7173 q-0.1514,1.5362 -1.6141,2.7549 q-1.0697,0.9981 -2.608,1.1262 q-1.5383,0.1281 -3.2047,-1.2821 q-0.8321,-0.8448 -2.2821,-1.3031 Z M92.4791,17.9233 q1.2913,5.9886 4.2257,9.6205 q2.9343,3.6319 7.1982,3.9492 q3.7253,0.1673 6.5067,-1.9014 q2.7814,-2.0687 2.7783,-6.0156 q-0.0646,-1.6428 -0.6457,-2.9943 q-0.581,-1.3515 -1.4092,-2.3366 q1.3532,-0.8997 2.2685,-2.4147 q0.9153,-1.515 1.096,-3.2055 q0.3104,-2.9891 -1.0869,-5.2643 q-1.3973,-2.2752 -3.6229,-3.2433 q-2.6176,-1.0193 -5.4159,-0.3481 q-2.7983,0.6712 -4.605,3.8239 q-1.3124,2.4199 -0.9479,5.2778 q0.3645,2.858 1.0834,5.9017 q0.1192,0.6135 0.2504,1.2884 q0.1312,0.6749 0.2504,1.2884 q0.2181,0.467 0.7549,0.9357 q0.5368,0.4687 1.1503,0.3494 q0.7601,-0.0204 1.389,-0.7157 q0.6289,-0.6953 0.462,-1.5542 l-0.1431,-0.7362 q1.5271,-1.3155 3.4799,0.215 q1.9529,1.5305 1.9902,3.688 q0.0373,2.1575 -1.4641,3.2771 q-1.5015,1.1195 -3.8294,0.9353 q-2.8187,-0.0888 -4.9709,-3.2997 q-2.1522,-3.2109 -2.9392,-7.2601 l-3.8038,0.7393 Z M103.1782,15.9711 q-0.4054,-2.086 -0.5434,-3.7782 q-0.1379,-1.6923 0.5302,-2.8408 q0.7193,-1.5405 1.9719,-1.975 q1.2526,-0.4345 2.5989,-0.0595 q1.469,0.3512 2.2954,1.6549 q0.8264,1.3038 0.4241,3.1647 q-0.2285,1.4451 -1.3618,2.4931 q-1.1334,1.048 -3.3147,0.9626 q-1.1759,-0.1535 -2.6006,0.3781 Z M83.4884,5.1686 q4.1913,4.4682 8.5771,6.0701 q4.3858,1.6018 8.2041,-0.3223 q3.2795,-1.7753 4.5982,-4.9811 q1.3187,-3.2058 -0.7168,-6.5874 q-0.9015,-1.3749 -2.0957,-2.2341 q-1.1941,-0.8592 -2.4114,-1.2771 q0.6965,-1.4682 0.7008,-3.2382 q0.0043,-1.77 -0.7115,-3.3122 q-1.2735,-2.7221 -3.643,-3.9527 q-2.3695,-1.2306 -4.7759,-0.9142 q-2.7687,0.4744 -4.8217,2.4911 q-2.053,2.0166 -1.9779,5.6495 q0.1214,2.7502 1.9058,5.0123 q1.7844,2.2621 3.9683,4.5008 q0.4182,0.4645 0.8782,0.9754 q0.46,0.5109 0.8782,0.9754 q0.4275,0.2879 1.129,0.4132 q0.7015,0.1253 1.166,-0.2929 q0.641,-0.409 0.822,-1.3288 q0.181,-0.9199 -0.4045,-1.5701 l-0.5018,-0.5574 q0.6314,-1.9141 3.0937,-1.608 q2.4623,0.3061 3.6055,2.1362 q1.1432,1.8301 0.4328,3.5631 q-0.7104,1.733 -2.8007,2.774 q-2.4619,1.3756 -5.9604,-0.2682 q-3.4985,-1.6438 -6.2587,-4.7094 l-2.8798,2.5929 Z M91.654,-2.0153 q-1.4219,-1.5792 -2.4117,-2.9588 q-0.9898,-1.3796 -1.0087,-2.7082 q-0.1769,-1.691 0.6731,-2.7086 q0.8499,-1.0176 2.1971,-1.3895 q1.4401,-0.4556 2.82,0.2363 q1.3799,0.6919 1.9935,2.4943 q0.5485,1.3564 0.1167,2.8385 q-0.4317,1.4821 -2.3455,2.5324 q-1.087,0.4741 -2.0344,1.6636 Z M70.4765,0.7155 q6.0536,0.9405 10.4958,-0.4975 q4.4422,-1.438 6.2663,-5.3049 q1.4912,-3.418 0.5566,-6.7559 q-0.9346,-3.338 -4.6204,-4.7495 q-1.5569,-0.5284 -3.0268,-0.4702 q-1.4699,0.0581 -2.6863,0.4783 q-0.355,-1.5857 -1.4414,-2.9831 q-1.0863,-1.3974 -2.5998,-2.1719 q-2.6794,-1.3609 -5.3042,-0.8718 q-2.6248,0.4891 -4.3262,2.22 q-1.8896,2.0784 -2.2657,4.9314 q-0.3761,2.853 1.9197,5.6694 q1.7888,2.0924 4.5876,2.7763 q2.7987,0.6839 5.898,1.1034 q0.6155,0.1085 1.2925,0.2279 q0.6771,0.1194 1.2926,0.2279 q0.5141,-0.0363 1.144,-0.3695 q0.6299,-0.3332 0.7384,-0.9487 q0.2533,-0.7169 -0.1704,-1.5532 q-0.4237,-0.8363 -1.2854,-0.9882 l-0.7386,-0.1302 q-0.6809,-1.897 1.4478,-3.1718 q2.1287,-1.2747 4.1563,-0.5364 q2.0276,0.7383 2.5347,2.5412 q0.5071,1.8029 -0.4991,3.9102 q-1.093,2.5997 -4.8618,3.4583 q-3.7688,0.8586 -7.8311,0.1423 l-0.6729,3.8161 Z M72.488,-9.9725 q-2.0927,-0.369 -3.722,-0.8467 q-1.6293,-0.4777 -2.4622,-1.513 q-1.1805,-1.2236 -1.1372,-2.5487 q0.0433,-1.3251 0.8758,-2.4476 q0.8543,-1.2456 2.3676,-1.5499 q1.5133,-0.3043 3.1065,0.7381 q1.2673,0.7312 1.8395,2.1648 q0.5722,1.4336 -0.2892,3.4395 q-0.5647,1.0428 -0.5789,2.5634 Z M56.2457,4.8745 q5.4983,-2.7018 8.3124,-6.4276 q2.8141,-3.7258 2.0904,-7.9398 q-0.7389,-3.6552 -3.419,-5.8535 q-2.6801,-2.1983 -6.509,-1.2404 q-1.5784,0.4602 -2.7492,1.3509 q-1.1708,0.8907 -1.9262,1.9326 q-1.2004,-1.0953 -2.8917,-1.6169 q-1.6914,-0.5216 -3.3754,-0.288 q-2.9754,0.422 -4.845,2.3282 q-1.8696,1.9062 -2.2705,4.2999 q-0.3558,2.7864 0.9725,5.3392 q1.3283,2.5528 4.8243,3.5431 q2.6655,0.688 5.3504,-0.3571 q2.6849,-1.0451 5.4643,-2.479 q0.5664,-0.2641 1.1895,-0.5547 q0.6231,-0.2905 1.1895,-0.5547 q0.4003,-0.3246 0.7252,-0.9588 q0.3249,-0.6342 0.0608,-1.2007 q-0.2037,-0.7326 -1.0304,-1.1746 q-0.8268,-0.442 -1.6198,-0.0722 l-0.6797,0.317 q-1.6459,-1.1634 -0.6333,-3.4286 q1.0126,-2.2651 3.097,-2.8233 q2.0844,-0.5582 3.5339,0.6279 q1.4495,1.186 1.834,3.4894 q0.5957,2.7565 -1.9991,5.6215 q-2.5948,2.865 -6.3334,4.6083 l1.6376,3.512 Z M51.7631,-5.0345 q-1.9259,0.898 -3.5345,1.4413 q-1.6086,0.5432 -2.8847,0.1728 q-1.6688,-0.3252 -2.3934,-1.4355 q-0.7246,-1.1103 -0.6864,-2.5073 q-0.0146,-1.5103 1.0505,-2.6276 q1.0651,-1.1173 2.9681,-1.1771 q1.4575,-0.1279 2.7485,0.7182 q1.291,0.8462 1.7359,2.9834 q0.1356,1.1781 0.9961,2.4319 Z M47.4139,16.4582 q3.0473,-5.3146 3.2967,-9.977 q0.2494,-4.6625 -2.7071,-7.7512 q-2.6566,-2.617 -6.1078,-2.9406 q-3.4512,-0.3237 -6.0898,2.6116 q-1.0512,1.2642 -1.5237,2.6573 q-0.4725,1.3931 -0.5161,2.6793 q-1.6077,-0.2368 -3.3015,0.2767 q-1.6939,0.5135 -2.9593,1.6489 q-2.2307,2.0137 -2.7146,4.6395 q-0.4839,2.6258 0.5223,4.8344 q1.2633,2.5089 3.792,3.8824 q2.5288,1.3735 5.9809,0.2394 q2.5945,-0.9202 4.2359,-3.288 q1.6414,-2.3678 3.1437,-5.1109 q0.3219,-0.5357 0.676,-1.125 q0.3541,-0.5893 0.676,-1.125 q0.1504,-0.493 0.065,-1.2004 q-0.0853,-0.7075 -0.6211,-1.0294 q-0.5785,-0.4934 -1.5111,-0.3975 q-0.9326,0.0959 -1.3832,0.8459 l-0.3863,0.6429 q-2.0151,-0.0441 -2.4423,-2.4882 q-0.4273,-2.4441 0.9886,-4.0725 q1.4158,-1.6284 3.2808,-1.4557 q1.8649,0.1726 3.4717,1.8671 q2.0354,1.952 1.4864,5.7782 q-0.549,3.8262 -2.6734,7.3621 l3.3216,1.9957 Z M38.1565,10.7503 q-1.0944,1.8215 -2.1242,3.1714 q-1.0298,1.3499 -2.2949,1.7565 q-1.5653,0.6636 -2.7869,0.1484 q-1.2216,-0.5152 -1.9712,-1.6947 q-0.8567,-1.2439 -0.5986,-2.7658 q0.2582,-1.5219 1.8023,-2.6357 q1.1367,-0.9211 2.6802,-0.9416 q1.5435,-0.0205 3.1075,1.5025 q0.7712,0.9008 2.1857,1.4591 Z M47.0763,30.7519 q-0.6584,-6.0909 -3.1971,-10.0097 q-2.5387,-3.9187 -6.7462,-4.6799 q-3.6875,-0.5557 -6.67,1.211 q-2.9824,1.7667 -3.3919,5.6924 q-0.1074,1.6406 0.3292,3.0455 q0.4366,1.4048 1.1573,2.4711 q-1.4398,0.7534 -2.5085,2.1644 q-1.0686,1.411 -1.4251,3.0735 q-0.6211,2.9404 0.5307,5.3492 q1.1518,2.4088 3.2641,3.6043 q2.4967,1.2873 5.35,0.9122 q2.8532,-0.3751 4.9796,-3.3217 q1.5582,-2.2695 1.4944,-5.1499 q-0.0638,-2.8805 -0.4607,-5.9827 q-0.0545,-0.6226 -0.1144,-1.3075 q-0.0599,-0.6849 -0.1144,-1.3075 q-0.1681,-0.4872 -0.653,-1.0095 q-0.4849,-0.5222 -1.1075,-0.4678 q-0.7581,-0.0592 -1.4562,0.5666 q-0.6981,0.6257 -0.6219,1.4974 l0.0654,0.7472 q-1.6562,1.1487 -3.4385,-0.5775 q-1.7823,-1.7263 -1.5939,-3.8759 q0.1884,-2.1496 1.7987,-3.1061 q1.6103,-0.9565 3.9063,-0.53 q2.7941,0.3829 4.5989,3.8012 q1.8048,3.4183 2.1644,7.5277 l3.8603,-0.3377 Z M36.2316,31.5752 q0.1852,2.117 0.1455,3.8144 q-0.0397,1.6975 -0.8242,2.7699 q-0.8764,1.457 -2.1676,1.7581 q-1.2912,0.3012 -2.5909,-0.2125 q-1.4243,-0.5028 -2.1099,-1.8858 q-0.6857,-1.383 -0.091,-3.1918 q0.3783,-1.4134 1.615,-2.3372 q1.2367,-0.9238 3.3973,-0.6109 q1.1534,0.2755 2.626,-0.1043 Z M54.5392,42.1021 q-4.5646,-4.0859 -9.0732,-5.2994 q-4.5086,-1.2135 -8.1446,1.0359 q-3.1122,2.0543 -4.1465,5.3627 q-1.0343,3.3084 1.2881,6.4997 q1.0179,1.2911 2.2823,2.0429 q1.2644,0.7518 2.5134,1.062 q-0.5659,1.5232 -0.416,3.2868 q0.15,1.7636 0.9974,3.2375 q1.5058,2.6007 3.9735,3.6201 q2.4677,1.0194 4.8373,0.4945 q2.7168,-0.7139 4.5861,-2.9017 q1.8694,-2.1878 1.478,-5.8002 q-0.3605,-2.7291 -2.3352,-4.827 q-1.9747,-2.0979 -4.3453,-4.1377 q-0.4571,-0.4263 -0.9599,-0.8951 q-0.5028,-0.4689 -0.9599,-0.8951 q-0.4509,-0.2496 -1.1607,-0.3133 q-0.7097,-0.0637 -1.136,0.3934 q-0.6029,0.4632 -0.7031,1.3954 q-0.1001,0.9321 0.5398,1.5289 l0.5485,0.5115 q-0.4622,1.9618 -2.9417,1.8715 q-2.4795,-0.0904 -3.7778,-1.8139 q-1.2983,-1.7235 -0.7416,-3.5117 q0.5567,-1.7882 2.5483,-3.0075 q2.3326,-1.5849 5.9609,-0.2522 q3.6283,1.3327 6.6451,4.1459 l2.6428,-2.8339 Z M47.0309,49.97 q1.5541,1.4493 2.6603,2.7373 q1.1062,1.288 1.2408,2.6099 q0.3236,1.6691 -0.4344,2.7568 q-0.758,1.0877 -2.0676,1.5756 q-1.3948,0.5793 -2.8297,0.0103 q-1.4349,-0.569 -2.2032,-2.311 q-0.6646,-1.3034 -0.3636,-2.8174 q0.3009,-1.514 2.1159,-2.7271 q1.0415,-0.567 1.8817,-1.8345 Z M69.75,-3.125 q-7.5,0 -13.75,3.6875 q-6.25,3.6875 -9.9375,9.9375 q-3.6875,6.25 -3.6875,13.875 q0,7.625 3.6875,13.8125 q3.6875,6.1875 9.9375,9.875 q6.25,3.6875 13.75,3.6875 q7.625,0 13.875,-3.6875 q6.25,-3.6875 9.9375,-9.875 q3.6875,-6.1875 3.6875,-13.8125 q0,-7.625 -3.6875,-13.875 q-3.6875,-6.25 -9.9375,-9.9375 q-6.25,-3.6875 -13.875,-3.6875 Z M69.75,1.875 q6.25,0 11.375,3 q5.125,3 8.125,8.125 q3,5.125 3,11.375 q0,6.25 -3,11.3125 q-3,5.0625 -8.125,8.0625 q-5.125,3 -11.375,3 q-6.125,0 -11.25,-3 q-5.125,-3 -8.125,-8.0625 q-3,-5.0625 -3,-11.3125 q0,-6.25 3,-11.375 q3,-5.125 8.125,-8.125 q5.125,-3 11.25,-3 Z" fill="#9A7312" transform="matrix(1,0,0,-1,329,46)"/>
  <path d="M67.8392,48.4144 q-5.7182,-0.6526 -9.7446,0.7979 q-4.0264,1.4504 -5.6007,4.9978 q-1.3922,3.1965 -0.4936,6.3129 q0.8985,3.1164 4.3811,4.3007 q1.6893,0.5207 3.1678,0.3752 q1.4784,-0.1455 2.8499,-0.8142 q0.401,3.8602 3.8249,5.4149 q2.5792,1.2944 5.0001,0.7919 q2.4209,-0.5025 3.9488,-2.1588 q1.6905,-1.8837 1.9874,-4.5576 q0.297,-2.6739 -1.8398,-5.1638 q-1.5977,-1.8983 -4.2844,-2.5137 q-2.6868,-0.6154 -5.6693,-0.9612 q-0.6173,-0.0978 -1.2963,-0.2053 q-0.679,-0.1075 -1.4198,-0.2249 q-1.1502,0.0709 -1.2871,0.9351 q-0.2212,0.5977 0.1424,1.0983 q0.3637,0.5005 0.8575,0.5788 l1.1111,0.176 q0.753,1.6379 -0.1509,2.9502 q-0.9039,1.3122 -2.6555,1.984 q-1.7516,0.6717 -3.4214,0.0276 q-2.2675,-0.8654 -2.9619,-2.8737 q-0.6944,-2.0083 0.4375,-4.3602 q1.1905,-2.7222 4.9016,-3.7797 q3.7111,-1.0574 7.8047,-0.5356 l0.4106,-2.5926 Z M66.0867,57.8816 q2.4692,0.3911 4.3535,0.8794 q1.8843,0.4883 2.9624,1.6715 q1.286,1.4692 1.2267,3.0418 q-0.0592,1.5726 -0.8721,2.7094 q-0.9754,1.3642 -2.6977,1.8507 q-1.7223,0.4865 -3.5608,-0.6905 q-1.4033,-0.7285 -2.1563,-2.3664 q-0.753,-1.6379 0.2554,-4.0093 q0.605,-1.4228 0.4889,-3.0865 Z M81.7111,45.1441 q-4.7437,3.259 -6.8308,6.9952 q-2.0872,3.7362 -0.948,7.4462 q1.0464,3.3257 3.7691,5.0882 q2.7226,1.7624 6.1279,0.3715 q1.6165,-0.7153 2.6368,-1.7951 q1.0203,-1.0798 1.6167,-2.4842 q2.8352,2.6502 6.4392,1.5773 q2.7957,-0.7152 4.2931,-2.6827 q1.4974,-1.9674 1.5638,-4.2199 q0.04,-2.5307 -1.4902,-4.7435 q-1.5301,-2.2128 -4.7762,-2.6901 q-2.4511,-0.3845 -4.8826,0.9138 q-2.4314,1.2982 -4.9092,2.994 q-0.53,0.3312 -1.113,0.6955 q-0.583,0.3643 -1.219,0.7617 q-0.8215,0.8082 -0.3579,1.5502 q0.2252,0.5963 0.828,0.7354 q0.6028,0.1392 1.0269,-0.1258 l0.954,-0.5961 q1.6429,0.7421 1.8216,2.3255 q0.1787,1.5833 -0.7025,3.2395 q-0.8812,1.6561 -2.564,2.2654 q-2.279,0.8345 -4.1206,-0.2256 q-1.8416,-1.0601 -2.5303,-3.5776 q-0.8875,-2.8355 1.2195,-6.0682 q2.107,-3.2327 5.5388,-5.5246 l-1.391,-2.2261 Z M86.5994,53.4388 q2.1201,-1.3248 3.8625,-2.1925 q1.7424,-0.8677 3.3323,-0.6821 q1.9344,0.2652 2.9214,1.4908 q0.987,1.2257 1.1194,2.6169 q0.1588,1.6695 -0.8218,3.1666 q-0.9806,1.4971 -3.1403,1.8149 q-1.537,0.3708 -3.1799,-0.3713 q-1.6429,-0.7421 -2.4376,-3.1934 q-0.4769,-1.4707 -1.656,-2.6501 Z M92.4031,32.7875 q-2.3876,5.2367 -2.2524,9.5142 q0.1352,4.2775 3.0225,6.871 q2.6099,2.3118 5.8514,2.4202 q3.2415,0.1085 5.4441,-2.8377 q1.0172,-1.4457 1.3357,-2.8968 q0.3185,-1.451 0.1063,-2.962 q3.7952,0.8114 6.3319,-1.9644 q2.0281,-2.053 2.2983,-4.5106 q0.2702,-2.4576 -0.8329,-4.4226 q-1.2691,-2.1898 -3.7204,-3.2985 q-2.4513,-1.1087 -5.4796,0.1541 q-2.2991,0.9329 -3.7146,3.298 q-1.4155,2.3651 -2.6661,5.0948 q-0.2837,0.5569 -0.5958,1.1694 q-0.3121,0.6126 -0.6526,1.2808 q-0.288,1.1159 0.4916,1.5131 q0.5001,0.3951 1.0885,0.2039 q0.5884,-0.1912 0.8154,-0.6367 l0.5107,-1.0024 q1.7905,-0.21 2.7592,1.0551 q0.9687,1.2652 1.0663,3.1386 q0.0976,1.8735 -1.031,3.2625 q-1.5237,1.8891 -3.6483,1.9289 q-2.1246,0.0398 -4.0116,-1.7634 q-2.2211,-1.9734 -2.08,-5.8296 q0.1411,-3.8562 1.9024,-7.5883 l-2.3389,-1.1917 Z M100.8654,37.3798 q1.1349,-2.2275 2.1816,-3.8687 q1.0466,-1.6412 2.5051,-2.3009 q1.7947,-0.769 3.272,-0.2267 q1.4773,0.5423 2.3073,1.6666 q0.996,1.3492 0.9265,3.1376 q-0.0695,1.7883 -1.757,3.1731 q-1.1265,1.1095 -2.9169,1.3195 q-1.7905,0.21 -3.7342,-1.4818 q-1.1662,-1.0151 -2.7843,-1.4187 Z M93.2119,18.4175 q1.3425,5.5967 4.0826,8.8843 q2.7401,3.2876 6.612,3.5537 q3.4799,0.215 6.1011,-1.6952 q2.6212,-1.9102 2.5431,-5.5879 q-0.0885,-1.7655 -0.7309,-3.1051 q-0.6424,-1.3395 -1.7398,-2.3996 q3.4903,-1.6971 3.7803,-5.4463 q0.3342,-2.8664 -0.9659,-4.9695 q-1.3001,-2.1031 -3.3792,-2.9724 q-2.3483,-0.9443 -4.9626,-0.3088 q-2.6143,0.6355 -4.2232,3.495 q-1.2374,2.1506 -0.8968,4.8858 q0.3406,2.7353 1.0357,5.6563 q0.1192,0.6135 0.2504,1.2884 q0.1312,0.6749 0.2743,1.4111 q0.4601,1.0566 1.319,0.8897 q0.6374,0.0035 0.9834,-0.5095 q0.346,-0.5129 0.2506,-1.0037 l-0.2146,-1.1043 q1.2816,-1.2678 2.8239,-0.8672 q1.5423,0.4006 2.7726,1.8169 q1.2303,1.4163 1.1961,3.2057 q-0.0377,2.4268 -1.6874,3.7661 q-1.6498,1.3394 -4.2469,1.0801 q-2.9653,-0.1877 -5.2282,-3.3133 q-2.2629,-3.1257 -3.1727,-7.151 l-2.5768,0.5008 Z M102.7078,16.8265 q-0.477,-2.4541 -0.6626,-4.3918 q-0.1856,-1.9377 0.5575,-3.3555 q0.9408,-1.7109 2.4389,-2.1931 q1.498,-0.4822 2.8443,-0.1072 q1.6155,0.45 2.6618,1.9021 q1.0463,1.452 0.5689,3.5823 q-0.2046,1.5678 -1.4863,2.8357 q-1.2816,1.2678 -3.855,1.1313 q-1.544,-0.0819 -3.0676,0.5962 Z M84.3711,5.2149 q4.0333,4.1059 8.0753,5.5127 q4.042,1.4068 7.498,-0.3593 q3.0937,-1.608 4.3567,-4.5955 q1.263,-2.9874 -0.6981,-6.0996 q-0.9852,-1.4678 -2.2257,-2.2852 q-1.2406,-0.8174 -2.7272,-1.1608 q2.1177,-3.2524 0.4353,-6.6155 q-1.1898,-2.6292 -3.3875,-3.7623 q-2.1976,-1.1331 -4.4275,-0.8074 q-2.4993,0.4 -4.4129,2.2912 q-1.9136,1.8912 -1.82,5.171 q0.047,2.4808 1.7477,4.6499 q1.7008,2.1692 3.801,4.315 q0.4182,0.4645 0.8782,0.9754 q0.46,0.5109 0.9619,1.0683 q0.9386,0.6688 1.5888,0.0833 q0.5481,-0.3253 0.5805,-0.9432 q0.0324,-0.6179 -0.3022,-0.9895 l-0.7528,-0.8361 q0.4456,-1.7469 1.9739,-2.1978 q1.5283,-0.4509 3.3124,0.1294 q1.784,0.5803 2.6763,2.1318 q1.2176,2.0996 0.4933,4.0974 q-0.7243,1.9978 -3.0841,3.1132 q-2.6384,1.3664 -6.188,-0.1474 q-3.5496,-1.5137 -6.4026,-4.4957 l-1.9508,1.7565 Z M91.6913,-1.0397 q-1.6728,-1.8579 -2.8299,-3.4233 q-1.1571,-1.5653 -1.2503,-3.1634 q-0.0747,-1.9512 0.961,-3.136 q1.0357,-1.1849 2.3829,-1.5568 q1.6166,-0.4463 3.2613,0.2595 q1.6447,0.7058 2.3327,2.7776 q0.6321,1.4493 0.1865,3.1962 q-0.4456,1.7469 -2.7217,2.9552 q-1.3657,0.725 -2.3224,2.091 Z M71.2006,0.2085 q5.706,0.7523 9.7572,-0.6277 q4.0512,-1.38 5.6871,-4.8993 q1.4478,-3.1718 0.6037,-6.3034 q-0.844,-3.1316 -4.3054,-4.3766 q-1.68,-0.5501 -3.1608,-0.4304 q-1.4808,0.1197 -2.8637,0.7643 q-0.3336,-3.8667 -3.7299,-5.4809 q-2.5563,-1.3392 -4.9856,-0.8791 q-2.4293,0.4601 -3.9859,2.0896 q-1.7231,1.8539 -2.0667,4.5223 q-0.3436,2.6684 1.7494,5.1952 q1.5643,1.9259 4.24,2.5881 q2.6757,0.6622 5.6518,1.06 q0.6155,0.1085 1.2926,0.2279 q0.677,0.1194 1.4156,0.2496 q1.1513,-0.0508 1.3033,-0.9126 q0.2316,-0.5938 -0.1233,-1.1006 q-0.3549,-0.5068 -0.8473,-0.5936 l-1.1079,-0.1954 q-0.7243,-1.6508 0.2023,-2.9471 q0.9267,-1.2963 2.6898,-1.9374 q1.7631,-0.6411 3.4214,0.0321 q2.2521,0.9048 2.9113,2.925 q0.6592,2.0201 -0.5135,4.3519 q-1.2378,2.7011 -4.9668,3.6936 q-3.729,0.9925 -7.813,0.3994 l-0.4558,2.5851 Z M73.1181,-9.2268 q-2.462,-0.4341 -4.3375,-0.9552 q-1.8755,-0.5211 -2.9329,-1.7229 q-1.2601,-1.4915 -1.1735,-3.0628 q0.0867,-1.5713 0.9192,-2.6938 q0.9991,-1.347 2.7296,-1.8034 q1.7305,-0.4564 3.5482,0.7526 q1.3904,0.7529 2.1147,2.4037 q0.7243,1.6508 -0.3253,4.0043 q-0.6298,1.4121 -0.5426,3.0775 Z M56.548,4.0439 q5.1056,-2.6566 7.6327,-6.1106 q2.527,-3.454 1.8486,-7.2753 q-0.6333,-3.4286 -3.1209,-5.5098 q-2.4876,-2.0812 -6.0371,-1.1157 q-1.6917,0.513 -2.836,1.4604 q-1.1443,0.9474 -1.9075,2.2686 q-2.4911,-2.9761 -6.1991,-2.3504 q-2.8621,0.3691 -4.5882,2.1395 q-1.7261,1.7703 -2.0666,3.9979 q-0.3481,2.507 0.9009,4.8899 q1.249,2.3829 4.4129,3.2523 q2.3861,0.6804 4.9577,-0.3119 q2.5716,-0.9922 5.2377,-2.3733 q0.5664,-0.2641 1.1895,-0.5547 q0.6231,-0.2905 1.3028,-0.6075 q0.9139,-0.702 0.5442,-1.495 q-0.1508,-0.6193 -0.7322,-0.8309 q-0.5814,-0.2116 -1.0346,-0.0003 l-1.0196,0.4754 q-1.5402,-0.9369 -1.5246,-2.5302 q0.0156,-1.5934 1.0922,-3.1298 q1.0766,-1.5364 2.8211,-1.9361 q2.3638,-0.5505 4.0625,0.7262 q1.6987,1.2767 2.0755,3.8595 q0.5353,2.9226 -1.9501,5.8745 q-2.4854,2.9519 -6.1711,4.8084 l1.1093,2.3791 Z M52.707,-4.785 q-2.2658,1.0565 -4.101,1.7054 q-1.8352,0.6489 -3.3907,0.2708 q-1.8877,-0.499 -2.718,-1.8358 q-0.8303,-1.3369 -0.7921,-2.7339 q0.0458,-1.6764 1.2016,-3.0429 q1.1558,-1.3665 3.3382,-1.4187 q1.5708,-0.1808 3.111,0.7561 q1.5402,0.9369 2.0303,3.4668 q0.294,1.5179 1.3206,2.8322 Z M47.2001,15.6006 q2.747,-5.0575 2.9104,-9.3342 q0.1634,-4.2766 -2.536,-7.0651 q-2.4423,-2.4882 -5.6684,-2.8224 q-3.2261,-0.3342 -5.6288,2.4511 q-1.1156,1.3713 -1.5345,2.7966 q-0.4189,1.4253 -0.3126,2.9474 q-3.7294,-1.0741 -6.4535,1.5181 q-2.1663,1.9066 -2.6073,4.3395 q-0.4409,2.4329 0.5225,4.47 q1.1134,2.273 3.4814,3.55 q2.368,1.277 5.4771,0.2284 q2.3586,-0.7703 3.9356,-3.031 q1.577,-2.2607 3.0149,-4.8966 q0.3219,-0.5357 0.676,-1.125 q0.3541,-0.5893 0.7403,-1.2322 q0.3651,-1.0931 -0.3849,-1.5437 q-0.4714,-0.429 -1.0717,-0.2793 q-0.6003,0.1497 -0.8578,0.5783 l-0.5794,0.9643 q-1.8008,0.0847 -2.6789,-1.245 q-0.8781,-1.3296 -0.8448,-3.2054 q0.0333,-1.8757 1.256,-3.1827 q1.6517,-1.7783 3.774,-1.6698 q2.1222,0.1085 3.8789,2.0389 q2.0781,2.1236 1.6685,5.9606 q-0.4096,3.837 -2.4269,7.4373 l2.2501,1.3519 Z M39.0785,10.4293 q-1.2875,2.1429 -2.4461,3.7072 q-1.1586,1.5642 -2.6595,2.1207 q-1.844,0.642 -3.2799,-0.002 q-1.4359,-0.644 -2.1855,-1.8235 q-0.8995,-1.4154 -0.7055,-3.1946 q0.194,-1.7792 1.9741,-3.0429 q1.2011,-1.0283 3.0019,-1.1129 q1.8008,-0.0847 3.6218,1.7386 q1.0926,1.094 2.6787,1.6094 Z M46.3992,30.1838 q-0.7502,-5.7065 -3.1318,-9.2625 q-2.3815,-3.556 -6.2045,-4.2254 q-3.4385,-0.5775 -6.245,1.0483 q-2.8065,1.6258 -3.1132,5.2916 q-0.0965,1.7652 0.4023,3.1645 q0.4989,1.3994 1.4795,2.5684 q-3.6487,1.3231 -4.3289,5.0215 q-0.632,2.8159 0.4412,5.0433 q1.0732,2.2275 3.0501,3.3093 q2.2368,1.1846 4.9032,0.8258 q2.6664,-0.3588 4.5655,-3.0345 q1.4554,-2.0095 1.4025,-4.7655 q-0.0529,-2.7559 -0.4389,-5.7337 q-0.0545,-0.6226 -0.1144,-1.3075 q-0.0599,-0.6849 -0.1253,-1.4321 q-0.3471,-1.099 -1.2188,-1.0227 q-0.6335,-0.0701 -1.0312,0.4039 q-0.3977,0.474 -0.3541,0.9721 l0.0981,1.1207 q-1.4072,1.127 -2.8991,0.5673 q-1.492,-0.5596 -2.5676,-2.0967 q-1.0756,-1.5371 -0.8545,-3.3132 q0.2911,-2.4096 2.0719,-3.5692 q1.7807,-1.1596 4.3367,-0.6304 q2.9295,0.4966 4.8534,3.8417 q1.9239,3.3451 2.408,7.4436 l2.6151,-0.2288 Z M36.7888,30.7736 q0.2179,2.4905 0.2,4.437 q-0.0179,1.9465 -0.9052,3.2789 q-1.1145,1.6033 -2.6548,1.9262 q-1.5402,0.323 -2.84,-0.1907 q-1.5597,-0.6164 -2.4485,-2.1699 q-0.8888,-1.5535 -0.1914,-3.6222 q0.3674,-1.5379 1.7745,-2.6649 q1.4072,-1.127 3.9522,-0.7222 q1.527,0.2428 3.1132,-0.2724 Z M53.6559,42.1329 q-4.3756,-3.7387 -8.5247,-4.7879 q-4.1491,-1.0492 -7.438,1.0113 q-2.9417,1.8715 -3.9395,4.9575 q-0.9978,3.086 1.227,6.0154 q1.1093,1.3763 2.4163,2.0825 q1.307,0.7061 2.8179,0.9187 q-1.8262,3.4245 0.1428,6.6281 q1.4144,2.5154 3.7023,3.4527 q2.2879,0.9372 4.4809,0.4185 q2.4548,-0.6163 4.1963,-2.667 q1.7415,-2.0507 1.3624,-5.3098 q-0.263,-2.4672 -2.1462,-4.4798 q-1.8833,-2.0126 -4.1625,-3.9672 q-0.4571,-0.4263 -0.9599,-0.8951 q-0.5028,-0.4689 -1.0513,-0.9804 q-0.9932,-0.5844 -1.59,0.0555 q-0.5177,0.3718 -0.4961,0.9902 q0.0216,0.6183 0.3872,0.9593 l0.8227,0.7673 q-0.2917,1.779 -1.7749,2.3614 q-1.4832,0.5824 -3.311,0.1598 q-1.8278,-0.4226 -2.8518,-1.8904 q-1.3959,-1.9854 -0.8484,-4.0387 q0.5474,-2.0532 2.8009,-3.37 q2.5093,-1.591 6.1772,-0.3924 q3.6679,1.1986 6.7699,3.9205 l1.7903,-1.9197 Z M46.9087,49.0014 q1.8283,1.705 3.1174,3.1635 q1.2891,1.4585 1.5212,3.0423 q0.2445,1.9372 -0.684,3.2077 q-0.9285,1.2706 -2.2381,1.7585 q-1.5715,0.5855 -3.2714,0.0257 q-1.6999,-0.5598 -2.5658,-2.5637 q-0.756,-1.3887 -0.4643,-3.1677 q0.2917,-1.779 2.4538,-3.181 q1.2973,-0.8412 2.1313,-2.2854 Z M69.75,-2.5 q-7.375,0 -13.4375,3.625 q-6.0625,3.625 -9.6875,9.75 q-3.625,6.125 -3.625,13.5 q0,7.375 3.625,13.4375 q3.625,6.0625 9.6875,9.6875 q6.0625,3.625 13.4375,3.625 q7.5,0 13.5625,-3.625 q6.0625,-3.625 9.6875,-9.6875 q3.625,-6.0625 3.625,-13.4375 q0,-7.375 -3.625,-13.5 q-3.625,-6.125 -9.6875,-9.75 q-6.0625,-3.625 -13.5625,-3.625 Z M69.75,1.25 q6.5,0 11.6875,3.125 q5.1875,3.125 8.3125,8.375 q3.125,5.25 3.125,11.625 q0,6.375 -3.125,11.5625 q-3.125,5.1875 -8.3125,8.3125 q-5.1875,3.125 -11.6875,3.125 q-6.375,0 -11.5625,-3.125 q-5.1875,-3.125 -8.3125,-8.3125 q-3.125,-5.1875 -3.125,-11.5625 q0,-6.375 3.125,-11.625 q3.125,-5.25 8.3125,-8.375 q5.1875,-3.125 11.5625,-3.125 Z" fill="#D4AF37" transform="matrix(1,0,0,-1,329,46)"/>
  <path d="M107.3125,31.75 q-1.5,0 -2.6562,1.1562 q-1.1562,1.1562 -1.1562,2.6562 q0,1.5625 1.1562,2.6875 q1.1562,1.125 2.6562,1.125 q1.5625,0 2.6875,-1.125 q1.125,-1.125 1.125,-2.6875 q0,-1.5 -1.125,-2.6562 q-1.125,-1.1562 -2.6875,-1.1562 Z M92.1875,-11.5 q-1.5,0 -2.6562,1.1562 q-1.1562,1.1562 -1.1562,2.6562 q0,1.5625 1.1562,2.6875 q1.1562,1.125 2.6562,1.125 q1.5625,0 2.6875,-1.125 q1.125,-1.125 1.125,-2.6875 q0,-1.5 -1.125,-2.6562 q-1.125,-1.1562 -2.6875,-1.1562 Z M32.4375,32 q-1.5,0 -2.6562,1.1562 q-1.1562,1.1562 -1.1562,2.6562 q0,1.5625 1.1562,2.6875 q1.1562,1.125 2.6562,1.125 q1.5625,0 2.6875,-1.125 q1.125,-1.125 1.125,-2.6875 q0,-1.5 -1.125,-2.6562 q-1.125,-1.1562 -2.6875,-1.1562 Z M69.8125,59.75 q-1.5,0 -2.6562,1.1562 q-1.1562,1.1562 -1.1562,2.6562 q0,1.5625 1.1562,2.6875 q1.1562,1.125 2.6562,1.125 q1.5625,0 2.6875,-1.125 q1.125,-1.125 1.125,-2.6875 q0,-1.5 -1.125,-2.6562 q-1.125,-1.1562 -2.6875,-1.1562 Z M46.4375,-11 q-1.5,0 -2.6562,1.1562 q-1.1562,1.1562 -1.1562,2.6562 q0,1.5625 1.1562,2.6875 q1.1562,1.125 2.6562,1.125 q1.5625,0 2.6875,-1.125 q1.125,-1.125 1.125,-2.6875 q0,-1.5 -1.125,-2.6562 q-1.125,-1.1562 -2.6875,-1.1562 Z" fill="#802001" transform="matrix(1,0,0,-1,329,46)"/>
  <path d="M32.4375,8.125 q-1.5,0 -2.6562,1.1562 q-1.1562,1.1562 -1.1562,2.6562 q0,1.5625 1.1562,2.6875 q1.1562,1.125 2.6562,1.125 q1.5625,0 2.6875,-1.125 q1.125,-1.125 1.125,-2.6875 q0,-1.5 -1.125,-2.6562 q-1.125,-1.1562 -2.6875,-1.1562 Z M106.6875,7.625 q-1.5,0 -2.6562,1.1562 q-1.1562,1.1562 -1.1562,2.6562 q0,1.5625 1.1562,2.6875 q1.1562,1.125 2.6562,1.125 q1.5625,0 2.6875,-1.125 q1.125,-1.125 1.125,-2.6875 q0,-1.5 -1.125,-2.6562 q-1.125,-1.1562 -2.6875,-1.1562 Z M69.4375,-18.75 q-1.5,0 -2.6562,1.1562 q-1.1562,1.1562 -1.1562,2.6562 q0,1.5625 1.1562,2.6875 q1.1562,1.125 2.6562,1.125 q1.5625,0 2.6875,-1.125 q1.125,-1.125 1.125,-2.6875 q0,-1.5 -1.125,-2.6562 q-1.125,-1.1562 -2.6875,-1.1562 Z M46.9375,51.875 q-1.5,0 -2.6562,1.1562 q-1.1562,1.1562 -1.1562,2.6562 q0,1.5625 1.1562,2.6875 q1.1562,1.125 2.6562,1.125 q1.5625,0 2.6875,-1.125 q1.125,-1.125 1.125,-2.6875 q0,-1.5 -1.125,-2.6562 q-1.125,-1.1562 -2.6875,-1.1562 Z M93.0625,51.375 q-1.5,0 -2.6562,1.1562 q-1.1562,1.1562 -1.1562,2.6562 q0,1.5625 1.1562,2.6875 q1.1562,1.125 2.6562,1.125 q1.5625,0 2.6875,-1.125 q1.125,-1.125 1.125,-2.6875 q0,-1.5 -1.125,-2.6562 q-1.125,-1.1562 -2.6875,-1.1562 Z" fill="#E22E00" transform="matrix(1,0,0,-1,329,46)"/>
  <path d="M-81.125,14.125 q-1.375,-0.375 -4.1875,-0.5625 q-2.8125,-0.1875 -6.125,0.0625 q-3.3125,0.25 -6.25,1.25 q-2.9375,1 -4.5625,3 q1.875,0.625 3.25,1.875 q1.375,1.25 2.875,2.875 l1.25,-0.625 l-0.75,0.625 q0.5,0 1.9375,1.3125 q1.4375,1.3125 3.125,3.0625 q1.6875,1.75 3,3.1875 q1.3125,1.4375 1.5625,1.6875 q1.125,-0.5 2.1875,-1.375 q1.0625,-0.875 1.8125,-1.75 q2.875,1.75 5.375,5.875 q0.25,-0.5 0.8125,-2.3125 q0.5625,-1.8125 1.3125,-3.5625 q1.375,1.125 2.375,2.5625 q1,1.4375 2.5,3.6875 q0.25,-0.5 0.6875,-2.125 q0.4375,-1.625 0.9375,-3.25 q1,0.5 2.25,1.8125 q1.25,1.3125 2.25,2.75 q1,1.4375 1.25,2.0625 q0.375,-0.625 0.5,-2.25 q0.125,-1.625 0.625,-3.375 q0.25,1 0.875,1.625 q1,1.125 3.5,3.4375 q2.5,2.3125 4.375,3.9375 l1,-1 q-0.75,-1 -1.5625,-2.3125 q-0.8125,-1.3125 -1.4375,-2.5625 q-1,-2 0.5,-3.5625 q1.5,-1.5625 4.4375,-2.625 q2.9375,-1.0625 6.375,-1.375 q3.4375,-0.3125 6.1875,0.1875 l-7.125,-6.5 q-1.875,-0.25 -5.8125,-0.375 q-3.9375,-0.125 -8.8125,-0.1875 q-4.875,-0.0625 -9.875,0 q-5,0.0625 -9.125,0.1875 q0,-1.125 -0.5,-2.9375 q-0.5,-1.8125 -3,-2.4375 Z M-65.25,-2.75 q-5.5,-0.5 -8.25,2.25 q-2.75,2.75 -2.75,6 q0,2 1.375,3.3125 q1.375,1.3125 3.375,1.3125 q2,0 3.3125,-1.3125 q1.3125,-1.3125 1.3125,-3.3125 q0,-2.125 -1.375,-3.5 q0.375,0 0.8125,0 q0.4375,0 0.9375,0.125 l1.25,-4.875 Z" fill="#9A7312" transform="matrix(1,0,0,-1,469,46)"/>
  <path d="M-81.25,14.75 q-1.25,-0.375 -3.8125,-0.5625 q-2.5625,-0.1875 -5.625,-0.0625 q-3.0625,0.125 -5.875,1 q-2.8125,0.875 -4.5625,2.5 q1.5,0.625 2.6875,1.8125 q1.1875,1.1875 2.4375,2.4375 q2,-1 5.4375,-1.8125 q3.4375,-0.8125 6.1875,-0.4375 l-0.25,0.5 q-2.25,0 -5.1875,0.5625 q-2.9375,0.5625 -4.6875,1.8125 q1.25,1 2.9375,2.6875 q1.6875,1.6875 3.3125,3.375 q1.625,1.6875 2.375,2.5625 q2.125,-1.25 3.6875,-3.1875 q1.5625,-1.9375 2.1875,-2.8125 l0.375,0.25 q-0.125,0.25 -0.6875,1.1875 q-0.5625,0.9375 -1.1875,1.6875 q1.75,1 2.75,2.1875 q1,1.1875 2,2.8125 q0.25,-0.625 1.1875,-3.3125 q0.9375,-2.6875 2.1875,-4.5625 l0.375,0.375 q-0.375,0.5 -0.6875,1.125 q-0.3125,0.625 -0.5625,1.25 q1.375,1 2.3125,2.3125 q0.9375,1.3125 2.0625,3.0625 q0.25,-0.625 1.0625,-3.1875 q0.8125,-2.5625 2.0625,-4.0625 l0.375,0.375 q-0.125,0.25 -0.5625,0.9375 q-0.4375,0.6875 -0.6875,1.5625 q1.25,0.625 2.75,2.375 q1.5,1.75 2.375,3.125 q0.25,-1.125 0.6875,-4.0625 q0.4375,-2.9375 2.4375,-4.6875 l0.375,0.375 q-1.25,1.375 -1.5625,2.875 q-0.3125,1.5 0.8125,2.75 q0.625,0.75 2.25,2.25 q1.625,1.5 3.1875,2.875 q1.5625,1.375 1.9375,1.75 l0.25,-0.25 q-0.375,-0.5 -1.375,-2.0625 q-1,-1.5625 -1.375,-2.4375 q-0.875,-2.125 0.375,-3.8125 q1.25,-1.6875 3.8125,-2.8125 q2.5625,-1.125 5.75,-1.625 q3.1875,-0.5 6.1875,-0.25 l-5.5,-5 q-2,-0.25 -6.0625,-0.375 q-4.0625,-0.125 -9.0625,-0.1875 q-5,-0.0625 -10,0 q-5,0.0625 -9,0.1875 q0,0 0,0 q0.125,-0.875 -0.0625,-2.8125 q-0.1875,-1.9375 -2.8125,-2.5625 Z M-65.375,-2.125 q-5.125,-0.5 -7.6875,2.0625 q-2.5625,2.5625 -2.5625,5.5625 q0,1.75 1.1875,2.875 q1.1875,1.125 2.9375,1.125 q1.75,0 2.875,-1.125 q1.125,-1.125 1.125,-2.875 q0,-2.5 -2.125,-3.625 q1.375,-0.75 3.5,-0.25 l0.75,-3.75 Z" fill="#D4AF37" transform="matrix(1,0,0,-1,469,46)"/>
</svg>
