<svg xmlns="http://www.w3.org/2000/svg" width="94" height="98" preserveAspectRatio="xMinYMin slice" viewBox="22 -26 94 98"><path fill="#fffaed" d="M22 72v-98h94v98Z"/><path fill="none" d="M23.625 12.25q-.5-2.875.625-5.25t3.125-3.625q2.375-1.125 4.625-1-.625-3.25 1.5-6.125 1-1.25 2.25-2t2.5-1q-1.25-3.625.625-6.625 1.5-2.5 3.938-3.562Q45.25-18 47.625-17.5q.875.25 1.688.625t1.562 1q1.375-2.5 4.25-3.5 1.625-.625 3.063-.562 1.437.062 2.687.562.375-1.5 1.438-2.875T65-24.375q2.75-1.375 5.375-.812t4.25 2.312q1.5 1.625 2 3.5 1.375-.75 3-.875t3.375.625q1.5.5 2.625 1.563t1.625 2.187q1.375-.875 3.125-1.25T93.75-17q2.875.875 4.5 2.938Q99.875-12 100-9.5q0 1.75-.625 3.375 1.375.25 2.563.938 1.187.687 2.062 2.062 1.875 2.625 1.625 5.5 3.5-.375 6.125 2.25 2.125 2.25 2.375 4.875t-.875 4.75q-1.25 2-2.875 3 .875 1 1.375 2.25t.5 2.875q-.125 1.625-.687 3t-1.438 2.375q1.375.875 2.313 2.375.937 1.5 1.062 3.25.25 3-1.125 5.25t-3.625 3.25q-2 .875-4.375.5 0 2.25-1.25 4.25-.875 1.375-2.062 2.25-1.188.875-2.438 1.25.625 1.5.688 3.25t-.688 3.375Q97.375 59.5 95 60.688q-2.375 1.187-4.75.937-2.625-.375-4.25-2-.625.875-1.562 1.688t-2.313 1.312q-1.5.5-2.937.438Q77.75 63 76.5 62.625q-.875 3.625-4.125 5.125-2.75 1.25-5.312.75t-4.313-2.125q-1.625-1.75-2.125-4-1 .375-2.25.5t-2.625-.25Q52.625 61.75 51 59.25q-1.25 1.125-2.875 1.688t-3.375.312q-3-.5-4.812-2.375t-2.313-4.25Q37.25 52.25 38.25 50q-1.875-.75-3.5-2.375-1-1.25-1.5-2.687-.5-1.438-.5-2.688-1.625.125-3.25-.25t-3-1.625q-2.25-2.125-2.687-4.687-.438-2.563.437-4.813 1.25-2.5 3.5-3.625-1.5-1.875-1.625-4.25-.125-1.625.25-3.062Q26.75 18.5 27.5 17.5q-1.375-.75-2.5-2.125t-1.375-3.125"/><path fill="#9a7312" d="M67.554-1.895q-6.069.835-10.485-.68T50.896-7.99q-1.431-3.443-.439-6.764.993-3.321 4.703-4.668 1.566-.501 3.035-.418 1.468.084 2.677.525.383-1.579 1.493-2.957t2.638-2.126q2.702-1.314 5.318-.78 2.616.535 4.287 2.296 1.853 2.11 2.18 4.97.326 2.859-2.019 5.635-1.825 2.06-4.635 2.696-2.81.635-5.917 1l-1.296.205-1.296.206q-.514-.046-1.138-.39t-.721-.961q-.241-.721.197-1.55t1.303-.966l.74-.117q.714-1.885-1.392-3.196t-4.146-.61-2.579 2.497.431 3.918Q55.368-6.924 59.12-6q3.754.924 7.828.279zM65.73-12.616q2.098-.333 3.736-.782 1.637-.449 2.488-1.47 1.202-1.202 1.182-2.528t-.833-2.462q-.833-1.26-2.34-1.591-1.508-.331-3.12.683-1.28.71-1.877 2.133t.23 3.444q.546 1.052.534 2.573M80.91 1.717q-5.128-3.352-7.467-7.392t-1.107-8.136q1.179-3.537 4.107-5.393t6.611-.437q1.51.649 2.564 1.675t1.677 2.153q1.324-.94 3.067-1.252 1.742-.312 3.385.125 2.902.782 4.525 2.902t1.73 4.544q.013 2.81-1.616 5.18-1.63 2.373-5.22 2.93-2.73.357-5.267-1.007-2.538-1.365-5.122-3.126l-1.113-.696-1.113-.695q-.357-.371-.603-1.04-.245-.67.086-1.2.292-.702 1.166-1.04.875-.338 1.617.126l.636.397q1.775-.954 1.046-3.325t-2.73-3.18q-2-.808-3.584.192-1.583 1-2.245 3.24-.927 2.663 1.299 5.823t5.724 5.346zm5.657-9.288q1.802 1.126 3.332 1.86 1.53.736 2.842.524 1.696-.12 2.55-1.133.855-1.014.988-2.405.198-1.497-.723-2.736-.92-1.239-2.802-1.53-1.431-.305-2.816.378-1.384.682-2.086 2.75-.278 1.152-1.285 2.292m4.563 21.624Q88.46 8.54 88.537 3.871t3.241-7.544q2.833-2.425 6.298-2.507t5.893 3.03q.96 1.334 1.334 2.757.374 1.422.328 2.708 1.62-.124 3.274.507 1.654.63 2.837 1.85 2.085 2.165 2.385 4.818t-.858 4.787q-1.435 2.414-4.054 3.608-2.618 1.194-5.983-.178-2.523-1.1-3.996-3.576t-2.78-5.317l-.595-1.17-.596-1.169q-.116-.502.019-1.202.134-.7.691-.983.612-.452 1.535-.292.924.161 1.321.94l.34.669q2.014.096 2.61-2.312t-.702-4.131-3.171-1.681q-1.872.042-3.593 1.62-2.167 1.805-1.886 5.66t2.153 7.531zm9.633-5.048q.964 1.893 1.898 3.311.933 1.419 2.166 1.913 1.515.77 2.77.342 1.255-.429 2.085-1.553.941-1.181.79-2.717-.152-1.537-1.614-2.755-1.07-.998-2.608-1.127-1.539-.128-3.205 1.283-.832.844-2.282 1.303m-9.284 19.072q1.291-5.989 4.226-9.62 2.934-3.633 7.198-3.95 3.725-.167 6.507 1.901 2.781 2.07 2.778 6.016-.065 1.643-.646 2.994-.58 1.352-1.409 2.337 1.353.9 2.269 2.415.915 1.515 1.096 3.205.31 2.99-1.087 5.264-1.398 2.276-3.623 3.244-2.618 1.019-5.416.348t-4.605-3.824q-1.312-2.42-.948-5.278t1.083-5.902l.25-1.288.251-1.288q.218-.467.755-.936t1.15-.35q.76.02 1.39.716.628.695.461 1.554l-.143.737q1.527 1.315 3.48-.215t1.99-3.688-1.464-3.278-3.83-.935q-2.818.089-4.97 3.3t-2.94 7.26zm10.7 1.952q-.406 2.086-.544 3.778t.53 2.84q.72 1.541 1.972 1.976 1.252.434 2.599.06 1.469-.352 2.295-1.655.827-1.304.424-3.165-.228-1.445-1.362-2.493-1.133-1.048-3.314-.963-1.176.154-2.6-.378M82.488 40.83q4.19-4.468 8.576-6.07 4.386-1.601 8.205.323 3.28 1.775 4.598 4.98 1.319 3.207-.717 6.588-.901 1.375-2.096 2.234-1.194.86-2.411 1.277.696 1.469.7 3.239t-.71 3.312q-1.274 2.722-3.644 3.952-2.37 1.231-4.776.915-2.768-.475-4.821-2.492t-1.978-5.649q.121-2.75 1.906-5.012t3.968-4.501l.878-.975.878-.976q.428-.288 1.13-.413.7-.125 1.165.293.641.409.822 1.329t-.404 1.57l-.502.557q.631 1.914 3.094 1.608t3.605-2.136.433-3.563-2.8-2.774q-2.463-1.376-5.961.268t-6.259 4.71zm8.165 7.184q-1.422 1.58-2.412 2.96t-1.008 2.707q-.177 1.691.673 2.709.85 1.017 2.197 1.39 1.44.455 2.82-.237t1.993-2.494q.549-1.357.117-2.839t-2.346-2.532q-1.087-.474-2.034-1.664m-21.177-2.73q6.053-.941 10.495.497 4.443 1.438 6.267 5.305 1.49 3.418.556 6.756t-4.62 4.75q-1.557.528-3.027.47t-2.686-.479q-.355 1.586-1.442 2.983t-2.6 2.172q-2.679 1.361-5.304.872-2.624-.49-4.326-2.22-1.89-2.078-2.266-4.931t1.92-5.67q1.789-2.092 4.588-2.776 2.798-.684 5.898-1.104l1.292-.227 1.293-.228q.514.036 1.144.37.63.332.738.948.253.717-.17 1.553t-1.286.988l-.738.13q-.681 1.897 1.448 3.172t4.156.537 2.535-2.542-.5-3.91q-1.092-2.6-4.861-3.458-3.77-.859-7.831-.142zm2.011 10.688q-2.093.368-3.722.846t-2.462 1.513q-1.18 1.224-1.137 2.549t.875 2.447q.855 1.246 2.368 1.55t3.107-.738q1.267-.73 1.839-2.165.572-1.433-.29-3.439-.564-1.043-.578-2.563M55.246 41.125q5.498 2.701 8.312 6.427t2.09 7.94q-.738 3.655-3.418 5.853t-6.51 1.24q-1.578-.46-2.749-1.35-1.17-.89-1.926-1.933-1.2 1.096-2.892 1.617-1.691.522-3.375.288-2.975-.422-4.845-2.328t-2.27-4.3q-.356-2.786.972-5.34 1.328-2.552 4.824-3.542 2.666-.688 5.35.357 2.686 1.045 5.465 2.479l1.19.555 1.189.554q.4.325.725.96.325.633.061 1.2-.204.732-1.03 1.174t-1.62.073l-.68-.317q-1.646 1.163-.633 3.428t3.097 2.823 3.534-.627 1.834-3.49q.595-2.756-2-5.621t-6.333-4.609zm-4.483 9.909q-1.926-.898-3.534-1.442-1.609-.543-2.885-.173-1.669.326-2.394 1.436-.724 1.11-.686 2.507-.015 1.51 1.05 2.628 1.066 1.117 2.969 1.177 1.457.128 2.748-.718 1.291-.847 1.736-2.984.136-1.178.996-2.432Zm-4.35-21.493q3.048 5.314 3.298 9.977.249 4.662-2.707 7.751-2.657 2.617-6.108 2.94-3.451.324-6.09-2.611-1.051-1.264-1.524-2.657-.472-1.393-.516-2.68-1.608.237-3.301-.276-1.694-.514-2.96-1.65-2.23-2.013-2.714-4.639-.484-2.625.522-4.834 1.263-2.509 3.792-3.882t5.98-.24q2.595.92 4.237 3.288t3.144 5.111l.676 1.125.676 1.125q.15.493.065 1.2-.086.708-.622 1.03-.578.493-1.51.397-.933-.096-1.384-.846l-.386-.642q-2.015.044-2.442 2.488t.988 4.072 3.28 1.456q1.866-.173 3.473-1.867 2.035-1.952 1.486-5.778-.549-3.827-2.673-7.362l3.321-1.996Zm-9.256 5.708q-1.095-1.822-2.125-3.172t-2.295-1.756q-1.565-.664-2.787-.149-1.221.516-1.97 1.695-.857 1.244-.6 2.766.259 1.522 1.803 2.636 1.137.92 2.68.941t3.108-1.502q.77-.901 2.185-1.46Zm8.92-20.002q-.66 6.091-3.198 10.01t-6.746 4.68q-3.687.555-6.67-1.211t-3.392-5.693q-.107-1.64.33-3.045.436-1.405 1.157-2.471-1.44-.754-2.509-2.165-1.069-1.41-1.425-3.073-.621-2.94.53-5.35 1.152-2.408 3.265-3.604 2.496-1.287 5.35-.912t4.98 3.322q1.558 2.27 1.494 5.15t-.46 5.982l-.115 1.308-.115 1.307q-.168.488-.653 1.01t-1.107.468q-.758.059-1.456-.567-.699-.626-.622-1.497l.065-.747q-1.656-1.15-3.438.577t-1.594 3.876 1.798 3.106 3.907.53q2.794-.383 4.599-3.801 1.804-3.418 2.164-7.528zm-10.845-.823q.185-2.117.145-3.815t-.824-2.77q-.876-1.456-2.168-1.758-1.29-.3-2.59.213-1.425.503-2.11 1.886-.686 1.383-.091 3.192.378 1.413 1.614 2.337t3.398.61q1.153-.275 2.626.105M53.539 3.898q-4.564 4.086-9.073 5.3T36.321 8.16Q33.21 6.107 32.175 2.8t1.288-6.5q1.018-1.291 2.282-2.043t2.514-1.062q-.566-1.523-.416-3.287.15-1.763.997-3.237 1.506-2.6 3.974-3.62t4.837-.495q2.717.714 4.586 2.902t1.478 5.8q-.36 2.73-2.335 4.827T47.034.222l-.96.895-.96.895q-.45.25-1.16.313-.71.064-1.136-.393-.603-.463-.703-1.396t.54-1.528l.548-.512q-.462-1.962-2.942-1.871t-3.777 1.813-.742 3.512 2.548 3.008q2.333 1.585 5.961.252t6.645-4.146zM46.031-3.97q1.554-1.45 2.66-2.737t1.241-2.61q.324-1.67-.434-2.757T47.43-13.65q-1.395-.579-2.83-.01-1.435.57-2.203 2.311-.664 1.304-.363 2.818.3 1.514 2.115 2.727 1.042.567 1.882 1.834M68.75 49.125q-7.5 0-13.75-3.687-6.25-3.688-9.937-9.938-3.688-6.25-3.688-13.875t3.688-13.812T55-2.062 68.75-5.75q7.625 0 13.875 3.688 6.25 3.687 9.938 9.875Q96.25 14 96.25 21.624T92.563 35.5t-9.938 9.938q-6.25 3.687-13.875 3.687m0-5q6.25 0 11.375-3T88.25 33t3-11.375-3-11.312-8.125-8.063-11.375-3q-6.125 0-11.25 3t-8.125 8.063-3 11.312 3 11.375 8.125 8.125 11.25 3"/><path fill="#d4af37" d="M66.84-2.414q-5.719.652-9.745-.798-4.027-1.45-5.601-4.998-1.392-3.197-.494-6.313.899-3.116 4.381-4.3 1.69-.521 3.168-.376t2.85.814q.401-3.86 3.825-5.415 2.58-1.294 5-.791 2.421.502 3.949 2.158 1.69 1.884 1.987 4.558t-1.84 5.164q-1.597 1.898-4.284 2.513-2.687.616-5.67.962l-1.295.205-1.42.225q-1.15-.071-1.287-.935-.222-.598.142-1.099.364-.5.858-.578l1.11-.176q.754-1.638-.15-2.95t-2.656-1.985-3.421-.027q-2.268.865-2.962 2.874-.694 2.008.437 4.36 1.19 2.722 4.902 3.78 3.711 1.057 7.805.535zm-1.753-9.468q2.469-.39 4.353-.879 1.884-.488 2.963-1.671 1.286-1.47 1.226-3.042-.059-1.573-.872-2.71-.975-1.364-2.698-1.85-1.722-.487-3.56.69-1.404.729-2.157 2.367t.256 4.009q.605 1.423.489 3.086M80.71.856q-4.744-3.26-6.83-6.995-2.088-3.737-.949-7.447 1.047-3.325 3.77-5.088t6.127-.371q1.617.715 2.637 1.795t1.617 2.484q2.835-2.65 6.439-1.577 2.796.715 4.293 2.683t1.564 4.22q.04 2.53-1.49 4.743t-4.777 2.69q-2.45.385-4.882-.914t-4.91-2.994l-1.112-.695-1.22-.762q-.82-.808-.357-1.55.225-.596.828-.736.603-.139 1.027.126l.954.596q1.643-.742 1.821-2.325.179-1.584-.702-3.24t-2.564-2.265q-2.28-.835-4.12.225-1.842 1.06-2.531 3.578-.888 2.836 1.22 6.068 2.106 3.233 5.538 5.525zM85.6-7.44q2.12 1.325 3.863 2.193 1.742.867 3.332.682 1.935-.265 2.922-1.491t1.119-2.617q.159-1.67-.822-3.166-.98-1.498-3.14-1.815-1.537-.371-3.18.37-1.643.743-2.438 3.194-.476 1.471-1.656 2.65m5.804 20.652q-2.388-5.237-2.252-9.515.135-4.277 3.022-6.87 2.61-2.313 5.852-2.42 3.241-.11 5.444 2.837 1.017 1.445 1.335 2.897.319 1.45.107 2.962 3.795-.812 6.332 1.964 2.028 2.053 2.298 4.51.27 2.458-.833 4.423-1.27 2.19-3.72 3.299-2.452 1.108-5.48-.154-2.3-.933-3.715-3.298t-2.666-5.095l-.595-1.17-.653-1.28q-.288-1.116.491-1.514.5-.395 1.089-.203.588.19.815.636l.511 1.003q1.79.21 2.76-1.055.968-1.266 1.066-3.139.097-1.874-1.031-3.263-1.524-1.889-3.649-1.928-2.124-.04-4.011 1.763-2.221 1.973-2.08 5.83.14 3.856 1.902 7.588zm8.462-4.593q1.135 2.228 2.182 3.869t2.505 2.3q1.795.77 3.272.227 1.477-.542 2.307-1.666.996-1.35.927-3.138-.07-1.788-1.757-3.173-1.127-1.11-2.917-1.32T102.651 7.2q-1.166 1.016-2.785 1.42Zm-7.653 18.963q1.342-5.597 4.082-8.885t6.613-3.554q3.48-.214 6.1 1.696 2.622 1.91 2.544 5.588-.089 1.765-.731 3.105-.643 1.34-1.74 2.4 3.49 1.696 3.78 5.446.334 2.866-.966 4.97-1.3 2.102-3.379 2.972-2.348.944-4.962.308-2.615-.635-4.224-3.495-1.237-2.15-.896-4.885.34-2.736 1.035-5.657l.25-1.288.275-1.411q.46-1.057 1.319-.89.637-.003.983.51.346.512.251 1.003l-.215 1.105q1.282 1.267 2.824.867 1.543-.4 2.773-1.817t1.196-3.206q-.038-2.427-1.687-3.766-1.65-1.34-4.247-1.08-2.966.188-5.229 3.313t-3.172 7.151zm9.496 1.59q-.477 2.455-.663 4.392-.185 1.938.558 3.356.94 1.71 2.439 2.193 1.498.482 2.844.107 1.615-.45 2.662-1.902t.569-3.582q-.205-1.568-1.487-2.836-1.281-1.268-3.855-1.131-1.544.082-3.067-.596M83.37 40.786q4.033-4.106 8.075-5.513 4.042-1.406 7.498.36 3.094 1.608 4.357 4.595 1.263 2.988-.698 6.1-.985 1.468-2.226 2.285-1.24.817-2.727 1.16 2.118 3.253.435 6.616-1.19 2.63-3.387 3.763t-4.428.807q-2.499-.4-4.412-2.291-1.914-1.891-1.82-5.171.047-2.481 1.747-4.65t3.801-4.315l.878-.975.962-1.069q.939-.669 1.59-.083.547.325.58.943t-.303.99l-.752.836q.445 1.747 1.974 2.198t3.312-.13 2.676-2.132q1.218-2.1.494-4.097-.725-1.998-3.085-3.113-2.638-1.367-6.188.147t-6.402 4.496zm7.32 6.255q-1.673 1.858-2.83 3.423t-1.25 3.163q-.075 1.952.961 3.136t2.383 1.557q1.617.447 3.261-.26 1.645-.705 2.333-2.777.632-1.45.187-3.196-.446-1.747-2.722-2.955-1.366-.725-2.323-2.091M70.2 45.793q5.706-.753 9.757.627t5.687 4.9q1.448 3.171.604 6.303-.844 3.131-4.306 4.376-1.68.55-3.16.43-1.481-.119-2.864-.763-.334 3.866-3.73 5.48-2.556 1.34-4.986.88t-3.986-2.09q-1.723-1.854-2.066-4.522-.344-2.669 1.749-5.196 1.564-1.925 4.24-2.588 2.676-.662 5.652-1.06l1.292-.228 1.416-.25q1.151.052 1.303.913.232.594-.123 1.101t-.847.594l-1.108.195q-.725 1.65.202 2.947.927 1.296 2.69 1.938 1.763.64 3.421-.033 2.252-.904 2.912-2.925.659-2.02-.514-4.351-1.238-2.702-4.967-3.694-3.729-.993-7.813-.4zm1.917 9.435q-2.462.434-4.337.955-1.876.521-2.933 1.723-1.26 1.491-1.174 3.063.087 1.571.92 2.693.998 1.348 2.729 1.804 1.73.456 3.548-.753 1.39-.753 2.115-2.403.724-1.651-.325-4.005-.63-1.412-.543-3.077m-16.57-13.27q5.106 2.656 7.633 6.11t1.848 7.275q-.633 3.429-3.12 5.51t-6.038 1.116q-1.691-.514-2.836-1.46-1.144-.948-1.907-2.27-2.491 2.977-6.2 2.35-2.861-.368-4.587-2.139-1.727-1.77-2.067-3.998-.348-2.507.9-4.89 1.25-2.382 4.414-3.252 2.386-.68 4.957.312 2.572.992 5.238 2.373l1.19.555 1.302.608q.914.702.545 1.495-.151.619-.733.83-.581.212-1.034 0l-1.02-.474q-1.54.936-1.524 2.53.015 1.593 1.092 3.13 1.076 1.536 2.82 1.936 2.365.55 4.063-.727 1.7-1.276 2.076-3.86.535-2.922-1.95-5.874-2.486-2.951-6.171-4.808l1.109-2.38Zm-3.841 8.828q-2.266-1.056-4.101-1.705-1.835-.65-3.39-.271-1.888.499-2.719 1.836-.83 1.336-.792 2.733.046 1.677 1.202 3.043t3.338 1.42q1.57.18 3.111-.757 1.54-.937 2.03-3.467.294-1.518 1.32-2.832ZM46.2 30.399q2.747 5.058 2.91 9.335.164 4.276-2.535 7.065-2.443 2.488-5.669 2.822t-5.629-2.451q-1.115-1.371-1.534-2.797-.42-1.425-.313-2.947-3.73 1.074-6.453-1.518-2.167-1.907-2.608-4.34-.44-2.432.523-4.47 1.113-2.273 3.481-3.55t5.477-.228q2.359.77 3.936 3.031 1.577 2.26 3.015 4.897l.676 1.125.74 1.232q.365 1.093-.385 1.544-.471.429-1.071.279t-.858-.578l-.58-.965q-1.8-.084-2.678 1.245-.879 1.33-.845 3.206.033 1.875 1.256 3.182 1.651 1.779 3.774 1.67 2.122-.108 3.879-2.039 2.078-2.123 1.668-5.96T43.95 31.75zm-8.122 5.172q-1.287-2.143-2.446-3.707-1.158-1.565-2.66-2.121-1.843-.642-3.279.002t-2.186 1.823q-.899 1.416-.705 3.195.194 1.78 1.974 3.043 1.201 1.028 3.002 1.113T35.4 37.18q1.092-1.094 2.678-1.61M45.4 15.816q-.75 5.707-3.132 9.263-2.381 3.556-6.204 4.225-3.439.578-6.245-1.048t-3.113-5.292q-.097-1.765.402-3.164t1.48-2.569q-3.65-1.323-4.33-5.021-.631-2.816.442-5.044t3.05-3.309q2.237-1.184 4.903-.826 2.666.36 4.566 3.035 1.455 2.01 1.402 4.765t-.439 5.734l-.114 1.308-.125 1.432q-.348 1.099-1.22 1.022-.633.07-1.03-.404-.398-.474-.355-.972l.098-1.12q-1.407-1.127-2.899-.568-1.492.56-2.567 2.097t-.855 3.313q.291 2.41 2.072 3.57 1.78 1.16 4.337.63 2.93-.497 4.853-3.842 1.924-3.345 2.408-7.443zm-9.61-.59q.218-2.49.2-4.437-.018-1.946-.905-3.278-1.115-1.604-2.655-1.927t-2.84.191q-1.56.616-2.449 2.17t-.191 3.622q.367 1.538 1.774 2.665t3.953.722q1.527-.243 3.113.273ZM52.656 3.867Q48.28 7.606 44.13 8.655t-7.438-1.011q-2.941-1.872-3.94-4.958Q31.755-.4 33.98-3.329q1.109-1.376 2.416-2.083 1.307-.706 2.818-.918-1.826-3.425.143-6.628 1.414-2.516 3.702-3.453t4.48-.419q2.456.617 4.197 2.667 1.742 2.051 1.363 5.31-.263 2.467-2.147 4.48T46.791-.406l-.96.895-1.051.98q-.993.585-1.59-.055-.518-.372-.496-.99.021-.618.387-.96l.823-.767q-.292-1.779-1.775-2.361-1.484-.582-3.311-.16-1.828.423-2.852 1.89-1.396 1.986-.849 4.04.548 2.052 2.801 3.37 2.51 1.59 6.178.392 3.667-1.199 6.77-3.92zM45.909-3q1.828-1.705 3.117-3.164 1.29-1.458 1.521-3.042.245-1.937-.684-3.208-.928-1.27-2.238-1.758-1.571-.586-3.271-.026t-2.566 2.564q-.756 1.388-.464 3.167.291 1.78 2.453 3.181Q45.076-4.445 45.91-3m22.84 51.5q-7.375 0-13.437-3.625-6.063-3.625-9.688-9.75T42 21.625t3.625-13.437T55.313-1.5 68.75-5.125q7.5 0 13.563 3.625Q88.375 2.125 92 8.188q3.625 6.062 3.625 13.437T92 35.125t-9.687 9.75T68.75 48.5m0-3.75q6.5 0 11.688-3.125 5.187-3.125 8.312-8.375t3.125-11.625-3.125-11.562-8.312-8.313T68.75-1.375q-6.375 0-11.562 3.125Q52 4.875 48.875 10.063 45.75 15.25 45.75 21.624t3.125 11.625 8.313 8.375T68.75 44.75"/><path fill="#471c01" d="M106.313 14.25q-1.5 0-2.657-1.156-1.156-1.156-1.156-2.656 0-1.563 1.156-2.688t2.656-1.125q1.563 0 2.688 1.125t1.125 2.688q0 1.5-1.125 2.656t-2.687 1.156M91.187 57.5q-1.5 0-2.656-1.156t-1.156-2.656q0-1.563 1.156-2.688t2.656-1.125q1.563 0 2.688 1.125T95 53.688q0 1.5-1.125 2.656T91.188 57.5M31.438 14q-1.5 0-2.656-1.156t-1.156-2.656q0-1.563 1.156-2.688 1.157-1.125 2.657-1.125 1.562 0 2.687 1.125t1.125 2.688q0 1.5-1.125 2.656T31.438 14m37.376-27.75q-1.5 0-2.657-1.156T65-17.562q0-1.563 1.156-2.688t2.656-1.125q1.563 0 2.688 1.125t1.125 2.688q0 1.5-1.125 2.656t-2.687 1.156M45.436 57q-1.5 0-2.656-1.156t-1.156-2.656q0-1.563 1.156-2.688 1.157-1.125 2.657-1.125 1.562 0 2.687 1.125t1.125 2.688q0 1.5-1.125 2.656T45.438 57"/><path fill="#902900" fill-opacity=".902" d="M31.438 37.875q-1.5 0-2.657-1.156-1.156-1.156-1.156-2.656 0-1.563 1.156-2.688 1.157-1.125 2.657-1.125 1.562 0 2.687 1.125t1.125 2.688q0 1.5-1.125 2.656t-2.687 1.156m74.25.5q-1.5 0-2.657-1.156-1.156-1.156-1.156-2.656 0-1.563 1.156-2.688t2.656-1.125q1.563 0 2.688 1.125t1.125 2.688q0 1.5-1.125 2.656t-2.687 1.156M68.438 64.75q-1.5 0-2.657-1.156-1.156-1.156-1.156-2.656 0-1.563 1.156-2.688t2.656-1.125q1.563 0 2.688 1.125t1.125 2.688q0 1.5-1.125 2.656t-2.687 1.156m-22.5-70.625q-1.5 0-2.657-1.156-1.156-1.156-1.156-2.656 0-1.563 1.156-2.688 1.157-1.125 2.657-1.125 1.562 0 2.687 1.125t1.125 2.688q0 1.5-1.125 2.656t-2.687 1.156m46.125.5q-1.5 0-2.657-1.156-1.156-1.156-1.156-2.656 0-1.563 1.156-2.688T92.062-13q1.563 0 2.688 1.125t1.125 2.688q0 1.5-1.125 2.656t-2.687 1.156"/><path fill="#9a7312" d="M51.25 42.625q-2-.125-3.875-.875T44.5 39.625q.375.125 1.938-.875t2.812-3.25q1 .5 2.125.875t2.875.375q.125-1.375.063-3.625-.063-2.25-.25-4.312-.188-2.063-.688-3.063-.75-1-2.25-1.75T45 22.375q1.625-.75 3.813-2.25 2.187-1.5 2.437-3.5 1.375 0 2.5.563t2 1.187q1.375-.75 2.063-1.812.687-1.063 1.937-4.188.25.5.5 2t.625 3q1.25-1.25 2-2.437.75-1.188 2.125-3.563l.5 3.5q.875-1.375 2.188-1.937 1.312-.563 2.937-.563 3.375 0 4.75 3.25.625-1 1.188-2.187.562-1.188 1.062-2.438 2.125 3.375 3.875 5.188t4.438 2.75 7.437 1.687l-4.375 5H58.75q.125 1.25.125 2.875v3.875q0 1.625-.125 4.313t-1 4.187-2.5 1.688-3.875.062zm21 6.375q-5.5.5-8.25-2.25t-2.75-6q0-2 1.375-3.312Q64 36.125 66 36.125t3.313 1.313 1.312 3.312q0 2.125-1.375 3.5h.813q.437 0 .937-.125z"/><path fill="#d4af37" d="M51.25 42q-1.625-.125-3.125-.625T45.625 40q.75-.375 1.875-1.312t2-2.313q1 .5 2.25.813t3.125.187Q55 36.125 55 33.75T54.75 29t-.875-3.5-2.062-1.875-5.063-1.5q1.5-.375 3.063-1.812 1.562-1.438 1.937-3.063 1.75.125 3.188 1.313 1.437 1.187 2.187 2.562l.375-.5q-.125-.25-.5-.75t-.625-1.125q1-.625 1.688-1.5t1.562-2.875q.25 1.375.688 3.188.437 1.812 1.187 2.812L62 20l-.437-.875Q61.25 18.5 61.125 18 62.25 16.875 63 15.875t1.625-2.625L65 16q-.5 1-.625 2.125t-.125 2h.5q.25-4.375 1.875-5.75t4-1.375 3.5 1.625 1.625 5.5h.5q0-1-.187-1.812-.188-.813-.438-1.813.625-1 1.125-2t1-2.125q1.875 2.875 3.625 4.563t4.188 2.562 6.562 1.625L88.75 25H58q.25 1.375.25 3.188v4.187q0 1.75-.125 4.313T57.25 40.5t-2.187 1.438T51.5 42zm19.5-23.5q.5 0 .5-.5t-.5-.5-.5.5.5.5m1.375 29.875q-5.125.5-7.687-2.062-2.563-2.563-2.563-5.563 0-1.75 1.188-2.875T66 36.75t2.875 1.125T70 40.75q0 2.5-2.125 3.625 1.375.75 3.5.25z"/></svg>