<?xml version='1.0' encoding='ASCII'?>
<svg xmlns="http://www.w3.org/2000/svg" width="38" height="52" preserveAspectRatio="xMinYMin slice" viewBox="4 -4 38 52" version="1.1">
  <path d="M4,-4 v52 h38 v-52 Z" fill="#FFFAED" transform="matrix(1,0,0,-1,0,44)"/>
  <path d="M29.25,-1.25 q-2.625,-0.125 -6.3125,0.375 q-3.6875,0.5 -7.25,2.0625 q-3.5625,1.5625 -5.9375,4.5 q-2.375,2.9375 -2.375,7.5625 q0,5.375 2.875,8.9375 q2.875,3.5625 7.375,5.625 q4.5,2.0625 9.375,2.9375 q-0.125,0.625 -0.25,1.0625 q-0.125,0.4375 -0.375,0.9375 q-0.25,1.125 -0.0625,2.5 q0.1875,1.375 1.4375,2.25 q1.875,1.375 3.75,3.4375 q1.875,2.0625 4.25,4.4375 q1.375,1.375 2.5625,1.75 q1.1875,0.375 2.3125,-2.125 q0.875,-2 1.3125,-6.1875 q0.4375,-4.1875 0.5625,-9.3125 q0.125,-5.125 0.0625,-9.875 q-0.0625,-4.75 -0.1875,-7.875 q0,-1.125 0,-1.9375 q0,-0.8125 0,-1.3125 q-0.125,-4.125 -2.0625,-6.125 q-1.9375,-2 -4.875,-2.6875 q-2.9375,-0.6875 -6.1875,-0.9375 Z" fill="#9A7312" transform="matrix(1,0,0,-1,-1,44)"/>
  <path d="M29.125,0 q-2.625,-0.125 -6.0625,0.3125 q-3.4375,0.4375 -6.75,1.875 q-3.3125,1.4375 -5.5,4.125 q-2.1875,2.6875 -2.1875,6.9375 q0,5.125 2.875,8.5 q2.875,3.375 7.375,5.3125 q4.5,1.9375 9.5,2.6875 q-0.125,1 -0.3125,1.8125 q-0.1875,0.8125 -0.4375,1.5625 q-0.25,0.875 -0.125,1.8125 q0.125,0.9375 1,1.5625 q2,1.5 3.875,3.5625 q1.875,2.0625 4.25,4.4375 q0.125,0.125 0.375,0.5 q0.625,0.625 1.1875,0.875 q0.5625,0.25 1.3125,-1.375 q0.875,-1.875 1.25,-6 q0.375,-4.125 0.5,-9.125 q0.125,-5 0.0625,-9.6875 q-0.0625,-4.6875 -0.1875,-7.9375 q0,-1.125 0,-1.9375 q0,-0.8125 0,-1.3125 q-0.125,-3.625 -1.8125,-5.3125 q-1.6875,-1.6875 -4.3125,-2.3125 q-2.625,-0.625 -5.875,-0.875 Z M29.5,15.25 q1,0 1,1 q0,1 -1,1 q-1,0 -1,-1 q0,-1 1,-1 Z" fill="#D4AF37" transform="matrix(1,0,0,-1,-1,44)"/>
</svg>
