<svg xmlns="http://www.w3.org/2000/svg" width="586" height="75" preserveAspectRatio="xMinYMin slice" viewBox="-2 -23 586 75"><path d="M-2 52v-75h586v75Z"/><path fill="#d3d3d3" d="M19.688 49.813q-5.688 0-9.594-2.094t-5.156-5.782q-1-3.124-.344-7.25.656-4.124 2.218-9.062-1.375-2-3.468-3.75T-.75 18.063q-.375-.438-.25-.97.125-.53.562-.78Q.75 15.5 1.656 14.656t2.094-2.78q.25-.376.594-.282T5 12q.688.688 1.531 1.469.844.781 1.719 1.719-.062-.875-.187-1.813-.063-.812.624-1.25Q10.5 10.938 11.5 9.938t2.25-3.125q.438-.688.719-.563t.344.875q.312 4.125.468 7.156.157 3.032.22 4.97.062 1 .25 1.937.187.937.75.937V29H11q-1.063 4.313-.126 7.219.938 2.906 3.344 4.656T20 43.281q3.375.657 7.313.375 3.937-.28 7.937-1.406.5-.125.781.063.282.187-.218.937-1.25 1.75-3.188 3.25-1.937 1.5-5.031 2.406t-7.906.907"/><path fill="#d3d3d3" d="M14.5 26.188v-9.813h1.188q.062 2.313 1.03 3.25.97.938 1.844 1.25v5.313z"/><path fill="#d3d3d3" d="M28.5 29.5q-1.312 0-2.719-.125T23 29h-8.25v-6.875h2.188q-.063-5 1.75-8.344T23.25 8.75t5.563-1.687 5.156 1.843 3.875 5.22q1.53 3.374 1.843 8h.063V29h-4.437q-1.688.438-3.532.469-1.843.031-3.28.031Zm.625-10.937q.75 0 .75-.813 0-.312-.219-.531T29.125 17q-.812 0-.812.75 0 .813.812.813"/><path fill="#d3d3d3" d="M38.5 26.188v-8.25h1.125q.375 1.187 1.156 1.906T42 20.75v5.437z"/><path fill="#d3d3d3" d="M38.75 29v-6.875h3.375q-.312-1-.625-2.031l-.5-1.656q-.187-.625 0-.907.188-.28.688-.53 1.25-.563 2.03-1.5.782-.938 1.782-2.626.312-.562.656-.562t.531.687q.75 3.063 1.47 4.313.718 1.25 1.53 1.937-.812-1.812-.937-2.5-.063-.375.062-.5t.375-.312q.063-.063.125-.063 1.25-.625 2.156-1.719.907-1.093 1.844-3.656.125-.437.531-.5.407-.062.532.438.562 1.812 1.437 3.656t1.813 3.469q-.063-1.313-.094-2.5t-.094-2.125q-.062-1.063.75-1.438 1-.5 1.875-1.531t1.531-2.125.97-1.719q.437-.875.905-.875.47 0 .594 1.063.313 1.75.438 4.03.125 2.282.218 4.595.094 2.312.157 4.25.062 1.062.25 2 .187.937.75.937V29z"/><path fill="#d3d3d3" d="M63.5 26.188v-9.813h1.188q.062 2.313 1.03 3.25.97.938 1.844 1.25v5.313z"/><path fill="#d3d3d3" d="M63.75 29v-6.875h2.375q-.062-4.062-.281-8.875t-.5-9.969-.594-10.156q0-.125-.062-.375-.063-.375-.032-.875t.594-1q.563-.437 1.438-1.219.875-.781 1.687-1.656t1.188-1.562q.5-.876 1-.657.5.22.562 1.281.313 6.126.594 12.376t.562 11.968.407 10.344q.125 3.375-.563 4.875t-2.187 1.906-3.813.47zm1.438 0v-6.875h7.5V29z"/><path fill="#d3d3d3" d="M71.5 26.188v-9.813h1.188q.062 2.313 1.03 3.25.97.938 1.844 1.25v5.313z"/><path fill="#d3d3d3" d="M71.75 29v-6.875h2.375q-.062-3-.219-7.437-.156-4.438-.406-9.438T73-4.562t-.5-8.563q0-.125-.062-.375-.063-.375-.032-.875t.594-1q.563-.437 1.438-1.219.875-.781 1.687-1.656t1.188-1.562q.5-.875 1-.657.5.22.562 1.282.188 3.687.375 8.062.188 4.375.406 9 .22 4.625.406 9.031.188 4.406.376 8.25.187 3.844.25 6.594.124 3.375-.563 4.875t-2.187 1.906-3.813.469zm38.642-3.41q-.613-.124-.488-.737.062-.306.344-.44 1.559-.767 2.978-1.787 1.418-1.019 2.795-2.142.233-.208.54-.146.612.124.487.737-.05.245-.197.343-2.863 2.48-6.067 4.124-.147.098-.392.048m-3.875-4.875q-.613-.124-.488-.737.062-.306.344-.44 1.559-.767 2.978-1.787 1.418-1.019 2.795-2.142.233-.208.54-.146.612.125.487.737-.05.245-.197.343-2.863 2.48-6.067 4.124-.147.098-.392.048m1.937 2.438q-.612-.125-.488-.737.062-.306.345-.44 1.558-.768 2.977-1.787 1.419-1.02 2.795-2.143.234-.208.54-.145.612.124.488.737-.05.244-.197.342-2.863 2.48-6.067 4.125-.148.098-.393.048M146.063 29q-2.313 0-3.157-.906T142 25.563q-.125-4.313-.187-9.188-.063-4.875-.157-9.656-.093-4.781-.25-8.906-.156-4.125-.406-6.938 0-.25-.031-.437-.031-.188-.031-.375-.25-2.625-.219-3.656t.781-1.532q1.25-.75 2.344-2.03 1.094-1.282 2.094-2.97.312-.5.812-.437.5.062.5 1 0 3 .063 6.781.062 3.781.125 7.781.062 4 .156 7.688t.156 6.53q.063 2.845.125 4.345.188 3.5.313 5.375t.343 2.53.594.657V29z"/><path fill="#d3d3d3" d="M146.5 29V15.75h1.188q0 1.563.656 3.063t1.719 2.437 2.25.875V29z"/><path fill="#d3d3d3" d="M162.875 29.5q-3.687-.125-6.906-1.281t-5.156-3.969q-1.625-2.375-1.875-4.625t.437-4.219 1.875-3.594q1.125-1.5 2.938-2.843 1.812-1.344 3.968-2.344 2.157-1 4.22-1.563-.063-.187-.063-.312-.063-.313.062-.656t.5-.532Q164 3.062 165.313 2q1.312-1.063 1.812-2.375.313-.688.906-.625.594.062.72.625.124.312.25 1.937.124 1.625.312 4 .187 2.375.375 4.97.187 2.593.28 4.905.095 2.313.157 3.75.063 1.063.25 2 .188.938.75.938V29h-5q-1.562.562-3.25.5m-.562-8.687q.312.062.562-.188t.25-.562q0-.688-.687-.813-.313 0-.594.219t-.281.531q0 .813.75.813M162 14q.313.063.531-.187t.281-.563q0-.687-.75-.812-.812 0-.812.75-.063.312.187.562T162 14m-15.25 15v-6.875h15V29zm24.36-21.396q-.617.097-.715-.52-.048-.308.17-.533 1.191-1.264 2.164-2.715.972-1.452 1.868-2.986.146-.276.455-.325.617-.098.715.52.039.247-.065.39-1.815 3.324-4.24 5.987-.104.143-.351.182Z"/><path fill="#d3d3d3" d="M168.5 26.188v-9.813h1.188q.062 2.313 1.03 3.25.97.938 1.845 1.25v5.313z"/><path fill="#d3d3d3" d="M168.75 29v-6.875h2.563q0-3-.125-6.281t-.375-5.656q-.125-1 .937-1.688.875-.625 2-1.969 1.125-1.343 1.625-2.718.25-.626.844-.626t.656.876q.438 3.25.625 7.375.188 4.124.313 7.75.062 1.062.25 2 .187.937.75.937V29z"/><path fill="#d3d3d3" d="M176.5 26.188v-9.813h1.188q.062 2.313 1.03 3.25.97.938 1.845 1.25v5.313z"/><path fill="#d3d3d3" d="M195.313 29.625h-1.75q-4.063-.062-8.407-.344T176.75 29v-6.875h2.375q-.062-.375-.062-.812.062-2.75 1.156-5.532 1.094-2.78 3-5.094 1.906-2.312 4.406-3.687t5.313-1.375q2.375 0 4.5 1.531t3.718 4.063q1.594 2.53 2.5 5.53t.906 6q0 1.876-.75 3.438t-2.75 2.5-5.75.938m-1-11.125q.75 0 .75-.812 0-.313-.22-.532-.218-.218-.53-.218-.813 0-.813.75 0 .812.813.812m40.08 7.09q-.613-.124-.488-.737.062-.306.344-.44 1.559-.767 2.978-1.787 1.419-1.019 2.795-2.142.233-.208.54-.146.612.124.488.737-.05.245-.198.343-2.863 2.48-6.067 4.124-.147.098-.392.048m-3.875-4.875q-.613-.124-.488-.737.062-.306.344-.44 1.559-.767 2.978-1.787 1.418-1.019 2.795-2.142.233-.208.54-.146.612.125.488.737-.05.245-.198.343-2.863 2.48-6.067 4.124-.147.098-.392.048m1.937 2.438q-.612-.125-.488-.737.062-.306.345-.44 1.559-.768 2.977-1.787 1.419-1.02 2.795-2.143.234-.208.54-.145.612.124.488.737-.05.244-.197.342-2.863 2.48-6.067 4.125-.148.098-.393.048M270.063 29q-2.313 0-3.157-.906T266 25.563q-.125-4.313-.187-9.188-.063-4.875-.157-9.656-.093-4.781-.25-8.906-.156-4.125-.406-6.938 0-.25-.031-.437-.031-.188-.031-.375-.25-2.625-.219-3.656t.781-1.532q1.25-.75 2.344-2.03 1.094-1.282 2.094-2.97.312-.5.812-.437.5.062.5 1 0 3 .063 6.781.062 3.781.125 7.781.062 4 .156 7.688t.156 6.53q.063 2.845.125 4.345.188 3.5.313 5.375t.343 2.53.594.657V29zM274 35.688q-.625 0-.625-.626 0-.312.25-.5Q275 33.5 276.188 32.22q1.187-1.282 2.312-2.657.188-.25.5-.25.625 0 .625.625 0 .25-.125.375-2.312 3-5.125 5.25-.125.126-.375.126"/><path fill="#d3d3d3" d="M270.5 26.188v-9.813h1.188q.062 2.313 1.03 3.25.97.938 1.844 1.25v5.313z"/><path fill="#d3d3d3" d="M270.75 29v-6.875h2.563q-.063-3-.188-5.062t-.25-3.5q-.062-.5.094-.782.156-.28.781-.594 1.313-.75 2-1.874.688-1.126 2.125-3.25.313-.375.781-.313.469.063.531.938.188 2.437.375 5.156.188 2.719.25 6.344.063 1.062.25 2 .188.937.75.937V29zM282 35.688q-.625 0-.625-.626 0-.312.25-.5Q283 33.5 284.188 32.22q1.187-1.282 2.312-2.657.188-.25.5-.25.625 0 .625.625 0 .25-.125.375-2.312 3-5.125 5.25-.125.126-.375.126"/><path fill="#d3d3d3" d="M278.5 26.188v-9.813h1.188q.062 2.313 1.03 3.25.97.938 1.844 1.25v5.313z"/><path fill="#d3d3d3" d="M278.75 29v-6.875h2.563q-.063-1.5-.125-3.594-.063-2.094-.157-4.344T280.812 10t-.25-3.125q-.125-1.063.938-1.375.625-.188 1.344-1t1.344-1.875.875-1.938q.187-.625.843-.625.657 0 .72.875.187 1.625.374 3.97.188 2.343.344 4.968t.281 5.062.188 4.25q.062 1.063.25 2 .187.938.75.938V29z"/><path fill="#d3d3d3" d="M286.5 26.188v-9.813h1.188q.062 2.313 1.03 3.25.97.938 1.844 1.25v5.313z"/><path fill="#d3d3d3" d="M303.063 29.125 286.75 29v-6.875h3.438q-.25-.5-.625-1.812T289 18.438q-.187-.625 0-.907.188-.28.688-.53 1.25-.563 1.968-1.532.72-.969 1.72-2.656.312-.563.843-.563t.656.688q.688 3.25 1.188 5t1.562 2.312q-.375-.875-.656-1.875t-.344-1.875q0-.437.281-.687t.594-.438q1.25-.625 2.156-1.562T301.312 11q.188-.437.563-.5.375-.062.5.438.563 1.562.906 3.406t.781 3.437 1.125 2.407q-.125-1-.312-2.344-.188-1.344-.375-2.563-.188-1.218-.313-1.718t.032-.75.468-.438q.188-.125.25-.187 1-.688 2.032-1.97 1.03-1.28 1.406-2.78.187-.75.656-.844t.656.78q.25 1.188.594 3.376t.688 4.719q.343 2.53.53 4.937.188 2.406.126 4.094-.063 1.188-.781 2.281-.72 1.094-2.563 1.719t-5.219.625Zm38.329-3.535q-.613-.124-.488-.737.062-.306.344-.44 1.559-.767 2.978-1.787 1.419-1.019 2.795-2.142.233-.208.54-.146.612.124.488.737-.05.245-.198.343-2.863 2.48-6.067 4.124-.147.098-.392.048m-3.875-4.875q-.613-.124-.488-.737.062-.306.344-.44 1.559-.767 2.978-1.787 1.419-1.019 2.795-2.142.233-.208.54-.146.612.125.488.737-.05.245-.198.343-2.863 2.48-6.067 4.124-.147.098-.392.048m1.937 2.438q-.612-.125-.488-.737.062-.306.345-.44 1.559-.768 2.977-1.787 1.419-1.02 2.795-2.143.234-.208.54-.145.612.124.488.737-.05.244-.197.342-2.863 2.48-6.067 4.125-.148.098-.393.048m44.234 6.16q-3.813-.063-6.438-.407t-3.625-1.156q-.687-.5-.625-1t.813-.5q.375 0 .718-.219.344-.218.594-.468.563-.563 1.406-1.657.844-1.093 1.531-2.218.688-1.063 2.188-.188.688.375 2.125.563t3.063.312q.437 0 1 .031t1.218.063q.656.03 1.438.062.781.031 1.656.063l1.844.062q.969.031 2.031.031t2.188.032 2.28.03h2.407q1.25 0 2.5-.03 1.25-.032 2.562-.063l2.657-.062q1.343-.032 2.687-.094 1.344-.063 2.688-.156 1.343-.094 2.656-.157 1.375-.125 1.625-.343.25-.22.125-.594-.063-.125-.219-.25t-.656-.063q-.75.063-1.656.125-.907.063-1.97.125-1.062.063-2.218.125-1.156.063-2.406.094l-2.563.063-2.656.062q-1.344.031-2.75.031h-2.781q-1.375 0-2.719-.03-1.344-.032-2.656-.032t-2.563-.063-2.375-.125-2.156-.125-1.937-.156-1.656-.219q-1.563-.187-2.157-.687t.031-1.375q2.125-2.813 4.188-5.656 2.063-2.844 3.813-5.782.312-.5.718-.312.406.187.156.75l-.78 1.75q-.532 1.187-1.032 2.344t-.75 1.781q.875.062 1.844.156t2 .156q1.031.063 2.156.094l2.281.063q1.156.03 2.375.03h7.594q1.313 0 2.625-.03l2.594-.063 2.562-.062 2.563-.063 2.5-.062q1.219-.032 2.375-.094 1.156-.063 2.281-.063 1.125-.062 1.531.47.406.53.97 1.843.75 1.687 1.655 4.062.906 2.375.97 5.438.062 1.25-1.032 2.125t-2.219 1q-1.375.125-2.781.219t-2.781.156l-2.75.125q-1.375.062-2.75.094-1.375.031-2.72.094-1.343.062-2.718.062t-2.719.031-2.719.031h-8.188q-1.374 0-2.75-.03-1.374-.032-2.75-.032-1.374 0-2.78-.031t-2.781-.031m19.437.125 21.25-7.313h3.313V29q-5.563.188-11.844.313t-12.72.125M433 31.688q-.625 0-.625-.625 0-.313.25-.5 1.375-1.063 2.563-2.344 1.187-1.282 2.312-2.657.188-.25.5-.25.625 0 .625.625 0 .25-.125.375-2.312 3-5.125 5.25-.125.125-.375.125"/><path fill="#d3d3d3" d="M425.75 29v-6.875h2.438q-.063-2.625-.094-4.25t-.156-3.187q0-.188-.063-.626-.062-1.124 0-1.843.063-.72.625-1.094 2.813-1.875 4.813-4.938.312-.5.593-.406t.281.531q0 4.688.438 9.094t.5 9.094q.063 1.625-1.375 3.063Q432.313 29 430.5 29zm38.642-3.41q-.613-.124-.488-.737.062-.306.344-.44 1.559-.767 2.978-1.787 1.419-1.019 2.795-2.142.233-.208.54-.146.612.124.488.737-.05.245-.198.343-2.863 2.48-6.067 4.124-.147.098-.392.048m-3.875-4.875q-.613-.124-.488-.737.062-.306.344-.44 1.559-.767 2.978-1.787 1.419-1.019 2.795-2.142.233-.208.54-.146.612.125.488.737-.05.245-.198.343-2.863 2.48-6.067 4.124-.147.098-.392.048m1.937 2.438q-.612-.125-.488-.737.062-.306.345-.44 1.559-.768 2.977-1.787 1.419-1.02 2.795-2.143.234-.208.54-.145.612.124.488.737-.05.244-.197.342-2.863 2.48-6.067 4.125-.148.098-.393.048M500.063 29q-2.313 0-3.157-.906T496 25.563q-.125-4.313-.187-9.188-.063-4.875-.157-9.656-.093-4.781-.25-8.906-.156-4.125-.406-6.938 0-.25-.031-.437-.031-.188-.031-.375-.25-2.625-.219-3.656t.781-1.532q1.25-.75 2.344-2.03 1.094-1.282 2.094-2.97.312-.5.812-.437.5.062.5 1 0 3 .063 6.781.062 3.781.125 7.781.062 4 .156 7.688t.156 6.53q.063 2.845.125 4.345.188 3.5.313 5.375t.343 2.53.594.657V29z"/><path fill="#d3d3d3" d="M500.5 26.188v-9.813h1.188q.062 2.313 1.03 3.25.97.938 1.844 1.25v5.313z"/><path fill="#d3d3d3" d="M519.313 29.625h-1.75q-4.063-.062-8.407-.344T500.75 29v-6.875h2.375q-.062-.375-.062-.812.062-2.75 1.156-5.532 1.094-2.78 3-5.094 1.906-2.312 4.406-3.687t5.313-1.375q2.375 0 4.5 1.531t3.718 4.063q1.594 2.53 2.5 5.53.907 3 .907 6 0 1.876-.75 3.438t-2.75 2.5-5.75.938m-1-11.125q.75 0 .75-.812 0-.313-.22-.532-.218-.218-.53-.218-.813 0-.813.75 0 .812.813.812"/><path fill="#d3d3d3" d="M534.5 29q-3 0-4.469-1.875t-1.594-7.25q-.062-1.75-.093-4.5-.032-2.75-.063-6.031t-.125-6.688-.25-6.469-.344-5.312q0-.25-.03-.437-.032-.188-.032-.376-.25-2.624-.219-3.656.031-1.03.781-1.53 1.25-.75 2.344-2.032 1.094-1.281 2.094-2.969.312-.5.812-.437.5.062.5 1 0 3 .063 6.78Q533.937-9 534.03-5t.188 7.687.156 6.532.125 4.343q.187 3.5.312 5.375t.313 2.532.562.656V29z"/><path fill="#d3d3d3" d="m534.375 29-.875-14.625h1.125q.063 2.438 1.063 4.094T538.125 21t2.813 1.125V29z"/><path fill="#d3d3d3" d="M536.75 29v-6.875h4.375q-1.75-1.687-2.375-3.969t.813-3.781q.625-.688 1.875-1.906 1.25-1.219 2.656-2.594t2.53-2.438 1.5-1.437q.688-.688 1.032-.25t-.156 1q-.375.437-1.031 1.406-.657.969-1.313 1.969t-.969 1.562q-.875 1.5.5 3.25t4.47 3.344T558 20.937q4.125 1.063 7.344 1.407 3.219.343 6.406.28 3.188-.062 7.25-.25.313 0 .656-.03.344-.032.656-.032.813-.062.813.313t-.375.688q-1.188.875-2.656 2.375-1.47 1.5-2.532 2.25-.312.25-.625.406-.312.156-.625.156-5.625.187-10.125.312T555.5 29t-8.687.062T536.75 29"/></svg>