<?xml version='1.0' encoding='ASCII'?>
<svg xmlns="http://www.w3.org/2000/svg" width="471" height="71" preserveAspectRatio="xMinYMin slice" viewBox="-2 -19 471 71" version="1.1">
  <path d="M-2,-19 v71 h471 v-71 Z" fill="#FFFAED" transform="matrix(1,0,0,-1,0,33)"/>
  <path d="M14.25,-7.5625 q-4.1875,-0.0625 -7.875,0.9688 q-3.6875,1.0312 -5.6875,2.3438 q-0.75,0.5 -0.6562,0.9375 q0.0938,0.4375 0.7188,0.6875 q1.4375,0.5 2.6562,1.8438 q1.2188,1.3438 2.1562,2.5312 q0.375,0.5 1.125,0.0625 q1.75,-0.9375 4.375,-1.5938 q2.625,-0.6562 5.1562,-0.9375 q2.5312,-0.2812 3.9688,-0.0938 q0.5,0.0625 0.4062,0.4688 q-0.0938,0.4062 -0.4688,0.4062 q-1.5,-0.0625 -3.5,0.1562 q-2,0.2188 -3.9375,0.7188 q-1.9375,0.5 -3.375,1.25 q-0.6875,0.375 -0.5938,0.9062 q0.0938,0.5312 0.4688,0.8438 q0.875,0.875 2.125,2.1562 q1.25,1.2812 2.5312,2.6875 q1.2812,1.4062 2.375,2.5938 q1.0938,1.1875 1.7188,1.8125 q0.25,0.25 0.4062,0.4062 q0.1562,0.1562 0.4062,0.1562 q0.3125,0 0.9375,-0.4375 q2.0625,-1.375 4,-3.7188 q1.9375,-2.3438 3.25,-5.125 q1.3125,-2.7812 1.375,-5.5312 q0.0625,-1.6875 -0.625,-3.3438 q-0.6875,-1.6562 -3.125,-2.3438 q-2.0625,-0.625 -4.7188,-0.6875 q-2.6562,-0.0625 -5.5938,-0.125 Z" fill="#000000" transform="matrix(1,0,0,-1,-1,33)"/>
  <path d="M13.375,-0.3125 q-3.6875,-0.0625 -6.9688,0.9375 q-3.2812,1 -5.3438,3.6875 q-1.75,2.3125 -2.125,4.5 q-0.375,2.1875 0.2188,4.2188 q0.5938,2.0312 1.6562,3.7188 q1.4375,2.1875 4.1875,4 q2.75,1.8125 5.5625,2.9375 q-0.1875,0.5625 -0.375,0.875 q-0.1875,0.5625 0.5625,0.9375 q1.125,0.5625 2.375,1.6875 q1.25,1.125 1.6875,2.5 q0.25,0.6875 0.8438,0.6562 q0.5938,-0.0312 0.7812,-0.5938 q0.125,-0.375 0.5625,-2.2812 q0.4375,-1.9062 0.9688,-4.6562 q0.5312,-2.75 1.0625,-5.875 q0.5312,-3.125 0.9375,-6.0312 q0.4062,-2.9062 0.4688,-5.0312 q0.125,-2.75 -1.625,-4.4375 q-1.75,-1.6875 -5.4375,-1.75 Z M11.0625,15.0625 q0.75,0 0.75,0.8125 q0,0.3125 -0.2188,0.5312 q-0.2188,0.2188 -0.5312,0.2188 q-0.8125,0 -0.8125,-0.75 q0,-0.8125 0.8125,-0.8125 Z M12.375,8.3125 q0.75,0 0.75,0.8125 q0,0.3125 -0.2188,0.5312 q-0.2188,0.2188 -0.5312,0.2188 q-0.8125,0 -0.8125,-0.75 q0,-0.8125 0.8125,-0.8125 Z" fill="#000000" transform="matrix(1,0,0,-1,24,33)"/>
  <path d="M4.0625,0 q-2.3125,0 -3.1562,0.9062 q-0.8438,0.9062 -0.9062,2.5312 q-0.0625,1.75 -0.1875,4.625 q-0.125,2.875 -0.3125,6.4062 q-0.1875,3.5312 -0.375,7.3438 q-0.1875,3.8125 -0.4062,7.4375 q-0.2188,3.625 -0.4062,6.625 q0,0.125 -0.0625,0.3125 q-0.0625,0.4375 -0.0312,0.9375 q0.0312,0.5 0.6562,1 q0.5625,0.4375 1.4375,1.2188 q0.875,0.7812 1.6562,1.6562 q0.7812,0.875 1.1562,1.5625 q0.5,0.875 1,0.6562 q0.5,-0.2188 0.5625,-1.2812 q0.3125,-7.5625 0.75,-15.875 q0.4375,-8.3125 0.75,-16.25 q0.0625,-1.0625 0.2188,-2 q0.1562,-0.9375 0.7188,-0.9375 v-6.875 h-3.0625 Z" fill="#000000" transform="matrix(1,0,0,-1,69,33)"/>
  <path d="M1,0.8125 q-0.625,0 -0.625,0.625 q0,0.3125 0.25,0.5 q1.375,1.0625 2.5625,2.3438 q1.1875,1.2812 2.3125,2.6562 q0.1875,0.25 0.5,0.25 q0.625,0 0.625,-0.625 q0,-0.25 -0.125,-0.375 q-2.3125,-3 -5.125,-5.25 q-0.125,-0.125 -0.375,-0.125 Z" fill="#000000" transform="matrix(1,0,0,-1,94,18)"/>
  <path d="M-1.5,2.8125 v9.8125 h1.1875 q0.0625,-2.3125 1.0312,-3.25 q0.9688,-0.9375 1.8438,-1.25 v-5.3125 h-4.0625 Z" fill="#000000" transform="matrix(1,0,0,-1,75,33)"/>
  <path d="M-1.25,0 v6.875 l6.375,-0.125 q0.4375,0 1,-0.0312 q0.5625,-0.0312 1.2188,-0.0312 q0.6562,0 1.4375,-0.0312 q0.7812,-0.0312 1.6562,-0.0625 q0.875,-0.0312 1.8438,-0.0625 q0.9688,-0.0312 2.0312,-0.0312 q1.0625,0 2.1875,-0.0312 q1.125,-0.0312 2.2812,-0.0312 q1.1562,0 2.4062,-0.0312 q1.25,-0.0312 2.5,0 q1.25,0.0312 2.5625,0.0312 q1.3125,0 2.6562,0.0625 q1.3438,0.0625 2.6875,0.0938 q1.3438,0.0312 2.6875,0.125 q1.3438,0.0938 2.6562,0.1562 q1.375,0.125 1.625,0.3438 q0.25,0.2188 0.125,0.5938 q-0.0625,0.125 -0.2188,0.25 q-0.1562,0.125 -0.6562,0.0625 q-1.0625,-0.0625 -2.125,-0.1562 q-1.0625,-0.0938 -2.125,-0.1562 q-1.0625,-0.0625 -2.125,-0.125 q-1.0625,-0.0625 -2.1562,-0.0938 q-1.0938,-0.0312 -2.1562,-0.0625 q-1.0625,-0.0312 -2.1562,-0.0312 q-1.0938,0 -2.1562,0 q-1.0625,0 -2.1875,0 q-1.125,0 -2.2188,0 q-1.0938,0 -2.2188,0.0312 q-1.125,0.0312 -2.25,0.0312 q-1.125,0 -2.2812,0.0312 q-1.1562,0.0312 -2.3125,0.0625 q-1.1562,0.0312 -2.3125,0.0625 q-1.1562,0.0312 -2.3438,0.0938 l2.5,2.9375 v-5.375 l-6.0625,0.125 q-0.0625,3.5 -0.2188,8.2188 q-0.1562,4.7188 -0.4062,9.8438 q-0.25,5.125 -0.5,9.9688 q-0.25,4.8438 -0.5,8.5938 q-0.0625,0.5 -0.125,1.0625 q-0.0625,0.5625 0.625,1.1875 q0.5625,0.5 1.4375,1.25 q0.875,0.75 1.6875,1.625 q0.8125,0.875 1.1875,1.5625 q0.5,0.875 1,0.6562 q0.5,-0.2188 0.5625,-1.2812 q0.0625,-1.6875 0.2188,-4.8125 q0.1562,-3.125 0.3125,-6.9375 q0.1562,-3.8125 0.3125,-7.625 q0.1562,-3.8125 0.25,-6.9375 q0.0938,-3.125 0.0938,-4.8125 q0,-0.875 0.25,-1.0938 q0.25,-0.2188 1.1875,-0.3438 q1,-0.0625 2.0625,-0.125 q1.0625,-0.0625 2.1562,-0.125 q1.0938,-0.0625 2.1875,-0.0938 q1.0938,-0.0312 2.2188,-0.0625 q1.125,-0.0312 2.2812,-0.0625 q1.1562,-0.0312 2.3125,-0.0312 q1.1562,0 2.3438,0 q1.1875,0 2.375,0 q1.1875,0 2.3438,0 q1.1562,0 2.3438,0 q1.1875,0 2.375,0.0312 q1.1875,0.0312 2.3438,0.0625 q1.1562,0.0312 2.3125,0.0625 q1.1562,0.0312 2.2812,0.0625 q1.125,0.0312 2.25,0.0312 q1.125,0.0625 1.5312,-0.4688 q0.4062,-0.5312 0.9688,-1.8438 q0.75,-1.6875 1.6562,-4.0625 q0.9062,-2.375 0.9688,-5.4375 q0.0625,-1.25 -1.0312,-2.125 q-1.0938,-0.875 -2.2188,-1 q-1.375,-0.125 -2.8125,-0.2188 q-1.4375,-0.0938 -2.8438,-0.1562 q-1.4062,-0.0625 -2.8438,-0.125 q-1.4375,-0.0625 -2.875,-0.0938 q-1.4375,-0.0312 -2.9062,-0.0625 q-1.4688,-0.0312 -2.9688,-0.0312 q-1.5,0 -3,0 q-1.5,0 -3.0312,0 q-1.5312,0 -3.0625,0 q-1.5312,0 -3.125,0.0312 q-1.5938,0.0312 -3.1875,0.0312 q-1.5938,0 -3.1875,0.0312 q-1.5938,0.0312 -3.25,0.0625 q-1.6562,0.0312 -3.3438,0.0625 q-1.6875,0.0312 -3.375,0.0312 Z" fill="#000000" transform="matrix(1,0,0,-1,75,33)"/>
  <path d="" fill="#000000" transform="matrix(1,0,0,-1,123,33)"/>
  <path d="M4.3917,3.4097 q-0.6125,0.1244 -0.4881,0.7369 q0.0622,0.3062 0.3445,0.4402 q1.5589,0.7676 2.9777,1.7868 q1.4187,1.0192 2.7949,2.1428 q0.2335,0.2077 0.5397,0.1455 q0.6125,-0.1244 0.4881,-0.7369 q-0.0498,-0.245 -0.1971,-0.3426 q-2.8633,-2.4797 -6.0673,-4.1248 q-0.1474,-0.0976 -0.3924,-0.0479 Z M0.5167,8.2847 q-0.6125,0.1244 -0.4881,0.7369 q0.0622,0.3062 0.3445,0.4402 q1.5589,0.7676 2.9777,1.7868 q1.4187,1.0192 2.7949,2.1428 q0.2335,0.2077 0.5397,0.1455 q0.6125,-0.1244 0.4881,-0.7369 q-0.0498,-0.245 -0.1971,-0.3426 q-2.8633,-2.4797 -6.0673,-4.1248 q-0.1474,-0.0976 -0.3924,-0.0479 Z M2.4542,5.8472 q-0.6125,0.1244 -0.4881,0.7369 q0.0622,0.3062 0.3445,0.4402 q1.5589,0.7676 2.9777,1.7868 q1.4187,1.0192 2.7949,2.1428 q0.2335,0.2077 0.5397,0.1455 q0.6125,-0.1244 0.4881,-0.7369 q-0.0498,-0.245 -0.1971,-0.3426 q-2.8633,-2.4797 -6.0673,-4.1248 q-0.1474,-0.0976 -0.3924,-0.0479 Z" fill="#000000" transform="matrix(1,0,0,-1,148,33)"/>
  <path d="" fill="#000000" transform="matrix(1,0,0,-1,159,33)"/>
  <path d="M9.9375,-15.1875 q-2.125,-1.25 -4.8438,-1.6562 q-2.7188,-0.4062 -5.5938,0.0625 q-2.875,0.4688 -5.5,1.7812 q-0.625,0.3125 -0.4688,0.8438 q0.1562,0.5312 0.7812,0.9688 q1.375,0.875 2.4375,2.1875 q1.0625,1.3125 2.1875,2.6875 q0.25,0.3125 0.6562,0.2812 q0.4062,-0.0312 0.7812,-0.1562 q0.0625,0 0.0625,0 q1.25,-0.4375 2.6875,-0.5938 q1.4375,-0.1562 3,0.0938 q-0.25,5.75 -0.5938,12.0312 q-0.3438,6.2812 -0.6875,12.375 q-0.3438,6.0938 -0.6875,11.3125 q-0.3438,5.2188 -0.6562,8.8438 q0,0.125 -0.0625,0.375 q-0.0625,0.375 -0.0312,0.875 q0.0312,0.5 0.5938,1 q0.5625,0.4375 1.4375,1.2188 q0.875,0.7812 1.6875,1.6562 q0.8125,0.875 1.1875,1.5625 q0.5,0.875 1,0.6562 q0.5,-0.2188 0.5625,-1.2812 q0.5,-9.1875 0.7188,-18.7812 q0.2188,-9.5938 0.4688,-18.2812 q0.0625,-3.125 0.3125,-7.7188 q0.25,-4.5938 0.25,-9.5312 q0,-1.125 -0.4688,-1.75 q-0.4688,-0.625 -1.2188,-1.0625 Z M7.375,0 v6.875 h4.4998 v-6.875 h-4.4998 Z" fill="#000000" transform="matrix(1,0,0,-1,184,33)"/>
  <path d="M1,0.8125 q-0.625,0 -0.625,0.625 q0,0.3125 0.25,0.5 q1.375,1.0625 2.5625,2.3438 q1.1875,1.2812 2.3125,2.6562 q0.1875,0.25 0.5,0.25 q0.625,0 0.625,-0.625 q0,-0.25 -0.125,-0.375 q-2.3125,-3 -5.125,-5.25 q-0.125,-0.125 -0.375,-0.125 Z" fill="#000000" transform="matrix(1,0,0,-1,214,18)"/>
  <path d="M-1.5,2.8125 v9.8125 h1.1875 q0.0625,-2.3125 1.0312,-3.25 q0.9688,-0.9375 1.8438,-1.25 v-5.3125 h-4.0625 Z" fill="#000000" transform="matrix(1,0,0,-1,195,33)"/>
  <path d="M-1.25,0 v6.875 l6.375,-0.125 q0.4375,0 1,-0.0312 q0.5625,-0.0312 1.2188,-0.0312 q0.6562,0 1.4375,-0.0312 q0.7812,-0.0312 1.6562,-0.0625 q0.875,-0.0312 1.8438,-0.0625 q0.9688,-0.0312 2.0312,-0.0312 q1.0625,0 2.1875,-0.0312 q1.125,-0.0312 2.2812,-0.0312 q1.1562,0 2.4062,-0.0312 q1.25,-0.0312 2.5,0 q1.25,0.0312 2.5625,0.0312 q1.3125,0 2.6562,0.0625 q1.3438,0.0625 2.6875,0.0938 q1.3438,0.0312 2.6875,0.125 q1.3438,0.0938 2.6562,0.1562 q1.375,0.125 1.625,0.3438 q0.25,0.2188 0.125,0.5938 q-0.0625,0.125 -0.2188,0.25 q-0.1562,0.125 -0.6562,0.0625 q-1.0625,-0.0625 -2.125,-0.1562 q-1.0625,-0.0938 -2.125,-0.1562 q-1.0625,-0.0625 -2.125,-0.125 q-1.0625,-0.0625 -2.1562,-0.0938 q-1.0938,-0.0312 -2.1562,-0.0625 q-1.0625,-0.0312 -2.1562,-0.0312 q-1.0938,0 -2.1562,0 q-1.0625,0 -2.1875,0 q-1.125,0 -2.2188,0 q-1.0938,0 -2.2188,0.0312 q-1.125,0.0312 -2.25,0.0312 q-1.125,0 -2.2812,0.0312 q-1.1562,0.0312 -2.3125,0.0625 q-1.1562,0.0312 -2.3125,0.0625 q-1.1562,0.0312 -2.3438,0.0938 l2.5,2.9375 v-5.375 l-6.0625,0.125 q-0.0625,3.5 -0.2188,8.2188 q-0.1562,4.7188 -0.4062,9.8438 q-0.25,5.125 -0.5,9.9688 q-0.25,4.8438 -0.5,8.5938 q-0.0625,0.5 -0.125,1.0625 q-0.0625,0.5625 0.625,1.1875 q0.5625,0.5 1.4375,1.25 q0.875,0.75 1.6875,1.625 q0.8125,0.875 1.1875,1.5625 q0.5,0.875 1,0.6562 q0.5,-0.2188 0.5625,-1.2812 q0.0625,-1.6875 0.2188,-4.8125 q0.1562,-3.125 0.3125,-6.9375 q0.1562,-3.8125 0.3125,-7.625 q0.1562,-3.8125 0.25,-6.9375 q0.0938,-3.125 0.0938,-4.8125 q0,-0.875 0.25,-1.0938 q0.25,-0.2188 1.1875,-0.3438 q1,-0.0625 2.0625,-0.125 q1.0625,-0.0625 2.1562,-0.125 q1.0938,-0.0625 2.1875,-0.0938 q1.0938,-0.0312 2.2188,-0.0625 q1.125,-0.0312 2.2812,-0.0625 q1.1562,-0.0312 2.3125,-0.0312 q1.1562,0 2.3438,0 q1.1875,0 2.375,0 q1.1875,0 2.3438,0 q1.1562,0 2.3438,0 q1.1875,0 2.375,0.0312 q1.1875,0.0312 2.3438,0.0625 q1.1562,0.0312 2.3125,0.0625 q1.1562,0.0312 2.2812,0.0625 q1.125,0.0312 2.25,0.0312 q1.125,0.0625 1.5312,-0.4688 q0.4062,-0.5312 0.9688,-1.8438 q0.75,-1.6875 1.6562,-4.0625 q0.9062,-2.375 0.9688,-5.4375 q0.0625,-1.25 -1.0312,-2.125 q-1.0938,-0.875 -2.2188,-1 q-1.375,-0.125 -2.8125,-0.2188 q-1.4375,-0.0938 -2.8438,-0.1562 q-1.4062,-0.0625 -2.8438,-0.125 q-1.4375,-0.0625 -2.875,-0.0938 q-1.4375,-0.0312 -2.9062,-0.0625 q-1.4688,-0.0312 -2.9688,-0.0312 q-1.5,0 -3,0 q-1.5,0 -3.0312,0 q-1.5312,0 -3.0625,0 q-1.5312,0 -3.125,0.0312 q-1.5938,0.0312 -3.1875,0.0312 q-1.5938,0 -3.1875,0.0312 q-1.5938,0.0312 -3.25,0.0625 q-1.6562,0.0312 -3.3438,0.0625 q-1.6875,0.0312 -3.375,0.0312 Z" fill="#000000" transform="matrix(1,0,0,-1,195,33)"/>
  <path d="" fill="#000000" transform="matrix(1,0,0,-1,243,33)"/>
  <path d="M4.3917,3.4097 q-0.6125,0.1244 -0.4881,0.7369 q0.0622,0.3062 0.3445,0.4402 q1.5589,0.7676 2.9777,1.7868 q1.4187,1.0192 2.7949,2.1428 q0.2335,0.2077 0.5397,0.1455 q0.6125,-0.1244 0.4881,-0.7369 q-0.0498,-0.245 -0.1971,-0.3426 q-2.8633,-2.4797 -6.0673,-4.1248 q-0.1474,-0.0976 -0.3924,-0.0479 Z M0.5167,8.2847 q-0.6125,0.1244 -0.4881,0.7369 q0.0622,0.3062 0.3445,0.4402 q1.5589,0.7676 2.9777,1.7868 q1.4187,1.0192 2.7949,2.1428 q0.2335,0.2077 0.5397,0.1455 q0.6125,-0.1244 0.4881,-0.7369 q-0.0498,-0.245 -0.1971,-0.3426 q-2.8633,-2.4797 -6.0673,-4.1248 q-0.1474,-0.0976 -0.3924,-0.0479 Z M2.4542,5.8472 q-0.6125,0.1244 -0.4881,0.7369 q0.0622,0.3062 0.3445,0.4402 q1.5589,0.7676 2.9777,1.7868 q1.4187,1.0192 2.7949,2.1428 q0.2335,0.2077 0.5397,0.1455 q0.6125,-0.1244 0.4881,-0.7369 q-0.0498,-0.245 -0.1971,-0.3426 q-2.8633,-2.4797 -6.0673,-4.1248 q-0.1474,-0.0976 -0.3924,-0.0479 Z" fill="#000000" transform="matrix(1,0,0,-1,268,33)"/>
  <path d="" fill="#000000" transform="matrix(1,0,0,-1,279,33)"/>
  <path d="M9.9375,-15.1875 q-2.125,-1.25 -4.8438,-1.6562 q-2.7188,-0.4062 -5.5938,0.0625 q-2.875,0.4688 -5.5,1.7812 q-0.625,0.3125 -0.4688,0.8438 q0.1562,0.5312 0.7812,0.9688 q1.375,0.875 2.4375,2.1875 q1.0625,1.3125 2.1875,2.6875 q0.25,0.3125 0.6562,0.2812 q0.4062,-0.0312 0.7812,-0.1562 q0.0625,0 0.0625,0 q1.25,-0.4375 2.6875,-0.5938 q1.4375,-0.1562 3,0.0938 q-0.25,5.75 -0.5938,12.0312 q-0.3438,6.2812 -0.6875,12.375 q-0.3438,6.0938 -0.6875,11.3125 q-0.3438,5.2188 -0.6562,8.8438 q0,0.125 -0.0625,0.375 q-0.0625,0.375 -0.0312,0.875 q0.0312,0.5 0.5938,1 q0.5625,0.4375 1.4375,1.2188 q0.875,0.7812 1.6875,1.6562 q0.8125,0.875 1.1875,1.5625 q0.5,0.875 1,0.6562 q0.5,-0.2188 0.5625,-1.2812 q0.5,-9.1875 0.7188,-18.7812 q0.2188,-9.5938 0.4688,-18.2812 q0.0625,-3.125 0.3125,-7.7188 q0.25,-4.5938 0.25,-9.5312 q0,-1.125 -0.4688,-1.75 q-0.4688,-0.625 -1.2188,-1.0625 Z M7.375,0 v6.875 h4.4998 v-6.875 h-4.4998 Z" fill="#000000" transform="matrix(1,0,0,-1,304,33)"/>
  <path d="M-1.5,2.8125 v9.8125 h1.1875 q0.0625,-2.3125 1.0312,-3.25 q0.9688,-0.9375 1.8438,-1.25 v-5.3125 h-4.0625 Z" fill="#000000" transform="matrix(1,0,0,-1,315,33)"/>
  <path d="M-1.25,0 v6.875 h2.375 q-0.0625,3 -0.2188,7.4375 q-0.1562,4.4375 -0.4062,9.4375 q-0.25,5 -0.5,9.8125 q-0.25,4.8125 -0.5,8.5625 q0,0.125 -0.0625,0.375 q-0.0625,0.375 -0.0312,0.875 q0.0312,0.5 0.5938,1 q0.5625,0.4375 1.4375,1.2188 q0.875,0.7812 1.6875,1.6562 q0.8125,0.875 1.1875,1.5625 q0.5,0.875 1,0.6562 q0.5,-0.2188 0.5625,-1.2812 q0.1875,-3.6875 0.375,-8.0625 q0.1875,-4.375 0.4062,-9 q0.2188,-4.625 0.4062,-9.0312 q0.1875,-4.4062 0.375,-8.25 q0.1875,-3.8438 0.25,-6.5938 q0.125,-3.375 -0.5625,-4.875 q-0.6875,-1.5 -2.1875,-1.9062 q-1.5,-0.4062 -3.8125,-0.4688 h-2.375 Z M1.125,0 v6.875 h7.5 v-6.875 h-7.5 Z" fill="#000000" transform="matrix(1,0,0,-1,315,33)"/>
  <path d="M-0.625,0 l-0.875,14.625 h1.125 q0.0625,-2.4375 1.0625,-4.0938 q1,-1.6562 2.4375,-2.5312 q1.4375,-0.875 2.8125,-1.125 v-6.875 h-6.5625 Z" fill="#000000" transform="matrix(1,0,0,-1,323,33)"/>
  <path d="M-1.25,0 v6.875 h4.375 q-1.75,1.6875 -2.375,3.9688 q-0.625,2.2812 0.8125,3.7812 q0.625,0.6875 1.875,1.9062 q1.25,1.2188 2.6562,2.5938 q1.4062,1.375 2.5312,2.4375 q1.125,1.0625 1.5,1.4375 q0.6875,0.6875 1.0312,0.25 q0.3438,-0.4375 -0.1562,-1 q-0.375,-0.4375 -1.0312,-1.4062 q-0.6562,-0.9688 -1.3125,-1.9688 q-0.6562,-1 -0.9688,-1.5625 q-0.875,-1.5 0.5,-3.25 q1.375,-1.75 4.4688,-3.3438 q3.0938,-1.5938 7.3438,-2.6562 q4.125,-1.0625 7.3438,-1.4062 q3.2188,-0.3438 6.4062,-0.2812 q3.1875,0.0625 7.25,0.25 q0.3125,0 0.6562,0.0312 q0.3438,0.0312 0.6562,0.0312 q0.8125,0.0625 0.8125,-0.3125 q0,-0.375 -0.375,-0.6875 q-1.1875,-0.875 -2.6562,-2.375 q-1.4688,-1.5 -2.5312,-2.25 q-0.3125,-0.25 -0.625,-0.4062 q-0.3125,-0.1562 -0.625,-0.1562 q-5.625,-0.1875 -10.125,-0.3125 q-4.5,-0.125 -8.6875,-0.1875 q-4.1875,-0.0625 -8.6875,-0.0625 q-4.5,0 -10.0625,0.0625 Z" fill="#000000" transform="matrix(1,0,0,-1,326,33)"/>
  <path d="" fill="#000000" transform="matrix(1,0,0,-1,369,33)"/>
  <path d="M4.3917,3.4097 q-0.6125,0.1244 -0.4881,0.7369 q0.0622,0.3062 0.3445,0.4402 q1.5589,0.7676 2.9777,1.7868 q1.4187,1.0192 2.7949,2.1428 q0.2335,0.2077 0.5397,0.1455 q0.6125,-0.1244 0.4881,-0.7369 q-0.0498,-0.245 -0.1971,-0.3426 q-2.8633,-2.4797 -6.0673,-4.1248 q-0.1474,-0.0976 -0.3924,-0.0479 Z M0.5167,8.2847 q-0.6125,0.1244 -0.4881,0.7369 q0.0622,0.3062 0.3445,0.4402 q1.5589,0.7676 2.9777,1.7868 q1.4187,1.0192 2.7949,2.1428 q0.2335,0.2077 0.5397,0.1455 q0.6125,-0.1244 0.4881,-0.7369 q-0.0498,-0.245 -0.1971,-0.3426 q-2.8633,-2.4797 -6.0673,-4.1248 q-0.1474,-0.0976 -0.3924,-0.0479 Z M2.4542,5.8472 q-0.6125,0.1244 -0.4881,0.7369 q0.0622,0.3062 0.3445,0.4402 q1.5589,0.7676 2.9777,1.7868 q1.4187,1.0192 2.7949,2.1428 q0.2335,0.2077 0.5397,0.1455 q0.6125,-0.1244 0.4881,-0.7369 q-0.0498,-0.245 -0.1971,-0.3426 q-2.8633,-2.4797 -6.0673,-4.1248 q-0.1474,-0.0976 -0.3924,-0.0479 Z" fill="#000000" transform="matrix(1,0,0,-1,394,33)"/>
  <path d="" fill="#000000" transform="matrix(1,0,0,-1,405,33)"/>
  <path d="M13.5625,-0.375 q-7.1875,0 -10.4062,2.625 q-3.2188,2.625 -3.1562,6.5 q0.0625,2.875 1.8125,5.25 q1.75,2.375 4.7188,3.875 q2.9688,1.5 6.5938,1.5625 l-0.0625,0.4375 q0,0.25 0.1875,0.4688 q0.1875,0.2188 0.5,0.4688 q0.1875,0.125 0.4062,0.3125 q0.2188,0.1875 0.4062,0.4375 q0.9375,1.1875 1.4062,1.875 q0.4688,0.6875 0.8438,1.5625 q0.4375,1.125 0.9688,1.0625 q0.5312,-0.0625 1.0312,-0.8125 q0.5,-0.75 0.6875,-1.8125 q0.6875,-3.4375 0.9375,-7.2812 q0.25,-3.8438 0.5,-7.7188 q0.0625,-0.625 0.4688,-0.875 q0.4062,-0.25 0.6562,-0.125 q-0.0625,2.5 -0.25,5.625 q-0.1875,3.125 -0.4375,6.3438 q-0.25,3.2188 -0.5312,6.1562 q-0.2812,2.9375 -0.5312,5.125 q-0.25,2.1875 -0.4375,3.125 q-0.25,1.4375 -0.5938,2.5312 q-0.3438,1.0938 -0.5312,1.7188 q-0.25,0.8125 0.0938,1.0938 q0.3438,0.2812 0.9062,0.4688 q0.25,0.125 0.375,0.1875 q1.25,0.5625 2.0625,1.7812 q0.8125,1.2188 1.125,2.5938 q0.125,0.375 0.5312,0.6875 q0.4062,0.3125 0.875,0.1875 q0.4688,-0.125 0.7188,-1.125 q0.5625,-2 0.9375,-5.3438 q0.375,-3.3438 0.6562,-7.3438 q0.2812,-4 0.5,-8.2188 q0.2188,-4.2188 0.5,-8.0312 q0.2812,-3.8125 0.6562,-6.6875 q0.125,-0.625 0.4375,-0.7188 q0.3125,-0.0938 0.5625,-0.0312 q-0.25,2.5 -0.5,5.8438 q-0.25,3.3438 -0.4688,7 q-0.2188,3.6562 -0.4062,7.25 q-0.1875,3.5938 -0.375,6.6875 q-0.1875,3.0938 -0.3125,5.1562 q-0.0625,1.0625 -0.1562,1.8125 q-0.0938,0.75 -0.2188,1.3125 q-0.25,1.8125 0.125,2.0625 q1.1875,0.875 2.625,2.3438 q1.4375,1.4688 2,2.5312 q0.5,0.875 1.0938,0.6562 q0.5938,-0.2188 0.6562,-1.2812 q0.1875,-3.6875 0.4062,-8.125 q0.2188,-4.4375 0.4688,-9.1875 q0.25,-4.75 0.4375,-9.2812 q0.1875,-4.5312 0.375,-8.4375 q0.1875,-3.9062 0.3125,-6.6562 q0.1875,-3.375 -0.3438,-4.9688 q-0.5312,-1.5938 -2.1875,-2.0938 q-1.6562,-0.5 -4.9688,-0.5625 q-2.8125,0 -4.9062,0 q-2.0938,0 -4.3438,0 q-1.1875,0 -2.5312,0 q-1.3438,0 -2.9062,0 Z M13.5,8.4375 q0.75,0 0.75,0.8125 q0,0.3125 -0.2188,0.5312 q-0.2188,0.2188 -0.5312,0.2188 q-0.8125,0 -0.8125,-0.75 q0,-0.8125 0.8125,-0.8125 Z" fill="#000000" transform="matrix(1,0,0,-1,430,33)"/>
</svg>
