<svg xmlns="http://www.w3.org/2000/svg" width="471" height="71" preserveAspectRatio="xMinYMin slice" viewBox="-2 -19 471 71"><path fill="#fffaed" d="M-2 52v-71h471v71Z"/><path d="M13.25 40.563q-4.187.062-7.875-.97-3.687-1.03-5.687-2.343-.75-.5-.657-.938.094-.437.72-.687 1.437-.5 2.655-1.844 1.22-1.344 2.157-2.531.375-.5 1.125-.063 1.75.938 4.375 1.594t5.156.938q2.53.28 3.969.093.5-.062.406-.468t-.47-.407q-1.5.063-3.5-.156-2-.218-3.937-.718t-3.375-1.25q-.687-.375-.593-.907.093-.53.468-.843.875-.875 2.125-2.157 1.25-1.28 2.532-2.687 1.28-1.406 2.375-2.594 1.093-1.187 1.718-1.812l.407-.407q.156-.156.406-.156.312 0 .937.438 2.063 1.375 4 3.718 1.938 2.344 3.25 5.125t1.375 5.532q.063 1.687-.625 3.343-.687 1.657-3.125 2.344-2.062.625-4.719.688-2.656.062-5.593.125"/><path d="M37.375 33.313q-3.687.062-6.969-.938-3.281-1-5.344-3.687-1.75-2.313-2.125-4.5-.375-2.188.22-4.22.593-2.03 1.655-3.718 1.438-2.188 4.188-4 2.75-1.813 5.562-2.938-.187-.562-.375-.875-.187-.562.563-.937 1.125-.563 2.375-1.688t1.687-2.5q.25-.687.844-.656t.781.594q.125.375.563 2.281t.969 4.656 1.062 5.875.938 6.032.468 5.03q.126 2.75-1.624 4.438t-5.438 1.75Zm-2.312-15.376q.75 0 .75-.812 0-.312-.22-.531-.218-.219-.53-.219-.813 0-.813.75 0 .813.813.813m1.312 6.75q.75 0 .75-.812 0-.312-.219-.531t-.531-.219q-.812 0-.812.75 0 .813.812.813M73.063 33q-2.313 0-3.157-.906T69 29.563q-.062-1.75-.187-4.625T68.5 18.53q-.187-3.53-.375-7.343-.187-3.813-.406-7.438t-.406-6.625q0-.125-.063-.312-.062-.438-.031-.938t.656-1q.563-.437 1.438-1.219.875-.78 1.656-1.656t1.156-1.562q.5-.875 1-.657.5.22.563 1.282.312 7.562.75 15.875.437 8.312.75 16.25.062 1.062.218 2 .157.937.72.937V33zM95 17.188q-.625 0-.625-.625 0-.313.25-.5Q96 15 97.188 13.719q1.187-1.281 2.312-2.656.188-.25.5-.25.625 0 .625.624 0 .25-.125.376-2.312 3-5.125 5.25-.125.125-.375.125"/><path d="M73.5 30.188v-9.813h1.188q.062 2.313 1.03 3.25.97.938 1.844 1.25v5.313z"/><path d="M73.75 33v-6.875l6.375.125q.438 0 1 .031t1.219.031 1.437.032l1.656.062q.876.031 1.844.063.97.03 2.031.03 1.063 0 2.188.032 1.125.031 2.281.031t2.406.031q1.25.032 2.5 0 1.25-.03 2.563-.03 1.312 0 2.656-.063t2.688-.094 2.687-.125 2.656-.156q1.375-.125 1.625-.344t.125-.594q-.062-.125-.219-.25-.156-.125-.656-.062-1.062.062-2.125.156t-2.125.156l-2.125.125q-1.062.062-2.156.094l-2.156.062q-1.063.031-2.156.031h-6.563q-1.094 0-2.219-.03-1.125-.032-2.25-.032t-2.28-.031l-2.313-.063-2.313-.062q-1.156-.031-2.344-.094l2.5-2.937v5.375l-6.062-.125q-.063-3.5-.219-8.22-.156-4.718-.406-9.843T75-.532t-.5-8.594q-.063-.5-.125-1.062-.063-.563.625-1.188.562-.5 1.437-1.25t1.688-1.625 1.187-1.562q.5-.875 1-.656t.563 1.28q.062 1.688.219 4.813.156 3.125.312 6.938l.313 7.625q.156 3.812.25 6.937t.094 4.813q0 .875.25 1.094.25.218 1.187.343 1 .063 2.063.125 1.062.063 2.156.125 1.094.063 2.187.094l2.219.063 2.281.062q1.156.031 2.313.031h9.406q1.188 0 2.375-.03l2.344-.063 2.312-.063q1.157-.03 2.282-.062 1.125-.031 2.25-.031 1.125-.063 1.53.468.407.532.97 1.844.75 1.688 1.656 4.063t.969 5.437q.062 1.25-1.032 2.125-1.093.875-2.218 1-1.375.125-2.813.219-1.437.094-2.844.156-1.406.063-2.844.125-1.437.063-2.874.094l-2.907.062q-1.469.032-2.969.032H93.22q-1.531 0-3.125-.032-1.594-.03-3.188-.03t-3.187-.032l-3.25-.062-3.344-.063Q75.438 33 73.75 33m78.642-3.41q-.613-.124-.488-.737.062-.306.344-.44 1.559-.767 2.978-1.787 1.419-1.019 2.795-2.142.233-.208.54-.146.612.124.488.737-.05.245-.198.343-2.863 2.48-6.067 4.124-.147.098-.392.048m-3.875-4.875q-.613-.124-.488-.737.062-.306.344-.44 1.559-.767 2.978-1.787 1.418-1.019 2.795-2.142.233-.208.54-.146.612.124.488.737-.05.245-.198.343-2.863 2.48-6.067 4.124-.147.098-.392.048m1.937 2.438q-.612-.125-.488-.737.062-.306.345-.44 1.559-.768 2.977-1.787 1.419-1.02 2.795-2.143.234-.208.54-.145.612.124.488.737-.05.244-.197.342-2.863 2.48-6.067 4.125-.148.098-.393.048m43.484 21.035q-2.125 1.25-4.844 1.656t-5.594-.063T178 48q-.625-.312-.469-.844.156-.531.781-.969 1.375-.875 2.438-2.187 1.062-1.313 2.187-2.688.25-.312.657-.28.406.03.78.155h.063q1.25.438 2.688.594 1.437.156 3-.094-.25-5.75-.594-12.03-.344-6.282-.688-12.376t-.687-11.312-.656-8.844q0-.125-.063-.375-.062-.375-.031-.875t.594-1q.562-.438 1.437-1.219T191.125-8t1.187-1.563q.5-.875 1-.656t.563 1.281q.5 9.188.719 18.782t.468 18.28q.063 3.126.313 7.72t.25 9.53q0 1.126-.469 1.75-.469.626-1.219 1.063ZM191.375 33v-6.875h4.5V33zM215 17.188q-.625 0-.625-.625 0-.313.25-.5Q216 15 217.188 13.719q1.187-1.281 2.312-2.656.188-.25.5-.25.625 0 .625.624 0 .25-.125.376-2.312 3-5.125 5.25-.125.125-.375.125"/><path d="M193.5 30.188v-9.813h1.188q.062 2.313 1.03 3.25.97.938 1.845 1.25v5.313z"/><path d="M193.75 33v-6.875l6.375.125q.438 0 1 .031t1.219.031 1.437.032l1.656.062q.875.031 1.844.063.97.03 2.031.03 1.063 0 2.188.032 1.125.031 2.281.031t2.406.031q1.25.032 2.5 0 1.25-.03 2.563-.03 1.312 0 2.656-.063t2.688-.094 2.687-.125 2.656-.156q1.375-.125 1.625-.344t.125-.594q-.062-.125-.218-.25-.157-.125-.657-.062-1.062.062-2.125.156t-2.125.156l-2.125.125q-1.062.062-2.156.094l-2.156.062q-1.063.031-2.156.031h-6.563q-1.094 0-2.219-.03-1.125-.032-2.25-.032t-2.28-.031l-2.313-.063-2.313-.062q-1.156-.031-2.344-.094l2.5-2.937v5.375l-6.062-.125q-.063-3.5-.219-8.22-.156-4.718-.406-9.843T195-.532t-.5-8.594q-.063-.5-.125-1.062-.063-.563.625-1.188.562-.5 1.437-1.25t1.688-1.625 1.187-1.562q.5-.875 1-.656t.563 1.28q.062 1.688.219 4.813.156 3.125.312 6.938l.313 7.625q.156 3.812.25 6.937t.094 4.813q0 .875.25 1.094.25.218 1.187.343 1 .063 2.063.125 1.062.063 2.156.125 1.094.063 2.187.094l2.219.063 2.281.062q1.156.031 2.313.031h9.406q1.188 0 2.375-.03l2.344-.063 2.312-.063q1.157-.03 2.282-.062 1.125-.031 2.25-.031 1.125-.063 1.53.468.407.532.97 1.844.75 1.688 1.656 4.063t.969 5.437q.062 1.25-1.032 2.125-1.093.875-2.218 1-1.375.125-2.813.219-1.437.094-2.844.156-1.406.063-2.844.125-1.437.063-2.875.094l-2.906.062q-1.469.032-2.969.032h-9.093q-1.531 0-3.125-.032-1.594-.03-3.188-.03t-3.187-.032l-3.25-.062-3.344-.063Q195.438 33 193.75 33m78.642-3.41q-.613-.124-.488-.737.062-.306.344-.44 1.559-.767 2.978-1.787 1.419-1.019 2.795-2.142.233-.208.54-.146.612.124.488.737-.05.245-.198.343-2.863 2.48-6.067 4.124-.147.098-.392.048m-3.875-4.875q-.613-.124-.488-.737.062-.306.344-.44 1.559-.767 2.978-1.787 1.419-1.019 2.795-2.142.233-.208.54-.146.612.124.488.737-.05.245-.198.343-2.863 2.48-6.067 4.124-.147.098-.392.048m1.937 2.438q-.612-.125-.488-.737.062-.306.345-.44 1.559-.768 2.977-1.787 1.419-1.02 2.795-2.143.234-.208.54-.145.612.124.488.737-.05.244-.197.342-2.863 2.48-6.067 4.125-.148.098-.393.048m43.484 21.035q-2.125 1.25-4.844 1.656t-5.594-.063T298 48q-.625-.312-.469-.844.156-.531.781-.969 1.375-.875 2.438-2.187 1.062-1.313 2.187-2.688.25-.312.657-.28.406.03.78.155h.063q1.25.438 2.688.594 1.437.156 3-.094-.25-5.75-.594-12.03-.344-6.282-.688-12.376t-.687-11.312-.656-8.844q0-.125-.063-.375-.062-.375-.031-.875t.594-1q.562-.438 1.437-1.219T311.125-8t1.187-1.563q.5-.875 1-.656t.563 1.281q.5 9.188.719 18.782t.468 18.28q.063 3.126.313 7.72t.25 9.53q0 1.126-.469 1.75-.469.626-1.219 1.063ZM311.375 33v-6.875h4.5V33z"/><path d="M313.5 30.188v-9.813h1.188q.062 2.313 1.03 3.25.97.938 1.844 1.25v5.313z"/><path d="M313.75 33v-6.875h2.375q-.062-3-.219-7.437-.156-4.438-.406-9.438T315-.562t-.5-8.563q0-.125-.062-.375-.063-.375-.032-.875t.594-1q.563-.437 1.438-1.219.875-.781 1.687-1.656t1.188-1.562q.5-.876 1-.657.5.22.562 1.282.188 3.687.375 8.062.188 4.375.406 9 .22 4.625.406 9.031.188 4.406.375 8.25.188 3.844.25 6.594.125 3.375-.562 4.875t-2.187 1.906-3.813.469zm2.375 0v-6.875h7.5V33z"/><path d="m322.375 33-.875-14.625h1.125q.063 2.438 1.063 4.094T326.125 25t2.813 1.125V33z"/><path d="M324.75 33v-6.875h4.375q-1.75-1.687-2.375-3.969t.813-3.781q.625-.687 1.875-1.906t2.656-2.594 2.53-2.437 1.5-1.438q.688-.687 1.032-.25t-.156 1q-.375.438-1.031 1.406-.656.969-1.313 1.969t-.969 1.563q-.875 1.5.5 3.25t4.47 3.343T346 24.938q4.125 1.062 7.344 1.406t6.406.28 7.25-.25q.313 0 .656-.03.344-.032.656-.032.813-.062.813.313t-.375.688q-1.188.875-2.656 2.375-1.47 1.5-2.531 2.25-.313.25-.625.406-.313.156-.625.156-5.625.187-10.125.312T343.5 33t-8.687.062T324.75 33m73.642-3.41q-.613-.124-.488-.737.062-.306.344-.44 1.559-.767 2.978-1.787 1.419-1.019 2.795-2.142.233-.208.54-.146.612.124.488.737-.05.245-.198.343-2.863 2.48-6.067 4.124-.147.098-.392.048m-3.875-4.875q-.613-.124-.488-.737.062-.306.344-.44 1.559-.767 2.978-1.787 1.419-1.019 2.795-2.142.233-.208.54-.146.612.124.488.737-.05.245-.198.343-2.863 2.48-6.067 4.124-.147.098-.392.048m1.937 2.438q-.612-.125-.488-.737.062-.306.345-.44 1.559-.768 2.977-1.787 1.419-1.02 2.795-2.143.234-.208.54-.145.612.124.488.737-.05.244-.197.342-2.863 2.48-6.067 4.125-.148.098-.393.048m47.109 6.222q-7.188 0-10.407-2.625T430 24.25q.063-2.875 1.813-5.25t4.718-3.875 6.594-1.562l-.062-.438q0-.25.187-.469.188-.219.5-.469.188-.125.406-.312.22-.188.407-.438.937-1.187 1.406-1.875T446.813 8q.437-1.125.968-1.063.532.063 1.032.813t.687 1.812q.688 3.438.938 7.282t.5 7.718q.062.625.468.875t.657.125q-.063-2.5-.25-5.625-.188-3.125-.438-6.343-.25-3.22-.531-6.157t-.531-5.125q-.25-2.187-.438-3.125-.25-1.437-.594-2.53-.343-1.095-.53-1.72-.25-.812.093-1.093.344-.282.906-.47l.375-.187q1.25-.562 2.063-1.78.812-1.22 1.125-2.595.125-.375.53-.687.407-.313.876-.188t.719 1.125q.562 2 .937 5.344t.656 7.344.5 8.219q.22 4.219.5 8.03.282 3.813.657 6.688.125.625.437.72.313.093.563.03-.25-2.5-.5-5.843t-.47-7-.405-7.25-.375-6.688l-.313-5.156q-.062-1.063-.156-1.813t-.219-1.312q-.25-1.813.125-2.063 1.188-.875 2.625-2.343 1.438-1.47 2-2.532.5-.875 1.094-.656t.656 1.281q.188 3.688.406 8.125.22 4.438.47 9.188t.437 9.281.375 8.438q.187 3.906.312 6.656.188 3.375-.344 4.969-.53 1.593-2.187 2.093t-4.969.563zm-.063-8.812q.75 0 .75-.813 0-.312-.219-.531T443.5 23q-.812 0-.812.75 0 .813.812.813"/></svg>