<svg xmlns="http://www.w3.org/2000/svg" width="601" height="193" preserveAspectRatio="xMinYMin slice" viewBox="-5 -28 601 193"><path fill="#fffaed" d="M-5 165V-28h601v193Z"/><path d="M149.125 162.188q-1.562.625-3.781.875t-4.594.062-4.531-.781-3.594-1.594q-.562-.375-.656-.875t.594-.75q1.125-.5 2.406-1.844t2.594-3.281q.187-.312.437-.25.25.063.438.188 1.312.687 3.062 1.125t5.063.375q.125-3.563.125-6.532t-.063-5.28V143q-.062-3.812-1.344-5.656-1.28-1.844-3.75-2.688-2.469-.843-6.156-1.593-.812-.188-.844-.72-.03-.53.72-.718 2.187-.625 3.843-2.437 1.656-1.813 2.281-4.25.125-.5.438-.75.312-.25.937.062 3.5 1.938 5.5 3.875t2.906 4.344.97 5.906q.062 2.25.062 5.094t-.032 5.594q-.03 2.75-.093 4.875v.75q0 1.312-.282 2.875-.28 1.562-.906 2.843-.625 1.282-1.75 1.782"/><path d="m147.875 135.375-1.75-9.25q1.5 1 2.656 1.844t2.563 1.406 3.53.75v5.25z"/><path d="M148.25 137v-6.875h4.438q2.375 0 4.53-.062 2.157-.063 3.688-.22 1.531-.155 1.969-.405.5-.313.469-.72-.031-.405-.531-.28-1.5.25-3.813.468-2.312.22-4.719-.094-2.406-.312-4.156-1.5-1.562-1.062-2.562-2.78-1-1.72-1-3.782 0-2.125.843-4.344.844-2.219 2.375-4.094 1.532-1.874 3.625-3.03 2.094-1.157 4.594-1.157 2.688 0 4.969 1.844t3.937 4.969 2.563 6.969.906 7.906q0 2.187-1.375 3.594-1.375 1.406-3.687 2.156-2.313.75-5.22 1.062-2.905.313-5.968.375-3.062.063-5.875 0m9.563-17.937q.75 0 .75-.813 0-.312-.22-.531-.218-.219-.53-.219-.813 0-.813.75 0 .813.813.813m51.875 35.312q-2.313-.312-3.594-.719t-2.22-.906q-1.25-.687-1.187-1.469.063-.781.75-.781.5 0 1.375-.719t1.875-1.812 1.875-2.156q.438-.5 1.032-.438.593.063.968.313 1.438.875 4.344 1.343 2.906.47 7.469.156 0-.875-1.437-.875-2.813 0-5.063-.28-2.25-.282-3.437-.782-1.75-.687-1.844-2.031t.28-2.094q.5-1.062 1.126-2.125t1.187-2.125q-.875.063-1.968.094-1.094.031-2.407.031-4.562 0-7.5-1.375T196.937 132t-1.437-4.937q0-3.375 1.437-6.282t4.063-4.687 6.125-1.781q2.437 0 4.5 1.625 2.062 1.625 3.625 4.156 1.562 2.531 2.437 5.219.875 2.687.938 4.812h.187V137h-1.562q-.125.25-.188.438 1.125.937 2.907 1.125 1.78.187 3.718.187.875.063 1.688.094t1.625.094q.875.062 1.687 1.031t1.063 1.844q.562 1.625.969 3.5t.406 4q0 1.25-.75 2.562-.75 1.313-1.875 1.563-3.438.75-6.969 1.031t-6.594.219-5.25-.313Zm-2.375-28.5q.75 0 .75-.812 0-.313-.22-.532-.218-.219-.53-.219-.813 0-.813.75 0 .813.813.813m8.625 7.563v-.125z"/><path d="M215.75 137v-12.437h1.813q2.312 5.687 10.5 5.562L220.125 137z"/><path d="M220.25 137v-6.875h4.438q2.375 0 4.53-.062 2.157-.063 3.688-.22 1.531-.155 1.969-.405.5-.313.469-.72-.031-.405-.531-.28-1.5.25-3.813.468-2.312.22-4.719-.094-2.406-.312-4.156-1.5-1.562-1.062-2.562-2.78-1-1.72-1-3.782 0-2.125.843-4.344.844-2.219 2.375-4.094 1.532-1.874 3.625-3.03 2.094-1.157 4.594-1.157 2.688 0 4.969 1.844t3.937 4.969 2.563 6.969.906 7.906q0 2.187-1.375 3.594-1.375 1.406-3.687 2.156-2.313.75-5.22 1.062-2.905.313-5.968.375-3.062.063-5.875 0m9.563-17.937q.75 0 .75-.813 0-.312-.22-.531-.218-.219-.53-.219-.813 0-.813.75 0 .813.813.813m49.062 38.687q-2.312.25-5.219.156-2.906-.094-5.469-.625-2.562-.531-3.937-1.531-.5-.375-.594-.875t.594-.75q1.125-.5 2.531-1.844T269.25 149q.125-.312.406-.25.281.063.469.188.937.75 3.75.968 2.812.22 6.937-.719l-3.875 3.313q.313-4.812.375-9.5.063-4.687-.187-7.75-.25-3.25-1.531-5.094t-3.22-3.031-4.187-2.312q-.75-.375-.718-.875.03-.5 1.218-.688 1.813-.312 3.157-1.969 1.343-1.656 1.593-4.156.063-.5.344-.5t.906.125q3.875 1.063 5.844 4.844t2.344 9.031q.25 3.375.25 7.156t-.031 6.938-.031 4.719q.062 2.25-.188 3.75t-.562 2.375q-.438 1.312-1.47 1.687-1.03.375-1.968.5m.688-20.75-1-16.125q1.437.188 2.843.344t2.813.281 2.781.219 2.75.156 2.75.094l2.719.062q1.344.031 2.656.031h2.625q1.313 0 2.594-.03l2.562-.063q1.281-.031 2.5-.063 1.22-.03 2.438-.062l2.406-.063q1.188-.03 2.313-.094 1.125-.062 2.25-.062 1.125-.062 1.53.469.407.531.97 1.844.75 1.687 1.656 4.062t.969 5.438q.062 1.25-1.032 2.125t-2.219 1q-1.375.125-2.78.218-1.407.094-2.844.157-1.438.062-2.844.125-1.406.062-2.813.093l-2.812.063q-1.406.031-2.781.031h-8.188q-1.312 0-2.625-.031t-2.594-.031-2.531-.032q-1.25-.03-2.437-.062l-2.344-.063q-1.156-.03-2.281-.03Zm32.25-6.875q1.375-.125 1.625-.344t.125-.594q-.063-.125-.22-.25-.156-.125-.656-.062-.937.062-1.906.156t-1.937.125-1.969.094-1.969.094-1.937.03h-5.907q-1 0-2-.03l-2-.063q-1-.031-2-.031t-2.03-.031l-2.063-.063q-1.031-.03-2.094-.094-1.063-.062-2.125-.062.125.375.406.688t1.094.375q.562 0 1.219.03.656.032 1.375.063l1.5.063 1.594.062 1.687.063 1.781.062q.906.031 1.875.031t1.938.032q.969.03 2 .03h2.062q1.031 0 2.063-.03 1.03-.032 2.094-.063l2.125-.062q1.062-.032 2.125-.094zM297.188 137l21.437-6.875h3.625V137z"/><path d="M318.75 137v-12.437h1.813q2.312 5.687 10.5 5.562L323.125 137z"/><path d="M323.25 137v-6.875h4.438q2.375 0 4.53-.062 2.157-.063 3.688-.22 1.531-.155 1.969-.405.5-.313.469-.72-.031-.405-.531-.28-1.5.25-3.813.468-2.312.22-4.719-.094-2.406-.312-4.156-1.5-1.562-1.062-2.562-2.78-1-1.72-1-3.782 0-2.125.843-4.344.844-2.219 2.375-4.094 1.532-1.874 3.625-3.03 2.094-1.157 4.594-1.157 2.688 0 4.969 1.844t3.937 4.969 2.563 6.969.906 7.906q0 2.187-1.375 3.594-1.375 1.406-3.687 2.156-2.313.75-5.22 1.062-2.905.313-5.968.375-3.062.063-5.875 0m9.563-17.937q.75 0 .75-.813 0-.312-.22-.531-.218-.219-.53-.219-.813 0-.813.75 0 .813.813.813m46.375 18.437q-5.625.063-8.063-1.312-.625-.375-.594-.813t.781-.75q1.25-.562 2.125-1.812t1.25-2.688q.188-.812.532-.781.343.031.718.219 1.25.562 2.25.812t2.063.281 2.437.094q1.563 0 2.97.031 1.405.031 2.655.063l2.438.062q1.187.031 2.344.031t2.28.032q1.126.03 2.282.03h5q1.344 0 2.844-.03 1.5-.031 3.187-.031 1.688 0 3.625-.032l4.125-.062q2.188-.031 4.688-.094l-3.25 2.375q-1.813-1.125-3.594-2.531t-2.937-3.375-1.157-4.656q0-3.375 1.72-5.938 1.718-2.562 4.405-4 2.688-1.437 5.563-1.437 2.937 0 5.406 1.718 2.469 1.72 3.969 4.844t1.5 7.5q0 1.375-.094 3.781t-.219 5.032l-4-3.938h4.375V137h-5.843q-2.782 0-5.282.031l-4.78.063q-2.282.031-4.376.031t-4.031.031-3.75.063q-1.813.03-3.563.03t-3.468.032l-3.438.063-3.5.062q-1.781.031-3.625.031t-3.844.032q-2 .03-4.125.03Zm43.062-15.375q.75 0 .75-.812 0-.313-.219-.532t-.531-.219q-.812 0-.812.75 0 .813.812.813"/><path d="M431.063 137v-16.5h1q.125 4.688 3.062 7.188 2.938 2.5 8.25 2.437L435.438 137z"/><path d="M435.25 137v-6.875h4.438q2.375 0 4.53-.062 2.157-.063 3.688-.22 1.531-.155 1.969-.405.5-.313.469-.72-.031-.405-.531-.28-1.5.25-3.813.468-2.312.22-4.719-.094-2.406-.312-4.156-1.5-1.562-1.062-2.562-2.78-1-1.72-1-3.782 0-2.125.843-4.344.844-2.219 2.375-4.094 1.532-1.874 3.625-3.03 2.094-1.157 4.594-1.157 2.688 0 4.969 1.844t3.937 4.969 2.563 6.969.906 7.906q0 2.187-1.375 3.594-1.375 1.406-3.687 2.156-2.313.75-5.22 1.062-2.905.313-5.968.375-3.062.063-5.875 0m9.563-17.937q.75 0 .75-.813 0-.312-.22-.531-.218-.219-.53-.219-.813 0-.813.75 0 .813.813.813m-425.125-18.25q-5.688 0-9.594-2.094t-5.156-5.781q-1-3.126-.344-7.25.656-4.126 2.218-9.063-1.375-2-3.468-3.75T-.75 69.063q-.375-.438-.25-.97.125-.53.562-.78Q.75 66.5 1.656 65.656t2.094-2.78q.25-.376.594-.282T5 63q.688.688 1.531 1.469.844.781 1.719 1.719-.062-.875-.187-1.813-.063-.812.624-1.25 1.813-1.187 2.813-2.187t2.25-3.125q.438-.688.719-.563t.344.875q.312 4.125.468 7.156.157 3.032.22 4.97.062 1 .25 1.937.187.937.75.937V80H11q-1.063 4.313-.126 7.219.938 2.906 3.344 4.656T20 94.281t7.313.375q3.937-.28 7.937-1.406.5-.125.781.063.282.187-.218.937-1.25 1.75-3.188 3.25-1.937 1.5-5.031 2.406t-7.906.907"/><path d="M14.563 80V63.5h1q.124 4.688 3.062 7.188t8.25 2.437L18.938 80z"/><path d="M18.75 80v-6.875h4.438q2.375 0 4.53-.062 2.157-.063 3.688-.22 1.531-.156 1.969-.406.5-.312.469-.718t-.531-.281q-1.5.25-3.813.468-2.312.22-4.719-.094-2.406-.312-4.156-1.5-1.562-1.062-2.562-2.78-1-1.72-1-3.782 0-2.125.843-4.344.844-2.218 2.375-4.093t3.625-3.032 4.594-1.156q2.688 0 4.969 1.844t3.938 4.969 2.562 6.969.906 7.906q0 2.187-1.375 3.594-1.375 1.406-3.687 2.156-2.313.75-5.22 1.062-2.905.313-5.968.375-3.062.063-5.875 0m9.563-17.937q.75 0 .75-.813 0-.312-.22-.531-.218-.219-.53-.219-.813 0-.813.75 0 .813.813.813m52.812 45.187q-1.562.625-3.781.875t-4.594.063-4.531-.782-3.594-1.594q-.562-.374-.656-.874t.594-.75q1.125-.5 2.406-1.844t2.594-3.281q.187-.313.437-.25.25.062.438.187 1.437.813 3.28 1.219 1.845.406 4.907.219.313-4.625.219-8.375t-.469-6.5q-.5-3.813-1.781-5.657t-3.656-2.687-6.063-1.594q-.812-.187-.844-.719-.03-.53.72-.719 2.187-.624 4.187-2.437t2.437-4.25q.125-.5.313-.531.187-.031.687.094h.125q2.438.562 4.156 1.843 1.72 1.282 2.906 3.094.376.438.626.719t.812.531q-.25-.75-.5-1.781t-.562-1.781q-.25-.5.374-.875 2.063-1.125 2.75-2.469.688-1.344 1.5-2.594.313-.5.626-.469.312.032.437.532.75 2.687 1.5 4.656t1.75 3.031q-.125-1.437-.187-2.875-.063-1.437-.188-2.312v-.063q-.062-.312-.031-.594t.406-.531q1.375-.875 2.469-2.469t2.031-3.469q.313-.687 1-.625t.75.813q.25 3.875.375 6.687t.188 4.125q.062 1.063.25 2 .187.938.75.938V80H84.062q0 .437.063.937.25 2.938.281 6.22.031 3.28-.062 6.187-.094 2.906-.22 4.906 0 .437-.03.812-.031.375-.031.688 0 1.312-.282 2.875-.28 1.562-.906 2.844-.625 1.28-1.75 1.78Z"/><path d="M96.563 80V63.5h1q.124 4.688 3.062 7.188t8.25 2.437L100.938 80z"/><path d="M100.75 80v-6.875h4.438q2.374 0 4.53-.062 2.157-.063 3.688-.22 1.531-.156 1.969-.406.5-.312.469-.718t-.531-.281q-1.5.25-3.813.468-2.312.22-4.719-.094-2.406-.312-4.156-1.5-1.562-1.062-2.562-2.78-1-1.72-1-3.782 0-2.125.843-4.344.844-2.218 2.375-4.093t3.625-3.032 4.594-1.156q2.688 0 4.969 1.844t3.938 4.969 2.562 6.969.906 7.906q0 2.187-1.375 3.594-1.375 1.406-3.687 2.156-2.313.75-5.22 1.062-2.905.313-5.968.375-3.062.063-5.875 0m9.563-17.937q.75 0 .75-.813 0-.312-.22-.531-.218-.219-.53-.219-.813 0-.813.75 0 .813.813.813m52.312 43.125q-1.562.624-3.781.874t-4.594.063-4.531-.781-3.594-1.594q-.562-.375-.656-.875t.594-.75q1.125-.5 2.406-1.844T151.063 97q.187-.312.437-.25.25.063.438.188 1.312.687 3.062 1.124t5.063.376q.125-3.563.125-6.532t-.063-5.28V86q-.062-3.812-1.344-5.656-1.28-1.844-3.75-2.688-2.469-.843-6.156-1.593-.812-.188-.844-.72-.03-.53.72-.718 2.187-.625 3.843-2.437 1.656-1.813 2.281-4.25.125-.5.438-.75.312-.25.937.062 3.5 1.938 5.5 3.875t2.906 4.344.97 5.906q.062 2.25.062 5.094t-.032 5.594q-.03 2.75-.093 4.875v.75q0 1.312-.282 2.875-.28 1.562-.906 2.843-.625 1.282-1.75 1.782"/><path d="m161.375 78.375-1.75-9.25q1.5 1 2.656 1.844t2.563 1.406 3.53.75v5.25z"/><path d="M161.75 80v-6.875h4.438q2.375 0 4.53-.062 2.157-.063 3.688-.22 1.531-.156 1.969-.406.5-.312.469-.718t-.531-.281q-1.5.25-3.813.468-2.312.22-4.719-.094-2.406-.312-4.156-1.5-1.562-1.062-2.562-2.78-1-1.72-1-3.782 0-2.125.843-4.344.844-2.218 2.375-4.093t3.625-3.032 4.594-1.156q2.688 0 4.969 1.844t3.937 4.969 2.563 6.969.906 7.906q0 2.187-1.375 3.594-1.375 1.406-3.687 2.156-2.313.75-5.22 1.062-2.905.313-5.968.375-3.062.063-5.875 0m9.563-17.937q.75 0 .75-.813 0-.312-.22-.531-.218-.219-.53-.219-.813 0-.813.75 0 .813.813.813m61.125 20.75q-1.625 0-3.407-.126-1.78-.124-3.28-.562-6.25.25-10.626-.187-4.375-.438-5.75-2.25-.25-.376-.375-.938t.75-.875q1.813-.687 3.031-1.75 1.22-1.062 2.156-2.625.5-.937 1.688-.375 1.938.813 4.25 1.25 0-4.875 1.688-8.125t4.312-4.875 5.438-1.625q2.625 0 5.093 1.625Q239.876 63 241.687 66q1.813 3 2.438 7.125h.313V80l-.875.125q-1 1.438-2.813 2-1.812.563-3.844.656t-3.719.031zm1.25-10.75q.75 0 .75-.813 0-.312-.22-.531-.218-.219-.53-.219-.813 0-.813.75 0 .813.813.813"/><path d="M240.25 80V67.563h1.813q2.312 5.687 10.5 5.562L244.625 80z"/><path d="M244.75 80v-6.875h4.438q2.375 0 4.53-.062 2.157-.063 3.688-.22 1.531-.156 1.969-.406.5-.312.469-.718t-.531-.281q-1.5.25-3.813.468-2.312.22-4.719-.094-2.406-.312-4.156-1.5-1.562-1.062-2.562-2.78-1-1.72-1-3.782 0-2.125.843-4.344.844-2.218 2.375-4.093t3.625-3.032 4.594-1.156q2.688 0 4.969 1.844t3.937 4.969 2.563 6.969.906 7.906q0 2.187-1.375 3.594-1.375 1.406-3.687 2.156-2.313.75-5.22 1.062-2.905.313-5.968.375-3.062.063-5.875 0m9.563-17.937q.75 0 .75-.813 0-.312-.22-.531-.218-.219-.53-.219-.813 0-.813.75 0 .813.813.813m47.625 33.125q-2.125 1.25-4.844 1.656t-5.594-.063T286 95q-.625-.312-.469-.844.156-.531.781-.969 1.375-.875 2.438-2.187 1.062-1.313 2.187-2.688.25-.312.657-.28.406.03.78.155h.063q1.25.438 2.688.594 1.437.156 3-.094-.25-4.687-.531-10.312t-.625-11.469-.688-11.312-.656-9.97-.563-7.437q0-.125-.062-.437-.125-.375-.125-.813t.687-.812q.563-.313 1.313-1.188t1.406-1.906 1.031-1.719q.5-.875 1.031-.656.532.219.594 1.281.313 4.563.625 10.25.313 5.688.594 11.625t.531 11.47q.25 5.53.375 9.843.063 3.125.313 7.719t.25 9.53q0 1.126-.47 1.75-.468.626-1.218 1.063ZM299.375 80v-6.875h4.5V80z"/><path d="M301.563 80V63.5h1q.125 4.688 3.062 7.188 2.938 2.5 8.25 2.437L305.938 80z"/><path d="M305.75 80v-6.875h4.438q2.375 0 4.53-.062 2.157-.063 3.688-.22 1.531-.156 1.969-.406.5-.312.469-.718t-.531-.281q-1.5.25-3.813.468-2.312.22-4.719-.094-2.406-.312-4.156-1.5-1.562-1.062-2.562-2.78-1-1.72-1-3.782 0-2.125.843-4.344.844-2.218 2.375-4.093t3.625-3.032 4.594-1.156q2.688 0 4.969 1.844t3.937 4.969 2.563 6.969.906 7.906q0 2.187-1.375 3.594-1.375 1.406-3.687 2.156-2.313.75-5.22 1.062-2.905.313-5.968.375-3.062.063-5.875 0m9.563-17.937q.75 0 .75-.813 0-.312-.22-.531-.218-.219-.53-.219-.813 0-.813.75 0 .813.813.813m49.25 18.25q-3.813-.063-6.688-.532t-4.312-1.344q-.688-.437-.532-1.156t.844-.406q.313.125.438.188.125.062.375-.063 1.312-.625 2.656-1.906t2.281-2.406q.313-.375.906-.531.594-.157 1.219.343.5.375 1.719.563t2.844.312q.437 0 1 .032.562.03 1.218.062.657.031 1.438.063l1.656.062q.875.031 1.844.063.969.03 2.031.03t2.188.032 2.28.031h2.407q1.25 0 2.5-.031l2.563-.063 2.656-.062q1.344-.031 2.687-.094 1.344-.062 2.688-.156t2.656-.156q1.375-.125 1.625-.344t.125-.594q-.063-.125-.219-.25t-.656-.062q-1 .062-2 .156t-2 .156q-1 .063-2 .094l-2 .062-2 .063q-1 .031-2 .031h-6.062q-1 0-2-.031l-2-.063-2-.062-2-.063-2-.062q-1-.031-2-.031-1.813-.063-3.344-.188t-2.438-.562-.906-1.313q-.062-7.062-.031-13.781t-.156-12.219Q362 42 361.719 40.688q-.281-1.313-.281-2.125t.75-1.375q1.125-.813 2.343-2.094 1.22-1.281 2.22-3.156.25-.438.468-.407t.281.532q.125 1.75.25 3.437.125 1.688.188 3.438.125 3.062.03 6.468-.093 3.407-.218 6.688t-.187 6 .062 4.406q.063 1.75 2.125 1.938l2.031.125q1.031.062 2.125.125 1.094.062 2.188.093l2.219.063 2.28.062q1.157.032 2.313.032h9.407q1.187 0 2.375-.032 1.187-.03 2.343-.062l2.313-.063q1.156-.03 2.281-.062 1.125-.031 2.25-.031 1.125-.063 1.531.469.407.53.97 1.843.75 1.688 1.655 4.063.907 2.375.97 5.437.062 1.25-1.032 2.125t-2.219 1q-1.375.125-2.781.22-1.406.093-2.781.155l-2.75.125q-1.375.063-2.75.094t-2.719.094q-1.344.062-2.719.062t-2.719.032-2.718.03h-8.188q-1.375 0-2.75-.03-1.375-.032-2.75-.032t-2.781-.03-2.781-.032m19.437.124 21.25-7.312h3.313V80q-5.563.188-11.844.313-6.281.124-12.72.124"/><path d="M405.25 80V67.563h1.813q2.312 5.687 10.5 5.562L409.625 80z"/><path d="M409.75 80v-6.875h4.438q2.375 0 4.53-.062 2.157-.063 3.688-.22 1.531-.156 1.969-.406.5-.312.469-.718t-.531-.281q-1.5.25-3.813.468-2.312.22-4.719-.094-2.406-.312-4.156-1.5-1.562-1.062-2.562-2.78-1-1.72-1-3.782 0-2.125.843-4.344.844-2.218 2.375-4.093t3.625-3.032 4.594-1.156q2.688 0 4.969 1.844t3.937 4.969 2.563 6.969.906 7.906q0 2.187-1.375 3.594-1.375 1.406-3.687 2.156-2.313.75-5.22 1.062-2.905.313-5.968.375-3.062.063-5.875 0m9.563-17.937q.75 0 .75-.813 0-.312-.22-.531-.218-.219-.53-.219-.813 0-.813.75 0 .813.813.813M481.813 96q-2 .5-5.157.844t-6.75.469-6.969-.125-5.968-.97-3.72-1.968q-.5-.625-.374-1.094.125-.469.937-.469t2-1.312 1.938-2.563q.312-.5.719-.843.406-.344.969-.032 2.375 1.375 6.562 2t10.438-.187q-.063-.063-.125-.25-.063-.188-.22-.375-.156-.188-.656-.125-9.062.812-13.75-1.656-4.687-2.47-4.687-9.22 0-3.062 1.438-5.75 1.437-2.687 3.78-4.343t5.094-1.594q1.313 0 2.25.906.938.907 1.72 2.157.78 1.25 1.562 2.28.781 1.032 1.781 1.345V80h-1.687q-2.688.062-4.47-.157-1.78-.218-3.156-1.468-.5-.5-.718-.25-.22.25.094.812.812 1.25 3.03 1.813 2.22.562 5.344.593 3.125.032 6.5-.156 1-.062 1.282.125.28.188.594.688.062.062.062.125.688 1.187 1.594 3.094t1.344 4.406q.437 2.687-.157 4.281-.593 1.594-2.468 2.094"/><path d="m467.875 79.625 3.625-10.25q1.313 1.5 3.406 2.656t5.781 1.094q2.375-.062 4.125-.219 1.75-.156 2.188-.469.5-.312.469-.718-.031-.407-.531-.282-1.5.25-3.813.47-2.312.218-4.719-.095-2.406-.312-4.156-1.5-1.562-1.062-2.562-2.78-1-1.72-1-3.782 0-2.125.843-4.344.844-2.219 2.375-4.094t3.625-3.03 4.594-1.157q2.688 0 4.969 1.844t3.937 4.969 2.563 6.968.906 7.907q0 2-1.687 3.406t-4.375 2.312-5.844 1.344-6.156.5-5.313-.156-3.25-.594m14.063-17.562q.75 0 .75-.813 0-.312-.22-.531-.218-.219-.53-.219-.813 0-.813.75 0 .813.813.813m50.687 18.062q-1.312 0-3.094-.094t-3.562-.25q-1.782-.156-3.188-.437t-2.031-.72q-.375-.312-.687-.655t.25-.531q.687-.313 1.437-1t.813-2.376q.375-6.687.593-12.53.22-5.844.188-11.626-.031-5.78-.469-12.218-.062-1.063-.031-1.72.031-.656.656-1.093 1.125-.813 2.594-1.969t2.094-3.031q.125-.438.5-.406.375.03.437.53.313 1.75.469 3.313t.281 3.313q.125 1.25.125 3.875t-.062 5.906-.157 6.563q-.093 3.28-.187 5.937-.094 2.656-.156 4.031-.063.875.062 1.094t1.063.344q1 .062 2.062.125l2.156.125q1.094.062 2.22.094l2.28.062 2.313.063q1.156.03 2.344.03h9.593q1.22 0 2.407-.03l2.375-.063 2.343-.062 2.282-.063q1.125-.031 2.25-.031 1.125-.062 1.53.469.407.531.97 1.844.75 1.687 1.656 4.062t.968 5.438q.063 1.25-1.03 2.125-1.095.875-2.22 1-1.062.062-2.156.156-1.093.094-2.187.125t-2.219.094-2.219.093l-2.219.063-2.25.062-2.25.063q-1.125.031-2.28.031h-6.97q-1.187 0-2.375-.031t-2.406-.031-2.437-.031-2.47-.032Zm26.813-7q1.375-.125 1.625-.344t.125-.594q-.063-.125-.22-.25-.155-.125-.655-.062-1.063.062-2.188.156t-2.281.156q-1.156.063-2.344.125-1.187.063-2.375.094l-2.406.063q-1.219.03-2.438.03h-2.437q-1.219 0-2.406-.03l-2.344-.063q-1.156-.031-2.25-.094-1.094-.062-2.156-.125-1.063-.062-2.094-.156t-1.938-.219-1.78-.25q-.876-.125-1.626-.25l1.313-1.875q-.063.688-.094 1.375t-.094 1.375q0 .5 1.25.688.5.062 1.125.125.625.062 1.313.125.687.062 1.468.125.782.062 1.625.125.844.062 1.782.094l1.906.062q.968.031 2 .031 1.03 0 2.125.031 1.093.032 2.218.032t2.282-.032l2.343-.062 2.375-.063q1.188-.03 2.407-.093l2.437-.125zM544.813 80l21.437-6.875h3.625V80z"/><path d="M566.25 80V67.563h1.813q2.312 5.687 10.5 5.562L570.625 80z"/><path d="M570.75 80v-6.875h4.438q2.375 0 4.53-.062 2.157-.063 3.688-.22 1.531-.156 1.969-.406.5-.312.469-.718t-.531-.281q-1.5.25-3.813.468-2.312.22-4.719-.094-2.406-.312-4.156-1.5-1.562-1.062-2.562-2.78-1-1.72-1-3.782 0-2.125.843-4.344.844-2.218 2.375-4.093t3.625-3.032 4.594-1.156q2.688 0 4.969 1.844t3.937 4.969 2.563 6.969.906 7.906q0 2.187-1.375 3.594-1.375 1.406-3.687 2.156-2.313.75-5.22 1.062-2.905.313-5.968.375-3.062.063-5.875 0m9.563-17.937q.75 0 .75-.813 0-.312-.22-.531-.218-.219-.53-.219-.813 0-.813.75 0 .813.813.813M33.25 30.563q-4.187.062-7.875-.97-3.687-1.03-5.687-2.343-.75-.5-.657-.938.094-.437.72-.687 1.437-.5 2.655-1.844 1.22-1.344 2.157-2.531.375-.5 1.125-.063 1.75.938 4.375 1.594t5.156.938q2.53.28 3.968.093.5-.062.407-.468t-.47-.407q-1.5.063-3.5-.156-2-.218-3.937-.718t-3.375-1.25q-.687-.375-.593-.907.093-.53.468-.843.875-.875 2.125-2.157 1.25-1.28 2.532-2.687 1.28-1.406 2.375-2.594 1.093-1.187 1.718-1.812l.407-.407q.156-.156.406-.156.312 0 .937.438 2.063 1.375 4 3.718 1.938 2.344 3.25 5.125t1.375 5.532q.063 1.687-.625 3.343-.687 1.657-3.125 2.344-2.062.625-4.719.688-2.656.062-5.593.125"/><path d="m38.875 22.625 3.625-10.25q1.313 1.5 3.406 2.656t5.781 1.094q2.375-.062 4.125-.219 1.75-.156 2.188-.469.5-.312.469-.718-.032-.407-.532-.282-1.5.25-3.812.47-2.312.218-4.719-.095-2.406-.312-4.156-1.5-1.562-1.062-2.562-2.78-1-1.72-1-3.782 0-2.125.843-4.344.844-2.219 2.375-4.094t3.625-3.03 4.594-1.157q2.688 0 4.969 1.844T62.03.938t2.563 6.968.906 7.907q0 2-1.687 3.406t-4.375 2.312-5.844 1.344-6.156.5-5.313-.156-3.25-.594ZM52.938 5.063q.75 0 .75-.813 0-.312-.22-.531-.218-.219-.53-.219-.813 0-.813.75 0 .813.813.813m54.437 26.562q-6.75 0-10.469-1.25T91.25 26.5q-.5-.687-.125-1.062t.875-.375q.688 0 1.75-.688t2.063-1.625 1.374-1.625q.313-.562.938-.281t1.063.656q1.562 1.375 3.906 2.094t4.75.937q2.406.22 4.28.157 1.876-.063 2.563-.188.75-.125.72-.656-.032-.531-.657-.469-3.375.25-6.25.094t-5.062-1.031-3.407-2.813-1.219-5.187q0-2.063.626-4.188.624-2.125 1.874-3.937 1.25-1.813 3.22-2.938 1.968-1.125 4.593-1.125 3.313 0 5.188 1.125t3.625 3.375q1.562 2 2.125 4.125t.937 3.188q.313.812.938 1.468.625.657 1.687.657V23q0 3.875-2.125 5.719t-5.812 2.375-8.313.531m3-17.812q.75 0 .75-.813 0-.312-.219-.531t-.531-.219q-.812 0-.812.75 0 .813.812.813"/><path d="M118.25 23V10.563h1.813q2.312 5.687 10.5 5.562L122.625 23z"/><path d="M122.75 23v-6.875h4.438q2.374 0 4.53-.062 2.157-.063 3.688-.22 1.531-.155 1.969-.405.5-.313.469-.72-.031-.405-.531-.28-1.5.25-3.813.468-2.312.22-4.719-.094-2.406-.312-4.156-1.5-1.562-1.062-2.562-2.78-1-1.72-1-3.782 0-2.125.843-4.344.844-2.218 2.375-4.094 1.532-1.874 3.625-3.03Q130-5.876 132.5-5.876q2.688 0 4.969 1.844t3.937 4.969 2.563 6.969.906 7.906q0 2.187-1.375 3.593t-3.687 2.157-5.22 1.062q-2.905.313-5.968.375-3.062.063-5.875 0Zm9.563-17.937q.75 0 .75-.813 0-.312-.22-.531-.218-.219-.53-.219-.813 0-.813.75 0 .813.813.813m50 17.937Q170 22.688 170 14.188q0-3.813 3.25-7.188t10-5.25q-.125-1.25.188-1.5.125-.187.5-.312t1-.563q1.187-.875 1.843-1.844t1.22-2.344q.312-.687.75-.625.437.063.624.813.438 1.5.75 3.781.313 2.281.469 4.844.156 2.562.25 4.969.094 2.406.156 4.219.063 1.062.25 2 .188.937.75.937V23q-2 .125-4.312.094T182.313 23m1.75-9.625q.75 0 .75-.812 0-.313-.22-.532-.218-.219-.53-.219-.813 0-.813.75 0 .813.813.813"/><path d="M189.563 23V6.5h1q.125 4.688 3.062 7.188 2.938 2.5 8.25 2.437L193.938 23z"/><path d="M193.75 23v-6.875h4.438q2.375 0 4.53-.062 2.157-.063 3.688-.22 1.531-.155 1.969-.405.5-.313.469-.72-.031-.405-.531-.28-1.5.25-3.813.468-2.312.22-4.719-.094-2.406-.312-4.156-1.5-1.562-1.062-2.562-2.78-1-1.72-1-3.782 0-2.125.843-4.344.844-2.218 2.375-4.094 1.532-1.874 3.625-3.03Q201-5.876 203.5-5.876q2.688 0 4.969 1.844t3.937 4.969 2.563 6.969.906 7.906q0 2.187-1.375 3.593t-3.687 2.157-5.22 1.062q-2.905.313-5.968.375-3.062.063-5.875 0Zm9.563-17.937q.75 0 .75-.813 0-.312-.22-.531-.218-.219-.53-.219-.813 0-.813.75 0 .813.813.813m48.375 18.25q-3.813-.063-6.438-.407t-3.625-1.156q-.687-.5-.625-1t.813-.5q.375 0 .718-.219.344-.218.594-.468.563-.563 1.406-1.657.844-1.093 1.531-2.218.688-1.063 2.188-.188.688.375 2.125.563t3.063.312q.437 0 1 .031t1.218.063q.656.03 1.438.062.781.031 1.656.063l1.844.062q.969.031 2.031.031t2.188.032 2.28.03h2.407q1.25 0 2.5-.03 1.25-.032 2.562-.063l2.657-.062q1.343-.032 2.687-.094 1.344-.063 2.688-.156 1.343-.094 2.656-.157 1.375-.125 1.625-.343.25-.22.125-.594-.063-.125-.219-.25t-.656-.063q-.75.063-1.656.125-.907.063-1.97.125-1.062.063-2.218.125-1.156.063-2.406.094l-2.563.063-2.656.062q-1.344.031-2.75.031h-2.781q-1.375 0-2.719-.03-1.344-.032-2.656-.032t-2.563-.063q-1.25-.062-2.375-.125-1.125-.062-2.156-.125-1.031-.062-1.937-.156t-1.656-.219q-1.563-.187-2.157-.687t.031-1.375q2.125-2.813 4.188-5.656 2.063-2.844 3.813-5.782.312-.5.718-.312.406.187.156.75l-.78 1.75Q256.5 4.687 256 5.844t-.75 1.781q.875.062 1.844.156t2 .156 2.156.094l2.281.063q1.156.03 2.375.03h7.594q1.313 0 2.625-.03l2.594-.063 2.562-.062 2.563-.063 2.5-.062q1.219-.032 2.375-.094 1.156-.063 2.281-.063 1.125-.062 1.531.47.406.53.97 1.843.75 1.687 1.655 4.062.906 2.375.97 5.438.062 1.25-1.032 2.125t-2.219 1q-1.375.125-2.781.219t-2.781.156l-2.75.125q-1.375.062-2.75.094-1.375.031-2.72.094-1.343.062-2.718.062t-2.719.031-2.719.031h-8.188q-1.374 0-2.75-.03-1.374-.032-2.75-.032-1.374 0-2.78-.031t-2.781-.031m19.437.125 21.25-7.313h3.313V23q-5.563.188-11.844.313t-12.72.125"/><path d="M292.25 23V10.563h1.813q2.312 5.687 10.5 5.562L296.625 23z"/><path d="M296.75 23v-6.875h4.438q2.375 0 4.53-.062 2.157-.063 3.688-.22 1.531-.155 1.969-.405.5-.313.469-.72-.031-.405-.531-.28-1.5.25-3.813.468-2.312.22-4.719-.094-2.406-.312-4.156-1.5-1.562-1.062-2.562-2.78-1-1.72-1-3.782 0-2.125.843-4.344.844-2.218 2.375-4.094 1.532-1.874 3.625-3.03Q304-5.876 306.5-5.876q2.688 0 4.969 1.844t3.937 4.969 2.563 6.969.906 7.906q0 2.187-1.375 3.593t-3.687 2.157-5.22 1.062q-2.905.313-5.968.375-3.062.063-5.875 0Zm9.563-17.937q.75 0 .75-.813 0-.312-.22-.531-.218-.219-.53-.219-.813 0-.813.75 0 .813.813.813m50.75 25.562q-.813 0-2.407-.125t-3.406-.594-3.469-1.437q-1.656-.97-2.719-2.563T344 21.812q0-4.5 2.438-7.593 2.437-3.094 5.75-4.47 2.187-.874 3.593-.468t3.156 2.156q1.25 1.25 2.532 2.375 1.28 1.125 2.656 1.969 1.375.844 2.937 1.156 1.563.313 3.313-.125l1.437 4.25q-2.437-1.625-5.03-4.281-2.595-2.656-4.657-5.344-.437-.562-.562-1.094-.125-.53.437-.906.938-.625 2.094-1.531t1.781-2.969q.188-.625.844-.687t1.156.5q1.625 1.75 3.25 3.812 1.625 2.063 3.188 3.906 1.562 1.844 3.156 3.094T380.688 17q3.437.312 7.593.312t9.844-.437q.688-.063.906.437.22.5-.344.938-1.375 1-2.218 1.75-.844.75-2.094 1.687-.875.625-1.563 1.094t-1.687.469-2.938.031-4.468.063q-2.532.03-5.438.062-2.906.031-5.844.031h-5.625q-3.625 0-6.687-.5T355 21.062t-2.688-3.937q-.062-.5-.687-.344t-.563.719q.438 2.562 2.032 4.03Q354.687 23 357 23.626q2.312.625 4.875.812 3 .188 6.375.188t6.375-.063 4.969-.156 2.218-.094q.813 0 .72.438-.095.437-.595.625-2 .687-5.562 1.968-3.563 1.282-8.438 2.282t-10.875 1Z"/><path d="M368.5 16.25V5.375q1.313 1.5 3.406 2.656t5.781 1.094q2.375-.062 4.125-.219 1.75-.156 2.188-.469.5-.312.469-.718-.031-.407-.531-.282-1.5.25-3.813.47-2.312.218-4.719-.095-2.406-.312-4.156-1.5-1.562-1.062-2.562-2.78-1-1.72-1-3.782 0-2.125.843-4.344.844-2.219 2.375-4.094t3.625-3.03 4.594-1.157q2.688 0 4.969 1.844t3.937 4.969 2.563 6.968.906 7.907q0 2-1.625 3.375t-4.25 2.28-5.719 1.345-6.094.53q-3 .095-5.312-.093m10.438-18.187q.75 0 .75-.813 0-.312-.22-.531-.218-.219-.53-.219-.813 0-.813.75 0 .813.813.813m55.75 25.437q-2.813.063-4.782-.25-1.969-.312-3.28-1.062-.626-.375-.595-.813t.781-.75q1.25-.562 2.125-1.812t1.25-2.688q.188-.812.532-.781t.719.219q1.812.812 3.25.968 1.437.157 3.5.22 1.937.062 3.75.062t3.437.03l3.125.063q1.5.032 2.938.032h10.687q1.312 0 2.656-.032 1.344-.03 2.781-.03t2.938-.032 3.125-.062 3.437-.063 3.75-.094q.125-1.687-.28-3.656-.407-1.969-2.47-3.594-.687-.5-.562-1.281t.937-.781q1.438 0 3.375-1.594t3.25-4.219q.313-.687.938-.781t.687.969q.188 2.437.375 5.156.188 2.719.25 6.344.063 1 .25 1.969.188.968.75.968V23h-5.468q-2.594 0-4.938.032-2.344.03-4.5.03t-4.156.032-3.844.062-3.562.032q-1.72 0-3.375.03l-3.282.063q-1.625.032-3.218.032-1.594 0-3.188.03-1.594.032-3.25.063t-3.406.031-3.594.032-3.844.03Z"/><path d="M486.563 23V6.5h1q.125 4.688 3.062 7.188 2.938 2.5 8.25 2.437L490.938 23z"/><path d="M490.75 23v-6.875h4.438q2.375 0 4.53-.062 2.157-.063 3.688-.22 1.531-.155 1.969-.405.5-.313.469-.72-.031-.405-.531-.28-1.5.25-3.813.468-2.312.22-4.719-.094-2.406-.312-4.156-1.5-1.562-1.062-2.562-2.78-1-1.72-1-3.782 0-2.125.843-4.344.844-2.218 2.375-4.094 1.532-1.874 3.625-3.03Q498-5.876 500.5-5.876q2.688 0 4.969 1.844t3.937 4.969 2.563 6.969.906 7.906q0 2.187-1.375 3.593t-3.687 2.157-5.22 1.062q-2.905.313-5.968.375-3.062.063-5.875 0Zm9.563-17.937q.75 0 .75-.813 0-.312-.22-.531-.218-.219-.53-.219-.813 0-.813.75 0 .813.813.813m55.562 18.75q-5.312.062-9.031-.47-3.719-.53-5.531-2.218-2-1.813-2.5-5.063t-.375-7.437q.125-3.375.218-7.594.094-4.219.063-8.375t-.344-7.281q0-.25-.062-.688-.313-2.75-.282-3.78.032-1.032.782-1.532 1.25-.75 2.375-1.812t2.062-2.75q.313-.5.781-.438.47.063.532 1 .25 4.063.187 9.063-.062 5-.25 9.75-.125 4.875-.187 8.875-.063 4 .312 5.874.625 3 2.625 4.782 2 1.78 4.938 2.594 2.937.812 6.343.906t6.782-.282q.562-.062.593-.593.032-.532-.656-.47-8.875.876-13.156-.812-4.281-1.687-4.906-5.375-.625-4.125.718-7.656 1.344-3.531 4.282-5.687t7-2.094q2.75 0 5.25 1.656T568.875.47t3.031 6.718T573 15.375q0 3.062-1.5 4.875-1.5 1.812-5.219 2.625-3.718.812-10.406.937Zm5-17.375q.75 0 .75-.813 0-.312-.219-.531t-.531-.219q-.812 0-.812.75 0 .813.812.813"/></svg>