<?xml version='1.0' encoding='ASCII'?>
<svg xmlns="http://www.w3.org/2000/svg" width="601" height="193" preserveAspectRatio="xMinYMin slice" viewBox="-5 -28 601 193" version="1.1">
  <path d="M-5,-28 v193 h601 v-193 Z" fill="#000000" transform="matrix(1,0,0,-1,0,137)"/>
  <path d="M14.625,-25.1875 q-1.5625,-0.625 -3.7812,-0.875 q-2.2188,-0.25 -4.5938,-0.0625 q-2.375,0.1875 -4.5312,0.7812 q-2.1562,0.5938 -3.5938,1.5938 q-0.5625,0.375 -0.6562,0.875 q-0.0938,0.5 0.5938,0.75 q1.125,0.5 2.4062,1.8438 q1.2812,1.3438 2.5938,3.2812 q0.1875,0.3125 0.4375,0.25 q0.25,-0.0625 0.4375,-0.1875 q1.3125,-0.6875 3.0625,-1.125 q1.75,-0.4375 5.0625,-0.375 q0.125,3.5625 0.125,6.5312 q0,2.9688 -0.0625,5.2812 q0,0.4375 0,0.625 q-0.0625,3.8125 -1.3438,5.6562 q-1.2812,1.8438 -3.75,2.6875 q-2.4688,0.8438 -6.1562,1.5938 q-0.8125,0.1875 -0.8438,0.7188 q-0.0312,0.5312 0.7188,0.7188 q2.1875,0.625 3.8438,2.4375 q1.6562,1.8125 2.2812,4.25 q0.125,0.5 0.4375,0.75 q0.3125,0.25 0.9375,-0.0625 q3.5,-1.9375 5.5,-3.875 q2,-1.9375 2.9062,-4.3438 q0.9062,-2.4062 0.9688,-5.9062 q0.0625,-2.25 0.0625,-5.0938 q0,-2.8438 -0.0312,-5.5938 q-0.0312,-2.75 -0.0938,-4.875 q0,-0.5 0,-0.75 q0,-1.3125 -0.2812,-2.875 q-0.2812,-1.5625 -0.9062,-2.8438 q-0.625,-1.2812 -1.75,-1.7812 Z" fill="#D3D3D3" transform="matrix(1,0,0,-1,134.5,137)"/>
  <path d="M-2.625,1.625 l-1.75,9.25 q1.5,-1 2.6562,-1.8438 q1.1562,-0.8438 2.5625,-1.4062 q1.4062,-0.5625 3.5312,-0.75 v-5.25 h-7 Z" fill="#D3D3D3" transform="matrix(1,0,0,-1,150.5,137)"/>
  <path d="M-1.25,0 v6.875 q2.0625,0 4.4375,0 q2.375,0 4.5312,0.0625 q2.1562,0.0625 3.6875,0.2188 q1.5312,0.1562 1.9688,0.4062 q0.5,0.3125 0.4688,0.7188 q-0.0312,0.4062 -0.5312,0.2812 q-1.5,-0.25 -3.8125,-0.4688 q-2.3125,-0.2188 -4.7188,0.0938 q-2.4062,0.3125 -4.1562,1.5 q-1.5625,1.0625 -2.5625,2.7812 q-1,1.7188 -1,3.7812 q0,2.125 0.8438,4.3438 q0.8438,2.2188 2.375,4.0938 q1.5312,1.875 3.625,3.0312 q2.0938,1.1562 4.5938,1.1562 q2.6875,0 4.9688,-1.8438 q2.2812,-1.8438 3.9375,-4.9688 q1.6562,-3.125 2.5625,-6.9688 q0.9062,-3.8438 0.9062,-7.9062 q0,-2.1875 -1.375,-3.5938 q-1.375,-1.4062 -3.6875,-2.1562 q-2.3125,-0.75 -5.2188,-1.0625 q-2.9062,-0.3125 -5.9688,-0.375 q-3.0625,-0.0625 -5.875,0 Z M8.3125,17.9375 q0.75,0 0.75,0.8125 q0,0.3125 -0.2188,0.5312 q-0.2188,0.2188 -0.5312,0.2188 q-0.8125,0 -0.8125,-0.75 q0,-0.8125 0.8125,-0.8125 Z" fill="#D3D3D3" transform="matrix(1,0,0,-1,149.5,137)"/>
  <path d="" fill="#D3D3D3" transform="matrix(1,0,0,-1,170.5,137)"/>
  <path d="M14.1875,-17.375 q-2.3125,0.3125 -3.5938,0.7188 q-1.2812,0.4062 -2.2188,0.9062 q-1.25,0.6875 -1.1875,1.4688 q0.0625,0.7812 0.75,0.7812 q0.5,0 1.375,0.7188 q0.875,0.7188 1.875,1.8125 q1,1.0938 1.875,2.1562 q0.4375,0.5 1.0312,0.4375 q0.5938,-0.0625 0.9688,-0.3125 q1.4375,-0.875 4.3438,-1.3438 q2.9062,-0.4688 7.4688,-0.1562 q0,0.875 -1.4375,0.875 q-2.8125,0 -5.0625,0.2812 q-2.25,0.2812 -3.4375,0.7812 q-1.75,0.6875 -1.8438,2.0312 q-0.0938,1.3438 0.2812,2.0938 q0.5,1.0625 1.125,2.125 q0.625,1.0625 1.1875,2.125 q-0.875,-0.0625 -1.9688,-0.0938 q-1.0938,-0.0312 -2.4062,-0.0312 q-4.5625,0 -7.5,1.375 q-2.9375,1.375 -4.375,3.625 q-1.4375,2.25 -1.4375,4.9375 q0,3.375 1.4375,6.2812 q1.4375,2.9062 4.0625,4.6875 q2.625,1.7812 6.125,1.7812 q2.4375,0 4.5,-1.625 q2.0625,-1.625 3.625,-4.1562 q1.5625,-2.5312 2.4375,-5.2188 q0.875,-2.6875 0.9375,-4.8125 h0.1875 v-6.875 h-1.5625 q-0.125,-0.25 -0.1875,-0.4375 q1.125,-0.9375 2.9062,-1.125 q1.7812,-0.1875 3.7188,-0.1875 q0.875,-0.0625 1.6875,-0.0938 q0.8125,-0.0312 1.625,-0.0938 q0.875,-0.0625 1.6875,-1.0312 q0.8125,-0.9688 1.0625,-1.8438 q0.5625,-1.625 0.9688,-3.5 q0.4062,-1.875 0.4062,-4 q0,-1.25 -0.75,-2.5625 q-0.75,-1.3125 -1.875,-1.5625 q-3.4375,-0.75 -6.9688,-1.0312 q-3.5312,-0.2812 -6.5938,-0.2188 q-3.0625,0.0625 -5.25,0.3125 Z M11.8125,11.125 q0.75,0 0.75,0.8125 q0,0.3125 -0.2188,0.5312 q-0.2188,0.2188 -0.5312,0.2188 q-0.8125,0 -0.8125,-0.75 q0,-0.8125 0.8125,-0.8125 Z M20.4375,3.5625 v0.125 q0,-0.0625 0,-0.125 Z" fill="#D3D3D3" transform="matrix(1,0,0,-1,195.5,137)"/>
  <path d="M-3.75,0 v12.4375 h1.8125 q2.3125,-5.6875 10.5,-5.5625 l-7.9375,-6.875 h-4.375 Z" fill="#D3D3D3" transform="matrix(1,0,0,-1,219.5,137)"/>
  <path d="M-1.25,0 v6.875 q2.0625,0 4.4375,0 q2.375,0 4.5312,0.0625 q2.1562,0.0625 3.6875,0.2188 q1.5312,0.1562 1.9688,0.4062 q0.5,0.3125 0.4688,0.7188 q-0.0312,0.4062 -0.5312,0.2812 q-1.5,-0.25 -3.8125,-0.4688 q-2.3125,-0.2188 -4.7188,0.0938 q-2.4062,0.3125 -4.1562,1.5 q-1.5625,1.0625 -2.5625,2.7812 q-1,1.7188 -1,3.7812 q0,2.125 0.8438,4.3438 q0.8438,2.2188 2.375,4.0938 q1.5312,1.875 3.625,3.0312 q2.0938,1.1562 4.5938,1.1562 q2.6875,0 4.9688,-1.8438 q2.2812,-1.8438 3.9375,-4.9688 q1.6562,-3.125 2.5625,-6.9688 q0.9062,-3.8438 0.9062,-7.9062 q0,-2.1875 -1.375,-3.5938 q-1.375,-1.4062 -3.6875,-2.1562 q-2.3125,-0.75 -5.2188,-1.0625 q-2.9062,-0.3125 -5.9688,-0.375 q-3.0625,-0.0625 -5.875,0 Z M8.3125,17.9375 q0.75,0 0.75,0.8125 q0,0.3125 -0.2188,0.5312 q-0.2188,0.2188 -0.5312,0.2188 q-0.8125,0 -0.8125,-0.75 q0,-0.8125 0.8125,-0.8125 Z" fill="#D3D3D3" transform="matrix(1,0,0,-1,221.5,137)"/>
  <path d="" fill="#D3D3D3" transform="matrix(1,0,0,-1,242.5,137)"/>
  <path d="M11.375,-20.75 q-2.3125,-0.25 -5.2188,-0.1562 q-2.9062,0.0938 -5.4688,0.625 q-2.5625,0.5312 -3.9375,1.5312 q-0.5,0.375 -0.5938,0.875 q-0.0938,0.5 0.5938,0.75 q1.125,0.5 2.5312,1.8438 q1.4062,1.3438 2.4688,3.2812 q0.125,0.3125 0.4062,0.25 q0.2812,-0.0625 0.4688,-0.1875 q0.9375,-0.75 3.75,-0.9688 q2.8125,-0.2188 6.9375,0.7188 l-3.875,-3.3125 q0.3125,4.8125 0.375,9.5 q0.0625,4.6875 -0.1875,7.75 q-0.25,3.25 -1.5312,5.0938 q-1.2812,1.8438 -3.2188,3.0312 q-1.9375,1.1875 -4.1875,2.3125 q-0.75,0.375 -0.7188,0.875 q0.0312,0.5 1.2188,0.6875 q1.8125,0.3125 3.1562,1.9688 q1.3438,1.6562 1.5938,4.1562 q0.0625,0.5 0.3438,0.5 q0.2812,0 0.9062,-0.125 q3.875,-1.0625 5.8438,-4.8438 q1.9688,-3.7812 2.3438,-9.0312 q0.25,-3.375 0.25,-7.1562 q0,-3.7812 -0.0312,-6.9375 q-0.0312,-3.1562 -0.0312,-4.7188 q0.0625,-2.25 -0.1875,-3.75 q-0.25,-1.5 -0.5625,-2.375 q-0.4375,-1.3125 -1.4688,-1.6875 q-1.0312,-0.375 -1.9688,-0.5 Z M12.0625,0 l-1,16.125 q1.4375,-0.1875 2.8438,-0.3438 q1.4062,-0.1562 2.8125,-0.2812 q1.4062,-0.125 2.7812,-0.2188 q1.375,-0.0938 2.75,-0.1562 q1.375,-0.0625 2.75,-0.0938 q1.375,-0.0312 2.7188,-0.0625 q1.3438,-0.0312 2.6562,-0.0312 q1.3125,0 2.625,0 q1.3125,0 2.5938,0.0312 q1.2812,0.0312 2.5625,0.0625 q1.2812,0.0312 2.5,0.0625 q1.2188,0.0312 2.4375,0.0625 q1.2188,0.0312 2.4062,0.0625 q1.1875,0.0312 2.3125,0.0938 q1.125,0.0625 2.25,0.0625 q1.125,0.0625 1.5312,-0.4688 q0.4062,-0.5312 0.9688,-1.8438 q0.75,-1.6875 1.6562,-4.0625 q0.9062,-2.375 0.9688,-5.4375 q0.0625,-1.25 -1.0312,-2.125 q-1.0938,-0.875 -2.2188,-1 q-1.375,-0.125 -2.7812,-0.2188 q-1.4062,-0.0938 -2.8438,-0.1562 q-1.4375,-0.0625 -2.8438,-0.125 q-1.4062,-0.0625 -2.8125,-0.0938 q-1.4062,-0.0312 -2.8125,-0.0625 q-1.4062,-0.0312 -2.7812,-0.0312 q-1.375,0 -2.75,0 q-1.375,0 -2.75,0 q-1.375,0 -2.6875,0 q-1.3125,0 -2.625,0.0312 q-1.3125,0.0312 -2.5938,0.0312 q-1.2812,0 -2.5312,0.0312 q-1.25,0.0312 -2.4375,0.0625 q-1.1875,0.0312 -2.3438,0.0625 q-1.1562,0.0312 -2.2812,0.0312 Z M44.3125,6.875 q1.375,0.125 1.625,0.3438 q0.25,0.2188 0.125,0.5938 q-0.0625,0.125 -0.2188,0.25 q-0.1562,0.125 -0.6562,0.0625 q-0.9375,-0.0625 -1.9062,-0.1562 q-0.9688,-0.0938 -1.9375,-0.125 q-0.9688,-0.0312 -1.9688,-0.0938 q-1,-0.0625 -1.9688,-0.0938 q-0.9688,-0.0312 -1.9375,-0.0312 q-0.9688,0 -1.9375,0 q-0.9688,0 -1.9688,0 q-1,0 -2,0 q-1,0 -2,0.0312 q-1,0.0312 -2,0.0625 q-1,0.0312 -2,0.0312 q-1,0 -2.0312,0.0312 q-1.0312,0.0312 -2.0625,0.0625 q-1.0312,0.0312 -2.0938,0.0938 q-1.0625,0.0625 -2.125,0.0625 q0.125,-0.375 0.4062,-0.6875 q0.2812,-0.3125 1.0938,-0.375 q0.5625,0 1.2188,-0.0312 q0.6562,-0.0312 1.375,-0.0625 q0.7188,-0.0312 1.5,-0.0625 q0.7812,-0.0312 1.5938,-0.0625 q0.8125,-0.0312 1.6875,-0.0625 q0.875,-0.0312 1.7812,-0.0625 q0.9062,-0.0312 1.875,-0.0312 q0.9688,0 1.9375,-0.0312 q0.9688,-0.0312 2,-0.0312 q1.0312,0 2.0625,0 q1.0312,0 2.0625,0.0312 q1.0312,0.0312 2.0938,0.0625 q1.0625,0.0312 2.125,0.0625 q1.0625,0.0312 2.125,0.0938 q1.0625,0.0625 2.125,0.125 Z M29.6875,0 l21.4375,6.875 h3.625 v-6.875 h-25.0625 Z" fill="#D3D3D3" transform="matrix(1,0,0,-1,267.5,137)"/>
  <path d="M-3.75,0 v12.4375 h1.8125 q2.3125,-5.6875 10.5,-5.5625 l-7.9375,-6.875 h-4.375 Z" fill="#D3D3D3" transform="matrix(1,0,0,-1,322.5,137)"/>
  <path d="M-1.25,0 v6.875 q2.0625,0 4.4375,0 q2.375,0 4.5312,0.0625 q2.1562,0.0625 3.6875,0.2188 q1.5312,0.1562 1.9688,0.4062 q0.5,0.3125 0.4688,0.7188 q-0.0312,0.4062 -0.5312,0.2812 q-1.5,-0.25 -3.8125,-0.4688 q-2.3125,-0.2188 -4.7188,0.0938 q-2.4062,0.3125 -4.1562,1.5 q-1.5625,1.0625 -2.5625,2.7812 q-1,1.7188 -1,3.7812 q0,2.125 0.8438,4.3438 q0.8438,2.2188 2.375,4.0938 q1.5312,1.875 3.625,3.0312 q2.0938,1.1562 4.5938,1.1562 q2.6875,0 4.9688,-1.8438 q2.2812,-1.8438 3.9375,-4.9688 q1.6562,-3.125 2.5625,-6.9688 q0.9062,-3.8438 0.9062,-7.9062 q0,-2.1875 -1.375,-3.5938 q-1.375,-1.4062 -3.6875,-2.1562 q-2.3125,-0.75 -5.2188,-1.0625 q-2.9062,-0.3125 -5.9688,-0.375 q-3.0625,-0.0625 -5.875,0 Z M8.3125,17.9375 q0.75,0 0.75,0.8125 q0,0.3125 -0.2188,0.5312 q-0.2188,0.2188 -0.5312,0.2188 q-0.8125,0 -0.8125,-0.75 q0,-0.8125 0.8125,-0.8125 Z" fill="#D3D3D3" transform="matrix(1,0,0,-1,324.5,137)"/>
  <path d="" fill="#D3D3D3" transform="matrix(1,0,0,-1,345.5,137)"/>
  <path d="M8.6875,-0.5 q-5.625,-0.0625 -8.0625,1.3125 q-0.625,0.375 -0.5938,0.8125 q0.0312,0.4375 0.7812,0.75 q1.25,0.5625 2.125,1.8125 q0.875,1.25 1.25,2.6875 q0.1875,0.8125 0.5312,0.7812 q0.3438,-0.0312 0.7188,-0.2188 q1.25,-0.5625 2.25,-0.8125 q1,-0.25 2.0625,-0.2812 q1.0625,-0.0312 2.4375,-0.0938 q1.5625,0 2.9688,-0.0312 q1.4062,-0.0312 2.6562,-0.0625 q1.25,-0.0312 2.4375,-0.0625 q1.1875,-0.0312 2.3438,-0.0312 q1.1562,0 2.2812,-0.0312 q1.125,-0.0312 2.2812,-0.0312 q1.1562,0 2.4062,0 q1.25,0 2.5938,0 q1.3438,0 2.8438,0.0312 q1.5,0.0312 3.1875,0.0312 q1.6875,0 3.625,0.0312 q1.9375,0.0312 4.125,0.0625 q2.1875,0.0312 4.6875,0.0938 l-3.25,-2.375 q-1.8125,1.125 -3.5938,2.5312 q-1.7812,1.4062 -2.9375,3.375 q-1.1562,1.9688 -1.1562,4.6562 q0,3.375 1.7188,5.9375 q1.7188,2.5625 4.4062,4 q2.6875,1.4375 5.5625,1.4375 q2.9375,0 5.4062,-1.7188 q2.4688,-1.7188 3.9688,-4.8438 q1.5,-3.125 1.5,-7.5 q0,-1.375 -0.0938,-3.7812 q-0.0938,-2.4062 -0.2188,-5.0312 l-4,3.9375 h4.375 v-6.875 q-3.0625,0 -5.8438,0 q-2.7812,0 -5.2812,-0.0312 q-2.5,-0.0312 -4.7812,-0.0625 q-2.2812,-0.0312 -4.375,-0.0312 q-2.0938,0 -4.0312,-0.0312 q-1.9375,-0.0312 -3.75,-0.0625 q-1.8125,-0.0312 -3.5625,-0.0312 q-1.75,0 -3.4688,-0.0312 q-1.7188,-0.0312 -3.4375,-0.0625 q-1.7188,-0.0312 -3.5,-0.0625 q-1.7812,-0.0312 -3.625,-0.0312 q-1.8438,0 -3.8438,-0.0312 q-2,-0.0312 -4.125,-0.0312 Z M51.75,14.875 q0.75,0 0.75,0.8125 q0,0.3125 -0.2188,0.5312 q-0.2188,0.2188 -0.5312,0.2188 q-0.8125,0 -0.8125,-0.75 q0,-0.8125 0.8125,-0.8125 Z" fill="#D3D3D3" transform="matrix(1,0,0,-1,370.5,137)"/>
  <path d="M-1.4375,0 v16.5 h1 q0.125,-4.6875 3.0625,-7.1875 q2.9375,-2.5 8.25,-2.4375 l-7.9375,-6.875 h-4.375 Z" fill="#D3D3D3" transform="matrix(1,0,0,-1,432.5,137)"/>
  <path d="M-1.25,0 v6.875 q2.0625,0 4.4375,0 q2.375,0 4.5312,0.0625 q2.1562,0.0625 3.6875,0.2188 q1.5312,0.1562 1.9688,0.4062 q0.5,0.3125 0.4688,0.7188 q-0.0312,0.4062 -0.5312,0.2812 q-1.5,-0.25 -3.8125,-0.4688 q-2.3125,-0.2188 -4.7188,0.0938 q-2.4062,0.3125 -4.1562,1.5 q-1.5625,1.0625 -2.5625,2.7812 q-1,1.7188 -1,3.7812 q0,2.125 0.8438,4.3438 q0.8438,2.2188 2.375,4.0938 q1.5312,1.875 3.625,3.0312 q2.0938,1.1562 4.5938,1.1562 q2.6875,0 4.9688,-1.8438 q2.2812,-1.8438 3.9375,-4.9688 q1.6562,-3.125 2.5625,-6.9688 q0.9062,-3.8438 0.9062,-7.9062 q0,-2.1875 -1.375,-3.5938 q-1.375,-1.4062 -3.6875,-2.1562 q-2.3125,-0.75 -5.2188,-1.0625 q-2.9062,-0.3125 -5.9688,-0.375 q-3.0625,-0.0625 -5.875,0 Z M8.3125,17.9375 q0.75,0 0.75,0.8125 q0,0.3125 -0.2188,0.5312 q-0.2188,0.2188 -0.5312,0.2188 q-0.8125,0 -0.8125,-0.75 q0,-0.8125 0.8125,-0.8125 Z" fill="#D3D3D3" transform="matrix(1,0,0,-1,436.5,137)"/>
  <path d="M20.6875,-20.8125 q-5.6875,0 -9.5938,2.0938 q-3.9062,2.0938 -5.1562,5.7812 q-1,3.125 -0.3438,7.25 q0.6562,4.125 2.2188,9.0625 q-1.375,2 -3.4688,3.75 q-2.0938,1.75 -4.0938,3.8125 q-0.375,0.4375 -0.25,0.9688 q0.125,0.5312 0.5625,0.7812 q1.1875,0.8125 2.0938,1.6562 q0.9062,0.8438 2.0938,2.7812 q0.25,0.375 0.5938,0.2812 q0.3438,-0.0938 0.6562,-0.4062 q0.6875,-0.6875 1.5312,-1.4688 q0.8438,-0.7812 1.7188,-1.7188 q-0.0625,0.875 -0.1875,1.8125 q-0.0625,0.8125 0.625,1.25 q1.8125,1.1875 2.8125,2.1875 q1,1 2.25,3.125 q0.4375,0.6875 0.7188,0.5625 q0.2812,-0.125 0.3438,-0.875 q0.3125,-4.125 0.4688,-7.1562 q0.1562,-3.0312 0.2188,-4.9688 q0.0625,-1 0.25,-1.9375 q0.1875,-0.9375 0.75,-0.9375 v-6.875 h-5.5 q-1.0625,-4.3125 -0.125,-7.2188 q0.9375,-2.9062 3.3438,-4.6562 q2.4062,-1.75 5.7812,-2.4062 q3.375,-0.6562 7.3125,-0.375 q3.9375,0.2812 7.9375,1.4062 q0.5,0.125 0.7812,-0.0625 q0.2812,-0.1875 -0.2188,-0.9375 q-1.25,-1.75 -3.1875,-3.25 q-1.9375,-1.5 -5.0312,-2.4062 q-3.0938,-0.9062 -7.9062,-0.9062 Z" fill="#D3D3D3" transform="matrix(1,0,0,-1,-1,80)"/>
  <path d="M-1.4375,0 v16.5 h1 q0.125,-4.6875 3.0625,-7.1875 q2.9375,-2.5 8.25,-2.4375 l-7.9375,-6.875 h-4.375 Z" fill="#D3D3D3" transform="matrix(1,0,0,-1,16,80)"/>
  <path d="M-1.25,0 v6.875 q2.0625,0 4.4375,0 q2.375,0 4.5312,0.0625 q2.1562,0.0625 3.6875,0.2188 q1.5312,0.1562 1.9688,0.4062 q0.5,0.3125 0.4688,0.7188 q-0.0312,0.4062 -0.5312,0.2812 q-1.5,-0.25 -3.8125,-0.4688 q-2.3125,-0.2188 -4.7188,0.0938 q-2.4062,0.3125 -4.1562,1.5 q-1.5625,1.0625 -2.5625,2.7812 q-1,1.7188 -1,3.7812 q0,2.125 0.8438,4.3438 q0.8438,2.2188 2.375,4.0938 q1.5312,1.875 3.625,3.0312 q2.0938,1.1562 4.5938,1.1562 q2.6875,0 4.9688,-1.8438 q2.2812,-1.8438 3.9375,-4.9688 q1.6562,-3.125 2.5625,-6.9688 q0.9062,-3.8438 0.9062,-7.9062 q0,-2.1875 -1.375,-3.5938 q-1.375,-1.4062 -3.6875,-2.1562 q-2.3125,-0.75 -5.2188,-1.0625 q-2.9062,-0.3125 -5.9688,-0.375 q-3.0625,-0.0625 -5.875,0 Z M8.3125,17.9375 q0.75,0 0.75,0.8125 q0,0.3125 -0.2188,0.5312 q-0.2188,0.2188 -0.5312,0.2188 q-0.8125,0 -0.8125,-0.75 q0,-0.8125 0.8125,-0.8125 Z" fill="#D3D3D3" transform="matrix(1,0,0,-1,20,80)"/>
  <path d="" fill="#D3D3D3" transform="matrix(1,0,0,-1,41,80)"/>
  <path d="M15.125,-27.25 q-1.5625,-0.625 -3.7812,-0.875 q-2.2188,-0.25 -4.5938,-0.0625 q-2.375,0.1875 -4.5312,0.7812 q-2.1562,0.5938 -3.5938,1.5938 q-0.5625,0.375 -0.6562,0.875 q-0.0938,0.5 0.5938,0.75 q1.125,0.5 2.4062,1.8438 q1.2812,1.3438 2.5938,3.2812 q0.1875,0.3125 0.4375,0.25 q0.25,-0.0625 0.4375,-0.1875 q1.4375,-0.8125 3.2812,-1.2188 q1.8438,-0.4062 4.9062,-0.2188 q0.3125,4.625 0.2188,8.375 q-0.0938,3.75 -0.4688,6.5 q-0.5,3.8125 -1.7812,5.6562 q-1.2812,1.8438 -3.6562,2.6875 q-2.375,0.8438 -6.0625,1.5938 q-0.8125,0.1875 -0.8438,0.7188 q-0.0312,0.5312 0.7188,0.7188 q2.1875,0.625 4.1875,2.4375 q2,1.8125 2.4375,4.25 q0.125,0.5 0.3125,0.5312 q0.1875,0.0312 0.6875,-0.0938 q0.0625,0 0.125,0 q2.4375,-0.5625 4.1562,-1.8438 q1.7188,-1.2812 2.9062,-3.0938 q0.375,-0.4375 0.625,-0.7188 q0.25,-0.2812 0.8125,-0.5312 q-0.25,0.75 -0.5,1.7812 q-0.25,1.0312 -0.5625,1.7812 q-0.25,0.5 0.375,0.875 q2.0625,1.125 2.75,2.4688 q0.6875,1.3438 1.5,2.5938 q0.3125,0.5 0.625,0.4688 q0.3125,-0.0312 0.4375,-0.5312 q0.75,-2.6875 1.5,-4.6562 q0.75,-1.9688 1.75,-3.0312 q-0.125,1.4375 -0.1875,2.875 q-0.0625,1.4375 -0.1875,2.3125 q0,0 0,0.0625 q-0.0625,0.3125 -0.0312,0.5938 q0.0312,0.2812 0.4062,0.5312 q1.375,0.875 2.4688,2.4688 q1.0938,1.5938 2.0312,3.4688 q0.3125,0.6875 1,0.625 q0.6875,-0.0625 0.75,-0.8125 q0.25,-3.875 0.375,-6.6875 q0.125,-2.8125 0.1875,-4.125 q0.0625,-1.0625 0.25,-2 q0.1875,-0.9375 0.75,-0.9375 v-6.875 h-14.625 q0,-0.4375 0.0625,-0.9375 q0.25,-2.9375 0.2812,-6.2188 q0.0312,-3.2812 -0.0625,-6.1875 q-0.0938,-2.9062 -0.2188,-4.9062 q0,-0.4375 -0.0312,-0.8125 q-0.0312,-0.375 -0.0312,-0.6875 q0,-1.3125 -0.2812,-2.875 q-0.2812,-1.5625 -0.9062,-2.8438 q-0.625,-1.2812 -1.75,-1.7812 Z" fill="#D3D3D3" transform="matrix(1,0,0,-1,66,80)"/>
  <path d="M-1.4375,0 v16.5 h1 q0.125,-4.6875 3.0625,-7.1875 q2.9375,-2.5 8.25,-2.4375 l-7.9375,-6.875 h-4.375 Z" fill="#D3D3D3" transform="matrix(1,0,0,-1,98,80)"/>
  <path d="M-1.25,0 v6.875 q2.0625,0 4.4375,0 q2.375,0 4.5312,0.0625 q2.1562,0.0625 3.6875,0.2188 q1.5312,0.1562 1.9688,0.4062 q0.5,0.3125 0.4688,0.7188 q-0.0312,0.4062 -0.5312,0.2812 q-1.5,-0.25 -3.8125,-0.4688 q-2.3125,-0.2188 -4.7188,0.0938 q-2.4062,0.3125 -4.1562,1.5 q-1.5625,1.0625 -2.5625,2.7812 q-1,1.7188 -1,3.7812 q0,2.125 0.8438,4.3438 q0.8438,2.2188 2.375,4.0938 q1.5312,1.875 3.625,3.0312 q2.0938,1.1562 4.5938,1.1562 q2.6875,0 4.9688,-1.8438 q2.2812,-1.8438 3.9375,-4.9688 q1.6562,-3.125 2.5625,-6.9688 q0.9062,-3.8438 0.9062,-7.9062 q0,-2.1875 -1.375,-3.5938 q-1.375,-1.4062 -3.6875,-2.1562 q-2.3125,-0.75 -5.2188,-1.0625 q-2.9062,-0.3125 -5.9688,-0.375 q-3.0625,-0.0625 -5.875,0 Z M8.3125,17.9375 q0.75,0 0.75,0.8125 q0,0.3125 -0.2188,0.5312 q-0.2188,0.2188 -0.5312,0.2188 q-0.8125,0 -0.8125,-0.75 q0,-0.8125 0.8125,-0.8125 Z" fill="#D3D3D3" transform="matrix(1,0,0,-1,102,80)"/>
  <path d="" fill="#D3D3D3" transform="matrix(1,0,0,-1,123,80)"/>
  <path d="M14.625,-25.1875 q-1.5625,-0.625 -3.7812,-0.875 q-2.2188,-0.25 -4.5938,-0.0625 q-2.375,0.1875 -4.5312,0.7812 q-2.1562,0.5938 -3.5938,1.5938 q-0.5625,0.375 -0.6562,0.875 q-0.0938,0.5 0.5938,0.75 q1.125,0.5 2.4062,1.8438 q1.2812,1.3438 2.5938,3.2812 q0.1875,0.3125 0.4375,0.25 q0.25,-0.0625 0.4375,-0.1875 q1.3125,-0.6875 3.0625,-1.125 q1.75,-0.4375 5.0625,-0.375 q0.125,3.5625 0.125,6.5312 q0,2.9688 -0.0625,5.2812 q0,0.4375 0,0.625 q-0.0625,3.8125 -1.3438,5.6562 q-1.2812,1.8438 -3.75,2.6875 q-2.4688,0.8438 -6.1562,1.5938 q-0.8125,0.1875 -0.8438,0.7188 q-0.0312,0.5312 0.7188,0.7188 q2.1875,0.625 3.8438,2.4375 q1.6562,1.8125 2.2812,4.25 q0.125,0.5 0.4375,0.75 q0.3125,0.25 0.9375,-0.0625 q3.5,-1.9375 5.5,-3.875 q2,-1.9375 2.9062,-4.3438 q0.9062,-2.4062 0.9688,-5.9062 q0.0625,-2.25 0.0625,-5.0938 q0,-2.8438 -0.0312,-5.5938 q-0.0312,-2.75 -0.0938,-4.875 q0,-0.5 0,-0.75 q0,-1.3125 -0.2812,-2.875 q-0.2812,-1.5625 -0.9062,-2.8438 q-0.625,-1.2812 -1.75,-1.7812 Z" fill="#D3D3D3" transform="matrix(1,0,0,-1,148,80)"/>
  <path d="M-2.625,1.625 l-1.75,9.25 q1.5,-1 2.6562,-1.8438 q1.1562,-0.8438 2.5625,-1.4062 q1.4062,-0.5625 3.5312,-0.75 v-5.25 h-7 Z" fill="#D3D3D3" transform="matrix(1,0,0,-1,164,80)"/>
  <path d="M-1.25,0 v6.875 q2.0625,0 4.4375,0 q2.375,0 4.5312,0.0625 q2.1562,0.0625 3.6875,0.2188 q1.5312,0.1562 1.9688,0.4062 q0.5,0.3125 0.4688,0.7188 q-0.0312,0.4062 -0.5312,0.2812 q-1.5,-0.25 -3.8125,-0.4688 q-2.3125,-0.2188 -4.7188,0.0938 q-2.4062,0.3125 -4.1562,1.5 q-1.5625,1.0625 -2.5625,2.7812 q-1,1.7188 -1,3.7812 q0,2.125 0.8438,4.3438 q0.8438,2.2188 2.375,4.0938 q1.5312,1.875 3.625,3.0312 q2.0938,1.1562 4.5938,1.1562 q2.6875,0 4.9688,-1.8438 q2.2812,-1.8438 3.9375,-4.9688 q1.6562,-3.125 2.5625,-6.9688 q0.9062,-3.8438 0.9062,-7.9062 q0,-2.1875 -1.375,-3.5938 q-1.375,-1.4062 -3.6875,-2.1562 q-2.3125,-0.75 -5.2188,-1.0625 q-2.9062,-0.3125 -5.9688,-0.375 q-3.0625,-0.0625 -5.875,0 Z M8.3125,17.9375 q0.75,0 0.75,0.8125 q0,0.3125 -0.2188,0.5312 q-0.2188,0.2188 -0.5312,0.2188 q-0.8125,0 -0.8125,-0.75 q0,-0.8125 0.8125,-0.8125 Z" fill="#D3D3D3" transform="matrix(1,0,0,-1,163,80)"/>
  <path d="" fill="#D3D3D3" transform="matrix(1,0,0,-1,184,80)"/>
  <path d="M23.4375,-2.8125 q-1.625,0 -3.4062,0.125 q-1.7812,0.125 -3.2812,0.5625 q-6.25,-0.25 -10.625,0.1875 q-4.375,0.4375 -5.75,2.25 q-0.25,0.375 -0.375,0.9375 q-0.125,0.5625 0.75,0.875 q1.8125,0.6875 3.0312,1.75 q1.2188,1.0625 2.1562,2.625 q0.5,0.9375 1.6875,0.375 q1.9375,-0.8125 4.25,-1.25 q0,4.875 1.6875,8.125 q1.6875,3.25 4.3125,4.875 q2.625,1.625 5.4375,1.625 q2.625,0 5.0938,-1.625 q2.4688,-1.625 4.2812,-4.625 q1.8125,-3 2.4375,-7.125 q0.1875,0 0.3125,0 v-6.875 l-0.875,-0.125 q-1,-1.4375 -2.8125,-2 q-1.8125,-0.5625 -3.8438,-0.6562 q-2.0312,-0.0938 -3.7188,-0.0312 q-0.5,0 -0.75,0 Z M24.6875,7.9375 q0.75,0 0.75,0.8125 q0,0.3125 -0.2188,0.5312 q-0.2188,0.2188 -0.5312,0.2188 q-0.8125,0 -0.8125,-0.75 q0,-0.8125 0.8125,-0.8125 Z" fill="#D3D3D3" transform="matrix(1,0,0,-1,209,80)"/>
  <path d="M-3.75,0 v12.4375 h1.8125 q2.3125,-5.6875 10.5,-5.5625 l-7.9375,-6.875 h-4.375 Z" fill="#D3D3D3" transform="matrix(1,0,0,-1,244,80)"/>
  <path d="M-1.25,0 v6.875 q2.0625,0 4.4375,0 q2.375,0 4.5312,0.0625 q2.1562,0.0625 3.6875,0.2188 q1.5312,0.1562 1.9688,0.4062 q0.5,0.3125 0.4688,0.7188 q-0.0312,0.4062 -0.5312,0.2812 q-1.5,-0.25 -3.8125,-0.4688 q-2.3125,-0.2188 -4.7188,0.0938 q-2.4062,0.3125 -4.1562,1.5 q-1.5625,1.0625 -2.5625,2.7812 q-1,1.7188 -1,3.7812 q0,2.125 0.8438,4.3438 q0.8438,2.2188 2.375,4.0938 q1.5312,1.875 3.625,3.0312 q2.0938,1.1562 4.5938,1.1562 q2.6875,0 4.9688,-1.8438 q2.2812,-1.8438 3.9375,-4.9688 q1.6562,-3.125 2.5625,-6.9688 q0.9062,-3.8438 0.9062,-7.9062 q0,-2.1875 -1.375,-3.5938 q-1.375,-1.4062 -3.6875,-2.1562 q-2.3125,-0.75 -5.2188,-1.0625 q-2.9062,-0.3125 -5.9688,-0.375 q-3.0625,-0.0625 -5.875,0 Z M8.3125,17.9375 q0.75,0 0.75,0.8125 q0,0.3125 -0.2188,0.5312 q-0.2188,0.2188 -0.5312,0.2188 q-0.8125,0 -0.8125,-0.75 q0,-0.8125 0.8125,-0.8125 Z" fill="#D3D3D3" transform="matrix(1,0,0,-1,246,80)"/>
  <path d="" fill="#D3D3D3" transform="matrix(1,0,0,-1,267,80)"/>
  <path d="M9.9375,-15.1875 q-2.125,-1.25 -4.8438,-1.6562 q-2.7188,-0.4062 -5.5938,0.0625 q-2.875,0.4688 -5.5,1.7812 q-0.625,0.3125 -0.4688,0.8438 q0.1562,0.5312 0.7812,0.9688 q1.375,0.875 2.4375,2.1875 q1.0625,1.3125 2.1875,2.6875 q0.25,0.3125 0.6562,0.2812 q0.4062,-0.0312 0.7812,-0.1562 q0.0625,0 0.0625,0 q1.25,-0.4375 2.6875,-0.5938 q1.4375,-0.1562 3,0.0938 q-0.25,4.6875 -0.5312,10.3125 q-0.2812,5.625 -0.625,11.4688 q-0.3438,5.8438 -0.6875,11.3125 q-0.3438,5.4688 -0.6562,9.9688 q-0.3125,4.5 -0.5625,7.4375 q0,0.125 -0.0625,0.4375 q-0.125,0.375 -0.125,0.8125 q0,0.4375 0.6875,0.8125 q0.5625,0.3125 1.3125,1.1875 q0.75,0.875 1.4062,1.9062 q0.6562,1.0312 1.0312,1.7188 q0.5,0.875 1.0312,0.6562 q0.5312,-0.2188 0.5938,-1.2812 q0.3125,-4.5625 0.625,-10.25 q0.3125,-5.6875 0.5938,-11.625 q0.2812,-5.9375 0.5312,-11.4688 q0.25,-5.5312 0.375,-9.8438 q0.0625,-3.125 0.3125,-7.7188 q0.25,-4.5938 0.25,-9.5312 q0,-1.125 -0.4688,-1.75 q-0.4688,-0.625 -1.2188,-1.0625 Z M7.375,0 v6.875 h4.4998 v-6.875 h-4.4998 Z" fill="#D3D3D3" transform="matrix(1,0,0,-1,292,80)"/>
  <path d="M-1.4375,0 v16.5 h1 q0.125,-4.6875 3.0625,-7.1875 q2.9375,-2.5 8.25,-2.4375 l-7.9375,-6.875 h-4.375 Z" fill="#D3D3D3" transform="matrix(1,0,0,-1,303,80)"/>
  <path d="M-1.25,0 v6.875 q2.0625,0 4.4375,0 q2.375,0 4.5312,0.0625 q2.1562,0.0625 3.6875,0.2188 q1.5312,0.1562 1.9688,0.4062 q0.5,0.3125 0.4688,0.7188 q-0.0312,0.4062 -0.5312,0.2812 q-1.5,-0.25 -3.8125,-0.4688 q-2.3125,-0.2188 -4.7188,0.0938 q-2.4062,0.3125 -4.1562,1.5 q-1.5625,1.0625 -2.5625,2.7812 q-1,1.7188 -1,3.7812 q0,2.125 0.8438,4.3438 q0.8438,2.2188 2.375,4.0938 q1.5312,1.875 3.625,3.0312 q2.0938,1.1562 4.5938,1.1562 q2.6875,0 4.9688,-1.8438 q2.2812,-1.8438 3.9375,-4.9688 q1.6562,-3.125 2.5625,-6.9688 q0.9062,-3.8438 0.9062,-7.9062 q0,-2.1875 -1.375,-3.5938 q-1.375,-1.4062 -3.6875,-2.1562 q-2.3125,-0.75 -5.2188,-1.0625 q-2.9062,-0.3125 -5.9688,-0.375 q-3.0625,-0.0625 -5.875,0 Z M8.3125,17.9375 q0.75,0 0.75,0.8125 q0,0.3125 -0.2188,0.5312 q-0.2188,0.2188 -0.5312,0.2188 q-0.8125,0 -0.8125,-0.75 q0,-0.8125 0.8125,-0.8125 Z" fill="#D3D3D3" transform="matrix(1,0,0,-1,307,80)"/>
  <path d="" fill="#D3D3D3" transform="matrix(1,0,0,-1,328,80)"/>
  <path d="M11.5625,-0.3125 q-3.8125,0.0625 -6.6875,0.5312 q-2.875,0.4688 -4.3125,1.3438 q-0.6875,0.4375 -0.5312,1.1562 q0.1562,0.7188 0.8438,0.4062 q0.3125,-0.125 0.4375,-0.1875 q0.125,-0.0625 0.375,0.0625 q1.3125,0.625 2.6562,1.9062 q1.3438,1.2812 2.2812,2.4062 q0.3125,0.375 0.9062,0.5312 q0.5938,0.1562 1.2188,-0.3438 q0.5,-0.375 1.7188,-0.5625 q1.2188,-0.1875 2.8438,-0.3125 q0.4375,0 1,-0.0312 q0.5625,-0.0312 1.2188,-0.0625 q0.6562,-0.0312 1.4375,-0.0625 q0.7812,-0.0312 1.6562,-0.0625 q0.875,-0.0312 1.8438,-0.0625 q0.9688,-0.0312 2.0312,-0.0312 q1.0625,0 2.1875,-0.0312 q1.125,-0.0312 2.2812,-0.0312 q1.1562,0 2.4062,0 q1.25,0 2.5,0.0312 q1.25,0.0312 2.5625,0.0625 q1.3125,0.0312 2.6562,0.0625 q1.3438,0.0312 2.6875,0.0938 q1.3438,0.0625 2.6875,0.1562 q1.3438,0.0938 2.6562,0.1562 q1.375,0.125 1.625,0.3438 q0.25,0.2188 0.125,0.5938 q-0.0625,0.125 -0.2188,0.25 q-0.1562,0.125 -0.6562,0.0625 q-1,-0.0625 -2,-0.1562 q-1,-0.0938 -2,-0.1562 q-1,-0.0625 -2,-0.0938 q-1,-0.0312 -2,-0.0625 q-1,-0.0312 -2,-0.0625 q-1,-0.0312 -2,-0.0312 q-1,0 -2,0 q-1,0 -2.0312,0 q-1.0312,0 -2.0312,0 q-1,0 -2,0.0312 q-1,0.0312 -2,0.0625 q-1,0.0312 -2,0.0625 q-1,0.0312 -2,0.0625 q-1,0.0312 -2,0.0625 q-1,0.0312 -2,0.0312 q-1.8125,0.0625 -3.3438,0.1875 q-1.5312,0.125 -2.4375,0.5625 q-0.9062,0.4375 -0.9062,1.3125 q-0.0625,7.0625 -0.0312,13.7812 q0.0312,6.7188 -0.1562,12.2188 q-0.0625,2.125 -0.3438,3.4375 q-0.2812,1.3125 -0.2812,2.125 q0,0.8125 0.75,1.375 q1.125,0.8125 2.3438,2.0938 q1.2188,1.2812 2.2188,3.1562 q0.25,0.4375 0.4688,0.4062 q0.2188,-0.0312 0.2812,-0.5312 q0.125,-1.75 0.25,-3.4375 q0.125,-1.6875 0.1875,-3.4375 q0.125,-3.0625 0.0312,-6.4688 q-0.0938,-3.4062 -0.2188,-6.6875 q-0.125,-3.2812 -0.1875,-6 q-0.0625,-2.7188 0.0625,-4.4062 q0.0625,-1.75 2.125,-1.9375 q1,-0.0625 2.0312,-0.125 q1.0312,-0.0625 2.125,-0.125 q1.0938,-0.0625 2.1875,-0.0938 q1.0938,-0.0312 2.2188,-0.0625 q1.125,-0.0312 2.2812,-0.0625 q1.1562,-0.0312 2.3125,-0.0312 q1.1562,0 2.3438,0 q1.1875,0 2.3438,0 q1.1562,0 2.3438,0 q1.1875,0 2.375,0 q1.1875,0 2.375,0.0312 q1.1875,0.0312 2.3438,0.0625 q1.1562,0.0312 2.3125,0.0625 q1.1562,0.0312 2.2812,0.0625 q1.125,0.0312 2.25,0.0312 q1.125,0.0625 1.5312,-0.4688 q0.4062,-0.5312 0.9688,-1.8438 q0.75,-1.6875 1.6562,-4.0625 q0.9062,-2.375 0.9688,-5.4375 q0.0625,-1.25 -1.0312,-2.125 q-1.0938,-0.875 -2.2188,-1 q-1.375,-0.125 -2.7812,-0.2188 q-1.4062,-0.0938 -2.7812,-0.1562 q-1.375,-0.0625 -2.75,-0.125 q-1.375,-0.0625 -2.75,-0.0938 q-1.375,-0.0312 -2.7188,-0.0938 q-1.3438,-0.0625 -2.7188,-0.0625 q-1.375,0 -2.7188,-0.0312 q-1.3438,-0.0312 -2.7188,-0.0312 q-1.375,0 -2.75,0 q-1.375,0 -2.7188,0 q-1.3438,0 -2.7188,0 q-1.375,0 -2.75,0.0312 q-1.375,0.0312 -2.75,0.0312 q-1.375,0 -2.7812,0.0312 q-1.4062,0.0312 -2.7812,0.0312 Z M31,-0.4375 l21.25,7.3125 h3.3125 v-6.875 q-5.5625,-0.1875 -11.8438,-0.3125 q-6.2812,-0.125 -12.7188,-0.125 Z" fill="#D3D3D3" transform="matrix(1,0,0,-1,353,80)"/>
  <path d="M-3.75,0 v12.4375 h1.8125 q2.3125,-5.6875 10.5,-5.5625 l-7.9375,-6.875 h-4.375 Z" fill="#D3D3D3" transform="matrix(1,0,0,-1,409,80)"/>
  <path d="M-1.25,0 v6.875 q2.0625,0 4.4375,0 q2.375,0 4.5312,0.0625 q2.1562,0.0625 3.6875,0.2188 q1.5312,0.1562 1.9688,0.4062 q0.5,0.3125 0.4688,0.7188 q-0.0312,0.4062 -0.5312,0.2812 q-1.5,-0.25 -3.8125,-0.4688 q-2.3125,-0.2188 -4.7188,0.0938 q-2.4062,0.3125 -4.1562,1.5 q-1.5625,1.0625 -2.5625,2.7812 q-1,1.7188 -1,3.7812 q0,2.125 0.8438,4.3438 q0.8438,2.2188 2.375,4.0938 q1.5312,1.875 3.625,3.0312 q2.0938,1.1562 4.5938,1.1562 q2.6875,0 4.9688,-1.8438 q2.2812,-1.8438 3.9375,-4.9688 q1.6562,-3.125 2.5625,-6.9688 q0.9062,-3.8438 0.9062,-7.9062 q0,-2.1875 -1.375,-3.5938 q-1.375,-1.4062 -3.6875,-2.1562 q-2.3125,-0.75 -5.2188,-1.0625 q-2.9062,-0.3125 -5.9688,-0.375 q-3.0625,-0.0625 -5.875,0 Z M8.3125,17.9375 q0.75,0 0.75,0.8125 q0,0.3125 -0.2188,0.5312 q-0.2188,0.2188 -0.5312,0.2188 q-0.8125,0 -0.8125,-0.75 q0,-0.8125 0.8125,-0.8125 Z" fill="#D3D3D3" transform="matrix(1,0,0,-1,411,80)"/>
  <path d="" fill="#D3D3D3" transform="matrix(1,0,0,-1,432,80)"/>
  <path d="M24.8125,-16 q-2,-0.5 -5.1562,-0.8438 q-3.1562,-0.3438 -6.75,-0.4688 q-3.5938,-0.125 -6.9688,0.125 q-3.375,0.25 -5.9688,0.9688 q-2.5938,0.7188 -3.7188,1.9688 q-0.5,0.625 -0.375,1.0938 q0.125,0.4688 0.9375,0.4688 q0.8125,0 2,1.3125 q1.1875,1.3125 1.9375,2.5625 q0.3125,0.5 0.7188,0.8438 q0.4062,0.3438 0.9688,0.0312 q2.375,-1.375 6.5625,-2 q4.1875,-0.625 10.4375,0.1875 q-0.0625,0.0625 -0.125,0.25 q-0.0625,0.1875 -0.2188,0.375 q-0.1562,0.1875 -0.6562,0.125 q-9.0625,-0.8125 -13.75,1.6562 q-4.6875,2.4688 -4.6875,9.2188 q0,3.0625 1.4375,5.75 q1.4375,2.6875 3.7812,4.3438 q2.3438,1.6562 5.0938,1.5938 q1.3125,0 2.25,-0.9062 q0.9375,-0.9062 1.7188,-2.1562 q0.7812,-1.25 1.5625,-2.2812 q0.7812,-1.0312 1.7812,-1.3438 v-6.875 q-0.4375,0 -0.875,0 q-0.4375,0 -0.8125,0 q-2.6875,-0.0625 -4.4688,0.1562 q-1.7812,0.2188 -3.1562,1.4688 q-0.5,0.5 -0.7188,0.25 q-0.2188,-0.25 0.0938,-0.8125 q0.8125,-1.25 3.0312,-1.8125 q2.2188,-0.5625 5.3438,-0.5938 q3.125,-0.0312 6.5,0.1562 q1,0.0625 1.2812,-0.125 q0.2812,-0.1875 0.5938,-0.6875 q0.0625,-0.0625 0.0625,-0.125 q0.6875,-1.1875 1.5938,-3.0938 q0.9062,-1.9062 1.3438,-4.4062 q0.4375,-2.6875 -0.1562,-4.2812 q-0.5938,-1.5938 -2.4688,-2.0938 Z" fill="#D3D3D3" transform="matrix(1,0,0,-1,457,80)"/>
  <path d="M-6.125,0.375 l3.625,10.25 q1.3125,-1.5 3.4062,-2.6562 q2.0938,-1.1562 5.7812,-1.0938 q2.375,0.0625 4.125,0.2188 q1.75,0.1562 2.1875,0.4688 q0.5,0.3125 0.4688,0.7188 q-0.0312,0.4062 -0.5312,0.2812 q-1.5,-0.25 -3.8125,-0.4688 q-2.3125,-0.2188 -4.7188,0.0938 q-2.4062,0.3125 -4.1562,1.5 q-1.5625,1.0625 -2.5625,2.7812 q-1,1.7188 -1,3.7812 q0,2.125 0.8438,4.3438 q0.8438,2.2188 2.375,4.0938 q1.5312,1.875 3.625,3.0312 q2.0938,1.1562 4.5938,1.1562 q2.6875,0 4.9688,-1.8438 q2.2812,-1.8438 3.9375,-4.9688 q1.6562,-3.125 2.5625,-6.9688 q0.9062,-3.8438 0.9062,-7.9062 q0,-2 -1.6875,-3.4062 q-1.6875,-1.4062 -4.375,-2.3125 q-2.6875,-0.9062 -5.8438,-1.3438 q-3.1562,-0.4375 -6.1562,-0.5 q-3,-0.0625 -5.3125,0.1562 q-2.3125,0.2188 -3.25,0.5938 Z M7.9375,17.9375 q0.75,0 0.75,0.8125 q0,0.3125 -0.2188,0.5312 q-0.2188,0.2188 -0.5312,0.2188 q-0.8125,0 -0.8125,-0.75 q0,-0.8125 0.8125,-0.8125 Z" fill="#D3D3D3" transform="matrix(1,0,0,-1,474,80)"/>
  <path d="" fill="#D3D3D3" transform="matrix(1,0,0,-1,495,80)"/>
  <path d="M12.625,-0.125 q-1.3125,0 -3.0938,0.0938 q-1.7812,0.0938 -3.5625,0.25 q-1.7812,0.1562 -3.1875,0.4375 q-1.4062,0.2812 -2.0312,0.7188 q-0.375,0.3125 -0.6875,0.6562 q-0.3125,0.3438 0.25,0.5312 q0.6875,0.3125 1.4375,1 q0.75,0.6875 0.8125,2.375 q0.375,6.6875 0.5938,12.5312 q0.2188,5.8438 0.1875,11.625 q-0.0312,5.7812 -0.4688,12.2188 q-0.0625,1.0625 -0.0312,1.7188 q0.0312,0.6562 0.6562,1.0938 q1.125,0.8125 2.5938,1.9688 q1.4688,1.1562 2.0938,3.0312 q0.125,0.4375 0.5,0.4062 q0.375,-0.0312 0.4375,-0.5312 q0.3125,-1.75 0.4688,-3.3125 q0.1562,-1.5625 0.2812,-3.3125 q0.125,-1.25 0.125,-3.875 q0,-2.625 -0.0625,-5.9062 q-0.0625,-3.2812 -0.1562,-6.5625 q-0.0938,-3.2812 -0.1875,-5.9375 q-0.0938,-2.6562 -0.1562,-4.0312 q-0.0625,-0.875 0.0625,-1.0938 q0.125,-0.2188 1.0625,-0.3438 q1,-0.0625 2.0625,-0.125 q1.0625,-0.0625 2.1562,-0.125 q1.0938,-0.0625 2.2188,-0.0938 q1.125,-0.0312 2.2812,-0.0625 q1.1562,-0.0312 2.3125,-0.0625 q1.1562,-0.0312 2.3438,-0.0312 q1.1875,0 2.375,0 q1.1875,0 2.4062,0 q1.2188,0 2.4062,0 q1.1875,0 2.4062,0 q1.2188,0 2.4062,0.0312 q1.1875,0.0312 2.375,0.0625 q1.1875,0.0312 2.3438,0.0625 q1.1562,0.0312 2.2812,0.0625 q1.125,0.0312 2.25,0.0312 q1.125,0.0625 1.5312,-0.4688 q0.4062,-0.5312 0.9688,-1.8438 q0.75,-1.6875 1.6562,-4.0625 q0.9062,-2.375 0.9688,-5.4375 q0.0625,-1.25 -1.0312,-2.125 q-1.0938,-0.875 -2.2188,-1 q-1.0625,-0.0625 -2.1562,-0.1562 q-1.0938,-0.0938 -2.1875,-0.125 q-1.0938,-0.0312 -2.2188,-0.0938 q-1.125,-0.0625 -2.2188,-0.0938 q-1.0938,-0.0312 -2.2188,-0.0625 q-1.125,-0.0312 -2.25,-0.0625 q-1.125,-0.0312 -2.25,-0.0625 q-1.125,-0.0312 -2.2812,-0.0312 q-1.1562,0 -2.3125,0 q-1.1562,0 -2.3125,0 q-1.1562,0 -2.3438,0 q-1.1875,0 -2.375,0.0312 q-1.1875,0.0312 -2.4062,0.0312 q-1.2188,0 -2.4375,0.0312 q-1.2188,0.0312 -2.4688,0.0312 Z M39.4375,6.875 q1.375,0.125 1.625,0.3438 q0.25,0.2188 0.125,0.5938 q-0.0625,0.125 -0.2188,0.25 q-0.1562,0.125 -0.6562,0.0625 q-1.0625,-0.0625 -2.1875,-0.1562 q-1.125,-0.0938 -2.2812,-0.1562 q-1.1562,-0.0625 -2.3438,-0.125 q-1.1875,-0.0625 -2.375,-0.0938 q-1.1875,-0.0312 -2.4062,-0.0625 q-1.2188,-0.0312 -2.4375,-0.0312 q-1.2188,0 -2.4375,0 q-1.2188,0 -2.4062,0.0312 q-1.1875,0.0312 -2.3438,0.0625 q-1.1562,0.0312 -2.25,0.0938 q-1.0938,0.0625 -2.1562,0.125 q-1.0625,0.0625 -2.0938,0.1562 q-1.0312,0.0938 -1.9375,0.2188 q-0.9062,0.125 -1.7812,0.25 q-0.875,0.125 -1.625,0.25 l1.3125,1.875 q-0.0625,-0.6875 -0.0938,-1.375 q-0.0312,-0.6875 -0.0938,-1.375 q0,-0.5 1.25,-0.6875 q0.5,-0.0625 1.125,-0.125 q0.625,-0.0625 1.3125,-0.125 q0.6875,-0.0625 1.4688,-0.125 q0.7812,-0.0625 1.625,-0.125 q0.8438,-0.0625 1.7812,-0.0938 q0.9375,-0.0312 1.9062,-0.0625 q0.9688,-0.0312 2,-0.0312 q1.0312,0 2.125,-0.0312 q1.0938,-0.0312 2.2188,-0.0312 q1.125,0 2.2812,0.0312 q1.1562,0.0312 2.3438,0.0625 q1.1875,0.0312 2.375,0.0625 q1.1875,0.0312 2.4062,0.0938 q1.2188,0.0625 2.4375,0.125 q1.2188,0.0625 2.4062,0.125 Z M24.8125,0 l21.4375,6.875 h3.625 v-6.875 h-25.0625 Z" fill="#D3D3D3" transform="matrix(1,0,0,-1,520,80)"/>
  <path d="M-3.75,0 v12.4375 h1.8125 q2.3125,-5.6875 10.5,-5.5625 l-7.9375,-6.875 h-4.375 Z" fill="#D3D3D3" transform="matrix(1,0,0,-1,570,80)"/>
  <path d="M-1.25,0 v6.875 q2.0625,0 4.4375,0 q2.375,0 4.5312,0.0625 q2.1562,0.0625 3.6875,0.2188 q1.5312,0.1562 1.9688,0.4062 q0.5,0.3125 0.4688,0.7188 q-0.0312,0.4062 -0.5312,0.2812 q-1.5,-0.25 -3.8125,-0.4688 q-2.3125,-0.2188 -4.7188,0.0938 q-2.4062,0.3125 -4.1562,1.5 q-1.5625,1.0625 -2.5625,2.7812 q-1,1.7188 -1,3.7812 q0,2.125 0.8438,4.3438 q0.8438,2.2188 2.375,4.0938 q1.5312,1.875 3.625,3.0312 q2.0938,1.1562 4.5938,1.1562 q2.6875,0 4.9688,-1.8438 q2.2812,-1.8438 3.9375,-4.9688 q1.6562,-3.125 2.5625,-6.9688 q0.9062,-3.8438 0.9062,-7.9062 q0,-2.1875 -1.375,-3.5938 q-1.375,-1.4062 -3.6875,-2.1562 q-2.3125,-0.75 -5.2188,-1.0625 q-2.9062,-0.3125 -5.9688,-0.375 q-3.0625,-0.0625 -5.875,0 Z M8.3125,17.9375 q0.75,0 0.75,0.8125 q0,0.3125 -0.2188,0.5312 q-0.2188,0.2188 -0.5312,0.2188 q-0.8125,0 -0.8125,-0.75 q0,-0.8125 0.8125,-0.8125 Z" fill="#D3D3D3" transform="matrix(1,0,0,-1,572,80)"/>
  <path d="M14.25,-7.5625 q-4.1875,-0.0625 -7.875,0.9688 q-3.6875,1.0312 -5.6875,2.3438 q-0.75,0.5 -0.6562,0.9375 q0.0938,0.4375 0.7188,0.6875 q1.4375,0.5 2.6562,1.8438 q1.2188,1.3438 2.1562,2.5312 q0.375,0.5 1.125,0.0625 q1.75,-0.9375 4.375,-1.5938 q2.625,-0.6562 5.1562,-0.9375 q2.5312,-0.2812 3.9688,-0.0938 q0.5,0.0625 0.4062,0.4688 q-0.0938,0.4062 -0.4688,0.4062 q-1.5,-0.0625 -3.5,0.1562 q-2,0.2188 -3.9375,0.7188 q-1.9375,0.5 -3.375,1.25 q-0.6875,0.375 -0.5938,0.9062 q0.0938,0.5312 0.4688,0.8438 q0.875,0.875 2.125,2.1562 q1.25,1.2812 2.5312,2.6875 q1.2812,1.4062 2.375,2.5938 q1.0938,1.1875 1.7188,1.8125 q0.25,0.25 0.4062,0.4062 q0.1562,0.1562 0.4062,0.1562 q0.3125,0 0.9375,-0.4375 q2.0625,-1.375 4,-3.7188 q1.9375,-2.3438 3.25,-5.125 q1.3125,-2.7812 1.375,-5.5312 q0.0625,-1.6875 -0.625,-3.3438 q-0.6875,-1.6562 -3.125,-2.3438 q-2.0625,-0.625 -4.7188,-0.6875 q-2.6562,-0.0625 -5.5938,-0.125 Z" fill="#D3D3D3" transform="matrix(1,0,0,-1,19,23)"/>
  <path d="M-6.125,0.375 l3.625,10.25 q1.3125,-1.5 3.4062,-2.6562 q2.0938,-1.1562 5.7812,-1.0938 q2.375,0.0625 4.125,0.2188 q1.75,0.1562 2.1875,0.4688 q0.5,0.3125 0.4688,0.7188 q-0.0312,0.4062 -0.5312,0.2812 q-1.5,-0.25 -3.8125,-0.4688 q-2.3125,-0.2188 -4.7188,0.0938 q-2.4062,0.3125 -4.1562,1.5 q-1.5625,1.0625 -2.5625,2.7812 q-1,1.7188 -1,3.7812 q0,2.125 0.8438,4.3438 q0.8438,2.2188 2.375,4.0938 q1.5312,1.875 3.625,3.0312 q2.0938,1.1562 4.5938,1.1562 q2.6875,0 4.9688,-1.8438 q2.2812,-1.8438 3.9375,-4.9688 q1.6562,-3.125 2.5625,-6.9688 q0.9062,-3.8438 0.9062,-7.9062 q0,-2 -1.6875,-3.4062 q-1.6875,-1.4062 -4.375,-2.3125 q-2.6875,-0.9062 -5.8438,-1.3438 q-3.1562,-0.4375 -6.1562,-0.5 q-3,-0.0625 -5.3125,0.1562 q-2.3125,0.2188 -3.25,0.5938 Z M7.9375,17.9375 q0.75,0 0.75,0.8125 q0,0.3125 -0.2188,0.5312 q-0.2188,0.2188 -0.5312,0.2188 q-0.8125,0 -0.8125,-0.75 q0,-0.8125 0.8125,-0.8125 Z" fill="#D3D3D3" transform="matrix(1,0,0,-1,45,23)"/>
  <path d="" fill="#D3D3D3" transform="matrix(1,0,0,-1,66,23)"/>
  <path d="M16.375,-8.625 q-6.75,0 -10.4688,1.25 q-3.7188,1.25 -5.6562,3.875 q-0.5,0.6875 -0.125,1.0625 q0.375,0.375 0.875,0.375 q0.6875,0 1.75,0.6875 q1.0625,0.6875 2.0625,1.625 q1,0.9375 1.375,1.625 q0.3125,0.5625 0.9375,0.2812 q0.625,-0.2812 1.0625,-0.6562 q1.5625,-1.375 3.9062,-2.0938 q2.3438,-0.7188 4.75,-0.9375 q2.4062,-0.2188 4.2812,-0.1562 q1.875,0.0625 2.5625,0.1875 q0.75,0.125 0.7188,0.6562 q-0.0312,0.5312 -0.6562,0.4688 q-3.375,-0.25 -6.25,-0.0938 q-2.875,0.1562 -5.0625,1.0312 q-2.1875,0.875 -3.4062,2.8125 q-1.2188,1.9375 -1.2188,5.1875 q0,2.0625 0.625,4.1875 q0.625,2.125 1.875,3.9375 q1.25,1.8125 3.2188,2.9375 q1.9688,1.125 4.5938,1.125 q3.3125,0 5.1875,-1.125 q1.875,-1.125 3.625,-3.375 q1.5625,-2 2.125,-4.125 q0.5625,-2.125 0.9375,-3.1875 q0.3125,-0.8125 0.9375,-1.4688 q0.625,-0.6562 1.6875,-0.6562 v-6.8125 q0,-3.875 -2.125,-5.7188 q-2.125,-1.8438 -5.8125,-2.375 q-3.6875,-0.5312 -8.3125,-0.5312 Z M19.375,9.1875 q0.75,0 0.75,0.8125 q0,0.3125 -0.2188,0.5312 q-0.2188,0.2188 -0.5312,0.2188 q-0.8125,0 -0.8125,-0.75 q0,-0.8125 0.8125,-0.8125 Z" fill="#D3D3D3" transform="matrix(1,0,0,-1,91,23)"/>
  <path d="M-3.75,0 v12.4375 h1.8125 q2.3125,-5.6875 10.5,-5.5625 l-7.9375,-6.875 h-4.375 Z" fill="#D3D3D3" transform="matrix(1,0,0,-1,122,23)"/>
  <path d="M-1.25,0 v6.875 q2.0625,0 4.4375,0 q2.375,0 4.5312,0.0625 q2.1562,0.0625 3.6875,0.2188 q1.5312,0.1562 1.9688,0.4062 q0.5,0.3125 0.4688,0.7188 q-0.0312,0.4062 -0.5312,0.2812 q-1.5,-0.25 -3.8125,-0.4688 q-2.3125,-0.2188 -4.7188,0.0938 q-2.4062,0.3125 -4.1562,1.5 q-1.5625,1.0625 -2.5625,2.7812 q-1,1.7188 -1,3.7812 q0,2.125 0.8438,4.3438 q0.8438,2.2188 2.375,4.0938 q1.5312,1.875 3.625,3.0312 q2.0938,1.1562 4.5938,1.1562 q2.6875,0 4.9688,-1.8438 q2.2812,-1.8438 3.9375,-4.9688 q1.6562,-3.125 2.5625,-6.9688 q0.9062,-3.8438 0.9062,-7.9062 q0,-2.1875 -1.375,-3.5938 q-1.375,-1.4062 -3.6875,-2.1562 q-2.3125,-0.75 -5.2188,-1.0625 q-2.9062,-0.3125 -5.9688,-0.375 q-3.0625,-0.0625 -5.875,0 Z M8.3125,17.9375 q0.75,0 0.75,0.8125 q0,0.3125 -0.2188,0.5312 q-0.2188,0.2188 -0.5312,0.2188 q-0.8125,0 -0.8125,-0.75 q0,-0.8125 0.8125,-0.8125 Z" fill="#D3D3D3" transform="matrix(1,0,0,-1,124,23)"/>
  <path d="" fill="#D3D3D3" transform="matrix(1,0,0,-1,145,23)"/>
  <path d="M12.3125,0 q-12.3125,0.3125 -12.3125,8.8125 q0,3.8125 3.25,7.1875 q3.25,3.375 10,5.25 q-0.125,1.25 0.1875,1.5 q0.125,0.1875 0.5,0.3125 q0.375,0.125 1,0.5625 q1.1875,0.875 1.8438,1.8438 q0.6562,0.9688 1.2188,2.3438 q0.3125,0.6875 0.75,0.625 q0.4375,-0.0625 0.625,-0.8125 q0.4375,-1.5 0.75,-3.7812 q0.3125,-2.2812 0.4688,-4.8438 q0.1562,-2.5625 0.25,-4.9688 q0.0938,-2.4062 0.1562,-4.2188 q0.0625,-1.0625 0.25,-2 q0.1875,-0.9375 0.75,-0.9375 v-6.875 q-2,-0.125 -4.3125,-0.0938 q-2.3125,0.0312 -5.375,0.0938 Z M14.0625,9.625 q0.75,0 0.75,0.8125 q0,0.3125 -0.2188,0.5312 q-0.2188,0.2188 -0.5312,0.2188 q-0.8125,0 -0.8125,-0.75 q0,-0.8125 0.8125,-0.8125 Z" fill="#D3D3D3" transform="matrix(1,0,0,-1,170,23)"/>
  <path d="M-1.4375,0 v16.5 h1 q0.125,-4.6875 3.0625,-7.1875 q2.9375,-2.5 8.25,-2.4375 l-7.9375,-6.875 h-4.375 Z" fill="#D3D3D3" transform="matrix(1,0,0,-1,191,23)"/>
  <path d="M-1.25,0 v6.875 q2.0625,0 4.4375,0 q2.375,0 4.5312,0.0625 q2.1562,0.0625 3.6875,0.2188 q1.5312,0.1562 1.9688,0.4062 q0.5,0.3125 0.4688,0.7188 q-0.0312,0.4062 -0.5312,0.2812 q-1.5,-0.25 -3.8125,-0.4688 q-2.3125,-0.2188 -4.7188,0.0938 q-2.4062,0.3125 -4.1562,1.5 q-1.5625,1.0625 -2.5625,2.7812 q-1,1.7188 -1,3.7812 q0,2.125 0.8438,4.3438 q0.8438,2.2188 2.375,4.0938 q1.5312,1.875 3.625,3.0312 q2.0938,1.1562 4.5938,1.1562 q2.6875,0 4.9688,-1.8438 q2.2812,-1.8438 3.9375,-4.9688 q1.6562,-3.125 2.5625,-6.9688 q0.9062,-3.8438 0.9062,-7.9062 q0,-2.1875 -1.375,-3.5938 q-1.375,-1.4062 -3.6875,-2.1562 q-2.3125,-0.75 -5.2188,-1.0625 q-2.9062,-0.3125 -5.9688,-0.375 q-3.0625,-0.0625 -5.875,0 Z M8.3125,17.9375 q0.75,0 0.75,0.8125 q0,0.3125 -0.2188,0.5312 q-0.2188,0.2188 -0.5312,0.2188 q-0.8125,0 -0.8125,-0.75 q0,-0.8125 0.8125,-0.8125 Z" fill="#D3D3D3" transform="matrix(1,0,0,-1,195,23)"/>
  <path d="" fill="#D3D3D3" transform="matrix(1,0,0,-1,216,23)"/>
  <path d="M10.6875,-0.3125 q-3.8125,0.0625 -6.4375,0.4062 q-2.625,0.3438 -3.625,1.1562 q-0.6875,0.5 -0.625,1 q0.0625,0.5 0.8125,0.5 q0.375,0 0.7188,0.2188 q0.3438,0.2188 0.5938,0.4688 q0.5625,0.5625 1.4062,1.6562 q0.8438,1.0938 1.5312,2.2188 q0.6875,1.0625 2.1875,0.1875 q0.6875,-0.375 2.125,-0.5625 q1.4375,-0.1875 3.0625,-0.3125 q0.4375,0 1,-0.0312 q0.5625,-0.0312 1.2188,-0.0625 q0.6562,-0.0312 1.4375,-0.0625 q0.7812,-0.0312 1.6562,-0.0625 q0.875,-0.0312 1.8438,-0.0625 q0.9688,-0.0312 2.0312,-0.0312 q1.0625,0 2.1875,-0.0312 q1.125,-0.0312 2.2812,-0.0312 q1.1562,0 2.4062,0 q1.25,0 2.5,0.0312 q1.25,0.0312 2.5625,0.0625 q1.3125,0.0312 2.6562,0.0625 q1.3438,0.0312 2.6875,0.0938 q1.3438,0.0625 2.6875,0.1562 q1.3438,0.0938 2.6562,0.1562 q1.375,0.125 1.625,0.3438 q0.25,0.2188 0.125,0.5938 q-0.0625,0.125 -0.2188,0.25 q-0.1562,0.125 -0.6562,0.0625 q-0.75,-0.0625 -1.6562,-0.125 q-0.9062,-0.0625 -1.9688,-0.125 q-1.0625,-0.0625 -2.2188,-0.125 q-1.1562,-0.0625 -2.4062,-0.0938 q-1.25,-0.0312 -2.5625,-0.0625 q-1.3125,-0.0312 -2.6562,-0.0625 q-1.3438,-0.0312 -2.75,-0.0312 q-1.4062,0 -2.7812,0 q-1.375,0 -2.7188,0.0312 q-1.3438,0.0312 -2.6562,0.0312 q-1.3125,0 -2.5625,0.0625 q-1.25,0.0625 -2.375,0.125 q-1.125,0.0625 -2.1562,0.125 q-1.0312,0.0625 -1.9375,0.1562 q-0.9062,0.0938 -1.6562,0.2188 q-1.5625,0.1875 -2.1562,0.6875 q-0.5938,0.5 0.0312,1.375 q2.125,2.8125 4.1875,5.6562 q2.0625,2.8438 3.8125,5.7812 q0.3125,0.5 0.7188,0.3125 q0.4062,-0.1875 0.1562,-0.75 q-0.25,-0.5625 -0.7812,-1.75 q-0.5312,-1.1875 -1.0312,-2.3438 q-0.5,-1.1562 -0.75,-1.7812 q0.875,-0.0625 1.8438,-0.1562 q0.9688,-0.0938 2,-0.1562 q1.0312,-0.0625 2.1562,-0.0938 q1.125,-0.0312 2.2812,-0.0625 q1.1562,-0.0312 2.375,-0.0312 q1.2188,0 2.4688,0 q1.25,0 2.5312,0 q1.2812,0 2.5938,0 q1.3125,0 2.625,0.0312 q1.3125,0.0312 2.5938,0.0625 q1.2812,0.0312 2.5625,0.0625 q1.2812,0.0312 2.5625,0.0625 q1.2812,0.0312 2.5,0.0625 q1.2188,0.0312 2.375,0.0938 q1.1562,0.0625 2.2812,0.0625 q1.125,0.0625 1.5312,-0.4688 q0.4062,-0.5312 0.9688,-1.8438 q0.75,-1.6875 1.6562,-4.0625 q0.9062,-2.375 0.9688,-5.4375 q0.0625,-1.25 -1.0312,-2.125 q-1.0938,-0.875 -2.2188,-1 q-1.375,-0.125 -2.7812,-0.2188 q-1.4062,-0.0938 -2.7812,-0.1562 q-1.375,-0.0625 -2.75,-0.125 q-1.375,-0.0625 -2.75,-0.0938 q-1.375,-0.0312 -2.7188,-0.0938 q-1.3438,-0.0625 -2.7188,-0.0625 q-1.375,0 -2.7188,-0.0312 q-1.3438,-0.0312 -2.7188,-0.0312 q-1.375,0 -2.75,0 q-1.375,0 -2.7188,0 q-1.3438,0 -2.7188,0 q-1.375,0 -2.75,0.0312 q-1.375,0.0312 -2.75,0.0312 q-1.375,0 -2.7812,0.0312 q-1.4062,0.0312 -2.7812,0.0312 Z M30.125,-0.4375 l21.25,7.3125 h3.3125 v-6.875 q-5.5625,-0.1875 -11.8438,-0.3125 q-6.2812,-0.125 -12.7188,-0.125 Z" fill="#D3D3D3" transform="matrix(1,0,0,-1,241,23)"/>
  <path d="M-3.75,0 v12.4375 h1.8125 q2.3125,-5.6875 10.5,-5.5625 l-7.9375,-6.875 h-4.375 Z" fill="#D3D3D3" transform="matrix(1,0,0,-1,296,23)"/>
  <path d="M-1.25,0 v6.875 q2.0625,0 4.4375,0 q2.375,0 4.5312,0.0625 q2.1562,0.0625 3.6875,0.2188 q1.5312,0.1562 1.9688,0.4062 q0.5,0.3125 0.4688,0.7188 q-0.0312,0.4062 -0.5312,0.2812 q-1.5,-0.25 -3.8125,-0.4688 q-2.3125,-0.2188 -4.7188,0.0938 q-2.4062,0.3125 -4.1562,1.5 q-1.5625,1.0625 -2.5625,2.7812 q-1,1.7188 -1,3.7812 q0,2.125 0.8438,4.3438 q0.8438,2.2188 2.375,4.0938 q1.5312,1.875 3.625,3.0312 q2.0938,1.1562 4.5938,1.1562 q2.6875,0 4.9688,-1.8438 q2.2812,-1.8438 3.9375,-4.9688 q1.6562,-3.125 2.5625,-6.9688 q0.9062,-3.8438 0.9062,-7.9062 q0,-2.1875 -1.375,-3.5938 q-1.375,-1.4062 -3.6875,-2.1562 q-2.3125,-0.75 -5.2188,-1.0625 q-2.9062,-0.3125 -5.9688,-0.375 q-3.0625,-0.0625 -5.875,0 Z M8.3125,17.9375 q0.75,0 0.75,0.8125 q0,0.3125 -0.2188,0.5312 q-0.2188,0.2188 -0.5312,0.2188 q-0.8125,0 -0.8125,-0.75 q0,-0.8125 0.8125,-0.8125 Z" fill="#D3D3D3" transform="matrix(1,0,0,-1,298,23)"/>
  <path d="" fill="#D3D3D3" transform="matrix(1,0,0,-1,319,23)"/>
  <path d="M13.0625,-7.625 q-0.8125,0 -2.4062,0.125 q-1.5938,0.125 -3.4062,0.5938 q-1.8125,0.4688 -3.4688,1.4375 q-1.6562,0.9688 -2.7188,2.5625 q-1.0625,1.5938 -1.0625,4.0938 q0,4.5 2.4375,7.5938 q2.4375,3.0938 5.75,4.4688 q2.1875,0.875 3.5938,0.4688 q1.4062,-0.4062 3.1562,-2.1562 q1.25,-1.25 2.5312,-2.375 q1.2812,-1.125 2.6562,-1.9688 q1.375,-0.8438 2.9375,-1.1562 q1.5625,-0.3125 3.3125,0.125 l1.4375,-4.25 q-2.4375,1.625 -5.0312,4.2812 q-2.5938,2.6562 -4.6562,5.3438 q-0.4375,0.5625 -0.5625,1.0938 q-0.125,0.5312 0.4375,0.9062 q0.9375,0.625 2.0938,1.5312 q1.1562,0.9062 1.7812,2.9688 q0.1875,0.625 0.8438,0.6875 q0.6562,0.0625 1.1562,-0.5 q1.625,-1.75 3.25,-3.8125 q1.625,-2.0625 3.1875,-3.9062 q1.5625,-1.8438 3.1562,-3.0938 q1.5938,-1.25 3.2188,-1.4375 q3.4375,-0.3125 7.5938,-0.3125 q4.1562,0 9.8438,0.4375 q0.6875,0.0625 0.9062,-0.4375 q0.2188,-0.5 -0.3438,-0.9375 q-1.375,-1 -2.2188,-1.75 q-0.8438,-0.75 -2.0938,-1.6875 q-0.875,-0.625 -1.5625,-1.0938 q-0.6875,-0.4688 -1.6875,-0.4688 q-1,0 -2.9375,-0.0312 q-1.9375,-0.0312 -4.4688,-0.0625 q-2.5312,-0.0312 -5.4375,-0.0625 q-2.9062,-0.0312 -5.8438,-0.0312 q-2.9375,0 -5.625,0 q-3.625,0 -6.6875,0.5 q-3.0625,0.5 -5.125,1.875 q-2.0625,1.375 -2.6875,3.9375 q-0.0625,0.5 -0.6875,0.3438 q-0.625,-0.1562 -0.5625,-0.7188 q0.4375,-2.5625 2.0312,-4.0312 q1.5938,-1.4688 3.9062,-2.0938 q2.3125,-0.625 4.875,-0.8125 q3,-0.1875 6.375,-0.1875 q3.375,0 6.375,0.0625 q3,0.0625 4.9688,0.1562 q1.9688,0.0938 2.2188,0.0938 q0.8125,0 0.7188,-0.4375 q-0.0938,-0.4375 -0.5938,-0.625 q-2,-0.6875 -5.5625,-1.9688 q-3.5625,-1.2812 -8.4375,-2.2812 q-4.875,-1 -10.875,-1 Z" fill="#D3D3D3" transform="matrix(1,0,0,-1,344,23)"/>
  <path d="M-2.5,-0.25 v10.875 q1.3125,-1.5 3.4062,-2.6562 q2.0938,-1.1562 5.7812,-1.0938 q2.375,0.0625 4.125,0.2188 q1.75,0.1562 2.1875,0.4688 q0.5,0.3125 0.4688,0.7188 q-0.0312,0.4062 -0.5312,0.2812 q-1.5,-0.25 -3.8125,-0.4688 q-2.3125,-0.2188 -4.7188,0.0938 q-2.4062,0.3125 -4.1562,1.5 q-1.5625,1.0625 -2.5625,2.7812 q-1,1.7188 -1,3.7812 q0,2.125 0.8438,4.3438 q0.8438,2.2188 2.375,4.0938 q1.5312,1.875 3.625,3.0312 q2.0938,1.1562 4.5938,1.1562 q2.6875,0 4.9688,-1.8438 q2.2812,-1.8438 3.9375,-4.9688 q1.6562,-3.125 2.5625,-6.9688 q0.9062,-3.8438 0.9062,-7.9062 q0,-2 -1.625,-3.375 q-1.625,-1.375 -4.25,-2.2812 q-2.625,-0.9062 -5.7188,-1.3438 q-3.0938,-0.4375 -6.0938,-0.5312 q-3,-0.0938 -5.3125,0.0938 Z M7.9375,17.9375 q0.75,0 0.75,0.8125 q0,0.3125 -0.2188,0.5312 q-0.2188,0.2188 -0.5312,0.2188 q-0.8125,0 -0.8125,-0.75 q0,-0.8125 0.8125,-0.8125 Z" fill="#D3D3D3" transform="matrix(1,0,0,-1,371,16)"/>
  <path d="" fill="#D3D3D3" transform="matrix(1,0,0,-1,401,23)"/>
  <path d="M8.6875,-0.5 q-2.8125,-0.0625 -4.7812,0.25 q-1.9688,0.3125 -3.2812,1.0625 q-0.625,0.375 -0.5938,0.8125 q0.0312,0.4375 0.7812,0.75 q1.25,0.5625 2.125,1.8125 q0.875,1.25 1.25,2.6875 q0.1875,0.8125 0.5312,0.7812 q0.3438,-0.0312 0.7188,-0.2188 q1.8125,-0.8125 3.25,-0.9688 q1.4375,-0.1562 3.5,-0.2188 q1.9375,-0.0625 3.75,-0.0625 q1.8125,0 3.4375,-0.0312 q1.625,-0.0312 3.125,-0.0625 q1.5,-0.0312 2.9375,-0.0312 q1.4375,0 2.7812,0 q1.3438,0 2.6562,0 q1.3125,0 2.625,0 q1.3125,0 2.625,0 q1.3125,0 2.6562,0.0312 q1.3438,0.0312 2.7812,0.0312 q1.4375,0 2.9375,0.0312 q1.5,0.0312 3.125,0.0625 q1.625,0.0312 3.4375,0.0625 q1.8125,0.0312 3.75,0.0938 q0.125,1.6875 -0.2812,3.6562 q-0.4062,1.9688 -2.4688,3.5938 q-0.6875,0.5 -0.5625,1.2812 q0.125,0.7812 0.9375,0.7812 q1.4375,0 3.375,1.5938 q1.9375,1.5938 3.25,4.2188 q0.3125,0.6875 0.9375,0.7812 q0.625,0.0938 0.6875,-0.9688 q0.1875,-2.4375 0.375,-5.1562 q0.1875,-2.7188 0.25,-6.3438 q0.0625,-1 0.25,-1.9688 q0.1875,-0.9688 0.75,-0.9688 v-6.875 q-2.875,0 -5.4688,0 q-2.5938,0 -4.9375,-0.0312 q-2.3438,-0.0312 -4.5,-0.0312 q-2.1562,0 -4.1562,-0.0312 q-2,-0.0312 -3.8438,-0.0625 q-1.8438,-0.0312 -3.5625,-0.0312 q-1.7188,0 -3.375,-0.0312 q-1.6562,-0.0312 -3.2812,-0.0625 q-1.625,-0.0312 -3.2188,-0.0312 q-1.5938,0 -3.1875,-0.0312 q-1.5938,-0.0312 -3.25,-0.0625 q-1.6562,-0.0312 -3.4062,-0.0312 q-1.75,0 -3.5938,-0.0312 q-1.8438,-0.0312 -3.8438,-0.0312 Z" fill="#D3D3D3" transform="matrix(1,0,0,-1,426,23)"/>
  <path d="M-1.4375,0 v16.5 h1 q0.125,-4.6875 3.0625,-7.1875 q2.9375,-2.5 8.25,-2.4375 l-7.9375,-6.875 h-4.375 Z" fill="#D3D3D3" transform="matrix(1,0,0,-1,488,23)"/>
  <path d="M-1.25,0 v6.875 q2.0625,0 4.4375,0 q2.375,0 4.5312,0.0625 q2.1562,0.0625 3.6875,0.2188 q1.5312,0.1562 1.9688,0.4062 q0.5,0.3125 0.4688,0.7188 q-0.0312,0.4062 -0.5312,0.2812 q-1.5,-0.25 -3.8125,-0.4688 q-2.3125,-0.2188 -4.7188,0.0938 q-2.4062,0.3125 -4.1562,1.5 q-1.5625,1.0625 -2.5625,2.7812 q-1,1.7188 -1,3.7812 q0,2.125 0.8438,4.3438 q0.8438,2.2188 2.375,4.0938 q1.5312,1.875 3.625,3.0312 q2.0938,1.1562 4.5938,1.1562 q2.6875,0 4.9688,-1.8438 q2.2812,-1.8438 3.9375,-4.9688 q1.6562,-3.125 2.5625,-6.9688 q0.9062,-3.8438 0.9062,-7.9062 q0,-2.1875 -1.375,-3.5938 q-1.375,-1.4062 -3.6875,-2.1562 q-2.3125,-0.75 -5.2188,-1.0625 q-2.9062,-0.3125 -5.9688,-0.375 q-3.0625,-0.0625 -5.875,0 Z M8.3125,17.9375 q0.75,0 0.75,0.8125 q0,0.3125 -0.2188,0.5312 q-0.2188,0.2188 -0.5312,0.2188 q-0.8125,0 -0.8125,-0.75 q0,-0.8125 0.8125,-0.8125 Z" fill="#D3D3D3" transform="matrix(1,0,0,-1,492,23)"/>
  <path d="" fill="#D3D3D3" transform="matrix(1,0,0,-1,513,23)"/>
  <path d="M17.875,-0.8125 q-5.3125,-0.0625 -9.0312,0.4688 q-3.7188,0.5312 -5.5312,2.2188 q-2,1.8125 -2.5,5.0625 q-0.5,3.25 -0.375,7.4375 q0.125,3.375 0.2188,7.5938 q0.0938,4.2188 0.0625,8.375 q-0.0312,4.1562 -0.3438,7.2812 q0,0.25 -0.0625,0.6875 q-0.3125,2.75 -0.2812,3.7812 q0.0312,1.0312 0.7812,1.5312 q1.25,0.75 2.375,1.8125 q1.125,1.0625 2.0625,2.75 q0.3125,0.5 0.7812,0.4375 q0.4688,-0.0625 0.5312,-1 q0.25,-4.0625 0.1875,-9.0625 q-0.0625,-5 -0.25,-9.75 q-0.125,-4.875 -0.1875,-8.875 q-0.0625,-4 0.3125,-5.875 q0.625,-3 2.625,-4.7812 q2,-1.7812 4.9375,-2.5938 q2.9375,-0.8125 6.3438,-0.9062 q3.4062,-0.0938 6.7812,0.2812 q0.5625,0.0625 0.5938,0.5938 q0.0312,0.5312 -0.6562,0.4688 q-8.875,-0.875 -13.1562,0.8125 q-4.2812,1.6875 -4.9062,5.375 q-0.625,4.125 0.7188,7.6562 q1.3438,3.5312 4.2812,5.6875 q2.9375,2.1562 7,2.0938 q2.75,0 5.25,-1.6562 q2.5,-1.6562 4.4375,-4.5625 q1.9375,-2.9062 3.0312,-6.7188 q1.0938,-3.8125 1.0938,-8.1875 q0,-3.0625 -1.5,-4.875 q-1.5,-1.8125 -5.2188,-2.625 q-3.7188,-0.8125 -10.4062,-0.9375 Z M22.875,16.5625 q0.75,0 0.75,0.8125 q0,0.3125 -0.2188,0.5312 q-0.2188,0.2188 -0.5312,0.2188 q-0.8125,0 -0.8125,-0.75 q0,-0.8125 0.8125,-0.8125 Z" fill="#D3D3D3" transform="matrix(1,0,0,-1,538,23)"/>
</svg>
