<?xml version='1.0' encoding='ASCII'?>
<svg xmlns="http://www.w3.org/2000/svg" width="586" height="75" preserveAspectRatio="xMinYMin slice" viewBox="-2 -23 586 75" version="1.1">
  <path d="M-2,-23 v75 h586 v-75 Z" fill="#000000" transform="matrix(1,0,0,-1,0,29)"/>
  <path d="M20.6875,-20.8125 q-5.6875,0 -9.5938,2.0938 q-3.9062,2.0938 -5.1562,5.7812 q-1,3.125 -0.3438,7.25 q0.6562,4.125 2.2188,9.0625 q-1.375,2 -3.4688,3.75 q-2.0938,1.75 -4.0938,3.8125 q-0.375,0.4375 -0.25,0.9688 q0.125,0.5312 0.5625,0.7812 q1.1875,0.8125 2.0938,1.6562 q0.9062,0.8438 2.0938,2.7812 q0.25,0.375 0.5938,0.2812 q0.3438,-0.0938 0.6562,-0.4062 q0.6875,-0.6875 1.5312,-1.4688 q0.8438,-0.7812 1.7188,-1.7188 q-0.0625,0.875 -0.1875,1.8125 q-0.0625,0.8125 0.625,1.25 q1.8125,1.1875 2.8125,2.1875 q1,1 2.25,3.125 q0.4375,0.6875 0.7188,0.5625 q0.2812,-0.125 0.3438,-0.875 q0.3125,-4.125 0.4688,-7.1562 q0.1562,-3.0312 0.2188,-4.9688 q0.0625,-1 0.25,-1.9375 q0.1875,-0.9375 0.75,-0.9375 v-6.875 h-5.5 q-1.0625,-4.3125 -0.125,-7.2188 q0.9375,-2.9062 3.3438,-4.6562 q2.4062,-1.75 5.7812,-2.4062 q3.375,-0.6562 7.3125,-0.375 q3.9375,0.2812 7.9375,1.4062 q0.5,0.125 0.7812,-0.0625 q0.2812,-0.1875 -0.2188,-0.9375 q-1.25,-1.75 -3.1875,-3.25 q-1.9375,-1.5 -5.0312,-2.4062 q-3.0938,-0.9062 -7.9062,-0.9062 Z" fill="#D3D3D3" transform="matrix(1,0,0,-1,-1,29)"/>
  <path d="M-1.5,2.8125 v9.8125 h1.1875 q0.0625,-2.3125 1.0312,-3.25 q0.9688,-0.9375 1.8438,-1.25 v-5.3125 h-4.0625 Z" fill="#D3D3D3" transform="matrix(1,0,0,-1,16,29)"/>
  <path d="M12.5,-0.5 q-1.3125,0 -2.7188,0.125 q-1.4062,0.125 -2.7812,0.375 h-8.25 v6.875 h2.1875 q-0.0625,5 1.75,8.3438 q1.8125,3.3438 4.5625,5.0312 q2.75,1.6875 5.5625,1.6875 q2.8125,0 5.1562,-1.8438 q2.3438,-1.8438 3.875,-5.2188 q1.5312,-3.375 1.8438,-8 h0.0625 v-6.875 h-4.4375 q-1.6875,-0.4375 -3.5312,-0.4688 q-1.8438,-0.0312 -3.2812,-0.0312 Z M13.125,10.4375 q0.75,0 0.75,0.8125 q0,0.3125 -0.2188,0.5312 q-0.2188,0.2188 -0.5312,0.2188 q-0.8125,0 -0.8125,-0.75 q0,-0.8125 0.8125,-0.8125 Z" fill="#D3D3D3" transform="matrix(1,0,0,-1,16,29)"/>
  <path d="M-2.5,2.8125 v8.25 h1.125 q0.375,-1.1875 1.1562,-1.9062 q0.7812,-0.7188 1.2188,-0.9062 v-5.4375 h-3.5 Z" fill="#D3D3D3" transform="matrix(1,0,0,-1,41,29)"/>
  <path d="M-1.25,0 v6.875 h3.375 q-0.3125,1 -0.625,2.0312 q-0.3125,1.0312 -0.5,1.6562 q-0.1875,0.625 0,0.9062 q0.1875,0.2812 0.6875,0.5312 q1.25,0.5625 2.0312,1.5 q0.7812,0.9375 1.7812,2.625 q0.3125,0.5625 0.6562,0.5625 q0.3438,0 0.5312,-0.6875 q0.75,-3.0625 1.4688,-4.3125 q0.7188,-1.25 1.5312,-1.9375 q-0.8125,1.8125 -0.9375,2.5 q-0.0625,0.375 0.0625,0.5 q0.125,0.125 0.375,0.3125 q0.0625,0.0625 0.125,0.0625 q1.25,0.625 2.1562,1.7188 q0.9062,1.0938 1.8438,3.6562 q0.125,0.4375 0.5312,0.5 q0.4062,0.0625 0.5312,-0.4375 q0.5625,-1.8125 1.4375,-3.6562 q0.875,-1.8438 1.8125,-3.4688 q-0.0625,1.3125 -0.0938,2.5 q-0.0312,1.1875 -0.0938,2.125 q-0.0625,1.0625 0.75,1.4375 q1,0.5 1.875,1.5312 q0.875,1.0312 1.5312,2.125 q0.6562,1.0938 0.9688,1.7188 q0.4375,0.875 0.9062,0.875 q0.4688,0 0.5938,-1.0625 q0.3125,-1.75 0.4375,-4.0312 q0.125,-2.2812 0.2188,-4.5938 q0.0938,-2.3125 0.1562,-4.25 q0.0625,-1.0625 0.25,-2 q0.1875,-0.9375 0.75,-0.9375 v-6.875 h-27.125 Z" fill="#D3D3D3" transform="matrix(1,0,0,-1,40,29)"/>
  <path d="M-1.5,2.8125 v9.8125 h1.1875 q0.0625,-2.3125 1.0312,-3.25 q0.9688,-0.9375 1.8438,-1.25 v-5.3125 h-4.0625 Z" fill="#D3D3D3" transform="matrix(1,0,0,-1,65,29)"/>
  <path d="M-1.25,0 v6.875 h2.375 q-0.0625,4.0625 -0.2812,8.875 q-0.2188,4.8125 -0.5,9.9688 q-0.2812,5.1562 -0.5938,10.1562 q0,0.125 -0.0625,0.375 q-0.0625,0.375 -0.0312,0.875 q0.0312,0.5 0.5938,1 q0.5625,0.4375 1.4375,1.2188 q0.875,0.7812 1.6875,1.6562 q0.8125,0.875 1.1875,1.5625 q0.5,0.875 1,0.6562 q0.5,-0.2188 0.5625,-1.2812 q0.3125,-6.125 0.5938,-12.375 q0.2812,-6.25 0.5625,-11.9688 q0.2812,-5.7188 0.4062,-10.3438 q0.125,-3.375 -0.5625,-4.875 q-0.6875,-1.5 -2.1875,-1.9062 q-1.5,-0.4062 -3.8125,-0.4688 h-2.375 Z M0.1875,0 v6.875 h7.5 v-6.875 h-7.5 Z" fill="#D3D3D3" transform="matrix(1,0,0,-1,65,29)"/>
  <path d="M-1.5,2.8125 v9.8125 h1.1875 q0.0625,-2.3125 1.0312,-3.25 q0.9688,-0.9375 1.8438,-1.25 v-5.3125 h-4.0625 Z" fill="#D3D3D3" transform="matrix(1,0,0,-1,73,29)"/>
  <path d="M-1.25,0 v6.875 h2.375 q-0.0625,3 -0.2188,7.4375 q-0.1562,4.4375 -0.4062,9.4375 q-0.25,5 -0.5,9.8125 q-0.25,4.8125 -0.5,8.5625 q0,0.125 -0.0625,0.375 q-0.0625,0.375 -0.0312,0.875 q0.0312,0.5 0.5938,1 q0.5625,0.4375 1.4375,1.2188 q0.875,0.7812 1.6875,1.6562 q0.8125,0.875 1.1875,1.5625 q0.5,0.875 1,0.6562 q0.5,-0.2188 0.5625,-1.2812 q0.1875,-3.6875 0.375,-8.0625 q0.1875,-4.375 0.4062,-9 q0.2188,-4.625 0.4062,-9.0312 q0.1875,-4.4062 0.375,-8.25 q0.1875,-3.8438 0.25,-6.5938 q0.125,-3.375 -0.5625,-4.875 q-0.6875,-1.5 -2.1875,-1.9062 q-1.5,-0.4062 -3.8125,-0.4688 h-2.375 Z" fill="#D3D3D3" transform="matrix(1,0,0,-1,73,29)"/>
  <path d="" fill="#D3D3D3" transform="matrix(1,0,0,-1,81,29)"/>
  <path d="M4.3917,3.4097 q-0.6125,0.1244 -0.4881,0.7369 q0.0622,0.3062 0.3445,0.4402 q1.5589,0.7676 2.9777,1.7868 q1.4187,1.0192 2.7949,2.1428 q0.2335,0.2077 0.5397,0.1455 q0.6125,-0.1244 0.4881,-0.7369 q-0.0498,-0.245 -0.1971,-0.3426 q-2.8633,-2.4797 -6.0673,-4.1248 q-0.1474,-0.0976 -0.3924,-0.0479 Z M0.5167,8.2847 q-0.6125,0.1244 -0.4881,0.7369 q0.0622,0.3062 0.3445,0.4402 q1.5589,0.7676 2.9777,1.7868 q1.4187,1.0192 2.7949,2.1428 q0.2335,0.2077 0.5397,0.1455 q0.6125,-0.1244 0.4881,-0.7369 q-0.0498,-0.245 -0.1971,-0.3426 q-2.8633,-2.4797 -6.0673,-4.1248 q-0.1474,-0.0976 -0.3924,-0.0479 Z M2.4542,5.8472 q-0.6125,0.1244 -0.4881,0.7369 q0.0622,0.3062 0.3445,0.4402 q1.5589,0.7676 2.9777,1.7868 q1.4187,1.0192 2.7949,2.1428 q0.2335,0.2077 0.5397,0.1455 q0.6125,-0.1244 0.4881,-0.7369 q-0.0498,-0.245 -0.1971,-0.3426 q-2.8633,-2.4797 -6.0673,-4.1248 q-0.1474,-0.0976 -0.3924,-0.0479 Z" fill="#D3D3D3" transform="matrix(1,0,0,-1,106,29)"/>
  <path d="" fill="#D3D3D3" transform="matrix(1,0,0,-1,117,29)"/>
  <path d="M4.0625,0 q-2.3125,0 -3.1562,0.9062 q-0.8438,0.9062 -0.9062,2.5312 q-0.125,4.3125 -0.1875,9.1875 q-0.0625,4.875 -0.1562,9.6562 q-0.0938,4.7812 -0.25,8.9062 q-0.1562,4.125 -0.4062,6.9375 q0,0.25 -0.0312,0.4375 q-0.0312,0.1875 -0.0312,0.375 q-0.25,2.625 -0.2188,3.6562 q0.0312,1.0312 0.7812,1.5312 q1.25,0.75 2.3438,2.0312 q1.0938,1.2812 2.0938,2.9688 q0.3125,0.5 0.8125,0.4375 q0.5,-0.0625 0.5,-1 q0,-3 0.0625,-6.7812 q0.0625,-3.7812 0.125,-7.7812 q0.0625,-4 0.1562,-7.6875 q0.0938,-3.6875 0.1562,-6.5312 q0.0625,-2.8438 0.125,-4.3438 q0.1875,-3.5 0.3125,-5.375 q0.125,-1.875 0.3438,-2.5312 q0.2188,-0.6562 0.5938,-0.6562 v-6.875 h-3.0625 Z" fill="#D3D3D3" transform="matrix(1,0,0,-1,142,29)"/>
  <path d="M-1.5,0 v13.25 h1.1875 q0,-1.5625 0.6562,-3.0625 q0.6562,-1.5 1.7188,-2.4375 q1.0625,-0.9375 2.25,-0.875 v-6.875 h-5.8125 Z" fill="#D3D3D3" transform="matrix(1,0,0,-1,148,29)"/>
  <path d="M14.875,-0.5 q-3.6875,0.125 -6.9062,1.2812 q-3.2188,1.1562 -5.1562,3.9688 q-1.625,2.375 -1.875,4.625 q-0.25,2.25 0.4375,4.2188 q0.6875,1.9688 1.875,3.5938 q1.125,1.5 2.9375,2.8438 q1.8125,1.3438 3.9688,2.3438 q2.1562,1 4.2188,1.5625 q-0.0625,0.1875 -0.0625,0.3125 q-0.0625,0.3125 0.0625,0.6562 q0.125,0.3438 0.5,0.5312 q1.125,0.5 2.4375,1.5625 q1.3125,1.0625 1.8125,2.375 q0.3125,0.6875 0.9062,0.625 q0.5938,-0.0625 0.7188,-0.625 q0.125,-0.3125 0.25,-1.9375 q0.125,-1.625 0.3125,-4 q0.1875,-2.375 0.375,-4.9688 q0.1875,-2.5938 0.2812,-4.9062 q0.0938,-2.3125 0.1562,-3.75 q0.0625,-1.0625 0.25,-2 q0.1875,-0.9375 0.75,-0.9375 v-6.875 h-5 q-1.5625,-0.5625 -3.25,-0.5 Z M14.3125,8.1875 q0.3125,-0.0625 0.5625,0.1875 q0.25,0.25 0.25,0.5625 q0,0.6875 -0.6875,0.8125 q-0.3125,0 -0.5938,-0.2188 q-0.2812,-0.2188 -0.2812,-0.5312 q0,-0.8125 0.75,-0.8125 Z M14,15 q0.3125,-0.0625 0.5312,0.1875 q0.2188,0.25 0.2812,0.5625 q0,0.6875 -0.75,0.8125 q-0.8125,0 -0.8125,-0.75 q-0.0625,-0.3125 0.1875,-0.5625 q0.25,-0.25 0.5625,-0.25 Z M-1.2499,0 v6.875 h14.9995 v-6.875 h-14.9995 Z" fill="#D3D3D3" transform="matrix(1,0,0,-1,148,29)"/>
  <path d="M1.1106,0.3964 q-0.6173,-0.0978 -0.7151,0.5195 q-0.0489,0.3086 0.1687,0.5329 q1.1918,1.2645 2.1643,2.7157 q0.9724,1.4512 1.8685,2.9853 q0.1461,0.2762 0.4547,0.3251 q0.6173,0.0978 0.7151,-0.5195 q0.0391,-0.2469 -0.0648,-0.3899 q-1.8147,-3.3248 -4.2405,-5.987 q-0.1039,-0.143 -0.3508,-0.1821 Z" fill="#D3D3D3" transform="matrix(1,0,0,-1,170,8)"/>
  <path d="M-1.5,2.8125 v9.8125 h1.1875 q0.0625,-2.3125 1.0312,-3.25 q0.9688,-0.9375 1.8438,-1.25 v-5.3125 h-4.0625 Z" fill="#D3D3D3" transform="matrix(1,0,0,-1,170,29)"/>
  <path d="M-1.25,0 v6.875 h2.5625 q0,3 -0.125,6.2812 q-0.125,3.2812 -0.375,5.6562 q-0.125,1 0.9375,1.6875 q0.875,0.625 2,1.9688 q1.125,1.3438 1.625,2.7188 q0.25,0.625 0.8438,0.625 q0.5938,0 0.6562,-0.875 q0.4375,-3.25 0.625,-7.375 q0.1875,-4.125 0.3125,-7.75 q0.0625,-1.0625 0.25,-2 q0.1875,-0.9375 0.75,-0.9375 v-6.875 h-10.0625 Z" fill="#D3D3D3" transform="matrix(1,0,0,-1,170,29)"/>
  <path d="M-1.5,2.8125 v9.8125 h1.1875 q0.0625,-2.3125 1.0312,-3.25 q0.9688,-0.9375 1.8438,-1.25 v-5.3125 h-4.0625 Z" fill="#D3D3D3" transform="matrix(1,0,0,-1,178,29)"/>
  <path d="M17.3125,-0.625 q-0.875,0 -1.75,0 v0 q-4.0625,0.0625 -8.4062,0.3438 q-4.3438,0.2812 -8.4062,0.2812 v6.875 h2.375 q-0.0625,0.375 -0.0625,0.8125 q0.0625,2.75 1.1562,5.5312 q1.0938,2.7812 3,5.0938 q1.9062,2.3125 4.4062,3.6875 q2.5,1.375 5.3125,1.375 q2.375,0 4.5,-1.5312 q2.125,-1.5312 3.7188,-4.0625 q1.5938,-2.5312 2.5,-5.5312 q0.9062,-3 0.9062,-6 q0,-1.875 -0.75,-3.4375 q-0.75,-1.5625 -2.75,-2.5 q-2,-0.9375 -5.75,-0.9375 Z M16.3125,10.5 q0.75,0 0.75,0.8125 q0,0.3125 -0.2188,0.5312 q-0.2188,0.2188 -0.5312,0.2188 q-0.8125,0 -0.8125,-0.75 q0,-0.8125 0.8125,-0.8125 Z" fill="#D3D3D3" transform="matrix(1,0,0,-1,178,29)"/>
  <path d="" fill="#D3D3D3" transform="matrix(1,0,0,-1,205,29)"/>
  <path d="M4.3917,3.4097 q-0.6125,0.1244 -0.4881,0.7369 q0.0622,0.3062 0.3445,0.4402 q1.5589,0.7676 2.9777,1.7868 q1.4187,1.0192 2.7949,2.1428 q0.2335,0.2077 0.5397,0.1455 q0.6125,-0.1244 0.4881,-0.7369 q-0.0498,-0.245 -0.1971,-0.3426 q-2.8633,-2.4797 -6.0673,-4.1248 q-0.1474,-0.0976 -0.3924,-0.0479 Z M0.5167,8.2847 q-0.6125,0.1244 -0.4881,0.7369 q0.0622,0.3062 0.3445,0.4402 q1.5589,0.7676 2.9777,1.7868 q1.4187,1.0192 2.7949,2.1428 q0.2335,0.2077 0.5397,0.1455 q0.6125,-0.1244 0.4881,-0.7369 q-0.0498,-0.245 -0.1971,-0.3426 q-2.8633,-2.4797 -6.0673,-4.1248 q-0.1474,-0.0976 -0.3924,-0.0479 Z M2.4542,5.8472 q-0.6125,0.1244 -0.4881,0.7369 q0.0622,0.3062 0.3445,0.4402 q1.5589,0.7676 2.9777,1.7868 q1.4187,1.0192 2.7949,2.1428 q0.2335,0.2077 0.5397,0.1455 q0.6125,-0.1244 0.4881,-0.7369 q-0.0498,-0.245 -0.1971,-0.3426 q-2.8633,-2.4797 -6.0673,-4.1248 q-0.1474,-0.0976 -0.3924,-0.0479 Z" fill="#D3D3D3" transform="matrix(1,0,0,-1,230,29)"/>
  <path d="" fill="#D3D3D3" transform="matrix(1,0,0,-1,241,29)"/>
  <path d="M4.0625,0 q-2.3125,0 -3.1562,0.9062 q-0.8438,0.9062 -0.9062,2.5312 q-0.125,4.3125 -0.1875,9.1875 q-0.0625,4.875 -0.1562,9.6562 q-0.0938,4.7812 -0.25,8.9062 q-0.1562,4.125 -0.4062,6.9375 q0,0.25 -0.0312,0.4375 q-0.0312,0.1875 -0.0312,0.375 q-0.25,2.625 -0.2188,3.6562 q0.0312,1.0312 0.7812,1.5312 q1.25,0.75 2.3438,2.0312 q1.0938,1.2812 2.0938,2.9688 q0.3125,0.5 0.8125,0.4375 q0.5,-0.0625 0.5,-1 q0,-3 0.0625,-6.7812 q0.0625,-3.7812 0.125,-7.7812 q0.0625,-4 0.1562,-7.6875 q0.0938,-3.6875 0.1562,-6.5312 q0.0625,-2.8438 0.125,-4.3438 q0.1875,-3.5 0.3125,-5.375 q0.125,-1.875 0.3438,-2.5312 q0.2188,-0.6562 0.5938,-0.6562 v-6.875 h-3.0625 Z" fill="#D3D3D3" transform="matrix(1,0,0,-1,266,29)"/>
  <path d="M1,0.3125 q-0.625,0 -0.625,0.625 q0,0.3125 0.25,0.5 q1.375,1.0625 2.5625,2.3438 q1.1875,1.2812 2.3125,2.6562 q0.1875,0.25 0.5,0.25 q0.625,0 0.625,-0.625 q0,-0.25 -0.125,-0.375 q-2.3125,-3 -5.125,-5.25 q-0.125,-0.125 -0.375,-0.125 Z" fill="#D3D3D3" transform="matrix(1,0,0,-1,273,36)"/>
  <path d="M-1.5,2.8125 v9.8125 h1.1875 q0.0625,-2.3125 1.0312,-3.25 q0.9688,-0.9375 1.8438,-1.25 v-5.3125 h-4.0625 Z" fill="#D3D3D3" transform="matrix(1,0,0,-1,272,29)"/>
  <path d="M-1.25,0 v6.875 h2.5625 q-0.0625,3 -0.1875,5.0625 q-0.125,2.0625 -0.25,3.5 q-0.0625,0.5 0.0938,0.7812 q0.1562,0.2812 0.7812,0.5938 q1.3125,0.75 2,1.875 q0.6875,1.125 2.125,3.25 q0.3125,0.375 0.7812,0.3125 q0.4688,-0.0625 0.5312,-0.9375 q0.1875,-2.4375 0.375,-5.1562 q0.1875,-2.7188 0.25,-6.3438 q0.0625,-1.0625 0.25,-2 q0.1875,-0.9375 0.75,-0.9375 v-6.875 h-10.0625 Z" fill="#D3D3D3" transform="matrix(1,0,0,-1,272,29)"/>
  <path d="M1,0.3125 q-0.625,0 -0.625,0.625 q0,0.3125 0.25,0.5 q1.375,1.0625 2.5625,2.3438 q1.1875,1.2812 2.3125,2.6562 q0.1875,0.25 0.5,0.25 q0.625,0 0.625,-0.625 q0,-0.25 -0.125,-0.375 q-2.3125,-3 -5.125,-5.25 q-0.125,-0.125 -0.375,-0.125 Z" fill="#D3D3D3" transform="matrix(1,0,0,-1,281,36)"/>
  <path d="M-1.5,2.8125 v9.8125 h1.1875 q0.0625,-2.3125 1.0312,-3.25 q0.9688,-0.9375 1.8438,-1.25 v-5.3125 h-4.0625 Z" fill="#D3D3D3" transform="matrix(1,0,0,-1,280,29)"/>
  <path d="M-1.25,0 v6.875 h2.5625 q-0.0625,1.5 -0.125,3.5938 q-0.0625,2.0938 -0.1562,4.3438 q-0.0938,2.25 -0.2188,4.1875 q-0.125,1.9375 -0.25,3.125 q-0.125,1.0625 0.9375,1.375 q0.625,0.1875 1.3438,1 q0.7188,0.8125 1.3438,1.875 q0.625,1.0625 0.875,1.9375 q0.1875,0.625 0.8438,0.625 q0.6562,0 0.7188,-0.875 q0.1875,-1.625 0.375,-3.9688 q0.1875,-2.3438 0.3438,-4.9688 q0.1562,-2.625 0.2812,-5.0625 q0.125,-2.4375 0.1875,-4.25 q0.0625,-1.0625 0.25,-2 q0.1875,-0.9375 0.75,-0.9375 v-6.875 h-10.0625 Z" fill="#D3D3D3" transform="matrix(1,0,0,-1,280,29)"/>
  <path d="M-1.5,2.8125 v9.8125 h1.1875 q0.0625,-2.3125 1.0312,-3.25 q0.9688,-0.9375 1.8438,-1.25 v-5.3125 h-4.0625 Z" fill="#D3D3D3" transform="matrix(1,0,0,-1,288,29)"/>
  <path d="M15.0625,-0.125 l-16.3125,0.125 v6.875 h3.4375 q-0.25,0.5 -0.625,1.8125 q-0.375,1.3125 -0.5625,1.875 q-0.1875,0.625 0,0.9062 q0.1875,0.2812 0.6875,0.5312 q1.25,0.5625 1.9688,1.5312 q0.7188,0.9688 1.7188,2.6562 q0.3125,0.5625 0.8438,0.5625 q0.5312,0 0.6562,-0.6875 q0.6875,-3.25 1.1875,-5 q0.5,-1.75 1.5625,-2.3125 q-0.375,0.875 -0.6562,1.875 q-0.2812,1 -0.3438,1.875 q0,0.4375 0.2812,0.6875 q0.2812,0.25 0.5938,0.4375 q1.25,0.625 2.1562,1.5625 q0.9062,0.9375 1.6562,2.8125 q0.1875,0.4375 0.5625,0.5 q0.375,0.0625 0.5,-0.4375 q0.5625,-1.5625 0.9062,-3.4062 q0.3438,-1.8438 0.7812,-3.4375 q0.4375,-1.5938 1.125,-2.4062 q-0.125,1 -0.3125,2.3438 q-0.1875,1.3438 -0.375,2.5625 q-0.1875,1.2188 -0.3125,1.7188 q-0.125,0.5 0.0312,0.75 q0.1562,0.25 0.4688,0.4375 q0.1875,0.125 0.25,0.1875 q1,0.6875 2.0312,1.9688 q1.0312,1.2812 1.4062,2.7812 q0.1875,0.75 0.6562,0.8438 q0.4688,0.0938 0.6562,-0.7812 q0.25,-1.1875 0.5938,-3.375 q0.3438,-2.1875 0.6875,-4.7188 q0.3438,-2.5312 0.5312,-4.9375 q0.1875,-2.4062 0.125,-4.0938 q-0.0625,-1.1875 -0.7812,-2.2812 q-0.7188,-1.0938 -2.5625,-1.7188 q-1.8438,-0.625 -5.2188,-0.625 Z" fill="#D3D3D3" transform="matrix(1,0,0,-1,288,29)"/>
  <path d="" fill="#D3D3D3" transform="matrix(1,0,0,-1,312,29)"/>
  <path d="M4.3917,3.4097 q-0.6125,0.1244 -0.4881,0.7369 q0.0622,0.3062 0.3445,0.4402 q1.5589,0.7676 2.9777,1.7868 q1.4187,1.0192 2.7949,2.1428 q0.2335,0.2077 0.5397,0.1455 q0.6125,-0.1244 0.4881,-0.7369 q-0.0498,-0.245 -0.1971,-0.3426 q-2.8633,-2.4797 -6.0673,-4.1248 q-0.1474,-0.0976 -0.3924,-0.0479 Z M0.5167,8.2847 q-0.6125,0.1244 -0.4881,0.7369 q0.0622,0.3062 0.3445,0.4402 q1.5589,0.7676 2.9777,1.7868 q1.4187,1.0192 2.7949,2.1428 q0.2335,0.2077 0.5397,0.1455 q0.6125,-0.1244 0.4881,-0.7369 q-0.0498,-0.245 -0.1971,-0.3426 q-2.8633,-2.4797 -6.0673,-4.1248 q-0.1474,-0.0976 -0.3924,-0.0479 Z M2.4542,5.8472 q-0.6125,0.1244 -0.4881,0.7369 q0.0622,0.3062 0.3445,0.4402 q1.5589,0.7676 2.9777,1.7868 q1.4187,1.0192 2.7949,2.1428 q0.2335,0.2077 0.5397,0.1455 q0.6125,-0.1244 0.4881,-0.7369 q-0.0498,-0.245 -0.1971,-0.3426 q-2.8633,-2.4797 -6.0673,-4.1248 q-0.1474,-0.0976 -0.3924,-0.0479 Z" fill="#D3D3D3" transform="matrix(1,0,0,-1,337,29)"/>
  <path d="" fill="#D3D3D3" transform="matrix(1,0,0,-1,348,29)"/>
  <path d="M10.6875,-0.3125 q-3.8125,0.0625 -6.4375,0.4062 q-2.625,0.3438 -3.625,1.1562 q-0.6875,0.5 -0.625,1 q0.0625,0.5 0.8125,0.5 q0.375,0 0.7188,0.2188 q0.3438,0.2188 0.5938,0.4688 q0.5625,0.5625 1.4062,1.6562 q0.8438,1.0938 1.5312,2.2188 q0.6875,1.0625 2.1875,0.1875 q0.6875,-0.375 2.125,-0.5625 q1.4375,-0.1875 3.0625,-0.3125 q0.4375,0 1,-0.0312 q0.5625,-0.0312 1.2188,-0.0625 q0.6562,-0.0312 1.4375,-0.0625 q0.7812,-0.0312 1.6562,-0.0625 q0.875,-0.0312 1.8438,-0.0625 q0.9688,-0.0312 2.0312,-0.0312 q1.0625,0 2.1875,-0.0312 q1.125,-0.0312 2.2812,-0.0312 q1.1562,0 2.4062,0 q1.25,0 2.5,0.0312 q1.25,0.0312 2.5625,0.0625 q1.3125,0.0312 2.6562,0.0625 q1.3438,0.0312 2.6875,0.0938 q1.3438,0.0625 2.6875,0.1562 q1.3438,0.0938 2.6562,0.1562 q1.375,0.125 1.625,0.3438 q0.25,0.2188 0.125,0.5938 q-0.0625,0.125 -0.2188,0.25 q-0.1562,0.125 -0.6562,0.0625 q-0.75,-0.0625 -1.6562,-0.125 q-0.9062,-0.0625 -1.9688,-0.125 q-1.0625,-0.0625 -2.2188,-0.125 q-1.1562,-0.0625 -2.4062,-0.0938 q-1.25,-0.0312 -2.5625,-0.0625 q-1.3125,-0.0312 -2.6562,-0.0625 q-1.3438,-0.0312 -2.75,-0.0312 q-1.4062,0 -2.7812,0 q-1.375,0 -2.7188,0.0312 q-1.3438,0.0312 -2.6562,0.0312 q-1.3125,0 -2.5625,0.0625 q-1.25,0.0625 -2.375,0.125 q-1.125,0.0625 -2.1562,0.125 q-1.0312,0.0625 -1.9375,0.1562 q-0.9062,0.0938 -1.6562,0.2188 q-1.5625,0.1875 -2.1562,0.6875 q-0.5938,0.5 0.0312,1.375 q2.125,2.8125 4.1875,5.6562 q2.0625,2.8438 3.8125,5.7812 q0.3125,0.5 0.7188,0.3125 q0.4062,-0.1875 0.1562,-0.75 q-0.25,-0.5625 -0.7812,-1.75 q-0.5312,-1.1875 -1.0312,-2.3438 q-0.5,-1.1562 -0.75,-1.7812 q0.875,-0.0625 1.8438,-0.1562 q0.9688,-0.0938 2,-0.1562 q1.0312,-0.0625 2.1562,-0.0938 q1.125,-0.0312 2.2812,-0.0625 q1.1562,-0.0312 2.375,-0.0312 q1.2188,0 2.4688,0 q1.25,0 2.5312,0 q1.2812,0 2.5938,0 q1.3125,0 2.625,0.0312 q1.3125,0.0312 2.5938,0.0625 q1.2812,0.0312 2.5625,0.0625 q1.2812,0.0312 2.5625,0.0625 q1.2812,0.0312 2.5,0.0625 q1.2188,0.0312 2.375,0.0938 q1.1562,0.0625 2.2812,0.0625 q1.125,0.0625 1.5312,-0.4688 q0.4062,-0.5312 0.9688,-1.8438 q0.75,-1.6875 1.6562,-4.0625 q0.9062,-2.375 0.9688,-5.4375 q0.0625,-1.25 -1.0312,-2.125 q-1.0938,-0.875 -2.2188,-1 q-1.375,-0.125 -2.7812,-0.2188 q-1.4062,-0.0938 -2.7812,-0.1562 q-1.375,-0.0625 -2.75,-0.125 q-1.375,-0.0625 -2.75,-0.0938 q-1.375,-0.0312 -2.7188,-0.0938 q-1.3438,-0.0625 -2.7188,-0.0625 q-1.375,0 -2.7188,-0.0312 q-1.3438,-0.0312 -2.7188,-0.0312 q-1.375,0 -2.75,0 q-1.375,0 -2.7188,0 q-1.3438,0 -2.7188,0 q-1.375,0 -2.75,0.0312 q-1.375,0.0312 -2.75,0.0312 q-1.375,0 -2.7812,0.0312 q-1.4062,0.0312 -2.7812,0.0312 Z M30.125,-0.4375 l21.25,7.3125 h3.3125 v-6.875 q-5.5625,-0.1875 -11.8438,-0.3125 q-6.2812,-0.125 -12.7188,-0.125 Z" fill="#D3D3D3" transform="matrix(1,0,0,-1,373,29)"/>
  <path d="M1,0.3125 q-0.625,0 -0.625,0.625 q0,0.3125 0.25,0.5 q1.375,1.0625 2.5625,2.3438 q1.1875,1.2812 2.3125,2.6562 q0.1875,0.25 0.5,0.25 q0.625,0 0.625,-0.625 q0,-0.25 -0.125,-0.375 q-2.3125,-3 -5.125,-5.25 q-0.125,-0.125 -0.375,-0.125 Z" fill="#D3D3D3" transform="matrix(1,0,0,-1,432,32)"/>
  <path d="M-1.25,0 v6.875 h2.4375 q-0.0625,2.625 -0.0938,4.25 q-0.0312,1.625 -0.1562,3.1875 q0,0.1875 -0.0625,0.625 q-0.0625,1.125 0,1.8438 q0.0625,0.7188 0.625,1.0938 q2.8125,1.875 4.8125,4.9375 q0.3125,0.5 0.5938,0.4062 q0.2812,-0.0938 0.2812,-0.5312 q0,-4.6875 0.4375,-9.0938 q0.4375,-4.4062 0.5,-9.0938 q0.0625,-1.625 -1.375,-3.0625 q-1.4375,-1.4375 -3.25,-1.4375 h-4.75 Z" fill="#D3D3D3" transform="matrix(1,0,0,-1,427,29)"/>
  <path d="" fill="#D3D3D3" transform="matrix(1,0,0,-1,435,29)"/>
  <path d="M4.3917,3.4097 q-0.6125,0.1244 -0.4881,0.7369 q0.0622,0.3062 0.3445,0.4402 q1.5589,0.7676 2.9777,1.7868 q1.4187,1.0192 2.7949,2.1428 q0.2335,0.2077 0.5397,0.1455 q0.6125,-0.1244 0.4881,-0.7369 q-0.0498,-0.245 -0.1971,-0.3426 q-2.8633,-2.4797 -6.0673,-4.1248 q-0.1474,-0.0976 -0.3924,-0.0479 Z M0.5167,8.2847 q-0.6125,0.1244 -0.4881,0.7369 q0.0622,0.3062 0.3445,0.4402 q1.5589,0.7676 2.9777,1.7868 q1.4187,1.0192 2.7949,2.1428 q0.2335,0.2077 0.5397,0.1455 q0.6125,-0.1244 0.4881,-0.7369 q-0.0498,-0.245 -0.1971,-0.3426 q-2.8633,-2.4797 -6.0673,-4.1248 q-0.1474,-0.0976 -0.3924,-0.0479 Z M2.4542,5.8472 q-0.6125,0.1244 -0.4881,0.7369 q0.0622,0.3062 0.3445,0.4402 q1.5589,0.7676 2.9777,1.7868 q1.4187,1.0192 2.7949,2.1428 q0.2335,0.2077 0.5397,0.1455 q0.6125,-0.1244 0.4881,-0.7369 q-0.0498,-0.245 -0.1971,-0.3426 q-2.8633,-2.4797 -6.0673,-4.1248 q-0.1474,-0.0976 -0.3924,-0.0479 Z" fill="#D3D3D3" transform="matrix(1,0,0,-1,460,29)"/>
  <path d="" fill="#D3D3D3" transform="matrix(1,0,0,-1,471,29)"/>
  <path d="M4.0625,0 q-2.3125,0 -3.1562,0.9062 q-0.8438,0.9062 -0.9062,2.5312 q-0.125,4.3125 -0.1875,9.1875 q-0.0625,4.875 -0.1562,9.6562 q-0.0938,4.7812 -0.25,8.9062 q-0.1562,4.125 -0.4062,6.9375 q0,0.25 -0.0312,0.4375 q-0.0312,0.1875 -0.0312,0.375 q-0.25,2.625 -0.2188,3.6562 q0.0312,1.0312 0.7812,1.5312 q1.25,0.75 2.3438,2.0312 q1.0938,1.2812 2.0938,2.9688 q0.3125,0.5 0.8125,0.4375 q0.5,-0.0625 0.5,-1 q0,-3 0.0625,-6.7812 q0.0625,-3.7812 0.125,-7.7812 q0.0625,-4 0.1562,-7.6875 q0.0938,-3.6875 0.1562,-6.5312 q0.0625,-2.8438 0.125,-4.3438 q0.1875,-3.5 0.3125,-5.375 q0.125,-1.875 0.3438,-2.5312 q0.2188,-0.6562 0.5938,-0.6562 v-6.875 h-3.0625 Z" fill="#D3D3D3" transform="matrix(1,0,0,-1,496,29)"/>
  <path d="M-1.5,2.8125 v9.8125 h1.1875 q0.0625,-2.3125 1.0312,-3.25 q0.9688,-0.9375 1.8438,-1.25 v-5.3125 h-4.0625 Z" fill="#D3D3D3" transform="matrix(1,0,0,-1,502,29)"/>
  <path d="M17.3125,-0.625 q-0.875,0 -1.75,0 v0 q-4.0625,0.0625 -8.4062,0.3438 q-4.3438,0.2812 -8.4062,0.2812 v6.875 h2.375 q-0.0625,0.375 -0.0625,0.8125 q0.0625,2.75 1.1562,5.5312 q1.0938,2.7812 3,5.0938 q1.9062,2.3125 4.4062,3.6875 q2.5,1.375 5.3125,1.375 q2.375,0 4.5,-1.5312 q2.125,-1.5312 3.7188,-4.0625 q1.5938,-2.5312 2.5,-5.5312 q0.9062,-3 0.9062,-6 q0,-1.875 -0.75,-3.4375 q-0.75,-1.5625 -2.75,-2.5 q-2,-0.9375 -5.75,-0.9375 Z M16.3125,10.5 q0.75,0 0.75,0.8125 q0,0.3125 -0.2188,0.5312 q-0.2188,0.2188 -0.5312,0.2188 q-0.8125,0 -0.8125,-0.75 q0,-0.8125 0.8125,-0.8125 Z" fill="#D3D3D3" transform="matrix(1,0,0,-1,502,29)"/>
  <path d="M5.5,0 q-3,0 -4.4688,1.875 q-1.4688,1.875 -1.5938,7.25 q-0.0625,1.75 -0.0938,4.5 q-0.0312,2.75 -0.0625,6.0312 q-0.0312,3.2812 -0.125,6.6875 q-0.0938,3.4062 -0.25,6.4688 q-0.1562,3.0625 -0.3438,5.3125 q0,0.25 -0.0312,0.4375 q-0.0312,0.1875 -0.0312,0.375 q-0.25,2.625 -0.2188,3.6562 q0.0312,1.0312 0.7812,1.5312 q1.25,0.75 2.3438,2.0312 q1.0938,1.2812 2.0938,2.9688 q0.3125,0.5 0.8125,0.4375 q0.5,-0.0625 0.5,-1 q0,-3 0.0625,-6.7812 q0.0625,-3.7812 0.1562,-7.7812 q0.0938,-4 0.1875,-7.6875 q0.0938,-3.6875 0.1562,-6.5312 q0.0625,-2.8438 0.125,-4.3438 q0.1875,-3.5 0.3125,-5.375 q0.125,-1.875 0.3125,-2.5312 q0.1875,-0.6562 0.5625,-0.6562 v-6.875 h-1.1875 Z" fill="#D3D3D3" transform="matrix(1,0,0,-1,529,29)"/>
  <path d="M-0.625,0 l-0.875,14.625 h1.125 q0.0625,-2.4375 1.0625,-4.0938 q1,-1.6562 2.4375,-2.5312 q1.4375,-0.875 2.8125,-1.125 v-6.875 h-6.5625 Z" fill="#D3D3D3" transform="matrix(1,0,0,-1,535,29)"/>
  <path d="M-1.25,0 v6.875 h4.375 q-1.75,1.6875 -2.375,3.9688 q-0.625,2.2812 0.8125,3.7812 q0.625,0.6875 1.875,1.9062 q1.25,1.2188 2.6562,2.5938 q1.4062,1.375 2.5312,2.4375 q1.125,1.0625 1.5,1.4375 q0.6875,0.6875 1.0312,0.25 q0.3438,-0.4375 -0.1562,-1 q-0.375,-0.4375 -1.0312,-1.4062 q-0.6562,-0.9688 -1.3125,-1.9688 q-0.6562,-1 -0.9688,-1.5625 q-0.875,-1.5 0.5,-3.25 q1.375,-1.75 4.4688,-3.3438 q3.0938,-1.5938 7.3438,-2.6562 q4.125,-1.0625 7.3438,-1.4062 q3.2188,-0.3438 6.4062,-0.2812 q3.1875,0.0625 7.25,0.25 q0.3125,0 0.6562,0.0312 q0.3438,0.0312 0.6562,0.0312 q0.8125,0.0625 0.8125,-0.3125 q0,-0.375 -0.375,-0.6875 q-1.1875,-0.875 -2.6562,-2.375 q-1.4688,-1.5 -2.5312,-2.25 q-0.3125,-0.25 -0.625,-0.4062 q-0.3125,-0.1562 -0.625,-0.1562 q-5.625,-0.1875 -10.125,-0.3125 q-4.5,-0.125 -8.6875,-0.1875 q-4.1875,-0.0625 -8.6875,-0.0625 q-4.5,0 -10.0625,0.0625 Z" fill="#D3D3D3" transform="matrix(1,0,0,-1,538,29)"/>
</svg>
