<svg xmlns="http://www.w3.org/2000/svg" width="564" height="80" preserveAspectRatio="xMinYMin slice" viewBox="-4 -28 564 80"><path d="M-4 52v-80h564v80Z"/><path fill="#d3d3d3" d="M14.125 46.063q-1.562.624-3.781.874T5.75 47t-4.531-.781-3.594-1.594q-.562-.375-.656-.875t.594-.75q1.125-.5 2.406-1.844t2.594-3.281q.187-.312.437-.25.25.063.438.188 1.437.812 3.28 1.218 1.845.407 4.907.22.313-4.626.219-8.376t-.469-6.5q-.5-3.812-1.781-5.656T5.938 16.03t-6.063-1.593q-.812-.188-.844-.72-.03-.53.72-.718 2.187-.625 4.187-2.437 2-1.813 2.437-4.25.125-.5.313-.532.187-.03.687.094H7.5q4.813 1.063 7 4.844t2.625 9.031q.25 2.938.281 6.219t-.062 6.187-.219 4.907q0 .437-.031.812t-.031.688q0 1.312-.282 2.875-.28 1.562-.906 2.843-.625 1.282-1.75 1.782ZM46.063 24q-2.313 0-3.157-.906T42 20.563q-.125-4.313-.187-9.188-.063-4.875-.157-9.656-.093-4.781-.25-8.906-.156-4.125-.406-6.938 0-.25-.031-.437-.031-.188-.031-.375-.25-2.625-.219-3.656t.781-1.532q1.25-.75 2.344-2.03 1.094-1.282 2.094-2.97.312-.5.812-.437.5.062.5 1 0 3 .063 6.781.062 3.781.125 7.781.062 4 .156 7.688t.156 6.53q.063 2.845.125 4.345.188 3.5.313 5.375t.344 2.53q.218.657.593.657V24z"/><path fill="#d3d3d3" d="M46.5 21.188v-9.813h1.188q.062 2.313 1.03 3.25.97.938 1.844 1.25v5.313z"/><path fill="#d3d3d3" d="M46.75 24v-6.875h2.563q-.063-3-.188-5.062t-.25-3.5q-.062-.5.094-.782.156-.28.781-.593 1.313-.75 2-1.875t2.125-3.25q.313-.376.781-.313t.531.938q.188 2.437.375 5.156.188 2.718.25 6.344.063 1.062.25 2 .188.937.75.937V24z"/><path fill="#d3d3d3" d="M54.5 21.188v-9.813h1.188q.062 2.313 1.03 3.25.97.938 1.844 1.25v5.313z"/><path fill="#d3d3d3" d="M54.75 24v-6.875h2.563q-.063-1.5-.126-3.594-.062-2.094-.156-4.344-.093-2.25-.218-4.187-.126-1.938-.25-3.125Q56.437.812 57.5.5q.625-.188 1.344-1t1.344-1.875.875-1.938q.187-.625.843-.625.657 0 .72.875.187 1.625.374 3.97.188 2.343.344 4.968t.281 5.063.188 4.25q.062 1.062.25 2 .187.937.75.937V24z"/><path fill="#d3d3d3" d="M62.5 21.188v-9.813h1.188q.062 2.313 1.03 3.25.97.938 1.844 1.25v5.313z"/><path fill="#d3d3d3" d="M62.75 24v-6.875h2.563q-.063-3-.188-5.062t-.25-3.5q-.062-.5.094-.782.156-.28.781-.593 1.313-.75 2-1.875t2.125-3.25q.313-.376.781-.313t.531.938q.188 2.437.375 5.156.188 2.718.25 6.344.063 1.062.25 2 .188.937.75.937V24z"/><path fill="#d3d3d3" d="M70.5 21.188v-9.813h1.188q.062 2.313 1.03 3.25.97.938 1.844 1.25v5.313z"/><path fill="#d3d3d3" d="M70.75 24v-6.875h2.563q-.063-1.5-.126-3.594-.062-2.094-.156-4.344T72.812 5t-.25-3.125Q72.439.812 73.5.5q.625-.188 1.344-1t1.344-1.875.875-1.938q.187-.625.843-.625.657 0 .72.875.187 1.625.374 3.97.188 2.343.344 4.968t.281 5.063.188 4.25q.062 1.062.25 2 .187.937.75.937V24z"/><path fill="#d3d3d3" d="M78.5 21.188v-9.813h1.188q.062 2.313 1.03 3.25.97.938 1.844 1.25v5.313z"/><path fill="#d3d3d3" d="M78.75 24v-6.875h2.563q-.063-3-.188-5.062t-.25-3.5q-.062-.5.094-.782.156-.28.781-.593 1.313-.75 2-1.875t2.125-3.25q.313-.376.781-.313t.531.938q.188 2.437.375 5.156.188 2.718.25 6.344.063 1.062.25 2 .188.937.75.937V24z"/><path fill="#d3d3d3" d="M86.5 21.188v-9.813h1.188q.062 2.313 1.03 3.25.97.938 1.844 1.25v5.313z"/><path fill="#d3d3d3" d="M105.313 24.625h-1.75q-4.063-.062-8.407-.344T86.75 24v-6.875h2.375q-.062-.375-.062-.812.062-2.75 1.156-5.532 1.094-2.78 3-5.094Q95.125 3.376 97.625 2t5.313-1.375q2.374 0 4.5 1.531 2.124 1.531 3.718 4.063 1.594 2.53 2.5 5.53t.906 6q0 1.876-.75 3.438t-2.75 2.5-5.75.938m-1-11.125q.75 0 .75-.812 0-.313-.22-.532-.218-.219-.53-.219-.813 0-.813.75 0 .813.813.813m40.08 7.09q-.613-.124-.488-.737.062-.306.344-.44 1.559-.767 2.978-1.787 1.419-1.019 2.795-2.142.233-.208.54-.146.612.125.488.737-.05.245-.198.343-2.863 2.48-6.067 4.124-.147.098-.392.048m-3.875-4.875q-.613-.124-.488-.737.062-.306.344-.44 1.559-.767 2.978-1.787 1.418-1.019 2.795-2.142.233-.208.54-.146.612.124.488.737-.05.245-.198.343-2.863 2.48-6.067 4.124-.147.098-.392.048m1.937 2.438q-.612-.125-.488-.737.062-.306.345-.44 1.559-.768 2.977-1.787 1.419-1.02 2.795-2.143.234-.208.54-.145.612.124.488.737-.05.245-.197.342-2.863 2.48-6.067 4.125-.148.098-.393.048m48.171 31.035q-1.562.624-3.781.874t-4.594.063-4.531-.781-3.594-1.594q-.562-.375-.656-.875t.594-.75q1.125-.5 2.406-1.844T179.063 41q.187-.312.437-.25.25.063.438.188 1.312.687 3.062 1.124t5.063.376q.125-3.563.125-6.532t-.063-5.28V30q-.062-3.812-1.344-5.656-1.28-1.844-3.75-2.688-2.469-.843-6.156-1.593-.812-.188-.844-.72-.03-.53.72-.718 2.187-.625 3.843-2.437 1.656-1.813 2.281-4.25.125-.5.438-.75.312-.25.937.062 3.5 1.938 5.5 3.875t2.906 4.344.97 5.906q.062 2.25.062 5.094t-.032 5.594q-.03 2.75-.093 4.875v.75q0 1.312-.282 2.875-.28 1.562-.906 2.843-.625 1.282-1.75 1.782"/><path fill="#d3d3d3" d="M197.5 24q-2.625 0-3.906-1.219t-1.688-3.281-.469-4.625q0-1.625-.03-2.719-.032-1.094-.22-3.031-.062-.5.125-1 .188-.5.813-.687.875-.313 2-1.782 1.125-1.468 2.563-3.593.312-.376.78-.313.47.063.532.938.187 2.437.312 5.156t.25 6.344q.063 1.062.25 2 .188.937.75.937V24z"/><path fill="#d3d3d3" d="M197.5 21.188v-9.813h1.188q.062 2.313 1.03 3.25.97.938 1.845 1.25v5.313z"/><path fill="#d3d3d3" d="M197.75 24v-6.875h2.563q-.063-1.5-.125-3.594-.063-2.094-.157-4.344T199.812 5t-.25-3.125Q199.438.812 200.5.5q.625-.188 1.344-1t1.344-1.875.875-1.938q.187-.625.843-.625.657 0 .72.875.187 1.625.374 3.97.188 2.343.344 4.968t.281 5.063.188 4.25q.062 1.062.25 2 .187.937.75.937V24z"/><path fill="#d3d3d3" d="M205.5 21.188v-9.813h1.188q.062 2.313 1.03 3.25.97.938 1.845 1.25v5.313z"/><path fill="#d3d3d3" d="M205.75 24v-6.875h2.438q-.063-2.625-.094-4.25t-.156-3.187q0-.188-.063-.626-.062-1.124 0-1.843.063-.72.625-1.094 2.813-1.875 4.813-4.938.312-.5.593-.406t.281.531q0 4.688.438 9.094t.5 9.094q.063 1.625-1.375 3.063Q212.313 24 210.5 24zm38.642-3.41q-.613-.124-.488-.737.062-.306.344-.44 1.559-.767 2.978-1.787 1.419-1.019 2.795-2.142.233-.208.54-.146.612.125.488.737-.05.245-.198.343-2.863 2.48-6.067 4.124-.147.098-.392.048m-3.875-4.875q-.613-.124-.488-.737.062-.306.344-.44 1.559-.767 2.978-1.787 1.418-1.019 2.795-2.142.233-.208.54-.146.612.124.488.737-.05.245-.198.343-2.863 2.48-6.067 4.124-.147.098-.392.048m1.937 2.438q-.612-.125-.488-.737.062-.306.345-.44 1.559-.768 2.977-1.787 1.419-1.02 2.795-2.143.234-.208.54-.145.612.124.488.737-.05.245-.197.342-2.863 2.48-6.067 4.125-.148.098-.393.048m48.171 31.035q-1.562.624-3.781.874t-4.594.063-4.531-.781-3.594-1.594q-.562-.375-.656-.875t.594-.75q1.125-.5 2.406-1.844T279.063 41q.187-.312.437-.25.25.063.438.188 1.312.687 3.062 1.124t5.063.376q.125-3.563.125-6.532t-.063-5.28V30q-.062-3.812-1.344-5.656-1.28-1.844-3.75-2.688-2.469-.843-6.156-1.593-.812-.188-.844-.72-.03-.53.72-.718 2.187-.625 3.843-2.437 1.656-1.813 2.281-4.25.125-.5.438-.75.312-.25.937.062 3.5 1.938 5.5 3.875t2.906 4.344.97 5.906q.062 2.25.062 5.094t-.032 5.594q-.03 2.75-.093 4.875v.75q0 1.312-.282 2.875-.28 1.562-.906 2.843-.625 1.282-1.75 1.782"/><path fill="#d3d3d3" d="m289.375 22.375-1.75-9.25q1.5 1 2.656 1.844t2.563 1.406 3.53.75v5.25z"/><path fill="#d3d3d3" d="M306.063 24.125 289.75 24v-6.875h3.438q-.25-.5-.625-1.812T292 13.437q-.187-.624 0-.906.188-.28.688-.53 1.25-.563 1.968-1.532.72-.969 1.72-2.656.312-.563.843-.563t.656.688q.688 3.25 1.188 5t1.562 2.312q-.375-.875-.656-1.875t-.344-1.875q0-.437.281-.687t.594-.438q1.25-.625 2.156-1.562T304.312 6q.188-.437.563-.5.375-.062.5.438.563 1.562.906 3.406t.781 3.437 1.125 2.407q-.125-1-.312-2.344-.188-1.344-.375-2.563-.188-1.219-.313-1.719t.032-.75.468-.437q.188-.125.25-.187 1-.688 2.032-1.97 1.03-1.28 1.406-2.78.187-.75.656-.844t.656.78q.25 1.188.594 3.376t.688 4.719q.343 2.53.53 4.937.188 2.406.126 4.094-.063 1.188-.781 2.281-.72 1.094-2.563 1.719t-5.219.625Zm38.329-3.535q-.613-.124-.488-.737.062-.306.344-.44 1.559-.767 2.978-1.787 1.419-1.019 2.795-2.142.233-.208.54-.146.612.125.488.737-.05.245-.198.343-2.863 2.48-6.067 4.124-.147.098-.392.048m-3.875-4.875q-.613-.124-.488-.737.062-.306.344-.44 1.559-.767 2.978-1.787 1.419-1.019 2.795-2.142.233-.208.54-.146.612.124.488.737-.05.245-.198.343-2.863 2.48-6.067 4.124-.147.098-.392.048m1.937 2.438q-.612-.125-.488-.737.062-.306.345-.44 1.559-.768 2.977-1.787 1.419-1.02 2.795-2.143.234-.208.54-.145.612.124.488.737-.05.245-.197.342-2.863 2.48-6.067 4.125-.148.098-.393.048M380.063 24q-2.313 0-3.157-.906T376 20.563q-.125-4.313-.187-9.188-.063-4.875-.157-9.656-.093-4.781-.25-8.906-.156-4.125-.406-6.938 0-.25-.031-.437-.031-.188-.031-.375-.25-2.625-.219-3.656t.781-1.532q1.25-.75 2.344-2.03 1.094-1.282 2.094-2.97.312-.5.812-.437.5.062.5 1 0 3 .063 6.781.062 3.781.125 7.781.062 4 .156 7.688t.156 6.53q.063 2.845.125 4.345.188 3.5.313 5.375t.343 2.53.594.657V24z"/><path fill="#d3d3d3" d="M380.5 24V10.75h1.188q0 1.563.656 3.063t1.719 2.437 2.25.875V24z"/><path fill="#d3d3d3" d="M396.875 24.5q-3.687-.125-6.906-1.281t-5.156-3.969q-1.625-2.375-1.875-4.625t.437-4.219 1.875-3.594q1.125-1.5 2.938-2.843 1.812-1.344 3.968-2.344 2.157-1 4.22-1.563-.063-.187-.063-.312-.063-.313.062-.656t.5-.532Q398-1.938 399.313-3q1.312-1.063 1.812-2.375.313-.688.906-.625.594.062.72.625.124.312.25 1.937.124 1.625.312 4 .187 2.375.375 4.97.187 2.593.28 4.905.095 2.313.157 3.75.063 1.063.25 2 .188.938.75.938V24h-5q-1.562.562-3.25.5m-.562-8.687q.312.062.562-.188t.25-.562q0-.688-.687-.813-.313 0-.594.219t-.281.531q0 .813.75.813M396 9q.313.063.531-.187t.281-.563q0-.687-.75-.812-.812 0-.812.75-.063.312.187.562T396 9m-15.25 15v-6.875h15V24z"/><path fill="#d3d3d3" d="M402.5 21.188v-9.813h1.188q.062 2.313 1.03 3.25.97.938 1.844 1.25v5.313z"/><path fill="#d3d3d3" d="M402.75 24v-6.875h2.563q0-3-.125-6.281t-.375-5.656q-.125-1 .937-1.688.875-.625 2-1.969t1.625-2.718q.25-.626.844-.626t.656.875q.438 3.25.625 7.376.188 4.125.313 7.75.062 1.062.25 2 .187.937.75.937V24z"/><path fill="#d3d3d3" d="M410.5 21.188v-9.813h1.188q.062 2.313 1.03 3.25.97.938 1.844 1.25v5.313z"/><path fill="#d3d3d3" d="M427.063 24.125 410.75 24v-6.875h3.438q-.25-.5-.625-1.812T413 13.437q-.187-.624 0-.906.188-.28.688-.53 1.25-.563 1.968-1.532.72-.969 1.72-2.656.312-.563.843-.563t.656.688q.688 3.25 1.188 5t1.562 2.312q-.375-.875-.656-1.875t-.344-1.875q0-.437.281-.687t.594-.438q1.25-.625 2.156-1.562T425.312 6q.188-.437.563-.5.375-.062.5.438.563 1.562.906 3.406t.781 3.437 1.125 2.407q-.125-1-.312-2.344-.188-1.344-.375-2.563-.188-1.219-.313-1.719t.032-.75.468-.437q.188-.125.25-.187 1-.688 2.032-1.97 1.03-1.28 1.406-2.78.187-.75.656-.844t.656.78q.25 1.188.594 3.376t.688 4.719q.343 2.53.53 4.937.188 2.406.126 4.094-.063 1.188-.781 2.281-.72 1.094-2.563 1.719t-5.219.625Zm38.329-3.535q-.613-.124-.488-.737.062-.306.344-.44 1.559-.767 2.978-1.787 1.419-1.019 2.795-2.142.233-.208.54-.146.612.125.488.737-.05.245-.198.343-2.863 2.48-6.067 4.124-.147.098-.392.048m-3.875-4.875q-.613-.124-.488-.737.062-.306.344-.44 1.559-.767 2.978-1.787 1.419-1.019 2.795-2.142.233-.208.54-.146.612.124.488.737-.05.245-.198.343-2.863 2.48-6.067 4.124-.147.098-.392.048m1.937 2.438q-.612-.125-.488-.737.062-.306.345-.44 1.559-.768 2.977-1.787 1.419-1.02 2.795-2.143.234-.208.54-.145.612.124.488.737-.05.245-.197.342-2.863 2.48-6.067 4.125-.148.098-.393.048M501.063 24q-2.313 0-3.157-.906T497 20.563q-.125-4.313-.187-9.188-.063-4.875-.157-9.656-.093-4.781-.25-8.906-.156-4.125-.406-6.938 0-.25-.031-.437-.031-.188-.031-.375-.25-2.625-.219-3.656t.781-1.532q1.25-.75 2.344-2.03 1.094-1.282 2.094-2.97.312-.5.812-.437.5.062.5 1 0 3 .063 6.781.062 3.781.125 7.781.062 4 .156 7.688t.156 6.53q.063 2.845.125 4.345.188 3.5.313 5.375t.343 2.53.594.657V24z"/><path fill="#d3d3d3" d="M501.5 24V10.75h1.188q0 1.563.656 3.063t1.719 2.437 2.25.875V24z"/><path fill="#d3d3d3" d="M517.875 24.5q-3.687-.125-6.906-1.281t-5.156-3.969q-1.625-2.375-1.875-4.625t.437-4.219 1.875-3.594q1.125-1.5 2.938-2.843 1.812-1.344 3.968-2.344 2.157-1 4.22-1.563-.063-.187-.063-.312-.063-.313.062-.656t.5-.532Q519-1.938 520.313-3q1.312-1.063 1.812-2.375.313-.688.906-.625.594.062.72.625.124.312.25 1.937.124 1.625.312 4 .187 2.375.375 4.97.187 2.593.28 4.905.095 2.313.157 3.75.063 1.063.25 2 .188.938.75.938V24h-5q-1.562.562-3.25.5m-.562-8.687q.312.062.562-.188t.25-.562q0-.688-.687-.813-.313 0-.594.219-.282.219-.282.531 0 .813.75.813M517 9q.313.063.531-.187t.281-.563q0-.687-.75-.812-.812 0-.812.75-.063.312.187.562T517 9m-15.25 15v-6.875h15V24z"/><path fill="#d3d3d3" d="M523.5 21.188v-9.813h1.188q.062 2.313 1.03 3.25.97.938 1.845 1.25v5.313z"/><path fill="#d3d3d3" d="M523.75 24v-6.875h2.563q-.063-3-.188-5.062t-.25-3.5q-.062-.5.094-.782.156-.28.781-.593 1.313-.75 2-1.875t2.125-3.25q.313-.376.781-.313t.531.938q.188 2.437.375 5.156.188 2.718.25 6.344.063 1.062.25 2 .188.937.75.937V24z"/><path fill="#d3d3d3" d="M531.5 21.188v-9.813h1.188q.062 2.313 1.03 3.25.97.938 1.845 1.25v5.313z"/><path fill="#d3d3d3" d="M531.75 24v-6.875h2.563q-.063-1.5-.125-3.594-.063-2.094-.157-4.344-.093-2.25-.218-4.187t-.25-3.125Q533.438.812 534.5.5q.625-.188 1.344-1t1.344-1.875.875-1.938q.187-.625.843-.625.657 0 .72.875.187 1.625.374 3.97.188 2.343.344 4.968t.281 5.063.188 4.25q.062 1.062.25 2 .187.937.75.937V24z"/><path fill="#d3d3d3" d="M539.5 21.188v-9.813h1.188q.062 2.313 1.03 3.25.97.938 1.845 1.25v5.313z"/><path fill="#d3d3d3" d="M539.75 24v-6.875h2.563q-.063-3-.188-5.062t-.25-3.5q-.062-.5.094-.782.156-.28.781-.593 1.313-.75 2-1.875t2.125-3.25q.313-.376.781-.313t.531.938q.188 2.437.375 5.156.188 2.718.25 6.344.063 1.062.25 2 .188.937.75.937V24z"/><path fill="#d3d3d3" d="M547.5 21.188v-9.813h1.188q.062 2.313 1.03 3.25.97.938 1.845 1.25v5.313z"/><path fill="#d3d3d3" d="M547.75 24v-6.875h2.438q0-1.312-.094-3.344t-.188-4.187-.219-3.938-.187-2.531q-.125-1.437.187-2.187.313-.75.938-1.188 1.062-.687 2.094-2.187 1.03-1.5 1.968-2.938.313-.5.563-.406t.313.531q.125 2.375.375 5.625t.5 6.781.437 6.75.25 5.594q.063 1.625-1.094 3.063Q554.875 24 553.062 24z"/></svg>