<svg xmlns="http://www.w3.org/2000/svg" width="599" height="196" preserveAspectRatio="xMinYMin slice" viewBox="-6 -30 599 196"><path d="M-6 166V-30h599v196Z"/><path fill="#d3d3d3" d="M-4 117q-.625 0-.625-.625 0-.312.25-.5 1.375-1.062 2.563-2.344Q-.625 112.25.5 110.875q.188-.25.5-.25.625 0 .625.625 0 .25-.125.375-2.312 3-5.125 5.25Q-3.75 117-4 117m1.875 1.688q-.625 0-.625-.626 0-.312.25-.5 1.375-1.062 2.563-2.343 1.187-1.281 2.312-2.656.188-.25.5-.25.625 0 .625.624 0 .25-.125.376-2.312 3-5.125 5.25-.125.124-.375.124m15.313 34.688q-2.313-.312-3.594-.719t-2.22-.906q-1.25-.687-1.187-1.469.063-.781.75-.781.5 0 1.375-.719t1.875-1.812 1.875-2.156q.438-.5 1.032-.438.593.063.968.313 1.438.875 4.344 1.343 2.906.47 7.469.156 0-.875-1.437-.875-2.813 0-5.063-.28-2.25-.282-3.437-.782-1.75-.687-1.844-2.031t.28-2.094q.5-1.062 1.126-2.125t1.187-2.125q-.875.063-1.968.094-1.094.031-2.407.031-4.562 0-7.5-1.375T.437 131-1 126.063q0-3.375 1.437-6.282t4.063-4.687 6.125-1.781q2.437 0 4.5 1.625 2.062 1.625 3.625 4.156 1.562 2.531 2.437 5.219.875 2.687.938 4.812h.187V136H20.75q-.125.25-.188.438 1.125.937 2.907 1.125 1.78.187 3.718.187.875.063 1.688.094t1.625.094q.875.062 1.687 1.031t1.063 1.844q.562 1.625.969 3.5t.406 4q0 1.25-.75 2.562-.75 1.313-1.875 1.563-3.438.75-6.969 1.031t-6.594.219-5.25-.313Zm-2.376-28.5q.75 0 .75-.812 0-.313-.218-.532-.22-.219-.531-.219-.813 0-.813.75 0 .813.813.813m8.626 7.563v-.125z"/><path fill="#d3d3d3" d="M20.625 136v-12h.625q.75 1.563 2.031 2.719t2.688 1.781 2.468.625V136z"/><path fill="#d3d3d3" d="M21.75 136v-6.875h6.75q-2.187-1.625-4.375-3.937-.5-.5-.531-.844t.531-.72q.938-.624 2.188-1.968t2.312-2.969q.188-.312.625-.375.438-.062.813.375 3.375 3.875 7.437 6.031 4.063 2.157 8.688 3.125 4.624.97 9.687 1.188 5.063.219 10.375.219.5 0 .656.281t-.156.719q-1 1.5-2.031 2.562-1.031 1.063-2.094 1.938-.562.5-1.687.687t-1.938.188q-3 0-7.375.062-4.375.063-9.187.125-3.876.063-7.688.094t-7.187.063q-3.375.03-5.813.03Zm81.625 20.75q-2.312.25-5.219.156-2.906-.094-5.469-.625-2.562-.531-3.937-1.531-.5-.375-.594-.875t.594-.75q1.125-.5 2.531-1.844T93.75 148q.125-.312.406-.25.281.063.469.188.937.75 3.75.968 2.812.22 6.937-.719l-3.875 3.313q.313-4.812.375-9.5.063-4.687-.187-7.75-.25-3.25-1.531-5.094t-3.22-3.031-4.187-2.312q-.75-.375-.718-.875.03-.5 1.218-.688 1.813-.312 3.157-1.969 1.343-1.656 1.593-4.156.063-.5.344-.5t.906.125q3.875 1.063 5.844 4.844t2.344 9.031q.25 3.375.25 7.156t-.031 6.938-.031 4.719q.062 2.25-.188 3.75t-.562 2.375q-.438 1.312-1.47 1.687-1.03.375-1.968.5m.688-20.75-1-16.125q1.437.188 2.843.344t2.813.281 2.781.219 2.75.156 2.75.094l2.719.062q1.344.031 2.656.031H125q1.313 0 2.594-.03l2.562-.063q1.281-.031 2.5-.063 1.22-.03 2.438-.062l2.406-.063q1.188-.03 2.313-.094 1.125-.062 2.25-.062 1.125-.062 1.53.469.407.531.97 1.844.75 1.687 1.656 4.062t.969 5.438q.062 1.25-1.032 2.125t-2.219 1q-1.375.125-2.78.218-1.407.094-2.845.157-1.437.062-2.843.125-1.406.062-2.813.093l-2.812.063q-1.406.031-2.781.031h-8.188q-1.312 0-2.625-.031t-2.594-.031-2.531-.032q-1.25-.03-2.437-.062l-2.344-.063q-1.156-.03-2.281-.03Zm32.25-6.875q1.375-.125 1.625-.344t.125-.594q-.063-.125-.22-.25-.155-.125-.655-.062-.938.062-1.907.156t-1.937.125-1.969.094-1.969.094-1.937.03h-5.907q-1 0-2-.03l-2-.063q-1-.031-2-.031t-2.03-.031l-2.063-.063q-1.031-.03-2.094-.094-1.063-.062-2.125-.062.125.375.406.688t1.094.375q.562 0 1.219.03.656.032 1.375.063l1.5.063 1.594.062 1.687.063 1.781.062q.906.031 1.875.031t1.938.032q.969.03 2 .03h2.062q1.031 0 2.063-.03 1.03-.032 2.094-.063l2.125-.062q1.062-.032 2.125-.094zM121.688 136l21.437-6.875h3.625V136z"/><path fill="#d3d3d3" d="M142.938 135.375V120.75q.687.063 1.03.531.345.469 1.032 1.469 1.312 2 2.969 3.656t3.469 3.094v5.875z"/><path fill="#d3d3d3" d="M145.75 136v-6.875h6.75q-2.187-1.625-4.375-3.937-.5-.5-.531-.844t.531-.72q.938-.624 2.188-1.968t2.312-2.969q.188-.312.625-.375.438-.062.813.375 3.375 3.875 7.437 6.031 4.063 2.157 8.688 3.125 4.625.97 9.687 1.188 5.063.219 10.375.219.5 0 .656.281t-.156.719q-1 1.5-2.031 2.562-1.031 1.063-2.094 1.938-.562.5-1.687.687t-1.938.188q-3 0-7.375.062-4.375.063-9.187.125-3.875.063-7.688.094t-7.187.063q-3.375.03-5.813.03Zm78.938.5q-5.625.063-8.063-1.312-.625-.375-.594-.813t.781-.75q1.25-.562 2.125-1.812t1.25-2.688q.188-.812.532-.781.343.031.718.219 1.25.562 2.25.812t2.063.281 2.437.094q1.563 0 2.97.031 1.405.031 2.655.063l2.438.062q1.187.031 2.344.031t2.28.032q1.126.03 2.282.03h5q1.344 0 2.844-.03 1.5-.031 3.187-.031 1.688 0 3.625-.032l4.125-.062q2.188-.031 4.688-.094l-3.25 2.375q-1.813-1.125-3.594-2.531t-2.937-3.375-1.157-4.656q0-3.375 1.72-5.938 1.718-2.562 4.405-4 2.688-1.437 5.563-1.437 2.937 0 5.406 1.718 2.469 1.72 3.969 4.844t1.5 7.5q0 1.375-.094 3.781t-.219 5.032l-4-3.938h4.375V136h-5.843q-2.782 0-5.282.031l-4.78.063q-2.282.031-4.376.031t-4.031.031-3.75.063q-1.813.03-3.563.03t-3.468.032l-3.438.063-3.5.062q-1.781.031-3.625.031t-3.844.032q-2 .03-4.125.03Zm43.062-15.375q.75 0 .75-.812 0-.313-.219-.532t-.531-.219q-.812 0-.812.75 0 .813.812.813"/><path fill="#d3d3d3" d="M276.563 136v-12h1.187q-.062 2.313 2.281 3.75 2.344 1.438 6.094 1.75v2.813z"/><path fill="#d3d3d3" d="M276.75 136v-6.875h6.75q-2.187-1.625-4.375-3.937-.5-.5-.531-.844t.531-.72q.938-.624 2.188-1.968t2.312-2.969q.188-.312.625-.375.438-.062.813.375 3.375 3.875 7.437 6.031 4.063 2.157 8.688 3.125 4.625.97 9.687 1.188 5.063.219 10.375.219.5 0 .656.281t-.156.719q-1 1.5-2.031 2.562-1.031 1.063-2.094 1.938-.562.5-1.687.687t-1.938.188q-3 0-7.375.062-4.375.063-9.187.125-3.875.063-7.688.094t-7.187.063q-3.375.03-5.813.03Zm90.938 20.813q-5.688 0-9.594-2.094t-5.156-5.781q-1-3.125-.344-7.25t2.219-9.063q-1.375-2-3.47-3.75-2.093-1.75-4.093-3.812-.375-.438-.25-.97.125-.53.562-.78 1.188-.813 2.094-1.657t2.094-2.78q.25-.376.594-.282T353 119q.688.688 1.531 1.469.844.781 1.719 1.719-.062-.875-.187-1.813-.063-.812.625-1.25 1.812-1.187 2.812-2.187t2.25-3.125q.438-.688.719-.563t.344.875q.312 4.125.468 7.156.157 3.032.22 4.97.062 1 .25 1.937.187.937.75.937V136H359q-1.063 4.313-.126 7.219.938 2.906 3.344 4.656t5.781 2.406q3.375.657 7.313.375 3.937-.28 7.937-1.406.5-.125.781.063.282.187-.218.937-1.25 1.75-3.188 3.25-1.937 1.5-5.031 2.406t-7.906.907Z"/><path fill="#d3d3d3" d="M362.563 136v-12h1.187q-.062 2.313 2.281 3.75 2.344 1.438 6.094 1.75v2.813z"/><path fill="#d3d3d3" d="M362.75 136v-6.875h6.75q-2.187-1.625-4.375-3.937-.5-.5-.531-.844t.531-.72q.938-.624 2.188-1.968t2.312-2.969q.188-.312.625-.375.438-.062.813.375 3.375 3.875 7.437 6.031 4.063 2.157 8.688 3.125 4.625.97 9.687 1.188 5.063.219 10.375.219.5 0 .656.281t-.156.719q-1 1.5-2.031 2.562-1.031 1.063-2.094 1.938-.562.5-1.687.687t-1.938.188q-3 0-7.375.062-4.375.063-9.187.125-3.875.063-7.688.094t-7.187.063q-3.375.03-5.813.03Zm85.375 27.25q-1.562.625-3.781.875t-4.594.063-4.531-.782-3.594-1.594q-.562-.375-.656-.875t.594-.75q1.125-.5 2.406-1.843 1.281-1.344 2.594-3.281.187-.313.437-.25.25.062.438.187 1.437.813 3.28 1.219 1.845.406 4.907.219.313-4.625.219-8.375t-.469-6.5q-.5-3.813-1.781-5.657t-3.656-2.687-6.063-1.594q-.812-.187-.844-.719-.03-.53.72-.719 2.187-.625 4.187-2.437t2.437-4.25q.125-.5.313-.531.187-.031.687.094h.125q1.875.437 3.344 1.312t2.594 2.125q.375.438.75.75-.125-.312-.25-.562-.313-.75.375-1.125 1.25-.625 2.28-1.844 1.032-1.219 1.97-3.781.125-.438.437-.5.313-.063.438.437.625 1.938 1.468 3.688.844 1.75 1.782 3.187 0-.562-.063-1.5-.062-1.125.75-1.437 1.813-.563 2.563-1.97.75-1.405 1.562-2.78.5-.875.938-.875t.5.875q.187 4.125.312 6.28.125 2.157.344 2.97.219.812.656.812V136h-13.187q0 .438.062.938.25 2.937.281 6.218t-.062 6.188-.219 4.906q0 .438-.031.813t-.031.687q0 1.313-.282 2.875-.28 1.563-.906 2.844-.625 1.281-1.75 1.781"/><path fill="#d3d3d3" d="M461.563 136v-12h1.187q-.062 2.313 2.281 3.75 2.344 1.438 6.094 1.75v2.813z"/><path fill="#d3d3d3" d="M461.75 136v-6.875h6.75q-2.187-1.625-4.375-3.937-.5-.5-.531-.844t.531-.72q.938-.624 2.188-1.968t2.312-2.969q.188-.312.625-.375.438-.062.813.375 3.375 3.875 7.437 6.031 4.063 2.157 8.688 3.125 4.625.97 9.687 1.188 5.063.219 10.375.219.5 0 .656.281t-.156.719q-1 1.5-2.031 2.562-1.031 1.063-2.094 1.938-.562.5-1.687.687t-1.938.188q-3 0-7.375.062-4.375.063-9.187.125-3.875.063-7.688.094t-7.187.063q-3.375.03-5.813.03Zm84.875 25.188q-1.562.625-3.781.875t-4.594.062-4.531-.781-3.594-1.594q-.562-.375-.656-.875t.594-.75q1.125-.5 2.406-1.844t2.594-3.281q.187-.312.437-.25.25.063.438.188 1.312.687 3.062 1.125t5.063.375q.125-3.563.125-6.532t-.063-5.28V142q-.062-3.812-1.344-5.656-1.28-1.844-3.75-2.688-2.468-.843-6.156-1.593-.812-.188-.844-.72-.03-.53.72-.718 2.187-.625 3.843-2.437 1.656-1.813 2.281-4.25.125-.5.438-.75.312-.25.937.062 3.5 1.938 5.5 3.875t2.906 4.344.97 5.906q.062 2.25.062 5.094t-.032 5.594q-.03 2.75-.093 4.875v.75q0 1.312-.282 2.875-.28 1.562-.906 2.843-.625 1.282-1.75 1.782"/><path fill="#d3d3d3" d="m545.375 134.375-1.75-9.25q1.5 1 2.656 1.844t2.563 1.406 3.53.75v5.25z"/><path fill="#d3d3d3" d="M544.75 136v-6.875h6.75q-2.187-1.625-4.375-3.937-.5-.5-.531-.844t.531-.72q.938-.624 2.188-1.968t2.312-2.969q.188-.312.625-.375.438-.062.813.375 3.375 3.875 7.437 6.031 4.063 2.157 8.688 3.125 4.625.97 9.687 1.188 5.063.219 10.375.219.5 0 .656.281t-.156.719q-1 1.5-2.031 2.562-1.031 1.063-2.094 1.938-.562.5-1.687.687t-1.938.188q-3 0-7.375.062-4.375.063-9.187.125-3.875.063-7.688.094t-7.187.063q-3.375.03-5.813.03ZM27.938 81.813q-1.625 0-3.407-.126-1.78-.124-3.28-.562-6.25.25-10.626-.187-4.375-.438-5.75-2.25-.25-.376-.375-.938t.75-.875q1.813-.687 3.031-1.75 1.22-1.062 2.157-2.625.5-.937 1.687-.375 1.938.813 4.25 1.25 0-4.875 1.688-8.125t4.312-4.875 5.438-1.625q2.625 0 5.093 1.625Q35.376 62 37.188 65t2.437 7.125h.313V79l-.876.125q-1 1.438-2.812 2t-3.844.656-3.719.031zm1.25-10.75q.75 0 .75-.813 0-.312-.22-.531-.218-.219-.53-.219-.813 0-.813.75 0 .813.813.813"/><path fill="#d3d3d3" d="M37.125 79V67h.625q.75 1.563 2.031 2.719T42.47 71.5t2.468.625V79z"/><path fill="#d3d3d3" d="M38.25 79v-6.875H45q-2.187-1.625-4.375-3.937-.5-.5-.531-.844t.531-.72q.938-.624 2.188-1.968t2.312-2.969q.188-.312.625-.375.438-.062.813.375 3.374 3.875 7.437 6.031 4.063 2.157 8.688 3.125 4.624.97 9.687 1.188 5.063.219 10.375.219.5 0 .656.281t-.156.719q-1 1.5-2.031 2.562-1.031 1.063-2.094 1.938-.562.5-1.687.687t-1.938.188q-3 0-7.375.062-4.375.063-9.187.125-3.876.063-7.688.094t-7.187.063q-3.376.03-5.813.03Zm80.188 15.188q-2.126 1.25-4.844 1.656-2.72.406-5.594-.063T102.5 94q-.625-.312-.469-.844.156-.531.781-.969 1.375-.875 2.438-2.187 1.062-1.313 2.187-2.688.25-.312.656-.28.407.03.782.155h.062q1.25.438 2.688.594 1.437.156 3-.094-.25-4.687-.532-10.312-.28-5.625-.625-11.469-.343-5.844-.687-11.312-.344-5.47-.656-9.97t-.563-7.437q0-.125-.062-.437-.125-.375-.125-.813t.687-.812q.563-.313 1.313-1.188t1.406-1.906 1.031-1.719q.5-.875 1.031-.656.532.219.594 1.281.313 4.563.625 10.25.313 5.688.594 11.625t.531 11.47q.25 5.53.375 9.843.063 3.125.313 7.719t.25 9.53q0 1.126-.47 1.75-.468.626-1.218 1.063ZM115.875 79v-6.875h4.5V79z"/><path fill="#d3d3d3" d="M118.063 79V67h1.187q-.062 2.313 2.281 3.75 2.344 1.438 6.094 1.75v2.813z"/><path fill="#d3d3d3" d="M118.25 79v-6.875H125q-2.187-1.625-4.375-3.937-.5-.5-.531-.844t.531-.72q.938-.624 2.188-1.968t2.312-2.969q.188-.312.625-.375.438-.062.813.375 3.374 3.875 7.437 6.031 4.063 2.157 8.688 3.125 4.625.97 9.687 1.188 5.063.219 10.375.219.5 0 .656.281t-.156.719q-1 1.5-2.031 2.562-1.031 1.063-2.094 1.938-.562.5-1.687.687t-1.938.188q-3 0-7.375.062-4.375.063-9.187.125-3.875.063-7.688.094t-7.187.063q-3.376.03-5.813.03Zm81.813.313q-3.813-.063-6.688-.532t-4.312-1.344q-.688-.437-.532-1.156t.844-.406q.313.125.438.188.125.062.375-.063 1.312-.625 2.656-1.906t2.281-2.406q.313-.375.906-.531.594-.157 1.219.343.5.375 1.719.563t2.844.312q.437 0 1 .032.562.03 1.218.062.657.031 1.438.063l1.656.062q.875.031 1.844.063.969.03 2.031.03t2.188.032 2.28.031h2.407q1.25 0 2.5-.031l2.563-.063 2.656-.062q1.344-.031 2.687-.094 1.344-.062 2.688-.156t2.656-.156q1.375-.125 1.625-.344t.125-.594q-.063-.125-.219-.25t-.656-.062q-1 .062-2 .156t-2 .156q-1 .063-2 .094l-2 .062-2 .063q-1 .031-2 .031h-6.062q-1 0-2-.031l-2-.063-2-.062-2-.063-2-.062q-1-.031-2-.031-1.813-.063-3.344-.188t-2.438-.562-.906-1.313q-.062-7.062-.031-13.781t-.156-12.219q-.063-2.125-.344-3.437-.281-1.313-.281-2.125t.75-1.375q1.125-.813 2.343-2.094 1.22-1.281 2.22-3.156.25-.438.468-.407t.281.532q.125 1.75.25 3.437.125 1.688.188 3.438.125 3.062.03 6.468-.093 3.407-.218 6.688t-.187 6 .062 4.406q.063 1.75 2.125 1.938l2.031.125q1.031.062 2.125.125 1.094.062 2.188.093l2.219.063 2.28.062q1.157.032 2.313.032h9.407q1.187 0 2.375-.032 1.187-.03 2.343-.062l2.313-.063q1.156-.03 2.281-.062 1.125-.031 2.25-.031 1.125-.063 1.531.469.407.53.97 1.843.75 1.688 1.655 4.063.907 2.375.97 5.437.062 1.25-1.032 2.125t-2.219 1q-1.375.125-2.781.22-1.406.093-2.781.155l-2.75.125q-1.375.063-2.75.094t-2.719.094q-1.344.062-2.719.062t-2.719.032q-1.343.03-2.718.03h-8.188q-1.375 0-2.75-.03-1.375-.032-2.75-.032t-2.781-.03-2.781-.032m19.437.124 21.25-7.312h3.313V79q-5.563.188-11.844.313-6.281.124-12.72.124"/><path fill="#d3d3d3" d="M240.438 78.375V63.75q.687.063 1.03.531.345.469 1.032 1.469 1.312 2 2.969 3.656t3.469 3.094v5.875z"/><path fill="#d3d3d3" d="M243.25 79v-6.875H250q-2.187-1.625-4.375-3.937-.5-.5-.531-.844t.531-.72q.938-.624 2.188-1.968t2.312-2.969q.188-.312.625-.375.438-.062.813.375 3.375 3.875 7.437 6.031 4.063 2.157 8.688 3.125 4.625.97 9.687 1.188 5.063.219 10.375.219.5 0 .656.281t-.156.719q-1 1.5-2.031 2.562-1.031 1.063-2.094 1.938-.562.5-1.687.687t-1.938.188q-3 0-7.375.062-4.375.063-9.187.125-3.875.063-7.688.094t-7.187.063q-3.375.03-5.813.03Zm91.625 16.188q-2 .5-4.875.843-2.875.344-6 .47-3.125.124-6.094-.126t-5.25-.969-3.406-1.969q-.5-.624-.375-1.093.125-.47.938-.47t2-1.312T313.75 88q.313-.5.719-.844t.969-.031Q317.813 88.5 321.75 89t8-.063q-.062-.062-.125-.25-.062-.187-.219-.375-.156-.187-.656-.125-15.25.875-15.25-11.062 0-3.063 1.438-5.75 1.437-2.688 3.78-4.344 2.345-1.656 5.095-1.594 1.312 0 2.25.906.937.907 1.718 2.157.782 1.25 1.563 2.28.781 1.032 1.781 1.345V79h-1.687q-2.688.062-4.47-.157-1.78-.218-3.155-1.468-.5-.5-.72-.25-.218.25.095.812.562.938 1.937 1.469t3.094.75 3.437.219h2.97q1.062 0 1.343.187.281.188.594.75.687 1.188 1.594 3.094.906 1.906 1.343 4.406.438 2.688-.156 4.281-.594 1.594-2.469 2.094Z"/><path fill="#d3d3d3" d="m330.188 79-3.313-11.062H328q1.438 1.937 3.344 3.062t3.344 1.125V79z"/><path fill="#d3d3d3" d="M328.25 79v-6.875H335q-2.187-1.625-4.375-3.937-.5-.5-.531-.844t.531-.72q.938-.624 2.188-1.968t2.312-2.969q.188-.312.625-.375.438-.062.813.375 3.375 3.875 7.437 6.031 4.063 2.157 8.688 3.125 4.625.97 9.687 1.188 5.063.219 10.375.219.5 0 .656.281t-.156.719q-1 1.5-2.031 2.562-1.031 1.063-2.094 1.938-.562.5-1.687.687t-1.938.188q-3 0-7.375.062-4.375.063-9.187.125-3.875.063-7.688.094t-7.187.063q-3.375.03-5.813.03Zm82.875.125q-1.312 0-3.094-.094t-3.562-.25-3.188-.437-2.031-.72q-.375-.312-.687-.655t.25-.531q.687-.313 1.437-1t.813-2.376q.375-6.687.593-12.53.22-5.844.188-11.626-.031-5.78-.469-12.218-.062-1.063-.031-1.72.031-.656.656-1.093 1.125-.813 2.594-1.969t2.094-3.031q.125-.438.5-.406.375.03.437.53.313 1.75.469 3.313t.281 3.313q.125 1.25.125 3.875t-.062 5.906-.157 6.563q-.093 3.28-.187 5.937-.094 2.656-.156 4.031-.063.875.062 1.094t1.063.344q1 .062 2.062.125l2.156.125q1.094.062 2.22.094l2.28.062 2.313.063q1.156.03 2.344.03h9.593q1.22 0 2.406-.03l2.375-.063 2.344-.062 2.281-.063q1.125-.031 2.25-.031 1.125-.062 1.532.469.406.531.969 1.844.75 1.687 1.656 4.062t.969 5.438q.062 1.25-1.032 2.125t-2.219 1q-1.062.062-2.156.156t-2.187.125-2.219.094q-1.125.062-2.219.093l-2.219.063-2.25.062-2.25.063q-1.125.031-2.28.031h-6.97q-1.187 0-2.375-.031t-2.406-.031-2.437-.031-2.47-.032Zm26.813-7q1.375-.125 1.625-.344t.125-.594q-.063-.125-.22-.25-.156-.125-.656-.062-1.062.062-2.187.156t-2.281.156q-1.156.063-2.344.125-1.187.063-2.375.094l-2.406.063q-1.219.03-2.438.03h-2.437q-1.219 0-2.406-.03l-2.344-.063q-1.156-.031-2.25-.094-1.094-.062-2.156-.125-1.063-.062-2.094-.156t-1.938-.219-1.78-.25q-.876-.125-1.626-.25l1.313-1.875q-.063.688-.094 1.375t-.094 1.375q0 .5 1.25.688.5.062 1.125.125.625.062 1.313.125.687.062 1.468.125.781.062 1.625.125.844.062 1.781.094l1.907.062q.969.031 2 .031 1.03 0 2.125.031 1.094.032 2.219.032t2.28-.032l2.344-.062 2.375-.063q1.188-.03 2.407-.093l2.437-.125zM423.313 79l21.437-6.875h3.625V79z"/><path fill="#d3d3d3" d="M444.438 78.375V63.75q.687.063 1.03.531.344.469 1.032 1.469 1.312 2 2.969 3.656t3.469 3.094v5.875z"/><path fill="#d3d3d3" d="M447.25 79v-6.875H454q-2.187-1.625-4.375-3.937-.5-.5-.531-.844t.531-.72q.938-.624 2.188-1.968t2.312-2.969q.188-.312.625-.375.438-.062.813.375 3.375 3.875 7.437 6.031 4.063 2.157 8.688 3.125 4.625.97 9.687 1.188 5.063.219 10.375.219.5 0 .656.281t-.156.719q-1 1.5-2.031 2.562-1.031 1.063-2.094 1.938-.562.5-1.687.687t-1.938.188q-3 0-7.375.062-4.375.063-9.187.125-3.875.063-7.688.094t-7.187.063q-3.375.03-5.813.03Zm84.5 7.563q-4.187.062-7.875-.97-3.687-1.03-5.687-2.343-.75-.5-.657-.938.094-.437.72-.687 1.437-.5 2.655-1.844 1.22-1.344 2.157-2.531.375-.5 1.125-.063 1.75.938 4.375 1.594t5.156.938q2.53.28 3.968.094.5-.063.407-.47t-.47-.406q-1.5.063-3.5-.156t-3.937-.719-3.375-1.25q-.687-.374-.593-.906.093-.53.468-.844.875-.874 2.125-2.156 1.25-1.28 2.532-2.687 1.28-1.406 2.375-2.594 1.093-1.187 1.718-1.812l.407-.407q.156-.156.406-.156.312 0 .937.438 2.063 1.375 4 3.718 1.938 2.344 3.25 5.125t1.375 5.532q.063 1.687-.625 3.343-.687 1.657-3.125 2.344-2.062.625-4.718.688t-5.594.125"/><path fill="#d3d3d3" d="M539.5 79V68.313h.688q1.312 1.312 2.343 2.187 1.032.875 2.407 1.344t3.5.656v2.813z"/><path fill="#d3d3d3" d="M539.25 79v-6.875H546q-2.187-1.625-4.375-3.937-.5-.5-.531-.844t.531-.72q.938-.624 2.188-1.968t2.312-2.969q.188-.312.625-.375.438-.062.813.375 3.375 3.875 7.437 6.031 4.063 2.157 8.688 3.125 4.625.97 9.687 1.188 5.063.219 10.375.219.5 0 .656.281t-.156.719q-1 1.5-2.031 2.562-1.031 1.063-2.094 1.938-.562.5-1.687.687t-1.938.188q-3 0-7.375.062-4.375.063-9.187.125-3.875.063-7.688.094t-7.187.063q-3.375.03-5.813.03ZM19.75 30.75q-3.25.125-6.375-.312Q10.25 30 7.781 29.063t-3.906-2.375Q3.25 26 3.688 25.625q.437-.375.937-.375.688 0 1.688-.687t1.937-1.657 1.313-1.656q.312-.5.906-.312.594.187 1.094.5.062.062.124.062 1.938 1.125 4.188 1.594t4.438.531q2.187.063 3.968-.125 1.782-.187 2.782-.375.75-.125.718-.687-.03-.563-.656-.438-4.437.813-8.219.5-3.78-.312-6.03-2.344-2.25-2.03-2.25-6.343 0-3.25 1.5-5.907t3.968-4.28T21.563 2q2.625 0 4.812 1.406 2.188 1.407 3.844 3.657T33 11.906t1.719 5.032.594 4.125q0 1.375-.219 2.53-.219 1.157-.906 2.094Q33 27.438 30.5 28.532t-5.375 1.594-5.375.625ZM20.813 12q.75 0 .75-.812 0-.313-.22-.532-.218-.219-.53-.219-.813 0-.813.75 0 .813.813.813"/><path fill="#d3d3d3" d="M32.125 22V10h.625q.75 1.563 2.031 2.719T37.47 14.5t2.468.625V22z"/><path fill="#d3d3d3" d="M33.25 22v-6.875H40q-2.187-1.625-4.375-3.937-.5-.5-.531-.844t.531-.72q.938-.624 2.188-1.968t2.312-2.969q.188-.312.625-.375.438-.062.813.375Q44.937 8.562 49 10.72t8.688 3.125 9.687 1.187 10.375.219q.5 0 .656.281t-.156.719q-1 1.5-2.031 2.562-1.031 1.063-2.094 1.938-.562.5-1.687.687t-1.938.188q-3 0-7.375.062-4.375.063-9.187.125-3.876.063-7.688.094t-7.187.063q-3.376.03-5.813.03m82.563 0q-12.313-.312-12.313-8.812 0-3.813 3.25-7.188t10-5.25q-.125-1.25.188-1.5.124-.187.5-.312.374-.125 1-.563 1.187-.875 1.843-1.844t1.22-2.344q.312-.687.75-.625.437.063.624.813.438 1.5.75 3.781.313 2.281.469 4.844.156 2.562.25 4.969.094 2.406.156 4.219.063 1.062.25 2 .188.937.75.937V22q-2 .125-4.312.094T115.813 22m1.75-9.625q.75 0 .75-.812 0-.313-.22-.532-.218-.219-.53-.219-.813 0-.813.75 0 .813.813.813"/><path fill="#d3d3d3" d="M123.063 22V10h1.187q-.062 2.313 2.281 3.75 2.344 1.438 6.094 1.75v2.813z"/><path fill="#d3d3d3" d="M123.25 22v-6.875H130q-2.187-1.625-4.375-3.937-.5-.5-.531-.844t.531-.72q.938-.624 2.188-1.968t2.312-2.969q.188-.312.625-.375.438-.062.813.375 3.375 3.875 7.437 6.032t8.688 3.125 9.687 1.187 10.375.219q.5 0 .656.281t-.156.719q-1 1.5-2.031 2.562-1.031 1.063-2.094 1.938-.562.5-1.687.687t-1.938.188q-3 0-7.375.062-4.375.063-9.187.125-3.875.063-7.688.094t-7.187.063q-3.375.03-5.813.03Zm80.938.313q-3.813-.063-6.438-.407t-3.625-1.156q-.687-.5-.625-1t.813-.5q.375 0 .718-.219.344-.218.594-.468.563-.563 1.406-1.657.844-1.093 1.531-2.218.688-1.063 2.188-.188.688.375 2.125.563t3.063.312q.437 0 1 .031t1.218.063q.656.03 1.438.062.781.031 1.656.063l1.844.062q.969.031 2.031.031t2.188.032q1.125.03 2.28.03H222q1.25 0 2.5-.03 1.25-.032 2.562-.063l2.657-.062q1.343-.032 2.687-.094 1.344-.063 2.688-.156 1.343-.094 2.656-.157 1.375-.125 1.625-.343.25-.22.125-.594-.063-.125-.219-.25t-.656-.063q-.75.063-1.656.125-.907.063-1.97.125-1.062.063-2.218.125-1.156.063-2.406.094l-2.563.063-2.656.062q-1.344.031-2.75.031h-2.781q-1.375 0-2.719-.03-1.344-.032-2.656-.032t-2.563-.063q-1.25-.062-2.375-.125-1.125-.062-2.156-.125-1.031-.062-1.937-.156t-1.656-.219q-1.563-.187-2.157-.687t.031-1.375q2.125-2.813 4.188-5.656 2.063-2.844 3.813-5.781.312-.5.718-.313.406.188.156.75l-.78 1.75Q209 3.688 208.5 4.844t-.75 1.781q.875.063 1.844.156.969.094 2 .156 1.031.063 2.156.094l2.281.063q1.156.03 2.375.03H226q1.313 0 2.625-.03l2.594-.063 2.562-.062 2.563-.063 2.5-.062q1.219-.031 2.375-.094t2.281-.063q1.125-.062 1.531.47.406.53.97 1.843.75 1.688 1.655 4.063.906 2.375.97 5.437.062 1.25-1.032 2.125t-2.219 1q-1.375.125-2.781.219t-2.781.156l-2.75.125q-1.375.063-2.75.094t-2.72.094-2.718.062-2.719.031-2.719.032h-8.188q-1.374 0-2.75-.032-1.374-.03-2.75-.03-1.374 0-2.78-.032-1.406-.031-2.781-.031m19.437.125 21.25-7.313h3.313V22q-5.563.188-11.844.313t-12.72.125"/><path fill="#d3d3d3" d="M244.438 21.375V6.75q.687.063 1.03.531.345.469 1.032 1.469 1.312 2 2.969 3.656t3.469 3.094v5.875z"/><path fill="#d3d3d3" d="M247.25 22v-6.875H254q-2.187-1.625-4.375-3.937-.5-.5-.531-.844t.531-.72q.938-.624 2.188-1.968t2.312-2.969q.188-.312.625-.375.438-.062.813.375 3.375 3.875 7.437 6.032t8.688 3.125 9.687 1.187 10.375.219q.5 0 .656.281t-.156.719q-1 1.5-2.031 2.562-1.031 1.063-2.094 1.938-.562.5-1.687.687t-1.938.188q-3 0-7.375.062-4.375.063-9.187.125-3.875.063-7.688.094t-7.187.063q-3.375.03-5.813.03Zm83.313 7.625q-.813 0-2.407-.125t-3.406-.594-3.469-1.437q-1.656-.97-2.719-2.563t-1.062-4.094q0-4.5 2.438-7.593 2.437-3.094 5.75-4.47 2.187-.874 3.593-.468t3.156 2.156q1.25 1.25 2.532 2.375 1.28 1.125 2.656 1.969 1.375.844 2.937 1.156 1.563.313 3.313-.125l1.437 4.25q-2.437-1.625-5.03-4.281-2.595-2.656-4.657-5.344-.437-.562-.562-1.094-.125-.53.437-.906.938-.625 2.094-1.531t1.781-2.969q.188-.625.844-.687t1.156.5q1.625 1.75 3.25 3.812 1.625 2.063 3.188 3.906 1.562 1.844 3.156 3.094T354.188 16q3.437.312 7.593.312t9.844-.437q.688-.063.906.437.22.5-.344.938-1.375 1-2.218 1.75-.844.75-2.094 1.687-.875.625-1.563 1.094t-1.687.469-2.938.031-4.468.063q-2.532.03-5.438.062-2.906.031-5.844.031h-5.625q-3.625 0-6.687-.5t-5.125-1.875-2.688-3.937q-.062-.5-.687-.344t-.563.719q.438 2.562 2.032 4.03 1.593 1.47 3.906 2.095 2.312.625 4.875.812 3 .188 6.375.188t6.375-.063 4.969-.156 2.218-.094q.813 0 .72.438-.095.437-.595.625-2 .687-5.562 1.968-3.563 1.282-8.438 2.282t-10.875 1Z"/><path fill="#d3d3d3" d="M343.063 15V5.938q1 1.187 2.093 1.718 1.094.532 2.281.72-1.5-1.313-2.843-2.75-1.344-1.438-2.156-2.438-.438-.563-.5-.875-.063-.313.5-.688.937-.625 2.28-2.062 1.344-1.438 2.157-3.063.125-.312.594-.375.469-.062.844.375 4.062 4.75 9.312 7.5t10.813 3.781 10.5.782q.5-.063.687.406t-.187.844q-1.188 1.124-2.25 2.124T375.313 14q-.438.625-1.47.719-1.03.094-1.843.094-1.188 0-3.281.03-2.094.032-4.781.032-3.25.063-7 .094t-7.344.031zm70.125 7.5q-2.813.063-4.782-.25-1.969-.312-3.28-1.062-.626-.375-.595-.813t.781-.75q1.25-.562 2.125-1.812t1.25-2.688q.188-.812.532-.781t.719.219q1.812.812 3.25.968 1.437.157 3.5.22 1.937.062 3.75.062t3.437.03l3.125.063q1.5.032 2.938.032h10.687q1.312 0 2.656-.032 1.344-.03 2.781-.03t2.938-.032 3.125-.062q1.625-.032 3.437-.063 1.813-.031 3.75-.094.125-1.687-.28-3.656-.407-1.969-2.47-3.594-.687-.5-.562-1.281t.937-.781q1.438 0 3.375-1.594T463.562.5q.313-.687.938-.781t.687.969q.188 2.437.375 5.156.188 2.719.25 6.344.063 1 .25 1.969.188.968.75.968V22h-5.468q-2.594 0-4.938.032-2.344.03-4.5.03t-4.156.032-3.844.062-3.562.032q-1.72 0-3.375.03l-3.282.063q-1.625.032-3.218.032-1.594 0-3.188.03-1.594.032-3.25.063t-3.406.031-3.594.032-3.844.03Z"/><path fill="#d3d3d3" d="M465.063 22V10h1.187q-.062 2.313 2.281 3.75 2.344 1.438 6.094 1.75v2.813z"/><path fill="#d3d3d3" d="M465.25 22v-6.875H472q-2.187-1.625-4.375-3.937-.5-.5-.531-.844t.531-.72q.938-.624 2.188-1.968t2.312-2.969q.188-.312.625-.375.438-.062.813.375 3.375 3.875 7.437 6.032t8.688 3.125 9.687 1.187 10.375.219q.5 0 .656.281t-.156.719q-1 1.5-2.031 2.562-1.031 1.063-2.094 1.938-.562.5-1.687.687t-1.938.188q-3 0-7.375.062-4.375.063-9.187.125-3.875.063-7.688.094t-7.187.063q-3.375.03-5.813.03Zm74.313 0q-2.313 0-3.157-.906t-.906-2.531q-.125-4.313-.187-9.188-.063-4.875-.157-9.656-.093-4.781-.25-8.906-.156-4.125-.406-6.938 0-.25-.031-.437-.031-.188-.031-.375-.25-2.625-.219-3.656t.781-1.532q1.25-.75 2.344-2.03 1.094-1.282 2.094-2.97.312-.5.812-.437.5.062.5 1 0 3 .063 6.781.062 3.781.125 7.781.062 4 .156 7.688t.156 6.53q.063 2.845.125 4.345.188 3.5.313 5.375t.343 2.53.594.657V22z"/><path fill="#d3d3d3" d="M540.063 22V10h1.187q-.062 2.313 2.281 3.75 2.344 1.438 6.094 1.75v2.813z"/><path fill="#d3d3d3" d="M540.25 22v-6.875H547q-2.187-1.625-4.375-3.937-.5-.5-.531-.844t.531-.72q.938-.624 2.188-1.968t2.312-2.969q.188-.312.625-.375.438-.062.813.375 3.375 3.875 7.437 6.032t8.688 3.125 9.687 1.187 10.375.219q.5 0 .656.281t-.156.719q-1 1.5-2.031 2.562-1.031 1.063-2.094 1.938-.562.5-1.687.687t-1.938.188q-3 0-7.375.062-4.375.063-9.187.125-3.875.063-7.688.094t-7.187.063q-3.375.03-5.813.03Z"/></svg>