<?xml version='1.0' encoding='ASCII'?>
<svg xmlns="http://www.w3.org/2000/svg" width="622" height="135" preserveAspectRatio="xMinYMin slice" viewBox="-4 -25 622 135" version="1.1">
  <path d="M-4,-25 v135 h622 v-135 Z" fill="#000000" transform="matrix(1,0,0,-1,0,85)"/>
  <path d="M1,0.8125 q-0.625,0 -0.625,0.625 q0,0.3125 0.25,0.5 q1.375,1.0625 2.5625,2.3438 q1.1875,1.2812 2.3125,2.6562 q0.1875,0.25 0.5,0.25 q0.625,0 0.625,-0.625 q0,-0.25 -0.125,-0.375 q-2.3125,-3 -5.125,-5.25 q-0.125,-0.125 -0.375,-0.125 Z" fill="#D3D3D3" transform="matrix(1,0,0,-1,-1,73)"/>
  <path d="M15.125,-22.0625 q-1.5625,-0.625 -3.7812,-0.875 q-2.2188,-0.25 -4.5938,-0.0625 q-2.375,0.1875 -4.5312,0.7812 q-2.1562,0.5938 -3.5938,1.5938 q-0.5625,0.375 -0.6562,0.875 q-0.0938,0.5 0.5938,0.75 q1.125,0.5 2.4062,1.8438 q1.2812,1.3438 2.5938,3.2812 q0.1875,0.3125 0.4375,0.25 q0.25,-0.0625 0.4375,-0.1875 q1.4375,-0.8125 3.2812,-1.2188 q1.8438,-0.4062 4.9062,-0.2188 q0.3125,4.625 0.2188,8.375 q-0.0938,3.75 -0.4688,6.5 q-0.5,3.8125 -1.7812,5.6562 q-1.2812,1.8438 -3.6562,2.6875 q-2.375,0.8438 -6.0625,1.5938 q-0.8125,0.1875 -0.8438,0.7188 q-0.0312,0.5312 0.7188,0.7188 q2.1875,0.625 4.1875,2.4375 q2,1.8125 2.4375,4.25 q0.125,0.5 0.3125,0.5312 q0.1875,0.0312 0.6875,-0.0938 q0.0625,0 0.125,0 q4.8125,-1.0625 7,-4.8438 q2.1875,-3.7812 2.625,-9.0312 q0.25,-2.9375 0.2812,-6.2188 q0.0312,-3.2812 -0.0625,-6.1875 q-0.0938,-2.9062 -0.2188,-4.9062 q0,-0.4375 -0.0312,-0.8125 q-0.0312,-0.375 -0.0312,-0.6875 q0,-1.3125 -0.2812,-2.875 q-0.2812,-1.5625 -0.9062,-2.8438 q-0.625,-1.2812 -1.75,-1.7812 Z" fill="#D3D3D3" transform="matrix(1,0,0,-1,-1,85)"/>
  <path d="M16.375,-8.625 q-6.75,0 -10.4688,1.25 q-3.7188,1.25 -5.6562,3.875 q-0.5,0.6875 -0.125,1.0625 q0.375,0.375 0.875,0.375 q0.6875,0 1.75,0.6875 q1.0625,0.6875 2.0625,1.625 q1,0.9375 1.375,1.625 q0.3125,0.5625 0.9375,0.2812 q0.625,-0.2812 1.0625,-0.6562 q1.5625,-1.375 3.9062,-2.0938 q2.3438,-0.7188 4.75,-0.9375 q2.4062,-0.2188 4.2812,-0.1562 q1.875,0.0625 2.5625,0.1875 q0.75,0.125 0.7188,0.6562 q-0.0312,0.5312 -0.6562,0.4688 q-3.375,-0.25 -6.25,-0.0938 q-2.875,0.1562 -5.0625,1.0312 q-2.1875,0.875 -3.4062,2.8125 q-1.2188,1.9375 -1.2188,5.1875 q0,2.0625 0.625,4.1875 q0.625,2.125 1.875,3.9375 q1.25,1.8125 3.2188,2.9375 q1.9688,1.125 4.5938,1.125 q3.3125,0 5.1875,-1.125 q1.875,-1.125 3.625,-3.375 q1.5625,-2 2.125,-4.125 q0.5625,-2.125 0.9375,-3.1875 q0.3125,-0.8125 0.9375,-1.4688 q0.625,-0.6562 1.6875,-0.6562 v-6.8125 q0,-3.875 -2.125,-5.7188 q-2.125,-1.8438 -5.8125,-2.375 q-3.6875,-0.5312 -8.3125,-0.5312 Z M19.375,9.1875 q0.75,0 0.75,0.8125 q0,0.3125 -0.2188,0.5312 q-0.2188,0.2188 -0.5312,0.2188 q-0.8125,0 -0.8125,-0.75 q0,-0.8125 0.8125,-0.8125 Z" fill="#D3D3D3" transform="matrix(1,0,0,-1,42,85)"/>
  <path d="M-0.625,0 v8.8125 h0.6875 q0.3125,-0.8125 1.75,-1.0625 q1.4375,-0.25 5.3125,-0.4375 q1.125,-0.0625 4.923,-0.0938 q3.798,-0.0312 9.8701,-0.0625 q6.0721,-0.0312 14.0074,-0.0625 q7.9353,-0.0312 17.3867,-0.0312 q9.4513,0 20.0187,0 q10.5674,0 21.882,0 q11.3146,0 22.998,0 q11.6834,0 23.3462,0.0312 q11.6629,0.0312 22.957,0.0312 q11.2941,0 21.8302,0.0312 q10.5361,0.0312 19.9249,0.0625 q9.3888,0.0312 17.2616,0.0625 q7.8728,0.0312 13.8608,0.0625 q5.988,0.0312 9.703,0.0625 q3.715,0.0312 4.715,0.0312 q1.0625,0.0625 1.375,0.25 q0.3125,0.1875 0.125,0.4375 q-0.0625,0.1875 -0.3438,0.2188 q-0.2812,0.0312 -0.4688,0.0312 q-0.75,0 -4.3088,0 q-3.5588,0 -9.4843,-0.0312 q-5.9255,-0.0312 -13.8296,-0.0312 q-7.9041,0 -17.3662,-0.0312 q-9.4621,-0.0312 -20.1232,-0.0312 q-10.6611,0 -22.1115,-0.0312 q-11.4504,-0.0312 -23.3105,-0.0312 q-11.8601,0 -23.7105,0 q-11.8504,0 -23.3212,0 q-11.4708,0 -22.1427,0 q-10.6719,0 -20.1749,0.0312 q-9.5031,0.0312 -17.4384,0.0625 q-7.9353,0.0312 -13.9136,0.0625 q-5.9783,0.0312 -9.5888,0.0938 q-3.6105,0.0625 -4.423,0.125 q-2.25,0.1875 -3.75,0.4375 q-1.5,0.25 -1.9375,0.5 q-0.4375,0.25 -0.125,0.6875 l8.6875,10.9375 q0.4375,0.5 0.8438,0.2812 q0.4062,-0.2188 -0.0312,-0.9062 l-3.1875,-4.9375 q0.4673,-0.166 3.8146,-0.2802 q3.3473,-0.1142 9.153,-0.2177 q5.8057,-0.1035 13.6504,-0.1552 q7.8447,-0.0517 17.3703,-0.083 q9.5256,-0.0312 20.2805,-0.042 q10.7549,-0.0108 22.3497,-0.0108 q11.5948,0 23.6306,0.0312 q12.0358,0.0312 24.1331,0.0625 q12.0973,0.0312 23.857,0.0722 q11.7598,0.041 22.7507,0.0722 q10.991,0.0312 20.825,0.083 q9.834,0.0517 18.1207,0.083 q8.2867,0.0312 14.6067,0.0625 q6.32,0.0312 10.2937,0.0517 q3.9737,0.0205 5.1612,0.0205 q0.8125,0 1.3125,-0.9375 q1.4375,-2.5 2.3438,-5.8125 q0.9062,-3.3125 0.9062,-5.9375 q0,-1.3125 -0.5938,-1.9688 q-0.5938,-0.6562 -2.2188,-0.6562 q-1.5625,0 -5.8918,0 q-4.3293,0 -10.9531,0 q-6.6238,0 -15.1636,0 q-8.5398,0 -18.5849,0 q-10.0451,0 -21.2374,0 q-11.1924,0 -23.132,0 q-11.9396,0 -24.2167,0 q-12.2771,0 -24.5025,0 q-12.2254,0 -24.0507,0 q-11.8254,0 -22.8195,0 q-10.9941,0 -20.7892,0 q-9.7951,0 -17.9804,0 q-8.1853,0 -14.3824,0 q-6.1971,0 -10.0263,0 q-3.8293,0 -4.8293,0 h-1.5625 Z M236.8096,0 l21.4375,6.875 h3.625 v-6.875 h-25.0625 Z" fill="#D3D3D3" transform="matrix(1,0,0,-1,72,85)"/>
  <path d="M-4.0625,0.625 v14.625 q0.6875,-0.0625 1.0312,-0.5312 q0.3438,-0.4688 1.0312,-1.4688 q1.3125,-2 2.9688,-3.6562 q1.6562,-1.6562 3.4688,-3.0938 v-5.875 h-8.5 Z" fill="#D3D3D3" transform="matrix(1,0,0,-1,333,85)"/>
  <path d="M-1.25,0 v6.875 h6.0625 q-2.375,2.375 -4.4375,5.125 q-0.4375,0.5625 -0.5625,1.0938 q-0.125,0.5312 0.4375,0.9062 q0.9375,0.625 2.0938,1.5312 q1.1562,0.9062 1.7812,2.9688 q0.1875,0.625 0.8438,0.6875 q0.6562,0.0625 1.1562,-0.5 q1.625,-1.75 3.25,-3.8125 q1.625,-2.0625 3.1875,-3.9062 q1.5625,-1.8438 3.1562,-3.0938 q1.5938,-1.25 3.2188,-1.4375 q3.4375,-0.3125 7.5938,-0.3125 q4.1562,0 9.8438,0.4375 q0.6875,0.0625 0.9062,-0.4375 q0.2188,-0.5 -0.3438,-0.9375 q-1.375,-1 -2.2188,-1.75 q-0.8438,-0.75 -2.0938,-1.6875 q-0.875,-0.625 -1.5625,-1.0938 q-0.6875,-0.4688 -1.6875,-0.4688 q-0.8125,0 -2.625,-0.0312 q-1.8125,-0.0312 -4.3125,-0.0312 q-3.5625,0 -7.9062,-0.0625 q-4.3438,-0.0625 -8.5312,-0.0625 q-4.1875,0 -7.25,0 Z" fill="#D3D3D3" transform="matrix(1,0,0,-1,333,85)"/>
  <path d="M1,0.8125 q-0.625,0 -0.625,0.625 q0,0.3125 0.25,0.5 q1.375,1.0625 2.5625,2.3438 q1.1875,1.2812 2.3125,2.6562 q0.1875,0.25 0.5,0.25 q0.625,0 0.625,-0.625 q0,-0.25 -0.125,-0.375 q-2.3125,-3 -5.125,-5.25 q-0.125,-0.125 -0.375,-0.125 Z" fill="#D3D3D3" transform="matrix(1,0,0,-1,467,62)"/>
  <path d="M-1.25,0 v6.875 l2,-0.0625 q0,2.5625 -0.0938,5.2188 q-0.0938,2.6562 -0.2188,4.7188 q-0.0625,0.875 -0.0938,1.875 q-0.0312,1 0.6562,1.5 q1.125,0.8125 2.375,2.2812 q1.25,1.4688 1.6875,2.9688 q0.3125,0.8125 0.75,0.8125 q0.4375,0 0.5625,-0.6875 q0.25,-1.1875 0.3125,-2.7812 q0.0625,-1.5938 0.0312,-3.125 q-0.0312,-1.5312 -0.0312,-2.5312 q0,-0.875 0.0312,-1.0938 q0.0312,-0.2188 0.9688,-0.3438 q1,-0.0625 4.7668,-0.125 q3.7668,-0.0625 9.8701,-0.125 q6.1033,-0.0625 14.1324,-0.0938 q8.0291,-0.0312 17.6259,-0.0625 q9.5968,-0.0312 20.3312,-0.0625 q10.7344,-0.0312 22.2785,-0.0312 q11.5441,0 23.4667,0 q11.9226,0 23.856,0 q11.9334,0 23.4775,0 q11.5441,0 22.3302,0 q10.7861,0 20.4249,0.0312 q9.6388,0.0312 17.7304,0.0625 q8.0916,0.0312 14.2574,0.0625 q6.1658,0.0312 9.9951,0.0625 q3.8293,0.0312 4.9543,0.0312 q1.125,0.0625 1.5312,-0.4688 q0.4062,-0.5312 0.9688,-1.8438 q0.75,-1.6875 1.6562,-4.0625 q0.9062,-2.375 0.9688,-5.4375 q0.0625,-1.25 -1.0312,-2.1358 q-1.0938,-0.8858 -2.2188,-0.9892 q-1.375,-0.1035 -5.4963,-0.2069 q-4.1213,-0.1035 -10.5468,-0.1552 q-6.4255,-0.0517 -14.7466,-0.1142 q-8.3211,-0.0625 -18.1992,-0.083 q-9.8781,-0.0205 -20.9142,-0.0517 q-11.0361,-0.0312 -22.8615,-0.0312 q-11.8254,0 -24.04,-0.0108 q-12.2146,-0.0108 -24.44,0.0097 q-12.2254,0.0205 -24.1025,0.041 q-11.8771,0.0205 -23.0177,0.0205 q-11.1406,0 -21.1544,0.0312 q-10.0138,0.0312 -18.5321,0.0517 q-8.5183,0.0205 -15.1528,0.041 q-6.6346,0.0205 -11.0263,0.0205 q-4.3918,0 -6.0793,0 Z M251.4346,6.875 q1.375,0.125 1.625,0.3438 q0.25,0.2188 0.125,0.5938 q-0.0625,0.125 -0.2188,0.25 q-0.1562,0.125 -0.6562,0.0625 q-0.9375,-0.0625 -4.6105,-0.1562 q-3.673,-0.0938 -9.6406,-0.125 q-5.9675,-0.0312 -13.8511,-0.0938 q-7.8836,-0.0625 -17.2724,-0.0938 q-9.3888,-0.0312 -19.9249,-0.0312 q-10.5361,0 -21.8507,0 q-11.3146,0 -23.0087,0 q-11.6941,0 -23.4087,0 q-11.7146,0 -23.04,0.0312 q-11.3254,0.0312 -21.8927,0.0625 q-10.5674,0.0312 -20.0079,0.0312 q-9.4406,0 -17.3759,0.0312 q-7.9353,0.0312 -13.9449,0.0625 q-6.0096,0.0312 -9.7763,0.0938 q-3.7668,0.0625 -4.8293,0.0625 q0.125,-0.375 0.4062,-0.6875 q0.2812,-0.3125 1.0938,-0.375 q0.5625,0 3.923,-0.0312 q3.3605,-0.0312 9.078,-0.0625 q5.7175,-0.0312 13.3824,-0.0625 q7.6648,-0.0312 16.9179,-0.0625 q9.2531,-0.0312 19.6954,-0.0625 q10.4424,-0.0312 21.674,-0.0625 q11.2316,-0.0312 22.8945,-0.0312 q11.6629,0 23.3667,-0.0312 q11.7039,-0.0312 23.04,-0.0312 q11.3361,0 21.9347,0 q10.5986,0 20.0704,0.0312 q9.4718,0.0312 17.4384,0.0625 q7.9666,0.0312 14.0074,0.0625 q6.0408,0.0312 9.8076,0.0938 q3.7668,0.0625 4.8293,0.125 Z M236.8096,0 l21.4375,6.875 h3.625 v-6.875 h-25.0625 Z" fill="#D3D3D3" transform="matrix(1,0,0,-1,341,77)"/>
  <path d="M1,2 q-0.625,0 -0.625,0.625 q0,0.3125 0.25,0.5 q1.375,1.0625 2.5625,2.3438 q1.1875,1.2812 2.3125,2.6562 q0.1875,0.25 0.5,0.25 q0.625,0 0.625,-0.625 q0,-0.25 -0.125,-0.375 q-2.3125,-3 -5.125,-5.25 q-0.125,-0.125 -0.375,-0.125 Z M2.875,0.3125 q-0.625,0 -0.625,0.625 q0,0.3125 0.25,0.5 q1.375,1.0625 2.5625,2.3438 q1.1875,1.2812 2.3125,2.6562 q0.1875,0.25 0.5,0.25 q0.625,0 0.625,-0.625 q0,-0.25 -0.125,-0.375 q-2.3125,-3 -5.125,-5.25 q-0.125,-0.125 -0.375,-0.125 Z" fill="#D3D3D3" transform="matrix(1,0,0,-1,606,82)"/>
  <path d="M-1.25,0 v6.875 h2.4375 q-0.0625,2.625 -0.0938,4.25 q-0.0312,1.625 -0.1562,3.1875 q0,0.1875 -0.0625,0.625 q-0.0625,1.125 0,1.8438 q0.0625,0.7188 0.625,1.0938 q2.8125,1.875 4.8125,4.9375 q0.3125,0.5 0.5938,0.4062 q0.2812,-0.0938 0.2812,-0.5312 q0,-4.6875 0.4375,-9.0938 q0.4375,-4.4062 0.5,-9.0938 q0.0625,-1.625 -1.375,-3.0625 q-1.4375,-1.4375 -3.25,-1.4375 h-4.75 Z" fill="#D3D3D3" transform="matrix(1,0,0,-1,601,77)"/>
  <path d="M4.3917,3.4097 q-0.6125,0.1244 -0.4881,0.7369 q0.0622,0.3062 0.3445,0.4402 q1.5589,0.7676 2.9777,1.7868 q1.4187,1.0192 2.7949,2.1428 q0.2335,0.2077 0.5397,0.1455 q0.6125,-0.1244 0.4881,-0.7369 q-0.0498,-0.245 -0.1971,-0.3426 q-2.8633,-2.4797 -6.0673,-4.1248 q-0.1474,-0.0976 -0.3924,-0.0479 Z M0.5167,8.2847 q-0.6125,0.1244 -0.4881,0.7369 q0.0622,0.3062 0.3445,0.4402 q1.5589,0.7676 2.9777,1.7868 q1.4187,1.0192 2.7949,2.1428 q0.2335,0.2077 0.5397,0.1455 q0.6125,-0.1244 0.4881,-0.7369 q-0.0498,-0.245 -0.1971,-0.3426 q-2.8633,-2.4797 -6.0673,-4.1248 q-0.1474,-0.0976 -0.3924,-0.0479 Z M2.4542,5.8472 q-0.6125,0.1244 -0.4881,0.7369 q0.0622,0.3062 0.3445,0.4402 q1.5589,0.7676 2.9777,1.7868 q1.4187,1.0192 2.7949,2.1428 q0.2335,0.2077 0.5397,0.1455 q0.6125,-0.1244 0.4881,-0.7369 q-0.0498,-0.245 -0.1971,-0.3426 q-2.8633,-2.4797 -6.0673,-4.1248 q-0.1474,-0.0976 -0.3924,-0.0479 Z" fill="#D3D3D3" transform="matrix(1,0,0,-1,0.5,28)"/>
  <path d="" fill="#D3D3D3" transform="matrix(1,0,0,-1,11.5,28)"/>
  <path d="M1,0.3125 q-0.625,0 -0.625,0.625 q0,0.3125 0.25,0.5 q1.375,1.0625 2.5625,2.3438 q1.1875,1.2812 2.3125,2.6562 q0.1875,0.25 0.5,0.25 q0.625,0 0.625,-0.625 q0,-0.25 -0.125,-0.375 q-2.3125,-3 -5.125,-5.25 q-0.125,-0.125 -0.375,-0.125 Z" fill="#D3D3D3" transform="matrix(1,0,0,-1,72.5,36)"/>
  <path d="M13.0625,-7.625 q-0.8125,0 -2.4062,0.125 q-1.5938,0.125 -3.4062,0.5938 q-1.8125,0.4688 -3.4688,1.4375 q-1.6562,0.9688 -2.7188,2.5625 q-1.0625,1.5938 -1.0625,4.0938 q0,4.5 2.4375,7.5938 q2.4375,3.0938 5.75,4.4688 q2.1875,0.875 3.5938,0.4688 q1.4062,-0.4062 3.1562,-2.1562 q1.25,-1.25 2.3125,-2.25 q1.0625,-1 2.7188,-1.6875 q1.6562,-0.6875 4.625,-1.0625 q2.9688,-0.375 8.0312,-0.375 l1.4375,-4.25 q-2.4375,1.625 -5.0312,4.2812 q-2.5938,2.6562 -4.6562,5.3438 q-0.4375,0.5625 -0.5625,1.0938 q-0.125,0.5312 0.4375,0.9062 q0.9375,0.625 2.0938,1.5312 q1.1562,0.9062 1.7812,2.9688 q0.1875,0.625 0.8438,0.6875 q0.6562,0.0625 1.1562,-0.5 q1.625,-1.75 3.25,-3.8125 q1.625,-2.0625 3.1875,-3.9062 q1.5625,-1.8438 3.1562,-3.0938 q1.5938,-1.25 3.2188,-1.4375 q3.4375,-0.3125 7.5938,-0.3125 q4.1562,0 9.8438,0.4375 q0.6875,0.0625 0.9062,-0.4375 q0.2188,-0.5 -0.3438,-0.9375 q-1.375,-1 -2.2188,-1.75 q-0.8438,-0.75 -2.0938,-1.6875 q-0.875,-0.625 -1.5625,-1.0938 q-0.6875,-0.4688 -1.6875,-0.4688 q-1,0 -3.5625,-0.0312 q-2.5625,-0.0312 -6.0312,-0.0625 q-3.4688,-0.0312 -7.3125,-0.0625 q-3.8438,-0.0312 -7.4062,-0.0312 q-3.5625,0 -6.25,0 q-3.625,0 -6.6875,0.5 q-3.0625,0.5 -5.125,1.875 q-2.0625,1.375 -2.6875,3.9375 q-0.0625,0.5 -0.6875,0.3438 q-0.625,-0.1562 -0.5625,-0.7188 q0.4375,-2.5625 2.0312,-4.0312 q1.5938,-1.4688 3.9062,-2.0938 q2.3125,-0.625 4.875,-0.8125 q3,-0.1875 6.375,-0.1875 q3.375,0 6.375,0.0625 q3,0.0625 4.9688,0.1562 q1.9688,0.0938 2.2188,0.0938 q0.8125,0 0.7188,-0.4375 q-0.0938,-0.4375 -0.5938,-0.625 q-2,-0.6875 -5.5625,-1.9688 q-3.5625,-1.2812 -8.4375,-2.2812 q-4.875,-1 -10.875,-1 Z" fill="#D3D3D3" transform="matrix(1,0,0,-1,36.5,28)"/>
  <path d="M-1.25,7.1875 v6.875 h2.375 q-0.0625,4.0625 -0.2812,8.875 q-0.2188,4.8125 -0.5,9.9688 q-0.2812,5.1562 -0.5938,10.1562 q0,0.125 -0.0625,0.375 q-0.0625,0.375 -0.0312,0.875 q0.0312,0.5 0.5938,1 q0.5625,0.4375 1.4375,1.2188 q0.875,0.7812 1.6875,1.6562 q0.8125,0.875 1.1875,1.5625 q0.5,0.875 1,0.6562 q0.5,-0.2188 0.5625,-1.2812 q0.3125,-6.125 0.5938,-12.375 q0.2812,-6.25 0.5625,-11.9688 q0.2812,-5.7188 0.4062,-10.3438 q0.125,-3.375 -0.5625,-4.875 q-0.6875,-1.5 -2.1875,-1.9062 q-1.5,-0.4062 -3.8125,-0.4688 h-2.375 Z M1.125,7.1875 v6.875 h7.5 v-6.875 h-7.5 Z" fill="#D3D3D3" transform="matrix(1,0,0,-1,68.5,28)"/>
  <path d="M-0.625,0 l-0.875,14.625 h1.125 q0.0625,-2.4375 1.0625,-4.0938 q1,-1.6562 2.4375,-2.5312 q1.4375,-0.875 2.8125,-1.125 v-6.875 h-6.5625 Z" fill="#D3D3D3" transform="matrix(1,0,0,-1,76.5,21)"/>
  <path d="M-1.25,0 v6.875 h1.25 q26.1455,-0.2 52.2909,-0.2 q26.1455,0 52.2909,0.2 v-6.875 q-26.458,-0.1667 -52.9159,-0.1667 q-26.458,0 -52.9159,0.1667 Z" fill="#D3D3D3" transform="matrix(1,0,0,-1,82.5,21)"/>
  <path d="M1,0.3125 q-0.625,0 -0.625,0.625 q0,0.3125 0.25,0.5 q1.375,1.0625 2.5625,2.3438 q1.1875,1.2812 2.3125,2.6562 q0.1875,0.25 0.5,0.25 q0.625,0 0.625,-0.625 q0,-0.25 -0.125,-0.375 q-2.3125,-3 -5.125,-5.25 q-0.125,-0.125 -0.375,-0.125 Z" fill="#D3D3D3" transform="matrix(1,0,0,-1,199.5,28)"/>
  <path d="M-1.25,0 v6.875 h6.0625 q-2.375,2.375 -4.4375,5.125 q-0.4375,0.5625 -0.5625,1.0938 q-0.125,0.5312 0.4375,0.9062 q0.9375,0.625 2.0938,1.5312 q1.1562,0.9062 1.7812,2.9688 q0.1875,0.625 0.8438,0.6875 q0.6562,0.0625 1.1562,-0.5 q1.625,-1.75 3.25,-3.8125 q1.625,-2.0625 3.1875,-3.9062 q1.5625,-1.8438 3.1562,-3.0938 q1.5938,-1.25 3.2188,-1.4375 q3.4375,-0.3125 7.5938,-0.3125 q4.1562,0 9.8438,0.4375 q0.6875,0.0625 0.9062,-0.4375 q0.2188,-0.5 -0.3438,-0.9375 q-1.375,-1 -2.2188,-1.75 q-0.8438,-0.75 -2.0938,-1.6875 q-0.875,-0.625 -1.5625,-1.0938 q-0.6875,-0.4688 -1.6875,-0.4688 q-0.8125,0 -2.625,-0.0312 q-1.8125,-0.0312 -4.3125,-0.0312 q-3.5625,0 -7.9062,-0.0625 q-4.3438,-0.0625 -8.5312,-0.0625 q-4.1875,0 -7.25,0 Z" fill="#D3D3D3" transform="matrix(1,0,0,-1,186.5,21)"/>
  <path d="M-1.25,14.375 v6.875 h2.5 q-0.125,3.25 -0.3125,7.0312 q-0.1875,3.7812 -0.375,7.5938 q-0.1875,3.8125 -0.4375,7.25 q0,0.125 -0.0625,0.375 q-0.0625,0.375 -0.0312,0.875 q0.0312,0.5 0.5938,1 q0.5625,0.4375 1.4375,1.2188 q0.875,0.7812 1.6875,1.6562 q0.8125,0.875 1.1875,1.5625 q0.5,0.875 1,0.6562 q0.5,-0.2188 0.5625,-1.2812 q0.3125,-6.625 0.625,-13.6562 q0.3125,-7.0312 0.5625,-13.9062 q0.125,-3.375 -0.5625,-4.875 q-0.6875,-1.5 -2.1875,-1.9062 q-1.5,-0.4062 -3.8125,-0.4688 h-2.375 Z M1.125,14.375 v6.875 h7.5 v-6.875 h-7.5 Z" fill="#D3D3D3" transform="matrix(1,0,0,-1,194.5,28)"/>
  <path d="M-0.625,0 l-0.875,14.625 h1.125 q0.0625,-2.4375 1.0625,-4.0938 q1,-1.6562 2.4375,-2.5312 q1.4375,-0.875 2.8125,-1.125 v-6.875 h-6.5625 Z" fill="#D3D3D3" transform="matrix(1,0,0,-1,202.5,14)"/>
  <path d="M-1.25,0 v6.875 h1.25 q26.1455,-0.2 52.2909,-0.2 q26.1455,0 52.2909,0.2 v-6.875 q-26.458,-0.1667 -52.9159,-0.1667 q-26.458,0 -52.9159,0.1667 Z" fill="#D3D3D3" transform="matrix(1,0,0,-1,208.5,14)"/>
  <path d="M1.1106,1.5839 q-0.6173,-0.0978 -0.7151,0.5195 q-0.0489,0.3086 0.1687,0.5329 q1.1918,1.2645 2.1643,2.7157 q0.9724,1.4512 1.8685,2.9853 q0.1461,0.2762 0.4547,0.3251 q0.6173,0.0978 0.7151,-0.5195 q0.0391,-0.2469 -0.0648,-0.3899 q-1.8147,-3.3248 -4.2405,-5.987 q-0.1039,-0.143 -0.3508,-0.1821 Z M2.9856,-0.1036 q-0.6173,-0.0978 -0.7151,0.5195 q-0.0489,0.3086 0.1687,0.5329 q1.1918,1.2645 2.1643,2.7157 q0.9724,1.4512 1.8685,2.9853 q0.1461,0.2762 0.4547,0.3251 q0.6173,0.0978 0.7151,-0.5195 q0.0391,-0.2469 -0.0648,-0.3899 q-1.8147,-3.3248 -4.2405,-5.987 q-0.1039,-0.143 -0.3508,-0.1821 Z" fill="#D3D3D3" transform="matrix(1,0,0,-1,311.5,-5)"/>
  <path d="M-1.25,0 v6.875 h2.5625 q-0.0625,3 -0.1875,5.0625 q-0.125,2.0625 -0.25,3.5 q-0.0625,0.5 0.0938,0.7812 q0.1562,0.2812 0.7812,0.5938 q1.3125,0.75 2,1.875 q0.6875,1.125 2.125,3.25 q0.3125,0.375 0.7812,0.3125 q0.4688,-0.0625 0.5312,-0.9375 q0.1875,-2.4375 0.375,-5.1562 q0.1875,-2.7188 0.25,-6.3438 q0.0625,-1.0625 0.25,-2 q0.1875,-0.9375 0.75,-0.9375 v-6.875 h-10.0625 Z" fill="#D3D3D3" transform="matrix(1,0,0,-1,312.5,14)"/>
  <path d="M-1.5,2.8125 v9.8125 h1.1875 q0.0625,-2.3125 1.0312,-3.25 q0.9688,-0.9375 1.8438,-1.25 v-5.3125 h-4.0625 Z" fill="#D3D3D3" transform="matrix(1,0,0,-1,320.5,14)"/>
  <path d="M12.5,-0.5 q-1.3125,0 -2.7188,0.125 q-1.4062,0.125 -2.7812,0.375 h-8.25 v6.875 h2.1875 q-0.0625,5 1.75,8.3438 q1.8125,3.3438 4.5625,5.0312 q2.75,1.6875 5.5625,1.6875 q2.8125,0 5.1562,-1.8438 q2.3438,-1.8438 3.875,-5.2188 q1.5312,-3.375 1.8438,-8 h0.0625 v-6.875 h-4.4375 q-1.6875,-0.4375 -3.5312,-0.4688 q-1.8438,-0.0312 -3.2812,-0.0312 Z M13.125,10.4375 q0.75,0 0.75,0.8125 q0,0.3125 -0.2188,0.5312 q-0.2188,0.2188 -0.5312,0.2188 q-0.8125,0 -0.8125,-0.75 q0,-0.8125 0.8125,-0.8125 Z" fill="#D3D3D3" transform="matrix(1,0,0,-1,320.5,14)"/>
  <path d="M-1.25,14.375 v6.875 h2.5 q-0.125,3.25 -0.3125,7.0312 q-0.1875,3.7812 -0.375,7.5938 q-0.1875,3.8125 -0.4375,7.25 q0,0.125 -0.0625,0.375 q-0.0625,0.375 -0.0312,0.875 q0.0312,0.5 0.5938,1 q0.5625,0.4375 1.4375,1.2188 q0.875,0.7812 1.6875,1.6562 q0.8125,0.875 1.1875,1.5625 q0.5,0.875 1,0.6562 q0.5,-0.2188 0.5625,-1.2812 q0.3125,-6.625 0.625,-13.6562 q0.3125,-7.0312 0.5625,-13.9062 q0.125,-3.375 -0.5625,-4.875 q-0.6875,-1.5 -2.1875,-1.9062 q-1.5,-0.4062 -3.8125,-0.4688 h-2.375 Z" fill="#D3D3D3" transform="matrix(1,0,0,-1,342.5,28)"/>
  <path d="M19.4375,-3 q-3.8125,0.0625 -7.2812,1.1875 q-3.4688,1.125 -6.1875,3.4375 q-2.7188,2.3125 -4.3125,5.9688 q-1.5938,3.6562 -1.6562,8.7812 q0,2.625 -0.0625,5.7812 q-0.0625,3.1562 -0.1562,6.4062 q-0.0938,3.25 -0.25,6.1562 q-0.1562,2.9062 -0.3438,4.9062 q-0.1875,1.4375 -0.3125,2.3125 q-0.125,0.875 0.3125,1.1875 q0.6875,0.4375 1.6562,1.2812 q0.9688,0.8438 1.8438,1.8438 q0.875,1 1.25,1.8125 q0.3125,0.6875 0.7812,0.6875 q0.4688,0 0.6562,-1.25 q0.3125,-2.25 0.375,-5.375 q0.0625,-3.125 0.0625,-6.6875 q0,-3.5625 0,-7.1562 q0,-3.5938 0.1875,-6.7188 q0.1875,-3.4375 1.3125,-6.25 q1.125,-2.8125 3.0938,-4.9062 q1.9688,-2.0938 4.5312,-3.4688 q3.25,-1.6875 7.3125,-2.1875 q4.0625,-0.5 8.625,0.3125 q4.5625,0.8125 9.25,2.875 q0.5625,0.3125 0.8438,0.125 q0.2812,-0.1875 0.0312,-0.75 q-2.3125,-5.125 -7.9688,-7.75 q-5.6562,-2.625 -13.5938,-2.5625 Z" fill="#D3D3D3" transform="matrix(1,0,0,-1,375.5,28)"/>
  <path d="" fill="#D3D3D3" transform="matrix(1,0,0,-1,416.5,28)"/>
  <path d="M4.3917,3.4097 q-0.6125,0.1244 -0.4881,0.7369 q0.0622,0.3062 0.3445,0.4402 q1.5589,0.7676 2.9777,1.7868 q1.4187,1.0192 2.7949,2.1428 q0.2335,0.2077 0.5397,0.1455 q0.6125,-0.1244 0.4881,-0.7369 q-0.0498,-0.245 -0.1971,-0.3426 q-2.8633,-2.4797 -6.0673,-4.1248 q-0.1474,-0.0976 -0.3924,-0.0479 Z M0.5167,8.2847 q-0.6125,0.1244 -0.4881,0.7369 q0.0622,0.3062 0.3445,0.4402 q1.5589,0.7676 2.9777,1.7868 q1.4187,1.0192 2.7949,2.1428 q0.2335,0.2077 0.5397,0.1455 q0.6125,-0.1244 0.4881,-0.7369 q-0.0498,-0.245 -0.1971,-0.3426 q-2.8633,-2.4797 -6.0673,-4.1248 q-0.1474,-0.0976 -0.3924,-0.0479 Z M2.4542,5.8472 q-0.6125,0.1244 -0.4881,0.7369 q0.0622,0.3062 0.3445,0.4402 q1.5589,0.7676 2.9777,1.7868 q1.4187,1.0192 2.7949,2.1428 q0.2335,0.2077 0.5397,0.1455 q0.6125,-0.1244 0.4881,-0.7369 q-0.0498,-0.245 -0.1971,-0.3426 q-2.8633,-2.4797 -6.0673,-4.1248 q-0.1474,-0.0976 -0.3924,-0.0479 Z" fill="#D3D3D3" transform="matrix(1,0,0,-1,441.5,28)"/>
  <path d="" fill="#D3D3D3" transform="matrix(1,0,0,-1,452.5,28)"/>
  <path d="M1,0.3125 q-0.625,0 -0.625,0.625 q0,0.3125 0.25,0.5 q1.375,1.0625 2.5625,2.3438 q1.1875,1.2812 2.3125,2.6562 q0.1875,0.25 0.5,0.25 q0.625,0 0.625,-0.625 q0,-0.25 -0.125,-0.375 q-2.3125,-3 -5.125,-5.25 q-0.125,-0.125 -0.375,-0.125 Z" fill="#D3D3D3" transform="matrix(1,0,0,-1,513.5,36)"/>
  <path d="M13.0625,-7.625 q-0.8125,0 -2.4062,0.125 q-1.5938,0.125 -3.4062,0.5938 q-1.8125,0.4688 -3.4688,1.4375 q-1.6562,0.9688 -2.7188,2.5625 q-1.0625,1.5938 -1.0625,4.0938 q0,4.5 2.4375,7.5938 q2.4375,3.0938 5.75,4.4688 q2.1875,0.875 3.5938,0.4688 q1.4062,-0.4062 3.1562,-2.1562 q1.25,-1.25 2.5312,-2.375 q1.2812,-1.125 2.6562,-1.9688 q1.375,-0.8438 2.9375,-1.1562 q1.5625,-0.3125 3.3125,0.125 l1.4375,-4.25 q-2.4375,1.625 -5.0312,4.2812 q-2.5938,2.6562 -4.6562,5.3438 q-0.4375,0.5625 -0.5625,1.0938 q-0.125,0.5312 0.4375,0.9062 q0.9375,0.625 2.0938,1.5312 q1.1562,0.9062 1.7812,2.9688 q0.1875,0.625 0.8438,0.6875 q0.6562,0.0625 1.1562,-0.5 q1.625,-1.75 3.25,-3.8125 q1.625,-2.0625 3.1875,-3.9062 q1.5625,-1.8438 3.1562,-3.0938 q1.5938,-1.25 3.2188,-1.4375 q3.4375,-0.3125 7.5938,-0.3125 q4.1562,0 9.8438,0.4375 q0.6875,0.0625 0.9062,-0.4375 q0.2188,-0.5 -0.3438,-0.9375 q-1.375,-1 -2.2188,-1.75 q-0.8438,-0.75 -2.0938,-1.6875 q-0.875,-0.625 -1.5625,-1.0938 q-0.6875,-0.4688 -1.6875,-0.4688 q-1,0 -2.9375,-0.0312 q-1.9375,-0.0312 -4.4688,-0.0625 q-2.5312,-0.0312 -5.4375,-0.0625 q-2.9062,-0.0312 -5.8438,-0.0312 q-2.9375,0 -5.625,0 q-3.625,0 -6.6875,0.5 q-3.0625,0.5 -5.125,1.875 q-2.0625,1.375 -2.6875,3.9375 q-0.0625,0.5 -0.6875,0.3438 q-0.625,-0.1562 -0.5625,-0.7188 q0.4375,-2.5625 2.0312,-4.0312 q1.5938,-1.4688 3.9062,-2.0938 q2.3125,-0.625 4.875,-0.8125 q3,-0.1875 6.375,-0.1875 q3.375,0 6.375,0.0625 q3,0.0625 4.9688,0.1562 q1.9688,0.0938 2.2188,0.0938 q0.8125,0 0.7188,-0.4375 q-0.0938,-0.4375 -0.5938,-0.625 q-2,-0.6875 -5.5625,-1.9688 q-3.5625,-1.2812 -8.4375,-2.2812 q-4.875,-1 -10.875,-1 Z" fill="#D3D3D3" transform="matrix(1,0,0,-1,477.5,28)"/>
  <path d="M-0.4375,0 v9.0625 q1,-1.1875 2.0938,-1.7188 q1.0938,-0.5312 2.2812,-0.7188 q-1.5,1.3125 -2.8438,2.75 q-1.3438,1.4375 -2.1562,2.4375 q-0.4375,0.5625 -0.5,0.875 q-0.0625,0.3125 0.5,0.6875 q0.9375,0.625 2.2812,2.0625 q1.3438,1.4375 2.1562,3.0625 q0.125,0.3125 0.5938,0.375 q0.4688,0.0625 0.8438,-0.375 q4.0625,-4.75 9.3125,-7.5 q5.25,-2.75 10.8125,-3.7812 q5.5625,-1.0312 10.5,-0.7812 q0.5,0.0625 0.6875,-0.4062 q0.1875,-0.4688 -0.1875,-0.8438 q-1.1875,-1.125 -2.25,-2.125 q-1.0625,-1 -1.875,-2.0625 q-0.4375,-0.625 -1.4688,-0.7188 q-1.0312,-0.0938 -1.8438,-0.0938 q-1.1875,0 -3.2812,-0.0312 q-2.0938,-0.0312 -4.7812,-0.0312 q-3.25,-0.0625 -7,-0.0938 q-3.75,-0.0312 -7.3438,-0.0312 q-3.5938,0 -6.5312,0 Z" fill="#D3D3D3" transform="matrix(1,0,0,-1,503.5,21)"/>
  <path d="M0,14.375 q-0.0625,5.9375 -0.4375,13.1562 q-0.375,7.2188 -0.875,14.2812 q0,0.125 -0.0625,0.375 q-0.0625,0.375 -0.0312,0.875 q0.0312,0.5 0.5938,1 q0.5625,0.4375 1.4375,1.2188 q0.875,0.7812 1.6875,1.6562 q0.8125,0.875 1.1875,1.5625 q0.5,0.875 1,0.6562 q0.5,-0.2188 0.5625,-1.2812 q0.25,-5.875 0.5312,-11.875 q0.2812,-6 0.5625,-11.5312 q0.2812,-5.5312 0.4062,-10.0938 h-6.5625 Z" fill="#D3D3D3" transform="matrix(1,0,0,-1,514.5,28)"/>
  <path d="M19.4375,-3 q-3.8125,0.0625 -7.2812,1.1875 q-3.4688,1.125 -6.1875,3.4375 q-2.7188,2.3125 -4.3125,5.9688 q-1.5938,3.6562 -1.6562,8.7812 q0,2.625 -0.0625,5.7812 q-0.0625,3.1562 -0.1562,6.4062 q-0.0938,3.25 -0.25,6.1562 q-0.1562,2.9062 -0.3438,4.9062 q-0.1875,1.4375 -0.3125,2.3125 q-0.125,0.875 0.3125,1.1875 q0.6875,0.4375 1.6562,1.2812 q0.9688,0.8438 1.8438,1.8438 q0.875,1 1.25,1.8125 q0.3125,0.6875 0.7812,0.6875 q0.4688,0 0.6562,-1.25 q0.3125,-2.25 0.375,-5.375 q0.0625,-3.125 0.0625,-6.6875 q0,-3.5625 0,-7.1562 q0,-3.5938 0.1875,-6.7188 q0.1875,-3.4375 1.3125,-6.25 q1.125,-2.8125 3.0938,-4.9062 q1.9688,-2.0938 4.5312,-3.4688 q3.25,-1.6875 7.3125,-2.1875 q4.0625,-0.5 8.625,0.3125 q4.5625,0.8125 9.25,2.875 q0.5625,0.3125 0.8438,0.125 q0.2812,-0.1875 0.0312,-0.75 q-2.3125,-5.125 -7.9688,-7.75 q-5.6562,-2.625 -13.5938,-2.5625 Z" fill="#D3D3D3" transform="matrix(1,0,0,-1,572.5,28)"/>
</svg>
