<svg xmlns="http://www.w3.org/2000/svg" width="622" height="135" preserveAspectRatio="xMinYMin slice" viewBox="-4 -25 622 135"><path fill="#fffaed" d="M-4 110V-25h622v135Z"/><path d="M0 72.188q-.625 0-.625-.626 0-.312.25-.5Q1 70 2.188 68.72q1.187-1.281 2.312-2.656.188-.25.5-.25.625 0 .625.624 0 .25-.125.376-2.312 3-5.125 5.25-.125.124-.375.124m14.125 34.875q-1.562.624-3.781.874T5.75 108t-4.531-.781-3.594-1.594q-.562-.375-.656-.875t.594-.75q1.125-.5 2.406-1.844t2.594-3.281q.187-.312.437-.25.25.063.438.188 1.437.812 3.28 1.218 1.845.406 4.907.22.313-4.626.219-8.376t-.469-6.5q-.5-3.812-1.781-5.656T5.938 77.03t-6.063-1.593q-.812-.188-.844-.72-.03-.53.72-.718 2.187-.625 4.187-2.437 2-1.813 2.437-4.25.125-.5.313-.532.187-.03.687.094H7.5q4.813 1.063 7 4.844t2.625 9.031q.25 2.938.281 6.219t-.062 6.187-.219 4.907q0 .437-.031.812t-.031.688q0 1.312-.282 2.875-.28 1.562-.906 2.843-.625 1.282-1.75 1.782Zm44.25-13.438q-6.75 0-10.469-1.25T42.25 88.5q-.5-.687-.125-1.062.375-.376.875-.376.688 0 1.75-.687t2.063-1.625 1.374-1.625q.313-.562.938-.281t1.063.656q1.562 1.375 3.906 2.094 2.343.719 4.75.937 2.406.22 4.28.156 1.876-.062 2.563-.187.75-.125.72-.656-.032-.531-.657-.469-3.375.25-6.25.094t-5.062-1.031-3.407-2.813-1.218-5.187q0-2.063.624-4.188.626-2.125 1.876-3.937 1.25-1.813 3.218-2.938 1.97-1.125 4.594-1.125 3.313 0 5.188 1.125t3.625 3.375q1.562 2 2.125 4.125T72 76.063q.313.812.938 1.468.625.657 1.687.657V85q0 3.875-2.125 5.719t-5.812 2.375-8.313.531m3-17.812q.75 0 .75-.813 0-.312-.219-.531t-.531-.219q-.812 0-.812.75 0 .813.812.813"/><path d="M71.375 85v-8.812h.688q.312.812 1.75 1.062t5.312.438q1.125.062 4.923.093t9.87.063 14.008.062 17.386.031h64.899q11.683 0 23.346-.03 11.663-.032 22.957-.032t21.83-.031 19.925-.063 17.262-.062 13.86-.063q5.989-.03 9.704-.062 3.715-.031 4.715-.031 1.062-.063 1.375-.25.312-.188.125-.438-.063-.187-.344-.219-.281-.03-.469-.03h-4.309q-3.559 0-9.484.03-5.926.032-13.83.032t-17.366.03-20.123.032-22.112.031-23.31.031h-69.175q-10.671 0-20.174-.03-9.504-.032-17.439-.063t-13.913-.063-9.59-.094-4.422-.125Q77 76.25 75.5 76t-1.938-.5-.125-.688l8.688-10.937q.437-.5.844-.281t-.032.906l-3.187 4.937q.467.166 3.814.28t9.153.218 13.65.155q7.846.052 17.371.083 9.526.032 20.28.042 10.756.011 22.35.011t23.631-.03l24.133-.063q12.097-.032 23.857-.073t22.75-.072q10.992-.031 20.826-.083t18.12-.083 14.607-.062l10.294-.052q3.974-.02 5.161-.02.813 0 1.313.937 1.437 2.5 2.343 5.813.907 3.312.907 5.937 0 1.313-.594 1.969t-2.219.656zm237.435 0 21.437-6.875h3.625V85z"/><path d="M328.938 84.375V69.75q.687.063 1.03.531.344.469 1.032 1.469 1.312 2 2.969 3.656t3.469 3.094v5.875z"/><path d="M331.75 85v-6.875h6.063q-2.375-2.375-4.438-5.125-.437-.562-.562-1.094-.125-.531.437-.906.938-.625 2.094-1.531t1.781-2.969q.188-.625.844-.687t1.156.5q1.625 1.75 3.25 3.812 1.625 2.063 3.188 3.906 1.562 1.844 3.156 3.094t3.219 1.438q3.437.312 7.593.312t9.844-.437q.688-.063.906.437.22.5-.344.938-1.375 1-2.218 1.75-.844.75-2.094 1.687-.875.625-1.563 1.094t-1.687.469q-.813 0-2.625.03-1.813.032-4.313.032-3.562 0-7.906.063Q343.187 85 339 85zM468 61.188q-.625 0-.625-.626 0-.312.25-.5Q469 59 470.188 57.72q1.187-1.282 2.312-2.657.188-.25.5-.25.625 0 .625.626 0 .25-.125.374-2.312 3-5.125 5.25-.125.126-.375.126"/><path d="M339.75 77v-6.875l2 .063q0-2.563-.094-5.22t-.219-4.718q-.062-.875-.093-1.875-.032-1 .656-1.5 1.125-.813 2.375-2.281 1.25-1.47 1.687-2.97.313-.812.75-.812.438 0 .563.688.25 1.187.312 2.781.063 1.594.032 3.125-.032 1.531-.032 2.531 0 .875.032 1.094.03.219.968.344 1 .062 4.767.125 3.767.062 9.87.125 6.104.062 14.133.094 8.029.03 17.626.062 9.596.031 20.33.063 10.735.03 22.28.03h93.129q10.787 0 20.426-.03 9.638-.032 17.73-.063t14.257-.062q6.166-.032 9.995-.063 3.83-.031 4.955-.031 1.125-.062 1.53.469.407.531.97 1.844.75 1.687 1.656 4.062t.969 5.438q.062 1.25-1.031 2.135-1.094.886-2.22.99-1.374.103-5.496.207-4.12.103-10.546.155-6.426.051-14.747.114-8.321.062-18.2.083-9.877.02-20.913.052-11.037.03-22.862.03t-24.04.012-24.44-.01l-24.102-.041q-11.878-.02-23.018-.02t-21.155-.032q-10.013-.031-18.532-.051-8.518-.021-15.152-.041Q350.22 77 345.829 77zm252.685-6.875q1.375-.125 1.625-.344t.125-.594q-.063-.125-.22-.25-.155-.125-.655-.062-.938.062-4.61.156-3.674.094-9.641.125t-13.852.094q-7.883.062-17.272.094-9.389.03-19.925.03h-68.268q-11.715 0-23.04-.03-11.325-.031-21.893-.063-10.567-.031-20.008-.031t-17.375-.031-13.945-.063q-6.01-.03-9.777-.094-3.766-.062-4.829-.062.125.375.406.688t1.094.374q.563 0 3.923.032 3.36.03 9.078.062 5.718.031 13.382.063 7.665.03 16.918.062 9.253.031 19.696.063l21.674.062q11.231.031 22.894.031t23.367.032q11.704.03 23.04.03h21.935q10.598 0 20.07-.03 9.472-.032 17.438-.063 7.967-.031 14.008-.062 6.04-.032 9.807-.094 3.767-.063 4.83-.125M577.81 77l21.437-6.875h3.625V77zM607 80q-.625 0-.625-.625 0-.312.25-.5 1.375-1.062 2.563-2.344 1.187-1.281 2.312-2.656.188-.25.5-.25.625 0 .625.625 0 .25-.125.375-2.312 3-5.125 5.25Q607.25 80 607 80m1.875 1.688q-.625 0-.625-.626 0-.312.25-.5 1.375-1.062 2.563-2.343 1.187-1.281 2.312-2.656.188-.25.5-.25.625 0 .625.624 0 .25-.125.376-2.312 3-5.125 5.25-.125.124-.375.124"/><path d="M599.75 77v-6.875h2.438q-.063-2.625-.094-4.25-.032-1.625-.157-3.187 0-.188-.062-.626-.062-1.124 0-1.843.063-.72.625-1.094 2.813-1.875 4.813-4.938.312-.5.593-.406.282.094.282.531 0 4.688.437 9.094.438 4.406.5 9.094.063 1.625-1.375 3.063Q606.313 77 604.5 77zM4.892 24.59q-.613-.124-.488-.737.062-.306.344-.44 1.559-.767 2.978-1.787 1.418-1.019 2.795-2.142.233-.208.54-.146.612.124.487.737-.05.245-.197.343-2.863 2.48-6.067 4.124-.147.098-.392.048m-3.875-4.875q-.613-.124-.488-.737.062-.306.344-.44 1.559-.767 2.978-1.787 1.419-1.019 2.795-2.142.233-.208.54-.146.612.125.488.737-.05.245-.198.343-2.863 2.48-6.067 4.124-.147.098-.392.048m1.937 2.438q-.612-.125-.488-.737.062-.306.345-.44 1.559-.768 2.977-1.787 1.419-1.02 2.795-2.143.234-.208.54-.145.612.124.488.737-.05.244-.197.342-2.863 2.48-6.067 4.125-.148.098-.393.048M73.5 35.688q-.625 0-.625-.626 0-.312.25-.5Q74.5 33.5 75.688 32.22q1.187-1.282 2.312-2.657.188-.25.5-.25.625 0 .625.625 0 .25-.125.375-2.312 3-5.125 5.25-.125.126-.375.126"/><path d="M49.563 35.625q-.813 0-2.407-.125-1.593-.125-3.406-.594-1.812-.469-3.469-1.437-1.656-.97-2.718-2.563T36.5 26.812q0-4.5 2.438-7.593 2.437-3.094 5.75-4.47 2.187-.874 3.593-.468t3.157 2.156q1.25 1.25 2.312 2.25 1.063 1 2.719 1.688t4.625 1.062 8.031.375l1.438 4.25q-2.438-1.625-5.032-4.281t-4.656-5.344q-.437-.562-.562-1.094-.125-.53.437-.906.938-.625 2.094-1.531t1.781-2.969q.188-.625.844-.687t1.156.5q1.625 1.75 3.25 3.812 1.625 2.063 3.188 3.906 1.562 1.844 3.156 3.094T79.438 22q3.437.312 7.593.312t9.844-.437q.688-.063.906.437.22.5-.343.938-1.375 1-2.22 1.75-.843.75-2.093 1.687-.875.625-1.562 1.094t-1.688.469-3.562.031-6.032.063l-7.312.062q-3.844.031-7.406.031h-6.25q-3.625 0-6.688-.5T47.5 26.062t-2.687-3.937q-.063-.5-.688-.344t-.562.719q.437 2.562 2.03 4.03Q47.189 28 49.5 28.626t4.875.812q3 .188 6.375.188t6.375-.063 4.969-.156 2.219-.094q.812 0 .718.438-.093.437-.593.625-2 .687-5.563 1.968-3.562 1.282-8.437 2.282t-10.875 1Z"/><path d="M67.25 20.813v-6.875h2.375q-.062-4.063-.281-8.875t-.5-9.97q-.281-5.155-.594-10.155 0-.126-.062-.376-.063-.374-.032-.874t.594-1q.563-.438 1.438-1.22.875-.78 1.687-1.656t1.188-1.562q.5-.875 1-.656t.562 1.281Q74.938-15 75.22-8.75t.562 11.969.407 10.344q.125 3.375-.563 4.875t-2.187 1.906-3.813.469zm2.375 0v-6.875h7.5v6.874z"/><path d="M75.875 21 75 6.375h1.125q.063 2.438 1.063 4.094T79.625 13t2.813 1.125V21z"/><path d="M81.25 21v-6.875h1.25q26.146.2 52.29.2 26.146 0 52.292-.2V21q-26.458.167-52.916.167T81.25 21m119.25 6.688q-.625 0-.625-.625 0-.313.25-.5 1.375-1.063 2.563-2.344 1.187-1.282 2.312-2.657.188-.25.5-.25.625 0 .625.625 0 .25-.125.375-2.312 3-5.125 5.25-.125.125-.375.125"/><path d="M185.25 21v-6.875h6.063Q188.938 11.75 186.875 9q-.437-.562-.562-1.094-.125-.531.437-.906.938-.625 2.094-1.531t1.781-2.969q.188-.625.844-.687t1.156.5q1.625 1.75 3.25 3.812 1.625 2.063 3.188 3.906 1.562 1.844 3.156 3.094t3.219 1.438q3.437.312 7.593.312t9.844-.437q.688-.063.906.437.22.5-.344.938-1.375 1-2.218 1.75-.844.75-2.094 1.687-.875.625-1.563 1.094t-1.687.469q-.813 0-2.625.03-1.813.032-4.313.032-3.562 0-7.906.063-4.344.062-8.531.062z"/><path d="M193.25 13.625V6.75h2.5q-.125-3.25-.312-7.031-.188-3.781-.375-7.594-.188-3.812-.438-7.25 0-.125-.062-.375-.063-.375-.032-.875t.594-1q.563-.437 1.438-1.219.875-.781 1.687-1.656t1.188-1.562q.5-.875 1-.657.5.22.562 1.282.313 6.625.625 13.656.313 7.03.563 13.906.125 3.375-.563 4.875t-2.187 1.906-3.813.469zm2.375 0V6.75h7.5v6.875z"/><path d="M201.875 14 201-.625h1.125q.063 2.438 1.063 4.094T205.625 6t2.813 1.125V14z"/><path d="M207.25 14V7.125h1.25q26.146.2 52.29.2 26.146 0 52.292-.2V14q-26.458.167-52.916.167T207.25 14M312.61-6.584q-.617.098-.715-.52-.048-.308.17-.532 1.191-1.265 2.163-2.716.973-1.451 1.869-2.985.146-.277.455-.325.617-.098.715.52.039.246-.065.389-1.815 3.325-4.24 5.987-.104.143-.351.182Zm1.876 1.688q-.618.097-.716-.52-.048-.308.17-.533 1.191-1.264 2.163-2.715.973-1.452 1.869-2.986.146-.276.455-.325.617-.098.715.52.039.246-.065.39-1.815 3.324-4.24 5.986-.104.143-.351.183"/><path d="M311.25 14V7.125h2.563q-.063-3-.188-5.062t-.25-3.5q-.062-.5.094-.782.156-.28.781-.594 1.313-.75 2-1.874t2.125-3.25q.313-.375.781-.313.469.063.531.938.188 2.437.375 5.156.188 2.719.25 6.344.063 1.062.25 2 .188.937.75.937V14z"/><path d="M319 11.188V1.374h1.188q.062 2.313 1.03 3.25.97.938 1.844 1.25v5.313z"/><path d="M333 14.5q-1.312 0-2.719-.125T327.5 14h-8.25V7.125h2.188q-.063-5 1.75-8.344t4.562-5.031 5.563-1.687 5.156 1.843 3.875 5.22q1.53 3.374 1.844 8h.062V14h-4.437q-1.688.438-3.532.469t-3.28.031m.625-10.937q.75 0 .75-.813 0-.312-.219-.531T333.625 2q-.812 0-.812.75 0 .813.812.813"/><path d="M341.25 13.625V6.75h2.5q-.125-3.25-.312-7.031-.188-3.781-.375-7.594-.188-3.812-.438-7.25 0-.125-.062-.375-.063-.375-.032-.875t.594-1q.563-.437 1.438-1.219.875-.781 1.687-1.656t1.188-1.562q.5-.875 1-.657.5.22.562 1.282.313 6.625.625 13.656.313 7.03.563 13.906.125 3.375-.563 4.875t-2.187 1.906-3.813.469zM394.938 31q-3.813-.062-7.282-1.187t-6.187-3.438-4.313-5.969-1.656-8.781q0-2.625-.062-5.781-.063-3.156-.157-6.406-.093-3.25-.25-6.157-.156-2.906-.343-4.906-.188-1.437-.313-2.312t.313-1.188q.687-.437 1.656-1.281t1.844-1.844 1.25-1.812q.312-.688.78-.688.47 0 .657 1.25.313 2.25.375 5.375.063 3.125.063 6.688v7.156q0 3.594.187 6.719.188 3.437 1.313 6.25 1.125 2.812 3.093 4.906 1.97 2.094 4.531 3.469 3.25 1.687 7.313 2.187t8.625-.312 9.25-2.875q.563-.313.844-.125.281.187.031.75-2.312 5.125-7.969 7.75-5.656 2.625-13.594 2.562Zm50.954-6.41q-.613-.124-.488-.737.062-.306.344-.44 1.559-.767 2.978-1.787 1.419-1.019 2.795-2.142.233-.208.54-.146.612.124.488.737-.05.245-.198.343-2.863 2.48-6.067 4.124-.147.098-.392.048m-3.875-4.875q-.613-.124-.488-.737.062-.306.344-.44 1.559-.767 2.978-1.787 1.419-1.019 2.795-2.142.233-.208.54-.146.612.125.488.737-.05.245-.198.343-2.863 2.48-6.067 4.124-.147.098-.392.048m1.937 2.438q-.612-.125-.488-.737.062-.306.345-.44 1.559-.768 2.977-1.787 1.419-1.02 2.795-2.143.234-.208.54-.145.612.124.488.737-.05.244-.197.342-2.863 2.48-6.067 4.125-.148.098-.393.048M514.5 35.688q-.625 0-.625-.626 0-.312.25-.5 1.375-1.062 2.563-2.343 1.187-1.282 2.312-2.657.188-.25.5-.25.625 0 .625.625 0 .25-.125.375-2.312 3-5.125 5.25-.125.126-.375.126"/><path d="M490.563 35.625q-.813 0-2.407-.125t-3.406-.594-3.469-1.437q-1.656-.97-2.719-2.563t-1.062-4.094q0-4.5 2.438-7.593 2.437-3.094 5.75-4.47 2.187-.874 3.593-.468t3.156 2.156q1.25 1.25 2.532 2.375 1.28 1.125 2.656 1.969 1.375.844 2.937 1.156 1.563.313 3.313-.125l1.437 4.25q-2.437-1.625-5.03-4.281-2.595-2.656-4.657-5.344-.437-.562-.562-1.094-.125-.53.437-.906.938-.625 2.094-1.531t1.781-2.969q.188-.625.844-.687t1.156.5q1.625 1.75 3.25 3.812 1.625 2.063 3.188 3.906 1.562 1.844 3.156 3.094T514.188 22q3.437.312 7.593.312t9.844-.437q.688-.063.906.437.22.5-.343.938-1.375 1-2.22 1.75-.843.75-2.093 1.687-.875.625-1.563 1.094t-1.687.469-2.938.031-4.468.063q-2.532.03-5.438.062-2.906.031-5.844.031h-5.625q-3.625 0-6.687-.5t-5.125-1.875-2.688-3.937q-.062-.5-.687-.344t-.563.719q.438 2.562 2.032 4.03 1.593 1.47 3.906 2.095 2.312.625 4.875.812 3 .188 6.375.188t6.375-.063 4.969-.156 2.218-.094q.813 0 .72.438-.095.437-.595.625-2 .687-5.562 1.968-3.563 1.282-8.438 2.282t-10.875 1Z"/><path d="M503.063 21v-9.062q1 1.187 2.093 1.718 1.094.531 2.281.72-1.5-1.313-2.843-2.75-1.344-1.438-2.156-2.438-.438-.563-.5-.875-.063-.313.5-.688.937-.625 2.28-2.062 1.344-1.438 2.157-3.063.125-.312.594-.375.469-.062.844.375 4.062 4.75 9.312 7.5t10.813 3.781 10.5.781q.5-.062.687.407t-.187.844q-1.188 1.124-2.25 2.124T535.313 20q-.438.625-1.47.719-1.03.094-1.843.094-1.188 0-3.281.03-2.094.032-4.782.032-3.25.063-7 .094t-7.343.031z"/><path d="M514.5 13.625q-.062-5.937-.437-13.156t-.875-14.281q0-.125-.063-.375-.062-.375-.031-.875t.594-1q.562-.438 1.437-1.22.875-.78 1.688-1.655T518-20.5q.5-.875 1-.656t.563 1.281q.25 5.875.53 11.875.282 6 .563 11.531.282 5.531.407 10.094zM591.938 31q-3.813-.062-7.282-1.187t-6.187-3.438-4.313-5.969-1.656-8.781q0-2.625-.062-5.781-.063-3.156-.157-6.406-.093-3.25-.25-6.157-.156-2.906-.343-4.906-.188-1.437-.313-2.312t.313-1.188q.687-.437 1.656-1.281t1.844-1.844 1.25-1.812q.312-.688.78-.688.47 0 .657 1.25.313 2.25.375 5.375.063 3.125.063 6.688v7.156q0 3.594.187 6.719.188 3.437 1.313 6.25 1.125 2.812 3.093 4.906 1.97 2.094 4.532 3.469 3.25 1.687 7.312 2.187t8.625-.312 9.25-2.875q.563-.313.844-.125.281.187.031.75-2.312 5.125-7.969 7.75-5.656 2.625-13.594 2.562Z"/></svg>