<svg xmlns="http://www.w3.org/2000/svg" width="239" height="77" preserveAspectRatio="xMinYMin slice" viewBox="-4 -25 239 77"><path d="M-4 52v-77h239v77Z"/><path fill="#e22e00" d="M21.688 42.125q-1.5 0-2.657-1.156-1.156-1.156-1.156-2.656 0-1.563 1.156-2.688 1.157-1.125 2.657-1.125 1.562 0 2.687 1.125t1.125 2.688q0 1.5-1.125 2.656t-2.687 1.156m0-8.375q-1.5 0-2.657-1.156-1.156-1.156-1.156-2.656 0-1.563 1.156-2.688 1.157-1.125 2.657-1.125 1.562 0 2.687 1.125t1.125 2.688q0 1.5-1.125 2.656t-2.687 1.156"/><path fill="#d3d3d3" d="M13.813 48.438q-2.626.374-5.782.374t-5.937-.53q-2.781-.532-4.406-1.657-.625-.437-.438-1 .188-.562 1-.562t2-1.313 1.938-2.562q.312-.5.687-.782.375-.28 1-.093 2.125.75 4.281.937t4.594 0q0-.25.031-.437.031-.188.031-.438.063-2.875 0-5.75-.062-2.875-.687-4.187-6.812 0-9.969-2.25T-1 21.5q0-4 1.563-7.031T4.5 9.719 9.313 8q1.25 0 2.374.906 1.126.907 2.282 2.282t2.594 2.75q.625.625 1.25.593.625-.03 1.437-.218.188-.063.25-.063-.125 2.625-.781 4.781t-2.094 2.531-3.219.22-3.469-.72-2.875-1.375q-.312-.25-.562.032-.25.28.187.78 1.188 1.188 3.844 1.97 2.656.78 5.719.78 1.063 0 1.313.47.25.468.25.968-.125 1.813-.063 3.563l.125 3.5q.063.812.094 1.625T18 35q.125 2.312.313 4.281.187 1.969.187 3.406 0 2.813-1.406 4.125-1.406 1.313-3.281 1.625Z"/><path fill="#e22e00" d="M66.688 38.125q-1.5 0-2.657-1.156-1.156-1.156-1.156-2.656 0-1.563 1.156-2.688t2.656-1.125q1.563 0 2.688 1.125t1.125 2.688q0 1.5-1.125 2.656t-2.687 1.156m0-8.375q-1.5 0-2.657-1.156-1.156-1.156-1.156-2.656 0-1.563 1.156-2.688t2.656-1.125q1.563 0 2.688 1.125t1.125 2.688q0 1.5-1.125 2.656t-2.687 1.156"/><path fill="#d3d3d3" d="M60.125 49.063q-1.562.624-3.781.874T51.75 50t-4.531-.781-3.594-1.594q-.562-.375-.656-.875t.594-.75q1.125-.5 2.406-1.844t2.594-3.281q.187-.312.437-.25.25.063.438.188 1.437.812 3.28 1.218 1.845.407 4.907.22.313-4.626.219-8.376t-.469-6.5q-.5-3.812-1.781-5.656t-3.656-2.688-6.063-1.593q-.812-.188-.844-.72-.03-.53.72-.718 2.187-.625 4.187-2.437 2-1.813 2.437-4.25.125-.5.313-.532.187-.03.687.094h.125q4.813 1.063 7 4.844t2.625 9.031q.25 2.938.281 6.219t-.062 6.187-.219 4.907q0 .437-.031.812t-.031.688q0 1.312-.282 2.875-.28 1.562-.906 2.843-.625 1.282-1.75 1.782"/><path fill="#e22e00" d="M103.688 43.125q-1.5 0-2.657-1.156-1.156-1.156-1.156-2.656 0-1.563 1.156-2.688t2.656-1.125q1.563 0 2.688 1.125t1.125 2.688q0 1.5-1.125 2.656t-2.687 1.156m0-8.375q-1.5 0-2.657-1.156-1.156-1.156-1.156-2.656 0-1.563 1.156-2.688t2.656-1.125q1.563 0 2.688 1.125t1.125 2.688q0 1.5-1.125 2.656t-2.687 1.156"/><path fill="#d3d3d3" d="M97.938 42.188q-2.126 1.25-4.844 1.656-2.72.406-5.594-.063T82 42q-.625-.312-.469-.844.156-.531.781-.969 1.375-.875 2.438-2.187 1.062-1.313 2.187-2.688.25-.312.656-.28.407.03.782.155h.062q1.25.438 2.688.594 1.437.156 3-.094-.25-4.687-.532-10.312-.28-5.625-.625-11.469-.343-5.844-.687-11.312-.344-5.47-.656-9.97t-.563-7.437q0-.125-.062-.437-.125-.375-.125-.813t.687-.812q.563-.313 1.313-1.188t1.406-1.906 1.031-1.719q.5-.875 1.031-.656.532.219.594 1.281.313 4.563.625 10.25.313 5.688.594 11.625t.531 11.47q.25 5.53.375 9.843.063 3.125.313 7.719.25 4.593.25 9.53 0 1.126-.47 1.75-.468.626-1.218 1.063Z"/><path fill="#e22e00" d="M147.688 38.125q-1.5 0-2.657-1.156-1.156-1.156-1.156-2.656 0-1.563 1.156-2.688t2.656-1.125q1.563 0 2.688 1.125t1.125 2.688q0 1.5-1.125 2.656t-2.687 1.156"/><path fill="#d3d3d3" d="M139.813 48.438q-2.625.374-5.782.374t-5.937-.53-4.406-1.657q-.625-.437-.438-1 .188-.562 1-.562t2-1.313 1.938-2.562q.312-.5.687-.782.375-.28 1-.093 2.125.75 4.281.937t4.594 0q0-.25.031-.437.031-.188.031-.438.063-2.875 0-5.75-.062-2.875-.687-4.187-6.812 0-9.969-2.25T125 21.5q0-4 1.563-7.031t3.937-4.75T135.313 8q1.25 0 2.375.906 1.125.907 2.28 2.282 1.157 1.375 2.595 2.75.625.625 1.25.593.625-.03 1.437-.218.188-.063.25-.063-.125 2.625-.781 4.781t-2.094 2.531-3.219.22-3.469-.72-2.875-1.375q-.312-.25-.562.032-.25.28.187.78 1.188 1.188 3.844 1.97 2.656.78 5.719.78 1.063 0 1.313.47.25.468.25.968-.125 1.813-.063 3.563l.125 3.5q.063.812.094 1.625T144 35q.125 2.312.313 4.281.187 1.969.187 3.406 0 2.813-1.406 4.125-1.406 1.313-3.281 1.625Z"/><path fill="#e22e00" d="M192.688 34.125q-1.5 0-2.657-1.156-1.156-1.156-1.156-2.656 0-1.563 1.156-2.688t2.656-1.125q1.563 0 2.688 1.125t1.125 2.688q0 1.5-1.125 2.656t-2.687 1.156"/><path fill="#d3d3d3" d="M186.125 49.063q-1.562.624-3.781.874T177.75 50t-4.531-.781-3.594-1.594q-.562-.375-.656-.875t.594-.75q1.125-.5 2.406-1.844t2.594-3.281q.187-.312.437-.25.25.063.438.188 1.437.812 3.28 1.218 1.845.407 4.907.22.313-4.626.219-8.376t-.469-6.5q-.5-3.812-1.781-5.656t-3.656-2.688-6.063-1.593q-.812-.188-.844-.72-.03-.53.72-.718 2.187-.625 4.187-2.437 2-1.813 2.437-4.25.125-.5.313-.532.187-.03.687.094h.125q4.813 1.063 7 4.844t2.625 9.031q.25 2.938.281 6.219t-.062 6.187-.219 4.907q0 .437-.031.812t-.031.688q0 1.312-.282 2.875-.28 1.562-.906 2.843-.625 1.282-1.75 1.782"/><path fill="#e22e00" d="M229.688 39.125q-1.5 0-2.657-1.156-1.156-1.156-1.156-2.656 0-1.563 1.156-2.688t2.656-1.125q1.563 0 2.688 1.125t1.125 2.688q0 1.5-1.125 2.656t-2.687 1.156"/><path fill="#d3d3d3" d="M223.938 42.188q-2.125 1.25-4.844 1.656t-5.594-.063T208 42q-.625-.312-.469-.844.156-.531.781-.969 1.375-.875 2.438-2.187 1.062-1.313 2.187-2.688.25-.312.657-.28.406.03.78.155h.063q1.25.438 2.688.594 1.437.156 3-.094-.25-4.687-.531-10.312t-.625-11.469-.688-11.312-.656-9.97-.563-7.437q0-.125-.062-.437-.125-.375-.125-.813t.687-.812q.563-.313 1.313-1.188t1.406-1.906 1.031-1.719q.5-.875 1.031-.656.532.219.594 1.281.313 4.563.625 10.25.313 5.688.594 11.625t.531 11.47q.25 5.53.375 9.843.063 3.125.313 7.719.25 4.593.25 9.53 0 1.126-.47 1.75-.468.626-1.218 1.063Z"/></svg>