<svg xmlns="http://www.w3.org/2000/svg" width="241" height="72" preserveAspectRatio="xMinYMin slice" viewBox="-12 -19 241 72"><path d="M-12 53v-72h241v72Z"/><path fill="#e22e00" d="M-6.312-1.875q-1.5 0-2.657-1.156-1.156-1.156-1.156-2.656 0-1.563 1.156-2.688T-6.313-9.5q1.563 0 2.688 1.125T-2.5-5.687q0 1.5-1.125 2.656t-2.687 1.156"/><path fill="#d3d3d3" d="M1 35.813Q-.812 35.5-.969 34.687q-.156-.812.469-1.75t1.125-1.5q.25-.25.312-.375 3.125-4 5.594-7.312t4.282-6.375q-2.626-3.562-5.094-7.5-2.47-3.937-4.656-7.906Q-1.126-2-2.812-5.562q-.25-.5-.25-.97 0-.468.562-.905 1.188-.938 2.25-2.032 1.063-1.093 1.813-3.03.25-.563.625-.595.374-.03.624.657Q5.75-5.875 8.689-.562 11.625 4.75 14.5 9q1.063-3.562 1.406-7.719.344-4.156.094-9.53-.062-.813.031-1.345.094-.53.469-.78 1.313-.876 2.469-2.313t1.469-2.625q.312-1.25.843-1.125.532.125.594 1.312.25 7.563-.687 15.156T18.25 14.188q3.375 4.437 6.531 7.718 3.157 3.282 5.97 5.72 2.5 2.187 2.093 3.874-.406 1.688-2.594 2.625-2.562 1.125-5.875 1.719-3.312.594-6.812.75t-6.75.062T5 36.313t-4-.5m15.25-8.5q.75 0 .75-.813 0-.312-.219-.531t-.531-.219q-.812 0-.812.75 0 .813.812.813"/><path fill="#e22e00" d="M57.688-.875q-1.5 0-2.657-1.156-1.156-1.156-1.156-2.656 0-1.563 1.156-2.688Q56.188-8.5 57.688-8.5q1.562 0 2.687 1.125T61.5-4.687q0 1.5-1.125 2.656T57.688-.875"/><path fill="#d3d3d3" d="M67.938 49.188q-2.126 1.25-4.844 1.656-2.72.406-5.594-.063T52 49q-.625-.312-.469-.844.156-.531.781-.969 1.375-.875 2.438-2.187 1.062-1.313 2.187-2.688.25-.312.656-.28.407.03.782.155h.062q1.25.438 2.688.594 1.437.156 3-.094-.25-4.687-.532-10.312-.28-5.625-.625-11.469-.343-5.844-.687-11.312-.344-5.47-.656-9.97t-.563-7.437q0-.125-.062-.437-.125-.375-.125-.813t.687-.812q.563-.313 1.313-1.188t1.406-1.906 1.031-1.719q.5-.875 1.031-.656.532.219.594 1.281.313 4.563.625 10.25.313 5.688.594 11.625t.531 11.47q.25 5.53.375 9.843.063 3.125.313 7.719.25 4.593.25 9.53 0 1.126-.47 1.75-.468.626-1.218 1.063Z"/><path fill="#e22e00" d="M100.688 2.125q-1.5 0-2.657-1.156-1.156-1.156-1.156-2.656 0-1.563 1.156-2.688t2.656-1.125q1.563 0 2.688 1.125t1.125 2.688q0 1.5-1.125 2.656t-2.687 1.156"/><path fill="#d3d3d3" d="M106.563 34.875q-3.813-.062-6.688-.531T95.563 33q-.688-.437-.532-1.156t.844-.406q.313.125.438.187.125.063.375-.062 1.312-.625 2.656-1.907 1.344-1.28 2.281-2.406.313-.375.906-.531.594-.156 1.219.344.5.375 1.719.562t2.844.313q.437 0 1 .031t1.218.063q.657.03 1.438.062.781.031 1.656.063l1.844.062q.969.031 2.031.031t2.188.031q1.125.032 2.28.032h2.407q1.25 0 2.5-.032l2.563-.062 2.656-.063q1.344-.03 2.687-.093 1.344-.063 2.688-.157 1.344-.093 2.656-.156 1.375-.125 1.625-.344t.125-.593q-.063-.125-.219-.25T141 26.5q-1 .063-2 .156-1 .094-2 .157-1 .062-2 .093l-2 .063-2 .062q-1 .032-2 .032h-6.062q-1 0-2-.032l-2-.062-2-.063-2-.062-2-.063q-1-.03-2-.03-1.813-.063-3.344-.188T105.156 26t-.906-1.312q-.062-7.063-.031-13.782.031-6.718-.156-12.218-.063-2.125-.344-3.438-.281-1.312-.281-2.125t.75-1.375q1.125-.812 2.343-2.094 1.22-1.28 2.22-3.156.25-.437.468-.406t.281.531q.125 1.75.25 3.438.125 1.687.188 3.437.125 3.063.03 6.469-.093 3.406-.218 6.687t-.187 6q-.063 2.72.062 4.407.063 1.75 2.125 1.937 1 .063 2.031.125 1.032.063 2.125.125 1.094.063 2.188.094l2.219.062 2.28.063q1.157.031 2.313.031h9.407q1.187 0 2.375-.031l2.344-.063 2.312-.062 2.281-.063q1.125-.03 2.25-.03 1.125-.063 1.531.468.407.531.97 1.844.75 1.687 1.655 4.062.907 2.375.97 5.438.062 1.25-1.032 2.125t-2.219 1q-1.375.125-2.781.219-1.406.093-2.781.156l-2.75.125q-1.375.062-2.75.094-1.375.03-2.719.093t-2.719.063-2.719.031-2.718.031h-8.188q-1.375 0-2.75-.03-1.375-.032-2.75-.032t-2.781-.031-2.781-.031Z"/><path fill="#e22e00" d="M175.688-.875q-1.5 0-2.657-1.156-1.156-1.156-1.156-2.656 0-1.563 1.156-2.688t2.656-1.125q1.563 0 2.688 1.125t1.125 2.688q0 1.5-1.125 2.656t-2.687 1.156"/><path fill="#d3d3d3" d="M188.625 34.75q-1.312 0-3.094-.094t-3.562-.25-3.188-.437-2.031-.72q-.375-.312-.687-.655t.25-.532q.687-.312 1.437-1t.813-2.375q.375-6.687.593-12.53.22-5.844.188-11.626-.031-5.78-.469-12.218-.062-1.063-.031-1.72.031-.655.656-1.093 1.125-.813 2.594-1.969t2.094-3.031q.125-.438.5-.406.375.03.437.53.313 1.75.469 3.313t.281 3.313Q186-7.5 186-4.875t-.062 5.906-.157 6.563q-.093 3.28-.187 5.937-.094 2.656-.156 4.031-.063.875.062 1.094t1.063.344q1 .062 2.062.125l2.156.125q1.094.062 2.22.094l2.28.062 2.313.063q1.156.03 2.344.03h9.593q1.22 0 2.406-.03l2.375-.063 2.344-.062 2.281-.063q1.125-.031 2.25-.031 1.125-.062 1.532.469.406.531.969 1.844.75 1.687 1.656 4.062t.969 5.438q.062 1.25-1.032 2.125t-2.219 1q-1.062.062-2.156.156t-2.187.125-2.219.094q-1.125.062-2.219.093l-2.219.063-2.25.062-2.25.063q-1.125.031-2.28.031h-6.97q-1.187 0-2.375-.031t-2.406-.031-2.437-.031-2.47-.032Zm26.813-7q1.375-.125 1.625-.344t.125-.594q-.063-.125-.22-.25-.155-.125-.655-.062-1.063.062-2.188.156t-2.281.156-2.344.125-2.375.094l-2.406.063q-1.219.03-2.438.03h-2.437q-1.219 0-2.406-.03l-2.344-.063q-1.156-.031-2.25-.094-1.094-.062-2.156-.125-1.063-.062-2.094-.156t-1.938-.219-1.78-.25q-.876-.125-1.626-.25l1.313-1.875q-.063.688-.094 1.375t-.094 1.375q0 .5 1.25.688.5.062 1.125.125.625.062 1.313.125.687.062 1.468.125.781.062 1.625.125.844.062 1.781.094l1.907.062q.969.031 2 .031 1.03 0 2.125.031 1.094.032 2.219.032t2.28-.032l2.345-.062 2.375-.063q1.187-.03 2.406-.093l2.437-.125z"/></svg>