<svg xmlns="http://www.w3.org/2000/svg" width="112" height="56" preserveAspectRatio="xMinYMin slice" viewBox="-3 -5 112 56"><path d="M-3 51V-5h112v56Z"/><path fill="#e22e00" d="M8.688 15.125q-1.5 0-2.657-1.156-1.156-1.156-1.156-2.656 0-1.563 1.156-2.688Q7.188 7.5 8.688 7.5q1.562 0 2.687 1.125t1.125 2.688q0 1.5-1.125 2.656t-2.687 1.156m0-8.375q-1.5 0-2.657-1.156-1.156-1.156-1.156-2.656 0-1.563 1.156-2.688Q7.188-.875 8.688-.875q1.562 0 2.687 1.125T12.5 2.938q0 1.5-1.125 2.656T8.688 6.75"/><path fill="#d3d3d3" d="M18.438 49q-3.813-.062-7.282-1.187T4.97 44.375.656 38.406-1 29.625q0-2.625-.062-5.781-.063-3.156-.157-6.406-.093-3.25-.25-6.157-.156-2.906-.343-4.906Q-2 4.938-2.125 4.063t.313-1.188q.687-.437 1.656-1.281T1.688-.25t1.25-1.812q.312-.688.78-.688.47 0 .657 1.25.313 2.25.375 5.375.063 3.125.063 6.688v7.156q0 3.594.187 6.719.188 3.437 1.313 6.25 1.125 2.812 3.093 4.906 1.97 2.094 4.531 3.469 3.25 1.687 7.313 2.187t8.625-.312 9.25-2.875q.563-.313.844-.125.281.187.031.75-2.312 5.125-7.969 7.75Q26.375 49.063 18.437 49Z"/><path fill="#e22e00" d="M74.688 11.125q-1.5 0-2.657-1.156-1.156-1.156-1.156-2.656 0-1.563 1.156-2.688T74.687 3.5q1.563 0 2.688 1.125T78.5 7.313q0 1.5-1.125 2.656t-2.687 1.156"/><path fill="#d3d3d3" d="M84.438 49q-3.813-.062-7.282-1.187t-6.187-3.438-4.313-5.969T65 29.625q0-2.625-.062-5.781-.063-3.156-.157-6.406-.093-3.25-.25-6.157-.156-2.906-.343-4.906-.188-1.437-.313-2.312t.313-1.188q.687-.437 1.656-1.281T67.688-.25t1.25-1.812q.312-.688.78-.688.47 0 .657 1.25.313 2.25.375 5.375.063 3.125.063 6.688v7.156q0 3.594.187 6.719.188 3.437 1.313 6.25 1.124 2.812 3.093 4.906 1.97 2.094 4.531 3.469 3.25 1.687 7.313 2.187t8.625-.312 9.25-2.875q.563-.313.844-.125.281.187.031.75-2.312 5.125-7.969 7.75Q92.375 49.063 84.437 49Z"/></svg>