<?xml version='1.0' encoding='ASCII'?>
<svg xmlns="http://www.w3.org/2000/svg" width="345" height="61" preserveAspectRatio="xMinYMin slice" viewBox="-2 -13 345 61" version="1.1">
  <path d="M-2,-13 v61 h345 v-61 Z" fill="#FFFAED" transform="matrix(1,0,0,-1,0,35)"/>
  <path d="M18.0938,0 q-0.75,0 -1.3281,0.5781 q-0.5781,0.5781 -0.5781,1.3281 q0,0.7812 0.5781,1.3438 q0.5781,0.5625 1.3281,0.5625 q0.7812,0 1.3438,-0.5625 q0.5625,-0.5625 0.5625,-1.3438 q0,-0.75 -0.5625,-1.3281 q-0.5625,-0.5781 -1.3438,-0.5781 Z M18.0938,32.3125 q-0.75,0 -1.3281,0.5781 q-0.5781,0.5781 -0.5781,1.3281 q0,0.7812 0.5781,1.3438 q0.5781,0.5625 1.3281,0.5625 q0.7812,0 1.3438,-0.5625 q0.5625,-0.5625 0.5625,-1.3438 q0,-0.75 -0.5625,-1.3281 q-0.5625,-0.5781 -1.3438,-0.5781 Z M1.9062,16.1875 q-0.75,0 -1.3281,0.5781 q-0.5781,0.5781 -0.5781,1.3281 q0,0.7812 0.5781,1.3438 q0.5781,0.5625 1.3281,0.5625 q0.7812,0 1.3438,-0.5625 q0.5625,-0.5625 0.5625,-1.3438 q0,-0.75 -0.5625,-1.3281 q-0.5625,-0.5781 -1.3438,-0.5781 Z M34.2188,16.1875 q-0.75,0 -1.3281,0.5781 q-0.5781,0.5781 -0.5781,1.3281 q0,0.7812 0.5781,1.3438 q0.5781,0.5625 1.3281,0.5625 q0.7812,0 1.3438,-0.5625 q0.5625,-0.5625 0.5625,-1.3438 q0,-0.75 -0.5625,-1.3281 q-0.5625,-0.5781 -1.3438,-0.5781 Z M23.0938,0.8125 q-0.75,0 -1.3281,0.5781 q-0.5781,0.5781 -0.5781,1.3281 q0,0.7812 0.5781,1.3438 q0.5781,0.5625 1.3281,0.5625 q0.7812,0 1.3438,-0.5625 q0.5625,-0.5625 0.5625,-1.3438 q0,-0.75 -0.5625,-1.3281 q-0.5625,-0.5781 -1.3438,-0.5781 Z M13.1562,31.5 q-0.75,0 -1.3281,0.5781 q-0.5781,0.5781 -0.5781,1.3281 q0,0.7812 0.5781,1.3438 q0.5781,0.5625 1.3281,0.5625 q0.7812,0 1.3438,-0.5625 q0.5625,-0.5625 0.5625,-1.3438 q0,-0.75 -0.5625,-1.3281 q-0.5625,-0.5781 -1.3438,-0.5781 Z M2.7188,11.25 q-0.75,0 -1.3281,0.5781 q-0.5781,0.5781 -0.5781,1.3281 q0,0.7812 0.5781,1.3438 q0.5781,0.5625 1.3281,0.5625 q0.7812,0 1.3438,-0.5625 q0.5625,-0.5625 0.5625,-1.3438 q0,-0.75 -0.5625,-1.3281 q-0.5625,-0.5781 -1.3438,-0.5781 Z M33.4062,21.1875 q-0.75,0 -1.3281,0.5781 q-0.5781,0.5781 -0.5781,1.3281 q0,0.7812 0.5781,1.3438 q0.5781,0.5625 1.3281,0.5625 q0.7812,0 1.3438,-0.5625 q0.5625,-0.5625 0.5625,-1.3438 q0,-0.75 -0.5625,-1.3281 q-0.5625,-0.5781 -1.3438,-0.5781 Z M13.1562,0.8125 q-0.75,0 -1.3281,0.5781 q-0.5781,0.5781 -0.5781,1.3281 q0,0.7812 0.5781,1.3438 q0.5781,0.5625 1.3281,0.5625 q0.7812,0 1.3438,-0.5625 q0.5625,-0.5625 0.5625,-1.3438 q0,-0.75 -0.5625,-1.3281 q-0.5625,-0.5781 -1.3438,-0.5781 Z M23.0938,31.5 q-0.75,0 -1.3281,0.5781 q-0.5781,0.5781 -0.5781,1.3281 q0,0.7812 0.5781,1.3438 q0.5781,0.5625 1.3281,0.5625 q0.7812,0 1.3438,-0.5625 q0.5625,-0.5625 0.5625,-1.3438 q0,-0.75 -0.5625,-1.3281 q-0.5625,-0.5781 -1.3438,-0.5781 Z M2.7188,21.1875 q-0.75,0 -1.3281,0.5781 q-0.5781,0.5781 -0.5781,1.3281 q0,0.7812 0.5781,1.3438 q0.5781,0.5625 1.3281,0.5625 q0.7812,0 1.3438,-0.5625 q0.5625,-0.5625 0.5625,-1.3438 q0,-0.75 -0.5625,-1.3281 q-0.5625,-0.5781 -1.3438,-0.5781 Z M33.4062,11.25 q-0.75,0 -1.3281,0.5781 q-0.5781,0.5781 -0.5781,1.3281 q0,0.7812 0.5781,1.3438 q0.5781,0.5625 1.3281,0.5625 q0.7812,0 1.3438,-0.5625 q0.5625,-0.5625 0.5625,-1.3438 q0,-0.75 -0.5625,-1.3281 q-0.5625,-0.5781 -1.3438,-0.5781 Z M27.5938,3.0625 q-0.75,0 -1.3281,0.5781 q-0.5781,0.5781 -0.5781,1.3281 q0,0.7812 0.5781,1.3438 q0.5781,0.5625 1.3281,0.5625 q0.7812,0 1.3438,-0.5625 q0.5625,-0.5625 0.5625,-1.3438 q0,-0.75 -0.5625,-1.3281 q-0.5625,-0.5781 -1.3438,-0.5781 Z M8.6562,29.1875 q-0.75,0 -1.3281,0.5781 q-0.5781,0.5781 -0.5781,1.3281 q0,0.7812 0.5781,1.3438 q0.5781,0.5625 1.3281,0.5625 q0.7812,0 1.3438,-0.5625 q0.5625,-0.5625 0.5625,-1.3438 q0,-0.75 -0.5625,-1.3281 q-0.5625,-0.5781 -1.3438,-0.5781 Z M4.9688,6.75 q-0.75,0 -1.3281,0.5781 q-0.5781,0.5781 -0.5781,1.3281 q0,0.7812 0.5781,1.3438 q0.5781,0.5625 1.3281,0.5625 q0.7812,0 1.3438,-0.5625 q0.5625,-0.5625 0.5625,-1.3438 q0,-0.75 -0.5625,-1.3281 q-0.5625,-0.5781 -1.3438,-0.5781 Z M31.0938,25.6875 q-0.75,0 -1.3281,0.5781 q-0.5781,0.5781 -0.5781,1.3281 q0,0.7812 0.5781,1.3438 q0.5781,0.5625 1.3281,0.5625 q0.7812,0 1.3438,-0.5625 q0.5625,-0.5625 0.5625,-1.3438 q0,-0.75 -0.5625,-1.3281 q-0.5625,-0.5781 -1.3438,-0.5781 Z M8.6562,3.0625 q-0.75,0 -1.3281,0.5781 q-0.5781,0.5781 -0.5781,1.3281 q0,0.7812 0.5781,1.3438 q0.5781,0.5625 1.3281,0.5625 q0.7812,0 1.3438,-0.5625 q0.5625,-0.5625 0.5625,-1.3438 q0,-0.75 -0.5625,-1.3281 q-0.5625,-0.5781 -1.3438,-0.5781 Z M27.5938,29.1875 q-0.75,0 -1.3281,0.5781 q-0.5781,0.5781 -0.5781,1.3281 q0,0.7812 0.5781,1.3438 q0.5781,0.5625 1.3281,0.5625 q0.7812,0 1.3438,-0.5625 q0.5625,-0.5625 0.5625,-1.3438 q0,-0.75 -0.5625,-1.3281 q-0.5625,-0.5781 -1.3438,-0.5781 Z M4.9688,25.6875 q-0.75,0 -1.3281,0.5781 q-0.5781,0.5781 -0.5781,1.3281 q0,0.7812 0.5781,1.3438 q0.5781,0.5625 1.3281,0.5625 q0.7812,0 1.3438,-0.5625 q0.5625,-0.5625 0.5625,-1.3438 q0,-0.75 -0.5625,-1.3281 q-0.5625,-0.5781 -1.3438,-0.5781 Z M31.0938,6.75 q-0.75,0 -1.3281,0.5781 q-0.5781,0.5781 -0.5781,1.3281 q0,0.7812 0.5781,1.3438 q0.5781,0.5625 1.3281,0.5625 q0.7812,0 1.3438,-0.5625 q0.5625,-0.5625 0.5625,-1.3438 q0,-0.75 -0.5625,-1.3281 q-0.5625,-0.5781 -1.3438,-0.5781 Z" fill="#000000" transform="matrix(1,0,0,-1,-1,35)"/>
  <path d="M4.6875,0.875 q-1.5,0 -2.6562,1.1562 q-1.1562,1.1562 -1.1562,2.6562 q0,1.5625 1.1562,2.6875 q1.1562,1.125 2.6562,1.125 q1.5625,0 2.6875,-1.125 q1.125,-1.125 1.125,-2.6875 q0,-1.5 -1.125,-2.6562 q-1.125,-1.1562 -2.6875,-1.1562 Z" fill="#902900" fill-opacity="0.902" transform="matrix(1,0,0,-1,12,-3)"/>
  <path d="" fill="#000000" transform="matrix(1,0,0,-1,35,35)"/>
  <path d="M18.0938,0 q-0.75,0 -1.3281,0.5781 q-0.5781,0.5781 -0.5781,1.3281 q0,0.7812 0.5781,1.3438 q0.5781,0.5625 1.3281,0.5625 q0.7812,0 1.3438,-0.5625 q0.5625,-0.5625 0.5625,-1.3438 q0,-0.75 -0.5625,-1.3281 q-0.5625,-0.5781 -1.3438,-0.5781 Z M18.0938,32.3125 q-0.75,0 -1.3281,0.5781 q-0.5781,0.5781 -0.5781,1.3281 q0,0.7812 0.5781,1.3438 q0.5781,0.5625 1.3281,0.5625 q0.7812,0 1.3438,-0.5625 q0.5625,-0.5625 0.5625,-1.3438 q0,-0.75 -0.5625,-1.3281 q-0.5625,-0.5781 -1.3438,-0.5781 Z M1.9062,16.1875 q-0.75,0 -1.3281,0.5781 q-0.5781,0.5781 -0.5781,1.3281 q0,0.7812 0.5781,1.3438 q0.5781,0.5625 1.3281,0.5625 q0.7812,0 1.3438,-0.5625 q0.5625,-0.5625 0.5625,-1.3438 q0,-0.75 -0.5625,-1.3281 q-0.5625,-0.5781 -1.3438,-0.5781 Z M34.2188,16.1875 q-0.75,0 -1.3281,0.5781 q-0.5781,0.5781 -0.5781,1.3281 q0,0.7812 0.5781,1.3438 q0.5781,0.5625 1.3281,0.5625 q0.7812,0 1.3438,-0.5625 q0.5625,-0.5625 0.5625,-1.3438 q0,-0.75 -0.5625,-1.3281 q-0.5625,-0.5781 -1.3438,-0.5781 Z M23.0938,0.8125 q-0.75,0 -1.3281,0.5781 q-0.5781,0.5781 -0.5781,1.3281 q0,0.7812 0.5781,1.3438 q0.5781,0.5625 1.3281,0.5625 q0.7812,0 1.3438,-0.5625 q0.5625,-0.5625 0.5625,-1.3438 q0,-0.75 -0.5625,-1.3281 q-0.5625,-0.5781 -1.3438,-0.5781 Z M13.1562,31.5 q-0.75,0 -1.3281,0.5781 q-0.5781,0.5781 -0.5781,1.3281 q0,0.7812 0.5781,1.3438 q0.5781,0.5625 1.3281,0.5625 q0.7812,0 1.3438,-0.5625 q0.5625,-0.5625 0.5625,-1.3438 q0,-0.75 -0.5625,-1.3281 q-0.5625,-0.5781 -1.3438,-0.5781 Z M2.7188,11.25 q-0.75,0 -1.3281,0.5781 q-0.5781,0.5781 -0.5781,1.3281 q0,0.7812 0.5781,1.3438 q0.5781,0.5625 1.3281,0.5625 q0.7812,0 1.3438,-0.5625 q0.5625,-0.5625 0.5625,-1.3438 q0,-0.75 -0.5625,-1.3281 q-0.5625,-0.5781 -1.3438,-0.5781 Z M33.4062,21.1875 q-0.75,0 -1.3281,0.5781 q-0.5781,0.5781 -0.5781,1.3281 q0,0.7812 0.5781,1.3438 q0.5781,0.5625 1.3281,0.5625 q0.7812,0 1.3438,-0.5625 q0.5625,-0.5625 0.5625,-1.3438 q0,-0.75 -0.5625,-1.3281 q-0.5625,-0.5781 -1.3438,-0.5781 Z M13.1562,0.8125 q-0.75,0 -1.3281,0.5781 q-0.5781,0.5781 -0.5781,1.3281 q0,0.7812 0.5781,1.3438 q0.5781,0.5625 1.3281,0.5625 q0.7812,0 1.3438,-0.5625 q0.5625,-0.5625 0.5625,-1.3438 q0,-0.75 -0.5625,-1.3281 q-0.5625,-0.5781 -1.3438,-0.5781 Z M23.0938,31.5 q-0.75,0 -1.3281,0.5781 q-0.5781,0.5781 -0.5781,1.3281 q0,0.7812 0.5781,1.3438 q0.5781,0.5625 1.3281,0.5625 q0.7812,0 1.3438,-0.5625 q0.5625,-0.5625 0.5625,-1.3438 q0,-0.75 -0.5625,-1.3281 q-0.5625,-0.5781 -1.3438,-0.5781 Z M2.7188,21.1875 q-0.75,0 -1.3281,0.5781 q-0.5781,0.5781 -0.5781,1.3281 q0,0.7812 0.5781,1.3438 q0.5781,0.5625 1.3281,0.5625 q0.7812,0 1.3438,-0.5625 q0.5625,-0.5625 0.5625,-1.3438 q0,-0.75 -0.5625,-1.3281 q-0.5625,-0.5781 -1.3438,-0.5781 Z M33.4062,11.25 q-0.75,0 -1.3281,0.5781 q-0.5781,0.5781 -0.5781,1.3281 q0,0.7812 0.5781,1.3438 q0.5781,0.5625 1.3281,0.5625 q0.7812,0 1.3438,-0.5625 q0.5625,-0.5625 0.5625,-1.3438 q0,-0.75 -0.5625,-1.3281 q-0.5625,-0.5781 -1.3438,-0.5781 Z M27.5938,3.0625 q-0.75,0 -1.3281,0.5781 q-0.5781,0.5781 -0.5781,1.3281 q0,0.7812 0.5781,1.3438 q0.5781,0.5625 1.3281,0.5625 q0.7812,0 1.3438,-0.5625 q0.5625,-0.5625 0.5625,-1.3438 q0,-0.75 -0.5625,-1.3281 q-0.5625,-0.5781 -1.3438,-0.5781 Z M8.6562,29.1875 q-0.75,0 -1.3281,0.5781 q-0.5781,0.5781 -0.5781,1.3281 q0,0.7812 0.5781,1.3438 q0.5781,0.5625 1.3281,0.5625 q0.7812,0 1.3438,-0.5625 q0.5625,-0.5625 0.5625,-1.3438 q0,-0.75 -0.5625,-1.3281 q-0.5625,-0.5781 -1.3438,-0.5781 Z M4.9688,6.75 q-0.75,0 -1.3281,0.5781 q-0.5781,0.5781 -0.5781,1.3281 q0,0.7812 0.5781,1.3438 q0.5781,0.5625 1.3281,0.5625 q0.7812,0 1.3438,-0.5625 q0.5625,-0.5625 0.5625,-1.3438 q0,-0.75 -0.5625,-1.3281 q-0.5625,-0.5781 -1.3438,-0.5781 Z M31.0938,25.6875 q-0.75,0 -1.3281,0.5781 q-0.5781,0.5781 -0.5781,1.3281 q0,0.7812 0.5781,1.3438 q0.5781,0.5625 1.3281,0.5625 q0.7812,0 1.3438,-0.5625 q0.5625,-0.5625 0.5625,-1.3438 q0,-0.75 -0.5625,-1.3281 q-0.5625,-0.5781 -1.3438,-0.5781 Z M8.6562,3.0625 q-0.75,0 -1.3281,0.5781 q-0.5781,0.5781 -0.5781,1.3281 q0,0.7812 0.5781,1.3438 q0.5781,0.5625 1.3281,0.5625 q0.7812,0 1.3438,-0.5625 q0.5625,-0.5625 0.5625,-1.3438 q0,-0.75 -0.5625,-1.3281 q-0.5625,-0.5781 -1.3438,-0.5781 Z M27.5938,29.1875 q-0.75,0 -1.3281,0.5781 q-0.5781,0.5781 -0.5781,1.3281 q0,0.7812 0.5781,1.3438 q0.5781,0.5625 1.3281,0.5625 q0.7812,0 1.3438,-0.5625 q0.5625,-0.5625 0.5625,-1.3438 q0,-0.75 -0.5625,-1.3281 q-0.5625,-0.5781 -1.3438,-0.5781 Z M4.9688,25.6875 q-0.75,0 -1.3281,0.5781 q-0.5781,0.5781 -0.5781,1.3281 q0,0.7812 0.5781,1.3438 q0.5781,0.5625 1.3281,0.5625 q0.7812,0 1.3438,-0.5625 q0.5625,-0.5625 0.5625,-1.3438 q0,-0.75 -0.5625,-1.3281 q-0.5625,-0.5781 -1.3438,-0.5781 Z M31.0938,6.75 q-0.75,0 -1.3281,0.5781 q-0.5781,0.5781 -0.5781,1.3281 q0,0.7812 0.5781,1.3438 q0.5781,0.5625 1.3281,0.5625 q0.7812,0 1.3438,-0.5625 q0.5625,-0.5625 0.5625,-1.3438 q0,-0.75 -0.5625,-1.3281 q-0.5625,-0.5781 -1.3438,-0.5781 Z" fill="#000000" transform="matrix(1,0,0,-1,60,35)"/>
  <path d="M4.6875,0.875 q-1.5,0 -2.6562,1.1562 q-1.1562,1.1562 -1.1562,2.6562 q0,1.5625 1.1562,2.6875 q1.1562,1.125 2.6562,1.125 q1.5625,0 2.6875,-1.125 q1.125,-1.125 1.125,-2.6875 q0,-1.5 -1.125,-2.6562 q-1.125,-1.1562 -2.6875,-1.1562 Z M13.0625,0.875 q-1.5,0 -2.6562,1.1562 q-1.1562,1.1562 -1.1562,2.6562 q0,1.5625 1.1562,2.6875 q1.1562,1.125 2.6562,1.125 q1.5625,0 2.6875,-1.125 q1.125,-1.125 1.125,-2.6875 q0,-1.5 -1.125,-2.6562 q-1.125,-1.1562 -2.6875,-1.1562 Z" fill="#902900" fill-opacity="0.902" transform="matrix(1,0,0,-1,69,-3)"/>
  <path d="" fill="#000000" transform="matrix(1,0,0,-1,96,35)"/>
  <path d="M18.0938,0 q-0.75,0 -1.3281,0.5781 q-0.5781,0.5781 -0.5781,1.3281 q0,0.7812 0.5781,1.3438 q0.5781,0.5625 1.3281,0.5625 q0.7812,0 1.3438,-0.5625 q0.5625,-0.5625 0.5625,-1.3438 q0,-0.75 -0.5625,-1.3281 q-0.5625,-0.5781 -1.3438,-0.5781 Z M18.0938,32.3125 q-0.75,0 -1.3281,0.5781 q-0.5781,0.5781 -0.5781,1.3281 q0,0.7812 0.5781,1.3438 q0.5781,0.5625 1.3281,0.5625 q0.7812,0 1.3438,-0.5625 q0.5625,-0.5625 0.5625,-1.3438 q0,-0.75 -0.5625,-1.3281 q-0.5625,-0.5781 -1.3438,-0.5781 Z M1.9062,16.1875 q-0.75,0 -1.3281,0.5781 q-0.5781,0.5781 -0.5781,1.3281 q0,0.7812 0.5781,1.3438 q0.5781,0.5625 1.3281,0.5625 q0.7812,0 1.3438,-0.5625 q0.5625,-0.5625 0.5625,-1.3438 q0,-0.75 -0.5625,-1.3281 q-0.5625,-0.5781 -1.3438,-0.5781 Z M34.2188,16.1875 q-0.75,0 -1.3281,0.5781 q-0.5781,0.5781 -0.5781,1.3281 q0,0.7812 0.5781,1.3438 q0.5781,0.5625 1.3281,0.5625 q0.7812,0 1.3438,-0.5625 q0.5625,-0.5625 0.5625,-1.3438 q0,-0.75 -0.5625,-1.3281 q-0.5625,-0.5781 -1.3438,-0.5781 Z M23.0938,0.8125 q-0.75,0 -1.3281,0.5781 q-0.5781,0.5781 -0.5781,1.3281 q0,0.7812 0.5781,1.3438 q0.5781,0.5625 1.3281,0.5625 q0.7812,0 1.3438,-0.5625 q0.5625,-0.5625 0.5625,-1.3438 q0,-0.75 -0.5625,-1.3281 q-0.5625,-0.5781 -1.3438,-0.5781 Z M13.1562,31.5 q-0.75,0 -1.3281,0.5781 q-0.5781,0.5781 -0.5781,1.3281 q0,0.7812 0.5781,1.3438 q0.5781,0.5625 1.3281,0.5625 q0.7812,0 1.3438,-0.5625 q0.5625,-0.5625 0.5625,-1.3438 q0,-0.75 -0.5625,-1.3281 q-0.5625,-0.5781 -1.3438,-0.5781 Z M2.7188,11.25 q-0.75,0 -1.3281,0.5781 q-0.5781,0.5781 -0.5781,1.3281 q0,0.7812 0.5781,1.3438 q0.5781,0.5625 1.3281,0.5625 q0.7812,0 1.3438,-0.5625 q0.5625,-0.5625 0.5625,-1.3438 q0,-0.75 -0.5625,-1.3281 q-0.5625,-0.5781 -1.3438,-0.5781 Z M33.4062,21.1875 q-0.75,0 -1.3281,0.5781 q-0.5781,0.5781 -0.5781,1.3281 q0,0.7812 0.5781,1.3438 q0.5781,0.5625 1.3281,0.5625 q0.7812,0 1.3438,-0.5625 q0.5625,-0.5625 0.5625,-1.3438 q0,-0.75 -0.5625,-1.3281 q-0.5625,-0.5781 -1.3438,-0.5781 Z M13.1562,0.8125 q-0.75,0 -1.3281,0.5781 q-0.5781,0.5781 -0.5781,1.3281 q0,0.7812 0.5781,1.3438 q0.5781,0.5625 1.3281,0.5625 q0.7812,0 1.3438,-0.5625 q0.5625,-0.5625 0.5625,-1.3438 q0,-0.75 -0.5625,-1.3281 q-0.5625,-0.5781 -1.3438,-0.5781 Z M23.0938,31.5 q-0.75,0 -1.3281,0.5781 q-0.5781,0.5781 -0.5781,1.3281 q0,0.7812 0.5781,1.3438 q0.5781,0.5625 1.3281,0.5625 q0.7812,0 1.3438,-0.5625 q0.5625,-0.5625 0.5625,-1.3438 q0,-0.75 -0.5625,-1.3281 q-0.5625,-0.5781 -1.3438,-0.5781 Z M2.7188,21.1875 q-0.75,0 -1.3281,0.5781 q-0.5781,0.5781 -0.5781,1.3281 q0,0.7812 0.5781,1.3438 q0.5781,0.5625 1.3281,0.5625 q0.7812,0 1.3438,-0.5625 q0.5625,-0.5625 0.5625,-1.3438 q0,-0.75 -0.5625,-1.3281 q-0.5625,-0.5781 -1.3438,-0.5781 Z M33.4062,11.25 q-0.75,0 -1.3281,0.5781 q-0.5781,0.5781 -0.5781,1.3281 q0,0.7812 0.5781,1.3438 q0.5781,0.5625 1.3281,0.5625 q0.7812,0 1.3438,-0.5625 q0.5625,-0.5625 0.5625,-1.3438 q0,-0.75 -0.5625,-1.3281 q-0.5625,-0.5781 -1.3438,-0.5781 Z M27.5938,3.0625 q-0.75,0 -1.3281,0.5781 q-0.5781,0.5781 -0.5781,1.3281 q0,0.7812 0.5781,1.3438 q0.5781,0.5625 1.3281,0.5625 q0.7812,0 1.3438,-0.5625 q0.5625,-0.5625 0.5625,-1.3438 q0,-0.75 -0.5625,-1.3281 q-0.5625,-0.5781 -1.3438,-0.5781 Z M8.6562,29.1875 q-0.75,0 -1.3281,0.5781 q-0.5781,0.5781 -0.5781,1.3281 q0,0.7812 0.5781,1.3438 q0.5781,0.5625 1.3281,0.5625 q0.7812,0 1.3438,-0.5625 q0.5625,-0.5625 0.5625,-1.3438 q0,-0.75 -0.5625,-1.3281 q-0.5625,-0.5781 -1.3438,-0.5781 Z M4.9688,6.75 q-0.75,0 -1.3281,0.5781 q-0.5781,0.5781 -0.5781,1.3281 q0,0.7812 0.5781,1.3438 q0.5781,0.5625 1.3281,0.5625 q0.7812,0 1.3438,-0.5625 q0.5625,-0.5625 0.5625,-1.3438 q0,-0.75 -0.5625,-1.3281 q-0.5625,-0.5781 -1.3438,-0.5781 Z M31.0938,25.6875 q-0.75,0 -1.3281,0.5781 q-0.5781,0.5781 -0.5781,1.3281 q0,0.7812 0.5781,1.3438 q0.5781,0.5625 1.3281,0.5625 q0.7812,0 1.3438,-0.5625 q0.5625,-0.5625 0.5625,-1.3438 q0,-0.75 -0.5625,-1.3281 q-0.5625,-0.5781 -1.3438,-0.5781 Z M8.6562,3.0625 q-0.75,0 -1.3281,0.5781 q-0.5781,0.5781 -0.5781,1.3281 q0,0.7812 0.5781,1.3438 q0.5781,0.5625 1.3281,0.5625 q0.7812,0 1.3438,-0.5625 q0.5625,-0.5625 0.5625,-1.3438 q0,-0.75 -0.5625,-1.3281 q-0.5625,-0.5781 -1.3438,-0.5781 Z M27.5938,29.1875 q-0.75,0 -1.3281,0.5781 q-0.5781,0.5781 -0.5781,1.3281 q0,0.7812 0.5781,1.3438 q0.5781,0.5625 1.3281,0.5625 q0.7812,0 1.3438,-0.5625 q0.5625,-0.5625 0.5625,-1.3438 q0,-0.75 -0.5625,-1.3281 q-0.5625,-0.5781 -1.3438,-0.5781 Z M4.9688,25.6875 q-0.75,0 -1.3281,0.5781 q-0.5781,0.5781 -0.5781,1.3281 q0,0.7812 0.5781,1.3438 q0.5781,0.5625 1.3281,0.5625 q0.7812,0 1.3438,-0.5625 q0.5625,-0.5625 0.5625,-1.3438 q0,-0.75 -0.5625,-1.3281 q-0.5625,-0.5781 -1.3438,-0.5781 Z M31.0938,6.75 q-0.75,0 -1.3281,0.5781 q-0.5781,0.5781 -0.5781,1.3281 q0,0.7812 0.5781,1.3438 q0.5781,0.5625 1.3281,0.5625 q0.7812,0 1.3438,-0.5625 q0.5625,-0.5625 0.5625,-1.3438 q0,-0.75 -0.5625,-1.3281 q-0.5625,-0.5781 -1.3438,-0.5781 Z" fill="#000000" transform="matrix(1,0,0,-1,121,35)"/>
  <path d="M4.6875,0.875 q-1.5,0 -2.6562,1.1562 q-1.1562,1.1562 -1.1562,2.6562 q0,1.5625 1.1562,2.6875 q1.1562,1.125 2.6562,1.125 q1.5625,0 2.6875,-1.125 q1.125,-1.125 1.125,-2.6875 q0,-1.5 -1.125,-2.6562 q-1.125,-1.1562 -2.6875,-1.1562 Z" fill="#902900" fill-opacity="0.902" transform="matrix(1,0,0,-1,134,47)"/>
  <path d="" fill="#000000" transform="matrix(1,0,0,-1,157,35)"/>
  <path d="M18.0938,0 q-0.75,0 -1.3281,0.5781 q-0.5781,0.5781 -0.5781,1.3281 q0,0.7812 0.5781,1.3438 q0.5781,0.5625 1.3281,0.5625 q0.7812,0 1.3438,-0.5625 q0.5625,-0.5625 0.5625,-1.3438 q0,-0.75 -0.5625,-1.3281 q-0.5625,-0.5781 -1.3438,-0.5781 Z M18.0938,32.3125 q-0.75,0 -1.3281,0.5781 q-0.5781,0.5781 -0.5781,1.3281 q0,0.7812 0.5781,1.3438 q0.5781,0.5625 1.3281,0.5625 q0.7812,0 1.3438,-0.5625 q0.5625,-0.5625 0.5625,-1.3438 q0,-0.75 -0.5625,-1.3281 q-0.5625,-0.5781 -1.3438,-0.5781 Z M1.9062,16.1875 q-0.75,0 -1.3281,0.5781 q-0.5781,0.5781 -0.5781,1.3281 q0,0.7812 0.5781,1.3438 q0.5781,0.5625 1.3281,0.5625 q0.7812,0 1.3438,-0.5625 q0.5625,-0.5625 0.5625,-1.3438 q0,-0.75 -0.5625,-1.3281 q-0.5625,-0.5781 -1.3438,-0.5781 Z M34.2188,16.1875 q-0.75,0 -1.3281,0.5781 q-0.5781,0.5781 -0.5781,1.3281 q0,0.7812 0.5781,1.3438 q0.5781,0.5625 1.3281,0.5625 q0.7812,0 1.3438,-0.5625 q0.5625,-0.5625 0.5625,-1.3438 q0,-0.75 -0.5625,-1.3281 q-0.5625,-0.5781 -1.3438,-0.5781 Z M23.0938,0.8125 q-0.75,0 -1.3281,0.5781 q-0.5781,0.5781 -0.5781,1.3281 q0,0.7812 0.5781,1.3438 q0.5781,0.5625 1.3281,0.5625 q0.7812,0 1.3438,-0.5625 q0.5625,-0.5625 0.5625,-1.3438 q0,-0.75 -0.5625,-1.3281 q-0.5625,-0.5781 -1.3438,-0.5781 Z M13.1562,31.5 q-0.75,0 -1.3281,0.5781 q-0.5781,0.5781 -0.5781,1.3281 q0,0.7812 0.5781,1.3438 q0.5781,0.5625 1.3281,0.5625 q0.7812,0 1.3438,-0.5625 q0.5625,-0.5625 0.5625,-1.3438 q0,-0.75 -0.5625,-1.3281 q-0.5625,-0.5781 -1.3438,-0.5781 Z M2.7188,11.25 q-0.75,0 -1.3281,0.5781 q-0.5781,0.5781 -0.5781,1.3281 q0,0.7812 0.5781,1.3438 q0.5781,0.5625 1.3281,0.5625 q0.7812,0 1.3438,-0.5625 q0.5625,-0.5625 0.5625,-1.3438 q0,-0.75 -0.5625,-1.3281 q-0.5625,-0.5781 -1.3438,-0.5781 Z M33.4062,21.1875 q-0.75,0 -1.3281,0.5781 q-0.5781,0.5781 -0.5781,1.3281 q0,0.7812 0.5781,1.3438 q0.5781,0.5625 1.3281,0.5625 q0.7812,0 1.3438,-0.5625 q0.5625,-0.5625 0.5625,-1.3438 q0,-0.75 -0.5625,-1.3281 q-0.5625,-0.5781 -1.3438,-0.5781 Z M13.1562,0.8125 q-0.75,0 -1.3281,0.5781 q-0.5781,0.5781 -0.5781,1.3281 q0,0.7812 0.5781,1.3438 q0.5781,0.5625 1.3281,0.5625 q0.7812,0 1.3438,-0.5625 q0.5625,-0.5625 0.5625,-1.3438 q0,-0.75 -0.5625,-1.3281 q-0.5625,-0.5781 -1.3438,-0.5781 Z M23.0938,31.5 q-0.75,0 -1.3281,0.5781 q-0.5781,0.5781 -0.5781,1.3281 q0,0.7812 0.5781,1.3438 q0.5781,0.5625 1.3281,0.5625 q0.7812,0 1.3438,-0.5625 q0.5625,-0.5625 0.5625,-1.3438 q0,-0.75 -0.5625,-1.3281 q-0.5625,-0.5781 -1.3438,-0.5781 Z M2.7188,21.1875 q-0.75,0 -1.3281,0.5781 q-0.5781,0.5781 -0.5781,1.3281 q0,0.7812 0.5781,1.3438 q0.5781,0.5625 1.3281,0.5625 q0.7812,0 1.3438,-0.5625 q0.5625,-0.5625 0.5625,-1.3438 q0,-0.75 -0.5625,-1.3281 q-0.5625,-0.5781 -1.3438,-0.5781 Z M33.4062,11.25 q-0.75,0 -1.3281,0.5781 q-0.5781,0.5781 -0.5781,1.3281 q0,0.7812 0.5781,1.3438 q0.5781,0.5625 1.3281,0.5625 q0.7812,0 1.3438,-0.5625 q0.5625,-0.5625 0.5625,-1.3438 q0,-0.75 -0.5625,-1.3281 q-0.5625,-0.5781 -1.3438,-0.5781 Z M27.5938,3.0625 q-0.75,0 -1.3281,0.5781 q-0.5781,0.5781 -0.5781,1.3281 q0,0.7812 0.5781,1.3438 q0.5781,0.5625 1.3281,0.5625 q0.7812,0 1.3438,-0.5625 q0.5625,-0.5625 0.5625,-1.3438 q0,-0.75 -0.5625,-1.3281 q-0.5625,-0.5781 -1.3438,-0.5781 Z M8.6562,29.1875 q-0.75,0 -1.3281,0.5781 q-0.5781,0.5781 -0.5781,1.3281 q0,0.7812 0.5781,1.3438 q0.5781,0.5625 1.3281,0.5625 q0.7812,0 1.3438,-0.5625 q0.5625,-0.5625 0.5625,-1.3438 q0,-0.75 -0.5625,-1.3281 q-0.5625,-0.5781 -1.3438,-0.5781 Z M4.9688,6.75 q-0.75,0 -1.3281,0.5781 q-0.5781,0.5781 -0.5781,1.3281 q0,0.7812 0.5781,1.3438 q0.5781,0.5625 1.3281,0.5625 q0.7812,0 1.3438,-0.5625 q0.5625,-0.5625 0.5625,-1.3438 q0,-0.75 -0.5625,-1.3281 q-0.5625,-0.5781 -1.3438,-0.5781 Z M31.0938,25.6875 q-0.75,0 -1.3281,0.5781 q-0.5781,0.5781 -0.5781,1.3281 q0,0.7812 0.5781,1.3438 q0.5781,0.5625 1.3281,0.5625 q0.7812,0 1.3438,-0.5625 q0.5625,-0.5625 0.5625,-1.3438 q0,-0.75 -0.5625,-1.3281 q-0.5625,-0.5781 -1.3438,-0.5781 Z M8.6562,3.0625 q-0.75,0 -1.3281,0.5781 q-0.5781,0.5781 -0.5781,1.3281 q0,0.7812 0.5781,1.3438 q0.5781,0.5625 1.3281,0.5625 q0.7812,0 1.3438,-0.5625 q0.5625,-0.5625 0.5625,-1.3438 q0,-0.75 -0.5625,-1.3281 q-0.5625,-0.5781 -1.3438,-0.5781 Z M27.5938,29.1875 q-0.75,0 -1.3281,0.5781 q-0.5781,0.5781 -0.5781,1.3281 q0,0.7812 0.5781,1.3438 q0.5781,0.5625 1.3281,0.5625 q0.7812,0 1.3438,-0.5625 q0.5625,-0.5625 0.5625,-1.3438 q0,-0.75 -0.5625,-1.3281 q-0.5625,-0.5781 -1.3438,-0.5781 Z M4.9688,25.6875 q-0.75,0 -1.3281,0.5781 q-0.5781,0.5781 -0.5781,1.3281 q0,0.7812 0.5781,1.3438 q0.5781,0.5625 1.3281,0.5625 q0.7812,0 1.3438,-0.5625 q0.5625,-0.5625 0.5625,-1.3438 q0,-0.75 -0.5625,-1.3281 q-0.5625,-0.5781 -1.3438,-0.5781 Z M31.0938,6.75 q-0.75,0 -1.3281,0.5781 q-0.5781,0.5781 -0.5781,1.3281 q0,0.7812 0.5781,1.3438 q0.5781,0.5625 1.3281,0.5625 q0.7812,0 1.3438,-0.5625 q0.5625,-0.5625 0.5625,-1.3438 q0,-0.75 -0.5625,-1.3281 q-0.5625,-0.5781 -1.3438,-0.5781 Z" fill="#000000" transform="matrix(1,0,0,-1,182,35)"/>
  <path d="M4.6875,0.875 q-1.5,0 -2.6562,1.1562 q-1.1562,1.1562 -1.1562,2.6562 q0,1.5625 1.1562,2.6875 q1.1562,1.125 2.6562,1.125 q1.5625,0 2.6875,-1.125 q1.125,-1.125 1.125,-2.6875 q0,-1.5 -1.125,-2.6562 q-1.125,-1.1562 -2.6875,-1.1562 Z M13.0625,0.875 q-1.5,0 -2.6562,1.1562 q-1.1562,1.1562 -1.1562,2.6562 q0,1.5625 1.1562,2.6875 q1.1562,1.125 2.6562,1.125 q1.5625,0 2.6875,-1.125 q1.125,-1.125 1.125,-2.6875 q0,-1.5 -1.125,-2.6562 q-1.125,-1.1562 -2.6875,-1.1562 Z" fill="#902900" fill-opacity="0.902" transform="matrix(1,0,0,-1,191,47)"/>
  <path d="" fill="#000000" transform="matrix(1,0,0,-1,218,35)"/>
  <path d="M18.0938,0 q-0.75,0 -1.3281,0.5781 q-0.5781,0.5781 -0.5781,1.3281 q0,0.7812 0.5781,1.3438 q0.5781,0.5625 1.3281,0.5625 q0.7812,0 1.3438,-0.5625 q0.5625,-0.5625 0.5625,-1.3438 q0,-0.75 -0.5625,-1.3281 q-0.5625,-0.5781 -1.3438,-0.5781 Z M18.0938,32.3125 q-0.75,0 -1.3281,0.5781 q-0.5781,0.5781 -0.5781,1.3281 q0,0.7812 0.5781,1.3438 q0.5781,0.5625 1.3281,0.5625 q0.7812,0 1.3438,-0.5625 q0.5625,-0.5625 0.5625,-1.3438 q0,-0.75 -0.5625,-1.3281 q-0.5625,-0.5781 -1.3438,-0.5781 Z M1.9062,16.1875 q-0.75,0 -1.3281,0.5781 q-0.5781,0.5781 -0.5781,1.3281 q0,0.7812 0.5781,1.3438 q0.5781,0.5625 1.3281,0.5625 q0.7812,0 1.3438,-0.5625 q0.5625,-0.5625 0.5625,-1.3438 q0,-0.75 -0.5625,-1.3281 q-0.5625,-0.5781 -1.3438,-0.5781 Z M34.2188,16.1875 q-0.75,0 -1.3281,0.5781 q-0.5781,0.5781 -0.5781,1.3281 q0,0.7812 0.5781,1.3438 q0.5781,0.5625 1.3281,0.5625 q0.7812,0 1.3438,-0.5625 q0.5625,-0.5625 0.5625,-1.3438 q0,-0.75 -0.5625,-1.3281 q-0.5625,-0.5781 -1.3438,-0.5781 Z M23.0938,0.8125 q-0.75,0 -1.3281,0.5781 q-0.5781,0.5781 -0.5781,1.3281 q0,0.7812 0.5781,1.3438 q0.5781,0.5625 1.3281,0.5625 q0.7812,0 1.3438,-0.5625 q0.5625,-0.5625 0.5625,-1.3438 q0,-0.75 -0.5625,-1.3281 q-0.5625,-0.5781 -1.3438,-0.5781 Z M13.1562,31.5 q-0.75,0 -1.3281,0.5781 q-0.5781,0.5781 -0.5781,1.3281 q0,0.7812 0.5781,1.3438 q0.5781,0.5625 1.3281,0.5625 q0.7812,0 1.3438,-0.5625 q0.5625,-0.5625 0.5625,-1.3438 q0,-0.75 -0.5625,-1.3281 q-0.5625,-0.5781 -1.3438,-0.5781 Z M2.7188,11.25 q-0.75,0 -1.3281,0.5781 q-0.5781,0.5781 -0.5781,1.3281 q0,0.7812 0.5781,1.3438 q0.5781,0.5625 1.3281,0.5625 q0.7812,0 1.3438,-0.5625 q0.5625,-0.5625 0.5625,-1.3438 q0,-0.75 -0.5625,-1.3281 q-0.5625,-0.5781 -1.3438,-0.5781 Z M33.4062,21.1875 q-0.75,0 -1.3281,0.5781 q-0.5781,0.5781 -0.5781,1.3281 q0,0.7812 0.5781,1.3438 q0.5781,0.5625 1.3281,0.5625 q0.7812,0 1.3438,-0.5625 q0.5625,-0.5625 0.5625,-1.3438 q0,-0.75 -0.5625,-1.3281 q-0.5625,-0.5781 -1.3438,-0.5781 Z M13.1562,0.8125 q-0.75,0 -1.3281,0.5781 q-0.5781,0.5781 -0.5781,1.3281 q0,0.7812 0.5781,1.3438 q0.5781,0.5625 1.3281,0.5625 q0.7812,0 1.3438,-0.5625 q0.5625,-0.5625 0.5625,-1.3438 q0,-0.75 -0.5625,-1.3281 q-0.5625,-0.5781 -1.3438,-0.5781 Z M23.0938,31.5 q-0.75,0 -1.3281,0.5781 q-0.5781,0.5781 -0.5781,1.3281 q0,0.7812 0.5781,1.3438 q0.5781,0.5625 1.3281,0.5625 q0.7812,0 1.3438,-0.5625 q0.5625,-0.5625 0.5625,-1.3438 q0,-0.75 -0.5625,-1.3281 q-0.5625,-0.5781 -1.3438,-0.5781 Z M2.7188,21.1875 q-0.75,0 -1.3281,0.5781 q-0.5781,0.5781 -0.5781,1.3281 q0,0.7812 0.5781,1.3438 q0.5781,0.5625 1.3281,0.5625 q0.7812,0 1.3438,-0.5625 q0.5625,-0.5625 0.5625,-1.3438 q0,-0.75 -0.5625,-1.3281 q-0.5625,-0.5781 -1.3438,-0.5781 Z M33.4062,11.25 q-0.75,0 -1.3281,0.5781 q-0.5781,0.5781 -0.5781,1.3281 q0,0.7812 0.5781,1.3438 q0.5781,0.5625 1.3281,0.5625 q0.7812,0 1.3438,-0.5625 q0.5625,-0.5625 0.5625,-1.3438 q0,-0.75 -0.5625,-1.3281 q-0.5625,-0.5781 -1.3438,-0.5781 Z M27.5938,3.0625 q-0.75,0 -1.3281,0.5781 q-0.5781,0.5781 -0.5781,1.3281 q0,0.7812 0.5781,1.3438 q0.5781,0.5625 1.3281,0.5625 q0.7812,0 1.3438,-0.5625 q0.5625,-0.5625 0.5625,-1.3438 q0,-0.75 -0.5625,-1.3281 q-0.5625,-0.5781 -1.3438,-0.5781 Z M8.6562,29.1875 q-0.75,0 -1.3281,0.5781 q-0.5781,0.5781 -0.5781,1.3281 q0,0.7812 0.5781,1.3438 q0.5781,0.5625 1.3281,0.5625 q0.7812,0 1.3438,-0.5625 q0.5625,-0.5625 0.5625,-1.3438 q0,-0.75 -0.5625,-1.3281 q-0.5625,-0.5781 -1.3438,-0.5781 Z M4.9688,6.75 q-0.75,0 -1.3281,0.5781 q-0.5781,0.5781 -0.5781,1.3281 q0,0.7812 0.5781,1.3438 q0.5781,0.5625 1.3281,0.5625 q0.7812,0 1.3438,-0.5625 q0.5625,-0.5625 0.5625,-1.3438 q0,-0.75 -0.5625,-1.3281 q-0.5625,-0.5781 -1.3438,-0.5781 Z M31.0938,25.6875 q-0.75,0 -1.3281,0.5781 q-0.5781,0.5781 -0.5781,1.3281 q0,0.7812 0.5781,1.3438 q0.5781,0.5625 1.3281,0.5625 q0.7812,0 1.3438,-0.5625 q0.5625,-0.5625 0.5625,-1.3438 q0,-0.75 -0.5625,-1.3281 q-0.5625,-0.5781 -1.3438,-0.5781 Z M8.6562,3.0625 q-0.75,0 -1.3281,0.5781 q-0.5781,0.5781 -0.5781,1.3281 q0,0.7812 0.5781,1.3438 q0.5781,0.5625 1.3281,0.5625 q0.7812,0 1.3438,-0.5625 q0.5625,-0.5625 0.5625,-1.3438 q0,-0.75 -0.5625,-1.3281 q-0.5625,-0.5781 -1.3438,-0.5781 Z M27.5938,29.1875 q-0.75,0 -1.3281,0.5781 q-0.5781,0.5781 -0.5781,1.3281 q0,0.7812 0.5781,1.3438 q0.5781,0.5625 1.3281,0.5625 q0.7812,0 1.3438,-0.5625 q0.5625,-0.5625 0.5625,-1.3438 q0,-0.75 -0.5625,-1.3281 q-0.5625,-0.5781 -1.3438,-0.5781 Z M4.9688,25.6875 q-0.75,0 -1.3281,0.5781 q-0.5781,0.5781 -0.5781,1.3281 q0,0.7812 0.5781,1.3438 q0.5781,0.5625 1.3281,0.5625 q0.7812,0 1.3438,-0.5625 q0.5625,-0.5625 0.5625,-1.3438 q0,-0.75 -0.5625,-1.3281 q-0.5625,-0.5781 -1.3438,-0.5781 Z M31.0938,6.75 q-0.75,0 -1.3281,0.5781 q-0.5781,0.5781 -0.5781,1.3281 q0,0.7812 0.5781,1.3438 q0.5781,0.5625 1.3281,0.5625 q0.7812,0 1.3438,-0.5625 q0.5625,-0.5625 0.5625,-1.3438 q0,-0.75 -0.5625,-1.3281 q-0.5625,-0.5781 -1.3438,-0.5781 Z" fill="#000000" transform="matrix(1,0,0,-1,243,35)"/>
  <path d="M4.6875,0.875 q-1.5,0 -2.6562,1.1562 q-1.1562,1.1562 -1.1562,2.6562 q0,1.5625 1.1562,2.6875 q1.1562,1.125 2.6562,1.125 q1.5625,0 2.6875,-1.125 q1.125,-1.125 1.125,-2.6875 q0,-1.5 -1.125,-2.6562 q-1.125,-1.1562 -2.6875,-1.1562 Z" fill="#902900" fill-opacity="0.902" transform="matrix(1,0,0,-1,232,22)"/>
  <path d="" fill="#000000" transform="matrix(1,0,0,-1,279,35)"/>
  <path d="M18.0938,0 q-0.75,0 -1.3281,0.5781 q-0.5781,0.5781 -0.5781,1.3281 q0,0.7812 0.5781,1.3438 q0.5781,0.5625 1.3281,0.5625 q0.7812,0 1.3438,-0.5625 q0.5625,-0.5625 0.5625,-1.3438 q0,-0.75 -0.5625,-1.3281 q-0.5625,-0.5781 -1.3438,-0.5781 Z M18.0938,32.3125 q-0.75,0 -1.3281,0.5781 q-0.5781,0.5781 -0.5781,1.3281 q0,0.7812 0.5781,1.3438 q0.5781,0.5625 1.3281,0.5625 q0.7812,0 1.3438,-0.5625 q0.5625,-0.5625 0.5625,-1.3438 q0,-0.75 -0.5625,-1.3281 q-0.5625,-0.5781 -1.3438,-0.5781 Z M1.9062,16.1875 q-0.75,0 -1.3281,0.5781 q-0.5781,0.5781 -0.5781,1.3281 q0,0.7812 0.5781,1.3438 q0.5781,0.5625 1.3281,0.5625 q0.7812,0 1.3438,-0.5625 q0.5625,-0.5625 0.5625,-1.3438 q0,-0.75 -0.5625,-1.3281 q-0.5625,-0.5781 -1.3438,-0.5781 Z M34.2188,16.1875 q-0.75,0 -1.3281,0.5781 q-0.5781,0.5781 -0.5781,1.3281 q0,0.7812 0.5781,1.3438 q0.5781,0.5625 1.3281,0.5625 q0.7812,0 1.3438,-0.5625 q0.5625,-0.5625 0.5625,-1.3438 q0,-0.75 -0.5625,-1.3281 q-0.5625,-0.5781 -1.3438,-0.5781 Z M23.0938,0.8125 q-0.75,0 -1.3281,0.5781 q-0.5781,0.5781 -0.5781,1.3281 q0,0.7812 0.5781,1.3438 q0.5781,0.5625 1.3281,0.5625 q0.7812,0 1.3438,-0.5625 q0.5625,-0.5625 0.5625,-1.3438 q0,-0.75 -0.5625,-1.3281 q-0.5625,-0.5781 -1.3438,-0.5781 Z M13.1562,31.5 q-0.75,0 -1.3281,0.5781 q-0.5781,0.5781 -0.5781,1.3281 q0,0.7812 0.5781,1.3438 q0.5781,0.5625 1.3281,0.5625 q0.7812,0 1.3438,-0.5625 q0.5625,-0.5625 0.5625,-1.3438 q0,-0.75 -0.5625,-1.3281 q-0.5625,-0.5781 -1.3438,-0.5781 Z M2.7188,11.25 q-0.75,0 -1.3281,0.5781 q-0.5781,0.5781 -0.5781,1.3281 q0,0.7812 0.5781,1.3438 q0.5781,0.5625 1.3281,0.5625 q0.7812,0 1.3438,-0.5625 q0.5625,-0.5625 0.5625,-1.3438 q0,-0.75 -0.5625,-1.3281 q-0.5625,-0.5781 -1.3438,-0.5781 Z M33.4062,21.1875 q-0.75,0 -1.3281,0.5781 q-0.5781,0.5781 -0.5781,1.3281 q0,0.7812 0.5781,1.3438 q0.5781,0.5625 1.3281,0.5625 q0.7812,0 1.3438,-0.5625 q0.5625,-0.5625 0.5625,-1.3438 q0,-0.75 -0.5625,-1.3281 q-0.5625,-0.5781 -1.3438,-0.5781 Z M13.1562,0.8125 q-0.75,0 -1.3281,0.5781 q-0.5781,0.5781 -0.5781,1.3281 q0,0.7812 0.5781,1.3438 q0.5781,0.5625 1.3281,0.5625 q0.7812,0 1.3438,-0.5625 q0.5625,-0.5625 0.5625,-1.3438 q0,-0.75 -0.5625,-1.3281 q-0.5625,-0.5781 -1.3438,-0.5781 Z M23.0938,31.5 q-0.75,0 -1.3281,0.5781 q-0.5781,0.5781 -0.5781,1.3281 q0,0.7812 0.5781,1.3438 q0.5781,0.5625 1.3281,0.5625 q0.7812,0 1.3438,-0.5625 q0.5625,-0.5625 0.5625,-1.3438 q0,-0.75 -0.5625,-1.3281 q-0.5625,-0.5781 -1.3438,-0.5781 Z M2.7188,21.1875 q-0.75,0 -1.3281,0.5781 q-0.5781,0.5781 -0.5781,1.3281 q0,0.7812 0.5781,1.3438 q0.5781,0.5625 1.3281,0.5625 q0.7812,0 1.3438,-0.5625 q0.5625,-0.5625 0.5625,-1.3438 q0,-0.75 -0.5625,-1.3281 q-0.5625,-0.5781 -1.3438,-0.5781 Z M33.4062,11.25 q-0.75,0 -1.3281,0.5781 q-0.5781,0.5781 -0.5781,1.3281 q0,0.7812 0.5781,1.3438 q0.5781,0.5625 1.3281,0.5625 q0.7812,0 1.3438,-0.5625 q0.5625,-0.5625 0.5625,-1.3438 q0,-0.75 -0.5625,-1.3281 q-0.5625,-0.5781 -1.3438,-0.5781 Z M27.5938,3.0625 q-0.75,0 -1.3281,0.5781 q-0.5781,0.5781 -0.5781,1.3281 q0,0.7812 0.5781,1.3438 q0.5781,0.5625 1.3281,0.5625 q0.7812,0 1.3438,-0.5625 q0.5625,-0.5625 0.5625,-1.3438 q0,-0.75 -0.5625,-1.3281 q-0.5625,-0.5781 -1.3438,-0.5781 Z M8.6562,29.1875 q-0.75,0 -1.3281,0.5781 q-0.5781,0.5781 -0.5781,1.3281 q0,0.7812 0.5781,1.3438 q0.5781,0.5625 1.3281,0.5625 q0.7812,0 1.3438,-0.5625 q0.5625,-0.5625 0.5625,-1.3438 q0,-0.75 -0.5625,-1.3281 q-0.5625,-0.5781 -1.3438,-0.5781 Z M4.9688,6.75 q-0.75,0 -1.3281,0.5781 q-0.5781,0.5781 -0.5781,1.3281 q0,0.7812 0.5781,1.3438 q0.5781,0.5625 1.3281,0.5625 q0.7812,0 1.3438,-0.5625 q0.5625,-0.5625 0.5625,-1.3438 q0,-0.75 -0.5625,-1.3281 q-0.5625,-0.5781 -1.3438,-0.5781 Z M31.0938,25.6875 q-0.75,0 -1.3281,0.5781 q-0.5781,0.5781 -0.5781,1.3281 q0,0.7812 0.5781,1.3438 q0.5781,0.5625 1.3281,0.5625 q0.7812,0 1.3438,-0.5625 q0.5625,-0.5625 0.5625,-1.3438 q0,-0.75 -0.5625,-1.3281 q-0.5625,-0.5781 -1.3438,-0.5781 Z M8.6562,3.0625 q-0.75,0 -1.3281,0.5781 q-0.5781,0.5781 -0.5781,1.3281 q0,0.7812 0.5781,1.3438 q0.5781,0.5625 1.3281,0.5625 q0.7812,0 1.3438,-0.5625 q0.5625,-0.5625 0.5625,-1.3438 q0,-0.75 -0.5625,-1.3281 q-0.5625,-0.5781 -1.3438,-0.5781 Z M27.5938,29.1875 q-0.75,0 -1.3281,0.5781 q-0.5781,0.5781 -0.5781,1.3281 q0,0.7812 0.5781,1.3438 q0.5781,0.5625 1.3281,0.5625 q0.7812,0 1.3438,-0.5625 q0.5625,-0.5625 0.5625,-1.3438 q0,-0.75 -0.5625,-1.3281 q-0.5625,-0.5781 -1.3438,-0.5781 Z M4.9688,25.6875 q-0.75,0 -1.3281,0.5781 q-0.5781,0.5781 -0.5781,1.3281 q0,0.7812 0.5781,1.3438 q0.5781,0.5625 1.3281,0.5625 q0.7812,0 1.3438,-0.5625 q0.5625,-0.5625 0.5625,-1.3438 q0,-0.75 -0.5625,-1.3281 q-0.5625,-0.5781 -1.3438,-0.5781 Z M31.0938,6.75 q-0.75,0 -1.3281,0.5781 q-0.5781,0.5781 -0.5781,1.3281 q0,0.7812 0.5781,1.3438 q0.5781,0.5625 1.3281,0.5625 q0.7812,0 1.3438,-0.5625 q0.5625,-0.5625 0.5625,-1.3438 q0,-0.75 -0.5625,-1.3281 q-0.5625,-0.5781 -1.3438,-0.5781 Z" fill="#000000" transform="matrix(1,0,0,-1,304,35)"/>
  <path d="M4.6875,0.875 q-1.5,0 -2.6562,1.1562 q-1.1562,1.1562 -1.1562,2.6562 q0,1.5625 1.1562,2.6875 q1.1562,1.125 2.6562,1.125 q1.5625,0 2.6875,-1.125 q1.125,-1.125 1.125,-2.6875 q0,-1.5 -1.125,-2.6562 q-1.125,-1.1562 -2.6875,-1.1562 Z M4.6875,9.25 q-1.5,0 -2.6562,1.1562 q-1.1562,1.1562 -1.1562,2.6562 q0,1.5625 1.1562,2.6875 q1.1562,1.125 2.6562,1.125 q1.5625,0 2.6875,-1.125 q1.125,-1.125 1.125,-2.6875 q0,-1.5 -1.125,-2.6562 q-1.125,-1.1562 -2.6875,-1.1562 Z" fill="#902900" fill-opacity="0.902" transform="matrix(1,0,0,-1,293,26)"/>
</svg>
