<?xml version='1.0' encoding='ASCII'?>
<svg xmlns="http://www.w3.org/2000/svg" width="630" height="342" preserveAspectRatio="xMinYMin slice" viewBox="-25 -5 630 342" version="1.1">
  <path d="M-25,-5 v342 h630 v-342 Z" fill="#000000" transform="matrix(1,0,0,-1,0,332)"/>
  <path d="M14.625,-0.625 q-1.3125,-0.0625 -3.1562,0.1875 q-1.8438,0.25 -3.625,1.0312 q-1.7812,0.7812 -2.9688,2.25 q-1.1875,1.4688 -1.1875,3.7812 q0,2.6875 1.4375,4.4688 q1.4375,1.7812 3.6875,2.8125 q2.25,1.0312 4.6875,1.4688 q-0.0625,0.3125 -0.125,0.5312 q-0.0625,0.2188 -0.1875,0.4688 q-0.125,0.5625 -0.0312,1.25 q0.0938,0.6875 0.7188,1.125 q0.9375,0.6875 1.875,1.7188 q0.9375,1.0312 2.125,2.2188 q0.6875,0.6875 1.2812,0.875 q0.5938,0.1875 1.1562,-1.0625 q0.4375,-1 0.6562,-3.0938 q0.2188,-2.0938 0.2812,-4.6562 q0.0625,-2.5625 0.0312,-4.9375 q-0.0312,-2.375 -0.0938,-3.9375 q0,-0.5625 0,-0.9688 q0,-0.4062 0,-0.6562 q-0.0625,-2.0625 -1.0312,-3.0625 q-0.9688,-1 -2.4375,-1.3438 q-1.4688,-0.3438 -3.0938,-0.4688 Z" fill="#FFE2A1" transform="matrix(1,0,0,-1,-24.5,332)"/>
  <path d="M14.5625,0 q-1.3125,-0.0625 -3.0312,0.1562 q-1.7188,0.2188 -3.375,0.9375 q-1.6562,0.7188 -2.75,2.0625 q-1.0938,1.3438 -1.0938,3.4688 q0,2.5625 1.4375,4.25 q1.4375,1.6875 3.6875,2.6562 q2.25,0.9688 4.75,1.3438 q-0.0625,0.5 -0.1562,0.9062 q-0.0938,0.4062 -0.2188,0.7812 q-0.125,0.4375 -0.0625,0.9062 q0.0625,0.4688 0.5,0.7812 q1,0.75 1.9375,1.7812 q0.9375,1.0312 2.125,2.2188 q0.0625,0.0625 0.1875,0.25 q0.3125,0.3125 0.5938,0.4375 q0.2812,0.125 0.6562,-0.6875 q0.4375,-0.9375 0.625,-3 q0.1875,-2.0625 0.25,-4.5625 q0.0625,-2.5 0.0312,-4.8438 q-0.0312,-2.3438 -0.0938,-3.9688 q0,-0.5625 0,-0.9688 q0,-0.4062 0,-0.6562 q-0.0625,-1.8125 -0.9062,-2.6562 q-0.8438,-0.8438 -2.1562,-1.1562 q-1.3125,-0.3125 -2.9375,-0.4375 Z M14.75,7.625 q0.5,0 0.5,0.5 q0,0.5 -0.5,0.5 q-0.5,0 -0.5,-0.5 q0,-0.5 0.5,-0.5 Z" fill="#A67300" transform="matrix(1,0,0,-1,-24.5,332)"/>
  <path d="M10.6875,-0.2868 q-3.8125,0.0625 -6.4375,0.4062 q-2.625,0.3438 -3.625,1.1562 q-0.6875,0.5 -0.625,1 q0.0625,0.5 0.8125,0.5 q0.375,0 0.7188,0.2188 q0.3438,0.2188 0.5938,0.4688 q0.5625,0.5625 1.4062,1.6562 q0.8438,1.0938 1.5312,2.2188 q0.6875,1.0625 2.1875,0.1875 q0.6875,-0.375 2.125,-0.5625 q1.4375,-0.1875 3.0625,-0.3125 q0.4375,0 2.6574,-0.0312 q2.2199,-0.0312 5.9339,-0.0625 q3.7141,-0.0312 8.7223,-0.0625 q5.0082,-0.0312 11.0481,-0.0625 q6.0399,-0.0312 12.8801,-0.0625 q6.8402,-0.0312 14.2368,-0.0312 q7.3965,0 15.0868,-0.0312 q7.6903,-0.0312 15.4118,-0.0312 q7.7215,0 15.3055,0 q7.584,0 14.7055,0.0312 q7.1215,0.0312 13.5988,0.0625 q6.4774,0.0312 12.0352,0.0625 q5.5579,0.0312 9.9723,0.0938 q4.4144,0.0625 7.4155,0.1562 q3.0011,0.0938 4.3136,0.1562 q1.375,0.125 1.625,0.3438 q0.25,0.2188 0.125,0.5938 q-0.0625,0.125 -0.2188,0.25 q-0.1562,0.125 -0.6562,0.0625 q-0.75,-0.0625 -3.3136,-0.125 q-2.5636,-0.0625 -6.6839,-0.125 q-4.1203,-0.0625 -9.5035,-0.125 q-5.3832,-0.0625 -11.7981,-0.0938 q-6.4149,-0.0312 -13.5988,-0.0625 q-7.184,-0.0312 -14.8618,-0.0625 q-7.6778,-0.0312 -15.6493,-0.0312 q-7.9715,0 -15.9118,0 q-7.9403,0 -15.618,0.0312 q-7.6778,0.0312 -14.8618,0.0312 q-7.184,0 -13.586,0.0625 q-6.402,0.0625 -11.7668,0.125 q-5.3648,0.0625 -9.4539,0.125 q-4.0891,0.0625 -6.6527,0.1562 q-2.5636,0.0938 -3.3136,0.2188 q-1.5625,0.1875 -2.1562,0.6875 q-0.5938,0.5 0.0312,1.375 q2.125,2.8125 4.1875,5.6562 q2.0625,2.8438 3.8125,5.7812 q0.3125,0.5 0.7188,0.3125 q0.4062,-0.1875 0.1562,-0.75 q-0.25,-0.5625 -0.7812,-1.75 q-0.5312,-1.1875 -1.0312,-2.3438 q-0.5,-1.1562 -0.75,-1.7812 q0.875,-0.0625 3.5011,-0.1562 q2.6261,-0.0938 6.7152,-0.1562 q4.0891,-0.0625 9.441,-0.0938 q5.352,-0.0312 11.6731,-0.0625 q6.3211,-0.0312 13.4113,-0.0312 q7.0902,0 14.6743,0 q7.584,0 15.4305,0 q7.8465,0 15.7243,0 q7.8778,0 15.5243,0.0312 q7.6465,0.0312 14.7993,0.0625 q7.1527,0.0312 13.5988,0.0625 q6.4461,0.0312 11.9415,0.0625 q5.4954,0.0312 9.7848,0.0625 q4.2894,0.0312 7.103,0.0938 q2.8136,0.0625 3.9386,0.0625 q1.125,0.0625 1.5312,-0.4688 q0.4062,-0.5312 0.9688,-1.8438 q0.75,-1.6875 1.6562,-4.0625 q0.9062,-2.375 0.9688,-5.4375 q0.0625,-1.25 -1.0312,-2.125 q-1.0938,-0.875 -2.2188,-1 q-1.375,-0.125 -4.4386,-0.2188 q-3.0636,-0.0938 -7.4964,-0.1562 q-4.4328,-0.0625 -10.0348,-0.125 q-5.602,-0.0625 -12.1418,-0.0938 q-6.5399,-0.0312 -13.7551,-0.0938 q-7.2152,-0.0625 -14.9243,-0.0625 q-7.709,0 -15.618,-0.0312 q-7.909,-0.0312 -15.8493,-0.0312 q-7.9403,0 -15.6493,0 q-7.709,0 -14.9243,0 q-7.2152,0 -13.7551,0 q-6.5399,0 -12.1418,0.0312 q-5.602,0.0312 -10.0348,0.0312 q-4.4328,0 -7.4964,0.0312 q-3.0636,0.0312 -4.4386,0.0312 Z M161.6361,-0.2319 l21.25,7.1069 h3.3125 v-6.875 q-5.5625,-0.1361 -11.8438,-0.184 q-6.2812,-0.0479 -12.7188,-0.0479 Z" fill="#D3D3D3" transform="matrix(1,0,0,-1,0.5,332)"/>
  <path d="M-1.25,0 v6.875 h3.5 q-0.25,0.75 -0.5,1.4062 q-0.25,0.6562 -0.375,1.1562 q-0.1875,0.625 0,0.9062 q0.1875,0.2812 0.6875,0.5312 q1.25,0.5625 2.0625,1.6875 q0.8125,1.125 1.8125,2.8125 q0.75,1.25 1.1875,-0.125 q0.875,-2.875 1.6562,-4.3438 q0.7812,-1.4688 1.6562,-2.1562 q-0.125,0.25 -0.25,0.5625 q-0.3125,0.75 0.375,1.125 q1.25,0.625 2.2812,1.8438 q1.0312,1.2188 1.9688,3.7812 q0.125,0.4375 0.4375,0.5 q0.3125,0.0625 0.4375,-0.4375 q0.625,-1.9375 1.4688,-3.6875 q0.8438,-1.75 1.7812,-3.1875 q0,0.5625 -0.0625,1.5 q-0.0625,1.125 0.75,1.4375 q1.8125,0.5625 2.5625,1.9688 q0.75,1.4062 1.5625,2.7812 q0.5,0.875 0.9375,0.875 q0.4375,0 0.5,-0.875 q0.1875,-4.125 0.3125,-6.2812 q0.125,-2.1562 0.3438,-2.9688 q0.2188,-0.8125 0.6562,-0.8125 v-6.875 h-27.75 Z" fill="#D3D3D3" transform="matrix(1,0,0,-1,186.5,332)"/>
  <path d="M-1.4375,0 v12 h1.1875 q-0.0625,-2.3125 2.2812,-3.75 q2.3438,-1.4375 6.0938,-1.75 v-2.8125 l-9.5625,-3.6875 Z" fill="#D3D3D3" transform="matrix(1,0,0,-1,212.5,332)"/>
  <path d="M-1.25,0 v6.875 h6.75 q-2.1875,1.625 -4.375,3.9375 q-0.5,0.5 -0.5312,0.8438 q-0.0312,0.3438 0.5312,0.7188 q0.9375,0.625 2.1875,1.9688 q1.25,1.3438 2.3125,2.9688 q0.1875,0.3125 0.625,0.375 q0.4375,0.0625 0.8125,-0.375 q3.375,-3.875 7.4375,-6.0312 q4.0625,-2.1562 8.6875,-3.125 q4.625,-0.9688 9.6875,-1.1875 q5.0625,-0.2188 10.375,-0.2188 q0.5,0 0.6562,-0.2812 q0.1562,-0.2812 -0.1562,-0.7188 q-1,-1.5 -2.0312,-2.5625 q-1.0312,-1.0625 -2.0938,-1.9375 q-0.5625,-0.5 -1.6875,-0.6875 q-1.125,-0.1875 -1.9375,-0.1875 q-3,0 -7.375,-0.0625 q-4.375,-0.0625 -9.1875,-0.125 q-3.875,-0.0625 -7.6875,-0.0938 q-3.8125,-0.0312 -7.1875,-0.0625 q-3.375,-0.0312 -5.8125,-0.0312 Z" fill="#D3D3D3" transform="matrix(1,0,0,-1,212.5,332)"/>
  <path d="" fill="#D3D3D3" transform="matrix(1,0,0,-1,256.5,332)"/>
  <path d="M19.4375,-3 q-3.8125,0.0625 -7.2812,1.1875 q-3.4688,1.125 -6.1875,3.4375 q-2.7188,2.3125 -4.3125,5.9688 q-1.5938,3.6562 -1.6562,8.7812 q0,2.625 -0.0625,5.7812 q-0.0625,3.1562 -0.1562,6.4062 q-0.0938,3.25 -0.25,6.1562 q-0.1562,2.9062 -0.3438,4.9062 q-0.1875,1.4375 -0.3125,2.3125 q-0.125,0.875 0.3125,1.1875 q0.6875,0.4375 1.6562,1.2812 q0.9688,0.8438 1.8438,1.8438 q0.875,1 1.25,1.8125 q0.3125,0.6875 0.7812,0.6875 q0.4688,0 0.6562,-1.25 q0.3125,-2.25 0.375,-5.375 q0.0625,-3.125 0.0625,-6.6875 q0,-3.5625 0,-7.1562 q0,-3.5938 0.1875,-6.7188 q0.1875,-3.4375 1.3125,-6.25 q1.125,-2.8125 3.0938,-4.9062 q1.9688,-2.0938 4.5312,-3.4688 q3.25,-1.6875 7.3125,-2.1875 q4.0625,-0.5 8.625,0.3125 q4.5625,0.8125 9.25,2.875 q0.5625,0.3125 0.8438,0.125 q0.2812,-0.1875 0.0312,-0.75 q-2.3125,-5.125 -7.9688,-7.75 q-5.6562,-2.625 -13.5938,-2.5625 Z" fill="#D3D3D3" transform="matrix(1,0,0,-1,281.5,332)"/>
  <path d="" fill="#D3D3D3" transform="matrix(1,0,0,-1,322.5,332)"/>
  <path d="M10.6875,-0.618 q-3.8125,0.0625 -6.4375,0.4062 q-2.625,0.3438 -3.625,1.1562 q-0.6875,0.5 -0.625,1 q0.0625,0.5 0.8125,0.5 q0.375,0 0.7188,0.2188 q0.3438,0.2188 0.5938,0.4688 q0.5625,0.5625 1.4062,1.6562 q0.8438,1.0938 1.5312,2.2188 q0.6875,1.0625 2.1875,0.1875 q0.6875,-0.375 2.125,-0.5625 q1.4375,-0.1875 3.0625,-0.3125 q0.4375,0 2.6574,-0.0312 q2.2199,-0.0312 5.9339,-0.0625 q3.7141,-0.0312 8.7223,-0.0625 q5.0082,-0.0312 11.0481,-0.0625 q6.0399,-0.0312 12.8801,-0.0625 q6.8402,-0.0312 14.2368,-0.0312 q7.3965,0 15.0868,-0.0312 q7.6903,-0.0312 15.4118,-0.0312 q7.7215,0 15.3055,0 q7.584,0 14.7055,0.0312 q7.1215,0.0312 13.5988,0.0625 q6.4774,0.0312 12.0352,0.0625 q5.5579,0.0312 9.9723,0.0938 q4.4144,0.0625 7.4155,0.1562 q3.0011,0.0938 4.3136,0.1562 q1.375,0.125 1.625,0.3438 q0.25,0.2188 0.125,0.5938 q-0.0625,0.125 -0.2188,0.25 q-0.1562,0.125 -0.6562,0.0625 q-0.75,-0.0625 -3.3136,-0.125 q-2.5636,-0.0625 -6.6839,-0.125 q-4.1203,-0.0625 -9.5035,-0.125 q-5.3832,-0.0625 -11.7981,-0.0938 q-6.4149,-0.0312 -13.5988,-0.0625 q-7.184,-0.0312 -14.8618,-0.0625 q-7.6778,-0.0312 -15.6493,-0.0312 q-7.9715,0 -15.9118,0 q-7.9403,0 -15.618,0.0312 q-7.6778,0.0312 -14.8618,0.0312 q-7.184,0 -13.586,0.0625 q-6.402,0.0625 -11.7668,0.125 q-5.3648,0.0625 -9.4539,0.125 q-4.0891,0.0625 -6.6527,0.1562 q-2.5636,0.0938 -3.3136,0.2188 q-1.5625,0.1875 -2.1562,0.6875 q-0.5938,0.5 0.0312,1.375 q2.125,2.8125 4.1875,5.6562 q2.0625,2.8438 3.8125,5.7812 q0.3125,0.5 0.7188,0.3125 q0.4062,-0.1875 0.1562,-0.75 q-0.25,-0.5625 -0.7812,-1.75 q-0.5312,-1.1875 -1.0312,-2.3438 q-0.5,-1.1562 -0.75,-1.7812 q0.875,-0.0625 3.5011,-0.1562 q2.6261,-0.0938 6.7152,-0.1562 q4.0891,-0.0625 9.441,-0.0938 q5.352,-0.0312 11.6731,-0.0625 q6.3211,-0.0312 13.4113,-0.0312 q7.0902,0 14.6743,0 q7.584,0 15.4305,0 q7.8465,0 15.7243,0 q7.8778,0 15.5243,0.0312 q7.6465,0.0312 14.7993,0.0625 q7.1527,0.0312 13.5988,0.0625 q6.4461,0.0312 11.9415,0.0625 q5.4954,0.0312 9.7848,0.0625 q4.2894,0.0312 7.103,0.0938 q2.8136,0.0625 3.9386,0.0625 q1.125,0.0625 1.5312,-0.4688 q0.4062,-0.5312 0.9688,-1.8438 q0.75,-1.6875 1.6562,-4.0625 q0.9062,-2.375 0.9688,-5.4375 q0.0625,-1.25 -1.0312,-2.125 q-1.0938,-0.875 -2.2188,-1 q-1.375,-0.125 -4.4386,-0.2188 q-3.0636,-0.0938 -7.4964,-0.1562 q-4.4328,-0.0625 -10.0348,-0.125 q-5.602,-0.0625 -12.1418,-0.0938 q-6.5399,-0.0312 -13.7551,-0.0938 q-7.2152,-0.0625 -14.9243,-0.0625 q-7.709,0 -15.618,-0.0312 q-7.909,-0.0312 -15.8493,-0.0312 q-7.9403,0 -15.6493,0 q-7.709,0 -14.9243,0 q-7.2152,0 -13.7551,0 q-6.5399,0 -12.1418,0.0312 q-5.602,0.0312 -10.0348,0.0312 q-4.4328,0 -7.4964,0.0312 q-3.0636,0.0312 -4.4386,0.0312 Z" fill="#D3D3D3" transform="matrix(1,0,0,-1,347.5,332)"/>
  <path d="" fill="#D3D3D3" transform="matrix(1,0,0,-1,534.5,332)"/>
  <path d="M19.4375,-3 q-3.8125,0.0625 -7.2812,1.1875 q-3.4688,1.125 -6.1875,3.4375 q-2.7188,2.3125 -4.3125,5.9688 q-1.5938,3.6562 -1.6562,8.7812 q0,2.625 -0.0625,5.7812 q-0.0625,3.1562 -0.1562,6.4062 q-0.0938,3.25 -0.25,6.1562 q-0.1562,2.9062 -0.3438,4.9062 q-0.1875,1.4375 -0.3125,2.3125 q-0.125,0.875 0.3125,1.1875 q0.6875,0.4375 1.6562,1.2812 q0.9688,0.8438 1.8438,1.8438 q0.875,1 1.25,1.8125 q0.3125,0.6875 0.7812,0.6875 q0.4688,0 0.6562,-1.25 q0.3125,-2.25 0.375,-5.375 q0.0625,-3.125 0.0625,-6.6875 q0,-3.5625 0,-7.1562 q0,-3.5938 0.1875,-6.7188 q0.1875,-3.4375 1.3125,-6.25 q1.125,-2.8125 3.0938,-4.9062 q1.9688,-2.0938 4.5312,-3.4688 q3.25,-1.6875 7.3125,-2.1875 q4.0625,-0.5 8.625,0.3125 q4.5625,0.8125 9.25,2.875 q0.5625,0.3125 0.8438,0.125 q0.2812,-0.1875 0.0312,-0.75 q-2.3125,-5.125 -7.9688,-7.75 q-5.6562,-2.625 -13.5938,-2.5625 Z" fill="#D3D3D3" transform="matrix(1,0,0,-1,559.5,332)"/>
  <path d="M10.6875,-0.3007 q-3.8125,0.0625 -6.4375,0.4062 q-2.625,0.3438 -3.625,1.1562 q-0.6875,0.5 -0.625,1 q0.0625,0.5 0.8125,0.5 q0.375,0 0.7188,0.2188 q0.3438,0.2188 0.5938,0.4688 q0.5625,0.5625 1.4062,1.6562 q0.8438,1.0938 1.5312,2.2188 q0.6875,1.0625 2.1875,0.1875 q0.6875,-0.375 2.125,-0.5625 q1.4375,-0.1875 3.0625,-0.3125 q0.4375,0 1.7615,-0.0312 q1.324,-0.0312 3.3852,-0.0625 q2.0612,-0.0312 4.7846,-0.0625 q2.7234,-0.0312 5.9715,-0.0625 q3.2481,-0.0312 6.9146,-0.0625 q3.6665,-0.0312 7.6393,-0.0312 q3.9728,0 8.1144,-0.0312 q4.1416,-0.0312 8.3144,-0.0312 q4.1728,0 8.3331,0 q4.1603,0 8.1081,0.0312 q3.9478,0.0312 7.6334,0.0625 q3.6856,0.0312 6.9656,0.0625 q3.28,0.0312 6.0346,0.0938 q2.7546,0.0625 4.8599,0.1562 q2.1053,0.0938 3.4178,0.1562 q1.375,0.125 1.625,0.3438 q0.25,0.2188 0.125,0.5938 q-0.0625,0.125 -0.2188,0.25 q-0.1562,0.125 -0.6562,0.0625 q-0.75,-0.0625 -2.4178,-0.125 q-1.6678,-0.0625 -4.1352,-0.125 q-2.4675,-0.0625 -5.5659,-0.125 q-3.0984,-0.0625 -6.7215,-0.0938 q-3.6231,-0.0312 -7.6334,-0.0625 q-4.0103,-0.0312 -8.2643,-0.0625 q-4.2541,-0.0312 -8.6769,-0.0312 q-4.4228,0 -8.8144,0 q-4.3916,0 -8.6456,0.0312 q-4.254,0.0312 -8.2643,0.0312 q-4.0103,0 -7.6275,0.0625 q-3.6172,0.0625 -6.6903,0.125 q-3.0731,0.0625 -5.5093,0.125 q-2.4362,0.0625 -4.104,0.1562 q-1.6678,0.0938 -2.4178,0.2188 q-1.5625,0.1875 -2.1562,0.6875 q-0.5938,0.5 0.0312,1.375 q2.125,2.8125 4.1875,5.6562 q2.0625,2.8438 3.8125,5.7812 q0.3125,0.5 0.7188,0.3125 q0.4062,-0.1875 0.1562,-0.75 q-0.25,-0.5625 -0.7812,-1.75 q-0.5312,-1.1875 -1.0312,-2.3438 q-0.5,-1.1562 -0.75,-1.7812 q0.875,-0.0625 2.6053,-0.1562 q1.7303,-0.0938 4.1665,-0.1562 q2.4362,-0.0625 5.5034,-0.0938 q3.0672,-0.0312 6.5965,-0.0625 q3.5294,-0.0312 7.4459,-0.0312 q3.9165,0 8.0768,0 q4.1603,0 8.4581,0 q4.2978,0 8.6269,0 q4.3291,0 8.5519,0.0312 q4.2228,0.0312 8.2018,0.0625 q3.979,0.0312 7.6334,0.0625 q3.6544,0.0312 6.8719,0.0625 q3.2175,0.0312 5.8471,0.0625 q2.6296,0.0312 4.5474,0.0938 q1.9178,0.0625 3.0428,0.0625 q1.125,0.0625 1.5312,-0.4688 q0.4062,-0.5312 0.9688,-1.8438 q0.75,-1.6875 1.6562,-4.0625 q0.9062,-2.375 0.9688,-5.4375 q0.0625,-1.25 -1.0312,-2.125 q-1.0938,-0.875 -2.2188,-1 q-1.375,-0.125 -3.5428,-0.2188 q-2.1678,-0.0938 -4.9477,-0.1562 q-2.78,-0.0625 -6.0971,-0.125 q-3.3172,-0.0625 -7.0653,-0.0938 q-3.7481,-0.0312 -7.7896,-0.0938 q-4.0415,-0.0625 -8.3268,-0.0625 q-4.2853,0 -8.6456,-0.0312 q-4.3603,-0.0312 -8.7519,-0.0312 q-4.3916,0 -8.6769,0 q-4.2853,0 -8.3268,0 q-4.0415,0 -7.7896,0 q-3.7481,0 -7.0653,0.0312 q-3.3172,0.0312 -6.0971,0.0312 q-2.78,0 -4.9477,0.0312 q-2.1678,0.0312 -3.5428,0.0312 Z M90.5506,-0.343 l21.25,7.218 h3.3125 v-6.875 q-5.5625,-0.1639 -11.8438,-0.2535 q-6.2812,-0.0896 -12.7188,-0.0896 Z" fill="#D3D3D3" transform="matrix(1,0,0,-1,1,275)"/>
  <path d="M15.0625,-0.125 l-16.3125,0.125 v6.875 h3.4375 q-0.25,0.5 -0.625,1.8125 q-0.375,1.3125 -0.5625,1.875 q-0.1875,0.625 0,0.9062 q0.1875,0.2812 0.6875,0.5312 q1.25,0.5625 1.9688,1.5312 q0.7188,0.9688 1.7188,2.6562 q0.3125,0.5625 0.8438,0.5625 q0.5312,0 0.6562,-0.6875 q0.6875,-3.25 1.1875,-5 q0.5,-1.75 1.5625,-2.3125 q-0.375,0.875 -0.6562,1.875 q-0.2812,1 -0.3438,1.875 q0,0.4375 0.2812,0.6875 q0.2812,0.25 0.5938,0.4375 q1.25,0.625 2.1562,1.5625 q0.9062,0.9375 1.6562,2.8125 q0.1875,0.4375 0.5625,0.5 q0.375,0.0625 0.5,-0.4375 q0.5625,-1.5625 0.9062,-3.4062 q0.3438,-1.8438 0.7812,-3.4375 q0.4375,-1.5938 1.125,-2.4062 q-0.125,1 -0.3125,2.3438 q-0.1875,1.3438 -0.375,2.5625 q-0.1875,1.2188 -0.3125,1.7188 q-0.125,0.5 0.0312,0.75 q0.1562,0.25 0.4688,0.4375 q0.1875,0.125 0.25,0.1875 q1,0.6875 2.0312,1.9688 q1.0312,1.2812 1.4062,2.7812 q0.1875,0.75 0.6562,0.8438 q0.4688,0.0938 0.6562,-0.7812 q0.25,-1.1875 0.5938,-3.375 q0.3438,-2.1875 0.6875,-4.7188 q0.3438,-2.5312 0.5312,-4.9375 q0.1875,-2.4062 0.125,-4.0938 q-0.0625,-1.1875 -0.7812,-2.2812 q-0.7188,-1.0938 -2.5625,-1.7188 q-1.8438,-0.625 -5.2188,-0.625 Z" fill="#D3D3D3" transform="matrix(1,0,0,-1,115,275)"/>
  <path d="" fill="#D3D3D3" transform="matrix(1,0,0,-1,139,275)"/>
  <path d="M4.0625,0 q-2.3125,0 -3.1562,0.9062 q-0.8438,0.9062 -0.9062,2.5312 q-0.125,4.3125 -0.1875,9.1875 q-0.0625,4.875 -0.1562,9.6562 q-0.0938,4.7812 -0.25,8.9062 q-0.1562,4.125 -0.4062,6.9375 q0,0.25 -0.0312,0.4375 q-0.0312,0.1875 -0.0312,0.375 q-0.25,2.625 -0.2188,3.6562 q0.0312,1.0312 0.7812,1.5312 q1.25,0.75 2.3438,2.0312 q1.0938,1.2812 2.0938,2.9688 q0.3125,0.5 0.8125,0.4375 q0.5,-0.0625 0.5,-1 q0,-3 0.0625,-6.7812 q0.0625,-3.7812 0.125,-7.7812 q0.0625,-4 0.1562,-7.6875 q0.0938,-3.6875 0.1562,-6.5312 q0.0625,-2.8438 0.125,-4.3438 q0.1875,-3.5 0.3125,-5.375 q0.125,-1.875 0.3438,-2.5312 q0.2188,-0.6562 0.5938,-0.6562 v-6.875 h-3.0625 Z" fill="#D3D3D3" transform="matrix(1,0,0,-1,164,275)"/>
  <path d="M-1.4375,0 v12 h1.1875 q-0.0625,-2.3125 2.2812,-3.75 q2.3438,-1.4375 6.0938,-1.75 v-2.8125 l-9.5625,-3.6875 Z" fill="#D3D3D3" transform="matrix(1,0,0,-1,170,275)"/>
  <path d="M-1.25,0 v6.875 h6.75 q-2.1875,1.625 -4.375,3.9375 q-0.5,0.5 -0.5312,0.8438 q-0.0312,0.3438 0.5312,0.7188 q0.9375,0.625 2.1875,1.9688 q1.25,1.3438 2.3125,2.9688 q0.1875,0.3125 0.625,0.375 q0.4375,0.0625 0.8125,-0.375 q3.375,-3.875 7.4375,-6.0312 q4.0625,-2.1562 8.6875,-3.125 q4.625,-0.9688 9.6875,-1.1875 q5.0625,-0.2188 10.375,-0.2188 q0.5,0 0.6562,-0.2812 q0.1562,-0.2812 -0.1562,-0.7188 q-1,-1.5 -2.0312,-2.5625 q-1.0312,-1.0625 -2.0938,-1.9375 q-0.5625,-0.5 -1.6875,-0.6875 q-1.125,-0.1875 -1.9375,-0.1875 q-3,0 -7.375,-0.0625 q-4.375,-0.0625 -9.1875,-0.125 q-3.875,-0.0625 -7.6875,-0.0938 q-3.8125,-0.0312 -7.1875,-0.0625 q-3.375,-0.0312 -5.8125,-0.0312 Z" fill="#D3D3D3" transform="matrix(1,0,0,-1,170,275)"/>
  <path d="" fill="#D3D3D3" transform="matrix(1,0,0,-1,214,275)"/>
  <path d="M14.25,-7.5625 q-4.1875,-0.0625 -7.875,0.9688 q-3.6875,1.0312 -5.6875,2.3438 q-0.75,0.5 -0.6562,0.9375 q0.0938,0.4375 0.7188,0.6875 q1.4375,0.5 2.6562,1.8438 q1.2188,1.3438 2.1562,2.5312 q0.375,0.5 1.125,0.0625 q1.75,-0.9375 4.375,-1.5938 q2.625,-0.6562 5.1562,-0.9375 q2.5312,-0.2812 3.9688,-0.0938 q0.5,0.0625 0.4062,0.4688 q-0.0938,0.4062 -0.4688,0.4062 q-1.5,-0.0625 -3.5,0.1562 q-2,0.2188 -3.9375,0.7188 q-1.9375,0.5 -3.375,1.25 q-0.6875,0.375 -0.5938,0.9062 q0.0938,0.5312 0.4688,0.8438 q0.875,0.875 2.125,2.1562 q1.25,1.2812 2.5312,2.6875 q1.2812,1.4062 2.375,2.5938 q1.0938,1.1875 1.7188,1.8125 q0.25,0.25 0.4062,0.4062 q0.1562,0.1562 0.4062,0.1562 q0.3125,0 0.9375,-0.4375 q2.0625,-1.375 4,-3.7188 q1.9375,-2.3438 3.25,-5.125 q1.3125,-2.7812 1.375,-5.5312 q0.0625,-1.6875 -0.625,-3.3438 q-0.6875,-1.6562 -3.125,-2.3438 q-2.0625,-0.625 -4.7188,-0.6875 q-2.6562,-0.0625 -5.5938,-0.125 Z" fill="#D3D3D3" transform="matrix(1,0,0,-1,239,275)"/>
  <path d="M15.0625,-0.125 l-16.3125,0.125 v6.875 h3.4375 q-0.25,0.5 -0.625,1.8125 q-0.375,1.3125 -0.5625,1.875 q-0.1875,0.625 0,0.9062 q0.1875,0.2812 0.6875,0.5312 q1.25,0.5625 1.9688,1.5312 q0.7188,0.9688 1.7188,2.6562 q0.3125,0.5625 0.8438,0.5625 q0.5312,0 0.6562,-0.6875 q0.6875,-3.25 1.1875,-5 q0.5,-1.75 1.5625,-2.3125 q-0.375,0.875 -0.6562,1.875 q-0.2812,1 -0.3438,1.875 q0,0.4375 0.2812,0.6875 q0.2812,0.25 0.5938,0.4375 q1.25,0.625 2.1562,1.5625 q0.9062,0.9375 1.6562,2.8125 q0.1875,0.4375 0.5625,0.5 q0.375,0.0625 0.5,-0.4375 q0.5625,-1.5625 0.9062,-3.4062 q0.3438,-1.8438 0.7812,-3.4375 q0.4375,-1.5938 1.125,-2.4062 q-0.125,1 -0.3125,2.3438 q-0.1875,1.3438 -0.375,2.5625 q-0.1875,1.2188 -0.3125,1.7188 q-0.125,0.5 0.0312,0.75 q0.1562,0.25 0.4688,0.4375 q0.1875,0.125 0.25,0.1875 q1,0.6875 2.0312,1.9688 q1.0312,1.2812 1.4062,2.7812 q0.1875,0.75 0.6562,0.8438 q0.4688,0.0938 0.6562,-0.7812 q0.25,-1.1875 0.5938,-3.375 q0.3438,-2.1875 0.6875,-4.7188 q0.3438,-2.5312 0.5312,-4.9375 q0.1875,-2.4062 0.125,-4.0938 q-0.0625,-1.1875 -0.7812,-2.2812 q-0.7188,-1.0938 -2.5625,-1.7188 q-1.8438,-0.625 -5.2188,-0.625 Z" fill="#D3D3D3" transform="matrix(1,0,0,-1,264,275)"/>
  <path d="" fill="#D3D3D3" transform="matrix(1,0,0,-1,288,275)"/>
  <path d="M14.625,-25.1875 q-1.5625,-0.625 -3.7812,-0.875 q-2.2188,-0.25 -4.5938,-0.0625 q-2.375,0.1875 -4.5312,0.7812 q-2.1562,0.5938 -3.5938,1.5938 q-0.5625,0.375 -0.6562,0.875 q-0.0938,0.5 0.5938,0.75 q1.125,0.5 2.4062,1.8438 q1.2812,1.3438 2.5938,3.2812 q0.1875,0.3125 0.4375,0.25 q0.25,-0.0625 0.4375,-0.1875 q1.3125,-0.6875 3.0625,-1.125 q1.75,-0.4375 5.0625,-0.375 q0.125,3.5625 0.125,6.5312 q0,2.9688 -0.0625,5.2812 q0,0.4375 0,0.625 q-0.0625,3.8125 -1.3438,5.6562 q-1.2812,1.8438 -3.75,2.6875 q-2.4688,0.8438 -6.1562,1.5938 q-0.8125,0.1875 -0.8438,0.7188 q-0.0312,0.5312 0.7188,0.7188 q2.1875,0.625 3.8438,2.4375 q1.6562,1.8125 2.2812,4.25 q0.125,0.5 0.4375,0.75 q0.3125,0.25 0.9375,-0.0625 q3.5,-1.9375 5.5,-3.875 q2,-1.9375 2.9062,-4.3438 q0.9062,-2.4062 0.9688,-5.9062 q0.0625,-2.25 0.0625,-5.0938 q0,-2.8438 -0.0312,-5.5938 q-0.0312,-2.75 -0.0938,-4.875 q0,-0.5 0,-0.75 q0,-1.3125 -0.2812,-2.875 q-0.2812,-1.5625 -0.9062,-2.8438 q-0.625,-1.2812 -1.75,-1.7812 Z" fill="#D3D3D3" transform="matrix(1,0,0,-1,313,275)"/>
  <path d="M14.375,-2.125 q-4.8125,0 -7.9375,1.125 q-3.125,1.125 -4.7812,3.0938 q-1.6562,1.9688 -2.0938,4.4062 q-0.4375,2.8125 0.2812,5.625 q0.7188,2.8125 2.5,5.1875 q1.7812,2.375 4.4375,3.8125 q2.6562,1.4375 6.0312,1.4375 q2.9375,0 5.1875,-1.6875 q2.25,-1.6875 3.7812,-4.3125 q1.5312,-2.625 2.3125,-5.4688 q0.7812,-2.8438 0.7812,-5.2188 q0,-3.125 -1.0312,-4.875 q-1.0312,-1.75 -3.3438,-2.4062 q-2.3125,-0.6562 -6.125,-0.7188 Z M12.75,9.25 q0.75,0 0.75,0.8125 q0,0.3125 -0.2188,0.5312 q-0.2188,0.2188 -0.5312,0.2188 q-0.8125,0 -0.8125,-0.75 q0,-0.8125 0.8125,-0.8125 Z" fill="#D3D3D3" transform="matrix(1,0,0,-1,329,275)"/>
  <path d="" fill="#D3D3D3" transform="matrix(1,0,0,-1,354,275)"/>
  <path d="M16.25,-3.5625 q-3.25,-0.125 -6.375,0.3125 q-3.125,0.4375 -5.5938,1.375 q-2.4688,0.9375 -3.9062,2.375 q-0.625,0.6875 -0.1875,1.0625 q0.4375,0.375 0.9375,0.375 q0.6875,0 1.6875,0.6875 q1,0.6875 1.9375,1.6562 q0.9375,0.9688 1.3125,1.6562 q0.3125,0.5 0.9062,0.3125 q0.5938,-0.1875 1.0938,-0.5 q0.0625,-0.0625 0.125,-0.0625 q1.9375,-1.125 4.1875,-1.5938 q2.25,-0.4688 4.4375,-0.5312 q2.1875,-0.0625 3.9688,0.125 q1.7812,0.1875 2.7812,0.375 q0.75,0.125 0.7188,0.6875 q-0.0312,0.5625 -0.6562,0.4375 q-4.4375,-0.8125 -8.2188,-0.5 q-3.7812,0.3125 -6.0312,2.3438 q-2.25,2.0312 -2.25,6.3438 q0,3.25 1.5,5.9062 q1.5,2.6562 3.9688,4.2812 q2.4688,1.625 5.4688,1.625 q2.625,0 4.8125,-1.4062 q2.1875,-1.4062 3.8438,-3.6562 q1.6562,-2.25 2.7812,-4.8438 q1.125,-2.5938 1.7188,-5.0312 q0.5938,-2.4375 0.5938,-4.125 q0,-1.375 -0.2188,-2.5312 q-0.2188,-1.1562 -0.9062,-2.0938 q-1.1875,-1.75 -3.6875,-2.8438 q-2.5,-1.0938 -5.375,-1.5938 q-2.875,-0.5 -5.375,-0.625 Z M17.3125,15.1875 q0.75,0 0.75,0.8125 q0,0.3125 -0.2188,0.5312 q-0.2188,0.2188 -0.5312,0.2188 q-0.8125,0 -0.8125,-0.75 q0,-0.8125 0.8125,-0.8125 Z" fill="#D3D3D3" transform="matrix(1,0,0,-1,379,275)"/>
  <path d="M7.1562,0.0125 q-1.95,0 -3.4531,1.5031 q-1.5031,1.5031 -1.5031,3.4531 q0,2.0312 1.5031,3.4937 q1.5031,1.4625 3.4531,1.4625 q2.0312,0 3.4937,-1.4625 q1.4625,-1.4625 1.4625,-3.4937 q0,-1.95 -1.4625,-3.4531 q-1.4625,-1.5031 -3.4937,-1.5031 Z M17.7812,0.0125 q-1.95,0 -3.4531,1.5031 q-1.5031,1.5031 -1.5031,3.4531 q0,2.0312 1.5031,3.4937 q1.5031,1.4625 3.4531,1.4625 q2.0312,0 3.4937,-1.4625 q1.4625,-1.4625 1.4625,-3.4937 q0,-1.95 -1.4625,-3.4531 q-1.4625,-1.5031 -3.4937,-1.5031 Z M12.4687,9.3875 q-1.95,0 -3.4531,1.5031 q-1.5031,1.5031 -1.5031,3.4531 q0,2.0312 1.5031,3.4937 q1.5031,1.4625 3.4531,1.4625 q2.0312,0 3.4937,-1.4625 q1.4625,-1.4625 1.4625,-3.4937 q0,-1.95 -1.4625,-3.4531 q-1.4625,-1.5031 -3.4937,-1.5031 Z" fill="#FFE2A1" transform="matrix(1,0,0,-1,411,275)"/>
  <path d="M7.1561,0.775 q-1.65,0 -2.9218,1.2718 q-1.2718,1.2718 -1.2718,2.9218 q0,1.7187 1.2718,2.9562 q1.2718,1.2375 2.9218,1.2375 q1.7187,0 2.9562,-1.2375 q1.2375,-1.2375 1.2375,-2.9562 q0,-1.65 -1.2375,-2.9218 q-1.2375,-1.2718 -2.9562,-1.2718 Z M12.4686,10.15 q-1.65,0 -2.9218,1.2718 q-1.2718,1.2718 -1.2718,2.9218 q0,1.7187 1.2718,2.9562 q1.2718,1.2375 2.9218,1.2375 q1.7187,0 2.9562,-1.2375 q1.2375,-1.2375 1.2375,-2.9562 q0,-1.65 -1.2375,-2.9218 q-1.2375,-1.2718 -2.9562,-1.2718 Z M17.7811,0.775 q-1.65,0 -2.9218,1.2718 q-1.2718,1.2718 -1.2718,2.9218 q0,1.7187 1.2718,2.9562 q1.2718,1.2375 2.9218,1.2375 q1.7187,0 2.9562,-1.2375 q1.2375,-1.2375 1.2375,-2.9562 q0,-1.65 -1.2375,-2.9218 q-1.2375,-1.2718 -2.9562,-1.2718 Z" fill="#A67300" transform="matrix(1,0,0,-1,411,275)"/>
  <path d="M6.7812,10.2 q-0.45,0 -0.7968,0.3469 q-0.3469,0.3469 -0.3469,0.7968 q0,0.4687 0.3469,0.8062 q0.3469,0.3375 0.7968,0.3375 q0.4687,0 0.8062,-0.3375 q0.3375,-0.3375 0.3375,-0.8062 q0,-0.45 -0.3375,-0.7968 q-0.3375,-0.3469 -0.8062,-0.3469 Z M12.4687,7.0125 q-0.45,0 -0.7968,0.3469 q-0.3469,0.3469 -0.3469,0.7968 q0,0.4687 0.3469,0.8062 q0.3469,0.3375 0.7968,0.3375 q0.4687,0 0.8062,-0.3375 q0.3375,-0.3375 0.3375,-0.8062 q0,-0.45 -0.3375,-0.7968 q-0.3375,-0.3469 -0.8062,-0.3469 Z M18.0312,10.2 q-0.45,0 -0.7968,0.3469 q-0.3469,0.3469 -0.3469,0.7968 q0,0.4687 0.3469,0.8062 q0.3469,0.3375 0.7968,0.3375 q0.4687,0 0.8062,-0.3375 q0.3375,-0.3375 0.3375,-0.8062 q0,-0.45 -0.3375,-0.7968 q-0.3375,-0.3469 -0.8062,-0.3469 Z M12.4687,0.45 q-0.45,0 -0.7968,0.3469 q-0.3469,0.3469 -0.3469,0.7968 q0,0.4687 0.3469,0.8062 q0.3469,0.3375 0.7968,0.3375 q0.4687,0 0.8062,-0.3375 q0.3375,-0.3375 0.3375,-0.8062 q0,-0.45 -0.3375,-0.7968 q-0.3375,-0.3469 -0.8062,-0.3469 Z" fill="#E22E00" transform="matrix(1,0,0,-1,411,275)"/>
  <path d="M10.6875,-0.3007 q-3.8125,0.0625 -6.4375,0.4062 q-2.625,0.3438 -3.625,1.1562 q-0.6875,0.5 -0.625,1 q0.0625,0.5 0.8125,0.5 q0.375,0 0.7188,0.2188 q0.3438,0.2188 0.5938,0.4688 q0.5625,0.5625 1.4062,1.6562 q0.8438,1.0938 1.5312,2.2188 q0.6875,1.0625 2.1875,0.1875 q0.6875,-0.375 2.125,-0.5625 q1.4375,-0.1875 3.0625,-0.3125 q0.4375,0 1.7615,-0.0312 q1.324,-0.0312 3.3852,-0.0625 q2.0612,-0.0312 4.7846,-0.0625 q2.7234,-0.0312 5.9715,-0.0625 q3.2481,-0.0312 6.9146,-0.0625 q3.6665,-0.0312 7.6393,-0.0312 q3.9728,0 8.1144,-0.0312 q4.1416,-0.0312 8.3144,-0.0312 q4.1728,0 8.3331,0 q4.1603,0 8.1081,0.0312 q3.9478,0.0312 7.6334,0.0625 q3.6856,0.0312 6.9656,0.0625 q3.28,0.0312 6.0346,0.0938 q2.7546,0.0625 4.8599,0.1562 q2.1053,0.0938 3.4178,0.1562 q1.375,0.125 1.625,0.3438 q0.25,0.2188 0.125,0.5938 q-0.0625,0.125 -0.2188,0.25 q-0.1562,0.125 -0.6562,0.0625 q-0.75,-0.0625 -2.4178,-0.125 q-1.6678,-0.0625 -4.1352,-0.125 q-2.4675,-0.0625 -5.5659,-0.125 q-3.0984,-0.0625 -6.7215,-0.0938 q-3.6231,-0.0312 -7.6334,-0.0625 q-4.0103,-0.0312 -8.2643,-0.0625 q-4.2541,-0.0312 -8.6769,-0.0312 q-4.4228,0 -8.8144,0 q-4.3916,0 -8.6456,0.0312 q-4.254,0.0312 -8.2643,0.0312 q-4.0103,0 -7.6275,0.0625 q-3.6172,0.0625 -6.6903,0.125 q-3.0731,0.0625 -5.5093,0.125 q-2.4362,0.0625 -4.104,0.1562 q-1.6678,0.0938 -2.4178,0.2188 q-1.5625,0.1875 -2.1562,0.6875 q-0.5938,0.5 0.0312,1.375 q2.125,2.8125 4.1875,5.6562 q2.0625,2.8438 3.8125,5.7812 q0.3125,0.5 0.7188,0.3125 q0.4062,-0.1875 0.1562,-0.75 q-0.25,-0.5625 -0.7812,-1.75 q-0.5312,-1.1875 -1.0312,-2.3438 q-0.5,-1.1562 -0.75,-1.7812 q0.875,-0.0625 2.6053,-0.1562 q1.7303,-0.0938 4.1665,-0.1562 q2.4362,-0.0625 5.5034,-0.0938 q3.0672,-0.0312 6.5965,-0.0625 q3.5294,-0.0312 7.4459,-0.0312 q3.9165,0 8.0768,0 q4.1603,0 8.4581,0 q4.2978,0 8.6269,0 q4.3291,0 8.5519,0.0312 q4.2228,0.0312 8.2018,0.0625 q3.979,0.0312 7.6334,0.0625 q3.6544,0.0312 6.8719,0.0625 q3.2175,0.0312 5.8471,0.0625 q2.6296,0.0312 4.5474,0.0938 q1.9178,0.0625 3.0428,0.0625 q1.125,0.0625 1.5312,-0.4688 q0.4062,-0.5312 0.9688,-1.8438 q0.75,-1.6875 1.6562,-4.0625 q0.9062,-2.375 0.9688,-5.4375 q0.0625,-1.25 -1.0312,-2.125 q-1.0938,-0.875 -2.2188,-1 q-1.375,-0.125 -3.5428,-0.2188 q-2.1678,-0.0938 -4.9477,-0.1562 q-2.78,-0.0625 -6.0971,-0.125 q-3.3172,-0.0625 -7.0653,-0.0938 q-3.7481,-0.0312 -7.7896,-0.0938 q-4.0415,-0.0625 -8.3268,-0.0625 q-4.2853,0 -8.6456,-0.0312 q-4.3603,-0.0312 -8.7519,-0.0312 q-4.3916,0 -8.6769,0 q-4.2853,0 -8.3268,0 q-4.0415,0 -7.7896,0 q-3.7481,0 -7.0653,0.0312 q-3.3172,0.0312 -6.0971,0.0312 q-2.78,0 -4.9477,0.0312 q-2.1678,0.0312 -3.5428,0.0312 Z M90.5506,-0.343 l21.25,7.218 h3.3125 v-6.875 q-5.5625,-0.1639 -11.8438,-0.2535 q-6.2812,-0.0896 -12.7188,-0.0896 Z" fill="#D3D3D3" transform="matrix(1,0,0,-1,436,275)"/>
  <path d="M-3.75,0 v14.625 h0.8125 q0.1875,-0.25 0.4062,-0.5625 q0.2188,-0.3125 0.5312,-0.8125 q1.3125,-2 2.9688,-3.6562 q1.6562,-1.6562 3.4688,-3.0938 v-6.5 h-8.1875 Z" fill="#D3D3D3" transform="matrix(1,0,0,-1,551,275)"/>
  <path d="M-1.25,0 v6.875 h5.6875 q-1.5,1.375 -2.5,3.2188 q-1,1.8438 -1,4.3438 q0,3.375 1.7188,5.9375 q1.7188,2.5625 4.4062,4 q2.6875,1.4375 5.5625,1.4375 q2.9375,0 5.4062,-1.7188 q2.4688,-1.7188 3.9688,-4.8438 q1.5,-3.125 1.5,-7.5 q0,-0.875 -0.0312,-2.125 q-0.0312,-1.25 -0.0938,-2.75 h0.1875 v-6.875 h-24.8125 Z M13,14.875 q0.75,0 0.75,0.8125 q0,0.3125 -0.2188,0.5312 q-0.2188,0.2188 -0.5312,0.2188 q-0.8125,0 -0.8125,-0.75 q0,-0.8125 0.8125,-0.8125 Z" fill="#D3D3D3" transform="matrix(1,0,0,-1,550,275)"/>
  <path d="M-1.5,0 v14.8125 h1.125 q0.0625,-2.6875 1.4375,-4.25 q1.375,-1.5625 3.1875,-2.2188 q1.8125,-0.6562 3.125,-0.6562 v-7.6875 h-8.875 Z" fill="#D3D3D3" transform="matrix(1,0,0,-1,574,275)"/>
  <path d="M-1.25,0 v6.875 h4.125 q-1.4375,1.3125 -2.7812,2.7812 q-1.3438,1.4688 -2.6562,2.8438 q-0.375,0.4375 -0.25,0.9688 q0.125,0.5312 0.5625,0.7812 q1.1875,0.8125 2.3125,1.9688 q1.125,1.1562 2.3125,3.0938 q0.25,0.375 0.625,0.2812 q0.375,-0.0938 0.625,-0.4062 q0.6875,-1 1.5625,-1.9375 q1.9375,1.625 3.3438,3.1562 q1.4062,1.5312 2.6562,3.1562 q0.5,0.6875 0.9062,0.6562 q0.4062,-0.0312 0.4688,-0.7188 q0.5,-2.9375 0.7188,-6.5 q0.2188,-3.5625 0.2812,-7.1875 q0.0625,-1.0625 0.25,-2 q0.1875,-0.9375 0.75,-0.9375 v-6.875 h-15.8125 Z" fill="#D3D3D3" transform="matrix(1,0,0,-1,578,275)"/>
  <path d="M-1.5,2.8125 v9.8125 h1.1875 q0.0625,-2.3125 1.0312,-3.25 q0.9688,-0.9375 1.8438,-1.25 v-5.3125 h-4.0625 Z" fill="#D3D3D3" transform="matrix(1,0,0,-1,592,275)"/>
  <path d="M-1.25,0 v6.875 h2.375 q-0.0625,3 -0.2188,7.4375 q-0.1562,4.4375 -0.4062,9.4375 q-0.25,5 -0.5,9.8125 q-0.25,4.8125 -0.5,8.5625 q0,0.125 -0.0625,0.375 q-0.0625,0.375 -0.0312,0.875 q0.0312,0.5 0.5938,1 q0.5625,0.4375 1.4375,1.2188 q0.875,0.7812 1.6875,1.6562 q0.8125,0.875 1.1875,1.5625 q0.5,0.875 1,0.6562 q0.5,-0.2188 0.5625,-1.2812 q0.1875,-3.6875 0.375,-8.0625 q0.1875,-4.375 0.4062,-9 q0.2188,-4.625 0.4062,-9.0312 q0.1875,-4.4062 0.375,-8.25 q0.1875,-3.8438 0.25,-6.5938 q0.125,-3.375 -0.5625,-4.875 q-0.6875,-1.5 -2.1875,-1.9062 q-1.5,-0.4062 -3.8125,-0.4688 h-2.375 Z" fill="#D3D3D3" transform="matrix(1,0,0,-1,592,275)"/>
  <path d="M19.4375,-3 q-3.8125,0.0625 -7.2812,1.1875 q-3.4688,1.125 -6.1875,3.4375 q-2.7188,2.3125 -4.3125,5.9688 q-1.5938,3.6562 -1.6562,8.7812 q0,2.625 -0.0625,5.7812 q-0.0625,3.1562 -0.1562,6.4062 q-0.0938,3.25 -0.25,6.1562 q-0.1562,2.9062 -0.3438,4.9062 q-0.1875,1.4375 -0.3125,2.3125 q-0.125,0.875 0.3125,1.1875 q0.6875,0.4375 1.6562,1.2812 q0.9688,0.8438 1.8438,1.8438 q0.875,1 1.25,1.8125 q0.3125,0.6875 0.7812,0.6875 q0.4688,0 0.6562,-1.25 q0.3125,-2.25 0.375,-5.375 q0.0625,-3.125 0.0625,-6.6875 q0,-3.5625 0,-7.1562 q0,-3.5938 0.1875,-6.7188 q0.1875,-3.4375 1.3125,-6.25 q1.125,-2.8125 3.0938,-4.9062 q1.9688,-2.0938 4.5312,-3.4688 q3.25,-1.6875 7.3125,-2.1875 q4.0625,-0.5 8.625,0.3125 q4.5625,0.8125 9.25,2.875 q0.5625,0.3125 0.8438,0.125 q0.2812,-0.1875 0.0312,-0.75 q-2.3125,-5.125 -7.9688,-7.75 q-5.6562,-2.625 -13.5938,-2.5625 Z" fill="#D3D3D3" transform="matrix(1,0,0,-1,0.5,218)"/>
  <path d="" fill="#D3D3D3" transform="matrix(1,0,0,-1,41.5,218)"/>
  <path d="M24.8125,-16 q-2,-0.5 -5.1562,-0.8438 q-3.1562,-0.3438 -6.75,-0.4688 q-3.5938,-0.125 -6.9688,0.125 q-3.375,0.25 -5.9688,0.9688 q-2.5938,0.7188 -3.7188,1.9688 q-0.5,0.625 -0.375,1.0938 q0.125,0.4688 0.9375,0.4688 q0.8125,0 2,1.3125 q1.1875,1.3125 1.9375,2.5625 q0.3125,0.5 0.7188,0.8438 q0.4062,0.3438 0.9688,0.0312 q2.375,-1.375 6.5625,-2 q4.1875,-0.625 10.4375,0.1875 q-0.0625,0.0625 -0.125,0.25 q-0.0625,0.1875 -0.2188,0.375 q-0.1562,0.1875 -0.6562,0.125 q-9.0625,-0.8125 -13.75,1.6562 q-4.6875,2.4688 -4.6875,9.2188 q0,3.0625 1.4375,5.75 q1.4375,2.6875 3.7812,4.3438 q2.3438,1.6562 5.0938,1.5938 q1.3125,0 2.25,-0.9062 q0.9375,-0.9062 1.7188,-2.1562 q0.7812,-1.25 1.5625,-2.2812 q0.7812,-1.0312 1.7812,-1.3438 v-6.875 q-0.4375,0 -0.875,0 q-0.4375,0 -0.8125,0 q-2.6875,-0.0625 -4.4688,0.1562 q-1.7812,0.2188 -3.1562,1.4688 q-0.5,0.5 -0.7188,0.25 q-0.2188,-0.25 0.0938,-0.8125 q0.8125,-1.25 3.0312,-1.8125 q2.2188,-0.5625 5.3438,-0.5938 q3.125,-0.0312 6.5,0.1562 q1,0.0625 1.2812,-0.125 q0.2812,-0.1875 0.5938,-0.6875 q0.0625,-0.0625 0.0625,-0.125 q0.6875,-1.1875 1.5938,-3.0938 q0.9062,-1.9062 1.3438,-4.4062 q0.4375,-2.6875 -0.1562,-4.2812 q-0.5938,-1.5938 -2.4688,-2.0938 Z" fill="#D3D3D3" transform="matrix(1,0,0,-1,66.5,218)"/>
  <path d="M-6.125,0.375 l3.625,10.25 q1.3125,-1.5 3.4062,-2.6562 q2.0938,-1.1562 5.7812,-1.0938 q2.375,0.0625 4.125,0.2188 q1.75,0.1562 2.1875,0.4688 q0.5,0.3125 0.4688,0.7188 q-0.0312,0.4062 -0.5312,0.2812 q-1.5,-0.25 -3.8125,-0.4688 q-2.3125,-0.2188 -4.7188,0.0938 q-2.4062,0.3125 -4.1562,1.5 q-1.5625,1.0625 -2.5625,2.7812 q-1,1.7188 -1,3.7812 q0,2.125 0.8438,4.3438 q0.8438,2.2188 2.375,4.0938 q1.5312,1.875 3.625,3.0312 q2.0938,1.1562 4.5938,1.1562 q2.6875,0 4.9688,-1.8438 q2.2812,-1.8438 3.9375,-4.9688 q1.6562,-3.125 2.5625,-6.9688 q0.9062,-3.8438 0.9062,-7.9062 q0,-2 -1.6875,-3.4062 q-1.6875,-1.4062 -4.375,-2.3125 q-2.6875,-0.9062 -5.8438,-1.3438 q-3.1562,-0.4375 -6.1562,-0.5 q-3,-0.0625 -5.3125,0.1562 q-2.3125,0.2188 -3.25,0.5938 Z M7.9375,17.9375 q0.75,0 0.75,0.8125 q0,0.3125 -0.2188,0.5312 q-0.2188,0.2188 -0.5312,0.2188 q-0.8125,0 -0.8125,-0.75 q0,-0.8125 0.8125,-0.8125 Z" fill="#D3D3D3" transform="matrix(1,0,0,-1,83.5,218)"/>
  <path d="" fill="#D3D3D3" transform="matrix(1,0,0,-1,104.5,218)"/>
  <path d="M9.9375,-0.3125 q-2.3125,0.0625 -4.75,0.2812 q-2.4375,0.2188 -4.5,0.8438 q-0.5,0.125 -0.6875,0.5625 q-0.1875,0.4375 0.4375,0.625 q1.125,0.3125 2.4062,1.6562 q1.2812,1.3438 2.4688,3.6562 q0.125,0.1875 0.5,0.2188 q0.375,0.0312 0.8125,-0.1562 q0.4375,-0.1875 1.1875,-0.4688 q0.75,-0.2812 3.25,-0.4062 q1.9931,-0.0625 4.3717,-0.125 q2.3786,-0.0625 5.1081,-0.125 q2.7294,-0.0625 5.7368,-0.0938 q3.0073,-0.0312 6.2196,-0.0938 q3.2123,-0.0625 6.5496,-0.0625 q3.3373,0 6.7302,-0.0312 q3.3929,-0.0312 6.7875,-0.0312 q3.3946,0 6.7199,0.0312 q3.3253,0.0312 6.4751,0.0312 q3.1498,0 6.0808,0.0625 q2.931,0.0625 5.5633,0.0938 q2.6323,0.0312 4.893,0.125 q2.2607,0.0938 4.1046,0.1562 q1.8439,0.0625 3.1564,0.1875 q-1.125,2.1875 -4.375,3.3125 q-0.5625,0.1875 -0.5938,0.7812 q-0.0312,0.5938 0.5938,0.6562 q1.625,0.125 3.5312,1.75 q1.9062,1.625 2.7812,4 q0.3125,0.875 0.6875,0.75 q0.375,-0.125 0.6875,-0.5 q1.375,-1.625 2.4375,-3.9375 q1.0625,-2.3125 1.6875,-4.625 q0.625,-2.3125 0.625,-3.9375 q0,-1.8125 -0.375,-2.8125 q-0.375,-1 -1.5938,-1.4688 q-1.2188,-0.4688 -3.7812,-0.5938 q-2.0625,-0.0625 -4.4689,-0.1562 q-2.4064,-0.0938 -5.0733,-0.1562 q-2.6669,-0.0625 -5.518,-0.125 q-2.8511,-0.0625 -5.9036,-0.0938 q-3.0526,-0.0312 -6.2058,-0.0625 q-3.1533,-0.0312 -6.4177,-0.0625 q-3.2644,-0.0312 -6.5359,-0.0312 q-3.2714,0 -6.5671,0 q-3.2957,0 -6.5393,0 q-3.2436,0 -6.3621,0.0312 q-3.1185,0.0312 -6.1259,0.0625 q-3.0073,0.0312 -5.834,0.0625 q-2.8267,0.0312 -5.4483,0.0938 q-2.6217,0.0625 -4.9342,0.125 Z" fill="#D3D3D3" transform="matrix(1,0,0,-1,129.5,218)"/>
  <path d="" fill="#D3D3D3" transform="matrix(1,0,0,-1,227.5,218)"/>
  <path d="M4.0625,0 q-2.3125,0 -3.1562,0.9062 q-0.8438,0.9062 -0.9062,2.5312 q-0.125,4.3125 -0.1875,9.1875 q-0.0625,4.875 -0.1562,9.6562 q-0.0938,4.7812 -0.25,8.9062 q-0.1562,4.125 -0.4062,6.9375 q0,0.25 -0.0312,0.4375 q-0.0312,0.1875 -0.0312,0.375 q-0.25,2.625 -0.2188,3.6562 q0.0312,1.0312 0.7812,1.5312 q1.25,0.75 2.3438,2.0312 q1.0938,1.2812 2.0938,2.9688 q0.3125,0.5 0.8125,0.4375 q0.5,-0.0625 0.5,-1 q0,-3 0.0625,-6.7812 q0.0625,-3.7812 0.125,-7.7812 q0.0625,-4 0.1562,-7.6875 q0.0938,-3.6875 0.1562,-6.5312 q0.0625,-2.8438 0.125,-4.3438 q0.1875,-3.5 0.3125,-5.375 q0.125,-1.875 0.3438,-2.5312 q0.2188,-0.6562 0.5938,-0.6562 v-6.875 h-3.0625 Z" fill="#D3D3D3" transform="matrix(1,0,0,-1,252.5,218)"/>
  <path d="M-1.5,2.8125 v9.8125 h1.1875 q0.0625,-2.3125 1.0312,-3.25 q0.9688,-0.9375 1.8438,-1.25 v-5.3125 h-4.0625 Z" fill="#D3D3D3" transform="matrix(1,0,0,-1,258.5,218)"/>
  <path d="M-1.25,0 v6.875 h2.4375 q-0.0625,2.625 -0.0938,4.25 q-0.0312,1.625 -0.1562,3.1875 q0,0.1875 -0.0625,0.625 q-0.0625,1.125 0,1.8438 q0.0625,0.7188 0.625,1.0938 q2.8125,1.875 4.8125,4.9375 q0.3125,0.5 0.5938,0.4062 q0.2812,-0.0938 0.2812,-0.5312 q0,-4.6875 0.4375,-9.0938 q0.4375,-4.4062 0.5,-9.0938 q0.0625,-1.625 -1.375,-3.0625 q-1.4375,-1.4375 -3.25,-1.4375 h-4.75 Z" fill="#D3D3D3" transform="matrix(1,0,0,-1,258.5,218)"/>
  <path d="" fill="#D3D3D3" transform="matrix(1,0,0,-1,266.5,218)"/>
  <path d="M4.0625,0 q-2.3125,0 -3.1562,0.9062 q-0.8438,0.9062 -0.9062,2.5312 q-0.125,4.3125 -0.1875,9.1875 q-0.0625,4.875 -0.1562,9.6562 q-0.0938,4.7812 -0.25,8.9062 q-0.1562,4.125 -0.4062,6.9375 q0,0.25 -0.0312,0.4375 q-0.0312,0.1875 -0.0312,0.375 q-0.25,2.625 -0.2188,3.6562 q0.0312,1.0312 0.7812,1.5312 q1.25,0.75 2.3438,2.0312 q1.0938,1.2812 2.0938,2.9688 q0.3125,0.5 0.8125,0.4375 q0.5,-0.0625 0.5,-1 q0,-3 0.0625,-6.7812 q0.0625,-3.7812 0.125,-7.7812 q0.0625,-4 0.1562,-7.6875 q0.0938,-3.6875 0.1562,-6.5312 q0.0625,-2.8438 0.125,-4.3438 q0.1875,-3.5 0.3125,-5.375 q0.125,-1.875 0.3438,-2.5312 q0.2188,-0.6562 0.5938,-0.6562 v-6.875 h-3.0625 Z" fill="#D3D3D3" transform="matrix(1,0,0,-1,291.5,218)"/>
  <path d="M-1.5,0 v13.25 h1.1875 q0,-1.5625 0.6562,-3.0625 q0.6562,-1.5 1.7188,-2.4375 q1.0625,-0.9375 2.25,-0.875 v-6.875 h-5.8125 Z" fill="#D3D3D3" transform="matrix(1,0,0,-1,297.5,218)"/>
  <path d="M-1.25,0 v6.875 h5.6875 q-1.5,1.375 -2.5,3.2188 q-1,1.8438 -1,4.3438 q0,3.375 1.7188,5.9375 q1.7188,2.5625 4.4062,4 q2.6875,1.4375 5.5625,1.4375 q2.9375,0 5.4062,-1.7188 q2.4688,-1.7188 3.9688,-4.8438 q1.5,-3.125 1.5,-7.5 q0,-0.875 -0.0312,-2.125 q-0.0312,-1.25 -0.0938,-2.75 h0.1875 v-6.875 h-24.8125 Z M13,14.875 q0.75,0 0.75,0.8125 q0,0.3125 -0.2188,0.5312 q-0.2188,0.2188 -0.5312,0.2188 q-0.8125,0 -0.8125,-0.75 q0,-0.8125 0.8125,-0.8125 Z" fill="#D3D3D3" transform="matrix(1,0,0,-1,297.5,218)"/>
  <path d="M-1.5,2.8125 v9.8125 h1.1875 q0.0625,-2.3125 1.0312,-3.25 q0.9688,-0.9375 1.8438,-1.25 v-5.3125 h-4.0625 Z" fill="#D3D3D3" transform="matrix(1,0,0,-1,321.5,218)"/>
  <path d="M-1.25,0 v6.875 h2.5625 q-0.0625,3 -0.1875,5.0625 q-0.125,2.0625 -0.25,3.5 q-0.0625,0.5 0.0938,0.7812 q0.1562,0.2812 0.7812,0.5938 q1.3125,0.75 2,1.875 q0.6875,1.125 2.125,3.25 q0.3125,0.375 0.7812,0.3125 q0.4688,-0.0625 0.5312,-0.9375 q0.1875,-2.4375 0.375,-5.1562 q0.1875,-2.7188 0.25,-6.3438 q0.0625,-1.0625 0.25,-2 q0.1875,-0.9375 0.75,-0.9375 v-6.875 h-10.0625 Z" fill="#D3D3D3" transform="matrix(1,0,0,-1,321.5,218)"/>
  <path d="M-1.5,2.8125 v9.8125 h1.1875 q0.0625,-2.3125 1.0312,-3.25 q0.9688,-0.9375 1.8438,-1.25 v-5.3125 h-4.0625 Z" fill="#D3D3D3" transform="matrix(1,0,0,-1,329.5,218)"/>
  <path d="M-1.25,0 v6.875 h2.375 q-0.0625,3 -0.2188,7.4375 q-0.1562,4.4375 -0.4062,9.4375 q-0.25,5 -0.5,9.8125 q-0.25,4.8125 -0.5,8.5625 q0,0.125 -0.0625,0.375 q-0.0625,0.375 -0.0312,0.875 q0.0312,0.5 0.5938,1 q0.5625,0.4375 1.4375,1.2188 q0.875,0.7812 1.6875,1.6562 q0.8125,0.875 1.1875,1.5625 q0.5,0.875 1,0.6562 q0.5,-0.2188 0.5625,-1.2812 q0.1875,-3.6875 0.375,-8.0625 q0.1875,-4.375 0.4062,-9 q0.2188,-4.625 0.4062,-9.0312 q0.1875,-4.4062 0.375,-8.25 q0.1875,-3.8438 0.25,-6.5938 q0.125,-3.375 -0.5625,-4.875 q-0.6875,-1.5 -2.1875,-1.9062 q-1.5,-0.4062 -3.8125,-0.4688 h-2.375 Z" fill="#D3D3D3" transform="matrix(1,0,0,-1,329.5,218)"/>
  <path d="" fill="#D3D3D3" transform="matrix(1,0,0,-1,337.5,218)"/>
  <path d="M19.4375,-3 q-3.8125,0.0625 -7.2812,1.1875 q-3.4688,1.125 -6.1875,3.4375 q-2.7188,2.3125 -4.3125,5.9688 q-1.5938,3.6562 -1.6562,8.7812 q0,2.625 -0.0625,5.7812 q-0.0625,3.1562 -0.1562,6.4062 q-0.0938,3.25 -0.25,6.1562 q-0.1562,2.9062 -0.3438,4.9062 q-0.1875,1.4375 -0.3125,2.3125 q-0.125,0.875 0.3125,1.1875 q0.6875,0.4375 1.6562,1.2812 q0.9688,0.8438 1.8438,1.8438 q0.875,1 1.25,1.8125 q0.3125,0.6875 0.7812,0.6875 q0.4688,0 0.6562,-1.25 q0.3125,-2.25 0.375,-5.375 q0.0625,-3.125 0.0625,-6.6875 q0,-3.5625 0,-7.1562 q0,-3.5938 0.1875,-6.7188 q0.1875,-3.4375 1.3125,-6.25 q1.125,-2.8125 3.0938,-4.9062 q1.9688,-2.0938 4.5312,-3.4688 q3.25,-1.6875 7.3125,-2.1875 q4.0625,-0.5 8.625,0.3125 q4.5625,0.8125 9.25,2.875 q0.5625,0.3125 0.8438,0.125 q0.2812,-0.1875 0.0312,-0.75 q-2.3125,-5.125 -7.9688,-7.75 q-5.6562,-2.625 -13.5938,-2.5625 Z" fill="#D3D3D3" transform="matrix(1,0,0,-1,362.5,218)"/>
  <path d="" fill="#D3D3D3" transform="matrix(1,0,0,-1,403.5,218)"/>
  <path d="M14.25,-7.5625 q-4.1875,-0.0625 -7.875,0.9688 q-3.6875,1.0312 -5.6875,2.3438 q-0.75,0.5 -0.6562,0.9375 q0.0938,0.4375 0.7188,0.6875 q1.4375,0.5 2.6562,1.8438 q1.2188,1.3438 2.1562,2.5312 q0.375,0.5 1.125,0.0625 q1.75,-0.9375 4.375,-1.5938 q2.625,-0.6562 5.1562,-0.9375 q2.5312,-0.2812 3.9688,-0.0938 q0.5,0.0625 0.4062,0.4688 q-0.0938,0.4062 -0.4688,0.4062 q-1.5,-0.0625 -3.5,0.1562 q-2,0.2188 -3.9375,0.7188 q-1.9375,0.5 -3.375,1.25 q-0.6875,0.375 -0.5938,0.9062 q0.0938,0.5312 0.4688,0.8438 q0.875,0.875 2.125,2.1562 q1.25,1.2812 2.5312,2.6875 q1.2812,1.4062 2.375,2.5938 q1.0938,1.1875 1.7188,1.8125 q0.25,0.25 0.4062,0.4062 q0.1562,0.1562 0.4062,0.1562 q0.3125,0 0.9375,-0.4375 q2.0625,-1.375 4,-3.7188 q1.9375,-2.3438 3.25,-5.125 q1.3125,-2.7812 1.375,-5.5312 q0.0625,-1.6875 -0.625,-3.3438 q-0.6875,-1.6562 -3.125,-2.3438 q-2.0625,-0.625 -4.7188,-0.6875 q-2.6562,-0.0625 -5.5938,-0.125 Z" fill="#D3D3D3" transform="matrix(1,0,0,-1,428.5,218)"/>
  <path d="M15.0625,-0.125 l-16.3125,0.125 v6.875 h3.4375 q-0.25,0.5 -0.625,1.8125 q-0.375,1.3125 -0.5625,1.875 q-0.1875,0.625 0,0.9062 q0.1875,0.2812 0.6875,0.5312 q1.25,0.5625 1.9688,1.5312 q0.7188,0.9688 1.7188,2.6562 q0.3125,0.5625 0.8438,0.5625 q0.5312,0 0.6562,-0.6875 q0.6875,-3.25 1.1875,-5 q0.5,-1.75 1.5625,-2.3125 q-0.375,0.875 -0.6562,1.875 q-0.2812,1 -0.3438,1.875 q0,0.4375 0.2812,0.6875 q0.2812,0.25 0.5938,0.4375 q1.25,0.625 2.1562,1.5625 q0.9062,0.9375 1.6562,2.8125 q0.1875,0.4375 0.5625,0.5 q0.375,0.0625 0.5,-0.4375 q0.5625,-1.5625 0.9062,-3.4062 q0.3438,-1.8438 0.7812,-3.4375 q0.4375,-1.5938 1.125,-2.4062 q-0.125,1 -0.3125,2.3438 q-0.1875,1.3438 -0.375,2.5625 q-0.1875,1.2188 -0.3125,1.7188 q-0.125,0.5 0.0312,0.75 q0.1562,0.25 0.4688,0.4375 q0.1875,0.125 0.25,0.1875 q1,0.6875 2.0312,1.9688 q1.0312,1.2812 1.4062,2.7812 q0.1875,0.75 0.6562,0.8438 q0.4688,0.0938 0.6562,-0.7812 q0.25,-1.1875 0.5938,-3.375 q0.3438,-2.1875 0.6875,-4.7188 q0.3438,-2.5312 0.5312,-4.9375 q0.1875,-2.4062 0.125,-4.0938 q-0.0625,-1.1875 -0.7812,-2.2812 q-0.7188,-1.0938 -2.5625,-1.7188 q-1.8438,-0.625 -5.2188,-0.625 Z" fill="#D3D3D3" transform="matrix(1,0,0,-1,453.5,218)"/>
  <path d="" fill="#D3D3D3" transform="matrix(1,0,0,-1,477.5,218)"/>
  <path d="M14.625,-25.1875 q-1.5625,-0.625 -3.7812,-0.875 q-2.2188,-0.25 -4.5938,-0.0625 q-2.375,0.1875 -4.5312,0.7812 q-2.1562,0.5938 -3.5938,1.5938 q-0.5625,0.375 -0.6562,0.875 q-0.0938,0.5 0.5938,0.75 q1.125,0.5 2.4062,1.8438 q1.2812,1.3438 2.5938,3.2812 q0.1875,0.3125 0.4375,0.25 q0.25,-0.0625 0.4375,-0.1875 q1.3125,-0.6875 3.0625,-1.125 q1.75,-0.4375 5.0625,-0.375 q0.125,3.5625 0.125,6.5312 q0,2.9688 -0.0625,5.2812 q0,0.4375 0,0.625 q-0.0625,3.8125 -1.3438,5.6562 q-1.2812,1.8438 -3.75,2.6875 q-2.4688,0.8438 -6.1562,1.5938 q-0.8125,0.1875 -0.8438,0.7188 q-0.0312,0.5312 0.7188,0.7188 q2.1875,0.625 3.8438,2.4375 q1.6562,1.8125 2.2812,4.25 q0.125,0.5 0.4375,0.75 q0.3125,0.25 0.9375,-0.0625 q3.5,-1.9375 5.5,-3.875 q2,-1.9375 2.9062,-4.3438 q0.9062,-2.4062 0.9688,-5.9062 q0.0625,-2.25 0.0625,-5.0938 q0,-2.8438 -0.0312,-5.5938 q-0.0312,-2.75 -0.0938,-4.875 q0,-0.5 0,-0.75 q0,-1.3125 -0.2812,-2.875 q-0.2812,-1.5625 -0.9062,-2.8438 q-0.625,-1.2812 -1.75,-1.7812 Z" fill="#D3D3D3" transform="matrix(1,0,0,-1,502.5,218)"/>
  <path d="M14.375,-2.125 q-4.8125,0 -7.9375,1.125 q-3.125,1.125 -4.7812,3.0938 q-1.6562,1.9688 -2.0938,4.4062 q-0.4375,2.8125 0.2812,5.625 q0.7188,2.8125 2.5,5.1875 q1.7812,2.375 4.4375,3.8125 q2.6562,1.4375 6.0312,1.4375 q2.9375,0 5.1875,-1.6875 q2.25,-1.6875 3.7812,-4.3125 q1.5312,-2.625 2.3125,-5.4688 q0.7812,-2.8438 0.7812,-5.2188 q0,-3.125 -1.0312,-4.875 q-1.0312,-1.75 -3.3438,-2.4062 q-2.3125,-0.6562 -6.125,-0.7188 Z M12.75,9.25 q0.75,0 0.75,0.8125 q0,0.3125 -0.2188,0.5312 q-0.2188,0.2188 -0.5312,0.2188 q-0.8125,0 -0.8125,-0.75 q0,-0.8125 0.8125,-0.8125 Z" fill="#D3D3D3" transform="matrix(1,0,0,-1,518.5,218)"/>
  <path d="" fill="#D3D3D3" transform="matrix(1,0,0,-1,543.5,218)"/>
  <path d="M16.25,-3.5625 q-3.25,-0.125 -6.375,0.3125 q-3.125,0.4375 -5.5938,1.375 q-2.4688,0.9375 -3.9062,2.375 q-0.625,0.6875 -0.1875,1.0625 q0.4375,0.375 0.9375,0.375 q0.6875,0 1.6875,0.6875 q1,0.6875 1.9375,1.6562 q0.9375,0.9688 1.3125,1.6562 q0.3125,0.5 0.9062,0.3125 q0.5938,-0.1875 1.0938,-0.5 q0.0625,-0.0625 0.125,-0.0625 q1.9375,-1.125 4.1875,-1.5938 q2.25,-0.4688 4.4375,-0.5312 q2.1875,-0.0625 3.9688,0.125 q1.7812,0.1875 2.7812,0.375 q0.75,0.125 0.7188,0.6875 q-0.0312,0.5625 -0.6562,0.4375 q-4.4375,-0.8125 -8.2188,-0.5 q-3.7812,0.3125 -6.0312,2.3438 q-2.25,2.0312 -2.25,6.3438 q0,3.25 1.5,5.9062 q1.5,2.6562 3.9688,4.2812 q2.4688,1.625 5.4688,1.625 q2.625,0 4.8125,-1.4062 q2.1875,-1.4062 3.8438,-3.6562 q1.6562,-2.25 2.7812,-4.8438 q1.125,-2.5938 1.7188,-5.0312 q0.5938,-2.4375 0.5938,-4.125 q0,-1.375 -0.2188,-2.5312 q-0.2188,-1.1562 -0.9062,-2.0938 q-1.1875,-1.75 -3.6875,-2.8438 q-2.5,-1.0938 -5.375,-1.5938 q-2.875,-0.5 -5.375,-0.625 Z M17.3125,15.1875 q0.75,0 0.75,0.8125 q0,0.3125 -0.2188,0.5312 q-0.2188,0.2188 -0.5312,0.2188 q-0.8125,0 -0.8125,-0.75 q0,-0.8125 0.8125,-0.8125 Z" fill="#D3D3D3" transform="matrix(1,0,0,-1,568.5,218)"/>
  <path d="M7.1562,0.0125 q-1.95,0 -3.4531,1.5031 q-1.5031,1.5031 -1.5031,3.4531 q0,2.0312 1.5031,3.4937 q1.5031,1.4625 3.4531,1.4625 q2.0312,0 3.4937,-1.4625 q1.4625,-1.4625 1.4625,-3.4937 q0,-1.95 -1.4625,-3.4531 q-1.4625,-1.5031 -3.4937,-1.5031 Z M17.7812,0.0125 q-1.95,0 -3.4531,1.5031 q-1.5031,1.5031 -1.5031,3.4531 q0,2.0312 1.5031,3.4937 q1.5031,1.4625 3.4531,1.4625 q2.0312,0 3.4937,-1.4625 q1.4625,-1.4625 1.4625,-3.4937 q0,-1.95 -1.4625,-3.4531 q-1.4625,-1.5031 -3.4937,-1.5031 Z M12.4687,9.3875 q-1.95,0 -3.4531,1.5031 q-1.5031,1.5031 -1.5031,3.4531 q0,2.0312 1.5031,3.4937 q1.5031,1.4625 3.4531,1.4625 q2.0312,0 3.4937,-1.4625 q1.4625,-1.4625 1.4625,-3.4937 q0,-1.95 -1.4625,-3.4531 q-1.4625,-1.5031 -3.4937,-1.5031 Z" fill="#FFE2A1" transform="matrix(1,0,0,-1,-24,161)"/>
  <path d="M7.1561,0.775 q-1.65,0 -2.9218,1.2718 q-1.2718,1.2718 -1.2718,2.9218 q0,1.7187 1.2718,2.9562 q1.2718,1.2375 2.9218,1.2375 q1.7187,0 2.9562,-1.2375 q1.2375,-1.2375 1.2375,-2.9562 q0,-1.65 -1.2375,-2.9218 q-1.2375,-1.2718 -2.9562,-1.2718 Z M12.4686,10.15 q-1.65,0 -2.9218,1.2718 q-1.2718,1.2718 -1.2718,2.9218 q0,1.7187 1.2718,2.9562 q1.2718,1.2375 2.9218,1.2375 q1.7187,0 2.9562,-1.2375 q1.2375,-1.2375 1.2375,-2.9562 q0,-1.65 -1.2375,-2.9218 q-1.2375,-1.2718 -2.9562,-1.2718 Z M17.7811,0.775 q-1.65,0 -2.9218,1.2718 q-1.2718,1.2718 -1.2718,2.9218 q0,1.7187 1.2718,2.9562 q1.2718,1.2375 2.9218,1.2375 q1.7187,0 2.9562,-1.2375 q1.2375,-1.2375 1.2375,-2.9562 q0,-1.65 -1.2375,-2.9218 q-1.2375,-1.2718 -2.9562,-1.2718 Z" fill="#A67300" transform="matrix(1,0,0,-1,-24,161)"/>
  <path d="M6.7812,10.2 q-0.45,0 -0.7968,0.3469 q-0.3469,0.3469 -0.3469,0.7968 q0,0.4687 0.3469,0.8062 q0.3469,0.3375 0.7968,0.3375 q0.4687,0 0.8062,-0.3375 q0.3375,-0.3375 0.3375,-0.8062 q0,-0.45 -0.3375,-0.7968 q-0.3375,-0.3469 -0.8062,-0.3469 Z M12.4687,7.0125 q-0.45,0 -0.7968,0.3469 q-0.3469,0.3469 -0.3469,0.7968 q0,0.4687 0.3469,0.8062 q0.3469,0.3375 0.7968,0.3375 q0.4687,0 0.8062,-0.3375 q0.3375,-0.3375 0.3375,-0.8062 q0,-0.45 -0.3375,-0.7968 q-0.3375,-0.3469 -0.8062,-0.3469 Z M18.0312,10.2 q-0.45,0 -0.7968,0.3469 q-0.3469,0.3469 -0.3469,0.7968 q0,0.4687 0.3469,0.8062 q0.3469,0.3375 0.7968,0.3375 q0.4687,0 0.8062,-0.3375 q0.3375,-0.3375 0.3375,-0.8062 q0,-0.45 -0.3375,-0.7968 q-0.3375,-0.3469 -0.8062,-0.3469 Z M12.4687,0.45 q-0.45,0 -0.7968,0.3469 q-0.3469,0.3469 -0.3469,0.7968 q0,0.4687 0.3469,0.8062 q0.3469,0.3375 0.7968,0.3375 q0.4687,0 0.8062,-0.3375 q0.3375,-0.3375 0.3375,-0.8062 q0,-0.45 -0.3375,-0.7968 q-0.3375,-0.3469 -0.8062,-0.3469 Z" fill="#E22E00" transform="matrix(1,0,0,-1,-24,161)"/>
  <path d="M8.6875,-0.5 q-2.8125,-0.0625 -4.7812,0.25 q-1.9688,0.3125 -3.2812,1.0625 q-0.625,0.375 -0.5938,0.8125 q0.0312,0.4375 0.7812,0.75 q1.25,0.5625 2.125,1.8125 q0.875,1.25 1.25,2.6875 q0.1875,0.8125 0.5312,0.7812 q0.3438,-0.0312 0.7188,-0.2188 q1.8125,-0.8125 3.25,-0.9688 q1.4375,-0.1562 3.5,-0.2188 q1.9208,-0.0604 3.8698,-0.0615 q1.9489,-0.001 3.8395,-0.0323 q1.8906,-0.0312 3.7613,-0.0615 q1.8707,-0.0302 3.7613,-0.0312 q1.8905,-0.001 3.7477,-0.001 q1.8572,0 3.7185,0 q1.8613,0 3.7362,0 q1.8749,0 3.7414,0.001 q1.8665,0.001 3.732,0.0312 q1.8655,0.0302 3.7675,0.0312 q1.902,0.001 3.7904,0.0312 q1.8884,0.0302 3.7998,0.0615 q1.9114,0.0312 3.8843,0.0625 q1.9729,0.0312 3.9229,0.0938 q0.125,1.6875 -0.2812,3.6562 q-0.4062,1.9688 -2.4688,3.5938 q-0.6875,0.5 -0.5625,1.2812 q0.125,0.7812 0.9375,0.7812 q1.4375,0 3.375,1.5938 q1.9375,1.5938 3.25,4.2188 q0.3125,0.6875 0.9375,0.7812 q0.625,0.0938 0.6875,-0.9688 q0.1875,-2.4375 0.375,-5.1562 q0.1875,-2.7188 0.25,-6.3438 q0.0625,-1 0.25,-1.9688 q0.1875,-0.9688 0.75,-0.9688 v-6.875 q-2.875,0 -5.6187,0 q-2.7437,0 -5.3645,-0.0312 q-2.6208,-0.0312 -5.1561,-0.0312 q-2.5353,0 -4.9935,-0.0312 q-2.4582,-0.0312 -4.8185,-0.0625 q-2.3603,-0.0312 -4.6299,-0.0312 q-2.2697,0 -4.4868,-0.0312 q-2.2171,-0.0312 -4.3924,-0.0625 q-2.1753,-0.0312 -4.2845,-0.0312 q-2.1092,0 -4.1633,-0.0312 q-2.0541,-0.0312 -4.0894,-0.0625 q-2.0353,-0.0312 -4.0603,-0.0312 q-2.0249,0 -4.0197,-0.0312 q-1.9948,-0.0312 -3.9948,-0.0312 Z" fill="#D3D3D3" transform="matrix(1,0,0,-1,1,161)"/>
  <path d="M-1.4375,0 v16.5 h1 q0.125,-4.6875 3.0625,-7.1875 q2.9375,-2.5 8.25,-2.4375 l-7.9375,-6.875 h-4.375 Z" fill="#D3D3D3" transform="matrix(1,0,0,-1,73,161)"/>
  <path d="M-1.25,0 v6.875 q2.0625,0 4.4375,0 q2.375,0 4.5312,0.0625 q2.1562,0.0625 3.6875,0.2188 q1.5312,0.1562 1.9688,0.4062 q0.5,0.3125 0.4688,0.7188 q-0.0312,0.4062 -0.5312,0.2812 q-1.5,-0.25 -3.8125,-0.4688 q-2.3125,-0.2188 -4.7188,0.0938 q-2.4062,0.3125 -4.1562,1.5 q-1.5625,1.0625 -2.5625,2.7812 q-1,1.7188 -1,3.7812 q0,2.125 0.8438,4.3438 q0.8438,2.2188 2.375,4.0938 q1.5312,1.875 3.625,3.0312 q2.0938,1.1562 4.5938,1.1562 q2.6875,0 4.9688,-1.8438 q2.2812,-1.8438 3.9375,-4.9688 q1.6562,-3.125 2.5625,-6.9688 q0.9062,-3.8438 0.9062,-7.9062 q0,-2.1875 -1.375,-3.5938 q-1.375,-1.4062 -3.6875,-2.1562 q-2.3125,-0.75 -5.2188,-1.0625 q-2.9062,-0.3125 -5.9688,-0.375 q-3.0625,-0.0625 -5.875,0 Z M8.3125,17.9375 q0.75,0 0.75,0.8125 q0,0.3125 -0.2188,0.5312 q-0.2188,0.2188 -0.5312,0.2188 q-0.8125,0 -0.8125,-0.75 q0,-0.8125 0.8125,-0.8125 Z" fill="#D3D3D3" transform="matrix(1,0,0,-1,77,161)"/>
  <path d="" fill="#D3D3D3" transform="matrix(1,0,0,-1,98,161)"/>
  <path d="M16.25,-3.5625 q-3.25,-0.125 -6.375,0.3125 q-3.125,0.4375 -5.5938,1.375 q-2.4688,0.9375 -3.9062,2.375 q-0.625,0.6875 -0.1875,1.0625 q0.4375,0.375 0.9375,0.375 q0.6875,0 1.6875,0.6875 q1,0.6875 1.9375,1.6562 q0.9375,0.9688 1.3125,1.6562 q0.3125,0.5 0.9062,0.3125 q0.5938,-0.1875 1.0938,-0.5 q0.0625,-0.0625 0.125,-0.0625 q1.9375,-1.125 4.1875,-1.5938 q2.25,-0.4688 4.4375,-0.5312 q2.1875,-0.0625 3.9688,0.125 q1.7812,0.1875 2.7812,0.375 q0.75,0.125 0.7188,0.6875 q-0.0312,0.5625 -0.6562,0.4375 q-4.4375,-0.8125 -8.2188,-0.5 q-3.7812,0.3125 -6.0312,2.3438 q-2.25,2.0312 -2.25,6.3438 q0,3.25 1.5,5.9062 q1.5,2.6562 3.9688,4.2812 q2.4688,1.625 5.4688,1.625 q2.625,0 4.8125,-1.4062 q2.1875,-1.4062 3.8438,-3.6562 q1.6562,-2.25 2.7812,-4.8438 q1.125,-2.5938 1.7188,-5.0312 q0.5938,-2.4375 0.5938,-4.125 q0,-1.375 -0.2188,-2.5312 q-0.2188,-1.1562 -0.9062,-2.0938 q-1.1875,-1.75 -3.6875,-2.8438 q-2.5,-1.0938 -5.375,-1.5938 q-2.875,-0.5 -5.375,-0.625 Z M17.3125,15.1875 q0.75,0 0.75,0.8125 q0,0.3125 -0.2188,0.5312 q-0.2188,0.2188 -0.5312,0.2188 q-0.8125,0 -0.8125,-0.75 q0,-0.8125 0.8125,-0.8125 Z" fill="#D3D3D3" transform="matrix(1,0,0,-1,123,161)"/>
  <path d="" fill="#D3D3D3" transform="matrix(1,0,0,-1,155,161)"/>
  <path d="M19.4375,-3 q-3.8125,0.0625 -7.2812,1.1875 q-3.4688,1.125 -6.1875,3.4375 q-2.7188,2.3125 -4.3125,5.9688 q-1.5938,3.6562 -1.6562,8.7812 q0,2.625 -0.0625,5.7812 q-0.0625,3.1562 -0.1562,6.4062 q-0.0938,3.25 -0.25,6.1562 q-0.1562,2.9062 -0.3438,4.9062 q-0.1875,1.4375 -0.3125,2.3125 q-0.125,0.875 0.3125,1.1875 q0.6875,0.4375 1.6562,1.2812 q0.9688,0.8438 1.8438,1.8438 q0.875,1 1.25,1.8125 q0.3125,0.6875 0.7812,0.6875 q0.4688,0 0.6562,-1.25 q0.3125,-2.25 0.375,-5.375 q0.0625,-3.125 0.0625,-6.6875 q0,-3.5625 0,-7.1562 q0,-3.5938 0.1875,-6.7188 q0.1875,-3.4375 1.3125,-6.25 q1.125,-2.8125 3.0938,-4.9062 q1.9688,-2.0938 4.5312,-3.4688 q3.25,-1.6875 7.3125,-2.1875 q4.0625,-0.5 8.625,0.3125 q4.5625,0.8125 9.25,2.875 q0.5625,0.3125 0.8438,0.125 q0.2812,-0.1875 0.0312,-0.75 q-2.3125,-5.125 -7.9688,-7.75 q-5.6562,-2.625 -13.5938,-2.5625 Z" fill="#D3D3D3" transform="matrix(1,0,0,-1,180,161)"/>
  <path d="" fill="#D3D3D3" transform="matrix(1,0,0,-1,221,161)"/>
  <path d="M10.6875,-0.8542 q-3.8125,0.0625 -6.4375,0.4062 q-2.625,0.3438 -3.625,1.1562 q-0.6875,0.5 -0.625,1 q0.0625,0.5 0.8125,0.5 q0.375,0 0.7188,0.2188 q0.3438,0.2188 0.5938,0.4688 q0.5625,0.5625 1.4062,1.6562 q0.8438,1.0938 1.5312,2.2188 q0.6875,1.0625 2.1875,0.1875 q0.6875,-0.375 2.125,-0.5625 q1.4375,-0.1875 3.0625,-0.3125 q0.4375,0 1.1343,-0.0312 q0.6968,-0.0312 1.6009,-0.0625 q0.9041,-0.0312 2.028,-0.0625 q1.1239,-0.0312 2.4175,-0.0625 q1.2936,-0.0312 2.7383,-0.0625 q1.4447,-0.0312 3.0206,-0.0312 q1.5759,0 3.2331,-0.0312 q1.6572,-0.0312 3.3456,-0.0312 q1.6884,0 3.4518,0 q1.7634,0 3.4893,0.0312 q1.7259,0.0312 3.4571,0.0625 q1.7311,0.0312 3.4165,0.0625 q1.6853,0.0312 3.278,0.0938 q1.5926,0.0625 3.0707,0.1562 q1.4781,0.0938 2.7906,0.1562 q1.375,0.125 1.625,0.3438 q0.25,0.2188 0.125,0.5938 q-0.0625,0.125 -0.2188,0.25 q-0.1562,0.125 -0.6562,0.0625 q-0.75,-0.0625 -1.7906,-0.125 q-1.0406,-0.0625 -2.3509,-0.125 q-1.3104,-0.0625 -2.8092,-0.125 q-1.4989,-0.0625 -3.1675,-0.0938 q-1.6686,-0.0312 -3.4571,-0.0625 q-1.7884,-0.0312 -3.6456,-0.0625 q-1.8572,-0.0312 -3.7956,-0.0312 q-1.9384,0 -3.8456,0 q-1.9072,0 -3.7643,0.0312 q-1.8572,0.0312 -3.6456,0.0312 q-1.7884,0 -3.456,0.0625 q-1.6676,0.0625 -3.1363,0.125 q-1.4687,0.0625 -2.7478,0.125 q-1.2791,0.0625 -2.3197,0.1562 q-1.0406,0.0938 -1.7906,0.2188 q-1.5625,0.1875 -2.1562,0.6875 q-0.5938,0.5 0.0312,1.375 q2.125,2.8125 4.1875,5.6562 q2.0625,2.8438 3.8125,5.7812 q0.3125,0.5 0.7188,0.3125 q0.4062,-0.1875 0.1562,-0.75 q-0.25,-0.5625 -0.7812,-1.75 q-0.5312,-1.1875 -1.0312,-2.3438 q-0.5,-1.1562 -0.75,-1.7812 q0.875,-0.0625 1.9781,-0.1562 q1.1031,-0.0938 2.3822,-0.1562 q1.2791,-0.0625 2.7467,-0.0938 q1.4676,-0.0312 3.0425,-0.0625 q1.5749,-0.0312 3.2696,-0.0312 q1.6947,0 3.4581,0 q1.7634,0 3.5768,0 q1.8134,0 3.6581,0 q1.8447,0 3.6706,0.0312 q1.8259,0.0312 3.5831,0.0625 q1.7572,0.0312 3.4571,0.0625 q1.6999,0.0312 3.3227,0.0625 q1.6228,0.0312 3.0905,0.0625 q1.4676,0.0312 2.7582,0.0938 q1.2906,0.0625 2.4156,0.0625 q1.125,0.0625 1.5312,-0.4688 q0.4062,-0.5312 0.9688,-1.8438 q0.75,-1.6875 1.6562,-4.0625 q0.9062,-2.375 0.9688,-5.4375 q0.0625,-1.25 -1.0312,-2.125 q-1.0938,-0.875 -2.2188,-1 q-1.375,-0.125 -2.9156,-0.2188 q-1.5406,-0.0938 -3.1634,-0.1562 q-1.6229,-0.0625 -3.3405,-0.125 q-1.7176,-0.0625 -3.5113,-0.0938 q-1.7936,-0.0312 -3.6133,-0.0938 q-1.8197,-0.0625 -3.7081,-0.0625 q-1.8884,0 -3.7643,-0.0312 q-1.8759,-0.0312 -3.7831,-0.0312 q-1.9072,0 -3.7956,0 q-1.8884,0 -3.7081,0 q-1.8197,0 -3.6133,0 q-1.7936,0 -3.5113,0.0312 q-1.7176,0.0312 -3.3405,0.0312 q-1.6229,0 -3.1634,0.0312 q-1.5406,0.0312 -2.9156,0.0312 Z" fill="#D3D3D3" transform="matrix(1,0,0,-1,246,161)"/>
  <path d="" fill="#D3D3D3" transform="matrix(1,0,0,-1,312,161)"/>
  <path d="M19.4375,-3 q-3.8125,0.0625 -7.2812,1.1875 q-3.4688,1.125 -6.1875,3.4375 q-2.7188,2.3125 -4.3125,5.9688 q-1.5938,3.6562 -1.6562,8.7812 q0,2.625 -0.0625,5.7812 q-0.0625,3.1562 -0.1562,6.4062 q-0.0938,3.25 -0.25,6.1562 q-0.1562,2.9062 -0.3438,4.9062 q-0.1875,1.4375 -0.3125,2.3125 q-0.125,0.875 0.3125,1.1875 q0.6875,0.4375 1.6562,1.2812 q0.9688,0.8438 1.8438,1.8438 q0.875,1 1.25,1.8125 q0.3125,0.6875 0.7812,0.6875 q0.4688,0 0.6562,-1.25 q0.3125,-2.25 0.375,-5.375 q0.0625,-3.125 0.0625,-6.6875 q0,-3.5625 0,-7.1562 q0,-3.5938 0.1875,-6.7188 q0.1875,-3.4375 1.3125,-6.25 q1.125,-2.8125 3.0938,-4.9062 q1.9688,-2.0938 4.5312,-3.4688 q3.25,-1.6875 7.3125,-2.1875 q4.0625,-0.5 8.625,0.3125 q4.5625,0.8125 9.25,2.875 q0.5625,0.3125 0.8438,0.125 q0.2812,-0.1875 0.0312,-0.75 q-2.3125,-5.125 -7.9688,-7.75 q-5.6562,-2.625 -13.5938,-2.5625 Z" fill="#D3D3D3" transform="matrix(1,0,0,-1,337,161)"/>
  <path d="" fill="#D3D3D3" transform="matrix(1,0,0,-1,378,161)"/>
  <path d="M14.1875,-17.375 q-2.3125,0.3125 -3.5938,0.7188 q-1.2812,0.4062 -2.2188,0.9062 q-1.25,0.6875 -1.1875,1.4688 q0.0625,0.7812 0.75,0.7812 q0.5,0 1.375,0.7188 q0.875,0.7188 1.875,1.8125 q1,1.0938 1.875,2.1562 q0.4375,0.5 1.0312,0.4375 q0.5938,-0.0625 0.9688,-0.3125 q1.4375,-0.875 4.3438,-1.3438 q2.9062,-0.4688 7.4688,-0.1562 q0,0.875 -1.4375,0.875 q-2.8125,0 -5.0625,0.2812 q-2.25,0.2812 -3.4375,0.7812 q-1.75,0.6875 -1.8438,2.0312 q-0.0938,1.3438 0.2812,2.0938 q0.5,1.0625 1.125,2.125 q0.625,1.0625 1.1875,2.125 q-0.875,-0.0625 -1.9688,-0.0938 q-1.0938,-0.0312 -2.4062,-0.0312 q-4.5625,0 -7.5,1.375 q-2.9375,1.375 -4.375,3.625 q-1.4375,2.25 -1.4375,4.9375 q0,3.375 1.4375,6.2812 q1.4375,2.9062 4.0625,4.6875 q2.625,1.7812 6.125,1.7812 q2.4375,0 4.5,-1.625 q2.0625,-1.625 3.625,-4.1562 q1.5625,-2.5312 2.4375,-5.2188 q0.875,-2.6875 0.9375,-4.8125 h0.1875 v-6.875 h-1.5625 q-0.125,-0.25 -0.1875,-0.4375 q1.125,-0.9375 2.9062,-1.125 q1.7812,-0.1875 3.7188,-0.1875 q0.875,-0.0625 1.6875,-0.0938 q0.8125,-0.0312 1.625,-0.0938 q0.875,-0.0625 1.6875,-1.0312 q0.8125,-0.9688 1.0625,-1.8438 q0.5625,-1.625 0.9688,-3.5 q0.4062,-1.875 0.4062,-4 q0,-1.25 -0.75,-2.5625 q-0.75,-1.3125 -1.875,-1.5625 q-3.4375,-0.75 -6.9688,-1.0312 q-3.5312,-0.2812 -6.5938,-0.2188 q-3.0625,0.0625 -5.25,0.3125 Z M11.8125,11.125 q0.75,0 0.75,0.8125 q0,0.3125 -0.2188,0.5312 q-0.2188,0.2188 -0.5312,0.2188 q-0.8125,0 -0.8125,-0.75 q0,-0.8125 0.8125,-0.8125 Z M20.4375,3.5625 v0.125 q0,-0.0625 0,-0.125 Z" fill="#D3D3D3" transform="matrix(1,0,0,-1,403,161)"/>
  <path d="M-2.5,2.8125 v8.25 h1.125 q0.375,-1.1875 1.1562,-1.9062 q0.7812,-0.7188 1.2188,-0.9062 v-5.4375 h-3.5 Z" fill="#D3D3D3" transform="matrix(1,0,0,-1,426,161)"/>
  <path d="M15.0625,-0.125 l-16.3125,0.125 v6.875 h3.4375 q-0.25,0.5 -0.625,1.8125 q-0.375,1.3125 -0.5625,1.875 q-0.1875,0.625 0,0.9062 q0.1875,0.2812 0.6875,0.5312 q1.25,0.5625 1.9688,1.5312 q0.7188,0.9688 1.7188,2.6562 q0.3125,0.5625 0.8438,0.5625 q0.5312,0 0.6562,-0.6875 q0.6875,-3.25 1.1875,-5 q0.5,-1.75 1.5625,-2.3125 q-0.375,0.875 -0.6562,1.875 q-0.2812,1 -0.3438,1.875 q0,0.4375 0.2812,0.6875 q0.2812,0.25 0.5938,0.4375 q1.25,0.625 2.1562,1.5625 q0.9062,0.9375 1.6562,2.8125 q0.1875,0.4375 0.5625,0.5 q0.375,0.0625 0.5,-0.4375 q0.5625,-1.5625 0.9062,-3.4062 q0.3438,-1.8438 0.7812,-3.4375 q0.4375,-1.5938 1.125,-2.4062 q-0.125,1 -0.3125,2.3438 q-0.1875,1.3438 -0.375,2.5625 q-0.1875,1.2188 -0.3125,1.7188 q-0.125,0.5 0.0312,0.75 q0.1562,0.25 0.4688,0.4375 q0.1875,0.125 0.25,0.1875 q1,0.6875 2.0312,1.9688 q1.0312,1.2812 1.4062,2.7812 q0.1875,0.75 0.6562,0.8438 q0.4688,0.0938 0.6562,-0.7812 q0.25,-1.1875 0.5938,-3.375 q0.3438,-2.1875 0.6875,-4.7188 q0.3438,-2.5312 0.5312,-4.9375 q0.1875,-2.4062 0.125,-4.0938 q-0.0625,-1.1875 -0.7812,-2.2812 q-0.7188,-1.0938 -2.5625,-1.7188 q-1.8438,-0.625 -5.2188,-0.625 Z" fill="#D3D3D3" transform="matrix(1,0,0,-1,425,161)"/>
  <path d="" fill="#D3D3D3" transform="matrix(1,0,0,-1,449,161)"/>
  <path d="M4.0625,0 q-2.3125,0 -3.1562,0.9062 q-0.8438,0.9062 -0.9062,2.5312 q-0.125,4.3125 -0.1875,9.1875 q-0.0625,4.875 -0.1562,9.6562 q-0.0938,4.7812 -0.25,8.9062 q-0.1562,4.125 -0.4062,6.9375 q0,0.25 -0.0312,0.4375 q-0.0312,0.1875 -0.0312,0.375 q-0.25,2.625 -0.2188,3.6562 q0.0312,1.0312 0.7812,1.5312 q1.25,0.75 2.3438,2.0312 q1.0938,1.2812 2.0938,2.9688 q0.3125,0.5 0.8125,0.4375 q0.5,-0.0625 0.5,-1 q0,-3 0.0625,-6.7812 q0.0625,-3.7812 0.125,-7.7812 q0.0625,-4 0.1562,-7.6875 q0.0938,-3.6875 0.1562,-6.5312 q0.0625,-2.8438 0.125,-4.3438 q0.1875,-3.5 0.3125,-5.375 q0.125,-1.875 0.3438,-2.5312 q0.2188,-0.6562 0.5938,-0.6562 v-6.875 h-3.0625 Z" fill="#D3D3D3" transform="matrix(1,0,0,-1,474,161)"/>
  <path d="M-0.625,0 l-0.875,14.625 h1.125 q0.0625,-2.4375 1.0625,-4.0938 q1,-1.6562 2.4375,-2.5312 q1.4375,-0.875 2.8125,-1.125 v-6.875 h-6.5625 Z" fill="#D3D3D3" transform="matrix(1,0,0,-1,480,161)"/>
  <path d="M-1.25,0 v6.875 h4.375 q-1.75,1.6875 -2.375,3.9688 q-0.625,2.2812 0.8125,3.7812 q0.625,0.6875 1.875,1.9062 q1.25,1.2188 2.6562,2.5938 q1.4062,1.375 2.5312,2.4375 q1.125,1.0625 1.5,1.4375 q0.6875,0.6875 1.0312,0.25 q0.3438,-0.4375 -0.1562,-1 q-0.375,-0.4375 -1.0312,-1.4062 q-0.6562,-0.9688 -1.3125,-1.9688 q-0.6562,-1 -0.9688,-1.5625 q-0.875,-1.5 0.5,-3.25 q1.375,-1.75 4.4688,-3.3438 q3.0938,-1.5938 7.3438,-2.6562 q4.125,-1.0625 7.3438,-1.4062 q3.2188,-0.3438 6.4062,-0.2812 q3.1875,0.0625 7.25,0.25 q0.3125,0 0.6562,0.0312 q0.3438,0.0312 0.6562,0.0312 q0.8125,0.0625 0.8125,-0.3125 q0,-0.375 -0.375,-0.6875 q-1.1875,-0.875 -2.6562,-2.375 q-1.4688,-1.5 -2.5312,-2.25 q-0.3125,-0.25 -0.625,-0.4062 q-0.3125,-0.1562 -0.625,-0.1562 q-5.625,-0.1875 -10.125,-0.3125 q-4.5,-0.125 -8.6875,-0.1875 q-4.1875,-0.0625 -8.6875,-0.0625 q-4.5,0 -10.0625,0.0625 Z" fill="#D3D3D3" transform="matrix(1,0,0,-1,483,161)"/>
  <path d="" fill="#D3D3D3" transform="matrix(1,0,0,-1,526,161)"/>
  <path d="M14.25,-7.5625 q-4.1875,-0.0625 -7.875,0.9688 q-3.6875,1.0312 -5.6875,2.3438 q-0.75,0.5 -0.6562,0.9375 q0.0938,0.4375 0.7188,0.6875 q1.4375,0.5 2.6562,1.8438 q1.2188,1.3438 2.1562,2.5312 q0.375,0.5 1.125,0.0625 q1.75,-0.9375 4.375,-1.5938 q2.625,-0.6562 5.1562,-0.9375 q2.5312,-0.2812 3.9688,-0.0938 q0.5,0.0625 0.4062,0.4688 q-0.0938,0.4062 -0.4688,0.4062 q-1.5,-0.0625 -3.5,0.1562 q-2,0.2188 -3.9375,0.7188 q-1.9375,0.5 -3.375,1.25 q-0.6875,0.375 -0.5938,0.9062 q0.0938,0.5312 0.4688,0.8438 q0.875,0.875 2.125,2.1562 q1.25,1.2812 2.5312,2.6875 q1.2812,1.4062 2.375,2.5938 q1.0938,1.1875 1.7188,1.8125 q0.25,0.25 0.4062,0.4062 q0.1562,0.1562 0.4062,0.1562 q0.3125,0 0.9375,-0.4375 q2.0625,-1.375 4,-3.7188 q1.9375,-2.3438 3.25,-5.125 q1.3125,-2.7812 1.375,-5.5312 q0.0625,-1.6875 -0.625,-3.3438 q-0.6875,-1.6562 -3.125,-2.3438 q-2.0625,-0.625 -4.7188,-0.6875 q-2.6562,-0.0625 -5.5938,-0.125 Z" fill="#D3D3D3" transform="matrix(1,0,0,-1,551,161)"/>
  <path d="M15.0625,-0.125 l-16.3125,0.125 v6.875 h3.4375 q-0.25,0.5 -0.625,1.8125 q-0.375,1.3125 -0.5625,1.875 q-0.1875,0.625 0,0.9062 q0.1875,0.2812 0.6875,0.5312 q1.25,0.5625 1.9688,1.5312 q0.7188,0.9688 1.7188,2.6562 q0.3125,0.5625 0.8438,0.5625 q0.5312,0 0.6562,-0.6875 q0.6875,-3.25 1.1875,-5 q0.5,-1.75 1.5625,-2.3125 q-0.375,0.875 -0.6562,1.875 q-0.2812,1 -0.3438,1.875 q0,0.4375 0.2812,0.6875 q0.2812,0.25 0.5938,0.4375 q1.25,0.625 2.1562,1.5625 q0.9062,0.9375 1.6562,2.8125 q0.1875,0.4375 0.5625,0.5 q0.375,0.0625 0.5,-0.4375 q0.5625,-1.5625 0.9062,-3.4062 q0.3438,-1.8438 0.7812,-3.4375 q0.4375,-1.5938 1.125,-2.4062 q-0.125,1 -0.3125,2.3438 q-0.1875,1.3438 -0.375,2.5625 q-0.1875,1.2188 -0.3125,1.7188 q-0.125,0.5 0.0312,0.75 q0.1562,0.25 0.4688,0.4375 q0.1875,0.125 0.25,0.1875 q1,0.6875 2.0312,1.9688 q1.0312,1.2812 1.4062,2.7812 q0.1875,0.75 0.6562,0.8438 q0.4688,0.0938 0.6562,-0.7812 q0.25,-1.1875 0.5938,-3.375 q0.3438,-2.1875 0.6875,-4.7188 q0.3438,-2.5312 0.5312,-4.9375 q0.1875,-2.4062 0.125,-4.0938 q-0.0625,-1.1875 -0.7812,-2.2812 q-0.7188,-1.0938 -2.5625,-1.7188 q-1.8438,-0.625 -5.2188,-0.625 Z" fill="#D3D3D3" transform="matrix(1,0,0,-1,576,161)"/>
  <path d="M14.625,-25.1875 q-1.5625,-0.625 -3.7812,-0.875 q-2.2188,-0.25 -4.5938,-0.0625 q-2.375,0.1875 -4.5312,0.7812 q-2.1562,0.5938 -3.5938,1.5938 q-0.5625,0.375 -0.6562,0.875 q-0.0938,0.5 0.5938,0.75 q1.125,0.5 2.4062,1.8438 q1.2812,1.3438 2.5938,3.2812 q0.1875,0.3125 0.4375,0.25 q0.25,-0.0625 0.4375,-0.1875 q1.3125,-0.6875 3.0625,-1.125 q1.75,-0.4375 5.0625,-0.375 q0.125,3.5625 0.125,6.5312 q0,2.9688 -0.0625,5.2812 q0,0.4375 0,0.625 q-0.0625,3.8125 -1.3438,5.6562 q-1.2812,1.8438 -3.75,2.6875 q-2.4688,0.8438 -6.1562,1.5938 q-0.8125,0.1875 -0.8438,0.7188 q-0.0312,0.5312 0.7188,0.7188 q2.1875,0.625 3.8438,2.4375 q1.6562,1.8125 2.2812,4.25 q0.125,0.5 0.4375,0.75 q0.3125,0.25 0.9375,-0.0625 q3.5,-1.9375 5.5,-3.875 q2,-1.9375 2.9062,-4.3438 q0.9062,-2.4062 0.9688,-5.9062 q0.0625,-2.25 0.0625,-5.0938 q0,-2.8438 -0.0312,-5.5938 q-0.0312,-2.75 -0.0938,-4.875 q0,-0.5 0,-0.75 q0,-1.3125 -0.2812,-2.875 q-0.2812,-1.5625 -0.9062,-2.8438 q-0.625,-1.2812 -1.75,-1.7812 Z" fill="#D3D3D3" transform="matrix(1,0,0,-1,-1,104)"/>
  <path d="M14.375,-2.125 q-4.8125,0 -7.9375,1.125 q-3.125,1.125 -4.7812,3.0938 q-1.6562,1.9688 -2.0938,4.4062 q-0.4375,2.8125 0.2812,5.625 q0.7188,2.8125 2.5,5.1875 q1.7812,2.375 4.4375,3.8125 q2.6562,1.4375 6.0312,1.4375 q2.9375,0 5.1875,-1.6875 q2.25,-1.6875 3.7812,-4.3125 q1.5312,-2.625 2.3125,-5.4688 q0.7812,-2.8438 0.7812,-5.2188 q0,-3.125 -1.0312,-4.875 q-1.0312,-1.75 -3.3438,-2.4062 q-2.3125,-0.6562 -6.125,-0.7188 Z M12.75,9.25 q0.75,0 0.75,0.8125 q0,0.3125 -0.2188,0.5312 q-0.2188,0.2188 -0.5312,0.2188 q-0.8125,0 -0.8125,-0.75 q0,-0.8125 0.8125,-0.8125 Z" fill="#D3D3D3" transform="matrix(1,0,0,-1,15,104)"/>
  <path d="" fill="#D3D3D3" transform="matrix(1,0,0,-1,40,104)"/>
  <path d="M16.25,-3.5625 q-3.25,-0.125 -6.375,0.3125 q-3.125,0.4375 -5.5938,1.375 q-2.4688,0.9375 -3.9062,2.375 q-0.625,0.6875 -0.1875,1.0625 q0.4375,0.375 0.9375,0.375 q0.6875,0 1.6875,0.6875 q1,0.6875 1.9375,1.6562 q0.9375,0.9688 1.3125,1.6562 q0.3125,0.5 0.9062,0.3125 q0.5938,-0.1875 1.0938,-0.5 q0.0625,-0.0625 0.125,-0.0625 q1.9375,-1.125 4.1875,-1.5938 q2.25,-0.4688 4.4375,-0.5312 q2.1875,-0.0625 3.9688,0.125 q1.7812,0.1875 2.7812,0.375 q0.75,0.125 0.7188,0.6875 q-0.0312,0.5625 -0.6562,0.4375 q-4.4375,-0.8125 -8.2188,-0.5 q-3.7812,0.3125 -6.0312,2.3438 q-2.25,2.0312 -2.25,6.3438 q0,3.25 1.5,5.9062 q1.5,2.6562 3.9688,4.2812 q2.4688,1.625 5.4688,1.625 q2.625,0 4.8125,-1.4062 q2.1875,-1.4062 3.8438,-3.6562 q1.6562,-2.25 2.7812,-4.8438 q1.125,-2.5938 1.7188,-5.0312 q0.5938,-2.4375 0.5938,-4.125 q0,-1.375 -0.2188,-2.5312 q-0.2188,-1.1562 -0.9062,-2.0938 q-1.1875,-1.75 -3.6875,-2.8438 q-2.5,-1.0938 -5.375,-1.5938 q-2.875,-0.5 -5.375,-0.625 Z M17.3125,15.1875 q0.75,0 0.75,0.8125 q0,0.3125 -0.2188,0.5312 q-0.2188,0.2188 -0.5312,0.2188 q-0.8125,0 -0.8125,-0.75 q0,-0.8125 0.8125,-0.8125 Z" fill="#D3D3D3" transform="matrix(1,0,0,-1,65,104)"/>
  <path d="M7.1562,0.0125 q-1.95,0 -3.4531,1.5031 q-1.5031,1.5031 -1.5031,3.4531 q0,2.0312 1.5031,3.4937 q1.5031,1.4625 3.4531,1.4625 q2.0312,0 3.4937,-1.4625 q1.4625,-1.4625 1.4625,-3.4937 q0,-1.95 -1.4625,-3.4531 q-1.4625,-1.5031 -3.4937,-1.5031 Z M17.7812,0.0125 q-1.95,0 -3.4531,1.5031 q-1.5031,1.5031 -1.5031,3.4531 q0,2.0312 1.5031,3.4937 q1.5031,1.4625 3.4531,1.4625 q2.0312,0 3.4937,-1.4625 q1.4625,-1.4625 1.4625,-3.4937 q0,-1.95 -1.4625,-3.4531 q-1.4625,-1.5031 -3.4937,-1.5031 Z M12.4687,9.3875 q-1.95,0 -3.4531,1.5031 q-1.5031,1.5031 -1.5031,3.4531 q0,2.0312 1.5031,3.4937 q1.5031,1.4625 3.4531,1.4625 q2.0312,0 3.4937,-1.4625 q1.4625,-1.4625 1.4625,-3.4937 q0,-1.95 -1.4625,-3.4531 q-1.4625,-1.5031 -3.4937,-1.5031 Z" fill="#FFE2A1" transform="matrix(1,0,0,-1,97,104)"/>
  <path d="M7.1561,0.775 q-1.65,0 -2.9218,1.2718 q-1.2718,1.2718 -1.2718,2.9218 q0,1.7187 1.2718,2.9562 q1.2718,1.2375 2.9218,1.2375 q1.7187,0 2.9562,-1.2375 q1.2375,-1.2375 1.2375,-2.9562 q0,-1.65 -1.2375,-2.9218 q-1.2375,-1.2718 -2.9562,-1.2718 Z M12.4686,10.15 q-1.65,0 -2.9218,1.2718 q-1.2718,1.2718 -1.2718,2.9218 q0,1.7187 1.2718,2.9562 q1.2718,1.2375 2.9218,1.2375 q1.7187,0 2.9562,-1.2375 q1.2375,-1.2375 1.2375,-2.9562 q0,-1.65 -1.2375,-2.9218 q-1.2375,-1.2718 -2.9562,-1.2718 Z M17.7811,0.775 q-1.65,0 -2.9218,1.2718 q-1.2718,1.2718 -1.2718,2.9218 q0,1.7187 1.2718,2.9562 q1.2718,1.2375 2.9218,1.2375 q1.7187,0 2.9562,-1.2375 q1.2375,-1.2375 1.2375,-2.9562 q0,-1.65 -1.2375,-2.9218 q-1.2375,-1.2718 -2.9562,-1.2718 Z" fill="#A67300" transform="matrix(1,0,0,-1,97,104)"/>
  <path d="M6.7812,10.2 q-0.45,0 -0.7968,0.3469 q-0.3469,0.3469 -0.3469,0.7968 q0,0.4687 0.3469,0.8062 q0.3469,0.3375 0.7968,0.3375 q0.4687,0 0.8062,-0.3375 q0.3375,-0.3375 0.3375,-0.8062 q0,-0.45 -0.3375,-0.7968 q-0.3375,-0.3469 -0.8062,-0.3469 Z M12.4687,7.0125 q-0.45,0 -0.7968,0.3469 q-0.3469,0.3469 -0.3469,0.7968 q0,0.4687 0.3469,0.8062 q0.3469,0.3375 0.7968,0.3375 q0.4687,0 0.8062,-0.3375 q0.3375,-0.3375 0.3375,-0.8062 q0,-0.45 -0.3375,-0.7968 q-0.3375,-0.3469 -0.8062,-0.3469 Z M18.0312,10.2 q-0.45,0 -0.7968,0.3469 q-0.3469,0.3469 -0.3469,0.7968 q0,0.4687 0.3469,0.8062 q0.3469,0.3375 0.7968,0.3375 q0.4687,0 0.8062,-0.3375 q0.3375,-0.3375 0.3375,-0.8062 q0,-0.45 -0.3375,-0.7968 q-0.3375,-0.3469 -0.8062,-0.3469 Z M12.4687,0.45 q-0.45,0 -0.7968,0.3469 q-0.3469,0.3469 -0.3469,0.7968 q0,0.4687 0.3469,0.8062 q0.3469,0.3375 0.7968,0.3375 q0.4687,0 0.8062,-0.3375 q0.3375,-0.3375 0.3375,-0.8062 q0,-0.45 -0.3375,-0.7968 q-0.3375,-0.3469 -0.8062,-0.3469 Z" fill="#E22E00" transform="matrix(1,0,0,-1,97,104)"/>
  <path d="M14.1875,-17.375 q-2.3125,0.3125 -3.5938,0.7188 q-1.2812,0.4062 -2.2188,0.9062 q-1.25,0.6875 -1.1875,1.4688 q0.0625,0.7812 0.75,0.7812 q0.5,0 1.375,0.7188 q0.875,0.7188 1.875,1.8125 q1,1.0938 1.875,2.1562 q0.4375,0.5 1.0312,0.4375 q0.5938,-0.0625 0.9688,-0.3125 q1.4375,-0.875 4.3438,-1.3438 q2.9062,-0.4688 7.4688,-0.1562 q0,0.875 -1.4375,0.875 q-2.8125,0 -5.0625,0.2812 q-2.25,0.2812 -3.4375,0.7812 q-1.75,0.6875 -1.8438,2.0312 q-0.0938,1.3438 0.2812,2.0938 q0.5,1.0625 1.125,2.125 q0.625,1.0625 1.1875,2.125 q-0.875,-0.0625 -1.9688,-0.0938 q-1.0938,-0.0312 -2.4062,-0.0312 q-4.5625,0 -7.5,1.375 q-2.9375,1.375 -4.375,3.625 q-1.4375,2.25 -1.4375,4.9375 q0,3.375 1.4375,6.2812 q1.4375,2.9062 4.0625,4.6875 q2.625,1.7812 6.125,1.7812 q2.4375,0 4.5,-1.625 q2.0625,-1.625 3.625,-4.1562 q1.5625,-2.5312 2.4375,-5.2188 q0.875,-2.6875 0.9375,-4.8125 h0.1875 v-6.875 h-1.5625 q-0.125,-0.25 -0.1875,-0.4375 q1.125,-0.9375 2.9062,-1.125 q1.7812,-0.1875 3.7188,-0.1875 q0.875,-0.0625 1.6875,-0.0938 q0.8125,-0.0312 1.625,-0.0938 q0.875,-0.0625 1.6875,-1.0312 q0.8125,-0.9688 1.0625,-1.8438 q0.5625,-1.625 0.9688,-3.5 q0.4062,-1.875 0.4062,-4 q0,-1.25 -0.75,-2.5625 q-0.75,-1.3125 -1.875,-1.5625 q-3.4375,-0.75 -6.9688,-1.0312 q-3.5312,-0.2812 -6.5938,-0.2188 q-3.0625,0.0625 -5.25,0.3125 Z M11.8125,11.125 q0.75,0 0.75,0.8125 q0,0.3125 -0.2188,0.5312 q-0.2188,0.2188 -0.5312,0.2188 q-0.8125,0 -0.8125,-0.75 q0,-0.8125 0.8125,-0.8125 Z M20.4375,3.5625 v0.125 q0,-0.0625 0,-0.125 Z" fill="#D3D3D3" transform="matrix(1,0,0,-1,122,104)"/>
  <path d="M-2.375,0 v12 h0.625 q0.75,-1.5625 2.0312,-2.7188 q1.2812,-1.1562 2.6875,-1.7812 q1.4062,-0.625 2.4688,-0.625 v-6.875 h-7.8125 Z" fill="#D3D3D3" transform="matrix(1,0,0,-1,146,104)"/>
  <path d="M-1.25,0 v6.875 h1.25 q13.8568,-0.1 27.7136,-0.1 q13.8568,0 27.7136,0.1 v-6.875 q-14.1693,-0.0834 -28.3386,-0.0834 q-14.1693,0 -28.3386,0.0834 Z" fill="#D3D3D3" transform="matrix(1,0,0,-1,148,104)"/>
  <path d="M-1.25,0 v6.875 h2.375 q-0.0625,3 -0.2188,7.4375 q-0.1562,4.4375 -0.4062,9.4375 q-0.25,5 -0.5,9.8125 q-0.25,4.8125 -0.5,8.5625 q0,0.125 -0.0625,0.375 q-0.0625,0.375 -0.0312,0.875 q0.0312,0.5 0.5938,1 q0.5625,0.4375 1.4375,1.2188 q0.875,0.7812 1.6875,1.6562 q0.8125,0.875 1.1875,1.5625 q0.5,0.875 1,0.6562 q0.5,-0.2188 0.5625,-1.2812 q0.1875,-3.6875 0.375,-8.0625 q0.1875,-4.375 0.4062,-9 q0.2188,-4.625 0.4062,-9.0312 q0.1875,-4.4062 0.375,-8.25 q0.1875,-3.8438 0.25,-6.5938 q0.125,-3.375 -0.5625,-4.875 q-0.6875,-1.5 -2.1875,-1.9062 q-1.5,-0.4062 -3.8125,-0.4688 h-2.375 Z M1.125,0 v6.875 h7.5 v-6.875 h-7.5 Z" fill="#D3D3D3" transform="matrix(1,0,0,-1,203,104)"/>
  <path d="M-1.4375,0 v12 h1.1875 q-0.0625,-2.3125 2.2812,-3.75 q2.3438,-1.4375 6.0938,-1.75 v-2.8125 l-9.5625,-3.6875 Z" fill="#D3D3D3" transform="matrix(1,0,0,-1,211,104)"/>
  <path d="M-1.25,0 v6.875 h6.75 q-2.1875,1.625 -4.375,3.9375 q-0.5,0.5 -0.5312,0.8438 q-0.0312,0.3438 0.5312,0.7188 q0.9375,0.625 2.1875,1.9688 q1.25,1.3438 2.3125,2.9688 q0.1875,0.3125 0.625,0.375 q0.4375,0.0625 0.8125,-0.375 q3.375,-3.875 7.4375,-6.0312 q4.0625,-2.1562 8.6875,-3.125 q4.625,-0.9688 9.6875,-1.1875 q5.0625,-0.2188 10.375,-0.2188 q0.5,0 0.6562,-0.2812 q0.1562,-0.2812 -0.1562,-0.7188 q-1,-1.5 -2.0312,-2.5625 q-1.0312,-1.0625 -2.0938,-1.9375 q-0.5625,-0.5 -1.6875,-0.6875 q-1.125,-0.1875 -1.9375,-0.1875 q-3,0 -7.375,-0.0625 q-4.375,-0.0625 -9.1875,-0.125 q-3.875,-0.0625 -7.6875,-0.0938 q-3.8125,-0.0312 -7.1875,-0.0625 q-3.375,-0.0312 -5.8125,-0.0312 Z" fill="#D3D3D3" transform="matrix(1,0,0,-1,211,104)"/>
  <path d="" fill="#D3D3D3" transform="matrix(1,0,0,-1,255,104)"/>
  <path d="M4.0625,0 q-2.3125,0 -3.1562,0.9062 q-0.8438,0.9062 -0.9062,2.5312 q-0.125,4.3125 -0.1875,9.1875 q-0.0625,4.875 -0.1562,9.6562 q-0.0938,4.7812 -0.25,8.9062 q-0.1562,4.125 -0.4062,6.9375 q0,0.25 -0.0312,0.4375 q-0.0312,0.1875 -0.0312,0.375 q-0.25,2.625 -0.2188,3.6562 q0.0312,1.0312 0.7812,1.5312 q1.25,0.75 2.3438,2.0312 q1.0938,1.2812 2.0938,2.9688 q0.3125,0.5 0.8125,0.4375 q0.5,-0.0625 0.5,-1 q0,-3 0.0625,-6.7812 q0.0625,-3.7812 0.125,-7.7812 q0.0625,-4 0.1562,-7.6875 q0.0938,-3.6875 0.1562,-6.5312 q0.0625,-2.8438 0.125,-4.3438 q0.1875,-3.5 0.3125,-5.375 q0.125,-1.875 0.3438,-2.5312 q0.2188,-0.6562 0.5938,-0.6562 v-6.875 h-3.0625 Z" fill="#D3D3D3" transform="matrix(1,0,0,-1,280,104)"/>
  <path d="M-1.5,2.8125 v9.8125 h1.1875 q0.0625,-2.3125 1.0312,-3.25 q0.9688,-0.9375 1.8438,-1.25 v-5.3125 h-4.0625 Z" fill="#D3D3D3" transform="matrix(1,0,0,-1,286,104)"/>
  <path d="M17.3125,-0.625 q-0.875,0 -1.75,0 v0 q-4.0625,0.0625 -8.4062,0.3438 q-4.3438,0.2812 -8.4062,0.2812 v6.875 h2.375 q-0.0625,0.375 -0.0625,0.8125 q0.0625,2.75 1.1562,5.5312 q1.0938,2.7812 3,5.0938 q1.9062,2.3125 4.4062,3.6875 q2.5,1.375 5.3125,1.375 q2.375,0 4.5,-1.5312 q2.125,-1.5312 3.7188,-4.0625 q1.5938,-2.5312 2.5,-5.5312 q0.9062,-3 0.9062,-6 q0,-1.875 -0.75,-3.4375 q-0.75,-1.5625 -2.75,-2.5 q-2,-0.9375 -5.75,-0.9375 Z M16.3125,10.5 q0.75,0 0.75,0.8125 q0,0.3125 -0.2188,0.5312 q-0.2188,0.2188 -0.5312,0.2188 q-0.8125,0 -0.8125,-0.75 q0,-0.8125 0.8125,-0.8125 Z" fill="#D3D3D3" transform="matrix(1,0,0,-1,286,104)"/>
  <path d="" fill="#D3D3D3" transform="matrix(1,0,0,-1,313,104)"/>
  <path d="M14.25,-7.5625 q-4.1875,-0.0625 -7.875,0.9688 q-3.6875,1.0312 -5.6875,2.3438 q-0.75,0.5 -0.6562,0.9375 q0.0938,0.4375 0.7188,0.6875 q1.4375,0.5 2.6562,1.8438 q1.2188,1.3438 2.1562,2.5312 q0.375,0.5 1.125,0.0625 q1.75,-0.9375 4.375,-1.5938 q2.625,-0.6562 5.1562,-0.9375 q2.5312,-0.2812 3.9688,-0.0938 q0.5,0.0625 0.4062,0.4688 q-0.0938,0.4062 -0.4688,0.4062 q-1.5,-0.0625 -3.5,0.1562 q-2,0.2188 -3.9375,0.7188 q-1.9375,0.5 -3.375,1.25 q-0.6875,0.375 -0.5938,0.9062 q0.0938,0.5312 0.4688,0.8438 q0.875,0.875 2.125,2.1562 q1.25,1.2812 2.5312,2.6875 q1.2812,1.4062 2.375,2.5938 q1.0938,1.1875 1.7188,1.8125 q0.25,0.25 0.4062,0.4062 q0.1562,0.1562 0.4062,0.1562 q0.3125,0 0.9375,-0.4375 q2.0625,-1.375 4,-3.7188 q1.9375,-2.3438 3.25,-5.125 q1.3125,-2.7812 1.375,-5.5312 q0.0625,-1.6875 -0.625,-3.3438 q-0.6875,-1.6562 -3.125,-2.3438 q-2.0625,-0.625 -4.7188,-0.6875 q-2.6562,-0.0625 -5.5938,-0.125 Z" fill="#D3D3D3" transform="matrix(1,0,0,-1,338,104)"/>
  <path d="M15.0625,-0.125 l-16.3125,0.125 v6.875 h3.4375 q-0.25,0.5 -0.625,1.8125 q-0.375,1.3125 -0.5625,1.875 q-0.1875,0.625 0,0.9062 q0.1875,0.2812 0.6875,0.5312 q1.25,0.5625 1.9688,1.5312 q0.7188,0.9688 1.7188,2.6562 q0.3125,0.5625 0.8438,0.5625 q0.5312,0 0.6562,-0.6875 q0.6875,-3.25 1.1875,-5 q0.5,-1.75 1.5625,-2.3125 q-0.375,0.875 -0.6562,1.875 q-0.2812,1 -0.3438,1.875 q0,0.4375 0.2812,0.6875 q0.2812,0.25 0.5938,0.4375 q1.25,0.625 2.1562,1.5625 q0.9062,0.9375 1.6562,2.8125 q0.1875,0.4375 0.5625,0.5 q0.375,0.0625 0.5,-0.4375 q0.5625,-1.5625 0.9062,-3.4062 q0.3438,-1.8438 0.7812,-3.4375 q0.4375,-1.5938 1.125,-2.4062 q-0.125,1 -0.3125,2.3438 q-0.1875,1.3438 -0.375,2.5625 q-0.1875,1.2188 -0.3125,1.7188 q-0.125,0.5 0.0312,0.75 q0.1562,0.25 0.4688,0.4375 q0.1875,0.125 0.25,0.1875 q1,0.6875 2.0312,1.9688 q1.0312,1.2812 1.4062,2.7812 q0.1875,0.75 0.6562,0.8438 q0.4688,0.0938 0.6562,-0.7812 q0.25,-1.1875 0.5938,-3.375 q0.3438,-2.1875 0.6875,-4.7188 q0.3438,-2.5312 0.5312,-4.9375 q0.1875,-2.4062 0.125,-4.0938 q-0.0625,-1.1875 -0.7812,-2.2812 q-0.7188,-1.0938 -2.5625,-1.7188 q-1.8438,-0.625 -5.2188,-0.625 Z" fill="#D3D3D3" transform="matrix(1,0,0,-1,363,104)"/>
  <path d="" fill="#D3D3D3" transform="matrix(1,0,0,-1,387,104)"/>
  <path d="M14.625,-25.1875 q-1.5625,-0.625 -3.7812,-0.875 q-2.2188,-0.25 -4.5938,-0.0625 q-2.375,0.1875 -4.5312,0.7812 q-2.1562,0.5938 -3.5938,1.5938 q-0.5625,0.375 -0.6562,0.875 q-0.0938,0.5 0.5938,0.75 q1.125,0.5 2.4062,1.8438 q1.2812,1.3438 2.5938,3.2812 q0.1875,0.3125 0.4375,0.25 q0.25,-0.0625 0.4375,-0.1875 q1.3125,-0.6875 3.0625,-1.125 q1.75,-0.4375 5.0625,-0.375 q0.125,3.5625 0.125,6.5312 q0,2.9688 -0.0625,5.2812 q0,0.4375 0,0.625 q-0.0625,3.8125 -1.3438,5.6562 q-1.2812,1.8438 -3.75,2.6875 q-2.4688,0.8438 -6.1562,1.5938 q-0.8125,0.1875 -0.8438,0.7188 q-0.0312,0.5312 0.7188,0.7188 q2.1875,0.625 3.8438,2.4375 q1.6562,1.8125 2.2812,4.25 q0.125,0.5 0.4375,0.75 q0.3125,0.25 0.9375,-0.0625 q3.5,-1.9375 5.5,-3.875 q2,-1.9375 2.9062,-4.3438 q0.9062,-2.4062 0.9688,-5.9062 q0.0625,-2.25 0.0625,-5.0938 q0,-2.8438 -0.0312,-5.5938 q-0.0312,-2.75 -0.0938,-4.875 q0,-0.5 0,-0.75 q0,-1.3125 -0.2812,-2.875 q-0.2812,-1.5625 -0.9062,-2.8438 q-0.625,-1.2812 -1.75,-1.7812 Z" fill="#D3D3D3" transform="matrix(1,0,0,-1,412,104)"/>
  <path d="M14.375,-2.125 q-4.8125,0 -7.9375,1.125 q-3.125,1.125 -4.7812,3.0938 q-1.6562,1.9688 -2.0938,4.4062 q-0.4375,2.8125 0.2812,5.625 q0.7188,2.8125 2.5,5.1875 q1.7812,2.375 4.4375,3.8125 q2.6562,1.4375 6.0312,1.4375 q2.9375,0 5.1875,-1.6875 q2.25,-1.6875 3.7812,-4.3125 q1.5312,-2.625 2.3125,-5.4688 q0.7812,-2.8438 0.7812,-5.2188 q0,-3.125 -1.0312,-4.875 q-1.0312,-1.75 -3.3438,-2.4062 q-2.3125,-0.6562 -6.125,-0.7188 Z M12.75,9.25 q0.75,0 0.75,0.8125 q0,0.3125 -0.2188,0.5312 q-0.2188,0.2188 -0.5312,0.2188 q-0.8125,0 -0.8125,-0.75 q0,-0.8125 0.8125,-0.8125 Z" fill="#D3D3D3" transform="matrix(1,0,0,-1,428,104)"/>
  <path d="M7.1562,0.0125 q-1.95,0 -3.4531,1.5031 q-1.5031,1.5031 -1.5031,3.4531 q0,2.0312 1.5031,3.4937 q1.5031,1.4625 3.4531,1.4625 q2.0312,0 3.4937,-1.4625 q1.4625,-1.4625 1.4625,-3.4937 q0,-1.95 -1.4625,-3.4531 q-1.4625,-1.5031 -3.4937,-1.5031 Z M17.7812,0.0125 q-1.95,0 -3.4531,1.5031 q-1.5031,1.5031 -1.5031,3.4531 q0,2.0312 1.5031,3.4937 q1.5031,1.4625 3.4531,1.4625 q2.0312,0 3.4937,-1.4625 q1.4625,-1.4625 1.4625,-3.4937 q0,-1.95 -1.4625,-3.4531 q-1.4625,-1.5031 -3.4937,-1.5031 Z M12.4687,9.3875 q-1.95,0 -3.4531,1.5031 q-1.5031,1.5031 -1.5031,3.4531 q0,2.0312 1.5031,3.4937 q1.5031,1.4625 3.4531,1.4625 q2.0312,0 3.4937,-1.4625 q1.4625,-1.4625 1.4625,-3.4937 q0,-1.95 -1.4625,-3.4531 q-1.4625,-1.5031 -3.4937,-1.5031 Z" fill="#FFE2A1" transform="matrix(1,0,0,-1,453,104)"/>
  <path d="M7.1561,0.775 q-1.65,0 -2.9218,1.2718 q-1.2718,1.2718 -1.2718,2.9218 q0,1.7187 1.2718,2.9562 q1.2718,1.2375 2.9218,1.2375 q1.7187,0 2.9562,-1.2375 q1.2375,-1.2375 1.2375,-2.9562 q0,-1.65 -1.2375,-2.9218 q-1.2375,-1.2718 -2.9562,-1.2718 Z M12.4686,10.15 q-1.65,0 -2.9218,1.2718 q-1.2718,1.2718 -1.2718,2.9218 q0,1.7187 1.2718,2.9562 q1.2718,1.2375 2.9218,1.2375 q1.7187,0 2.9562,-1.2375 q1.2375,-1.2375 1.2375,-2.9562 q0,-1.65 -1.2375,-2.9218 q-1.2375,-1.2718 -2.9562,-1.2718 Z M17.7811,0.775 q-1.65,0 -2.9218,1.2718 q-1.2718,1.2718 -1.2718,2.9218 q0,1.7187 1.2718,2.9562 q1.2718,1.2375 2.9218,1.2375 q1.7187,0 2.9562,-1.2375 q1.2375,-1.2375 1.2375,-2.9562 q0,-1.65 -1.2375,-2.9218 q-1.2375,-1.2718 -2.9562,-1.2718 Z" fill="#A67300" transform="matrix(1,0,0,-1,453,104)"/>
  <path d="M6.7812,10.2 q-0.45,0 -0.7968,0.3469 q-0.3469,0.3469 -0.3469,0.7968 q0,0.4687 0.3469,0.8062 q0.3469,0.3375 0.7968,0.3375 q0.4687,0 0.8062,-0.3375 q0.3375,-0.3375 0.3375,-0.8062 q0,-0.45 -0.3375,-0.7968 q-0.3375,-0.3469 -0.8062,-0.3469 Z M12.4687,7.0125 q-0.45,0 -0.7968,0.3469 q-0.3469,0.3469 -0.3469,0.7968 q0,0.4687 0.3469,0.8062 q0.3469,0.3375 0.7968,0.3375 q0.4687,0 0.8062,-0.3375 q0.3375,-0.3375 0.3375,-0.8062 q0,-0.45 -0.3375,-0.7968 q-0.3375,-0.3469 -0.8062,-0.3469 Z M18.0312,10.2 q-0.45,0 -0.7968,0.3469 q-0.3469,0.3469 -0.3469,0.7968 q0,0.4687 0.3469,0.8062 q0.3469,0.3375 0.7968,0.3375 q0.4687,0 0.8062,-0.3375 q0.3375,-0.3375 0.3375,-0.8062 q0,-0.45 -0.3375,-0.7968 q-0.3375,-0.3469 -0.8062,-0.3469 Z M12.4687,0.45 q-0.45,0 -0.7968,0.3469 q-0.3469,0.3469 -0.3469,0.7968 q0,0.4687 0.3469,0.8062 q0.3469,0.3375 0.7968,0.3375 q0.4687,0 0.8062,-0.3375 q0.3375,-0.3375 0.3375,-0.8062 q0,-0.45 -0.3375,-0.7968 q-0.3375,-0.3469 -0.8062,-0.3469 Z" fill="#E22E00" transform="matrix(1,0,0,-1,453,104)"/>
  <path d="M14.1875,-17.375 q-2.3125,0.3125 -3.5938,0.7188 q-1.2812,0.4062 -2.2188,0.9062 q-1.25,0.6875 -1.1875,1.4688 q0.0625,0.7812 0.75,0.7812 q0.5,0 1.375,0.7188 q0.875,0.7188 1.875,1.8125 q1,1.0938 1.875,2.1562 q0.4375,0.5 1.0312,0.4375 q0.5938,-0.0625 0.9688,-0.3125 q1.4375,-0.875 4.3438,-1.3438 q2.9062,-0.4688 7.4688,-0.1562 q0,0.875 -1.4375,0.875 q-2.8125,0 -5.0625,0.2812 q-2.25,0.2812 -3.4375,0.7812 q-1.75,0.6875 -1.8438,2.0312 q-0.0938,1.3438 0.2812,2.0938 q0.5,1.0625 1.125,2.125 q0.625,1.0625 1.1875,2.125 q-0.875,-0.0625 -1.9688,-0.0938 q-1.0938,-0.0312 -2.4062,-0.0312 q-4.5625,0 -7.5,1.375 q-2.9375,1.375 -4.375,3.625 q-1.4375,2.25 -1.4375,4.9375 q0,3.375 1.4375,6.2812 q1.4375,2.9062 4.0625,4.6875 q2.625,1.7812 6.125,1.7812 q2.4375,0 4.5,-1.625 q2.0625,-1.625 3.625,-4.1562 q1.5625,-2.5312 2.4375,-5.2188 q0.875,-2.6875 0.9375,-4.8125 h0.1875 v-6.875 h-1.5625 q-0.125,-0.25 -0.1875,-0.4375 q1.125,-0.9375 2.9062,-1.125 q1.7812,-0.1875 3.7188,-0.1875 q0.875,-0.0625 1.6875,-0.0938 q0.8125,-0.0312 1.625,-0.0938 q0.875,-0.0625 1.6875,-1.0312 q0.8125,-0.9688 1.0625,-1.8438 q0.5625,-1.625 0.9688,-3.5 q0.4062,-1.875 0.4062,-4 q0,-1.25 -0.75,-2.5625 q-0.75,-1.3125 -1.875,-1.5625 q-3.4375,-0.75 -6.9688,-1.0312 q-3.5312,-0.2812 -6.5938,-0.2188 q-3.0625,0.0625 -5.25,0.3125 Z M11.8125,11.125 q0.75,0 0.75,0.8125 q0,0.3125 -0.2188,0.5312 q-0.2188,0.2188 -0.5312,0.2188 q-0.8125,0 -0.8125,-0.75 q0,-0.8125 0.8125,-0.8125 Z M20.4375,3.5625 v0.125 q0,-0.0625 0,-0.125 Z" fill="#D3D3D3" transform="matrix(1,0,0,-1,478,104)"/>
  <path d="M-1.25,0 v6.875 h2.375 q-0.0625,3 -0.2188,7.4375 q-0.1562,4.4375 -0.4062,9.4375 q-0.25,5 -0.5,9.8125 q-0.25,4.8125 -0.5,8.5625 q0,0.125 -0.0625,0.375 q-0.0625,0.375 -0.0312,0.875 q0.0312,0.5 0.5938,1 q0.5625,0.4375 1.4375,1.2188 q0.875,0.7812 1.6875,1.6562 q0.8125,0.875 1.1875,1.5625 q0.5,0.875 1,0.6562 q0.5,-0.2188 0.5625,-1.2812 q0.1875,-3.6875 0.375,-8.0625 q0.1875,-4.375 0.4062,-9 q0.2188,-4.625 0.4062,-9.0312 q0.1875,-4.4062 0.375,-8.25 q0.1875,-3.8438 0.25,-6.5938 q0.125,-3.375 -0.5625,-4.875 q-0.6875,-1.5 -2.1875,-1.9062 q-1.5,-0.4062 -3.8125,-0.4688 h-2.375 Z M1.125,0 v6.875 h7.5 v-6.875 h-7.5 Z" fill="#D3D3D3" transform="matrix(1,0,0,-1,501,104)"/>
  <path d="M-0.625,0 l-0.875,14.625 h1.125 q0.0625,-2.4375 1.0625,-4.0938 q1,-1.6562 2.4375,-2.5312 q1.4375,-0.875 2.8125,-1.125 v-6.875 h-6.5625 Z" fill="#D3D3D3" transform="matrix(1,0,0,-1,509,104)"/>
  <path d="M-1.25,0 v6.875 h1.25 q13.8568,-0.1 27.7136,-0.1 q13.8568,0 27.7136,0.1 v-6.875 q-14.1693,-0.0834 -28.3386,-0.0834 q-14.1693,0 -28.3386,0.0834 Z" fill="#D3D3D3" transform="matrix(1,0,0,-1,515,104)"/>
  <path d="M-1.25,0 v6.875 h5.6875 q-1.5,1.375 -2.5,3.2188 q-1,1.8438 -1,4.3438 q0,3.375 1.7188,5.9375 q1.7188,2.5625 4.4062,4 q2.6875,1.4375 5.5625,1.4375 q2.9375,0 5.4062,-1.7188 q2.4688,-1.7188 3.9688,-4.8438 q1.5,-3.125 1.5,-7.5 q0,-0.875 -0.0312,-2.125 q-0.0312,-1.25 -0.0938,-2.75 h0.1875 v-6.875 h-24.8125 Z M13,14.875 q0.75,0 0.75,0.8125 q0,0.3125 -0.2188,0.5312 q-0.2188,0.2188 -0.5312,0.2188 q-0.8125,0 -0.8125,-0.75 q0,-0.8125 0.8125,-0.8125 Z" fill="#D3D3D3" transform="matrix(1,0,0,-1,570,104)"/>
  <path d="M-1.5,2.8125 v9.8125 h1.1875 q0.0625,-2.3125 1.0312,-3.25 q0.9688,-0.9375 1.8438,-1.25 v-5.3125 h-4.0625 Z" fill="#D3D3D3" transform="matrix(1,0,0,-1,594,104)"/>
  <path d="M-1.25,0 v6.875 h2.375 q-0.0625,3 -0.2188,7.4375 q-0.1562,4.4375 -0.4062,9.4375 q-0.25,5 -0.5,9.8125 q-0.25,4.8125 -0.5,8.5625 q0,0.125 -0.0625,0.375 q-0.0625,0.375 -0.0312,0.875 q0.0312,0.5 0.5938,1 q0.5625,0.4375 1.4375,1.2188 q0.875,0.7812 1.6875,1.6562 q0.8125,0.875 1.1875,1.5625 q0.5,0.875 1,0.6562 q0.5,-0.2188 0.5625,-1.2812 q0.1875,-3.6875 0.375,-8.0625 q0.1875,-4.375 0.4062,-9 q0.2188,-4.625 0.4062,-9.0312 q0.1875,-4.4062 0.375,-8.25 q0.1875,-3.8438 0.25,-6.5938 q0.125,-3.375 -0.5625,-4.875 q-0.6875,-1.5 -2.1875,-1.9062 q-1.5,-0.4062 -3.8125,-0.4688 h-2.375 Z" fill="#D3D3D3" transform="matrix(1,0,0,-1,594,104)"/>
  <path d="M19.4375,-3 q-3.8125,0.0625 -7.2812,1.1875 q-3.4688,1.125 -6.1875,3.4375 q-2.7188,2.3125 -4.3125,5.9688 q-1.5938,3.6562 -1.6562,8.7812 q0,2.625 -0.0625,5.7812 q-0.0625,3.1562 -0.1562,6.4062 q-0.0938,3.25 -0.25,6.1562 q-0.1562,2.9062 -0.3438,4.9062 q-0.1875,1.4375 -0.3125,2.3125 q-0.125,0.875 0.3125,1.1875 q0.6875,0.4375 1.6562,1.2812 q0.9688,0.8438 1.8438,1.8438 q0.875,1 1.25,1.8125 q0.3125,0.6875 0.7812,0.6875 q0.4688,0 0.6562,-1.25 q0.3125,-2.25 0.375,-5.375 q0.0625,-3.125 0.0625,-6.6875 q0,-3.5625 0,-7.1562 q0,-3.5938 0.1875,-6.7188 q0.1875,-3.4375 1.3125,-6.25 q1.125,-2.8125 3.0938,-4.9062 q1.9688,-2.0938 4.5312,-3.4688 q3.25,-1.6875 7.3125,-2.1875 q4.0625,-0.5 8.625,0.3125 q4.5625,0.8125 9.25,2.875 q0.5625,0.3125 0.8438,0.125 q0.2812,-0.1875 0.0312,-0.75 q-2.3125,-5.125 -7.9688,-7.75 q-5.6562,-2.625 -13.5938,-2.5625 Z" fill="#D3D3D3" transform="matrix(1,0,0,-1,0.5,47)"/>
  <path d="" fill="#D3D3D3" transform="matrix(1,0,0,-1,41.5,47)"/>
  <path d="M9.9375,-0.3125 q-2.3125,0.0625 -4.75,0.2812 q-2.4375,0.2188 -4.5,0.8438 q-0.5,0.125 -0.6875,0.5625 q-0.1875,0.4375 0.4375,0.625 q1.125,0.3125 2.4062,1.6562 q1.2812,1.3438 2.4688,3.6562 q0.125,0.1875 0.5,0.2188 q0.375,0.0312 0.8125,-0.1562 q0.4375,-0.1875 1.1875,-0.4688 q0.75,-0.2812 3.25,-0.4062 q1.9896,-0.0625 4.6199,-0.125 q2.6303,-0.0625 5.818,-0.125 q3.1877,-0.0625 6.8233,-0.0938 q3.6356,-0.0312 7.6099,-0.0938 q3.9742,-0.0625 8.1673,-0.0625 q4.193,0 8.5006,-0.0312 q4.3076,-0.0312 8.6334,-0.0312 q4.3257,0 8.5632,0.0312 q4.2374,0.0312 8.243,0.0312 q4.0055,0 7.6985,0.0625 q3.693,0.0625 6.9536,0.0938 q3.2607,0.0312 5.9796,0.125 q2.7189,0.0938 4.8128,0.1562 q2.0938,0.0625 3.4063,0.1875 q-1.125,2.1875 -4.375,3.3125 q-0.5625,0.1875 -0.5938,0.7812 q-0.0312,0.5938 0.5938,0.6562 q1.625,0.125 3.5312,1.75 q1.9062,1.625 2.7812,4 q0.3125,0.875 0.6875,0.75 q0.375,-0.125 0.6875,-0.5 q1.375,-1.625 2.4375,-3.9375 q1.0625,-2.3125 1.6875,-4.625 q0.625,-2.3125 0.625,-3.9375 q0,-1.8125 -0.375,-2.8125 q-0.375,-1 -1.5938,-1.4688 q-1.2188,-0.4688 -3.7812,-0.5938 q-2.0625,-0.0625 -4.7188,-0.1562 q-2.6563,-0.0938 -5.7815,-0.1562 q-3.1252,-0.0625 -6.6046,-0.125 q-3.4794,-0.0625 -7.2922,-0.0938 q-3.8128,-0.0312 -7.8235,-0.0625 q-4.0107,-0.0312 -8.1881,-0.0625 q-4.1774,-0.0312 -8.3809,-0.0312 q-4.2035,0 -8.4121,0 q-4.2087,0 -8.3079,0 q-4.0993,0 -7.9798,0.0312 q-3.8805,0.0312 -7.5161,0.0625 q-3.6356,0.0312 -6.9223,0.0625 q-3.2866,0.0312 -6.1565,0.0938 q-2.8699,0.0625 -5.1824,0.125 Z" fill="#D3D3D3" transform="matrix(1,0,0,-1,66.5,47)"/>
  <path d="" fill="#D3D3D3" transform="matrix(1,0,0,-1,181.5,47)"/>
  <path d="M14.25,-7.5625 q-4.1875,-0.0625 -7.875,0.9688 q-3.6875,1.0312 -5.6875,2.3438 q-0.75,0.5 -0.6562,0.9375 q0.0938,0.4375 0.7188,0.6875 q1.4375,0.5 2.6562,1.8438 q1.2188,1.3438 2.1562,2.5312 q0.375,0.5 1.125,0.0625 q1.75,-0.9375 4.375,-1.5938 q2.625,-0.6562 5.1562,-0.9375 q2.5312,-0.2812 3.9688,-0.0938 q0.5,0.0625 0.4062,0.4688 q-0.0938,0.4062 -0.4688,0.4062 q-1.5,-0.0625 -3.5,0.1562 q-2,0.2188 -3.9375,0.7188 q-1.9375,0.5 -3.375,1.25 q-0.6875,0.375 -0.5938,0.9062 q0.0938,0.5312 0.4688,0.8438 q0.875,0.875 2.125,2.1562 q1.25,1.2812 2.5312,2.6875 q1.2812,1.4062 2.375,2.5938 q1.0938,1.1875 1.7188,1.8125 q0.25,0.25 0.4062,0.4062 q0.1562,0.1562 0.4062,0.1562 q0.3125,0 0.9375,-0.4375 q2.0625,-1.375 4,-3.7188 q1.9375,-2.3438 3.25,-5.125 q1.3125,-2.7812 1.375,-5.5312 q0.0625,-1.6875 -0.625,-3.3438 q-0.6875,-1.6562 -3.125,-2.3438 q-2.0625,-0.625 -4.7188,-0.6875 q-2.6562,-0.0625 -5.5938,-0.125 Z" fill="#D3D3D3" transform="matrix(1,0,0,-1,206.5,47)"/>
  <path d="M-1.25,0 v6.875 h2.4375 q-0.0625,2.625 -0.0938,4.25 q-0.0312,1.625 -0.1562,3.1875 q0,0.1875 -0.0625,0.625 q-0.0625,1.125 0,1.8438 q0.0625,0.7188 0.625,1.0938 q2.8125,1.875 4.8125,4.9375 q0.3125,0.5 0.5938,0.4062 q0.2812,-0.0938 0.2812,-0.5312 q0,-4.6875 0.4375,-9.0938 q0.4375,-4.4062 0.5,-9.0938 q0.0625,-1.625 -1.375,-3.0625 q-1.4375,-1.4375 -3.25,-1.4375 h-4.75 Z" fill="#D3D3D3" transform="matrix(1,0,0,-1,231.5,47)"/>
  <path d="" fill="#D3D3D3" transform="matrix(1,0,0,-1,239.5,47)"/>
  <path d="M10.6875,-0.7708 q-3.8125,0.0625 -6.4375,0.4062 q-2.625,0.3438 -3.625,1.1562 q-0.6875,0.5 -0.625,1 q0.0625,0.5 0.8125,0.5 q0.375,0 0.7188,0.2188 q0.3438,0.2188 0.5938,0.4688 q0.5625,0.5625 1.4062,1.6562 q0.8438,1.0938 1.5312,2.2188 q0.6875,1.0625 2.1875,0.1875 q0.6875,-0.375 2.125,-0.5625 q1.4375,-0.1875 3.0625,-0.3125 q0.4375,0 1.672,-0.0312 q1.2345,-0.0312 3.1304,-0.0625 q1.896,-0.0312 4.391,-0.0625 q2.495,-0.0312 5.464,-0.0625 q2.969,-0.0312 6.3183,-0.0625 q3.3492,-0.0312 6.9798,-0.0312 q3.6305,0 7.4173,-0.0312 q3.7868,-0.0312 7.6048,-0.0312 q3.818,0 7.6361,0 q3.818,0 7.4485,0.0312 q3.6305,0.0312 7.037,0.0625 q3.4065,0.0312 6.4588,0.0625 q3.0523,0.0312 5.641,0.0938 q2.5887,0.0625 4.6044,0.1562 q2.0157,0.0938 3.3282,0.1562 q1.375,0.125 1.625,0.3438 q0.25,0.2188 0.125,0.5938 q-0.0625,0.125 -0.2188,0.25 q-0.1562,0.125 -0.6562,0.0625 q-0.75,-0.0625 -2.3282,-0.125 q-1.5782,-0.0625 -3.8804,-0.125 q-2.3022,-0.0625 -5.1722,-0.125 q-2.87,-0.0625 -6.214,-0.0938 q-3.344,-0.0312 -7.037,-0.0625 q-3.693,-0.0312 -7.6048,-0.0625 q-3.9118,-0.0312 -7.9798,-0.0312 q-4.068,0 -8.1048,0 q-4.0368,0 -7.9486,0.0312 q-3.9118,0.0312 -7.6048,0.0312 q-3.693,0 -7.0318,0.0625 q-3.3388,0.0625 -6.1828,0.125 q-2.844,0.0625 -5.1149,0.125 q-2.271,0.0625 -3.8492,0.1562 q-1.5782,0.0938 -2.3282,0.2188 q-1.5625,0.1875 -2.1562,0.6875 q-0.5938,0.5 0.0312,1.375 q2.125,2.8125 4.1875,5.6562 q2.0625,2.8438 3.8125,5.7812 q0.3125,0.5 0.7188,0.3125 q0.4062,-0.1875 0.1562,-0.75 q-0.25,-0.5625 -0.7812,-1.75 q-0.5312,-1.1875 -1.0312,-2.3438 q-0.5,-1.1562 -0.75,-1.7812 q0.875,-0.0625 2.5157,-0.1562 q1.6407,-0.0938 3.9117,-0.1562 q2.271,-0.0625 5.1097,-0.0938 q2.8388,-0.0312 6.089,-0.0625 q3.2503,-0.0312 6.8495,-0.0312 q3.5992,0 7.4173,0 q3.818,0 7.7611,0 q3.943,0 7.9173,0 q3.9743,0 7.8548,0.0312 q3.8805,0.0312 7.5423,0.0625 q3.6618,0.0312 7.037,0.0625 q3.3753,0.0312 6.365,0.0625 q2.9898,0.0312 5.4535,0.0625 q2.4637,0.0312 4.2919,0.0938 q1.8282,0.0625 2.9532,0.0625 q1.125,0.0625 1.5312,-0.4688 q0.4062,-0.5312 0.9688,-1.8438 q0.75,-1.6875 1.6562,-4.0625 q0.9062,-2.375 0.9688,-5.4375 q0.0625,-1.25 -1.0312,-2.125 q-1.0938,-0.875 -2.2188,-1 q-1.375,-0.125 -3.4532,-0.2188 q-2.0782,-0.0938 -4.6929,-0.1562 q-2.6147,-0.0625 -5.7035,-0.125 q-3.0888,-0.0625 -6.5578,-0.0938 q-3.469,-0.0312 -7.1933,-0.0938 q-3.7243,-0.0625 -7.6673,-0.0625 q-3.943,0 -7.9485,-0.0312 q-4.0055,-0.0312 -8.0423,-0.0312 q-4.0368,0 -7.9798,0 q-3.943,0 -7.6673,0 q-3.7243,0 -7.1933,0 q-3.469,0 -6.5578,0.0312 q-3.0888,0.0312 -5.7035,0.0312 q-2.6147,0 -4.6929,0.0312 q-2.0782,0.0312 -3.4532,0.0312 Z" fill="#D3D3D3" transform="matrix(1,0,0,-1,264.5,47)"/>
  <path d="" fill="#D3D3D3" transform="matrix(1,0,0,-1,372.5,47)"/>
  <path d="M16.25,-8.75 q-3.25,-0.125 -6.375,0.3125 q-3.125,0.4375 -5.5938,1.375 q-2.4688,0.9375 -3.9062,2.375 q-0.625,0.6875 -0.1875,1.0625 q0.4375,0.375 0.9375,0.375 q0.6875,0 1.6875,0.6875 q1,0.6875 1.9375,1.6562 q0.9375,0.9688 1.3125,1.6562 q0.3125,0.5 0.9062,0.3125 q0.5938,-0.1875 1.0938,-0.5 q0.0625,-0.0625 0.125,-0.0625 q1.9375,-1.125 4.1875,-1.5938 q2.25,-0.4688 4.4375,-0.5312 q2.1875,-0.0625 3.9688,0.125 q1.7812,0.1875 2.7812,0.375 q0.75,0.125 0.7188,0.6875 q-0.0312,0.5625 -0.6562,0.4375 q-4.4375,-0.8125 -8.2188,-0.5 q-3.7812,0.3125 -6.0312,2.3438 q-2.25,2.0312 -2.25,6.3438 q0,3.25 1.5,5.9062 q1.5,2.6562 3.9688,4.2812 q2.4688,1.625 5.4688,1.625 q2.625,0 4.8125,-1.4062 q2.1875,-1.4062 3.8438,-3.6562 q1.6562,-2.25 2.7812,-4.8438 q1.125,-2.5938 1.7188,-5.0312 q0.5938,-2.4375 0.5938,-4.125 q0,-1.375 -0.2188,-2.5312 q-0.2188,-1.1562 -0.9062,-2.0938 q-1.1875,-1.75 -3.6875,-2.8438 q-2.5,-1.0938 -5.375,-1.5938 q-2.875,-0.5 -5.375,-0.625 Z M17.3125,10 q0.75,0 0.75,0.8125 q0,0.3125 -0.2188,0.5312 q-0.2188,0.2188 -0.5312,0.2188 q-0.8125,0 -0.8125,-0.75 q0,-0.8125 0.8125,-0.8125 Z" fill="#D3D3D3" transform="matrix(1,0,0,-1,397.5,47)"/>
  <path d="M-2.375,0 v12 h0.625 q0.75,-1.5625 2.0312,-2.7188 q1.2812,-1.1562 2.6875,-1.7812 q1.4062,-0.625 2.4688,-0.625 v-6.875 h-7.8125 Z" fill="#D3D3D3" transform="matrix(1,0,0,-1,428.5,47)"/>
  <path d="M-1.25,0 v6.875 h4.375 q-1.75,1.6875 -2.375,3.9688 q-0.625,2.2812 0.8125,3.7812 q0.625,0.6875 1.875,1.9062 q1.25,1.2188 2.6562,2.5938 q1.4062,1.375 2.5312,2.4375 q1.125,1.0625 1.5,1.4375 q0.6875,0.6875 1.0312,0.25 q0.3438,-0.4375 -0.1562,-1 q-0.375,-0.4375 -1.0312,-1.4062 q-0.6562,-0.9688 -1.3125,-1.9688 q-0.6562,-1 -0.9688,-1.5625 q-0.875,-1.5 0.5,-3.25 q1.375,-1.75 4.4688,-3.3438 q3.0938,-1.5938 7.3438,-2.6562 q4.125,-1.0625 7.3438,-1.4062 q3.2188,-0.3438 6.4062,-0.2812 q3.1875,0.0625 7.25,0.25 q0.3125,0 0.6562,0.0312 q0.3438,0.0312 0.6562,0.0312 q0.8125,0.0625 0.8125,-0.3125 q0,-0.375 -0.375,-0.6875 q-1.1875,-0.875 -2.6562,-2.375 q-1.4688,-1.5 -2.5312,-2.25 q-0.3125,-0.25 -0.625,-0.4062 q-0.3125,-0.1562 -0.625,-0.1562 q-5.625,-0.1875 -10.125,-0.3125 q-4.5,-0.125 -8.6875,-0.1875 q-4.1875,-0.0625 -8.6875,-0.0625 q-4.5,0 -10.0625,0.0625 Z" fill="#D3D3D3" transform="matrix(1,0,0,-1,430.5,47)"/>
  <path d="" fill="#D3D3D3" transform="matrix(1,0,0,-1,473.5,47)"/>
  <path d="M19.4375,-3 q-3.8125,0.0625 -7.2812,1.1875 q-3.4688,1.125 -6.1875,3.4375 q-2.7188,2.3125 -4.3125,5.9688 q-1.5938,3.6562 -1.6562,8.7812 q0,2.625 -0.0625,5.7812 q-0.0625,3.1562 -0.1562,6.4062 q-0.0938,3.25 -0.25,6.1562 q-0.1562,2.9062 -0.3438,4.9062 q-0.1875,1.4375 -0.3125,2.3125 q-0.125,0.875 0.3125,1.1875 q0.6875,0.4375 1.6562,1.2812 q0.9688,0.8438 1.8438,1.8438 q0.875,1 1.25,1.8125 q0.3125,0.6875 0.7812,0.6875 q0.4688,0 0.6562,-1.25 q0.3125,-2.25 0.375,-5.375 q0.0625,-3.125 0.0625,-6.6875 q0,-3.5625 0,-7.1562 q0,-3.5938 0.1875,-6.7188 q0.1875,-3.4375 1.3125,-6.25 q1.125,-2.8125 3.0938,-4.9062 q1.9688,-2.0938 4.5312,-3.4688 q3.25,-1.6875 7.3125,-2.1875 q4.0625,-0.5 8.625,0.3125 q4.5625,0.8125 9.25,2.875 q0.5625,0.3125 0.8438,0.125 q0.2812,-0.1875 0.0312,-0.75 q-2.3125,-5.125 -7.9688,-7.75 q-5.6562,-2.625 -13.5938,-2.5625 Z" fill="#D3D3D3" transform="matrix(1,0,0,-1,498.5,47)"/>
  <path d="" fill="#D3D3D3" transform="matrix(1,0,0,-1,539.5,47)"/>
  <path d="M9.9375,-15.1875 q-2.125,-1.25 -4.8438,-1.6562 q-2.7188,-0.4062 -5.5938,0.0625 q-2.875,0.4688 -5.5,1.7812 q-0.625,0.3125 -0.4688,0.8438 q0.1562,0.5312 0.7812,0.9688 q1.375,0.875 2.4375,2.1875 q1.0625,1.3125 2.1875,2.6875 q0.25,0.3125 0.6562,0.2812 q0.4062,-0.0312 0.7812,-0.1562 q0.0625,0 0.0625,0 q1.25,-0.4375 2.6875,-0.5938 q1.4375,-0.1562 3,0.0938 q-0.25,4.6875 -0.5312,10.3125 q-0.2812,5.625 -0.625,11.4688 q-0.3438,5.8438 -0.6875,11.3125 q-0.3438,5.4688 -0.6562,9.9688 q-0.3125,4.5 -0.5625,7.4375 q0,0.125 -0.0625,0.4375 q-0.125,0.375 -0.125,0.8125 q0,0.4375 0.6875,0.8125 q0.5625,0.3125 1.3125,1.1875 q0.75,0.875 1.4062,1.9062 q0.6562,1.0312 1.0312,1.7188 q0.5,0.875 1.0312,0.6562 q0.5312,-0.2188 0.5938,-1.2812 q0.3125,-4.5625 0.625,-10.25 q0.3125,-5.6875 0.5938,-11.625 q0.2812,-5.9375 0.5312,-11.4688 q0.25,-5.5312 0.375,-9.8438 q0.0625,-3.125 0.3125,-7.7188 q0.25,-4.5938 0.25,-9.5312 q0,-1.125 -0.4688,-1.75 q-0.4688,-0.625 -1.2188,-1.0625 Z M7.375,0 v6.875 h4.4998 v-6.875 h-4.4998 Z" fill="#D3D3D3" transform="matrix(1,0,0,-1,564.5,47)"/>
  <path d="M-1.4375,0 v16.5 h1 q0.125,-4.6875 3.0625,-7.1875 q2.9375,-2.5 8.25,-2.4375 l-7.9375,-6.875 h-4.375 Z" fill="#D3D3D3" transform="matrix(1,0,0,-1,575.5,47)"/>
  <path d="M-1.25,0 v6.875 q2.0625,0 4.4375,0 q2.375,0 4.5312,0.0625 q2.1562,0.0625 3.6875,0.2188 q1.5312,0.1562 1.9688,0.4062 q0.5,0.3125 0.4688,0.7188 q-0.0312,0.4062 -0.5312,0.2812 q-1.5,-0.25 -3.8125,-0.4688 q-2.3125,-0.2188 -4.7188,0.0938 q-2.4062,0.3125 -4.1562,1.5 q-1.5625,1.0625 -2.5625,2.7812 q-1,1.7188 -1,3.7812 q0,2.125 0.8438,4.3438 q0.8438,2.2188 2.375,4.0938 q1.5312,1.875 3.625,3.0312 q2.0938,1.1562 4.5938,1.1562 q2.6875,0 4.9688,-1.8438 q2.2812,-1.8438 3.9375,-4.9688 q1.6562,-3.125 2.5625,-6.9688 q0.9062,-3.8438 0.9062,-7.9062 q0,-2.1875 -1.375,-3.5938 q-1.375,-1.4062 -3.6875,-2.1562 q-2.3125,-0.75 -5.2188,-1.0625 q-2.9062,-0.3125 -5.9688,-0.375 q-3.0625,-0.0625 -5.875,0 Z M8.3125,17.9375 q0.75,0 0.75,0.8125 q0,0.3125 -0.2188,0.5312 q-0.2188,0.2188 -0.5312,0.2188 q-0.8125,0 -0.8125,-0.75 q0,-0.8125 0.8125,-0.8125 Z" fill="#D3D3D3" transform="matrix(1,0,0,-1,579.5,47)"/>
</svg>
