<?xml version='1.0' encoding='ASCII'?>
<svg xmlns="http://www.w3.org/2000/svg" width="241" height="72" preserveAspectRatio="xMinYMin slice" viewBox="-12 -19 241 72" version="1.1">
  <path d="M-12,-19 v72 h241 v-72 Z" fill="#000000" transform="matrix(1,0,0,-1,0,34)"/>
  <path d="M4.6875,0.875 q-1.5,0 -2.6562,1.1562 q-1.1562,1.1562 -1.1562,2.6562 q0,1.5625 1.1562,2.6875 q1.1562,1.125 2.6562,1.125 q1.5625,0 2.6875,-1.125 q1.125,-1.125 1.125,-2.6875 q0,-1.5 -1.125,-2.6562 q-1.125,-1.1562 -2.6875,-1.1562 Z" fill="#E22E00" transform="matrix(1,0,0,-1,-11,-1)"/>
  <path d="M2,-1.8125 q-1.8125,0.3125 -1.9688,1.125 q-0.1562,0.8125 0.4688,1.75 q0.625,0.9375 1.125,1.5 q0.25,0.25 0.3125,0.375 q3.125,4 5.5938,7.3125 q2.4688,3.3125 4.2812,6.375 q-2.625,3.5625 -5.0938,7.5 q-2.4688,3.9375 -4.6562,7.9062 q-2.1875,3.9688 -3.875,7.5312 q-0.25,0.5 -0.25,0.9688 q0,0.4688 0.5625,0.9062 q1.1875,0.9375 2.25,2.0312 q1.0625,1.0938 1.8125,3.0312 q0.25,0.5625 0.625,0.5938 q0.375,0.0312 0.625,-0.6562 q2.9375,-6.5625 5.875,-11.875 q2.9375,-5.3125 5.8125,-9.5625 q1.0625,3.5625 1.4062,7.7188 q0.3438,4.1562 0.0938,9.5312 q-0.0625,0.8125 0.0312,1.3438 q0.0938,0.5312 0.4688,0.7812 q1.3125,0.875 2.4688,2.3125 q1.1562,1.4375 1.4688,2.625 q0.3125,1.25 0.8438,1.125 q0.5312,-0.125 0.5938,-1.3125 q0.25,-7.5625 -0.6875,-15.1562 q-0.9375,-7.5938 -2.9375,-14.1562 q3.375,-4.4375 6.5312,-7.7188 q3.1562,-3.2812 5.9688,-5.7188 q2.5,-2.1875 2.0938,-3.875 q-0.4062,-1.6875 -2.5938,-2.625 q-2.5625,-1.125 -5.875,-1.7188 q-3.3125,-0.5938 -6.8125,-0.75 q-3.5,-0.1562 -6.75,-0.0625 q-3.25,0.0938 -5.8125,0.3438 q-2.5625,0.25 -4,0.5 Z M17.25,6.6875 q0.75,0 0.75,0.8125 q0,0.3125 -0.2188,0.5312 q-0.2188,0.2188 -0.5312,0.2188 q-0.8125,0 -0.8125,-0.75 q0,-0.8125 0.8125,-0.8125 Z" fill="#D3D3D3" transform="matrix(1,0,0,-1,-1,34)"/>
  <path d="" fill="#D3D3D3" transform="matrix(1,0,0,-1,33,34)"/>
  <path d="M4.6875,0.875 q-1.5,0 -2.6562,1.1562 q-1.1562,1.1562 -1.1562,2.6562 q0,1.5625 1.1562,2.6875 q1.1562,1.125 2.6562,1.125 q1.5625,0 2.6875,-1.125 q1.125,-1.125 1.125,-2.6875 q0,-1.5 -1.125,-2.6562 q-1.125,-1.1562 -2.6875,-1.1562 Z" fill="#E22E00" transform="matrix(1,0,0,-1,53,0)"/>
  <path d="M9.9375,-15.1875 q-2.125,-1.25 -4.8438,-1.6562 q-2.7188,-0.4062 -5.5938,0.0625 q-2.875,0.4688 -5.5,1.7812 q-0.625,0.3125 -0.4688,0.8438 q0.1562,0.5312 0.7812,0.9688 q1.375,0.875 2.4375,2.1875 q1.0625,1.3125 2.1875,2.6875 q0.25,0.3125 0.6562,0.2812 q0.4062,-0.0312 0.7812,-0.1562 q0.0625,0 0.0625,0 q1.25,-0.4375 2.6875,-0.5938 q1.4375,-0.1562 3,0.0938 q-0.25,4.6875 -0.5312,10.3125 q-0.2812,5.625 -0.625,11.4688 q-0.3438,5.8438 -0.6875,11.3125 q-0.3438,5.4688 -0.6562,9.9688 q-0.3125,4.5 -0.5625,7.4375 q0,0.125 -0.0625,0.4375 q-0.125,0.375 -0.125,0.8125 q0,0.4375 0.6875,0.8125 q0.5625,0.3125 1.3125,1.1875 q0.75,0.875 1.4062,1.9062 q0.6562,1.0312 1.0312,1.7188 q0.5,0.875 1.0312,0.6562 q0.5312,-0.2188 0.5938,-1.2812 q0.3125,-4.5625 0.625,-10.25 q0.3125,-5.6875 0.5938,-11.625 q0.2812,-5.9375 0.5312,-11.4688 q0.25,-5.5312 0.375,-9.8438 q0.0625,-3.125 0.3125,-7.7188 q0.25,-4.5938 0.25,-9.5312 q0,-1.125 -0.4688,-1.75 q-0.4688,-0.625 -1.2188,-1.0625 Z" fill="#D3D3D3" transform="matrix(1,0,0,-1,58,34)"/>
  <path d="" fill="#D3D3D3" transform="matrix(1,0,0,-1,70,34)"/>
  <path d="M4.6875,0.875 q-1.5,0 -2.6562,1.1562 q-1.1562,1.1562 -1.1562,2.6562 q0,1.5625 1.1562,2.6875 q1.1562,1.125 2.6562,1.125 q1.5625,0 2.6875,-1.125 q1.125,-1.125 1.125,-2.6875 q0,-1.5 -1.125,-2.6562 q-1.125,-1.1562 -2.6875,-1.1562 Z" fill="#E22E00" transform="matrix(1,0,0,-1,96,3)"/>
  <path d="M11.5625,-0.875 q-3.8125,0.0625 -6.6875,0.5312 q-2.875,0.4688 -4.3125,1.3438 q-0.6875,0.4375 -0.5312,1.1562 q0.1562,0.7188 0.8438,0.4062 q0.3125,-0.125 0.4375,-0.1875 q0.125,-0.0625 0.375,0.0625 q1.3125,0.625 2.6562,1.9062 q1.3438,1.2812 2.2812,2.4062 q0.3125,0.375 0.9062,0.5312 q0.5938,0.1562 1.2188,-0.3438 q0.5,-0.375 1.7188,-0.5625 q1.2188,-0.1875 2.8438,-0.3125 q0.4375,0 1,-0.0312 q0.5625,-0.0312 1.2188,-0.0625 q0.6562,-0.0312 1.4375,-0.0625 q0.7812,-0.0312 1.6562,-0.0625 q0.875,-0.0312 1.8438,-0.0625 q0.9688,-0.0312 2.0312,-0.0312 q1.0625,0 2.1875,-0.0312 q1.125,-0.0312 2.2812,-0.0312 q1.1562,0 2.4062,0 q1.25,0 2.5,0.0312 q1.25,0.0312 2.5625,0.0625 q1.3125,0.0312 2.6562,0.0625 q1.3438,0.0312 2.6875,0.0938 q1.3438,0.0625 2.6875,0.1562 q1.3438,0.0938 2.6562,0.1562 q1.375,0.125 1.625,0.3438 q0.25,0.2188 0.125,0.5938 q-0.0625,0.125 -0.2188,0.25 q-0.1562,0.125 -0.6562,0.0625 q-1,-0.0625 -2,-0.1562 q-1,-0.0938 -2,-0.1562 q-1,-0.0625 -2,-0.0938 q-1,-0.0312 -2,-0.0625 q-1,-0.0312 -2,-0.0625 q-1,-0.0312 -2,-0.0312 q-1,0 -2,0 q-1,0 -2.0312,0 q-1.0312,0 -2.0312,0 q-1,0 -2,0.0312 q-1,0.0312 -2,0.0625 q-1,0.0312 -2,0.0625 q-1,0.0312 -2,0.0625 q-1,0.0312 -2,0.0625 q-1,0.0312 -2,0.0312 q-1.8125,0.0625 -3.3438,0.1875 q-1.5312,0.125 -2.4375,0.5625 q-0.9062,0.4375 -0.9062,1.3125 q-0.0625,7.0625 -0.0312,13.7812 q0.0312,6.7188 -0.1562,12.2188 q-0.0625,2.125 -0.3438,3.4375 q-0.2812,1.3125 -0.2812,2.125 q0,0.8125 0.75,1.375 q1.125,0.8125 2.3438,2.0938 q1.2188,1.2812 2.2188,3.1562 q0.25,0.4375 0.4688,0.4062 q0.2188,-0.0312 0.2812,-0.5312 q0.125,-1.75 0.25,-3.4375 q0.125,-1.6875 0.1875,-3.4375 q0.125,-3.0625 0.0312,-6.4688 q-0.0938,-3.4062 -0.2188,-6.6875 q-0.125,-3.2812 -0.1875,-6 q-0.0625,-2.7188 0.0625,-4.4062 q0.0625,-1.75 2.125,-1.9375 q1,-0.0625 2.0312,-0.125 q1.0312,-0.0625 2.125,-0.125 q1.0938,-0.0625 2.1875,-0.0938 q1.0938,-0.0312 2.2188,-0.0625 q1.125,-0.0312 2.2812,-0.0625 q1.1562,-0.0312 2.3125,-0.0312 q1.1562,0 2.3438,0 q1.1875,0 2.3438,0 q1.1562,0 2.3438,0 q1.1875,0 2.375,0 q1.1875,0 2.375,0.0312 q1.1875,0.0312 2.3438,0.0625 q1.1562,0.0312 2.3125,0.0625 q1.1562,0.0312 2.2812,0.0625 q1.125,0.0312 2.25,0.0312 q1.125,0.0625 1.5312,-0.4688 q0.4062,-0.5312 0.9688,-1.8438 q0.75,-1.6875 1.6562,-4.0625 q0.9062,-2.375 0.9688,-5.4375 q0.0625,-1.25 -1.0312,-2.125 q-1.0938,-0.875 -2.2188,-1 q-1.375,-0.125 -2.7812,-0.2188 q-1.4062,-0.0938 -2.7812,-0.1562 q-1.375,-0.0625 -2.75,-0.125 q-1.375,-0.0625 -2.75,-0.0938 q-1.375,-0.0312 -2.7188,-0.0938 q-1.3438,-0.0625 -2.7188,-0.0625 q-1.375,0 -2.7188,-0.0312 q-1.3438,-0.0312 -2.7188,-0.0312 q-1.375,0 -2.75,0 q-1.375,0 -2.7188,0 q-1.3438,0 -2.7188,0 q-1.375,0 -2.75,0.0312 q-1.375,0.0312 -2.75,0.0312 q-1.375,0 -2.7812,0.0312 q-1.4062,0.0312 -2.7812,0.0312 Z" fill="#D3D3D3" transform="matrix(1,0,0,-1,95,34)"/>
  <path d="" fill="#D3D3D3" transform="matrix(1,0,0,-1,151,34)"/>
  <path d="M4.6875,0.875 q-1.5,0 -2.6562,1.1562 q-1.1562,1.1562 -1.1562,2.6562 q0,1.5625 1.1562,2.6875 q1.1562,1.125 2.6562,1.125 q1.5625,0 2.6875,-1.125 q1.125,-1.125 1.125,-2.6875 q0,-1.5 -1.125,-2.6562 q-1.125,-1.1562 -2.6875,-1.1562 Z" fill="#E22E00" transform="matrix(1,0,0,-1,171,0)"/>
  <path d="M12.625,-0.75 q-1.3125,0 -3.0938,0.0938 q-1.7812,0.0938 -3.5625,0.25 q-1.7812,0.1562 -3.1875,0.4375 q-1.4062,0.2812 -2.0312,0.7188 q-0.375,0.3125 -0.6875,0.6562 q-0.3125,0.3438 0.25,0.5312 q0.6875,0.3125 1.4375,1 q0.75,0.6875 0.8125,2.375 q0.375,6.6875 0.5938,12.5312 q0.2188,5.8438 0.1875,11.625 q-0.0312,5.7812 -0.4688,12.2188 q-0.0625,1.0625 -0.0312,1.7188 q0.0312,0.6562 0.6562,1.0938 q1.125,0.8125 2.5938,1.9688 q1.4688,1.1562 2.0938,3.0312 q0.125,0.4375 0.5,0.4062 q0.375,-0.0312 0.4375,-0.5312 q0.3125,-1.75 0.4688,-3.3125 q0.1562,-1.5625 0.2812,-3.3125 q0.125,-1.25 0.125,-3.875 q0,-2.625 -0.0625,-5.9062 q-0.0625,-3.2812 -0.1562,-6.5625 q-0.0938,-3.2812 -0.1875,-5.9375 q-0.0938,-2.6562 -0.1562,-4.0312 q-0.0625,-0.875 0.0625,-1.0938 q0.125,-0.2188 1.0625,-0.3438 q1,-0.0625 2.0625,-0.125 q1.0625,-0.0625 2.1562,-0.125 q1.0938,-0.0625 2.2188,-0.0938 q1.125,-0.0312 2.2812,-0.0625 q1.1562,-0.0312 2.3125,-0.0625 q1.1562,-0.0312 2.3438,-0.0312 q1.1875,0 2.375,0 q1.1875,0 2.4062,0 q1.2188,0 2.4062,0 q1.1875,0 2.4062,0 q1.2188,0 2.4062,0.0312 q1.1875,0.0312 2.375,0.0625 q1.1875,0.0312 2.3438,0.0625 q1.1562,0.0312 2.2812,0.0625 q1.125,0.0312 2.25,0.0312 q1.125,0.0625 1.5312,-0.4688 q0.4062,-0.5312 0.9688,-1.8438 q0.75,-1.6875 1.6562,-4.0625 q0.9062,-2.375 0.9688,-5.4375 q0.0625,-1.25 -1.0312,-2.125 q-1.0938,-0.875 -2.2188,-1 q-1.0625,-0.0625 -2.1562,-0.1562 q-1.0938,-0.0938 -2.1875,-0.125 q-1.0938,-0.0312 -2.2188,-0.0938 q-1.125,-0.0625 -2.2188,-0.0938 q-1.0938,-0.0312 -2.2188,-0.0625 q-1.125,-0.0312 -2.25,-0.0625 q-1.125,-0.0312 -2.25,-0.0625 q-1.125,-0.0312 -2.2812,-0.0312 q-1.1562,0 -2.3125,0 q-1.1562,0 -2.3125,0 q-1.1562,0 -2.3438,0 q-1.1875,0 -2.375,0.0312 q-1.1875,0.0312 -2.4062,0.0312 q-1.2188,0 -2.4375,0.0312 q-1.2188,0.0312 -2.4688,0.0312 Z M39.4375,6.25 q1.375,0.125 1.625,0.3438 q0.25,0.2188 0.125,0.5938 q-0.0625,0.125 -0.2188,0.25 q-0.1562,0.125 -0.6562,0.0625 q-1.0625,-0.0625 -2.1875,-0.1562 q-1.125,-0.0938 -2.2812,-0.1562 q-1.1562,-0.0625 -2.3438,-0.125 q-1.1875,-0.0625 -2.375,-0.0938 q-1.1875,-0.0312 -2.4062,-0.0625 q-1.2188,-0.0312 -2.4375,-0.0312 q-1.2188,0 -2.4375,0 q-1.2188,0 -2.4062,0.0312 q-1.1875,0.0312 -2.3438,0.0625 q-1.1562,0.0312 -2.25,0.0938 q-1.0938,0.0625 -2.1562,0.125 q-1.0625,0.0625 -2.0938,0.1562 q-1.0312,0.0938 -1.9375,0.2188 q-0.9062,0.125 -1.7812,0.25 q-0.875,0.125 -1.625,0.25 l1.3125,1.875 q-0.0625,-0.6875 -0.0938,-1.375 q-0.0312,-0.6875 -0.0938,-1.375 q0,-0.5 1.25,-0.6875 q0.5,-0.0625 1.125,-0.125 q0.625,-0.0625 1.3125,-0.125 q0.6875,-0.0625 1.4688,-0.125 q0.7812,-0.0625 1.625,-0.125 q0.8438,-0.0625 1.7812,-0.0938 q0.9375,-0.0312 1.9062,-0.0625 q0.9688,-0.0312 2,-0.0312 q1.0312,0 2.125,-0.0312 q1.0938,-0.0312 2.2188,-0.0312 q1.125,0 2.2812,0.0312 q1.1562,0.0312 2.3438,0.0625 q1.1875,0.0312 2.375,0.0625 q1.1875,0.0312 2.4062,0.0938 q1.2188,0.0625 2.4375,0.125 q1.2188,0.0625 2.4062,0.125 Z" fill="#D3D3D3" transform="matrix(1,0,0,-1,176,34)"/>
</svg>
