<svg xmlns="http://www.w3.org/2000/svg" width="630" height="342" preserveAspectRatio="xMinYMin slice" viewBox="-25 -5 630 342"><path d="M-25 337V-5h630v342Z"/><path fill="#ffe2a1" d="M-9.875 332.625q-1.312.063-3.156-.187t-3.625-1.032-2.969-2.25q-1.187-1.469-1.187-3.78 0-2.688 1.437-4.47 1.438-1.78 3.688-2.812t4.687-1.469q-.062-.312-.125-.531-.062-.219-.187-.469-.126-.562-.032-1.25t.72-1.125q.937-.687 1.874-1.719.938-1.031 2.125-2.219.688-.687 1.281-.875.594-.187 1.157 1.063.437 1 .656 3.094t.28 4.656q.063 2.562.032 4.937t-.094 3.938v1.625q-.062 2.062-1.03 3.062-.97 1-2.438 1.344-1.47.344-3.094.469"/><path fill="#a67300" d="M-9.937 332q-1.313.063-3.032-.156t-3.375-.938-2.75-2.062-1.093-3.469q0-2.562 1.437-4.25 1.438-1.687 3.688-2.656t4.75-1.344q-.063-.5-.157-.906t-.219-.781q-.124-.438-.062-.907.063-.468.5-.78 1-.75 1.938-1.782.937-1.031 2.124-2.219.063-.062.188-.25.313-.312.594-.437t.656.687q.438.938.625 3 .188 2.063.25 4.563.063 2.5.031 4.843-.031 2.344-.094 3.97v1.624q-.062 1.813-.906 2.656T-7 331.563t-2.937.437m.187-7.625q.5 0 .5-.5t-.5-.5-.5.5.5.5"/><path fill="#d3d3d3" d="M11.188 332.287q-3.813-.063-6.438-.406t-3.625-1.157q-.687-.5-.625-1t.813-.5q.375 0 .718-.218.344-.22.594-.47.563-.562 1.406-1.655.844-1.094 1.532-2.22.687-1.062 2.187-.187.688.375 2.125.563t3.063.312q.437 0 2.657.032 2.22.03 5.934.062 3.714.031 8.722.063 5.008.03 11.048.062 6.04.031 12.88.063 6.84.03 14.237.03t15.087.032 15.412.031h15.305q7.584 0 14.706-.031t13.599-.063q6.477-.03 12.035-.062 5.558-.031 9.972-.094 4.414-.062 7.416-.156 3-.094 4.313-.156 1.375-.125 1.625-.344t.125-.594q-.062-.125-.219-.25-.156-.125-.656-.062-.75.062-3.313.125-2.564.062-6.684.125-4.12.062-9.504.125-5.383.062-11.798.093-6.415.032-13.599.063t-14.862.062-15.649.032H85.815q-7.94 0-15.618-.032-7.677-.03-14.861-.03t-13.586-.063-11.767-.125-9.454-.125q-4.09-.063-6.653-.156-2.563-.094-3.313-.22Q9 323.6 8.406 323.1q-.593-.5.032-1.375 2.125-2.812 4.187-5.656t3.813-5.781q.312-.5.718-.313.407.188.157.75t-.782 1.75-1.03 2.344-.75 1.781q.874.063 3.5.157 2.626.093 6.715.156 4.09.062 9.441.094 5.352.03 11.674.062 6.32.031 13.41.031h45.83q7.878 0 15.524-.031 7.647-.031 14.8-.062 7.152-.032 13.598-.063t11.942-.062 9.785-.063 7.103-.094q2.813-.062 3.938-.062 1.125-.063 1.531.469.407.53.97 1.843.75 1.688 1.655 4.063.907 2.375.97 5.437.062 1.25-1.032 2.125t-2.219 1q-1.375.125-4.438.22-3.064.093-7.497.155-4.433.063-10.035.125-5.602.063-12.141.094-6.54.031-13.755.094-7.216.062-14.925.062t-15.618.032-15.85.03H45.3q-6.54 0-12.142-.03-5.602-.032-10.034-.032t-7.497-.03-4.438-.032Zm150.948-.055 21.25-7.107h3.313V332q-5.563.136-11.844.184t-12.719.048"/><path fill="#d3d3d3" d="M185.25 332v-6.875h3.5q-.25-.75-.5-1.406t-.375-1.156q-.187-.625 0-.907.188-.28.688-.53 1.25-.563 2.062-1.688.813-1.125 1.813-2.813.75-1.25 1.187.125.875 2.875 1.656 4.344t1.656 2.156q-.125-.25-.25-.562-.312-.75.375-1.125 1.25-.625 2.282-1.844 1.03-1.219 1.968-3.781.125-.438.438-.5.312-.063.437.437.625 1.938 1.47 3.688.843 1.75 1.78 3.187 0-.562-.062-1.5-.063-1.125.75-1.437 1.812-.563 2.562-1.97.75-1.405 1.563-2.78.5-.875.937-.875t.5.875q.188 4.125.313 6.28.125 2.157.344 2.97.219.812.656.812V332z"/><path fill="#d3d3d3" d="M211.063 332v-12h1.187q-.062 2.313 2.281 3.75 2.344 1.438 6.094 1.75v2.813z"/><path fill="#d3d3d3" d="M211.25 332v-6.875H218q-2.187-1.625-4.375-3.937-.5-.5-.531-.844t.531-.72q.938-.624 2.188-1.968t2.312-2.969q.188-.312.625-.375.438-.062.813.375 3.375 3.875 7.437 6.032t8.688 3.125 9.687 1.187 10.375.219q.5 0 .656.281t-.156.719q-1 1.5-2.031 2.562-1.031 1.063-2.094 1.938-.562.5-1.687.687t-1.938.188q-3 0-7.375.062-4.375.063-9.187.125-3.875.063-7.688.094t-7.187.063q-3.375.03-5.813.03Zm89.688 3q-3.813-.062-7.282-1.187t-6.187-3.438-4.313-5.969-1.656-8.781q0-2.625-.062-5.781-.063-3.156-.157-6.406-.093-3.25-.25-6.157-.156-2.906-.343-4.906-.188-1.437-.313-2.312t.313-1.188q.687-.437 1.656-1.281t1.844-1.844 1.25-1.812q.312-.688.78-.688.47 0 .657 1.25.313 2.25.375 5.375.063 3.125.063 6.688v7.156q0 3.594.187 6.719.188 3.437 1.313 6.25 1.125 2.812 3.093 4.906 1.97 2.094 4.531 3.469 3.25 1.687 7.313 2.187t8.625-.312 9.25-2.875q.563-.313.844-.125.281.187.031.75-2.312 5.125-7.969 7.75-5.656 2.625-13.594 2.562ZM445.5 316.188q-.625 0-.625-.625 0-.313.25-.5 1.375-1.063 2.563-2.344 1.187-1.281 2.312-2.656.188-.25.5-.25.625 0 .625.625 0 .25-.125.375-2.312 3-5.125 5.25-.125.125-.375.125"/><path fill="#d3d3d3" d="M358.188 332.618q-3.813-.062-6.438-.406t-3.625-1.156q-.687-.5-.625-1t.813-.5q.375 0 .718-.22.344-.218.594-.468.563-.562 1.406-1.656.844-1.094 1.531-2.219.688-1.062 2.188-.187.688.375 2.125.562t3.063.313q.437 0 2.657.03 2.22.032 5.934.063t8.722.063q5.008.03 11.048.062 6.04.031 12.88.063 6.84.03 14.237.03t15.087.032 15.412.031h15.305q7.584 0 14.706-.03l13.599-.063q6.477-.032 12.035-.063t9.972-.094 7.416-.156q3-.094 4.313-.156 1.375-.125 1.625-.344t.125-.594q-.062-.125-.219-.25-.156-.125-.656-.062-.75.062-3.314.125-2.563.062-6.683.125-4.12.062-9.504.125-5.383.062-11.798.094l-13.599.062-14.862.063q-7.677.03-15.649.03h-15.912q-7.94 0-15.618-.03-7.677-.032-14.861-.032t-13.586-.062-11.767-.125-9.454-.125-6.653-.156-3.313-.22q-1.563-.187-2.157-.687-.593-.5.032-1.375 2.125-2.812 4.187-5.656t3.813-5.781q.312-.5.718-.312.407.187.157.75t-.782 1.75-1.03 2.343-.75 1.781q.874.063 3.5.157t6.715.156 9.441.094q5.352.03 11.674.062 6.32.031 13.41.031h45.83q7.878 0 15.524-.03l14.8-.063q7.152-.031 13.598-.063 6.446-.031 11.942-.062 5.495-.031 9.785-.063 4.289-.031 7.103-.094 2.813-.062 3.938-.062 1.125-.063 1.531.469.407.53.97 1.844.75 1.687 1.655 4.062.907 2.375.97 5.438.062 1.25-1.032 2.125t-2.219 1q-1.375.125-4.438.218-3.064.094-7.497.156-4.433.063-10.035.125-5.602.063-12.141.094-6.54.031-13.756.094-7.215.063-14.924.063t-15.618.03-15.85.032H392.3q-6.54 0-12.142-.031t-10.034-.031-7.497-.032q-3.063-.03-4.438-.03ZM578.938 335q-3.813-.062-7.282-1.187t-6.187-3.438-4.313-5.969-1.656-8.781q0-2.625-.062-5.781-.063-3.156-.157-6.406-.093-3.25-.25-6.157-.156-2.906-.343-4.906-.188-1.437-.313-2.312t.313-1.188q.687-.437 1.656-1.281t1.844-1.844 1.25-1.812q.312-.688.78-.688.47 0 .657 1.25.313 2.25.375 5.375.063 3.125.063 6.688v7.156q0 3.594.187 6.719.188 3.437 1.313 6.25 1.125 2.812 3.093 4.906 1.97 2.094 4.532 3.469 3.25 1.687 7.312 2.187t8.625-.312 9.25-2.875q.563-.313.844-.125.281.187.031.75-2.312 5.125-7.969 7.75-5.656 2.625-13.594 2.562Zm-567.25-59.7q-3.813-.062-6.438-.406-2.625-.343-3.625-1.156-.687-.5-.625-1t.813-.5q.375 0 .718-.219.344-.218.594-.468.563-.563 1.406-1.656.844-1.094 1.532-2.22.687-1.062 2.187-.187.688.375 2.125.563t3.063.312q.437 0 1.761.031 1.324.032 3.385.063t4.785.062 5.971.063 6.915.062 7.64.032 8.114.03 8.314.032h8.333q4.16 0 8.108-.031t7.634-.063q3.685-.03 6.965-.062 3.28-.031 6.035-.094 2.754-.062 4.86-.156 2.105-.094 3.417-.156 1.375-.125 1.625-.344t.125-.594q-.062-.125-.218-.25-.157-.125-.657-.062-.75.062-2.417.125-1.668.062-4.136.125-2.467.062-5.565.125-3.099.062-6.722.093-3.623.032-7.633.063l-8.265.062q-4.254.032-8.677.032h-8.814q-4.392 0-8.646-.032-4.254-.03-8.264-.03t-7.627-.063-6.69-.125-5.51-.125-4.104-.157-2.418-.218q-1.562-.188-2.156-.688t.031-1.375q2.125-2.812 4.188-5.656t3.812-5.781q.313-.5.72-.313.405.188.155.75l-.78 1.75q-.532 1.188-1.032 2.344t-.75 1.781q.875.063 2.605.156 1.73.094 4.167.157 2.436.062 5.503.093 3.067.032 6.597.063 3.529.031 7.445.031H66.73q4.33 0 8.552-.031 4.223-.031 8.202-.063 3.979-.03 7.633-.062 3.655-.031 6.872-.063 3.218-.03 5.847-.062 2.63-.031 4.548-.094 1.918-.062 3.043-.062 1.125-.063 1.53.468.407.532.97 1.844.75 1.688 1.656 4.063t.969 5.437q.062 1.25-1.032 2.125-1.093.875-2.218 1-1.375.125-3.543.219t-4.948.156-6.097.125-7.065.094-7.79.094-8.327.062-8.645.031-8.752.032H33.34q-3.748 0-7.065-.031-3.317-.032-6.097-.032t-4.948-.03-3.542-.032Zm79.863.043 21.25-7.218h3.312V275q-5.562.164-11.844.254-6.28.09-12.719.09Z"/><path fill="#d3d3d3" d="M130.063 275.125 113.75 275v-6.875h3.438q-.25-.5-.626-1.812-.374-1.313-.562-1.875-.187-.625 0-.907.188-.28.688-.53 1.25-.563 1.968-1.532.72-.969 1.72-2.656.312-.563.843-.563t.656.688q.688 3.25 1.188 5t1.562 2.312q-.375-.875-.656-1.875t-.344-1.875q0-.437.281-.687t.594-.438q1.25-.625 2.156-1.562t1.656-2.813q.188-.437.563-.5.375-.062.5.438.563 1.562.906 3.406t.781 3.437 1.125 2.407q-.125-1-.312-2.344-.188-1.344-.375-2.563-.188-1.219-.313-1.719t.032-.75.468-.437q.188-.125.25-.187 1-.688 2.032-1.97 1.03-1.28 1.406-2.78.187-.75.656-.844t.656.78q.25 1.188.594 3.376t.688 4.719q.343 2.53.53 4.937.188 2.406.126 4.094-.063 1.188-.781 2.281-.72 1.094-2.563 1.719t-5.219.625Zm38-.125q-2.313 0-3.157-.906t-.906-2.531q-.125-4.313-.187-9.188-.063-4.875-.157-9.656-.093-4.781-.25-8.906-.156-4.125-.406-6.938 0-.25-.031-.437-.031-.188-.031-.375-.25-2.625-.219-3.657.031-1.03.781-1.53 1.25-.75 2.344-2.032 1.094-1.281 2.094-2.969.312-.5.812-.437.5.062.5 1 0 3 .063 6.781.062 3.781.125 7.781.062 4 .156 7.688t.156 6.53q.063 2.845.125 4.345.188 3.5.313 5.375t.343 2.53.594.657V275z"/><path fill="#d3d3d3" d="M168.563 275v-12h1.187q-.062 2.313 2.281 3.75 2.344 1.438 6.094 1.75v2.813z"/><path fill="#d3d3d3" d="M168.75 275v-6.875h6.75q-2.187-1.625-4.375-3.937-.5-.5-.531-.844t.531-.72q.938-.624 2.188-1.968t2.312-2.969q.188-.312.625-.375.438-.062.813.375 3.375 3.875 7.437 6.032t8.688 3.125 9.687 1.187 10.375.219q.5 0 .656.281t-.156.719q-1 1.5-2.031 2.562-1.031 1.063-2.094 1.938-.562.5-1.687.687t-1.938.188q-3 0-7.375.062-4.375.063-9.187.125-3.875.063-7.688.094t-7.187.063q-3.375.03-5.813.03Zm84.5 7.563q-4.187.062-7.875-.97-3.687-1.03-5.687-2.343-.75-.5-.657-.938.094-.437.72-.687 1.437-.5 2.655-1.844 1.22-1.344 2.156-2.531.375-.5 1.125-.063 1.75.938 4.375 1.594t5.157.938q2.53.28 3.969.094.5-.063.406-.47t-.47-.406q-1.5.063-3.5-.156t-3.937-.719-3.375-1.25q-.687-.375-.593-.906.093-.53.468-.844.875-.875 2.125-2.156 1.25-1.28 2.532-2.687 1.28-1.406 2.375-2.594 1.093-1.187 1.718-1.812l.407-.407q.156-.156.406-.156.312 0 .937.438 2.063 1.375 4 3.718 1.938 2.344 3.25 5.125t1.375 5.532q.063 1.687-.625 3.343-.687 1.657-3.125 2.344-2.062.625-4.718.688t-5.594.125m26.854-26.09q-.617.102-.719-.515-.05-.308.165-.534 1.183-1.273 2.146-2.73.962-1.459 1.847-3 .144-.276.453-.327.616-.102.718.514.041.247-.062.39-1.791 3.338-4.198 6.017-.103.144-.35.185m-15.023 5.161q-.62.076-.696-.544-.039-.31.187-.527 1.235-1.222 2.257-2.638 1.023-1.417 1.972-2.919.156-.27.466-.309.62-.076.696.545.03.248-.078.387-1.93 3.26-4.447 5.836-.109.139-.357.17Zm7.079-1.422q-.622.066-.687-.556-.033-.31.196-.523 1.257-1.2 2.304-2.599 1.047-1.398 2.022-2.883.16-.269.47-.301.622-.066.688.556.026.249-.086.386-1.986 3.225-4.547 5.757-.112.137-.36.163"/><path fill="#d3d3d3" d="M279.063 275.125 262.75 275v-6.875h3.438q-.25-.5-.625-1.812t-.563-1.875q-.187-.625 0-.907.188-.28.688-.53 1.25-.563 1.968-1.532.72-.969 1.72-2.656.312-.563.843-.563t.656.688q.688 3.25 1.188 5t1.562 2.312q-.375-.875-.656-1.875t-.344-1.875q0-.437.281-.687t.594-.438q1.25-.625 2.156-1.562t1.656-2.813q.188-.437.563-.5.375-.062.5.438.563 1.562.906 3.406t.781 3.437 1.125 2.407q-.125-1-.312-2.344-.188-1.344-.375-2.563-.188-1.219-.313-1.719t.032-.75.468-.437q.188-.125.25-.187 1-.688 2.032-1.97 1.03-1.28 1.406-2.78.187-.75.656-.844t.656.78q.25 1.188.594 3.376t.688 4.719q.343 2.53.53 4.937.188 2.406.126 4.094-.063 1.188-.781 2.281-.72 1.094-2.563 1.719t-5.219.625ZM314 268.188q-.625 0-.625-.625 0-.313.25-.5 1.375-1.063 2.563-2.344 1.187-1.281 2.312-2.656.188-.25.5-.25.625 0 .625.625 0 .25-.125.375-2.312 3-5.125 5.25-.125.125-.375.125"/><path fill="#d3d3d3" d="M327.625 300.188q-1.562.625-3.781.875t-4.594.062-4.531-.781-3.594-1.594q-.562-.375-.656-.875t.594-.75q1.125-.5 2.406-1.844t2.594-3.281q.187-.312.437-.25.25.063.438.188 1.312.687 3.062 1.125t5.063.375q.125-3.563.125-6.532t-.063-5.28V281q-.062-3.812-1.344-5.656-1.28-1.844-3.75-2.688-2.469-.843-6.156-1.593-.812-.188-.844-.72-.03-.53.72-.718 2.187-.625 3.843-2.437 1.656-1.813 2.281-4.25.125-.5.438-.75.312-.25.937.062 3.5 1.938 5.5 3.875t2.906 4.344.97 5.906q.062 2.25.062 5.094t-.032 5.594q-.03 2.75-.093 4.875v.75q0 1.312-.282 2.875-.28 1.562-.906 2.843-.625 1.282-1.75 1.782"/><path fill="#d3d3d3" d="M343.375 277.125q-4.812 0-7.937-1.125t-4.782-3.094-2.094-4.406q-.437-2.812.282-5.625.719-2.812 2.5-5.187 1.78-2.375 4.437-3.813 2.656-1.437 6.031-1.437 2.938 0 5.188 1.687t3.781 4.313 2.313 5.468.78 5.22q0 3.124-1.03 4.874-1.032 1.75-3.344 2.406-2.313.656-6.125.72Zm-1.625-11.375q.75 0 .75-.812 0-.313-.219-.532t-.531-.219q-.812 0-.812.75 0 .813.812.813m53.5 12.813q-3.25.125-6.375-.313-3.125-.437-5.594-1.375t-3.906-2.375q-.625-.687-.187-1.062.437-.375.937-.375.688 0 1.688-.688t1.937-1.656 1.313-1.656q.312-.5.906-.313.594.188 1.094.5.062.063.125.063 1.937 1.125 4.187 1.593 2.25.47 4.438.532t3.968-.125q1.781-.188 2.781-.375.75-.125.72-.688-.032-.562-.657-.437-4.437.812-8.219.5-3.78-.313-6.03-2.344t-2.25-6.344q0-3.25 1.5-5.906t3.968-4.281 5.469-1.625q2.625 0 4.812 1.406t3.844 3.656 2.781 4.844 1.719 5.031.594 4.125q0 1.375-.219 2.531t-.906 2.094q-1.188 1.75-3.688 2.844t-5.375 1.594-5.375.625m1.063-18.75q.75 0 .75-.813 0-.312-.22-.531-.218-.219-.53-.219-.813 0-.813.75 0 .813.813.813"/><path fill="#ffe2a1" d="M418.156 274.988q-1.95 0-3.453-1.504-1.503-1.503-1.503-3.453 0-2.03 1.503-3.493t3.453-1.463q2.031 0 3.494 1.463 1.462 1.462 1.462 3.493 0 1.95-1.462 3.453-1.463 1.504-3.494 1.504m10.625 0q-1.95 0-3.453-1.504-1.503-1.503-1.503-3.453 0-2.03 1.503-3.493t3.453-1.463q2.031 0 3.494 1.463 1.462 1.462 1.462 3.493 0 1.95-1.462 3.453-1.463 1.504-3.494 1.504m-5.312-9.375q-1.95 0-3.453-1.504-1.504-1.503-1.504-3.453 0-2.03 1.504-3.493 1.503-1.463 3.453-1.463 2.03 0 3.493 1.463 1.463 1.462 1.463 3.493 0 1.95-1.463 3.453-1.462 1.504-3.493 1.504"/><path fill="#a67300" d="M418.156 274.225q-1.65 0-2.922-1.272t-1.272-2.922q0-1.718 1.272-2.956t2.922-1.237q1.719 0 2.956 1.237 1.238 1.238 1.238 2.956 0 1.65-1.238 2.922t-2.956 1.272m5.313-9.375q-1.65 0-2.922-1.272t-1.272-2.922q0-1.718 1.272-2.956t2.922-1.237q1.718 0 2.956 1.237t1.237 2.956q0 1.65-1.237 2.922t-2.956 1.272m5.312 9.375q-1.65 0-2.922-1.272t-1.272-2.922q0-1.718 1.272-2.956t2.922-1.237q1.719 0 2.956 1.237 1.238 1.238 1.238 2.956 0 1.65-1.238 2.922t-2.956 1.272"/><path fill="#e22e00" d="M417.781 264.8q-.45 0-.797-.347-.346-.347-.346-.797 0-.468.346-.806.347-.337.797-.337.469 0 .806.337.338.338.338.806 0 .45-.338.797-.337.347-.806.347m5.688 3.188q-.45 0-.797-.347t-.347-.797q0-.469.347-.806t.797-.338q.468 0 .806.338.337.337.337.806 0 .45-.337.797-.338.346-.806.346m5.562-3.188q-.45 0-.797-.347-.346-.347-.346-.797 0-.468.346-.806.347-.337.797-.337.469 0 .806.337.338.338.338.806 0 .45-.338.797-.337.347-.806.347m-5.562 9.75q-.45 0-.797-.347t-.347-.797q0-.468.347-.806.347-.337.797-.337.468 0 .806.337.337.338.337.806 0 .45-.337.797-.338.347-.806.347"/><path fill="#d3d3d3" d="M446.688 275.3q-3.813-.062-6.438-.406-2.625-.343-3.625-1.156-.687-.5-.625-1t.813-.5q.375 0 .718-.219.344-.218.594-.468.563-.563 1.406-1.656.844-1.094 1.531-2.22.688-1.062 2.188-.187.688.375 2.125.563t3.063.312q.437 0 1.761.031 1.324.032 3.385.063t4.785.062 5.971.063 6.915.062 7.64.032 8.114.03 8.314.032h8.333q4.16 0 8.108-.031t7.634-.063q3.685-.03 6.965-.062 3.28-.031 6.035-.094 2.754-.062 4.86-.156 2.105-.094 3.417-.156 1.376-.125 1.626-.344t.125-.594q-.063-.125-.22-.25-.155-.125-.655-.062-.75.062-2.418.125-1.668.062-4.136.125-2.467.062-5.565.125-3.099.062-6.722.093-3.623.032-7.633.063l-8.265.062q-4.254.032-8.677.032h-8.814q-4.392 0-8.646-.032-4.254-.03-8.264-.03t-7.627-.063-6.69-.125q-3.074-.063-5.51-.125-2.436-.063-4.104-.157-1.668-.093-2.418-.218-1.562-.188-2.156-.688t.031-1.375q2.125-2.812 4.188-5.656t3.812-5.781q.313-.5.72-.313.405.188.155.75l-.78 1.75q-.532 1.188-1.032 2.344t-.75 1.781q.875.063 2.605.156 1.73.094 4.167.157 2.436.062 5.503.093 3.067.032 6.597.063 3.529.031 7.445.031h25.162q4.33 0 8.552-.031 4.223-.031 8.202-.063 3.979-.03 7.633-.062 3.655-.031 6.872-.063 3.218-.03 5.847-.062 2.63-.031 4.548-.094 1.918-.062 3.043-.062 1.125-.063 1.53.468.407.532.97 1.844.75 1.688 1.656 4.063t.969 5.437q.062 1.25-1.032 2.125-1.093.875-2.218 1-1.375.125-3.543.219t-4.948.156-6.097.125-7.065.094-7.79.094-8.327.062-8.645.031-8.752.032H468.34q-3.748 0-7.065-.031-3.317-.032-6.097-.032t-4.948-.03-3.542-.032Zm79.863.043 21.25-7.218h3.312V275q-5.562.164-11.844.254-6.28.09-12.718.09M549 252q-.625 0-.625-.625 0-.312.25-.5 1.375-1.062 2.563-2.344 1.187-1.281 2.312-2.656.188-.25.5-.25.625 0 .625.625 0 .25-.125.375-2.312 3-5.125 5.25-.125.125-.375.125m1.875 1.688q-.625 0-.625-.625 0-.313.25-.5 1.375-1.063 2.563-2.344 1.187-1.281 2.312-2.656.188-.25.5-.25.625 0 .625.625 0 .25-.125.375-2.312 3-5.125 5.25-.125.125-.375.125"/><path fill="#d3d3d3" d="M547.25 275v-14.625h.813q.187.25.406.563.218.312.53.812 1.313 2 2.97 3.656 1.656 1.656 3.468 3.094v6.5z"/><path fill="#d3d3d3" d="M548.75 275v-6.875h5.688q-1.5-1.375-2.5-3.219t-1-4.344q0-3.375 1.718-5.937 1.72-2.563 4.407-4 2.687-1.438 5.562-1.438 2.938 0 5.406 1.72 2.469 1.718 3.969 4.843t1.5 7.5q0 .875-.031 2.125t-.094 2.75h.188V275zM563 260.125q.75 0 .75-.812 0-.313-.219-.532t-.531-.219q-.812 0-.812.75 0 .813.812.813"/><path fill="#d3d3d3" d="M572.5 275v-14.812h1.125q.063 2.687 1.438 4.25 1.375 1.562 3.187 2.218 1.813.656 3.125.656V275z"/><path fill="#d3d3d3" d="M576.75 275v-6.875h4.125q-1.437-1.312-2.781-2.781t-2.656-2.844q-.375-.437-.25-.969.125-.531.562-.781 1.188-.812 2.313-1.969 1.125-1.156 2.312-3.094.25-.375.625-.28.375.093.625.405.688 1 1.563 1.938 1.937-1.625 3.343-3.156 1.407-1.531 2.657-3.156.5-.688.906-.657t.469.72q.5 2.937.718 6.5.22 3.562.282 7.187.062 1.062.25 2 .187.937.75.937V275z"/><path fill="#d3d3d3" d="M590.5 272.188v-9.813h1.188q.062 2.313 1.03 3.25.97.938 1.845 1.25v5.313z"/><path fill="#d3d3d3" d="M590.75 275v-6.875h2.375q-.062-3-.219-7.437-.156-4.438-.406-9.438t-.5-9.812-.5-8.563q0-.125-.062-.375-.063-.375-.032-.875.032-.5.594-1 .563-.437 1.438-1.219.875-.781 1.687-1.656t1.188-1.562q.5-.875 1-.657.5.22.562 1.281.188 3.688.375 8.063.188 4.375.406 9 .22 4.625.407 9.031t.375 8.25.25 6.594q.125 3.375-.563 4.875t-2.187 1.906-3.813.469zM19.938 221q-3.813-.062-7.282-1.187t-6.187-3.438-4.313-5.969T.5 201.625q0-2.625-.062-5.781-.063-3.156-.157-6.406-.093-3.25-.25-6.157-.156-2.906-.343-4.906-.188-1.437-.313-2.312t.313-1.188q.687-.437 1.656-1.281t1.844-1.844 1.25-1.812q.312-.688.78-.688.47 0 .657 1.25.313 2.25.375 5.375.063 3.125.063 6.688v7.156q0 3.594.187 6.719.188 3.437 1.313 6.25 1.125 2.812 3.093 4.906 1.97 2.094 4.531 3.469 3.25 1.687 7.313 2.187t8.625-.312 9.25-2.875q.563-.313.844-.125.281.187.031.75-2.312 5.125-7.969 7.75-5.656 2.625-13.594 2.562ZM91.5 237q-.625 0-.625-.625 0-.312.25-.5 1.375-1.062 2.563-2.344 1.187-1.281 2.312-2.656.188-.25.5-.25.625 0 .625.625 0 .25-.125.375-2.312 3-5.125 5.25-.125.125-.375.125m1.875 1.688q-.625 0-.625-.625 0-.313.25-.5 1.375-1.063 2.563-2.344 1.187-1.281 2.312-2.656.188-.25.5-.25.625 0 .625.625 0 .25-.125.375-2.312 3-5.125 5.25-.125.125-.375.125M91.313 234q-2 .5-5.157.844t-6.75.469-6.969-.125q-3.374-.25-5.968-.97-2.594-.718-3.72-1.968-.5-.625-.374-1.094.125-.469.937-.469t2-1.312 1.938-2.563q.312-.5.719-.843.406-.344.969-.032 2.374 1.375 6.562 2t10.438-.187q-.063-.063-.126-.25-.062-.188-.218-.375-.156-.188-.656-.125-9.063.812-13.75-1.656-4.688-2.47-4.688-9.22 0-3.062 1.438-5.75 1.437-2.687 3.78-4.343t5.094-1.594q1.313 0 2.25.907.938.906 1.72 2.156.78 1.25 1.562 2.28.781 1.032 1.781 1.345V218h-1.687q-2.688.062-4.47-.156-1.78-.22-3.156-1.47-.5-.5-.718-.25-.22.25.094.813.812 1.25 3.03 1.813 2.22.562 5.344.594 3.126.03 6.5-.157 1-.062 1.282.125.28.188.594.688.062.062.062.125.688 1.187 1.594 3.094t1.344 4.406q.437 2.687-.157 4.281-.593 1.594-2.468 2.094M80.5 194.188q-.625 0-.625-.625 0-.313.25-.5 1.375-1.063 2.563-2.344 1.187-1.281 2.312-2.656.188-.25.5-.25.625 0 .625.625 0 .25-.125.375-2.312 3-5.125 5.25-.125.125-.375.125"/><path fill="#d3d3d3" d="M77.375 217.625 81 207.375q1.313 1.5 3.406 2.656t5.781 1.094q2.375-.062 4.125-.219 1.75-.156 2.188-.469.5-.312.469-.718-.031-.407-.531-.282-1.5.25-3.813.47-2.312.218-4.719-.095-2.406-.312-4.156-1.5-1.562-1.062-2.562-2.78-1-1.72-1-3.782 0-2.125.843-4.344.844-2.219 2.375-4.094t3.625-3.03 4.594-1.157q2.688 0 4.969 1.844t3.937 4.969 2.563 6.968.906 7.907q0 2-1.687 3.406t-4.375 2.312-5.844 1.344-6.156.5-5.313-.156-3.25-.594m14.063-17.562q.75 0 .75-.813 0-.312-.22-.531-.218-.219-.53-.219-.813 0-.813.75 0 .813.813.813M212.5 204q-.625 0-.625-.625 0-.312.25-.5 1.375-1.062 2.563-2.344 1.187-1.281 2.312-2.656.188-.25.5-.25.625 0 .625.625 0 .25-.125.375-2.312 3-5.125 5.25-.125.125-.375.125m1.875 1.688q-.625 0-.625-.625 0-.313.25-.5 1.375-1.063 2.563-2.344 1.187-1.281 2.312-2.656.188-.25.5-.25.625 0 .625.625 0 .25-.125.375-2.312 3-5.125 5.25-.125.125-.375.125"/><path fill="#d3d3d3" d="M139.438 218.313q-2.313-.063-4.75-.282-2.438-.219-4.5-.844-.5-.125-.688-.562t.438-.625q1.125-.312 2.406-1.656 1.28-1.344 2.469-3.656.125-.188.5-.22.375-.03.812.157.438.188 1.188.469t3.25.406q1.993.063 4.371.125 2.379.063 5.108.125 2.73.063 5.737.094t6.22.094 6.55.062 6.73.031 6.787.031 6.72-.03 6.475-.032 6.08-.062q2.932-.063 5.564-.094t4.893-.125q2.26-.094 4.105-.156 1.844-.063 3.156-.188-1.125-2.187-4.375-3.312-.562-.188-.594-.782-.03-.593.594-.656 1.625-.125 3.531-1.75t2.781-4q.313-.875.688-.75t.688.5q1.374 1.625 2.437 3.938 1.063 2.312 1.688 4.625.624 2.312.624 3.937 0 1.813-.375 2.813t-1.593 1.468q-1.22.47-3.781.594-2.063.063-4.47.156-2.406.094-5.073.157-2.667.062-5.518.125-2.85.062-5.903.093-3.053.032-6.206.063l-6.418.062q-3.264.032-6.536.032h-13.107q-3.243 0-6.361-.032-3.119-.03-6.126-.062-3.007-.031-5.834-.063-2.827-.03-5.448-.093t-4.935-.125ZM256.563 218q-2.313 0-3.157-.906t-.906-2.531q-.125-4.313-.187-9.188-.063-4.875-.157-9.656-.093-4.781-.25-8.906-.156-4.125-.406-6.938 0-.25-.031-.437-.031-.188-.031-.375-.25-2.625-.219-3.657.031-1.03.781-1.53 1.25-.75 2.344-2.032 1.094-1.281 2.094-2.969.312-.5.812-.437.5.062.5 1 0 3 .063 6.781.062 3.781.125 7.781.062 4 .156 7.688t.156 6.53q.063 2.845.125 4.345.188 3.5.313 5.375t.343 2.53.594.657V218zm4.581-26.49q-.62.075-.697-.545-.038-.31.187-.527 1.236-1.222 2.258-2.638 1.022-1.417 1.971-2.919.156-.27.466-.309.62-.076.697.545.03.248-.079.387-1.93 3.26-4.447 5.836-.108.139-.357.17Zm-.313 3.314q-.624.032-.657-.592-.016-.312.224-.512 1.317-1.133 2.436-2.475 1.12-1.341 2.17-2.773.175-.26.487-.276.624-.033.657.591.013.25-.105.381-2.153 3.117-4.844 5.511-.118.132-.368.145M260.5 198q-.625 0-.625-.625 0-.312.25-.5 1.375-1.062 2.563-2.344 1.187-1.281 2.312-2.656.188-.25.5-.25.625 0 .625.625 0 .25-.125.375-2.312 3-5.125 5.25-.125.125-.375.125"/><path fill="#d3d3d3" d="M257 215.188v-9.813h1.188q.062 2.313 1.03 3.25.97.938 1.844 1.25v5.313z"/><path fill="#d3d3d3" d="M257.25 218v-6.875h2.438q-.063-2.625-.094-4.25t-.156-3.187q0-.188-.063-.625-.062-1.125 0-1.844.063-.72.625-1.094 2.813-1.875 4.813-4.938.312-.5.593-.406t.281.531q0 4.688.438 9.094t.5 9.094q.063 1.625-1.375 3.063Q263.813 218 262 218zm38.313 0q-2.313 0-3.157-.906t-.906-2.531q-.125-4.313-.187-9.188-.063-4.875-.157-9.656-.093-4.781-.25-8.906-.156-4.125-.406-6.938 0-.25-.031-.437-.031-.188-.031-.375-.25-2.625-.219-3.657.031-1.03.781-1.53 1.25-.75 2.344-2.032 1.094-1.281 2.094-2.969.312-.5.812-.437.5.062.5 1 0 3 .063 6.781.062 3.781.125 7.781.062 4 .156 7.688t.156 6.53q.063 2.845.125 4.345.188 3.5.313 5.375t.343 2.53.594.657V218z"/><path fill="#d3d3d3" d="M298.5 196.188q-.625 0-.625-.625 0-.313.25-.5 1.375-1.063 2.563-2.344 1.187-1.281 2.312-2.656.188-.25.5-.25.625 0 .625.625 0 .25-.125.375-2.312 3-5.125 5.25-.125.125-.375.125M296 218v-13.25h1.188q0 1.563.656 3.063t1.719 2.437 2.25.875V218z"/><path fill="#d3d3d3" d="M296.25 218v-6.875h5.688q-1.5-1.375-2.5-3.219t-1-4.344q0-3.375 1.718-5.937 1.72-2.563 4.406-4 2.688-1.438 5.563-1.438 2.938 0 5.406 1.72 2.469 1.718 3.969 4.843t1.5 7.5q0 .875-.031 2.125t-.094 2.75h.188V218zm14.25-14.875q.75 0 .75-.812 0-.313-.219-.532t-.531-.219q-.812 0-.812.75 0 .813.812.813m13.11-3.521q-.617.097-.715-.52-.048-.308.17-.533 1.191-1.264 2.163-2.715.973-1.452 1.869-2.986.146-.276.455-.325.617-.098.715.52.039.247-.065.39-1.815 3.324-4.24 5.987-.104.143-.351.182Z"/><path fill="#d3d3d3" d="M320 215.188v-9.813h1.188q.062 2.313 1.03 3.25.97.938 1.844 1.25v5.313z"/><path fill="#d3d3d3" d="M320.25 218v-6.875h2.563q-.063-3-.188-5.062t-.25-3.5q-.062-.5.094-.782.156-.28.781-.594 1.313-.75 2-1.875t2.125-3.25q.313-.375.781-.312t.531.938q.188 2.437.375 5.156.188 2.719.25 6.344.063 1.062.25 2 .188.937.75.937V218z"/><path fill="#d3d3d3" d="M328 215.188v-9.813h1.188q.062 2.313 1.03 3.25.97.938 1.844 1.25v5.313z"/><path fill="#d3d3d3" d="M328.25 218v-6.875h2.375q-.062-3-.219-7.437-.156-4.438-.406-9.438t-.5-9.812-.5-8.563q0-.125-.062-.375-.063-.375-.032-.875t.594-1q.563-.437 1.438-1.219.875-.781 1.687-1.656t1.188-1.562q.5-.875 1-.657.5.22.562 1.281.188 3.688.375 8.063.188 4.375.406 9 .22 4.625.406 9.031.188 4.406.375 8.25.188 3.844.25 6.594.125 3.375-.562 4.875t-2.187 1.906-3.813.469zm53.688 3q-3.813-.062-7.282-1.187t-6.187-3.438-4.313-5.969-1.656-8.781q0-2.625-.062-5.781-.063-3.156-.157-6.406-.093-3.25-.25-6.157-.156-2.906-.343-4.906-.188-1.437-.313-2.312t.313-1.188q.687-.437 1.656-1.281t1.844-1.844 1.25-1.812q.312-.688.78-.688.47 0 .657 1.25.313 2.25.375 5.375.063 3.125.063 6.688v7.156q0 3.594.187 6.719.188 3.437 1.313 6.25 1.125 2.812 3.093 4.906 1.97 2.094 4.531 3.469 3.25 1.687 7.313 2.187t8.625-.312 9.25-2.875q.563-.313.844-.125.281.187.031.75-2.312 5.125-7.969 7.75-5.656 2.625-13.594 2.562Zm60.812 4.563q-4.187.062-7.875-.97-3.687-1.03-5.687-2.343-.75-.5-.657-.938.094-.437.72-.687 1.437-.5 2.655-1.844 1.22-1.344 2.156-2.531.375-.5 1.125-.063 1.75.938 4.375 1.594t5.157.938q2.53.28 3.969.094.5-.063.406-.47-.094-.405-.47-.405-1.5.062-3.5-.157t-3.937-.719-3.375-1.25q-.687-.375-.593-.906.093-.53.468-.844.875-.875 2.125-2.156 1.25-1.28 2.532-2.687 1.28-1.406 2.375-2.594 1.093-1.187 1.718-1.812l.407-.407q.156-.156.406-.156.312 0 .937.438 2.063 1.375 4 3.718 1.938 2.344 3.25 5.125t1.375 5.532q.063 1.687-.625 3.343-.687 1.657-3.125 2.344-2.062.625-4.718.688t-5.594.125m26.854-26.09q-.617.102-.719-.515-.05-.308.165-.534 1.183-1.273 2.146-2.73.962-1.459 1.847-3 .144-.276.453-.327.616-.102.718.514.041.247-.062.39-1.791 3.338-4.198 6.017-.103.144-.35.185m-15.023 5.161q-.62.076-.696-.544-.039-.31.187-.527 1.235-1.222 2.257-2.638 1.023-1.417 1.972-2.919.156-.27.466-.309.62-.076.696.545.03.248-.078.387-1.93 3.26-4.447 5.836-.109.139-.357.17Zm7.079-1.422q-.622.066-.687-.556-.033-.31.196-.523 1.257-1.2 2.304-2.599 1.047-1.398 2.022-2.883.16-.269.47-.301.622-.066.688.556.026.248-.086.386-1.986 3.225-4.547 5.757-.112.137-.36.163"/><path fill="#d3d3d3" d="M468.563 218.125 452.25 218v-6.875h3.438q-.25-.5-.625-1.812t-.563-1.875q-.187-.625 0-.907.188-.28.688-.53 1.25-.563 1.968-1.532.72-.969 1.72-2.656.312-.563.843-.563t.656.688q.688 3.25 1.188 5t1.562 2.312q-.375-.875-.656-1.875t-.344-1.875q0-.437.281-.687t.594-.438q1.25-.625 2.156-1.562t1.656-2.813q.188-.437.563-.5.375-.062.5.438.563 1.562.906 3.406t.781 3.437 1.125 2.407q-.125-1-.312-2.344-.188-1.344-.375-2.563-.188-1.219-.313-1.719t.032-.75.468-.437q.188-.125.25-.187 1-.688 2.032-1.97 1.03-1.28 1.406-2.78.187-.75.656-.844t.656.78q.25 1.188.594 3.376t.688 4.719.53 4.937q.188 2.406.126 4.094-.063 1.188-.781 2.281-.72 1.094-2.563 1.719t-5.219.625Zm34.937-6.937q-.625 0-.625-.625 0-.313.25-.5 1.375-1.063 2.563-2.344 1.187-1.281 2.312-2.656.188-.25.5-.25.625 0 .625.625 0 .25-.125.375-2.312 3-5.125 5.25-.125.125-.375.125"/><path fill="#d3d3d3" d="M517.125 243.188q-1.562.625-3.781.875t-4.594.062-4.531-.781-3.594-1.594q-.562-.375-.656-.875t.594-.75q1.125-.5 2.406-1.844t2.594-3.281q.187-.312.437-.25.25.063.438.188 1.312.687 3.062 1.125t5.063.375q.125-3.563.125-6.532t-.063-5.28V224q-.062-3.812-1.344-5.656-1.28-1.844-3.75-2.688-2.469-.843-6.156-1.593-.812-.188-.844-.72-.03-.53.72-.718 2.187-.625 3.843-2.437 1.656-1.813 2.281-4.25.125-.5.438-.75.312-.25.937.062 3.5 1.938 5.5 3.875t2.906 4.344.97 5.906q.062 2.25.062 5.094t-.032 5.594q-.03 2.75-.093 4.875v.75q0 1.312-.282 2.875-.28 1.562-.906 2.843-.625 1.282-1.75 1.782"/><path fill="#d3d3d3" d="M532.875 220.125q-4.812 0-7.937-1.125t-4.782-3.094-2.093-4.406q-.438-2.812.28-5.625.72-2.812 2.5-5.187 1.782-2.375 4.438-3.813 2.656-1.437 6.031-1.437 2.938 0 5.188 1.687t3.781 4.313 2.313 5.468.78 5.22q0 3.124-1.03 4.874-1.032 1.75-3.344 2.406-2.313.656-6.125.72Zm-1.625-11.375q.75 0 .75-.812 0-.313-.219-.532t-.531-.219q-.812 0-.812.75 0 .813.812.813m53.5 12.813q-3.25.125-6.375-.313-3.125-.437-5.594-1.375t-3.906-2.375q-.625-.687-.187-1.062.437-.375.937-.375.688 0 1.688-.688t1.937-1.656 1.313-1.656q.312-.5.906-.313.593.188 1.093.5.063.063.125.063 1.938 1.125 4.188 1.593 2.25.47 4.438.532t3.968-.125q1.782-.188 2.782-.375.75-.125.718-.688-.03-.562-.656-.437-4.437.812-8.219.5-3.78-.313-6.03-2.344t-2.25-6.344q0-3.25 1.5-5.906t3.968-4.281 5.469-1.625q2.625 0 4.812 1.406t3.844 3.656 2.781 4.844 1.719 5.031.594 4.125q0 1.375-.219 2.531t-.906 2.094q-1.188 1.75-3.688 2.844t-5.375 1.594-5.375.625m1.063-18.75q.75 0 .75-.813 0-.312-.22-.531-.218-.219-.53-.219-.813 0-.813.75 0 .813.813.813"/><path fill="#ffe2a1" d="M-16.844 160.988q-1.95 0-3.453-1.504-1.503-1.503-1.503-3.453 0-2.03 1.503-3.493t3.453-1.463q2.031 0 3.494 1.463 1.462 1.462 1.462 3.493 0 1.95-1.462 3.453-1.463 1.504-3.494 1.504m10.625 0q-1.95 0-3.453-1.504-1.503-1.503-1.503-3.453 0-2.03 1.503-3.493t3.453-1.463q2.031 0 3.494 1.463 1.462 1.462 1.462 3.493 0 1.95-1.462 3.453-1.463 1.504-3.494 1.504m-5.312-9.375q-1.95 0-3.453-1.504-1.504-1.503-1.504-3.453 0-2.03 1.504-3.493 1.503-1.463 3.453-1.463 2.03 0 3.493 1.463 1.463 1.462 1.463 3.493 0 1.95-1.463 3.453-1.462 1.504-3.493 1.504"/><path fill="#a67300" d="M-16.844 160.225q-1.65 0-2.922-1.272t-1.272-2.922q0-1.718 1.272-2.956t2.922-1.237q1.719 0 2.956 1.237 1.238 1.238 1.238 2.956 0 1.65-1.238 2.922t-2.956 1.272m5.313-9.375q-1.65 0-2.922-1.272t-1.272-2.922q0-1.718 1.272-2.956t2.922-1.237q1.718 0 2.956 1.237t1.237 2.956q0 1.65-1.237 2.922t-2.956 1.272m5.312 9.375q-1.65 0-2.922-1.272t-1.272-2.922q0-1.718 1.272-2.956t2.922-1.237q1.719 0 2.956 1.237 1.238 1.238 1.238 2.956 0 1.65-1.238 2.922t-2.956 1.272"/><path fill="#e22e00" d="M-17.219 150.8q-.45 0-.797-.347t-.347-.797q0-.468.347-.806.347-.337.797-.337.469 0 .806.337.338.338.338.806 0 .45-.338.797-.337.347-.806.347m5.688 3.188q-.45 0-.797-.347t-.347-.797q0-.469.347-.806t.797-.338q.468 0 .806.338.337.337.337.806 0 .45-.337.797-.338.347-.806.347m5.562-3.188q-.45 0-.797-.347t-.347-.797q0-.468.347-.806.347-.337.797-.337.469 0 .806.337.338.338.338.806 0 .45-.338.797-.337.347-.806.347m-5.562 9.75q-.45 0-.797-.347t-.347-.797q0-.468.347-.806.347-.337.797-.337.468 0 .806.337.337.338.337.806 0 .45-.337.797-.338.347-.806.347"/><path fill="#d3d3d3" d="M64 167.688q-.625 0-.625-.625 0-.313.25-.5 1.375-1.063 2.563-2.344 1.187-1.281 2.312-2.656.188-.25.5-.25.625 0 .625.625 0 .25-.125.375-2.312 3-5.125 5.25-.125.125-.375.125M9.688 161.5q-2.813.063-4.782-.25-1.968-.312-3.28-1.062-.626-.375-.595-.813t.782-.75q1.25-.562 2.125-1.812.874-1.25 1.25-2.688.187-.812.53-.781.345.031.72.219 1.812.812 3.25.968 1.437.157 3.5.22 1.92.06 3.87.06 1.948.002 3.839.033l3.761.061q1.87.03 3.761.032h14.944q1.867-.001 3.732-.032 1.866-.03 3.768-.03 1.902-.002 3.79-.032l3.8-.061q1.911-.032 3.884-.063t3.923-.094q.125-1.687-.281-3.656t-2.469-3.594q-.687-.5-.562-1.28.125-.782.937-.782 1.438 0 3.375-1.594t3.25-4.219q.313-.687.938-.78.625-.095.687.968.188 2.437.375 5.156.188 2.719.25 6.344.063 1 .25 1.969.188.968.75.968V161h-5.619q-2.743 0-5.364.032-2.62.03-5.156.03t-4.994.032q-2.458.031-4.818.063-2.36.03-4.63.03t-4.487.032l-4.392.062q-2.176.032-4.285.032t-4.163.03l-4.09.063q-2.035.032-4.06.032t-4.02.03-3.994.032M72 135q-.625 0-.625-.625 0-.312.25-.5 1.375-1.062 2.563-2.344 1.187-1.281 2.312-2.656.188-.25.5-.25.625 0 .625.625 0 .25-.125.375-2.312 3-5.125 5.25Q72.25 135 72 135m1.875 1.688q-.625 0-.625-.625 0-.313.25-.5 1.375-1.063 2.563-2.344 1.187-1.281 2.312-2.656.188-.25.5-.25.625 0 .625.625 0 .25-.125.375-2.312 3-5.125 5.25-.125.125-.375.125"/><path fill="#d3d3d3" d="M71.563 161v-16.5h1q.124 4.688 3.062 7.188t8.25 2.437L75.938 161z"/><path fill="#d3d3d3" d="M75.75 161v-6.875h4.438q2.374 0 4.53-.062 2.157-.063 3.688-.22 1.531-.155 1.969-.405.5-.313.469-.72-.031-.405-.531-.28-1.5.25-3.813.468-2.312.22-4.719-.094-2.406-.312-4.156-1.5-1.562-1.062-2.562-2.78-1-1.72-1-3.782 0-2.125.843-4.344.844-2.219 2.375-4.094t3.625-3.03 4.594-1.157q2.688 0 4.969 1.844t3.938 4.969 2.562 6.968.906 7.907q0 2.187-1.375 3.593t-3.687 2.157-5.22 1.062q-2.905.313-5.968.375-3.062.063-5.875 0m9.563-17.937q.75 0 .75-.813 0-.312-.22-.531-.218-.219-.53-.219-.813 0-.813.75 0 .813.813.813m53.937 21.5q-3.25.125-6.375-.313-3.125-.437-5.594-1.375t-3.906-2.375q-.625-.687-.187-1.062.437-.375.937-.375.688 0 1.688-.688t1.937-1.656 1.313-1.656q.312-.5.906-.313.594.188 1.094.5.062.063.125.063 1.937 1.125 4.187 1.593 2.25.47 4.438.532t3.968-.125q1.781-.188 2.781-.375.75-.125.72-.688-.032-.562-.657-.437-4.437.812-8.219.5-3.78-.313-6.03-2.344t-2.25-6.344q0-3.25 1.5-5.906t3.968-4.281 5.469-1.625q2.625 0 4.812 1.406t3.844 3.656 2.781 4.844 1.719 5.031.594 4.125q0 1.375-.219 2.531t-.906 2.094q-1.188 1.75-3.688 2.844t-5.375 1.594-5.375.625m1.063-18.75q.75 0 .75-.813 0-.312-.22-.531-.218-.219-.53-.219-.813 0-.813.75 0 .813.813.813M199.438 164q-3.813-.062-7.282-1.187t-6.187-3.438-4.313-5.969-1.656-8.781q0-2.625-.062-5.781-.063-3.156-.157-6.406-.093-3.25-.25-6.157-.156-2.906-.343-4.906-.188-1.437-.313-2.312t.313-1.188q.687-.437 1.656-1.281t1.844-1.844 1.25-1.812q.312-.688.78-.688.47 0 .657 1.25.313 2.25.375 5.375.063 3.125.063 6.688v7.156q0 3.594.187 6.719.188 3.437 1.313 6.25 1.125 2.812 3.093 4.906 1.97 2.094 4.531 3.469 3.25 1.687 7.313 2.187t8.625-.312 9.25-2.875q.563-.313.844-.125.281.187.031.75-2.312 5.125-7.969 7.75-5.656 2.625-13.594 2.562ZM280 145.188q-.625 0-.625-.625 0-.313.25-.5 1.375-1.063 2.563-2.344 1.187-1.281 2.312-2.656.188-.25.5-.25.625 0 .625.625 0 .25-.125.375-2.312 3-5.125 5.25-.125.125-.375.125"/><path fill="#d3d3d3" d="M256.688 161.854q-3.813-.062-6.438-.406t-3.625-1.156q-.687-.5-.625-1t.813-.5q.375 0 .718-.219.344-.219.594-.469.563-.562 1.406-1.656.844-1.094 1.531-2.219.688-1.062 2.188-.187.688.375 2.125.562t3.063.313q.437 0 1.134.03.697.032 1.6.063.905.032 2.029.063t2.417.062 2.739.063 3.02.031 3.233.031q1.657.032 3.346.032h3.452q1.763 0 3.489-.032l3.457-.062 3.417-.063q1.685-.03 3.278-.093t3.07-.157 2.79-.156q1.376-.125 1.626-.344t.125-.593q-.063-.125-.219-.25t-.656-.063q-.75.063-1.79.125-1.041.063-2.352.125-1.31.063-2.809.125-1.499.063-3.167.094-1.669.031-3.457.062-1.789.032-3.646.063t-3.796.031h-3.845q-1.907 0-3.765-.031-1.857-.031-3.645-.031t-3.456-.063-3.137-.125-2.747-.125q-1.28-.062-2.32-.156t-1.79-.219q-1.563-.187-2.157-.687t.031-1.375q2.125-2.813 4.188-5.657t3.812-5.78q.313-.5.72-.313.405.187.155.75l-.78 1.75q-.532 1.187-1.032 2.343-.5 1.157-.75 1.782.875.062 1.978.156t2.382.156 2.747.094 3.042.062q1.575.032 3.27.032h10.693q1.845 0 3.67-.032 1.827-.03 3.584-.062 1.757-.031 3.457-.063 1.7-.03 3.323-.062 1.622-.031 3.09-.063 1.468-.03 2.758-.093t2.416-.063q1.125-.062 1.531.469t.969 1.844q.75 1.687 1.656 4.062t.969 5.438q.062 1.25-1.031 2.125-1.094.875-2.22 1-1.374.125-2.915.218-1.54.094-3.163.157-1.623.062-3.34.125-1.718.062-3.512.093-1.794.032-3.613.094-1.82.063-3.708.063t-3.765.031q-1.875.031-3.783.031h-11.117q-1.793 0-3.511-.031t-3.34-.031-3.164-.031q-1.54-.032-2.916-.032Zm99.75 2.146q-3.813-.062-7.282-1.187t-6.187-3.438-4.313-5.969-1.656-8.781q0-2.625-.062-5.781-.063-3.156-.157-6.406-.093-3.25-.25-6.157-.156-2.906-.343-4.906-.188-1.437-.313-2.312t.313-1.188q.687-.437 1.656-1.281t1.844-1.844 1.25-1.812q.312-.688.78-.688.47 0 .657 1.25.313 2.25.375 5.375.063 3.125.063 6.688v7.156q0 3.594.187 6.719.188 3.437 1.313 6.25 1.125 2.812 3.093 4.906 1.97 2.094 4.531 3.469 3.25 1.687 7.313 2.187t8.625-.312 9.25-2.875q.563-.313.844-.125.281.187.031.75-2.312 5.125-7.969 7.75-5.656 2.625-13.594 2.562ZM400 142q-.625 0-.625-.625 0-.312.25-.5 1.375-1.062 2.563-2.344 1.187-1.281 2.312-2.656.188-.25.5-.25.625 0 .625.625 0 .25-.125.375-2.312 3-5.125 5.25-.125.125-.375.125m1.875 1.688q-.625 0-.625-.625 0-.313.25-.5 1.375-1.063 2.563-2.344 1.187-1.281 2.312-2.656.188-.25.5-.25.625 0 .625.625 0 .25-.125.375-2.312 3-5.125 5.25-.125.125-.375.125m15.313 34.687q-2.313-.312-3.594-.719t-2.22-.906q-1.25-.687-1.187-1.469.063-.781.75-.781.5 0 1.375-.719t1.875-1.812 1.875-2.156q.438-.5 1.032-.438.593.063.968.313 1.438.875 4.344 1.343 2.906.47 7.469.156 0-.875-1.437-.875-2.813 0-5.063-.28-2.25-.282-3.437-.782-1.75-.687-1.844-2.031t.28-2.094q.5-1.062 1.126-2.125t1.187-2.125q-.875.063-1.968.094-1.094.031-2.407.031-4.562 0-7.5-1.375T404.437 156 403 151.063q0-3.375 1.437-6.282t4.063-4.687 6.125-1.781q2.437 0 4.5 1.625 2.062 1.625 3.625 4.156 1.562 2.531 2.437 5.219.875 2.687.938 4.812h.187V161h-1.562q-.125.25-.188.438 1.125.937 2.907 1.125 1.78.187 3.718.187.875.063 1.688.094t1.625.094q.875.062 1.687 1.031t1.063 1.844q.562 1.625.969 3.5t.406 4q0 1.25-.75 2.562-.75 1.313-1.875 1.563-3.438.75-6.969 1.031t-6.594.219-5.25-.313Zm-2.375-28.5q.75 0 .75-.812 0-.313-.22-.532-.218-.219-.53-.219-.813 0-.813.75 0 .813.813.813m8.625 7.563v-.125z"/><path fill="#d3d3d3" d="M423.5 158.188v-8.25h1.125q.375 1.187 1.156 1.906t1.219.906v5.437z"/><path fill="#d3d3d3" d="M440.063 161.125 423.75 161v-6.875h3.438q-.25-.5-.625-1.812t-.563-1.875q-.187-.625 0-.907.188-.28.688-.53 1.25-.563 1.968-1.532.72-.969 1.72-2.656.312-.563.843-.563t.656.688q.688 3.25 1.188 5t1.562 2.312q-.375-.875-.656-1.875t-.344-1.875q0-.437.281-.687t.594-.438q1.25-.625 2.156-1.562t1.656-2.813q.188-.437.563-.5.375-.062.5.438.563 1.562.906 3.406t.781 3.437 1.125 2.407q-.125-1-.312-2.344-.188-1.344-.375-2.563-.188-1.219-.313-1.719t.032-.75.468-.437q.188-.125.25-.187 1-.688 2.032-1.97 1.03-1.28 1.406-2.78.187-.75.656-.844t.656.78q.25 1.188.594 3.376t.688 4.719.53 4.937q.188 2.406.126 4.094-.063 1.188-.781 2.281-.72 1.094-2.563 1.719t-5.219.625Zm38-.125q-2.313 0-3.157-.906t-.906-2.531q-.125-4.313-.187-9.188-.063-4.875-.157-9.656-.093-4.781-.25-8.906-.156-4.125-.406-6.938 0-.25-.031-.437-.031-.188-.031-.375-.25-2.625-.219-3.657.031-1.03.781-1.53 1.25-.75 2.344-2.032 1.094-1.281 2.094-2.969.312-.5.812-.437.5.062.5 1 0 3 .063 6.781.062 3.781.125 7.781.062 4 .156 7.688t.156 6.53q.063 2.845.125 4.345.188 3.5.313 5.375t.343 2.53.594.657V161zM485 143.188q-.625 0-.625-.625 0-.313.25-.5 1.375-1.063 2.563-2.344 1.187-1.281 2.312-2.656.188-.25.5-.25.625 0 .625.625 0 .25-.125.375-2.312 3-5.125 5.25-.125.125-.375.125"/><path fill="#d3d3d3" d="m479.375 161-.875-14.625h1.125q.063 2.438 1.063 4.094t2.437 2.531 2.813 1.125V161z"/><path fill="#d3d3d3" d="M481.75 161v-6.875h4.375q-1.75-1.687-2.375-3.969t.813-3.781q.625-.687 1.875-1.906t2.656-2.594 2.53-2.437 1.5-1.438q.688-.687 1.032-.25t-.156 1q-.375.438-1.031 1.406-.656.969-1.313 1.969t-.969 1.563q-.875 1.5.5 3.25t4.47 3.343 7.343 2.656q4.125 1.063 7.344 1.407t6.406.28 7.25-.25q.313 0 .656-.03.344-.031.656-.031.813-.063.813.312t-.375.688q-1.188.875-2.656 2.375-1.47 1.5-2.532 2.25-.312.25-.625.406-.312.156-.625.156-5.625.187-10.125.312T500.5 161t-8.687.062T481.75 161m83.5 7.563q-4.187.062-7.875-.97-3.687-1.03-5.687-2.343-.75-.5-.657-.938.094-.437.72-.687 1.437-.5 2.655-1.844 1.22-1.344 2.157-2.531.375-.5 1.125-.063 1.75.938 4.375 1.594t5.156.938q2.53.28 3.968.094.5-.063.407-.47-.094-.405-.47-.405-1.5.062-3.5-.157t-3.937-.719-3.375-1.25q-.687-.375-.593-.906.093-.53.468-.844.875-.875 2.125-2.156 1.25-1.28 2.532-2.687 1.28-1.406 2.375-2.594 1.093-1.187 1.718-1.812l.407-.407q.156-.156.406-.156.312 0 .937.438 2.063 1.375 4 3.718 1.938 2.344 3.25 5.125t1.375 5.532q.063 1.687-.625 3.343-.687 1.657-3.125 2.344-2.062.625-4.718.688t-5.594.125m26.854-26.09q-.617.102-.719-.515-.05-.308.165-.534 1.183-1.273 2.145-2.73.963-1.459 1.848-3 .144-.276.453-.327.616-.102.718.514.041.247-.062.39-1.791 3.338-4.199 6.017-.102.144-.349.185m-15.023 5.161q-.62.076-.696-.544-.039-.31.187-.527 1.235-1.222 2.257-2.638 1.023-1.417 1.972-2.919.155-.27.466-.309.62-.076.696.545.03.248-.078.387-1.93 3.26-4.447 5.836-.109.139-.357.17Zm7.079-1.422q-.622.066-.687-.556-.033-.31.196-.523 1.256-1.2 2.303-2.599 1.047-1.398 2.023-2.883.16-.269.47-.301.622-.066.688.556.026.248-.086.386-1.986 3.225-4.547 5.757-.112.137-.36.163"/><path fill="#d3d3d3" d="M591.063 161.125 574.75 161v-6.875h3.438q-.25-.5-.625-1.812t-.563-1.875q-.187-.625 0-.907.188-.28.688-.53 1.25-.563 1.968-1.532.72-.969 1.72-2.656.312-.563.843-.563t.656.688q.688 3.25 1.188 5t1.562 2.312q-.375-.875-.656-1.875t-.344-1.875q0-.437.281-.687t.594-.438q1.25-.625 2.156-1.562t1.657-2.813q.187-.437.562-.5.375-.062.5.438.563 1.562.906 3.406t.781 3.437 1.125 2.407q-.125-1-.312-2.344-.188-1.344-.375-2.563-.188-1.219-.313-1.719t.032-.75.468-.437q.188-.125.25-.187 1-.688 2.032-1.97 1.03-1.28 1.406-2.78.187-.75.656-.844t.656.78q.25 1.188.594 3.376t.688 4.719.53 4.937q.188 2.406.126 4.094-.063 1.188-.781 2.281-.72 1.094-2.563 1.719t-5.219.625ZM0 97.188q-.625 0-.625-.626 0-.312.25-.5Q1 95 2.188 93.72q1.187-1.281 2.312-2.656.188-.25.5-.25.625 0 .625.624 0 .25-.125.376-2.312 3-5.125 5.25-.125.124-.375.124"/><path fill="#d3d3d3" d="M13.625 129.188q-1.562.625-3.781.875t-4.594.062-4.531-.781-3.594-1.594q-.562-.375-.656-.875t.594-.75q1.125-.5 2.406-1.844T2.063 121q.187-.313.437-.25.25.062.438.187 1.312.688 3.062 1.125t5.063.375q.125-3.562.125-6.53 0-2.97-.063-5.282V110q-.062-3.812-1.344-5.656-1.28-1.844-3.75-2.688-2.468-.843-6.156-1.593-.812-.188-.844-.72-.03-.53.72-.718Q1.937 98 3.593 96.187q1.656-1.812 2.281-4.25.125-.5.438-.75.312-.25.937.063 3.5 1.937 5.5 3.875t2.906 4.344.97 5.906q.062 2.25.062 5.094t-.032 5.594q-.03 2.75-.093 4.875v.75q0 1.312-.282 2.875-.28 1.562-.906 2.843-.625 1.282-1.75 1.782Z"/><path fill="#d3d3d3" d="M29.375 106.125q-4.812 0-7.937-1.125t-4.782-3.094-2.093-4.406q-.438-2.812.28-5.625.72-2.812 2.5-5.187 1.782-2.376 4.438-3.813t6.031-1.437q2.938 0 5.188 1.687t3.781 4.313q1.531 2.624 2.313 5.468.78 2.844.78 5.22 0 3.124-1.03 4.874-1.032 1.75-3.344 2.406-2.313.656-6.125.72ZM27.75 94.75q.75 0 .75-.812 0-.313-.219-.532t-.531-.219q-.812 0-.812.75 0 .813.812.813m53.5 12.813q-3.25.124-6.375-.313t-5.594-1.375q-2.469-.937-3.906-2.375-.625-.687-.187-1.062.437-.376.937-.376.688 0 1.688-.687t1.937-1.656 1.313-1.656q.312-.5.906-.313.594.188 1.094.5.062.063.124.063 1.938 1.125 4.188 1.593 2.25.47 4.438.532t3.968-.125q1.781-.188 2.781-.375.75-.125.72-.688-.032-.562-.657-.437-4.437.812-8.219.5-3.78-.313-6.03-2.344t-2.25-6.344q0-3.25 1.5-5.906t3.968-4.281 5.469-1.625q2.625 0 4.812 1.406t3.844 3.656 2.781 4.844 1.719 5.031.594 4.125q0 1.375-.219 2.531t-.906 2.094Q94.5 104.25 92 105.344t-5.375 1.594-5.375.625m1.063-18.75q.75 0 .75-.813 0-.312-.22-.531-.218-.219-.53-.219-.813 0-.813.75 0 .813.813.813"/><path fill="#ffe2a1" d="M104.156 103.988q-1.95 0-3.453-1.504-1.503-1.503-1.503-3.453 0-2.03 1.503-3.493t3.453-1.463q2.031 0 3.494 1.463 1.462 1.462 1.462 3.493 0 1.95-1.462 3.453-1.463 1.503-3.494 1.503m10.625 0q-1.95 0-3.453-1.504-1.503-1.503-1.503-3.453 0-2.03 1.503-3.493t3.453-1.463q2.031 0 3.494 1.463 1.462 1.462 1.462 3.493 0 1.95-1.462 3.453-1.463 1.503-3.494 1.503m-5.312-9.376q-1.95 0-3.453-1.503-1.504-1.503-1.504-3.453 0-2.03 1.504-3.493 1.503-1.463 3.453-1.463 2.03 0 3.493 1.463 1.463 1.462 1.463 3.493 0 1.95-1.463 3.453-1.462 1.503-3.493 1.503"/><path fill="#a67300" d="M104.156 103.225q-1.65 0-2.922-1.272t-1.272-2.922q0-1.718 1.272-2.956t2.922-1.237q1.719 0 2.956 1.237 1.238 1.238 1.238 2.956 0 1.65-1.238 2.922t-2.956 1.272m5.313-9.375q-1.65 0-2.922-1.272t-1.272-2.922q0-1.718 1.272-2.956t2.922-1.237q1.718 0 2.956 1.237t1.237 2.956q0 1.65-1.237 2.922t-2.956 1.272m5.312 9.375q-1.65 0-2.922-1.272t-1.272-2.922q0-1.718 1.272-2.956t2.922-1.237q1.719 0 2.956 1.237 1.238 1.238 1.238 2.956 0 1.65-1.238 2.922t-2.956 1.272"/><path fill="#e22e00" d="M103.781 93.8q-.45 0-.797-.347t-.347-.797q0-.468.347-.806.347-.337.797-.337.469 0 .806.337.338.338.338.806 0 .45-.338.797-.337.347-.806.347m5.688 3.188q-.45 0-.797-.347t-.347-.797q0-.469.347-.806t.797-.338q.468 0 .806.338.337.337.337.806 0 .45-.337.797-.338.346-.806.346m5.562-3.188q-.45 0-.797-.347t-.347-.797q0-.468.347-.806.347-.337.797-.337.469 0 .806.337.338.338.338.806 0 .45-.338.797-.337.347-.806.347m-5.562 9.75q-.45 0-.797-.347t-.347-.797q0-.468.347-.806.347-.337.797-.337.468 0 .806.337.337.338.337.806 0 .45-.337.797-.338.347-.806.347"/><path fill="#d3d3d3" d="M119 85q-.625 0-.625-.625 0-.312.25-.5 1.375-1.062 2.563-2.344 1.187-1.281 2.312-2.656.188-.25.5-.25.625 0 .625.625 0 .25-.125.375-2.312 3-5.125 5.25Q119.25 85 119 85m1.875 1.688q-.625 0-.625-.626 0-.312.25-.5 1.375-1.062 2.563-2.343 1.187-1.281 2.312-2.656.188-.25.5-.25.625 0 .625.624 0 .25-.125.376-2.312 3-5.125 5.25-.125.124-.375.124m15.313 34.688q-2.313-.312-3.594-.719t-2.22-.906q-1.25-.687-1.187-1.469.063-.781.75-.781.5 0 1.375-.719t1.875-1.812 1.875-2.156q.438-.5 1.032-.438.593.063.968.313 1.438.874 4.344 1.343 2.906.47 7.469.156 0-.874-1.437-.874-2.813 0-5.063-.282-2.25-.28-3.437-.78-1.75-.688-1.844-2.032t.28-2.094q.5-1.062 1.126-2.125t1.187-2.125q-.875.063-1.968.094-1.094.031-2.407.031-4.562 0-7.5-1.375T123.437 99 122 94.063q0-3.375 1.437-6.282t4.063-4.687 6.125-1.781q2.437 0 4.5 1.625 2.062 1.625 3.625 4.156 1.562 2.531 2.437 5.219.875 2.687.938 4.812h.187V104h-1.562q-.125.25-.188.438 1.125.937 2.907 1.125 1.78.187 3.718.187.875.063 1.688.094t1.625.094q.875.062 1.687 1.031t1.063 1.844q.562 1.625.969 3.5t.406 4q0 1.25-.75 2.562-.75 1.313-1.875 1.563-3.438.75-6.969 1.031t-6.594.219-5.25-.313Zm-2.375-28.5q.75 0 .75-.812 0-.313-.22-.532-.218-.219-.53-.219-.813 0-.813.75 0 .813.813.813m8.625 7.563v-.126z"/><path fill="#d3d3d3" d="M143.625 104V92h.625q.75 1.563 2.031 2.719t2.688 1.781 2.469.625V104z"/><path fill="#d3d3d3" d="M146.75 104v-6.875H148q13.857.1 27.714.1t27.713-.1V104q-14.17.083-28.338.083-14.17 0-28.339-.083"/><path fill="#d3d3d3" d="M201.75 104v-6.875h2.375q-.062-3-.219-7.437-.156-4.438-.406-9.438t-.5-9.812-.5-8.563q0-.125-.062-.375-.063-.375-.032-.875t.594-1q.563-.437 1.438-1.219.875-.781 1.687-1.656t1.188-1.562q.5-.876 1-.657.5.22.562 1.282.188 3.687.375 8.062.188 4.375.406 9 .22 4.625.406 9.031.188 4.406.375 8.25.188 3.844.25 6.594.125 3.375-.562 4.875t-2.187 1.906-3.813.469zm2.375 0v-6.875h7.5V104z"/><path fill="#d3d3d3" d="M211 91.188q-.625 0-.625-.626 0-.312.25-.5Q212 89 213.188 87.72q1.187-1.281 2.312-2.656.188-.25.5-.25.625 0 .625.624 0 .25-.125.376-2.312 3-5.125 5.25-.125.124-.375.124M209.563 104V92h1.187q-.062 2.313 2.281 3.75 2.344 1.438 6.094 1.75v2.813z"/><path fill="#d3d3d3" d="M209.75 104v-6.875h6.75q-2.187-1.625-4.375-3.937-.5-.5-.531-.844t.531-.72q.938-.624 2.188-1.968t2.312-2.969q.188-.312.625-.375.438-.062.813.375 3.375 3.875 7.437 6.031 4.063 2.157 8.688 3.125 4.625.97 9.687 1.188 5.063.219 10.375.219.5 0 .656.281t-.156.719q-1 1.5-2.031 2.562-1.031 1.063-2.094 1.938-.562.5-1.687.687t-1.938.188q-3 0-7.375.062-4.375.063-9.187.125-3.875.063-7.688.094t-7.187.063q-3.375.03-5.813.03Zm74.313 0q-2.313 0-3.157-.906t-.906-2.531q-.125-4.313-.187-9.188-.063-4.875-.157-9.656-.093-4.781-.25-8.906-.156-4.125-.406-6.938 0-.25-.031-.437-.031-.188-.031-.375-.25-2.625-.219-3.656t.781-1.532q1.25-.75 2.344-2.03 1.094-1.282 2.094-2.97.312-.5.812-.437.5.062.5 1 0 3 .063 6.781.062 3.781.125 7.781.062 4 .156 7.688t.156 6.53q.063 2.845.125 4.345.188 3.5.313 5.375t.343 2.53.594.657V104z"/><path fill="#d3d3d3" d="M284.5 101.188v-9.813h1.188q.062 2.313 1.03 3.25.97.938 1.844 1.25v5.313z"/><path fill="#d3d3d3" d="M303.313 104.625h-1.75q-4.063-.062-8.407-.344T284.75 104v-6.875h2.375q-.062-.375-.062-.812.062-2.75 1.156-5.532 1.094-2.78 3-5.094 1.906-2.312 4.406-3.687t5.313-1.375q2.375 0 4.5 1.531t3.718 4.063q1.594 2.53 2.5 5.53t.906 6q0 1.876-.75 3.438t-2.75 2.5-5.75.938Zm-1-11.125q.75 0 .75-.812 0-.313-.22-.532-.218-.219-.53-.219-.813 0-.813.75 0 .813.813.813m49.937 18.063q-4.187.062-7.875-.97-3.687-1.03-5.687-2.343-.75-.5-.657-.938.094-.437.72-.687 1.437-.5 2.655-1.844 1.22-1.344 2.156-2.531.375-.5 1.125-.063 1.75.938 4.375 1.594t5.157.938q2.53.28 3.969.094.5-.063.406-.47t-.47-.406q-1.5.063-3.5-.156t-3.937-.719-3.375-1.25q-.687-.374-.593-.906.093-.53.468-.844.875-.874 2.125-2.156 1.25-1.28 2.532-2.687 1.28-1.406 2.375-2.594 1.093-1.187 1.718-1.812l.407-.407q.156-.156.406-.156.312 0 .937.438 2.063 1.375 4 3.718 1.938 2.344 3.25 5.125t1.375 5.532q.063 1.687-.625 3.343-.687 1.657-3.125 2.344-2.062.625-4.718.688t-5.594.125m26.854-26.09q-.617.102-.719-.515-.05-.308.165-.534 1.183-1.273 2.146-2.73.962-1.459 1.847-3 .144-.276.453-.327.616-.102.718.514.041.247-.062.39-1.791 3.338-4.198 6.017-.103.144-.35.185m-15.023 5.161q-.62.076-.696-.544-.039-.31.187-.527 1.235-1.222 2.257-2.638 1.023-1.417 1.972-2.919.156-.27.466-.309.62-.076.696.544.03.249-.078.388-1.93 3.26-4.447 5.835-.109.14-.357.17m7.079-1.422q-.622.066-.687-.556-.033-.31.196-.523 1.257-1.2 2.304-2.599 1.047-1.398 2.022-2.883.16-.269.47-.301.622-.066.688.556.026.249-.086.386-1.986 3.225-4.547 5.757-.112.137-.36.163"/><path fill="#d3d3d3" d="M378.063 104.125 361.75 104v-6.875h3.438q-.25-.5-.625-1.812T364 93.437q-.187-.624 0-.906.188-.28.688-.53 1.25-.563 1.968-1.532.72-.969 1.72-2.656.312-.563.843-.563t.656.688q.688 3.25 1.188 5t1.562 2.312q-.375-.875-.656-1.875t-.344-1.875q0-.437.281-.687t.594-.438q1.25-.625 2.156-1.562T376.312 86q.188-.437.563-.5.375-.062.5.438.563 1.562.906 3.406t.781 3.437 1.125 2.407q-.125-1-.312-2.344-.188-1.344-.375-2.563-.188-1.219-.313-1.719t.032-.75.468-.437q.188-.125.25-.187 1-.688 2.032-1.97 1.03-1.28 1.406-2.78.187-.75.656-.844t.656.78q.25 1.188.594 3.376t.688 4.719.53 4.937q.188 2.406.126 4.094-.063 1.188-.781 2.281-.72 1.094-2.563 1.719t-5.219.625ZM413 97.188q-.625 0-.625-.626 0-.312.25-.5Q414 95 415.188 93.72q1.187-1.281 2.312-2.656.188-.25.5-.25.625 0 .625.624 0 .25-.125.376-2.312 3-5.125 5.25-.125.124-.375.124"/><path fill="#d3d3d3" d="M426.625 129.188q-1.562.625-3.781.875t-4.594.062-4.531-.781-3.594-1.594q-.562-.375-.656-.875t.594-.75q1.125-.5 2.406-1.844t2.594-3.281q.187-.313.437-.25.25.062.438.187 1.312.688 3.062 1.125t5.063.375q.125-3.562.125-6.53 0-2.97-.063-5.282V110q-.062-3.812-1.344-5.656-1.28-1.844-3.75-2.688-2.469-.843-6.156-1.593-.812-.188-.844-.72-.03-.53.72-.718 2.187-.625 3.843-2.438 1.656-1.812 2.281-4.25.125-.5.438-.75.312-.25.937.063 3.5 1.937 5.5 3.875t2.906 4.344.97 5.906q.062 2.25.062 5.094t-.032 5.594q-.03 2.75-.093 4.875v.75q0 1.312-.282 2.875-.28 1.562-.906 2.843-.625 1.282-1.75 1.782"/><path fill="#d3d3d3" d="M442.375 106.125q-4.812 0-7.937-1.125t-4.782-3.094-2.094-4.406q-.437-2.812.282-5.625.719-2.812 2.5-5.187 1.78-2.376 4.437-3.813t6.031-1.437q2.938 0 5.188 1.687t3.781 4.313q1.531 2.624 2.313 5.468.78 2.844.78 5.22 0 3.124-1.03 4.874-1.032 1.75-3.344 2.406-2.313.656-6.125.72ZM440.75 94.75q.75 0 .75-.812 0-.313-.219-.532t-.531-.219q-.812 0-.812.75 0 .813.812.813"/><path fill="#ffe2a1" d="M460.156 103.988q-1.95 0-3.453-1.504-1.503-1.503-1.503-3.453 0-2.03 1.503-3.493t3.453-1.463q2.031 0 3.494 1.463 1.462 1.462 1.462 3.493 0 1.95-1.462 3.453-1.463 1.503-3.494 1.503m10.625 0q-1.95 0-3.453-1.504-1.503-1.503-1.503-3.453 0-2.03 1.503-3.493t3.453-1.463q2.031 0 3.494 1.463 1.462 1.462 1.462 3.493 0 1.95-1.462 3.453-1.463 1.503-3.494 1.503m-5.312-9.376q-1.95 0-3.453-1.503-1.504-1.503-1.504-3.453 0-2.03 1.504-3.493 1.503-1.463 3.453-1.463 2.03 0 3.493 1.463 1.463 1.462 1.463 3.493 0 1.95-1.463 3.453-1.462 1.503-3.493 1.503"/><path fill="#a67300" d="M460.156 103.225q-1.65 0-2.922-1.272t-1.272-2.922q0-1.718 1.272-2.956t2.922-1.237q1.719 0 2.956 1.237 1.238 1.238 1.238 2.956 0 1.65-1.238 2.922t-2.956 1.272m5.313-9.375q-1.65 0-2.922-1.272t-1.272-2.922q0-1.718 1.272-2.956t2.922-1.237q1.718 0 2.956 1.237t1.237 2.956q0 1.65-1.237 2.922t-2.956 1.272m5.312 9.375q-1.65 0-2.922-1.272t-1.272-2.922q0-1.718 1.272-2.956t2.922-1.237q1.719 0 2.956 1.237 1.238 1.238 1.238 2.956 0 1.65-1.238 2.922t-2.956 1.272"/><path fill="#e22e00" d="M459.781 93.8q-.45 0-.797-.347-.346-.347-.346-.797 0-.468.346-.806.347-.337.797-.337.469 0 .806.337.338.338.338.806 0 .45-.338.797-.337.347-.806.347m5.688 3.188q-.45 0-.797-.347t-.347-.797q0-.469.347-.806t.797-.338q.468 0 .806.338.337.337.337.806 0 .45-.337.797-.338.346-.806.346m5.562-3.188q-.45 0-.797-.347-.346-.347-.346-.797 0-.468.346-.806.347-.337.797-.337.469 0 .806.337.338.338.338.806 0 .45-.338.797-.337.347-.806.347m-5.562 9.75q-.45 0-.797-.347t-.347-.797q0-.468.347-.806.347-.337.797-.337.468 0 .806.337.337.338.337.806 0 .45-.337.797-.338.347-.806.347"/><path fill="#d3d3d3" d="M475 85q-.625 0-.625-.625 0-.312.25-.5 1.375-1.062 2.563-2.344 1.187-1.281 2.312-2.656.188-.25.5-.25.625 0 .625.625 0 .25-.125.375-2.312 3-5.125 5.25Q475.25 85 475 85m1.875 1.688q-.625 0-.625-.626 0-.312.25-.5 1.375-1.062 2.563-2.343 1.187-1.281 2.312-2.656.188-.25.5-.25.625 0 .625.624 0 .25-.125.376-2.312 3-5.125 5.25-.125.124-.375.124m15.313 34.688q-2.313-.312-3.594-.719t-2.22-.906q-1.25-.687-1.187-1.469.063-.781.75-.781.5 0 1.375-.719t1.875-1.812 1.875-2.156q.438-.5 1.032-.438.593.063.968.313 1.438.874 4.344 1.343 2.906.47 7.469.156 0-.874-1.437-.874-2.813 0-5.063-.282-2.25-.28-3.437-.78-1.75-.688-1.844-2.032t.28-2.094q.5-1.062 1.126-2.125t1.187-2.125q-.875.063-1.968.094-1.094.031-2.407.031-4.562 0-7.5-1.375T479.437 99 478 94.063q0-3.375 1.437-6.282t4.063-4.687 6.125-1.781q2.437 0 4.5 1.625 2.062 1.625 3.625 4.156 1.562 2.531 2.437 5.219.875 2.687.938 4.812h.187V104h-1.562q-.125.25-.188.438 1.125.937 2.907 1.125 1.78.187 3.718.187.875.063 1.688.094t1.625.094q.875.062 1.687 1.031t1.063 1.844q.562 1.625.969 3.5t.406 4q0 1.25-.75 2.562-.75 1.313-1.875 1.563-3.438.75-6.969 1.031t-6.594.219-5.25-.313Zm-2.375-28.5q.75 0 .75-.812 0-.313-.22-.532-.218-.219-.53-.219-.813 0-.813.75 0 .813.813.813m8.625 7.563v-.126z"/><path fill="#d3d3d3" d="M499.75 104v-6.875h2.375q-.062-3-.219-7.437-.156-4.438-.406-9.438t-.5-9.812-.5-8.563q0-.125-.062-.375-.063-.375-.032-.875t.594-1q.563-.437 1.438-1.219.875-.781 1.687-1.656t1.188-1.562q.5-.876 1-.657.5.22.562 1.282.188 3.687.375 8.062.188 4.375.406 9 .22 4.625.406 9.031.188 4.406.375 8.25.188 3.844.25 6.594.125 3.375-.562 4.875t-2.187 1.906-3.813.469zm2.375 0v-6.875h7.5V104z"/><path fill="#d3d3d3" d="m508.375 104-.875-14.625h1.125q.063 2.438 1.063 4.094T512.125 96t2.813 1.125V104z"/><path fill="#d3d3d3" d="M513.75 104v-6.875H515q13.857.1 27.714.1t27.713-.1V104q-14.17.083-28.338.083-14.17 0-28.339-.083M571 82.188q-.625 0-.625-.626 0-.312.25-.5Q572 80 573.188 78.72q1.187-1.281 2.312-2.656.188-.25.5-.25.625 0 .625.624 0 .25-.125.376-2.312 3-5.125 5.25-.125.124-.375.124"/><path fill="#d3d3d3" d="M568.75 104v-6.875h5.688q-1.5-1.375-2.5-3.219t-1-4.344q0-3.375 1.718-5.937 1.72-2.563 4.407-4 2.687-1.438 5.562-1.438 2.938 0 5.406 1.72Q590.5 81.624 592 84.75t1.5 7.5q0 .875-.031 2.125t-.094 2.75h.188V104zM583 89.125q.75 0 .75-.812 0-.313-.219-.532t-.531-.219q-.812 0-.812.75 0 .813.812.813"/><path fill="#d3d3d3" d="M592.5 101.188v-9.813h1.188q.062 2.313 1.03 3.25.97.938 1.845 1.25v5.313z"/><path fill="#d3d3d3" d="M592.75 104v-6.875h2.375q-.062-3-.219-7.437-.156-4.438-.406-9.438t-.5-9.812-.5-8.563q0-.125-.062-.375-.063-.375-.032-.875.032-.5.594-1 .563-.437 1.438-1.219.875-.781 1.687-1.656t1.188-1.562q.5-.876 1-.657.5.22.562 1.282.188 3.687.375 8.062.188 4.375.406 9 .22 4.625.407 9.031t.375 8.25.25 6.594q.125 3.375-.563 4.875t-2.187 1.906-3.813.469zM19.938 50q-3.813-.062-7.282-1.187T6.47 45.375t-4.313-5.969T.5 30.625Q.5 28 .438 24.844.375 21.688.28 18.438q-.093-3.25-.25-6.157-.156-2.906-.343-4.906Q-.5 5.938-.625 5.063t.313-1.188q.687-.437 1.656-1.281T3.188.75t1.25-1.812q.312-.688.78-.688.47 0 .657 1.25.313 2.25.375 5.375.063 3.125.063 6.688v7.156q0 3.594.187 6.719.188 3.437 1.313 6.25 1.125 2.812 3.093 4.906 1.97 2.094 4.531 3.469 3.25 1.687 7.313 2.187t8.625-.312 9.25-2.875q.563-.313.844-.125.281.187.031.75-2.312 5.125-7.969 7.75Q27.875 50.063 19.937 50Zm159.562.688q-.625 0-.625-.626 0-.312.25-.5 1.375-1.062 2.563-2.343 1.187-1.282 2.312-2.657.188-.25.5-.25.625 0 .625.626 0 .25-.125.374-2.312 3-5.125 5.25-.125.126-.375.126M76.438 47.313q-2.313-.063-4.75-.282-2.438-.218-4.5-.843-.5-.126-.688-.563t.438-.625q1.124-.312 2.406-1.656 1.28-1.344 2.469-3.656.124-.188.5-.22.374-.03.812.157.438.188 1.188.469t3.25.406q1.99.063 4.62.125 2.63.063 5.817.125 3.188.063 6.824.094t7.61.094q3.974.062 8.167.062t8.5.031 8.634.032 8.563-.032 8.243-.03 7.699-.063q3.693-.063 6.953-.094t5.98-.125 4.813-.156q2.093-.063 3.406-.188-1.125-2.187-4.375-3.312-.563-.188-.594-.782-.031-.593.594-.656 1.625-.125 3.531-1.75t2.781-4q.313-.875.688-.75t.687.5q1.375 1.625 2.438 3.938 1.062 2.312 1.687 4.625.625 2.312.625 3.937 0 1.813-.375 2.813t-1.593 1.469q-1.22.468-3.782.593-2.062.063-4.718.157-2.657.093-5.782.156-3.125.062-6.605.125-3.479.062-7.292.094l-7.823.062-8.188.063q-4.178.03-8.381.03h-16.72q-4.1 0-7.98-.03l-7.516-.063q-3.636-.031-6.922-.062-3.287-.032-6.157-.094-2.87-.063-5.182-.125m144.312 7.25q-4.187.062-7.875-.97-3.687-1.03-5.687-2.343-.75-.5-.657-.938.094-.437.72-.687 1.437-.5 2.655-1.844 1.22-1.344 2.156-2.531.375-.5 1.125-.063 1.75.938 4.375 1.594t5.157.938q2.53.28 3.969.093.5-.062.406-.468t-.47-.407q-1.5.063-3.5-.156-2-.218-3.937-.718t-3.375-1.25q-.687-.376-.593-.907.093-.53.468-.843.875-.876 2.125-2.157 1.25-1.28 2.532-2.687 1.28-1.406 2.375-2.594 1.093-1.187 1.718-1.812l.407-.407q.156-.156.406-.156.312 0 .937.438 2.063 1.375 4 3.718 1.938 2.344 3.25 5.125t1.375 5.532q.063 1.687-.625 3.343-.687 1.657-3.125 2.344-2.062.625-4.718.688t-5.594.125m16.75-4.875q-.625 0-.625-.626 0-.312.25-.5 1.375-1.062 2.563-2.343 1.187-1.282 2.312-2.657.188-.25.5-.25.625 0 .625.626 0 .25-.125.374-2.312 3-5.125 5.25-.125.126-.375.126"/><path fill="#d3d3d3" d="M230.25 47v-6.875h2.438q-.063-2.625-.094-4.25t-.156-3.187q0-.188-.063-.626-.062-1.124 0-1.843.063-.72.625-1.094 2.813-1.875 4.813-4.938.312-.5.593-.406t.281.531q0 4.688.438 9.094t.5 9.094q.063 1.625-1.375 3.063Q236.813 47 235 47zm90.25-15.812q-.625 0-.625-.625 0-.313.25-.5 1.375-1.063 2.563-2.344 1.187-1.282 2.312-2.657.188-.25.5-.25.625 0 .625.625 0 .25-.125.375-2.312 3-5.125 5.25-.125.125-.375.125"/><path fill="#d3d3d3" d="M275.188 47.77q-3.813-.062-6.438-.405t-3.625-1.157q-.687-.5-.625-1t.813-.5q.375 0 .718-.218.344-.22.594-.47.563-.562 1.406-1.655.844-1.094 1.531-2.22.688-1.062 2.188-.187.688.375 2.125.563t3.063.312q.437 0 1.672.032 1.234.03 3.13.062 1.896.031 4.39.063 2.496.03 5.465.062 2.969.031 6.318.063 3.35.03 6.98.03t7.417.032 7.605.031h7.636q3.818 0 7.449-.031t7.037-.063q3.406-.03 6.459-.062 3.052-.031 5.64-.094 2.59-.062 4.605-.156l3.328-.156q1.375-.125 1.625-.344t.125-.594q-.062-.125-.219-.25-.156-.125-.656-.062-.75.062-2.328.125-1.578.062-3.88.125-2.303.062-5.173.125-2.87.062-6.214.093-3.344.032-7.037.063l-7.604.062q-3.912.032-7.98.032h-8.105q-4.037 0-7.949-.032-3.911-.03-7.604-.03t-7.032-.063-6.183-.125q-2.844-.063-5.115-.125-2.271-.063-3.85-.157-1.577-.093-2.327-.218-1.563-.188-2.157-.688-.593-.5.032-1.375 2.125-2.812 4.187-5.656t3.813-5.781q.312-.5.718-.313.407.188.157.75t-.782 1.75-1.03 2.344-.75 1.781q.874.063 2.515.157 1.64.093 3.912.156 2.27.062 5.11.093 2.838.032 6.088.063t6.85.031h23.096q3.974 0 7.854-.031l7.543-.062 7.037-.063q3.375-.031 6.365-.062 2.99-.032 5.453-.063t4.292-.094q1.828-.062 2.953-.062 1.125-.063 1.531.468.407.532.97 1.844.75 1.688 1.655 4.063.907 2.375.97 5.437.062 1.25-1.032 2.125t-2.219 1q-1.375.125-3.453.22-2.078.093-4.693.155-2.615.063-5.703.125-3.09.063-6.558.094-3.47.031-7.193.094-3.725.062-7.668.062t-7.948.032-8.043.03h-22.84q-3.469 0-6.558-.03-3.089-.032-5.703-.032t-4.693-.03-3.453-.032Zm138.562 7.98q-3.25.125-6.375-.312-3.125-.438-5.594-1.376t-3.906-2.374q-.625-.688-.187-1.063.437-.375.937-.375.688 0 1.688-.687t1.937-1.657 1.313-1.656q.312-.5.906-.312.594.187 1.094.5.062.062.125.062 1.937 1.125 4.187 1.594t4.438.531 3.968-.125 2.781-.375q.75-.125.72-.687-.032-.563-.657-.438-4.437.813-8.219.5-3.78-.312-6.03-2.344-2.25-2.03-2.25-6.343 0-3.25 1.5-5.907t3.968-4.28Q412.563 27 415.563 27q2.625 0 4.812 1.406 2.188 1.407 3.844 3.657T427 36.906t1.719 5.032.594 4.124q0 1.376-.219 2.532t-.906 2.093q-1.188 1.75-3.688 2.844t-5.375 1.594-5.375.625M414.813 37q.75 0 .75-.812 0-.313-.22-.532-.218-.218-.53-.218-.813 0-.813.75 0 .812.813.812"/><path fill="#d3d3d3" d="M426.125 47V35h.625q.75 1.563 2.031 2.719t2.688 1.781 2.469.625V47z"/><path fill="#d3d3d3" d="M429.25 47v-6.875h4.375q-1.75-1.687-2.375-3.969t.813-3.781q.625-.687 1.875-1.906t2.656-2.594 2.53-2.437 1.5-1.438q.688-.687 1.032-.25t-.156 1q-.375.438-1.031 1.406-.656.969-1.313 1.969t-.969 1.563q-.875 1.5.5 3.25t4.47 3.343 7.343 2.657q4.125 1.062 7.344 1.406t6.406.28q3.188-.062 7.25-.25.313 0 .656-.03.344-.032.656-.032.813-.062.813.313t-.375.688q-1.188.874-2.656 2.374-1.47 1.5-2.531 2.25-.313.25-.625.407-.313.156-.625.156-5.625.187-10.125.312T448 47t-8.687.062T429.25 47m88.688 3q-3.813-.062-7.282-1.187t-6.187-3.438-4.313-5.969-1.656-8.781q0-2.625-.062-5.781-.063-3.156-.157-6.406-.093-3.25-.25-6.157-.156-2.906-.343-4.906-.188-1.437-.313-2.312t.313-1.188q.687-.437 1.656-1.281T501.188.75t1.25-1.812q.312-.688.78-.688.47 0 .657 1.25.313 2.25.375 5.375.063 3.125.063 6.688v7.156q0 3.594.187 6.719.188 3.437 1.313 6.25 1.125 2.812 3.093 4.906 1.97 2.094 4.531 3.469 3.25 1.687 7.313 2.187t8.625-.312 9.25-2.875q.563-.313.844-.125.281.187.031.75-2.312 5.125-7.969 7.75-5.656 2.625-13.594 2.562Zm56.5 12.188q-2.125 1.25-4.844 1.656T564 63.78 558.5 62q-.625-.312-.469-.844.156-.531.781-.969 1.375-.875 2.438-2.187 1.062-1.313 2.187-2.688.25-.312.657-.28.406.03.78.155h.063q1.25.438 2.688.594 1.437.156 3-.094-.25-4.687-.531-10.312t-.625-11.469-.688-11.312-.656-9.97-.563-7.437q0-.125-.062-.437-.125-.375-.125-.813t.687-.812q.563-.313 1.313-1.188T570.78.031t1.031-1.719q.5-.875 1.031-.656.532.219.594 1.281.313 4.563.625 10.25.313 5.688.594 11.625t.531 11.47q.25 5.53.375 9.843.063 3.125.313 7.719.25 4.593.25 9.53 0 1.126-.47 1.75-.468.626-1.218 1.063ZM571.875 47v-6.875h4.5V47z"/><path fill="#d3d3d3" d="M574.5 21q-.625 0-.625-.625 0-.312.25-.5 1.375-1.062 2.563-2.344 1.187-1.281 2.312-2.656.188-.25.5-.25.625 0 .625.625 0 .25-.125.375-2.312 3-5.125 5.25-.125.125-.375.125m1.875 1.688q-.625 0-.625-.625 0-.313.25-.5 1.375-1.063 2.563-2.344 1.187-1.282 2.312-2.657.188-.25.5-.25.625 0 .625.625 0 .25-.125.375-2.312 3-5.125 5.25-.125.125-.375.125M574.063 47V30.5h1q.125 4.688 3.062 7.188 2.938 2.5 8.25 2.437L578.438 47z"/><path fill="#d3d3d3" d="M578.25 47v-6.875h4.438q2.375 0 4.53-.062 2.157-.063 3.688-.22 1.531-.156 1.969-.406.5-.312.469-.718-.031-.407-.531-.282-1.5.25-3.813.47-2.312.218-4.719-.094-2.406-.313-4.156-1.5-1.562-1.063-2.562-2.782-1-1.718-1-3.78 0-2.126.843-4.345.844-2.218 2.375-4.093t3.625-3.032T588 18.125q2.688 0 4.969 1.844t3.937 4.969 2.563 6.969.906 7.906q0 2.187-1.375 3.594-1.375 1.406-3.687 2.156-2.313.75-5.22 1.062-2.905.313-5.968.375-3.062.063-5.875 0m9.563-17.937q.75 0 .75-.813 0-.312-.22-.531-.218-.219-.53-.219-.813 0-.813.75 0 .813.813.813"/></svg>