<?xml version='1.0' encoding='ASCII'?>
<svg xmlns="http://www.w3.org/2000/svg" width="239" height="77" preserveAspectRatio="xMinYMin slice" viewBox="-4 -25 239 77" version="1.1">
  <path d="M-4,-25 v77 h239 v-77 Z" fill="#FFFAED" transform="matrix(1,0,0,-1,0,27)"/>
  <path d="M4.6875,0.875 q-1.5,0 -2.6562,1.1562 q-1.1562,1.1562 -1.1562,2.6562 q0,1.5625 1.1562,2.6875 q1.1562,1.125 2.6562,1.125 q1.5625,0 2.6875,-1.125 q1.125,-1.125 1.125,-2.6875 q0,-1.5 -1.125,-2.6562 q-1.125,-1.1562 -2.6875,-1.1562 Z M4.6875,9.25 q-1.5,0 -2.6562,1.1562 q-1.1562,1.1562 -1.1562,2.6562 q0,1.5625 1.1562,2.6875 q1.1562,1.125 2.6562,1.125 q1.5625,0 2.6875,-1.125 q1.125,-1.125 1.125,-2.6875 q0,-1.5 -1.125,-2.6562 q-1.125,-1.1562 -2.6875,-1.1562 Z" fill="#902900" fill-opacity="0.902" transform="matrix(1,0,0,-1,17,43)"/>
  <path d="M14.8125,-21.4375 q-2.625,-0.375 -5.7812,-0.375 q-3.1562,0 -5.9375,0.5312 q-2.7812,0.5312 -4.4062,1.6562 q-0.625,0.4375 -0.4375,1 q0.1875,0.5625 1,0.5625 q0.8125,0 2,1.3125 q1.1875,1.3125 1.9375,2.5625 q0.3125,0.5 0.6875,0.7812 q0.375,0.2812 1,0.0938 q2.125,-0.75 4.2812,-0.9375 q2.1562,-0.1875 4.5938,0 q0,0.25 0.0312,0.4375 q0.0312,0.1875 0.0312,0.4375 q0.0625,2.875 0,5.75 q-0.0625,2.875 -0.6875,4.1875 q-6.8125,0 -9.9688,2.25 q-3.1562,2.25 -3.1562,6.6875 q0,4 1.5625,7.0312 q1.5625,3.0312 3.9375,4.75 q2.375,1.7188 4.8125,1.7188 q1.25,0 2.375,-0.9062 q1.125,-0.9062 2.2812,-2.2812 q1.1562,-1.375 2.5938,-2.75 q0.625,-0.625 1.25,-0.5938 q0.625,0.0312 1.4375,0.2188 q0.1875,0.0625 0.25,0.0625 q-0.125,-2.625 -0.7812,-4.7812 q-0.6562,-2.1562 -2.0938,-2.5312 q-1.4375,-0.375 -3.2188,-0.2188 q-1.7812,0.1562 -3.4688,0.7188 q-1.6875,0.5625 -2.875,1.375 q-0.3125,0.25 -0.5625,-0.0312 q-0.25,-0.2812 0.1875,-0.7812 q1.1875,-1.1875 3.8438,-1.9688 q2.6562,-0.7812 5.7188,-0.7812 q1.0625,0 1.3125,-0.4688 q0.25,-0.4688 0.25,-0.9688 q-0.125,-1.8125 -0.0625,-3.5625 q0.0625,-1.75 0.125,-3.5 q0.0625,-0.8125 0.0938,-1.625 q0.0312,-0.8125 0.0312,-1.625 q0.125,-2.3125 0.3125,-4.2812 q0.1875,-1.9688 0.1875,-3.4062 q0,-2.8125 -1.4062,-4.125 q-1.4062,-1.3125 -3.2812,-1.625 Z" fill="#000000" transform="matrix(1,0,0,-1,-1,27)"/>
  <path d="" fill="#000000" transform="matrix(1,0,0,-1,20,27)"/>
  <path d="M4.6875,0.875 q-1.5,0 -2.6562,1.1562 q-1.1562,1.1562 -1.1562,2.6562 q0,1.5625 1.1562,2.6875 q1.1562,1.125 2.6562,1.125 q1.5625,0 2.6875,-1.125 q1.125,-1.125 1.125,-2.6875 q0,-1.5 -1.125,-2.6562 q-1.125,-1.1562 -2.6875,-1.1562 Z M4.6875,9.25 q-1.5,0 -2.6562,1.1562 q-1.1562,1.1562 -1.1562,2.6562 q0,1.5625 1.1562,2.6875 q1.1562,1.125 2.6562,1.125 q1.5625,0 2.6875,-1.125 q1.125,-1.125 1.125,-2.6875 q0,-1.5 -1.125,-2.6562 q-1.125,-1.1562 -2.6875,-1.1562 Z" fill="#902900" fill-opacity="0.902" transform="matrix(1,0,0,-1,62,39)"/>
  <path d="M15.125,-22.0625 q-1.5625,-0.625 -3.7812,-0.875 q-2.2188,-0.25 -4.5938,-0.0625 q-2.375,0.1875 -4.5312,0.7812 q-2.1562,0.5938 -3.5938,1.5938 q-0.5625,0.375 -0.6562,0.875 q-0.0938,0.5 0.5938,0.75 q1.125,0.5 2.4062,1.8438 q1.2812,1.3438 2.5938,3.2812 q0.1875,0.3125 0.4375,0.25 q0.25,-0.0625 0.4375,-0.1875 q1.4375,-0.8125 3.2812,-1.2188 q1.8438,-0.4062 4.9062,-0.2188 q0.3125,4.625 0.2188,8.375 q-0.0938,3.75 -0.4688,6.5 q-0.5,3.8125 -1.7812,5.6562 q-1.2812,1.8438 -3.6562,2.6875 q-2.375,0.8438 -6.0625,1.5938 q-0.8125,0.1875 -0.8438,0.7188 q-0.0312,0.5312 0.7188,0.7188 q2.1875,0.625 4.1875,2.4375 q2,1.8125 2.4375,4.25 q0.125,0.5 0.3125,0.5312 q0.1875,0.0312 0.6875,-0.0938 q0.0625,0 0.125,0 q4.8125,-1.0625 7,-4.8438 q2.1875,-3.7812 2.625,-9.0312 q0.25,-2.9375 0.2812,-6.2188 q0.0312,-3.2812 -0.0625,-6.1875 q-0.0938,-2.9062 -0.2188,-4.9062 q0,-0.4375 -0.0312,-0.8125 q-0.0312,-0.375 -0.0312,-0.6875 q0,-1.3125 -0.2812,-2.875 q-0.2812,-1.5625 -0.9062,-2.8438 q-0.625,-1.2812 -1.75,-1.7812 Z" fill="#000000" transform="matrix(1,0,0,-1,45,27)"/>
  <path d="" fill="#000000" transform="matrix(1,0,0,-1,63,27)"/>
  <path d="M4.6875,0.875 q-1.5,0 -2.6562,1.1562 q-1.1562,1.1562 -1.1562,2.6562 q0,1.5625 1.1562,2.6875 q1.1562,1.125 2.6562,1.125 q1.5625,0 2.6875,-1.125 q1.125,-1.125 1.125,-2.6875 q0,-1.5 -1.125,-2.6562 q-1.125,-1.1562 -2.6875,-1.1562 Z M4.6875,9.25 q-1.5,0 -2.6562,1.1562 q-1.1562,1.1562 -1.1562,2.6562 q0,1.5625 1.1562,2.6875 q1.1562,1.125 2.6562,1.125 q1.5625,0 2.6875,-1.125 q1.125,-1.125 1.125,-2.6875 q0,-1.5 -1.125,-2.6562 q-1.125,-1.1562 -2.6875,-1.1562 Z" fill="#902900" fill-opacity="0.902" transform="matrix(1,0,0,-1,99,44)"/>
  <path d="M9.9375,-15.1875 q-2.125,-1.25 -4.8438,-1.6562 q-2.7188,-0.4062 -5.5938,0.0625 q-2.875,0.4688 -5.5,1.7812 q-0.625,0.3125 -0.4688,0.8438 q0.1562,0.5312 0.7812,0.9688 q1.375,0.875 2.4375,2.1875 q1.0625,1.3125 2.1875,2.6875 q0.25,0.3125 0.6562,0.2812 q0.4062,-0.0312 0.7812,-0.1562 q0.0625,0 0.0625,0 q1.25,-0.4375 2.6875,-0.5938 q1.4375,-0.1562 3,0.0938 q-0.25,4.6875 -0.5312,10.3125 q-0.2812,5.625 -0.625,11.4688 q-0.3438,5.8438 -0.6875,11.3125 q-0.3438,5.4688 -0.6562,9.9688 q-0.3125,4.5 -0.5625,7.4375 q0,0.125 -0.0625,0.4375 q-0.125,0.375 -0.125,0.8125 q0,0.4375 0.6875,0.8125 q0.5625,0.3125 1.3125,1.1875 q0.75,0.875 1.4062,1.9062 q0.6562,1.0312 1.0312,1.7188 q0.5,0.875 1.0312,0.6562 q0.5312,-0.2188 0.5938,-1.2812 q0.3125,-4.5625 0.625,-10.25 q0.3125,-5.6875 0.5938,-11.625 q0.2812,-5.9375 0.5312,-11.4688 q0.25,-5.5312 0.375,-9.8438 q0.0625,-3.125 0.3125,-7.7188 q0.25,-4.5938 0.25,-9.5312 q0,-1.125 -0.4688,-1.75 q-0.4688,-0.625 -1.2188,-1.0625 Z" fill="#000000" transform="matrix(1,0,0,-1,88,27)"/>
  <path d="" fill="#000000" transform="matrix(1,0,0,-1,100,27)"/>
  <path d="M4.6875,0.875 q-1.5,0 -2.6562,1.1562 q-1.1562,1.1562 -1.1562,2.6562 q0,1.5625 1.1562,2.6875 q1.1562,1.125 2.6562,1.125 q1.5625,0 2.6875,-1.125 q1.125,-1.125 1.125,-2.6875 q0,-1.5 -1.125,-2.6562 q-1.125,-1.1562 -2.6875,-1.1562 Z" fill="#902900" fill-opacity="0.902" transform="matrix(1,0,0,-1,143,39)"/>
  <path d="M14.8125,-21.4375 q-2.625,-0.375 -5.7812,-0.375 q-3.1562,0 -5.9375,0.5312 q-2.7812,0.5312 -4.4062,1.6562 q-0.625,0.4375 -0.4375,1 q0.1875,0.5625 1,0.5625 q0.8125,0 2,1.3125 q1.1875,1.3125 1.9375,2.5625 q0.3125,0.5 0.6875,0.7812 q0.375,0.2812 1,0.0938 q2.125,-0.75 4.2812,-0.9375 q2.1562,-0.1875 4.5938,0 q0,0.25 0.0312,0.4375 q0.0312,0.1875 0.0312,0.4375 q0.0625,2.875 0,5.75 q-0.0625,2.875 -0.6875,4.1875 q-6.8125,0 -9.9688,2.25 q-3.1562,2.25 -3.1562,6.6875 q0,4 1.5625,7.0312 q1.5625,3.0312 3.9375,4.75 q2.375,1.7188 4.8125,1.7188 q1.25,0 2.375,-0.9062 q1.125,-0.9062 2.2812,-2.2812 q1.1562,-1.375 2.5938,-2.75 q0.625,-0.625 1.25,-0.5938 q0.625,0.0312 1.4375,0.2188 q0.1875,0.0625 0.25,0.0625 q-0.125,-2.625 -0.7812,-4.7812 q-0.6562,-2.1562 -2.0938,-2.5312 q-1.4375,-0.375 -3.2188,-0.2188 q-1.7812,0.1562 -3.4688,0.7188 q-1.6875,0.5625 -2.875,1.375 q-0.3125,0.25 -0.5625,-0.0312 q-0.25,-0.2812 0.1875,-0.7812 q1.1875,-1.1875 3.8438,-1.9688 q2.6562,-0.7812 5.7188,-0.7812 q1.0625,0 1.3125,-0.4688 q0.25,-0.4688 0.25,-0.9688 q-0.125,-1.8125 -0.0625,-3.5625 q0.0625,-1.75 0.125,-3.5 q0.0625,-0.8125 0.0938,-1.625 q0.0312,-0.8125 0.0312,-1.625 q0.125,-2.3125 0.3125,-4.2812 q0.1875,-1.9688 0.1875,-3.4062 q0,-2.8125 -1.4062,-4.125 q-1.4062,-1.3125 -3.2812,-1.625 Z" fill="#000000" transform="matrix(1,0,0,-1,125,27)"/>
  <path d="" fill="#000000" transform="matrix(1,0,0,-1,146,27)"/>
  <path d="M4.6875,0.875 q-1.5,0 -2.6562,1.1562 q-1.1562,1.1562 -1.1562,2.6562 q0,1.5625 1.1562,2.6875 q1.1562,1.125 2.6562,1.125 q1.5625,0 2.6875,-1.125 q1.125,-1.125 1.125,-2.6875 q0,-1.5 -1.125,-2.6562 q-1.125,-1.1562 -2.6875,-1.1562 Z" fill="#902900" fill-opacity="0.902" transform="matrix(1,0,0,-1,188,35)"/>
  <path d="M15.125,-22.0625 q-1.5625,-0.625 -3.7812,-0.875 q-2.2188,-0.25 -4.5938,-0.0625 q-2.375,0.1875 -4.5312,0.7812 q-2.1562,0.5938 -3.5938,1.5938 q-0.5625,0.375 -0.6562,0.875 q-0.0938,0.5 0.5938,0.75 q1.125,0.5 2.4062,1.8438 q1.2812,1.3438 2.5938,3.2812 q0.1875,0.3125 0.4375,0.25 q0.25,-0.0625 0.4375,-0.1875 q1.4375,-0.8125 3.2812,-1.2188 q1.8438,-0.4062 4.9062,-0.2188 q0.3125,4.625 0.2188,8.375 q-0.0938,3.75 -0.4688,6.5 q-0.5,3.8125 -1.7812,5.6562 q-1.2812,1.8438 -3.6562,2.6875 q-2.375,0.8438 -6.0625,1.5938 q-0.8125,0.1875 -0.8438,0.7188 q-0.0312,0.5312 0.7188,0.7188 q2.1875,0.625 4.1875,2.4375 q2,1.8125 2.4375,4.25 q0.125,0.5 0.3125,0.5312 q0.1875,0.0312 0.6875,-0.0938 q0.0625,0 0.125,0 q4.8125,-1.0625 7,-4.8438 q2.1875,-3.7812 2.625,-9.0312 q0.25,-2.9375 0.2812,-6.2188 q0.0312,-3.2812 -0.0625,-6.1875 q-0.0938,-2.9062 -0.2188,-4.9062 q0,-0.4375 -0.0312,-0.8125 q-0.0312,-0.375 -0.0312,-0.6875 q0,-1.3125 -0.2812,-2.875 q-0.2812,-1.5625 -0.9062,-2.8438 q-0.625,-1.2812 -1.75,-1.7812 Z" fill="#000000" transform="matrix(1,0,0,-1,171,27)"/>
  <path d="" fill="#000000" transform="matrix(1,0,0,-1,189,27)"/>
  <path d="M4.6875,0.875 q-1.5,0 -2.6562,1.1562 q-1.1562,1.1562 -1.1562,2.6562 q0,1.5625 1.1562,2.6875 q1.1562,1.125 2.6562,1.125 q1.5625,0 2.6875,-1.125 q1.125,-1.125 1.125,-2.6875 q0,-1.5 -1.125,-2.6562 q-1.125,-1.1562 -2.6875,-1.1562 Z" fill="#902900" fill-opacity="0.902" transform="matrix(1,0,0,-1,225,40)"/>
  <path d="M9.9375,-15.1875 q-2.125,-1.25 -4.8438,-1.6562 q-2.7188,-0.4062 -5.5938,0.0625 q-2.875,0.4688 -5.5,1.7812 q-0.625,0.3125 -0.4688,0.8438 q0.1562,0.5312 0.7812,0.9688 q1.375,0.875 2.4375,2.1875 q1.0625,1.3125 2.1875,2.6875 q0.25,0.3125 0.6562,0.2812 q0.4062,-0.0312 0.7812,-0.1562 q0.0625,0 0.0625,0 q1.25,-0.4375 2.6875,-0.5938 q1.4375,-0.1562 3,0.0938 q-0.25,4.6875 -0.5312,10.3125 q-0.2812,5.625 -0.625,11.4688 q-0.3438,5.8438 -0.6875,11.3125 q-0.3438,5.4688 -0.6562,9.9688 q-0.3125,4.5 -0.5625,7.4375 q0,0.125 -0.0625,0.4375 q-0.125,0.375 -0.125,0.8125 q0,0.4375 0.6875,0.8125 q0.5625,0.3125 1.3125,1.1875 q0.75,0.875 1.4062,1.9062 q0.6562,1.0312 1.0312,1.7188 q0.5,0.875 1.0312,0.6562 q0.5312,-0.2188 0.5938,-1.2812 q0.3125,-4.5625 0.625,-10.25 q0.3125,-5.6875 0.5938,-11.625 q0.2812,-5.9375 0.5312,-11.4688 q0.25,-5.5312 0.375,-9.8438 q0.0625,-3.125 0.3125,-7.7188 q0.25,-4.5938 0.25,-9.5312 q0,-1.125 -0.4688,-1.75 q-0.4688,-0.625 -1.2188,-1.0625 Z" fill="#000000" transform="matrix(1,0,0,-1,214,27)"/>
</svg>
