<svg xmlns="http://www.w3.org/2000/svg" width="345" height="61" preserveAspectRatio="xMinYMin slice" viewBox="-2 -13 345 61"><path fill="#fffaed" d="M-2 48v-61h345v61Z"/><path d="M17.094 35q-.75 0-1.328-.578t-.578-1.328q0-.781.578-1.344.578-.562 1.328-.562.781 0 1.344.562.562.563.562 1.344 0 .75-.562 1.328T17.094 35m0-32.312q-.75 0-1.328-.579-.578-.578-.578-1.328 0-.78.578-1.344.578-.562 1.328-.562.781 0 1.344.562Q19 0 19 .781q0 .75-.562 1.328t-1.344.578M.906 18.813q-.75 0-1.328-.579Q-1 17.656-1 16.906q0-.78.578-1.343T.906 15q.781 0 1.344.563.562.562.562 1.343 0 .75-.562 1.328t-1.344.578m32.313 0q-.75 0-1.328-.579-.578-.578-.578-1.328 0-.78.578-1.343T33.219 15q.781 0 1.344.563.562.562.562 1.343 0 .75-.562 1.328t-1.344.578M22.094 34.188q-.75 0-1.328-.579-.578-.578-.578-1.328 0-.78.578-1.343t1.328-.563q.781 0 1.344.563Q24 31.5 24 32.28q0 .75-.562 1.328t-1.344.578M12.156 3.5q-.75 0-1.328-.578t-.578-1.328q0-.781.578-1.344t1.328-.563q.781 0 1.344.563.562.562.562 1.344 0 .75-.562 1.328t-1.344.578M1.72 23.75q-.75 0-1.328-.578t-.578-1.328q0-.781.578-1.344.578-.562 1.328-.562.781 0 1.344.562.562.563.562 1.344 0 .75-.562 1.328t-1.344.578m30.687-9.937q-.75 0-1.328-.579-.578-.578-.578-1.328 0-.78.578-1.343T32.406 10q.781 0 1.344.563t.563 1.343q0 .75-.563 1.328t-1.344.579m-20.25 20.374q-.75 0-1.328-.578t-.578-1.328q0-.78.578-1.343t1.328-.563q.781 0 1.344.563.562.562.562 1.343 0 .75-.562 1.328t-1.344.578M22.094 3.5q-.75 0-1.328-.578t-.578-1.328q0-.781.578-1.344t1.328-.563q.781 0 1.344.563Q24 .812 24 1.594q0 .75-.562 1.328t-1.344.578M1.719 13.813q-.75 0-1.328-.579-.578-.578-.578-1.328 0-.78.578-1.343T1.719 10q.781 0 1.344.563.562.562.562 1.343 0 .75-.562 1.328t-1.344.579m30.687 9.937q-.75 0-1.328-.578t-.578-1.328q0-.781.578-1.344.578-.562 1.328-.562.781 0 1.344.562t.563 1.344q0 .75-.563 1.328t-1.344.578m-5.812 8.188q-.75 0-1.328-.579-.578-.578-.578-1.328 0-.78.578-1.343t1.328-.563q.781 0 1.344.563.562.562.562 1.343 0 .75-.562 1.328t-1.344.578M7.656 5.813q-.75 0-1.328-.579-.578-.578-.578-1.328 0-.78.578-1.344Q6.906 2 7.656 2 8.437 2 9 2.563q.562.562.562 1.343 0 .75-.562 1.328t-1.344.578M3.97 28.25q-.75 0-1.328-.578t-.578-1.328q0-.781.578-1.344.578-.562 1.328-.562.781 0 1.344.562.562.563.562 1.344 0 .75-.562 1.328t-1.344.578M30.094 9.313q-.75 0-1.328-.579-.578-.578-.578-1.328 0-.78.578-1.343t1.328-.563q.781 0 1.344.563.562.562.562 1.343 0 .75-.562 1.328t-1.344.579M7.656 31.937q-.75 0-1.328-.578t-.578-1.328q0-.78.578-1.343t1.328-.563q.781 0 1.344.563.562.562.562 1.343 0 .75-.562 1.328t-1.344.578M26.594 5.814q-.75 0-1.328-.579-.578-.578-.578-1.328 0-.78.578-1.344Q25.844 2 26.594 2q.781 0 1.344.563.562.562.562 1.343 0 .75-.562 1.328t-1.344.578m-22.625 3.5q-.75 0-1.328-.579-.578-.578-.578-1.328 0-.78.578-1.343T3.969 5.5q.781 0 1.344.563.562.562.562 1.343 0 .75-.562 1.328t-1.344.579M30.094 28.25q-.75 0-1.328-.578t-.578-1.328q0-.781.578-1.344.578-.562 1.328-.562.781 0 1.344.562.562.563.562 1.344 0 .75-.562 1.328t-1.344.578"/><path fill="#902900" fill-opacity=".902" d="M16.688-3.875q-1.5 0-2.657-1.156-1.156-1.156-1.156-2.656 0-1.563 1.156-2.688t2.656-1.125q1.563 0 2.688 1.125T20.5-7.687q0 1.5-1.125 2.656t-2.687 1.156"/><path d="M78.094 35q-.75 0-1.328-.578t-.578-1.328q0-.781.578-1.344.578-.562 1.328-.562.781 0 1.344.562.562.563.562 1.344 0 .75-.562 1.328T78.094 35m0-32.312q-.75 0-1.328-.579-.578-.578-.578-1.328 0-.78.578-1.344.578-.562 1.328-.562.781 0 1.344.562Q80 0 80 .781q0 .75-.562 1.328t-1.344.578M61.906 18.813q-.75 0-1.328-.579Q60 17.656 60 16.906q0-.78.578-1.343T61.906 15q.781 0 1.344.563t.563 1.343q0 .75-.563 1.328t-1.344.578m32.313 0q-.75 0-1.328-.579-.578-.578-.578-1.328 0-.78.578-1.343T94.219 15q.781 0 1.344.563.562.562.562 1.343 0 .75-.562 1.328t-1.344.578M83.094 34.188q-.75 0-1.328-.579-.578-.578-.578-1.328 0-.78.578-1.343t1.328-.563q.781 0 1.344.563Q85 31.5 85 32.28q0 .75-.562 1.328t-1.344.578M73.156 3.5q-.75 0-1.328-.578t-.578-1.328q0-.781.578-1.344t1.328-.563q.781 0 1.344.563t.563 1.344q0 .75-.563 1.328t-1.344.578M62.72 23.75q-.75 0-1.328-.578t-.578-1.328q0-.781.578-1.344.578-.562 1.328-.562.781 0 1.344.562.562.563.562 1.344 0 .75-.562 1.328t-1.344.578m30.687-9.937q-.75 0-1.328-.579-.578-.578-.578-1.328 0-.78.578-1.343T93.406 10q.781 0 1.344.563t.563 1.343q0 .75-.563 1.328t-1.344.579m-20.25 20.374q-.75 0-1.328-.578t-.578-1.328q0-.78.578-1.343t1.328-.563q.781 0 1.344.563t.563 1.343q0 .75-.563 1.328t-1.344.578M83.094 3.5q-.75 0-1.328-.578t-.578-1.328q0-.781.578-1.344t1.328-.563q.781 0 1.344.563Q85 .812 85 1.594q0 .75-.562 1.328t-1.344.578M62.719 13.813q-.75 0-1.328-.579-.578-.578-.578-1.328 0-.78.578-1.343T62.719 10q.781 0 1.344.563.562.562.562 1.343 0 .75-.562 1.328t-1.344.579m30.687 9.937q-.75 0-1.328-.578t-.578-1.328q0-.781.578-1.344.578-.562 1.328-.562.781 0 1.344.562t.563 1.344q0 .75-.563 1.328t-1.344.578m-5.812 8.188q-.75 0-1.328-.579-.578-.578-.578-1.328 0-.78.578-1.343t1.328-.563q.781 0 1.344.563.562.562.562 1.343 0 .75-.562 1.328t-1.344.578M68.656 5.813q-.75 0-1.328-.579-.578-.578-.578-1.328 0-.78.578-1.344Q67.906 2 68.656 2q.781 0 1.344.563t.563 1.343q0 .75-.563 1.328t-1.344.578M64.97 28.25q-.75 0-1.328-.578t-.578-1.328q0-.781.578-1.344.578-.562 1.328-.562.781 0 1.344.562.562.563.562 1.344 0 .75-.562 1.328t-1.344.578M91.094 9.313q-.75 0-1.328-.579-.578-.578-.578-1.328 0-.78.578-1.343t1.328-.563q.781 0 1.344.563.562.562.562 1.343 0 .75-.562 1.328t-1.344.579M68.656 31.937q-.75 0-1.328-.578t-.578-1.328q0-.78.578-1.343t1.328-.563q.781 0 1.344.563t.563 1.343q0 .75-.563 1.328t-1.344.578M87.594 5.814q-.75 0-1.328-.579-.578-.578-.578-1.328 0-.78.578-1.344Q86.844 2 87.594 2q.781 0 1.344.563.562.562.562 1.343 0 .75-.562 1.328t-1.344.578m-22.625 3.5q-.75 0-1.328-.579-.578-.578-.578-1.328 0-.78.578-1.343t1.328-.563q.781 0 1.344.563.562.562.562 1.343 0 .75-.562 1.328t-1.344.579M91.094 28.25q-.75 0-1.328-.578t-.578-1.328q0-.781.578-1.344.578-.562 1.328-.562.781 0 1.344.562.562.563.562 1.344 0 .75-.562 1.328t-1.344.578"/><path fill="#902900" fill-opacity=".902" d="M73.688-3.875q-1.5 0-2.657-1.156-1.156-1.156-1.156-2.656 0-1.563 1.156-2.688t2.656-1.125q1.563 0 2.688 1.125T77.5-7.687q0 1.5-1.125 2.656t-2.687 1.156m8.374 0q-1.5 0-2.656-1.156T78.25-7.687q0-1.563 1.156-2.688t2.656-1.125q1.563 0 2.688 1.125t1.125 2.688q0 1.5-1.125 2.656t-2.687 1.156"/><path d="M139.094 35q-.75 0-1.328-.578t-.578-1.328q0-.781.578-1.344.578-.562 1.328-.562.781 0 1.344.562.562.563.562 1.344 0 .75-.562 1.328t-1.344.578m0-32.312q-.75 0-1.328-.579-.578-.578-.578-1.328 0-.78.578-1.344.578-.562 1.328-.562.781 0 1.344.562Q141 0 141 .781q0 .75-.562 1.328t-1.344.578m-16.188 16.125q-.75 0-1.328-.579-.578-.578-.578-1.328 0-.78.578-1.343t1.328-.563q.781 0 1.344.563t.563 1.343q0 .75-.563 1.328t-1.344.578m32.313 0q-.75 0-1.328-.579-.578-.578-.578-1.328 0-.78.578-1.343t1.328-.563q.781 0 1.344.563.562.562.562 1.343 0 .75-.562 1.328t-1.344.578m-11.125 15.375q-.75 0-1.328-.579-.578-.578-.578-1.328 0-.78.578-1.343t1.328-.563q.781 0 1.344.563.562.562.562 1.343 0 .75-.562 1.328t-1.344.578M134.156 3.5q-.75 0-1.328-.578t-.578-1.328q0-.781.578-1.344t1.328-.563q.781 0 1.344.563t.563 1.344q0 .75-.563 1.328t-1.344.578M123.72 23.75q-.75 0-1.328-.578t-.578-1.328q0-.781.578-1.344.578-.562 1.328-.562.781 0 1.344.562.562.563.562 1.344 0 .75-.562 1.328t-1.344.578m30.687-9.937q-.75 0-1.328-.579-.578-.578-.578-1.328 0-.78.578-1.343t1.328-.563q.781 0 1.344.563t.563 1.343q0 .75-.563 1.328t-1.344.579m-20.25 20.374q-.75 0-1.328-.578t-.578-1.328q0-.78.578-1.343t1.328-.563q.781 0 1.344.563t.563 1.343q0 .75-.563 1.328t-1.344.578M144.094 3.5q-.75 0-1.328-.578t-.578-1.328q0-.781.578-1.344t1.328-.563q.781 0 1.344.563.562.562.562 1.344 0 .75-.562 1.328t-1.344.578m-20.375 10.313q-.75 0-1.328-.579-.578-.578-.578-1.328 0-.78.578-1.343t1.328-.563q.781 0 1.344.563.562.562.562 1.343 0 .75-.562 1.328t-1.344.579m30.687 9.937q-.75 0-1.328-.578t-.578-1.328q0-.781.578-1.344.578-.562 1.328-.562.781 0 1.344.562t.563 1.344q0 .75-.563 1.328t-1.344.578m-5.812 8.188q-.75 0-1.328-.579-.578-.578-.578-1.328 0-.78.578-1.343t1.328-.563q.781 0 1.344.563.562.562.562 1.343 0 .75-.562 1.328t-1.344.578M129.656 5.813q-.75 0-1.328-.579-.578-.578-.578-1.328 0-.78.578-1.344.578-.562 1.328-.562.781 0 1.344.563t.563 1.343q0 .75-.563 1.328t-1.344.578M125.97 28.25q-.75 0-1.328-.578t-.578-1.328q0-.781.578-1.344.578-.562 1.328-.562.781 0 1.344.562.562.563.562 1.344 0 .75-.562 1.328t-1.344.578m26.125-18.937q-.75 0-1.328-.579-.578-.578-.578-1.328 0-.78.578-1.343t1.328-.563q.781 0 1.344.563.562.562.562 1.343 0 .75-.562 1.328t-1.344.579m-22.438 22.624q-.75 0-1.328-.578t-.578-1.328q0-.78.578-1.343t1.328-.563q.781 0 1.344.563t.563 1.343q0 .75-.563 1.328t-1.344.578m18.938-26.124q-.75 0-1.328-.579-.578-.578-.578-1.328 0-.78.578-1.344.578-.562 1.328-.562.781 0 1.344.563.562.562.562 1.343 0 .75-.562 1.328t-1.344.578m-22.625 3.5q-.75 0-1.328-.579-.578-.578-.578-1.328 0-.78.578-1.343t1.328-.563q.781 0 1.344.563.562.562.562 1.343 0 .75-.562 1.328t-1.344.579m26.125 18.937q-.75 0-1.328-.578t-.578-1.328q0-.781.578-1.344.578-.562 1.328-.562.781 0 1.344.562.562.563.562 1.344 0 .75-.562 1.328t-1.344.578"/><path fill="#902900" fill-opacity=".902" d="M138.688 46.125q-1.5 0-2.657-1.156-1.156-1.156-1.156-2.656 0-1.563 1.156-2.688t2.656-1.125q1.563 0 2.688 1.125t1.125 2.688q0 1.5-1.125 2.656t-2.687 1.156"/><path d="M200.094 35q-.75 0-1.328-.578t-.578-1.328q0-.781.578-1.344.578-.562 1.328-.562.781 0 1.344.562.562.563.562 1.344 0 .75-.562 1.328t-1.344.578m0-32.312q-.75 0-1.328-.579-.578-.578-.578-1.328 0-.78.578-1.344.578-.562 1.328-.562.781 0 1.344.562Q202 0 202 .781q0 .75-.562 1.328t-1.344.578m-16.188 16.125q-.75 0-1.328-.579-.578-.578-.578-1.328 0-.78.578-1.343t1.328-.563q.781 0 1.344.563t.563 1.343q0 .75-.563 1.328t-1.344.578m32.313 0q-.75 0-1.328-.579-.578-.578-.578-1.328 0-.78.578-1.343t1.328-.563q.781 0 1.344.563.562.562.562 1.343 0 .75-.562 1.328t-1.344.578m-11.125 15.375q-.75 0-1.328-.579-.578-.578-.578-1.328 0-.78.578-1.343t1.328-.563q.781 0 1.344.563.562.562.562 1.343 0 .75-.562 1.328t-1.344.578M195.156 3.5q-.75 0-1.328-.578t-.578-1.328q0-.781.578-1.344t1.328-.563q.781 0 1.344.563t.563 1.344q0 .75-.563 1.328t-1.344.578M184.72 23.75q-.75 0-1.328-.578t-.578-1.328q0-.781.578-1.344.578-.562 1.328-.562.781 0 1.344.562.562.563.562 1.344 0 .75-.562 1.328t-1.344.578m30.687-9.937q-.75 0-1.328-.579-.578-.578-.578-1.328 0-.78.578-1.343t1.328-.563q.781 0 1.344.563t.563 1.343q0 .75-.563 1.328t-1.344.579m-20.25 20.374q-.75 0-1.328-.578t-.578-1.328q0-.78.578-1.343t1.328-.563q.781 0 1.344.563t.563 1.343q0 .75-.563 1.328t-1.344.578M205.094 3.5q-.75 0-1.328-.578t-.578-1.328q0-.781.578-1.344t1.328-.563q.781 0 1.344.563.562.562.562 1.344 0 .75-.562 1.328t-1.344.578m-20.375 10.313q-.75 0-1.328-.579-.578-.578-.578-1.328 0-.78.578-1.343t1.328-.563q.781 0 1.344.563.562.562.562 1.343 0 .75-.562 1.328t-1.344.579m30.687 9.937q-.75 0-1.328-.578t-.578-1.328q0-.781.578-1.344.578-.562 1.328-.562.781 0 1.344.562t.563 1.344q0 .75-.563 1.328t-1.344.578m-5.812 8.188q-.75 0-1.328-.579-.578-.578-.578-1.328 0-.78.578-1.343t1.328-.563q.781 0 1.344.563.562.562.562 1.343 0 .75-.562 1.328t-1.344.578M190.656 5.813q-.75 0-1.328-.579-.578-.578-.578-1.328 0-.78.578-1.344.578-.562 1.328-.562.781 0 1.344.563t.563 1.343q0 .75-.563 1.328t-1.344.578M186.97 28.25q-.75 0-1.328-.578t-.578-1.328q0-.781.578-1.344.578-.562 1.328-.562.781 0 1.344.562.562.563.562 1.344 0 .75-.562 1.328t-1.344.578m26.125-18.937q-.75 0-1.328-.579-.578-.578-.578-1.328 0-.78.578-1.343t1.328-.563q.781 0 1.344.563.562.562.562 1.343 0 .75-.562 1.328t-1.344.579m-22.438 22.624q-.75 0-1.328-.578t-.578-1.328q0-.78.578-1.343t1.328-.563q.781 0 1.344.563t.563 1.343q0 .75-.563 1.328t-1.344.578m18.938-26.124q-.75 0-1.328-.579-.578-.578-.578-1.328 0-.78.578-1.344.578-.562 1.328-.562.781 0 1.344.563.562.562.562 1.343 0 .75-.562 1.328t-1.344.578m-22.625 3.5q-.75 0-1.328-.579-.578-.578-.578-1.328 0-.78.578-1.343t1.328-.563q.781 0 1.344.563.562.562.562 1.343 0 .75-.562 1.328t-1.344.579m26.125 18.937q-.75 0-1.328-.578t-.578-1.328q0-.781.578-1.344.578-.562 1.328-.562.781 0 1.344.562.562.563.562 1.344 0 .75-.562 1.328t-1.344.578"/><path fill="#902900" fill-opacity=".902" d="M195.688 46.125q-1.5 0-2.657-1.156-1.156-1.156-1.156-2.656 0-1.563 1.156-2.688t2.656-1.125q1.563 0 2.688 1.125t1.125 2.688q0 1.5-1.125 2.656t-2.687 1.156m8.375 0q-1.5 0-2.657-1.156-1.156-1.156-1.156-2.656 0-1.563 1.156-2.688t2.656-1.125q1.563 0 2.688 1.125t1.125 2.688q0 1.5-1.125 2.656t-2.687 1.156"/><path d="M261.094 35q-.75 0-1.328-.578t-.578-1.328q0-.781.578-1.344.578-.562 1.328-.562.781 0 1.344.562.562.563.562 1.344 0 .75-.562 1.328t-1.344.578m0-32.312q-.75 0-1.328-.579-.578-.578-.578-1.328 0-.78.578-1.344.578-.562 1.328-.562.781 0 1.344.562Q263 0 263 .781q0 .75-.562 1.328t-1.344.578m-16.188 16.125q-.75 0-1.328-.579-.578-.578-.578-1.328 0-.78.578-1.343t1.328-.563q.781 0 1.344.563t.563 1.343q0 .75-.563 1.328t-1.344.578m32.313 0q-.75 0-1.328-.579-.578-.578-.578-1.328 0-.78.578-1.343t1.328-.563q.781 0 1.344.563.562.562.562 1.343 0 .75-.562 1.328t-1.344.578m-11.125 15.375q-.75 0-1.328-.579-.578-.578-.578-1.328 0-.78.578-1.343t1.328-.563q.781 0 1.344.563.562.562.562 1.343 0 .75-.562 1.328t-1.344.578M256.156 3.5q-.75 0-1.328-.578t-.578-1.328q0-.781.578-1.344t1.328-.563q.781 0 1.344.563t.563 1.344q0 .75-.563 1.328t-1.344.578M245.72 23.75q-.75 0-1.328-.578t-.578-1.328q0-.781.578-1.344.578-.562 1.328-.562.781 0 1.344.562.562.563.562 1.344 0 .75-.562 1.328t-1.344.578m30.687-9.937q-.75 0-1.328-.579-.578-.578-.578-1.328 0-.78.578-1.343t1.328-.563q.781 0 1.344.563t.563 1.343q0 .75-.563 1.328t-1.344.579m-20.25 20.374q-.75 0-1.328-.578t-.578-1.328q0-.78.578-1.343t1.328-.563q.781 0 1.344.563t.563 1.343q0 .75-.563 1.328t-1.344.578M266.094 3.5q-.75 0-1.328-.578t-.578-1.328q0-.781.578-1.344t1.328-.563q.781 0 1.344.563.562.562.562 1.344 0 .75-.562 1.328t-1.344.578m-20.375 10.313q-.75 0-1.328-.579-.578-.578-.578-1.328 0-.78.578-1.343t1.328-.563q.781 0 1.344.563.562.562.562 1.343 0 .75-.562 1.328t-1.344.579m30.687 9.937q-.75 0-1.328-.578t-.578-1.328q0-.781.578-1.344.578-.562 1.328-.562.781 0 1.344.562t.563 1.344q0 .75-.563 1.328t-1.344.578m-5.812 8.188q-.75 0-1.328-.579-.578-.578-.578-1.328 0-.78.578-1.343t1.328-.563q.781 0 1.344.563.562.562.562 1.343 0 .75-.562 1.328t-1.344.578M251.656 5.813q-.75 0-1.328-.579-.578-.578-.578-1.328 0-.78.578-1.344.578-.562 1.328-.562.781 0 1.344.563t.563 1.343q0 .75-.563 1.328t-1.344.578M247.97 28.25q-.75 0-1.328-.578t-.578-1.328q0-.781.578-1.344.578-.562 1.328-.562.781 0 1.344.562.562.563.562 1.344 0 .75-.562 1.328t-1.344.578m26.125-18.937q-.75 0-1.328-.579-.578-.578-.578-1.328 0-.78.578-1.343t1.328-.563q.781 0 1.344.563.562.562.562 1.343 0 .75-.562 1.328t-1.344.579m-22.438 22.624q-.75 0-1.328-.578t-.578-1.328q0-.78.578-1.343t1.328-.563q.781 0 1.344.563t.563 1.343q0 .75-.563 1.328t-1.344.578m18.938-26.124q-.75 0-1.328-.579-.578-.578-.578-1.328 0-.78.578-1.344.578-.562 1.328-.562.781 0 1.344.563.562.562.562 1.343 0 .75-.562 1.328t-1.344.578m-22.625 3.5q-.75 0-1.328-.579-.578-.578-.578-1.328 0-.78.578-1.343t1.328-.563q.781 0 1.344.563.562.562.562 1.343 0 .75-.562 1.328t-1.344.579m26.125 18.937q-.75 0-1.328-.578t-.578-1.328q0-.781.578-1.344.578-.562 1.328-.562.781 0 1.344.562.562.563.562 1.344 0 .75-.562 1.328t-1.344.578"/><path fill="#902900" fill-opacity=".902" d="M236.688 21.125q-1.5 0-2.657-1.156-1.156-1.156-1.156-2.656 0-1.563 1.156-2.688t2.656-1.125q1.563 0 2.688 1.125t1.125 2.688q0 1.5-1.125 2.656t-2.687 1.156"/><path d="M322.094 35q-.75 0-1.328-.578t-.578-1.328q0-.781.578-1.344.578-.562 1.328-.562.781 0 1.344.562.562.563.562 1.344 0 .75-.562 1.328t-1.344.578m0-32.312q-.75 0-1.328-.579-.578-.578-.578-1.328 0-.78.578-1.344.578-.562 1.328-.562.781 0 1.344.562Q324 0 324 .781q0 .75-.562 1.328t-1.344.578m-16.188 16.125q-.75 0-1.328-.579-.578-.578-.578-1.328 0-.78.578-1.343t1.328-.563q.781 0 1.344.563t.563 1.343q0 .75-.563 1.328t-1.344.578m32.313 0q-.75 0-1.328-.579-.578-.578-.578-1.328 0-.78.578-1.343t1.328-.563q.781 0 1.344.563.562.562.562 1.343 0 .75-.562 1.328t-1.344.578m-11.125 15.375q-.75 0-1.328-.579-.578-.578-.578-1.328 0-.78.578-1.343t1.328-.563q.781 0 1.344.563.562.562.562 1.343 0 .75-.562 1.328t-1.344.578M317.156 3.5q-.75 0-1.328-.578t-.578-1.328q0-.781.578-1.344t1.328-.563q.781 0 1.344.563t.563 1.344q0 .75-.563 1.328t-1.344.578M306.72 23.75q-.75 0-1.328-.578t-.578-1.328q0-.781.578-1.344.578-.562 1.328-.562.781 0 1.344.562.562.563.562 1.344 0 .75-.562 1.328t-1.344.578m30.687-9.937q-.75 0-1.328-.579-.578-.578-.578-1.328 0-.78.578-1.343t1.328-.563q.781 0 1.344.563t.563 1.343q0 .75-.563 1.328t-1.344.579m-20.25 20.374q-.75 0-1.328-.578t-.578-1.328q0-.78.578-1.343t1.328-.563q.781 0 1.344.563t.563 1.343q0 .75-.563 1.328t-1.344.578M327.094 3.5q-.75 0-1.328-.578t-.578-1.328q0-.781.578-1.344t1.328-.563q.781 0 1.344.563.562.562.562 1.344 0 .75-.562 1.328t-1.344.578m-20.375 10.313q-.75 0-1.328-.579-.578-.578-.578-1.328 0-.78.578-1.343t1.328-.563q.781 0 1.344.563.562.562.562 1.343 0 .75-.562 1.328t-1.344.579m30.687 9.937q-.75 0-1.328-.578t-.578-1.328q0-.781.578-1.344.578-.562 1.328-.562.781 0 1.344.562t.563 1.344q0 .75-.563 1.328t-1.344.578m-5.812 8.188q-.75 0-1.328-.579-.578-.578-.578-1.328 0-.78.578-1.343t1.328-.563q.781 0 1.344.563.562.562.562 1.343 0 .75-.562 1.328t-1.344.578M312.656 5.813q-.75 0-1.328-.579-.578-.578-.578-1.328 0-.78.578-1.344.578-.562 1.328-.562.781 0 1.344.563t.563 1.343q0 .75-.563 1.328t-1.344.578M308.97 28.25q-.75 0-1.328-.578t-.578-1.328q0-.781.578-1.344.578-.562 1.328-.562.781 0 1.344.562.562.563.562 1.344 0 .75-.562 1.328t-1.344.578m26.125-18.937q-.75 0-1.328-.579-.578-.578-.578-1.328 0-.78.578-1.343t1.328-.563q.781 0 1.344.563.562.562.562 1.343 0 .75-.562 1.328t-1.344.579m-22.438 22.624q-.75 0-1.328-.578t-.578-1.328q0-.78.578-1.343t1.328-.563q.781 0 1.344.563t.563 1.343q0 .75-.563 1.328t-1.344.578m18.938-26.124q-.75 0-1.328-.579-.578-.578-.578-1.328 0-.78.578-1.344.578-.562 1.328-.562.781 0 1.344.563.562.562.562 1.343 0 .75-.562 1.328t-1.344.578m-22.625 3.5q-.75 0-1.328-.579-.578-.578-.578-1.328 0-.78.578-1.343t1.328-.563q.781 0 1.344.563.562.562.562 1.343 0 .75-.562 1.328t-1.344.579m26.125 18.937q-.75 0-1.328-.578t-.578-1.328q0-.781.578-1.344.578-.562 1.328-.562.781 0 1.344.562.562.563.562 1.344 0 .75-.562 1.328t-1.344.578"/><path fill="#902900" fill-opacity=".902" d="M297.688 25.125q-1.5 0-2.657-1.156-1.156-1.156-1.156-2.656 0-1.563 1.156-2.688t2.656-1.125q1.563 0 2.688 1.125t1.125 2.688q0 1.5-1.125 2.656t-2.687 1.156m0-8.375q-1.5 0-2.657-1.156-1.156-1.156-1.156-2.656 0-1.563 1.156-2.688t2.656-1.125q1.563 0 2.688 1.125t1.125 2.688q0 1.5-1.125 2.656t-2.687 1.156"/></svg>