<?xml version='1.0' encoding='ASCII'?>
<svg xmlns="http://www.w3.org/2000/svg" width="235" height="63" preserveAspectRatio="xMinYMin slice" viewBox="-3 -12 235 63" version="1.1">
  <path d="M-3,-12 v63 h235 v-63 Z" fill="#000000" transform="matrix(1,0,0,-1,0,39)"/>
  <path d="M4.6875,0.875 q-1.5,0 -2.6562,1.1562 q-1.1562,1.1562 -1.1562,2.6562 q0,1.5625 1.1562,2.6875 q1.1562,1.125 2.6562,1.125 q1.5625,0 2.6875,-1.125 q1.125,-1.125 1.125,-2.6875 q0,-1.5 -1.125,-2.6562 q-1.125,-1.1562 -2.6875,-1.1562 Z" fill="#E22E00" transform="matrix(1,0,0,-1,-2,26)"/>
  <path d="M16.25,-3.5625 q-3.25,-0.125 -6.375,0.3125 q-3.125,0.4375 -5.5938,1.375 q-2.4688,0.9375 -3.9062,2.375 q-0.625,0.6875 -0.1875,1.0625 q0.4375,0.375 0.9375,0.375 q0.6875,0 1.6875,0.6875 q1,0.6875 1.9375,1.6562 q0.9375,0.9688 1.3125,1.6562 q0.3125,0.5 0.9062,0.3125 q0.5938,-0.1875 1.0938,-0.5 q0.0625,-0.0625 0.125,-0.0625 q1.9375,-1.125 4.1875,-1.5938 q2.25,-0.4688 4.4375,-0.5312 q2.1875,-0.0625 3.9688,0.125 q1.7812,0.1875 2.7812,0.375 q0.75,0.125 0.7188,0.6875 q-0.0312,0.5625 -0.6562,0.4375 q-4.4375,-0.8125 -8.2188,-0.5 q-3.7812,0.3125 -6.0312,2.3438 q-2.25,2.0312 -2.25,6.3438 q0,3.25 1.5,5.9062 q1.5,2.6562 3.9688,4.2812 q2.4688,1.625 5.4688,1.625 q2.625,0 4.8125,-1.4062 q2.1875,-1.4062 3.8438,-3.6562 q1.6562,-2.25 2.7812,-4.8438 q1.125,-2.5938 1.7188,-5.0312 q0.5938,-2.4375 0.5938,-4.125 q0,-1.375 -0.2188,-2.5312 q-0.2188,-1.1562 -0.9062,-2.0938 q-1.1875,-1.75 -3.6875,-2.8438 q-2.5,-1.0938 -5.375,-1.5938 q-2.875,-0.5 -5.375,-0.625 Z M17.3125,15.1875 q0.75,0 0.75,0.8125 q0,0.3125 -0.2188,0.5312 q-0.2188,0.2188 -0.5312,0.2188 q-0.8125,0 -0.8125,-0.75 q0,-0.8125 0.8125,-0.8125 Z" fill="#D3D3D3" transform="matrix(1,0,0,-1,-1,39)"/>
  <path d="" fill="#D3D3D3" transform="matrix(1,0,0,-1,31,39)"/>
  <path d="M4.6875,0.875 q-1.5,0 -2.6562,1.1562 q-1.1562,1.1562 -1.1562,2.6562 q0,1.5625 1.1562,2.6875 q1.1562,1.125 2.6562,1.125 q1.5625,0 2.6875,-1.125 q1.125,-1.125 1.125,-2.6875 q0,-1.5 -1.125,-2.6562 q-1.125,-1.1562 -2.6875,-1.1562 Z" fill="#E22E00" transform="matrix(1,0,0,-1,47,5)"/>
  <path d="M19.4375,-3 q-3.8125,0.0625 -7.2812,1.1875 q-3.4688,1.125 -6.1875,3.4375 q-2.7188,2.3125 -4.3125,5.9688 q-1.5938,3.6562 -1.6562,8.7812 q0,2.625 -0.0625,5.7812 q-0.0625,3.1562 -0.1562,6.4062 q-0.0938,3.25 -0.25,6.1562 q-0.1562,2.9062 -0.3438,4.9062 q-0.1875,1.4375 -0.3125,2.3125 q-0.125,0.875 0.3125,1.1875 q0.6875,0.4375 1.6562,1.2812 q0.9688,0.8438 1.8438,1.8438 q0.875,1 1.25,1.8125 q0.3125,0.6875 0.7812,0.6875 q0.4688,0 0.6562,-1.25 q0.3125,-2.25 0.375,-5.375 q0.0625,-3.125 0.0625,-6.6875 q0,-3.5625 0,-7.1562 q0,-3.5938 0.1875,-6.7188 q0.1875,-3.4375 1.3125,-6.25 q1.125,-2.8125 3.0938,-4.9062 q1.9688,-2.0938 4.5312,-3.4688 q3.25,-1.6875 7.3125,-2.1875 q4.0625,-0.5 8.625,0.3125 q4.5625,0.8125 9.25,2.875 q0.5625,0.3125 0.8438,0.125 q0.2812,-0.1875 0.0312,-0.75 q-2.3125,-5.125 -7.9688,-7.75 q-5.6562,-2.625 -13.5938,-2.5625 Z" fill="#D3D3D3" transform="matrix(1,0,0,-1,56,39)"/>
  <path d="" fill="#D3D3D3" transform="matrix(1,0,0,-1,97,39)"/>
  <path d="M4.6875,0.875 q-1.5,0 -2.6562,1.1562 q-1.1562,1.1562 -1.1562,2.6562 q0,1.5625 1.1562,2.6875 q1.1562,1.125 2.6562,1.125 q1.5625,0 2.6875,-1.125 q1.125,-1.125 1.125,-2.6875 q0,-1.5 -1.125,-2.6562 q-1.125,-1.1562 -2.6875,-1.1562 Z" fill="#E22E00" transform="matrix(1,0,0,-1,141,50)"/>
  <path d="M19.4375,-3 q-3.8125,0.0625 -7.2812,1.1875 q-3.4688,1.125 -6.1875,3.4375 q-2.7188,2.3125 -4.3125,5.9688 q-1.5938,3.6562 -1.6562,8.7812 q0,2.625 -0.0625,5.7812 q-0.0625,3.1562 -0.1562,6.4062 q-0.0938,3.25 -0.25,6.1562 q-0.1562,2.9062 -0.3438,4.9062 q-0.1875,1.4375 -0.3125,2.3125 q-0.125,0.875 0.3125,1.1875 q0.6875,0.4375 1.6562,1.2812 q0.9688,0.8438 1.8438,1.8438 q0.875,1 1.25,1.8125 q0.3125,0.6875 0.7812,0.6875 q0.4688,0 0.6562,-1.25 q0.3125,-2.25 0.375,-5.375 q0.0625,-3.125 0.0625,-6.6875 q0,-3.5625 0,-7.1562 q0,-3.5938 0.1875,-6.7188 q0.1875,-3.4375 1.3125,-6.25 q1.125,-2.8125 3.0938,-4.9062 q1.9688,-2.0938 4.5312,-3.4688 q3.25,-1.6875 7.3125,-2.1875 q4.0625,-0.5 8.625,0.3125 q4.5625,0.8125 9.25,2.875 q0.5625,0.3125 0.8438,0.125 q0.2812,-0.1875 0.0312,-0.75 q-2.3125,-5.125 -7.9688,-7.75 q-5.6562,-2.625 -13.5938,-2.5625 Z" fill="#D3D3D3" transform="matrix(1,0,0,-1,122,39)"/>
  <path d="" fill="#D3D3D3" transform="matrix(1,0,0,-1,163,39)"/>
  <path d="M4.6875,0.875 q-1.5,0 -2.6562,1.1562 q-1.1562,1.1562 -1.1562,2.6562 q0,1.5625 1.1562,2.6875 q1.1562,1.125 2.6562,1.125 q1.5625,0 2.6875,-1.125 q1.125,-1.125 1.125,-2.6875 q0,-1.5 -1.125,-2.6562 q-1.125,-1.1562 -2.6875,-1.1562 Z" fill="#E22E00" transform="matrix(1,0,0,-1,193,5)"/>
  <path d="M19.4375,-3 q-3.8125,0.0625 -7.2812,1.1875 q-3.4688,1.125 -6.1875,3.4375 q-2.7188,2.3125 -4.3125,5.9688 q-1.5938,3.6562 -1.6562,8.7812 q0,2.625 -0.0625,5.7812 q-0.0625,3.1562 -0.1562,6.4062 q-0.0938,3.25 -0.25,6.1562 q-0.1562,2.9062 -0.3438,4.9062 q-0.1875,1.4375 -0.3125,2.3125 q-0.125,0.875 0.3125,1.1875 q0.6875,0.4375 1.6562,1.2812 q0.9688,0.8438 1.8438,1.8438 q0.875,1 1.25,1.8125 q0.3125,0.6875 0.7812,0.6875 q0.4688,0 0.6562,-1.25 q0.3125,-2.25 0.375,-5.375 q0.0625,-3.125 0.0625,-6.6875 q0,-3.5625 0,-7.1562 q0,-3.5938 0.1875,-6.7188 q0.1875,-3.4375 1.3125,-6.25 q1.125,-2.8125 3.0938,-4.9062 q1.9688,-2.0938 4.5312,-3.4688 q3.25,-1.6875 7.3125,-2.1875 q4.0625,-0.5 8.625,0.3125 q4.5625,0.8125 9.25,2.875 q0.5625,0.3125 0.8438,0.125 q0.2812,-0.1875 0.0312,-0.75 q-2.3125,-5.125 -7.9688,-7.75 q-5.6562,-2.625 -13.5938,-2.5625 Z" fill="#D3D3D3" transform="matrix(1,0,0,-1,188,39)"/>
</svg>
