<svg xmlns="http://www.w3.org/2000/svg" width="235" height="63" preserveAspectRatio="xMinYMin slice" viewBox="-3 -12 235 63"><path fill="#fffaed" d="M-3 51v-63h235v63Z"/><path fill="#902900" fill-opacity=".902" d="M2.688 25.125q-1.5 0-2.657-1.156-1.156-1.156-1.156-2.656 0-1.563 1.156-2.688T2.688 17.5q1.562 0 2.687 1.125T6.5 21.313q0 1.5-1.125 2.656t-2.687 1.156"/><path d="M15.25 42.563q-3.25.124-6.375-.313t-5.594-1.375T-.625 38.5q-.625-.687-.187-1.062.437-.376.937-.376.688 0 1.688-.687t1.937-1.656 1.313-1.656q.312-.5.906-.313.593.188 1.094.5.062.063.125.063 1.937 1.125 4.187 1.593 2.25.47 4.438.532t3.968-.125q1.782-.188 2.782-.375.75-.125.718-.688-.03-.562-.656-.437-4.437.812-8.219.5-3.78-.313-6.03-2.344t-2.25-6.344q0-3.25 1.5-5.906t3.968-4.281 5.469-1.625q2.625 0 4.812 1.406t3.844 3.656 2.781 4.844 1.719 5.031.594 4.125q0 1.375-.219 2.531t-.906 2.094Q28.5 39.25 26 40.344t-5.375 1.594-5.375.625m1.063-18.75q.75 0 .75-.813 0-.312-.22-.531-.218-.219-.53-.219-.813 0-.813.75 0 .813.813.813"/><path fill="#902900" fill-opacity=".902" d="M51.688 4.125q-1.5 0-2.657-1.156-1.156-1.156-1.156-2.656 0-1.563 1.156-2.688Q50.188-3.5 51.688-3.5q1.562 0 2.687 1.125T55.5.313q0 1.5-1.125 2.656t-2.687 1.156"/><path d="M75.438 42q-3.813-.062-7.282-1.187t-6.187-3.438-4.313-5.969T56 22.625q0-2.625-.062-5.781-.063-3.156-.157-6.406-.093-3.25-.25-6.157-.156-2.906-.343-4.906-.188-1.437-.313-2.312t.313-1.188q.687-.437 1.656-1.281t1.844-1.844 1.25-1.812q.312-.688.78-.688.47 0 .657 1.25.313 2.25.375 5.375.063 3.125.063 6.688v7.156q0 3.594.187 6.719.188 3.437 1.313 6.25 1.124 2.812 3.093 4.906 1.97 2.094 4.531 3.469 3.25 1.687 7.313 2.187t8.625-.312 9.25-2.875q.563-.313.844-.125.281.187.031.75-2.312 5.125-7.969 7.75Q83.375 42.063 75.437 42Z"/><path fill="#902900" fill-opacity=".902" d="M145.688 49.125q-1.5 0-2.657-1.156-1.156-1.156-1.156-2.656 0-1.563 1.156-2.688t2.656-1.125q1.563 0 2.688 1.125t1.125 2.688q0 1.5-1.125 2.656t-2.687 1.156"/><path d="M141.438 42q-3.813-.062-7.282-1.187t-6.187-3.438-4.313-5.969T122 22.625q0-2.625-.062-5.781-.063-3.156-.157-6.406-.093-3.25-.25-6.157-.156-2.906-.343-4.906-.188-1.437-.313-2.312t.313-1.188q.687-.437 1.656-1.281t1.844-1.844 1.25-1.812q.312-.688.78-.688.47 0 .657 1.25.312 2.25.375 5.375.062 3.125.062 6.688v7.156q0 3.594.188 6.719.187 3.437 1.312 6.25 1.125 2.812 3.094 4.906 1.97 2.094 4.531 3.469 3.25 1.687 7.313 2.187t8.625-.312 9.25-2.875q.563-.313.844-.125.281.187.031.75-2.312 5.125-7.969 7.75-5.656 2.625-13.594 2.562Z"/><path fill="#902900" fill-opacity=".902" d="M197.688 4.125q-1.5 0-2.657-1.156-1.156-1.156-1.156-2.656 0-1.563 1.156-2.688t2.656-1.125q1.563 0 2.688 1.125T201.5.313q0 1.5-1.125 2.656t-2.687 1.156"/><path d="M207.438 42q-3.813-.062-7.282-1.187t-6.187-3.438-4.313-5.969T188 22.625q0-2.625-.062-5.781-.063-3.156-.157-6.406-.093-3.25-.25-6.157-.156-2.906-.343-4.906-.188-1.437-.313-2.312t.313-1.188q.687-.437 1.656-1.281t1.844-1.844 1.25-1.812q.312-.688.78-.688.47 0 .657 1.25.313 2.25.375 5.375.063 3.125.063 6.688v7.156q0 3.594.187 6.719.188 3.437 1.313 6.25 1.125 2.812 3.093 4.906 1.97 2.094 4.531 3.469 3.25 1.687 7.313 2.187t8.625-.312 9.25-2.875q.563-.313.844-.125.281.187.031.75-2.312 5.125-7.969 7.75-5.656 2.625-13.594 2.562Z"/></svg>