<?xml version='1.0' encoding='ASCII'?>
<svg xmlns="http://www.w3.org/2000/svg" width="283" height="64" preserveAspectRatio="xMinYMin slice" viewBox="-11 -11 283 64" version="1.1">
  <path d="M-11,-11 v64 h283 v-64 Z" fill="#000000" transform="matrix(1,0,0,-1,0,42)"/>
  <path d="M4.6875,0.875 q-1.5,0 -2.6562,1.1562 q-1.1562,1.1562 -1.1562,2.6562 q0,1.5625 1.1562,2.6875 q1.1562,1.125 2.6562,1.125 q1.5625,0 2.6875,-1.125 q1.125,-1.125 1.125,-2.6875 q0,-1.5 -1.125,-2.6562 q-1.125,-1.1562 -2.6875,-1.1562 Z" fill="#E22E00" transform="matrix(1,0,0,-1,-10,45)"/>
  <path d="M2,-1.8125 q-1.8125,0.3125 -1.9688,1.125 q-0.1562,0.8125 0.4688,1.75 q0.625,0.9375 1.125,1.5 q0.25,0.25 0.3125,0.375 q3.125,4 5.5938,7.3125 q2.4688,3.3125 4.2812,6.375 q-2.625,3.5625 -5.0938,7.5 q-2.4688,3.9375 -4.6562,7.9062 q-2.1875,3.9688 -3.875,7.5312 q-0.25,0.5 -0.25,0.9688 q0,0.4688 0.5625,0.9062 q1.1875,0.9375 2.25,2.0312 q1.0625,1.0938 1.8125,3.0312 q0.25,0.5625 0.625,0.5938 q0.375,0.0312 0.625,-0.6562 q2.9375,-6.5625 5.875,-11.875 q2.9375,-5.3125 5.8125,-9.5625 q1.0625,3.5625 1.4062,7.7188 q0.3438,4.1562 0.0938,9.5312 q-0.0625,0.8125 0.0312,1.3438 q0.0938,0.5312 0.4688,0.7812 q1.3125,0.875 2.4688,2.3125 q1.1562,1.4375 1.4688,2.625 q0.3125,1.25 0.8438,1.125 q0.5312,-0.125 0.5938,-1.3125 q0.25,-7.5625 -0.6875,-15.1562 q-0.9375,-7.5938 -2.9375,-14.1562 q3.375,-4.4375 6.5312,-7.7188 q3.1562,-3.2812 5.9688,-5.7188 q2.5,-2.1875 2.0938,-3.875 q-0.4062,-1.6875 -2.5938,-2.625 q-2.5625,-1.125 -5.875,-1.7188 q-3.3125,-0.5938 -6.8125,-0.75 q-3.5,-0.1562 -6.75,-0.0625 q-3.25,0.0938 -5.8125,0.3438 q-2.5625,0.25 -4,0.5 Z M17.25,6.6875 q0.75,0 0.75,0.8125 q0,0.3125 -0.2188,0.5312 q-0.2188,0.2188 -0.5312,0.2188 q-0.8125,0 -0.8125,-0.75 q0,-0.8125 0.8125,-0.8125 Z" fill="#D3D3D3" transform="matrix(1,0,0,-1,-1,42)"/>
  <path d="" fill="#D3D3D3" transform="matrix(1,0,0,-1,33,42)"/>
  <path d="M4.6875,0.875 q-1.5,0 -2.6562,1.1562 q-1.1562,1.1562 -1.1562,2.6562 q0,1.5625 1.1562,2.6875 q1.1562,1.125 2.6562,1.125 q1.5625,0 2.6875,-1.125 q1.125,-1.125 1.125,-2.6875 q0,-1.5 -1.125,-2.6562 q-1.125,-1.1562 -2.6875,-1.1562 Z" fill="#E22E00" transform="matrix(1,0,0,-1,80,5)"/>
  <path d="M4.6875,0.875 q-1.5,0 -2.6562,1.1562 q-1.1562,1.1562 -1.1562,2.6562 q0,1.5625 1.1562,2.6875 q1.1562,1.125 2.6562,1.125 q1.5625,0 2.6875,-1.125 q1.125,-1.125 1.125,-2.6875 q0,-1.5 -1.125,-2.6562 q-1.125,-1.1562 -2.6875,-1.1562 Z" fill="#E22E00" transform="matrix(1,0,0,-1,83,52)"/>
  <path d="M2,-1.8125 q-1.8125,0.3125 -1.9688,1.125 q-0.1562,0.8125 0.4688,1.75 q0.625,0.9375 1.125,1.5 q0.25,0.25 0.3125,0.375 q3.125,4 5.5938,7.3125 q2.4688,3.3125 4.2812,6.375 q-2.625,3.5625 -5.0938,7.5 q-2.4688,3.9375 -4.6562,7.9062 q-2.1875,3.9688 -3.875,7.5312 q-0.25,0.5 -0.25,0.9688 q0,0.4688 0.5625,0.9062 q1.1875,0.9375 2.25,2.0312 q1.0625,1.0938 1.8125,3.0312 q0.25,0.5625 0.625,0.5938 q0.375,0.0312 0.625,-0.6562 q2.9375,-6.5625 5.875,-11.875 q2.9375,-5.3125 5.8125,-9.5625 q1.0625,3.5625 1.4062,7.7188 q0.3438,4.1562 0.0938,9.5312 q-0.0625,0.8125 0.0312,1.3438 q0.0938,0.5312 0.4688,0.7812 q1.3125,0.875 2.4688,2.3125 q1.1562,1.4375 1.4688,2.625 q0.3125,1.25 0.8438,1.125 q0.5312,-0.125 0.5938,-1.3125 q0.25,-7.5625 -0.6875,-15.1562 q-0.9375,-7.5938 -2.9375,-14.1562 q3.375,-4.4375 6.5312,-7.7188 q3.1562,-3.2812 5.9688,-5.7188 q2.5,-2.1875 2.0938,-3.875 q-0.4062,-1.6875 -2.5938,-2.625 q-2.5625,-1.125 -5.875,-1.7188 q-3.3125,-0.5938 -6.8125,-0.75 q-3.5,-0.1562 -6.75,-0.0625 q-3.25,0.0938 -5.8125,0.3438 q-2.5625,0.25 -4,0.5 Z M17.25,6.6875 q0.75,0 0.75,0.8125 q0,0.3125 -0.2188,0.5312 q-0.2188,0.2188 -0.5312,0.2188 q-0.8125,0 -0.8125,-0.75 q0,-0.8125 0.8125,-0.8125 Z" fill="#D3D3D3" transform="matrix(1,0,0,-1,58,42)"/>
  <path d="" fill="#D3D3D3" transform="matrix(1,0,0,-1,92,42)"/>
  <path d="M4.6875,0.875 q-1.5,0 -2.6562,1.1562 q-1.1562,1.1562 -1.1562,2.6562 q0,1.5625 1.1562,2.6875 q1.1562,1.125 2.6562,1.125 q1.5625,0 2.6875,-1.125 q1.125,-1.125 1.125,-2.6875 q0,-1.5 -1.125,-2.6562 q-1.125,-1.1562 -2.6875,-1.1562 Z" fill="#E22E00" transform="matrix(1,0,0,-1,118,52)"/>
  <path d="M2,-1.8125 q-1.8125,0.3125 -1.9688,1.125 q-0.1562,0.8125 0.4688,1.75 q0.625,0.9375 1.125,1.5 q0.25,0.25 0.3125,0.375 q3.125,4 5.5938,7.3125 q2.4688,3.3125 4.2812,6.375 q-2.625,3.5625 -5.0938,7.5 q-2.4688,3.9375 -4.6562,7.9062 q-2.1875,3.9688 -3.875,7.5312 q-0.25,0.5 -0.25,0.9688 q0,0.4688 0.5625,0.9062 q1.1875,0.9375 2.25,2.0312 q1.0625,1.0938 1.8125,3.0312 q0.25,0.5625 0.625,0.5938 q0.375,0.0312 0.625,-0.6562 q2.9375,-6.5625 5.875,-11.875 q2.9375,-5.3125 5.8125,-9.5625 q1.0625,3.5625 1.4062,7.7188 q0.3438,4.1562 0.0938,9.5312 q-0.0625,0.8125 0.0312,1.3438 q0.0938,0.5312 0.4688,0.7812 q1.3125,0.875 2.4688,2.3125 q1.1562,1.4375 1.4688,2.625 q0.3125,1.25 0.8438,1.125 q0.5312,-0.125 0.5938,-1.3125 q0.25,-7.5625 -0.6875,-15.1562 q-0.9375,-7.5938 -2.9375,-14.1562 q3.375,-4.4375 6.5312,-7.7188 q3.1562,-3.2812 5.9688,-5.7188 q2.5,-2.1875 2.0938,-3.875 q-0.4062,-1.6875 -2.5938,-2.625 q-2.5625,-1.125 -5.875,-1.7188 q-3.3125,-0.5938 -6.8125,-0.75 q-3.5,-0.1562 -6.75,-0.0625 q-3.25,0.0938 -5.8125,0.3438 q-2.5625,0.25 -4,0.5 Z M17.25,6.6875 q0.75,0 0.75,0.8125 q0,0.3125 -0.2188,0.5312 q-0.2188,0.2188 -0.5312,0.2188 q-0.8125,0 -0.8125,-0.75 q0,-0.8125 0.8125,-0.8125 Z" fill="#D3D3D3" transform="matrix(1,0,0,-1,117,42)"/>
  <path d="" fill="#D3D3D3" transform="matrix(1,0,0,-1,151,42)"/>
  <path d="M4.6875,0.875 q-1.5,0 -2.6562,1.1562 q-1.1562,1.1562 -1.1562,2.6562 q0,1.5625 1.1562,2.6875 q1.1562,1.125 2.6562,1.125 q1.5625,0 2.6875,-1.125 q1.125,-1.125 1.125,-2.6875 q0,-1.5 -1.125,-2.6562 q-1.125,-1.1562 -2.6875,-1.1562 Z" fill="#E22E00" transform="matrix(1,0,0,-1,166,7)"/>
  <path d="M2,-1.8125 q-1.8125,0.3125 -1.9688,1.125 q-0.1562,0.8125 0.4688,1.75 q0.625,0.9375 1.125,1.5 q0.25,0.25 0.3125,0.375 q3.125,4 5.5938,7.3125 q2.4688,3.3125 4.2812,6.375 q-2.625,3.5625 -5.0938,7.5 q-2.4688,3.9375 -4.6562,7.9062 q-2.1875,3.9688 -3.875,7.5312 q-0.25,0.5 -0.25,0.9688 q0,0.4688 0.5625,0.9062 q1.1875,0.9375 2.25,2.0312 q1.0625,1.0938 1.8125,3.0312 q0.25,0.5625 0.625,0.5938 q0.375,0.0312 0.625,-0.6562 q2.9375,-6.5625 5.875,-11.875 q2.9375,-5.3125 5.8125,-9.5625 q1.0625,3.5625 1.4062,7.7188 q0.3438,4.1562 0.0938,9.5312 q-0.0625,0.8125 0.0312,1.3438 q0.0938,0.5312 0.4688,0.7812 q1.3125,0.875 2.4688,2.3125 q1.1562,1.4375 1.4688,2.625 q0.3125,1.25 0.8438,1.125 q0.5312,-0.125 0.5938,-1.3125 q0.25,-7.5625 -0.6875,-15.1562 q-0.9375,-7.5938 -2.9375,-14.1562 q3.375,-4.4375 6.5312,-7.7188 q3.1562,-3.2812 5.9688,-5.7188 q2.5,-2.1875 2.0938,-3.875 q-0.4062,-1.6875 -2.5938,-2.625 q-2.5625,-1.125 -5.875,-1.7188 q-3.3125,-0.5938 -6.8125,-0.75 q-3.5,-0.1562 -6.75,-0.0625 q-3.25,0.0938 -5.8125,0.3438 q-2.5625,0.25 -4,0.5 Z M17.25,6.6875 q0.75,0 0.75,0.8125 q0,0.3125 -0.2188,0.5312 q-0.2188,0.2188 -0.5312,0.2188 q-0.8125,0 -0.8125,-0.75 q0,-0.8125 0.8125,-0.8125 Z" fill="#D3D3D3" transform="matrix(1,0,0,-1,176,42)"/>
  <path d="" fill="#D3D3D3" transform="matrix(1,0,0,-1,210,42)"/>
  <path d="M4.6875,0.875 q-1.5,0 -2.6562,1.1562 q-1.1562,1.1562 -1.1562,2.6562 q0,1.5625 1.1562,2.6875 q1.1562,1.125 2.6562,1.125 q1.5625,0 2.6875,-1.125 q1.125,-1.125 1.125,-2.6875 q0,-1.5 -1.125,-2.6562 q-1.125,-1.1562 -2.6875,-1.1562 Z" fill="#E22E00" transform="matrix(1,0,0,-1,257,5)"/>
  <path d="M2,-1.8125 q-1.8125,0.3125 -1.9688,1.125 q-0.1562,0.8125 0.4688,1.75 q0.625,0.9375 1.125,1.5 q0.25,0.25 0.3125,0.375 q3.125,4 5.5938,7.3125 q2.4688,3.3125 4.2812,6.375 q-2.625,3.5625 -5.0938,7.5 q-2.4688,3.9375 -4.6562,7.9062 q-2.1875,3.9688 -3.875,7.5312 q-0.25,0.5 -0.25,0.9688 q0,0.4688 0.5625,0.9062 q1.1875,0.9375 2.25,2.0312 q1.0625,1.0938 1.8125,3.0312 q0.25,0.5625 0.625,0.5938 q0.375,0.0312 0.625,-0.6562 q2.9375,-6.5625 5.875,-11.875 q2.9375,-5.3125 5.8125,-9.5625 q1.0625,3.5625 1.4062,7.7188 q0.3438,4.1562 0.0938,9.5312 q-0.0625,0.8125 0.0312,1.3438 q0.0938,0.5312 0.4688,0.7812 q1.3125,0.875 2.4688,2.3125 q1.1562,1.4375 1.4688,2.625 q0.3125,1.25 0.8438,1.125 q0.5312,-0.125 0.5938,-1.3125 q0.25,-7.5625 -0.6875,-15.1562 q-0.9375,-7.5938 -2.9375,-14.1562 q3.375,-4.4375 6.5312,-7.7188 q3.1562,-3.2812 5.9688,-5.7188 q2.5,-2.1875 2.0938,-3.875 q-0.4062,-1.6875 -2.5938,-2.625 q-2.5625,-1.125 -5.875,-1.7188 q-3.3125,-0.5938 -6.8125,-0.75 q-3.5,-0.1562 -6.75,-0.0625 q-3.25,0.0938 -5.8125,0.3438 q-2.5625,0.25 -4,0.5 Z M17.25,6.6875 q0.75,0 0.75,0.8125 q0,0.3125 -0.2188,0.5312 q-0.2188,0.2188 -0.5312,0.2188 q-0.8125,0 -0.8125,-0.75 q0,-0.8125 0.8125,-0.8125 Z" fill="#D3D3D3" transform="matrix(1,0,0,-1,235,42)"/>
</svg>
