<svg xmlns="http://www.w3.org/2000/svg" width="283" height="64" preserveAspectRatio="xMinYMin slice" viewBox="-11 -11 283 64"><path fill="#fffaed" d="M-11 53v-64h283v64Z"/><path fill="#902900" fill-opacity=".902" d="M-5.312 44.125q-1.5 0-2.657-1.156-1.156-1.156-1.156-2.656 0-1.563 1.156-2.688Q-6.812 36.5-5.312 36.5q1.562 0 2.687 1.125t1.125 2.688q0 1.5-1.125 2.656t-2.687 1.156"/><path d="M1 43.813Q-.812 43.5-.969 42.687q-.156-.812.469-1.75t1.125-1.5q.25-.25.312-.374 3.125-4 5.594-7.313t4.282-6.375q-2.626-3.562-5.094-7.5-2.47-3.937-4.656-7.906Q-1.126 6-2.812 2.438q-.25-.5-.25-.97 0-.468.562-.905Q-1.312-.375-.25-1.47.813-2.563 1.563-4.5q.25-.563.625-.595.374-.03.624.657Q5.75 2.125 8.689 7.438 11.625 12.75 14.5 17q1.063-3.562 1.406-7.719.344-4.156.094-9.53-.062-.813.031-1.345.094-.53.469-.78 1.313-.876 2.469-2.313t1.469-2.625q.312-1.25.843-1.125.532.125.594 1.312.25 7.563-.687 15.156T18.25 22.188q3.375 4.437 6.531 7.718 3.157 3.282 5.97 5.72 2.5 2.187 2.093 3.874-.406 1.688-2.594 2.625-2.562 1.125-5.875 1.719-3.312.594-6.812.75t-6.75.062T5 44.313t-4-.5m15.25-8.5q.75 0 .75-.813 0-.312-.219-.531t-.531-.219q-.812 0-.812.75 0 .813.812.813"/><path fill="#902900" fill-opacity=".902" d="M84.688 4.125q-1.5 0-2.657-1.156-1.156-1.156-1.156-2.656 0-1.563 1.156-2.688T84.687-3.5q1.563 0 2.688 1.125T88.5.313q0 1.5-1.125 2.656t-2.687 1.156m3 47q-1.5 0-2.657-1.156-1.156-1.156-1.156-2.656 0-1.563 1.156-2.688t2.656-1.125q1.563 0 2.688 1.125t1.125 2.688q0 1.5-1.125 2.656t-2.687 1.156"/><path d="M60 43.813q-1.812-.313-1.969-1.126-.156-.812.469-1.75t1.125-1.5q.25-.25.313-.374 3.124-4 5.593-7.313 2.47-3.312 4.281-6.375-2.624-3.562-5.093-7.5-2.47-3.937-4.656-7.906Q57.875 6 56.187 2.438q-.25-.5-.25-.97 0-.468.563-.905 1.188-.938 2.25-2.032 1.063-1.093 1.813-3.03.25-.563.624-.595.376-.03.626.657 2.937 6.562 5.874 11.875Q70.626 12.75 73.5 17q1.063-3.562 1.406-7.719.344-4.156.094-9.53-.062-.813.031-1.345.094-.53.469-.78 1.313-.876 2.469-2.313t1.469-2.625q.312-1.25.843-1.125.532.125.594 1.312.25 7.563-.687 15.156T77.25 22.188q3.375 4.437 6.531 7.718 3.157 3.282 5.97 5.72 2.5 2.187 2.093 3.874-.406 1.688-2.594 2.625-2.562 1.125-5.875 1.719-3.312.594-6.812.75t-6.75.062T64 44.313q-2.562-.25-4-.5m15.25-8.5q.75 0 .75-.813 0-.312-.219-.531t-.531-.219q-.812 0-.812.75 0 .813.812.813"/><path fill="#902900" fill-opacity=".902" d="M122.688 51.125q-1.5 0-2.657-1.156-1.156-1.156-1.156-2.656 0-1.563 1.156-2.688t2.656-1.125q1.563 0 2.688 1.125t1.125 2.688q0 1.5-1.125 2.656t-2.687 1.156"/><path d="M119 43.813q-1.812-.313-1.969-1.126-.156-.812.469-1.75t1.125-1.5q.25-.25.313-.374 3.124-4 5.593-7.313 2.47-3.312 4.281-6.375-2.625-3.562-5.093-7.5-2.47-3.937-4.656-7.906-2.188-3.969-3.876-7.531-.25-.5-.25-.97 0-.468.563-.905 1.188-.938 2.25-2.032 1.063-1.093 1.813-3.03.25-.563.624-.595.376-.03.626.657 2.937 6.562 5.874 11.875Q129.625 12.75 132.5 17q1.063-3.562 1.406-7.719.344-4.156.094-9.53-.062-.813.031-1.345.094-.53.469-.78 1.313-.876 2.469-2.313t1.469-2.625q.312-1.25.843-1.125.532.125.594 1.312.25 7.563-.687 15.156t-2.938 14.157q3.375 4.437 6.531 7.718 3.157 3.282 5.97 5.72 2.5 2.187 2.093 3.874-.406 1.688-2.594 2.625-2.562 1.125-5.875 1.719-3.312.594-6.812.75t-6.75.062-5.813-.343-4-.5m15.25-8.5q.75 0 .75-.813 0-.312-.219-.531t-.531-.219q-.812 0-.812.75 0 .813.812.813"/><path fill="#902900" fill-opacity=".902" d="M170.688 6.125q-1.5 0-2.657-1.156-1.156-1.156-1.156-2.656 0-1.563 1.156-2.688t2.656-1.125q1.563 0 2.688 1.125t1.125 2.688q0 1.5-1.125 2.656t-2.687 1.156"/><path d="M178 43.813q-1.812-.313-1.969-1.126-.156-.812.469-1.75t1.125-1.5q.25-.25.313-.374 3.125-4 5.593-7.313 2.47-3.312 4.281-6.375-2.625-3.562-5.093-7.5-2.47-3.937-4.656-7.906-2.188-3.969-3.875-7.531-.25-.5-.25-.97 0-.468.562-.905 1.188-.938 2.25-2.032 1.063-1.093 1.813-3.03.25-.563.625-.595.375-.03.625.657 2.937 6.562 5.875 11.875Q188.625 12.75 191.5 17q1.063-3.562 1.406-7.719.344-4.156.094-9.53-.062-.813.031-1.345.094-.53.469-.78 1.313-.876 2.469-2.313t1.469-2.625q.312-1.25.843-1.125.532.125.594 1.312.25 7.563-.687 15.156t-2.938 14.157q3.375 4.437 6.531 7.718 3.157 3.282 5.97 5.72 2.5 2.187 2.093 3.874-.406 1.688-2.594 2.625-2.562 1.125-5.875 1.719-3.312.594-6.812.75t-6.75.062-5.813-.343-4-.5m15.25-8.5q.75 0 .75-.813 0-.312-.219-.531t-.531-.219q-.812 0-.812.75 0 .813.812.813"/><path fill="#902900" fill-opacity=".902" d="M261.688 4.125q-1.5 0-2.657-1.156-1.156-1.156-1.156-2.656 0-1.563 1.156-2.688t2.656-1.125q1.563 0 2.688 1.125T265.5.313q0 1.5-1.125 2.656t-2.687 1.156"/><path d="M237 43.813q-1.812-.313-1.969-1.126-.156-.812.469-1.75t1.125-1.5q.25-.25.313-.374 3.125-4 5.593-7.313 2.47-3.312 4.281-6.375-2.625-3.562-5.093-7.5-2.47-3.937-4.656-7.906-2.188-3.969-3.875-7.531-.25-.5-.25-.97 0-.468.562-.905 1.188-.938 2.25-2.032 1.063-1.093 1.813-3.03.25-.563.625-.595.375-.03.625.657 2.937 6.562 5.875 11.875Q247.625 12.75 250.5 17q1.063-3.562 1.406-7.719.344-4.156.094-9.53-.062-.813.031-1.345.094-.53.469-.78 1.313-.876 2.469-2.313t1.469-2.625q.312-1.25.843-1.125.532.125.594 1.312.25 7.563-.687 15.156t-2.938 14.157q3.375 4.437 6.531 7.718 3.157 3.282 5.97 5.72 2.5 2.187 2.093 3.874-.406 1.688-2.594 2.625-2.562 1.125-5.875 1.719-3.312.594-6.812.75t-6.75.062-5.813-.343-4-.5m15.25-8.5q.75 0 .75-.813 0-.312-.219-.531t-.531-.219q-.812 0-.812.75 0 .813.812.813"/></svg>