<?xml version='1.0' encoding='ASCII'?>
<svg xmlns="http://www.w3.org/2000/svg" width="159" height="92" preserveAspectRatio="xMinYMin slice" viewBox="-2 -10 159 92" version="1.1">
  <path d="M-2,-10 v92 h159 v-92 Z" fill="#FFFAED" transform="matrix(1,0,0,-1,0,72)"/>
  <path d="M13.0625,-7.625 q-0.8125,0 -2.4062,0.125 q-1.5938,0.125 -3.4062,0.5938 q-1.8125,0.4688 -3.4688,1.4375 q-1.6562,0.9688 -2.7188,2.5625 q-1.0625,1.5938 -1.0625,4.0938 q0,4.5 2.4375,7.5938 q2.4375,3.0938 5.75,4.4688 q2.1875,0.875 3.5938,0.4688 q1.4062,-0.4062 3.1562,-2.1562 q1.25,-1.25 2.3125,-2.25 q1.0625,-1 2.7188,-1.6875 q1.6562,-0.6875 4.625,-1.0625 q2.9688,-0.375 8.0312,-0.375 l1.4375,-2.8125 q-2.8125,1.3125 -5,2.9688 q-2.1875,1.6562 -4.3125,3.9062 q-0.5,0.5 -0.5312,0.8438 q-0.0312,0.3438 0.5312,0.7188 q0.9375,0.625 2.1875,1.9688 q1.25,1.3438 2.3125,2.9688 q0.1875,0.3125 0.625,0.375 q0.4375,0.0625 0.8125,-0.375 q3.375,-3.875 7.4375,-6 q4.0625,-2.125 8.6875,-3.0312 q4.625,-0.9062 9.6875,-1.0625 q5.0625,-0.1562 10.375,-0.1562 q0.5,0 0.7188,-0.2812 q0.2188,-0.2812 -0.0938,-0.7188 q-1,-1.5 -2.0938,-2.7188 q-1.0938,-1.2188 -2.1562,-2.0938 q-0.5625,-0.5 -1.6875,-0.6875 q-1.125,-0.1875 -1.9375,-0.1875 q-2.25,0 -5.6562,-0.0312 q-3.4062,-0.0312 -7.3438,-0.0312 q-3.9375,0 -7.9208,-0.0625 q-3.9833,-0.0625 -7.375,-0.0625 q-3.3917,0 -5.673,-0.0312 q-2.2812,-0.0312 -2.8438,-0.0312 q-3.625,0 -6.6875,0.5 q-3.0625,0.5 -5.125,1.875 q-2.0625,1.375 -2.6875,3.9375 q-0.0625,0.5 -0.6875,0.3438 q-0.625,-0.1562 -0.5625,-0.7188 q0.4375,-2.5625 2.0312,-4.0312 q1.5938,-1.4688 3.9062,-2.0938 q2.3125,-0.625 4.875,-0.8125 q3,-0.1875 6.375,-0.1875 q3.375,0 6.375,0.0625 q3,0.0625 4.9688,0.1562 q1.9688,0.0938 2.2188,0.0938 q0.8125,0 0.7188,-0.4375 q-0.0938,-0.4375 -0.5938,-0.625 q-2,-0.6875 -5.5625,-1.9688 q-3.5625,-1.2812 -8.4375,-2.2812 q-4.875,-1 -10.875,-1 Z" fill="#000000" transform="matrix(1,0,0,-1,-1,72)"/>
  <path d="" fill="#000000" transform="matrix(1,0,0,-1,67,72)"/>
  <path d="M13.0625,-7.625 q-0.8125,0 -2.4062,0.125 q-1.5938,0.125 -3.4062,0.5938 q-1.8125,0.4688 -3.4688,1.4375 q-1.6562,0.9688 -2.7188,2.5625 q-1.0625,1.5938 -1.0625,4.0938 q0,4.5 2.4375,7.5938 q2.4375,3.0938 5.75,4.4688 q2.1875,0.875 3.5938,0.4688 q1.4062,-0.4062 3.1562,-2.1562 q1.25,-1.25 2.5312,-2.375 q1.2812,-1.125 2.6562,-1.9688 q1.375,-0.8438 2.9375,-1.1562 q1.5625,-0.3125 3.3125,0.125 l1.4375,-2.8125 q-2.8125,1.3125 -5,2.9688 q-2.1875,1.6562 -4.3125,3.9062 q-0.5,0.5 -0.5312,0.8438 q-0.0312,0.3438 0.5312,0.7188 q0.9375,0.625 2.1875,1.9688 q1.25,1.3438 2.3125,2.9688 q0.1875,0.3125 0.625,0.375 q0.4375,0.0625 0.8125,-0.375 q3.375,-3.875 7.4375,-6 q4.0625,-2.125 8.6875,-3.0312 q4.625,-0.9062 9.6875,-1.0625 q5.0625,-0.1562 10.375,-0.1562 q0.5,0 0.7188,-0.2812 q0.2188,-0.2812 -0.0938,-0.7188 q-1,-1.5 -2.0938,-2.7188 q-1.0938,-1.2188 -2.1562,-2.0938 q-0.5625,-0.5 -1.6875,-0.6875 q-1.125,-0.1875 -1.9375,-0.1875 q-2.25,0 -5.1875,-0.0312 q-2.9375,-0.0312 -6.1875,-0.0312 q-3.25,0 -6.4062,-0.0625 q-3.1562,-0.0625 -5.8438,-0.0625 q-2.6875,0 -4.5312,-0.0312 q-1.8438,-0.0312 -2.4062,-0.0312 q-3.625,0 -6.6875,0.5 q-3.0625,0.5 -5.125,1.875 q-2.0625,1.375 -2.6875,3.9375 q-0.0625,0.5 -0.6875,0.3438 q-0.625,-0.1562 -0.5625,-0.7188 q0.4375,-2.5625 2.0312,-4.0312 q1.5938,-1.4688 3.9062,-2.0938 q2.3125,-0.625 4.875,-0.8125 q3,-0.1875 6.375,-0.1875 q3.375,0 6.375,0.0625 q3,0.0625 4.9688,0.1562 q1.9688,0.0938 2.2188,0.0938 q0.8125,0 0.7188,-0.4375 q-0.0938,-0.4375 -0.5938,-0.625 q-2,-0.6875 -5.5625,-1.9688 q-3.5625,-1.2812 -8.4375,-2.2812 q-4.875,-1 -10.875,-1 Z" fill="#000000" transform="matrix(1,0,0,-1,92,72)"/>
  <path d="M13.0625,-7.625 q-0.8125,0 -2.4062,0.125 q-1.5938,0.125 -3.4062,0.5938 q-1.8125,0.4688 -3.4688,1.4375 q-1.6562,0.9688 -2.7188,2.5625 q-1.0625,1.5938 -1.0625,4.0938 q0,4.5 2.4375,7.5938 q2.4375,3.0938 5.75,4.4688 q2.1875,0.875 3.5938,0.4688 q1.4062,-0.4062 3.1562,-2.1562 q1.25,-1.25 2.4062,-2.3125 q1.1562,-1.0625 2.6875,-1.8438 q1.5312,-0.7812 3.7812,-1.125 q2.25,-0.3438 5.6875,-0.0938 l2,-2.125 q-1.6875,0.375 -3.125,1.5312 q-1.4375,1.1562 -2.3438,2.6875 q-0.9062,1.5312 -0.9688,3.0625 q-0.0625,1.5312 1,2.6562 q0.625,0.6875 1.875,1.9062 q1.25,1.2188 2.6562,2.5938 q1.4062,1.375 2.5312,2.4375 q1.125,1.0625 1.5,1.4375 q0.6875,0.6875 1.0312,0.25 q0.3438,-0.4375 -0.1562,-1 q-0.375,-0.4375 -1.0312,-1.4062 q-0.6562,-0.9688 -1.3125,-1.9688 q-0.6562,-1 -0.9688,-1.5625 q-0.875,-1.4375 0.5,-3.2188 q1.375,-1.7812 4.4688,-3.375 q3.0938,-1.5938 7.3438,-2.6562 q3.25,-0.8125 5.9062,-1.1875 q2.6562,-0.375 5.1562,-0.4688 q2.5,-0.0938 5.1875,0 q2.6875,0.0938 6.0625,0.2812 q0.8125,0.0625 0.8125,-0.3125 q0,-0.375 -0.375,-0.6875 q-1.1875,-0.875 -2.6562,-2.375 q-1.4688,-1.5 -2.5312,-2.25 q-0.3125,-0.25 -0.625,-0.4062 q-0.3125,-0.1562 -0.625,-0.1562 q-3.0625,0 -7,-0.0312 q-3.9375,-0.0312 -8.2812,-0.0625 q-4.3438,-0.0312 -8.5938,-0.0938 q-4.25,-0.0625 -7.9062,-0.0938 q-3.6562,-0.0312 -6.2188,-0.0312 q-3.625,0 -6.6875,0.5 q-3.0625,0.5 -5.125,1.875 q-2.0625,1.375 -2.6875,3.9375 q-0.0625,0.5 -0.6875,0.3438 q-0.625,-0.1562 -0.5625,-0.7188 q0.4375,-2.5625 2.0312,-4.0312 q1.5938,-1.4688 3.9062,-2.0938 q2.3125,-0.625 4.875,-0.8125 q3,-0.1875 6.375,-0.1875 q3.375,0 6.375,0.0625 q3,0.0625 4.9688,0.1562 q1.9688,0.0938 2.2188,0.0938 q0.8125,0 0.7188,-0.4375 q-0.0938,-0.4375 -0.5938,-0.625 q-2,-0.6875 -5.5625,-1.9688 q-3.5625,-1.2812 -8.4375,-2.2812 q-4.875,-1 -10.875,-1 Z" fill="#000000" transform="matrix(1,0,0,-1,-0.5,15)"/>
  <path d="" fill="#000000" transform="matrix(1,0,0,-1,67.5,15)"/>
  <path d="M13.0625,-7.625 q-0.8125,0 -2.4062,0.125 q-1.5938,0.125 -3.4062,0.5938 q-1.8125,0.4688 -3.4688,1.4375 q-1.6562,0.9688 -2.7188,2.5625 q-1.0625,1.5938 -1.0625,4.0938 q0,4.5 2.4375,7.5938 q2.4375,3.0938 5.75,4.4688 q2.1875,0.875 3.5938,0.4688 q1.4062,-0.4062 3.1562,-2.1562 q1.25,-1.25 2.5312,-2.375 q1.2812,-1.125 2.6562,-1.9688 q1.375,-0.8438 2.9375,-1.1562 q1.5625,-0.3125 3.3125,0.125 l-1.125,-2.125 q-1.6875,0.375 -3.125,1.5312 q-1.4375,1.1562 -2.3438,2.6875 q-0.9062,1.5312 -0.9688,3.0625 q-0.0625,1.5312 1,2.6562 q0.625,0.6875 1.875,1.9062 q1.25,1.2188 2.6562,2.5938 q1.4062,1.375 2.5312,2.4375 q1.125,1.0625 1.5,1.4375 q0.6875,0.6875 1.0312,0.25 q0.3438,-0.4375 -0.1562,-1 q-0.375,-0.4375 -1.0312,-1.4062 q-0.6562,-0.9688 -1.3125,-1.9688 q-0.6562,-1 -0.9688,-1.5625 q-0.875,-1.4375 0.5,-3.2188 q1.375,-1.7812 4.4688,-3.375 q3.0938,-1.5938 7.3438,-2.6562 q3.25,-0.8125 5.9062,-1.1875 q2.6562,-0.375 5.1562,-0.4688 q2.5,-0.0938 5.1875,0 q2.6875,0.0938 6.0625,0.2812 q0.8125,0.0625 0.8125,-0.3125 q0,-0.375 -0.375,-0.6875 q-1.1875,-0.875 -2.6562,-2.375 q-1.4688,-1.5 -2.5312,-2.25 q-0.3125,-0.25 -0.625,-0.4062 q-0.3125,-0.1562 -0.625,-0.1562 q-3.0625,0 -6.9375,-0.0312 q-3.875,-0.0312 -7.9375,-0.0625 q-4.0625,-0.0312 -7.6562,-0.0938 q-3.5938,-0.0625 -6.0625,-0.0938 q-2.4688,-0.0312 -3.1562,-0.0312 q-3.625,0 -6.6875,0.5 q-3.0625,0.5 -5.125,1.875 q-2.0625,1.375 -2.6875,3.9375 q-0.0625,0.5 -0.6875,0.3438 q-0.625,-0.1562 -0.5625,-0.7188 q0.4375,-2.5625 2.0312,-4.0312 q1.5938,-1.4688 3.9062,-2.0938 q2.3125,-0.625 4.875,-0.8125 q3,-0.1875 6.375,-0.1875 q3.375,0 6.375,0.0625 q3,0.0625 4.9688,0.1562 q1.9688,0.0938 2.2188,0.0938 q0.8125,0 0.7188,-0.4375 q-0.0938,-0.4375 -0.5938,-0.625 q-2,-0.6875 -5.5625,-1.9688 q-3.5625,-1.2812 -8.4375,-2.2812 q-4.875,-1 -10.875,-1 Z" fill="#000000" transform="matrix(1,0,0,-1,92.5,15)"/>
</svg>
