<svg xmlns="http://www.w3.org/2000/svg" width="536" height="313" preserveAspectRatio="xMinYMin slice" viewBox="-6 -4 536 313"><path fill="#fffaed" d="M-6 309V-4h536v313Z"/><path d="M7.313 305q-2.25-.187-4.22-.469-1.968-.281-3.405-.719-.5-.125-.688-.562t.438-.625q1.125-.313 2.406-1.656 1.28-1.344 2.468-3.656.125-.188.5-.22.375-.03.813.157l1.375.5q.688.25 1.406.437.719.188 1.469.375l1.117.22q.559.109 1.127.163.569.055 1.131.118.563.062 1.156.125.594.062 1.188.093.594.032 1.177.032h3.481q.56 0 1.123-.032l1.125-.062q.562-.031 1.062-.031 1.813-.125 3.406-.313 1.594-.187 2.907-.437.5-.125.437-.625-.062-.5-.562-.438-1.438.313-3.782.531-2.343.22-4.75-.062-2.406-.281-4.156-1.406-1.562-1.063-2.469-2.938t-.968-5.125q0-1.562.656-3.469t1.906-3.625 3.156-2.875 4.406-1.218q2.938-.063 5.47 1.718 2.53 1.782 4.405 4.782t2.968 6.562 1.157 7.125q0 1.399-.406 2.73-.406 1.333-1.406 2.395t-2.75 1.75-4.375.813q-.625.062-1.312.062t-1.464.031l-1.625.063-1.755.062q-.906.031-1.812.031H15.03q-.97 0-1.97-.03l-1.968-.063q-.969-.031-1.906-.094zm17.312-16.875q.75 0 .75-.812 0-.313-.219-.532t-.531-.219q-.812 0-.812.75 0 .813.812.813m48.313 17.188q-2.313-.063-4.75-.282-2.438-.219-4.5-.844-.5-.125-.688-.562t.438-.625q1.124-.312 2.406-1.656 1.28-1.344 2.469-3.656.124-.188.5-.22.374-.03.812.157.313.125.844.406t2.156.594 5.188.438q9.437.375 21.75.656 12.312.28 26.874.5 14.563.219 30.813.344t33.594.218 35.25.156 35.75.032 35.094-.094 33.312-.156 30.375-.25 26.281-.313 21.031-.375 14.625-.469q3.5-.125 5.407-.375 1.906-.25 2.156-.437.375-.313.375-.75 0-.438-.5-.375-1.438.312-3.781.531t-4.75-.062-4.156-1.407q-1.563-1.062-2.47-2.937-.906-1.875-.968-5.125 0-1.563.656-3.469t1.906-3.625 3.157-2.875 4.406-1.219q2.937-.062 5.469 1.72 2.53 1.78 4.437 4.78 1.906 3 2.969 6.563t1.125 7.125q.062 2.812-1.344 4.406t-3.781 2.375-5.188 1.031-5.562.375q-5.563.188-14.625.375-9.063.188-20.969.313t-26.125.187-30.25.125-33.25.094-35.125 0l-35.937-.062q-18.032-.032-35.625-.125-17.594-.094-34.188-.22-16.594-.124-31.687-.25-15.094-.124-28.094-.312-13-.187-23.313-.375Zm351.937-17.188q.75 0 .75-.812 0-.313-.219-.532t-.531-.219q-.812 0-.812.75 0 .813.812.813m48.063 17.188q-2.313-.063-4.75-.282-2.438-.219-4.5-.844-.5-.125-.688-.562t.438-.625q1.125-.312 2.406-1.656 1.28-1.344 2.469-3.656.125-.188.5-.22.375-.03.812.157.313.125.688.406t1.218.563q.844.28 2.531.344l3.5.125q1.75.062 3.532.093 1.78.031 3.562.094t3.531.094q1.75.031 3.5.031t3.438.031 3.344.031h3.219q1.562 0 3.03-.03l2.844-.063q1.375-.031 2.625-.063 1.25-.03 2.375-.094 2.188-.125 3.813-.312t2.5-.437q.5-.125.438-.625-.063-.5-.563-.438-1.437.313-3.781.531t-4.75-.062-4.156-1.406q-1.563-1.063-2.47-2.938-.905-1.875-.968-5.125 0-1.562.656-3.469t1.906-3.625 3.157-2.875 4.406-1.219q2.937-.062 5.469 1.72 2.53 1.78 4.437 4.78 1.906 3 2.969 6.563t1.125 7.125q0 1.312-.281 2.562t-1.157 2.313-2.53 1.781-4.282 1.031q-1 .125-2.187.22-1.188.093-2.532.155-1.343.063-2.812.125-1.469.063-3.094.094l-3.406.063q-1.781.03-3.688.03-1.906 0-3.937-.03-2.031-.032-4.219-.032-2.187 0-4.531-.03-2.344-.032-4.813-.095l-5.03-.125q-2.563-.062-5.313-.125Zm40.687-17.188q.75 0 .75-.812 0-.313-.219-.532t-.531-.219q-.812 0-.812.75 0 .813.812.813M13.438 248.188q-1.376-.063-3.032-.22-1.656-.155-3.719-.78-.5-.125-.687-.563t.438-.625q1.125-.312 2.406-1.656 1.28-1.344 2.469-3.656.124-.188.5-.22.374-.03.812.157.438.188 1.375.406t2.188.406q.25.063.53.094.282.031.532.031t.536.021.563.063.579.041H21.3q.3 0 .594-.03.294-.032.606-.063.313-.031.614-.072t.603-.067.596-.08q-1.125-2.188-4.375-3.313-.563-.187-.594-.78-.031-.595.594-.657 1.625-.125 3.53-1.75 1.907-1.625 2.782-4 .313-.875.688-.75t.687.5q1.375 1.625 2.438 3.937 1.062 2.313 1.687 4.625.625 2.313.625 3.938 0 1.812-.375 2.844t-1.594 1.469-3.781.625q-.5.062-.969.062t-.969.031-1.01.052-1 .032-.99.026l-1 .03q-.5.016-1 .016h-2.843q-.47 0-.907-.03-.437-.032-.875-.032-.437 0-.843-.031-.407-.031-.782-.031m53.501.125q-2.313-.063-4.75-.282-2.438-.219-4.5-.844-.5-.125-.688-.562t.438-.625q1.124-.312 2.406-1.656 1.28-1.344 2.468-3.656.126-.188.5-.22.376-.03.813.157.438.188 1.188.469t3.25.406q1.937.063 8.343.125 6.406.063 16.47.125 10.062.063 23.124.094 13.063.031 28.469.094 15.406.062 32.437.062 17.032 0 35.063.031t36.327.031 36.219-.03q17.923-.032 34.766-.032 16.844 0 31.97-.062 15.124-.063 27.812-.094 12.687-.031 22.28-.125 9.595-.094 15.438-.156 5.844-.063 7.157-.188-1.125-2.187-4.375-3.312-.563-.188-.594-.782-.031-.593.594-.656 1.625-.125 3.53-1.75 1.907-1.625 2.782-4 .313-.875.688-.75t.687.5q1.375 1.625 2.438 3.938 1.062 2.312 1.687 4.625.625 2.312.625 3.937 0 1.813-.375 2.813t-1.594 1.468-3.781.594q-2.062.063-8.469.156-6.406.094-16.406.157-10 .062-22.906.125-12.906.062-28.125.093-15.219.032-32.094.063l-34.75.062q-17.875.032-36.062.032H176.5q-16.938 0-32.25-.032-15.313-.03-28.375-.062-13.063-.031-23.25-.063-10.188-.03-16.781-.093-6.594-.063-8.906-.125m400 0q-2.313-.063-4.75-.282-2.438-.219-4.5-.844-.5-.125-.688-.562t.438-.625q1.125-.312 2.406-1.656 1.28-1.344 2.469-3.656.125-.188.5-.22.375-.03.812.157.438.188 1.188.469t3.25.406q2 .063 3.875.125l3.687.125q1.813.063 3.563.094t3.437.094 3.313.062 3.187.031 3.094.031 3.031-.03q1.5-.032 2.938-.032 1.437 0 2.843-.062 1.406-.063 2.781-.094t2.72-.125 2.687-.156 2.656-.188q-1.125-2.187-4.375-3.312-.562-.188-.594-.782-.031-.593.594-.656 1.625-.125 3.531-1.75t2.781-4q.313-.875.688-.75t.687.5q1.375 1.625 2.438 3.938 1.062 2.312 1.687 4.625.625 2.312.625 3.937 0 1.813-.375 2.813t-1.593 1.468q-1.22.47-3.782.594-2.062.063-3.968.156-1.907.094-3.657.157-1.75.062-3.343.125-1.594.062-3.125.093l-2.97.063-2.874.062q-1.438.032-2.844.032h-5.875q-1.531 0-3.125-.032l-3.344-.062-3.656-.063q-1.906-.03-4.031-.093t-4.438-.125ZM17.875 211.75q-2.312.25-5.219.156-2.906-.094-5.469-.625-2.562-.531-3.937-1.531-.5-.375-.594-.875t.594-.75q1.125-.5 2.531-1.844T8.25 203q.125-.312.406-.25.281.063.469.188.937.75 3.75.968 2.812.22 6.937-.719l-3.875 3.313q.313-4.812.375-9.5.063-4.687-.187-7.75-.25-3.25-1.531-5.094t-3.22-3.031-4.187-2.312q-.75-.375-.718-.875.03-.5 1.218-.688 1.813-.312 3.157-1.969 1.343-1.656 1.593-4.156.063-.5.344-.5t.906.125q3.875 1.063 5.844 4.844t2.344 9.031q.25 3.375.25 7.156t-.031 6.938-.031 4.719q.062 2.25-.188 3.75t-.562 2.375q-.438 1.312-1.47 1.687-1.03.375-1.968.5M19.5 191l-1-16.125q.375.125.813.219t.906.187.968.188 1 .125 1.032.094q.53.062 1.068.093.538.032 1.063.032t1.087.03 1.125.032 1.155-.02l1.156-.042 1.126-.042q.564-.021 1.126-.052l1.125-.063q.563-.031 1.125-.031 1.125-.062 1.531.469t.97 1.844q.75 1.687 1.655 4.062.906 2.375.97 5.438.062 1.25-1.032 2.3t-2.219 1.2q-.43.025-.872.043-.44.02-.878.05-.437.032-.906.052-.469.021-.938.032t-.968.041-1.032.032h-4.468q-.625 0-1.25-.032-.625-.03-1.281-.03-.657 0-1.353-.032l-1.375-.063q-.679-.03-1.429-.03Zm9.125-6.812q1.375-.133 1.625-.364.25-.232.125-.63-.062-.132-.219-.225-.156-.094-.656-.032-.224.016-.456.04-.232.023-.44.023h-1.27q-.209 0-.428.031-.218.031-.422.031h-1.703q-.218 0-.468-.015l-.5-.031q-.25-.016-.542-.016h-.583q.125.397.406.728t1.094.397q.062 0 .167.02.104.022.219.042l.239.042q.125.021.27.021h2.624q.168 0 .318-.008t.3-.023zm47.25 27.562q-2.312.25-5.219.156-2.906-.094-5.469-.625-2.562-.531-3.937-1.531-.5-.375-.594-.875t.594-.75q1.125-.5 2.531-1.844T66.25 203q.125-.312.406-.25.281.063.469.188.937.75 3.75.968 2.812.22 6.937-.719l-3.875 3.313q.313-4.812.375-9.5.063-4.687-.187-7.75-.25-3.25-1.531-5.094t-3.22-3.031-4.187-2.312q-.75-.375-.718-.875.03-.5 1.218-.688 1.813-.312 3.157-1.969 1.343-1.656 1.593-4.156.063-.5.344-.5t.906.125q3.875 1.063 5.844 4.844t2.344 9.031q.25 3.375.25 7.156t-.031 6.938-.031 4.719q.062 2.25-.188 3.75t-.562 2.375q-.438 1.312-1.47 1.687-1.03.375-1.968.5m.688-20.75-1-16.125q1.437.188 6.874.344 5.438.156 14.282.281t20.5.219 25.594.156 29.593.094 32.375.062 34.031.031h34.594q17.281 0 33.97-.03l32.218-.063q15.531-.031 29.312-.063 13.782-.03 25.282-.062 11.5-.031 20.125-.063 8.625-.03 13.78-.094 5.157-.062 6.282-.062 1.125-.062 1.531.469t.969 1.844q.75 1.687 1.656 4.062t.969 5.438q.063 1.25-1.031 2.125t-2.219 1q-1.375.187-6.812.312t-14.313.25-20.562.188-25.657.125-29.625.093-32.469.032h-34.156q-17.344 0-34.656-.032-17.312-.03-34.062-.062-16.75-.031-32.313-.063-15.562-.03-29.406-.093t-25.375-.094-20.156-.063q-8.625-.03-13.813-.094-5.187-.062-6.312-.062m352.062-6.875q1.375-.125 1.625-.344t.125-.594q-.062-.125-.219-.25-.156-.125-.656-.062-.937.062-5.937.156t-13.438.125-19.687.094-24.782.094-28.78.03H238.03q-16.968 0-33.375-.03-16.406-.031-31.687-.063-15.281-.031-28.844-.031-13.562 0-24.875-.031-11.312-.031-19.781-.063-8.469-.03-13.563-.094Q80.813 183 79.75 183q.125.375.406.688t1.094.375q.563 0 5.25.03 4.688.032 12.844.063t19.219.063q11.062.03 24.437.062 13.375.031 28.531.063l31.47.062q16.312.031 33.218.031t33.875.032q16.969.03 33.375.03h31.719q15.312 0 28.906-.03 13.594-.032 24.938-.063t19.843-.062 13.594-.094 6.156-.125m47.25 27.625q-2.312.25-5.219.156-2.906-.094-5.469-.625-2.562-.531-3.937-1.531-.5-.375-.594-.875t.594-.75q1.125-.5 2.531-1.844T466.25 203q.125-.312.406-.25.281.063.469.188.937.75 3.75.968 2.812.22 6.937-.719l-3.875 3.313q.313-4.812.375-9.5.063-4.687-.187-7.75-.25-3.25-1.531-5.094t-3.22-3.031-4.187-2.312q-.75-.375-.718-.875.03-.5 1.218-.688 1.813-.312 3.157-1.969 1.343-1.656 1.593-4.156.063-.5.344-.5t.906.125q3.875 1.063 5.844 4.844t2.344 9.031q.25 3.375.25 7.156t-.031 6.938-.031 4.719q.062 2.25-.188 3.75t-.562 2.375q-.438 1.312-1.47 1.687-1.03.375-1.968.5m.688-20.75-1-16.125q1.437.188 2.843.344t2.813.281 2.781.219 2.75.156 2.75.094l2.719.062q1.344.031 2.656.031h2.625q1.313 0 2.594-.03l2.562-.063q1.281-.031 2.5-.063 1.22-.03 2.438-.062l2.406-.063q1.188-.03 2.313-.094 1.125-.062 2.25-.062 1.125-.062 1.53.469.407.531.97 1.844.75 1.687 1.656 4.062t.968 5.438q.063 1.25-1.03 2.125-1.095.875-2.22 1-1.375.125-2.78.218-1.407.094-2.845.157-1.437.062-2.843.125-1.406.062-2.813.093l-2.812.063q-1.406.031-2.781.031h-8.188q-1.312 0-2.625-.031t-2.594-.031-2.531-.032q-1.25-.03-2.437-.062l-2.344-.063q-1.156-.03-2.281-.03Zm32.25-6.875q1.375-.125 1.625-.344t.125-.594q-.063-.125-.22-.25-.156-.125-.656-.062-.937.062-1.906.156t-1.937.125-1.969.094-1.969.094-1.937.03h-5.907q-1 0-2-.03l-2-.063q-1-.031-2-.031t-2.03-.031l-2.063-.063q-1.031-.03-2.094-.094-1.063-.062-2.125-.062.125.375.406.688t1.094.375q.562 0 1.219.03.656.032 1.375.063l1.5.063 1.594.062 1.687.063 1.781.062q.906.031 1.875.031t1.938.032q.969.03 2 .03h2.062q1.031 0 2.063-.03 1.03-.032 2.094-.063l2.125-.062q1.062-.032 2.125-.094zm-489.25-49.25q-3.813-.062-6.688-.531T8.563 133q-.688-.437-.532-1.156t.844-.406q.313.125.438.187.125.063.375-.062 1.312-.625 2.656-1.907 1.344-1.28 2.281-2.406.313-.375.906-.531.594-.156 1.219.344.5.375 1.719.656t2.844.344h.644q.168 0 .324.031.157.031.305.031h2.176q.176 0 .332-.031t.357-.031h.799q1.375-.063 1.625-.344t.125-.656q-.062-.125-.219-.219-.156-.094-.656-.094h-.6q-.15 0-.306.031-.156.032-.336.032h-2.586q-.172 0-.328-.016l-.313-.031q-.156-.016-.302-.016h-.291q-.875-.062-2.032-.187-1.156-.125-1.98-.563t-.824-1.312q-.056-7.063-.028-13.782.028-6.718-.142-12.218-.057-2.125-.338-3.438-.281-1.312-.281-2.125t.75-1.375q1.125-.812 2.344-2.094 1.218-1.28 2.218-3.156.25-.437.47-.406.218.031.28.531.125 1.75.25 3.438.125 1.687.188 3.437.125 3.063.031 6.5t-.219 6.749-.187 6.055.062 4.446q.125 1.875 2.125 1.938h2.594q.219 0 .469.031t.481.031H32q1.125 0 1.532.5.406.5.968 1.813.75 1.687 1.657 4.062.906 2.375.968 5.438.063 1.25-1.03 2.154-1.095.904-2.22 1.033-.625.063-1.218.094-.594.031-1.125.094-.532.062-1.032.094-.5.03-.926.052-.427.02-.844.062t-.823.073-.793.063q-.386.03-.781.03t-.801.032q-.407.031-.824.031h-.843q-.427 0-.927.031-.5.032-1.031 0-.532-.03-1.14-.03zm54 0q-3.813-.062-6.688-.531T62.563 133q-.688-.437-.532-1.156.157-.719.844-.406.313.125.438.187.125.063.375-.062 1.312-.625 2.656-1.907 1.344-1.28 2.281-2.406.313-.375.906-.531.594-.156 1.219.344.5.375 1.719.562t2.844.313q.437 0 5 .031t12.656.062 19.125.063 24.437.062 28.625.063 31.625.031 33.47.031q17.062.032 34.155.032h33.688q16.594 0 32.094-.032 15.5-.03 29.343-.062 13.844-.031 25.407-.063 11.562-.03 20.343-.093t14.157-.157 6.687-.156q1.375-.125 1.625-.344t.125-.593q-.062-.125-.219-.25-.156-.125-.656-.063-1 .063-6.031.156-5.031.094-13.438.156-8.406.063-19.687.094t-24.813.063q-13.53.031-28.75.062-15.218.031-31.593.031H202.25q-16.375 0-31.594-.03-15.219-.032-28.75-.063-13.53-.031-24.812-.063-11.281-.03-19.688-.062-8.406-.031-13.437-.063-5.031-.03-6.031-.03-1.813-.063-3.344-.188T72.156 126q-.906-.437-.906-1.312-.062-7.063-.031-13.782.031-6.718-.156-12.218-.063-2.125-.344-3.438-.281-1.312-.281-2.125t.75-1.375q1.125-.812 2.343-2.094 1.22-1.28 2.22-3.156.25-.437.468-.406t.281.531q.125 1.75.25 3.438.125 1.687.188 3.437.125 3.063.031 6.469t-.219 6.687-.187 6q-.063 2.72.062 4.407.063 1.75 2.125 1.937 1 .063 6.063.125 5.062.063 13.562.125 8.5.063 19.875.094t25.031.062 29.032.063 31.875.031h133.468q15.407 0 29.094-.031t25.125-.063q11.438-.03 20-.062 8.563-.031 13.719-.063 5.156-.03 6.281-.03 1.125-.063 1.531.468.407.531.97 1.844.75 1.687 1.655 4.062.907 2.375.97 5.438.062 1.25-1.032 2.094t-2.219 1.03q-1.562.25-7.125.47-5.562.218-14.469.343t-20.593.25-25.594.188q-13.906.062-29.5.094l-32.313.062q-16.719.031-33.969 0l-34.468-.062q-17.22-.032-33.906-.094-16.688-.063-32.22-.094-15.53-.031-29.343-.094-13.813-.062-25.406-.125-11.594-.062-20.344-.125-8.75-.062-14.156-.093-5.406-.032-6.781-.032m400 0q-3.813-.062-6.688-.531T462.563 133q-.688-.437-.532-1.156t.844-.406q.313.125.438.187.125.063.375-.062 1.312-.625 2.656-1.907 1.344-1.28 2.281-2.406.313-.375.906-.531.594-.156 1.219.344.5.375 1.719.562t2.844.313q.437 0 1 .031t1.218.062q.657.032 1.438.063t1.656.062 1.844.063 2.031.031 2.188.031 2.28.032h2.407q1.25 0 2.5-.032l2.563-.062 2.656-.063q1.344-.03 2.687-.093 1.344-.063 2.688-.157 1.344-.093 2.656-.156 1.375-.125 1.625-.344t.125-.593q-.063-.125-.219-.25T508 126.5q-1 .063-2 .156-1 .094-2 .156-1 .063-2 .094l-2 .063-2 .062q-1 .031-2 .031h-6.062q-1 0-2-.03l-2-.063-2-.063-2-.062-2-.063q-1-.03-2-.03-1.813-.063-3.344-.188t-2.438-.563q-.906-.437-.906-1.312-.062-7.063-.031-13.782.031-6.718-.156-12.218-.063-2.125-.344-3.438-.281-1.312-.281-2.125t.75-1.375q1.125-.812 2.343-2.094 1.22-1.28 2.22-3.156.25-.437.468-.406t.281.531q.125 1.75.25 3.438.125 1.687.188 3.437.125 3.063.03 6.469-.093 3.406-.218 6.687t-.187 6 .062 4.407q.063 1.75 2.125 1.937 1 .063 2.031.125 1.031.063 2.125.125 1.094.063 2.188.094l2.219.062 2.28.063q1.157.031 2.313.031h9.407q1.187 0 2.375-.031l2.343-.063q1.157-.03 2.313-.062l2.281-.063q1.125-.03 2.25-.03 1.125-.063 1.531.468.407.531.97 1.844.75 1.687 1.655 4.062.907 2.375.97 5.438.062 1.25-1.032 2.125t-2.219 1q-1.375.125-2.781.219-1.406.093-2.781.156l-2.75.125q-1.375.062-2.75.094-1.375.03-2.719.093t-2.719.063-2.719.031-2.718.031h-8.188q-1.375 0-2.75-.03-1.375-.032-2.75-.032t-2.781-.031-2.781-.032M25.125 77.75q-1.312 0-3.094-.094t-3.562-.25q-1.782-.156-3.188-.437t-2.031-.72q-.375-.312-.688-.655t.25-.531q.688-.313 1.438-1t.812-2.376q.375-6.687.594-12.53.22-5.844.188-11.626-.031-5.78-.469-12.218-.063-1.063-.031-1.72.031-.656.656-1.093 1.125-.813 2.594-1.969t2.094-3.031q.125-.438.5-.406.375.03.437.53.313 1.75.469 3.313t.281 3.313q.125 1.25.125 3.875t-.062 5.906-.157 6.563q-.093 3.28-.187 5.937-.094 2.656-.156 4.031-.063.875.062 1.063t1.063.375l.528.083q.272.042.552.083.28.042.569.063t.585.052l.594.063q.297.03.61.03.312 0 .624.032.313.031.677.031h4.017q.431 0 .931-.031t1-.031q1.125-.063 1.531.406.407.469.97 1.781.75 1.688 1.655 4.063.907 2.375.97 5.437.062 1.25-1.032 2.094t-2.219 1.156q-.187.063-.406.11-.219.046-.437.062-.22.016-.473.057-.253.042-.5.063-.246.02-.527.052-.282.031-.594.031-.313 0-.652.031t-.687.031zM28.063 71q1.375 0 1.593-.406.22-.406.094-.781-.062-.125-.187-.094t-.625.031h-1.875q-.25 0-.5-.031t-.5-.031-.532-.032q-.28-.03-.593-.03t-.634-.022q-.321-.02-.625-.062T23 69.438q-.375-.063-.75-.094t-.781-.094q-.406-.062-.844-.156t-.875-.156l1.313-1.875q-.063.687-.094 1.375t-.094 1.375q0 .437 1.25.687.179.042.402.084.223.041.442.072.22.032.47.063.248.031.47.073.223.042.47.062.246.021.458.052.212.032.438.032h.444q.219 0 .437.03.22.032.404.032zm48.062 6.75q-1.312 0-3.094-.094t-3.562-.25-3.188-.437-2.031-.72q-.375-.312-.687-.655t.25-.531q.687-.313 1.437-1t.813-2.376q.374-6.687.593-12.53.22-5.844.188-11.626-.031-5.78-.469-12.218-.062-1.063-.031-1.72.031-.656.656-1.093 1.125-.813 2.594-1.969t2.094-3.031q.125-.438.5-.406.375.03.437.53.313 1.75.469 3.313t.281 3.313q.125 1.25.125 3.875t-.062 5.906-.157 6.563q-.093 3.28-.187 5.937-.094 2.656-.156 4.031-.063.875.062 1.094t1.063.344q1 .062 6.156.125 5.156.062 13.812.125 8.657.062 20.22.094 11.562.03 25.468.062 13.906.031 29.563.063 15.656.03 32.468.03h135.812q15.688 0 29.626-.03 13.937-.032 25.562-.063t20.344-.062 13.938-.063q5.218-.031 6.343-.031 1.125-.062 1.532.469.406.531.968 1.844.75 1.687 1.657 4.062.906 2.375.968 5.438.063 1.25-1.03 2.125-1.095.875-2.22 1-1.375.125-6.812.25t-14.25.218-20.438.157-25.53.093-29.5.063q-15.595.031-32.313.062-16.72.032-34 .032h-34.563q-17.281 0-33.969-.032-16.687-.03-32.25-.03t-29.375-.032-25.375-.062q-11.562-.032-20.25-.063-8.687-.031-13.968-.062-5.282-.032-6.532-.032m351.5-7q1.375-.125 1.625-.344t.125-.594q-.062-.125-.219-.25-.156-.125-.656-.062-1.062.062-6.281.156t-13.906.156q-8.688.063-20.313.125-11.625.063-25.594.094t-29.656.063q-15.687.03-32.562.03h-34.282q-17.406 0-34.812-.03l-34.188-.063q-16.78-.031-32.375-.094-15.593-.062-29.437-.125-13.844-.062-25.281-.156-11.438-.094-19.938-.219t-13.437-.25-5.688-.25l1.313-1.875q-.063.688-.094 1.375t-.094 1.375q0 .5 1.25.688.5.062 5.219.125 4.719.062 12.969.125 8.25.062 19.468.125 11.22.062 24.813.125 13.594.062 29 .094l32.031.062q16.625.031 33.875.031t34.531.031 34.063.032 32.406-.032q15.625-.03 29.563-.062 13.937-.031 25.562-.063 11.625-.03 20.406-.093t14.094-.125q5.313-.063 6.5-.125m48.5 7q-1.312 0-3.094-.094t-3.562-.25-3.188-.437-2.031-.72q-.375-.312-.687-.655t.25-.531q.687-.313 1.437-1t.813-2.376q.375-6.687.593-12.53.22-5.844.188-11.626-.031-5.78-.469-12.218-.062-1.063-.031-1.72.031-.656.656-1.093 1.125-.813 2.594-1.969t2.094-3.031q.125-.438.5-.406.375.03.437.53.313 1.75.469 3.313t.281 3.313q.125 1.25.125 3.875t-.062 5.906-.157 6.563q-.093 3.28-.187 5.937-.094 2.656-.156 4.031-.063.875.062 1.094t1.063.344q1 .062 2.062.125l2.156.125q1.094.062 2.22.094l2.28.062 2.313.063q1.156.03 2.344.03h9.593q1.22 0 2.406-.03l2.375-.063 2.344-.062 2.281-.063q1.125-.031 2.25-.031 1.125-.062 1.532.469.406.531.969 1.844.75 1.687 1.656 4.062t.968 5.438q.063 1.25-1.03 2.125-1.095.875-2.22 1-1.062.062-2.156.156t-2.187.125-2.219.094q-1.125.062-2.219.093l-2.219.063-2.25.062-2.25.063q-1.125.031-2.28.031h-6.97q-1.187 0-2.375-.031t-2.406-.031-2.437-.031-2.47-.032Zm26.813-7q1.375-.125 1.625-.344t.125-.594q-.063-.125-.22-.25-.156-.125-.656-.062-1.062.062-2.187.156t-2.281.156q-1.156.063-2.344.125-1.187.063-2.375.094l-2.406.063q-1.219.03-2.438.03h-2.437q-1.219 0-2.406-.03l-2.344-.063q-1.156-.031-2.25-.094-1.094-.062-2.156-.125-1.063-.062-2.094-.156t-1.938-.219-1.78-.25q-.876-.125-1.626-.25l1.313-1.875q-.063.688-.094 1.375t-.094 1.375q0 .5 1.25.688.5.062 1.125.125.625.062 1.313.125.687.062 1.468.125.781.062 1.625.125.844.062 1.781.094l1.907.062q.969.031 2 .031 1.03 0 2.125.031 1.094.032 2.219.032t2.28-.032l2.344-.062 2.375-.063q1.188-.03 2.407-.093l2.437-.125zM20.688 20.875q-3.813-.062-6.438-.406t-3.625-1.156q-.687-.5-.625-1t.813-.5q.374 0 .718-.22.344-.218.594-.468.563-.562 1.406-1.656.844-1.094 1.531-2.219.688-1.062 2.188-.187.688.374 2.125.656 1.438.28 3.063.28H25.5q1.312 0 1.594-.201.28-.202.156-.548-.063-.104-.219-.208-.156-.105-.656-.105H24.25q-.25 0-.469-.03-.219-.032-.472-.032h-.5q-.247 0-.497-.031t-.5-.031-.514-.027-.506-.054-.454-.067-.463-.04q-1.563-.25-2.156-.733-.594-.484.03-1.33 2.126-2.812 4.282-5.78 2.156-2.97 3.906-5.907.313-.5.72-.312.405.187.155.75-.214.49-.67 1.526-.455 1.036-.955 2.192t-.937 2.157q.19.01.402.026.21.015.435.026t.456.01h5.707q1.125 0 1.53.719.407.719.97 2.031.75 1.687 1.656 4.062t.969 5.438q.062 1.25-1.032 2.125-1.093.875-2.218 1-.41.05-.83.088t-.827.053l-.812.03q-.406.016-.844.048-.437.03-.854.03h-.844q-.427 0-.834.032-.406.031-.823.031h-2.479q-.416 0-.822-.03-.406-.032-.813-.032h-1.656Zm51-.625q-3.813-.062-6.438-.406t-3.625-1.156q-.687-.5-.625-1t.813-.5q.374 0 .718-.22.344-.218.594-.468.563-.562 1.406-1.656.844-1.094 1.531-2.219.688-1.062 2.188-.187.688.374 2.125.562t3.063.313q.437 0 5.03.03 4.594.032 12.688.063t19.156.063q11.063.03 24.5.062 13.438.031 28.688.063 15.25.03 31.719.03t33.562.032 34.219.031h33.781q16.656 0 32.188-.03 15.53-.032 29.406-.063 13.875-.032 25.469-.063t20.406-.094 14.187-.156 6.688-.156q1.375-.125 1.625-.344t.125-.594q-.063-.125-.219-.25t-.656-.062q-.75.062-5.688.125-4.937.062-13.437.125-8.5.062-19.938.125-11.437.062-25.25.094l-29.406.062-32.344.063q-16.75.03-34.125.03h-34.718q-17.344 0-34.094-.03-16.75-.032-32.344-.032t-29.375-.062-25.219-.125-19.906-.125q-8.469-.063-13.406-.156-4.938-.094-5.688-.22-1.562-.187-2.156-.687t.031-1.375q2.125-2.812 4.188-5.656t3.812-5.781q.313-.5.72-.312.405.187.155.75l-.78 1.75Q76.5 1.625 76 2.78t-.75 1.781q.875.063 5.875.157 5 .093 13.469.156 8.469.062 19.875.094 11.406.03 25.125.062 13.719.031 29.219.031h100.593q17.281 0 34-.03l32.281-.063q15.563-.032 29.407-.063t25.375-.062q11.53-.032 20.218-.063t13.875-.094q5.188-.062 6.313-.062 1.125-.063 1.531.469.406.53.969 1.844.75 1.687 1.656 4.062t.969 5.438q.062 1.25-1.031 2.125-1.094.875-2.22 1-1.374.125-6.812.218-5.437.094-14.25.157-8.812.062-20.468.125-11.657.062-25.594.093-13.938.032-29.563.094-15.625.063-32.406.063t-34.094.03-34.656.032h-96.094q-13.937 0-25.593-.031t-20.47-.031-14.25-.032q-5.437-.03-6.812-.03Zm400 .625q-3.813-.062-6.438-.406t-3.625-1.156q-.687-.5-.625-1t.813-.5q.375 0 .718-.22.344-.218.594-.468.563-.562 1.406-1.656.844-1.094 1.531-2.219.688-1.062 2.188-.187.688.374 2.125.562t3.063.313q.437 0 1 .03.562.032 1.218.063t1.438.063l1.656.062q.875.031 1.844.063.969.03 2.031.03t2.188.032 2.28.031h2.407q1.25 0 2.5-.03 1.25-.032 2.562-.063l2.657-.063q1.343-.031 2.687-.094 1.344-.062 2.688-.156 1.343-.094 2.656-.156 1.375-.125 1.625-.344t.125-.594q-.063-.125-.219-.25t-.656-.062q-.75.062-1.656.125-.907.062-1.97.125-1.062.062-2.218.125-1.156.062-2.406.094l-2.563.062-2.656.063q-1.344.03-2.75.03h-2.781q-1.375 0-2.719-.03-1.344-.032-2.656-.032T479.187 13t-2.375-.125-2.156-.125-1.937-.156-1.656-.22q-1.563-.187-2.157-.687t.031-1.375q2.125-2.812 4.188-5.656t3.813-5.781q.312-.5.718-.312.406.187.156.75l-.78 1.75Q476.5 2.25 476 3.406t-.75 1.781q.875.063 1.844.157.969.093 2 .156 1.031.062 2.156.094l2.281.062q1.156.031 2.375.031h7.594q1.313 0 2.625-.03l2.594-.063 2.562-.063 2.563-.062 2.5-.063q1.219-.031 2.375-.094 1.156-.062 2.281-.062 1.125-.063 1.531.469.407.53.97 1.844.75 1.687 1.655 4.062.907 2.375.97 5.438.062 1.25-1.032 2.125t-2.219 1q-1.375.125-2.781.218-1.406.094-2.781.157l-2.75.125q-1.375.062-2.75.093-1.375.032-2.72.094-1.343.063-2.718.063t-2.719.03-2.719.032h-8.188q-1.374 0-2.75-.031-1.374-.031-2.75-.031-1.374 0-2.78-.032-1.406-.03-2.781-.03Z"/></svg>