<?xml version='1.0' encoding='ASCII'?>
<svg xmlns="http://www.w3.org/2000/svg" width="536" height="313" preserveAspectRatio="xMinYMin slice" viewBox="-6 -4 536 313" version="1.1">
  <path d="M-6,-4 v313 h536 v-313 Z" fill="#000000" transform="matrix(1,0,0,-1,0,305)"/>
  <path d="M8.3125,0 q-2.25,0.1875 -4.2188,0.4688 q-1.9688,0.2812 -3.4062,0.7188 q-0.5,0.125 -0.6875,0.5625 q-0.1875,0.4375 0.4375,0.625 q1.125,0.3125 2.4062,1.6562 q1.2812,1.3438 2.4688,3.6562 q0.125,0.1875 0.5,0.2188 q0.375,0.0312 0.8125,-0.1562 q0.6875,-0.25 1.375,-0.5 q0.6875,-0.25 1.4062,-0.4375 q0.7188,-0.1875 1.4688,-0.375 q0.5585,-0.1094 1.117,-0.2188 q0.5585,-0.1094 1.127,-0.1641 q0.5685,-0.0547 1.131,-0.1172 q0.5625,-0.0625 1.1562,-0.125 q0.5938,-0.0625 1.1875,-0.0938 q0.5938,-0.0312 1.1773,-0.0312 q0.5835,0 1.1562,0 q0.5727,0 1.1687,0 q0.596,0 1.1562,0 q0.5602,0 1.1227,0.0312 q0.5625,0.0312 1.125,0.0625 q0.5625,0.0312 1.0625,0.0312 q1.8125,0.125 3.4062,0.3125 q1.5938,0.1875 2.9062,0.4375 q0.5,0.125 0.4375,0.625 q-0.0625,0.5 -0.5625,0.4375 q-1.4375,-0.3125 -3.7812,-0.5312 q-2.3438,-0.2188 -4.75,0.0625 q-2.4062,0.2812 -4.1562,1.4062 q-1.5625,1.0625 -2.4688,2.9375 q-0.9062,1.875 -0.9688,5.125 q0,1.5625 0.6562,3.4688 q0.6562,1.9062 1.9062,3.625 q1.25,1.7188 3.1562,2.875 q1.9062,1.1562 4.4062,1.2188 q2.9375,0.0625 5.4688,-1.7188 q2.5312,-1.7812 4.4062,-4.7812 q1.875,-3 2.9679,-6.5625 q1.0929,-3.5625 1.1571,-7.125 q0,-1.3986 -0.4062,-2.7305 q-0.4062,-1.332 -1.4062,-2.3945 q-1,-1.0625 -2.75,-1.75 q-1.75,-0.6875 -4.375,-0.8125 q-0.625,-0.0625 -1.3125,-0.0625 q-0.6875,0 -1.4639,-0.0312 q-0.7764,-0.0312 -1.625,-0.0625 q-0.8486,-0.0312 -1.7549,-0.0625 q-0.9062,-0.0312 -1.812,-0.0312 q-0.9057,0 -1.875,0 q-0.9693,0 -1.9693,0 q-1,0 -1.9688,0 q-0.9688,0 -1.9688,0.0312 q-1,0.0312 -1.9688,0.0625 q-0.9688,0.0312 -1.9062,0.0938 q-0.9375,0.0625 -1.875,0.125 Z M25.625,16.875 q0.75,0 0.75,0.8125 q0,0.3125 -0.2188,0.5312 q-0.2188,0.2188 -0.5312,0.2188 q-0.8125,0 -0.8125,-0.75 q0,-0.8125 0.8125,-0.8125 Z" fill="#D3D3D3" transform="matrix(1,0,0,-1,-1,305)"/>
  <path d="" fill="#D3D3D3" transform="matrix(1,0,0,-1,38,305)"/>
  <path d="M9.9375,-0.3125 q-2.3125,0.0625 -4.75,0.2812 q-2.4375,0.2188 -4.5,0.8438 q-0.5,0.125 -0.6875,0.5625 q-0.1875,0.4375 0.4375,0.625 q1.125,0.3125 2.4062,1.6562 q1.2812,1.3438 2.4688,3.6562 q0.125,0.1875 0.5,0.2188 q0.375,0.0312 0.8125,-0.1562 q0.3125,-0.125 0.8438,-0.4062 q0.5312,-0.2812 2.1562,-0.5938 q1.625,-0.3125 5.1875,-0.4375 q9.4375,-0.375 21.75,-0.6562 q12.3125,-0.2812 26.875,-0.5 q14.5625,-0.2188 30.8125,-0.3438 q16.25,-0.125 33.5938,-0.2188 q17.3438,-0.0938 35.25,-0.1562 q17.9062,-0.0625 35.75,-0.0312 q17.8438,0.0312 35.0938,0.0938 q17.25,0.0625 33.3125,0.1562 q16.0625,0.0938 30.375,0.25 q14.3125,0.1562 26.2812,0.3125 q11.9688,0.1562 21.0312,0.375 q9.0625,0.2188 14.625,0.4688 q3.5,0.125 5.4062,0.375 q1.9062,0.25 2.1562,0.4375 q0.375,0.3125 0.375,0.75 q0,0.4375 -0.5,0.375 q-1.4375,-0.3125 -3.7812,-0.5312 q-2.3438,-0.2188 -4.75,0.0625 q-2.4062,0.2812 -4.1562,1.4062 q-1.5625,1.0625 -2.4688,2.9375 q-0.9062,1.875 -0.9688,5.125 q0,1.5625 0.6562,3.4688 q0.6562,1.9062 1.9062,3.625 q1.25,1.7188 3.1562,2.875 q1.9062,1.1562 4.4062,1.2188 q2.9375,0.0625 5.4688,-1.7188 q2.5312,-1.7812 4.4375,-4.7812 q1.9062,-3 2.9688,-6.5625 q1.0625,-3.5625 1.125,-7.125 q0.0625,-2.8125 -1.3438,-4.4062 q-1.4062,-1.5938 -3.7812,-2.375 q-2.375,-0.7812 -5.1875,-1.0312 q-2.8125,-0.25 -5.5625,-0.375 q-5.5625,-0.1875 -14.625,-0.375 q-9.0625,-0.1875 -20.9688,-0.3125 q-11.9062,-0.125 -26.125,-0.1875 q-14.2188,-0.0625 -30.25,-0.125 q-16.0312,-0.0625 -33.25,-0.0938 q-17.2188,-0.0312 -35.125,0 q-17.9062,0.0312 -35.9375,0.0625 q-18.0312,0.0312 -35.625,0.125 q-17.5938,0.0938 -34.1875,0.2188 q-16.5938,0.125 -31.6875,0.25 q-15.0938,0.125 -28.0938,0.3125 q-13,0.1875 -23.3125,0.375 Z M361.875,16.875 q0.75,0 0.75,0.8125 q0,0.3125 -0.2188,0.5312 q-0.2188,0.2188 -0.5312,0.2188 q-0.8125,0 -0.8125,-0.75 q0,-0.8125 0.8125,-0.8125 Z" fill="#D3D3D3" transform="matrix(1,0,0,-1,63,305)"/>
  <path d="" fill="#D3D3D3" transform="matrix(1,0,0,-1,438,305)"/>
  <path d="M9.9375,-0.3125 q-2.3125,0.0625 -4.75,0.2812 q-2.4375,0.2188 -4.5,0.8438 q-0.5,0.125 -0.6875,0.5625 q-0.1875,0.4375 0.4375,0.625 q1.125,0.3125 2.4062,1.6562 q1.2812,1.3438 2.4688,3.6562 q0.125,0.1875 0.5,0.2188 q0.375,0.0312 0.8125,-0.1562 q0.3125,-0.125 0.6875,-0.4062 q0.375,-0.2812 1.2188,-0.5625 q0.8438,-0.2812 2.5312,-0.3438 q1.75,-0.0625 3.5,-0.125 q1.75,-0.0625 3.5312,-0.0938 q1.7812,-0.0312 3.5625,-0.0938 q1.7812,-0.0625 3.5312,-0.0938 q1.75,-0.0312 3.5,-0.0312 q1.75,0 3.4375,-0.0312 q1.6875,-0.0312 3.3438,-0.0312 q1.6562,0 3.2188,0 q1.5625,0 3.0312,0.0312 q1.4688,0.0312 2.8438,0.0625 q1.375,0.0312 2.625,0.0625 q1.25,0.0312 2.375,0.0938 q2.1875,0.125 3.8125,0.3125 q1.625,0.1875 2.5,0.4375 q0.5,0.125 0.4375,0.625 q-0.0625,0.5 -0.5625,0.4375 q-1.4375,-0.3125 -3.7812,-0.5312 q-2.3438,-0.2188 -4.75,0.0625 q-2.4062,0.2812 -4.1562,1.4062 q-1.5625,1.0625 -2.4688,2.9375 q-0.9062,1.875 -0.9688,5.125 q0,1.5625 0.6562,3.4688 q0.6562,1.9062 1.9062,3.625 q1.25,1.7188 3.1562,2.875 q1.9062,1.1562 4.4062,1.2188 q2.9375,0.0625 5.4688,-1.7188 q2.5312,-1.7812 4.4375,-4.7812 q1.9062,-3 2.9688,-6.5625 q1.0625,-3.5625 1.125,-7.125 q0,-1.3125 -0.2812,-2.5625 q-0.2812,-1.25 -1.1562,-2.3125 q-0.875,-1.0625 -2.5312,-1.7812 q-1.6562,-0.7188 -4.2812,-1.0312 q-1,-0.125 -2.1875,-0.2188 q-1.1875,-0.0938 -2.5312,-0.1562 q-1.3438,-0.0625 -2.8125,-0.125 q-1.4688,-0.0625 -3.0938,-0.0938 q-1.625,-0.0312 -3.4062,-0.0625 q-1.7812,-0.0312 -3.6875,-0.0312 q-1.9062,0 -3.9375,0.0312 q-2.0312,0.0312 -4.2188,0.0312 q-2.1875,0 -4.5312,0.0312 q-2.3438,0.0312 -4.8125,0.0938 q-2.4688,0.0625 -5.0312,0.125 q-2.5625,0.0625 -5.3125,0.125 Z M50.625,16.875 q0.75,0 0.75,0.8125 q0,0.3125 -0.2188,0.5312 q-0.2188,0.2188 -0.5312,0.2188 q-0.8125,0 -0.8125,-0.75 q0,-0.8125 0.8125,-0.8125 Z" fill="#D3D3D3" transform="matrix(1,0,0,-1,463,305)"/>
  <path d="M7.4375,-0.1875 q-1.375,0.0625 -3.0312,0.2188 q-1.6562,0.1562 -3.7188,0.7812 q-0.5,0.125 -0.6875,0.5625 q-0.1875,0.4375 0.4375,0.625 q1.125,0.3125 2.4062,1.6562 q1.2812,1.3438 2.4688,3.6562 q0.125,0.1875 0.5,0.2188 q0.375,0.0312 0.8125,-0.1562 q0.4375,-0.1875 1.375,-0.4062 q0.9375,-0.2188 2.1875,-0.4062 q0.25,-0.0625 0.5312,-0.0938 q0.2812,-0.0312 0.5312,-0.0312 q0.25,0 0.5364,-0.0208 q0.2864,-0.0208 0.5625,-0.0625 q0.2761,-0.0417 0.5788,-0.0417 q0.3027,0 0.5938,0 q0.2911,0 0.591,0 q0.2999,0 0.5938,0 q0.2938,0 0.594,0 q0.3001,0 0.5938,0.0312 q0.2936,0.0312 0.6061,0.0625 q0.3125,0.0312 0.6139,0.0714 q0.3014,0.0402 0.6028,0.067 q0.3014,0.0268 0.5958,0.0804 q-1.125,2.1875 -4.375,3.3125 q-0.5625,0.1875 -0.5938,0.7812 q-0.0312,0.5938 0.5938,0.6562 q1.625,0.125 3.5312,1.75 q1.9062,1.625 2.7812,4 q0.3125,0.875 0.6875,0.75 q0.375,-0.125 0.6875,-0.5 q1.375,-1.625 2.4375,-3.9375 q1.0625,-2.3125 1.6875,-4.625 q0.625,-2.3125 0.625,-3.9375 q0,-1.8125 -0.375,-2.8438 q-0.375,-1.0312 -1.5938,-1.4688 q-1.2188,-0.4375 -3.7812,-0.625 q-0.5,-0.0625 -0.9688,-0.0625 q-0.4688,0 -0.9688,-0.0312 q-0.5,-0.0312 -1.01,-0.0521 q-0.51,-0.0208 -1,-0.0312 q-0.49,-0.0104 -0.99,-0.026 q-0.5,-0.0156 -1,-0.0312 q-0.5,-0.0156 -1,-0.0156 q-0.5,0 -0.959,0 q-0.459,0 -0.9375,0 q-0.4785,0 -0.9473,0 q-0.4688,0 -0.9062,0.0312 q-0.4375,0.0312 -0.875,0.0312 q-0.4375,0 -0.8438,0.0312 q-0.4062,0.0312 -0.7812,0.0312 Z" fill="#D3D3D3" transform="matrix(1,0,0,-1,6,248)"/>
  <path d="" fill="#D3D3D3" transform="matrix(1,0,0,-1,32,248)"/>
  <path d="M9.9375,-0.3125 q-2.3125,0.0625 -4.75,0.2812 q-2.4375,0.2188 -4.5,0.8438 q-0.5,0.125 -0.6875,0.5625 q-0.1875,0.4375 0.4375,0.625 q1.125,0.3125 2.4062,1.6562 q1.2812,1.3438 2.4688,3.6562 q0.125,0.1875 0.5,0.2188 q0.375,0.0312 0.8125,-0.1562 q0.4375,-0.1875 1.1875,-0.4688 q0.75,-0.2812 3.25,-0.4062 q1.9375,-0.0625 8.3438,-0.125 q6.4062,-0.0625 16.4688,-0.125 q10.0625,-0.0625 23.125,-0.0938 q13.0625,-0.0312 28.4688,-0.0938 q15.4062,-0.0625 32.4375,-0.0625 q17.0312,0 35.0625,-0.0312 q18.0312,-0.0312 36.3273,-0.0312 q18.2961,0 36.2188,0.0312 q17.9227,0.0312 34.7664,0.0312 q16.8438,0 31.9688,0.0625 q15.125,0.0625 27.8125,0.0938 q12.6875,0.0312 22.2812,0.125 q9.5938,0.0938 15.4375,0.1562 q5.8438,0.0625 7.1562,0.1875 q-1.125,2.1875 -4.375,3.3125 q-0.5625,0.1875 -0.5938,0.7812 q-0.0312,0.5938 0.5938,0.6562 q1.625,0.125 3.5312,1.75 q1.9062,1.625 2.7812,4 q0.3125,0.875 0.6875,0.75 q0.375,-0.125 0.6875,-0.5 q1.375,-1.625 2.4375,-3.9375 q1.0625,-2.3125 1.6875,-4.625 q0.625,-2.3125 0.625,-3.9375 q0,-1.8125 -0.375,-2.8125 q-0.375,-1 -1.5938,-1.4688 q-1.2188,-0.4688 -3.7812,-0.5938 q-2.0625,-0.0625 -8.4688,-0.1562 q-6.4062,-0.0938 -16.4062,-0.1562 q-10,-0.0625 -22.9062,-0.125 q-12.9062,-0.0625 -28.125,-0.0938 q-15.2188,-0.0312 -32.0938,-0.0625 q-16.875,-0.0312 -34.75,-0.0625 q-17.875,-0.0312 -36.0625,-0.0312 q-18.1875,0 -36.0938,0 q-17.9062,0 -34.8438,0 q-16.9375,0 -32.25,0.0312 q-15.3125,0.0312 -28.375,0.0625 q-13.0625,0.0312 -23.25,0.0625 q-10.1875,0.0312 -16.7812,0.0938 q-6.5938,0.0625 -8.9062,0.125 Z" fill="#D3D3D3" transform="matrix(1,0,0,-1,57,248)"/>
  <path d="" fill="#D3D3D3" transform="matrix(1,0,0,-1,432,248)"/>
  <path d="M9.9375,-0.3125 q-2.3125,0.0625 -4.75,0.2812 q-2.4375,0.2188 -4.5,0.8438 q-0.5,0.125 -0.6875,0.5625 q-0.1875,0.4375 0.4375,0.625 q1.125,0.3125 2.4062,1.6562 q1.2812,1.3438 2.4688,3.6562 q0.125,0.1875 0.5,0.2188 q0.375,0.0312 0.8125,-0.1562 q0.4375,-0.1875 1.1875,-0.4688 q0.75,-0.2812 3.25,-0.4062 q2,-0.0625 3.875,-0.125 q1.875,-0.0625 3.6875,-0.125 q1.8125,-0.0625 3.5625,-0.0938 q1.75,-0.0312 3.4375,-0.0938 q1.6875,-0.0625 3.3125,-0.0625 q1.625,0 3.1875,-0.0312 q1.5625,-0.0312 3.0938,-0.0312 q1.5312,0 3.0312,0.0312 q1.5,0.0312 2.9375,0.0312 q1.4375,0 2.8438,0.0625 q1.4062,0.0625 2.7812,0.0938 q1.375,0.0312 2.7188,0.125 q1.3438,0.0938 2.6875,0.1562 q1.3438,0.0625 2.6562,0.1875 q-1.125,2.1875 -4.375,3.3125 q-0.5625,0.1875 -0.5938,0.7812 q-0.0312,0.5938 0.5938,0.6562 q1.625,0.125 3.5312,1.75 q1.9062,1.625 2.7812,4 q0.3125,0.875 0.6875,0.75 q0.375,-0.125 0.6875,-0.5 q1.375,-1.625 2.4375,-3.9375 q1.0625,-2.3125 1.6875,-4.625 q0.625,-2.3125 0.625,-3.9375 q0,-1.8125 -0.375,-2.8125 q-0.375,-1 -1.5938,-1.4688 q-1.2188,-0.4688 -3.7812,-0.5938 q-2.0625,-0.0625 -3.9688,-0.1562 q-1.9062,-0.0938 -3.6562,-0.1562 q-1.75,-0.0625 -3.3438,-0.125 q-1.5938,-0.0625 -3.125,-0.0938 q-1.5312,-0.0312 -2.9688,-0.0625 q-1.4375,-0.0312 -2.875,-0.0625 q-1.4375,-0.0312 -2.8438,-0.0312 q-1.4062,0 -2.875,0 q-1.4688,0 -3,0 q-1.5312,0 -3.125,0.0312 q-1.5938,0.0312 -3.3438,0.0625 q-1.75,0.0312 -3.6562,0.0625 q-1.9062,0.0312 -4.0312,0.0938 q-2.125,0.0625 -4.4375,0.125 Z" fill="#D3D3D3" transform="matrix(1,0,0,-1,457,248)"/>
  <path d="M11.375,-20.75 q-2.3125,-0.25 -5.2188,-0.1562 q-2.9062,0.0938 -5.4688,0.625 q-2.5625,0.5312 -3.9375,1.5312 q-0.5,0.375 -0.5938,0.875 q-0.0938,0.5 0.5938,0.75 q1.125,0.5 2.5312,1.8438 q1.4062,1.3438 2.4688,3.2812 q0.125,0.3125 0.4062,0.25 q0.2812,-0.0625 0.4688,-0.1875 q0.9375,-0.75 3.75,-0.9688 q2.8125,-0.2188 6.9375,0.7188 l-3.875,-3.3125 q0.3125,4.8125 0.375,9.5 q0.0625,4.6875 -0.1875,7.75 q-0.25,3.25 -1.5312,5.0938 q-1.2812,1.8438 -3.2188,3.0312 q-1.9375,1.1875 -4.1875,2.3125 q-0.75,0.375 -0.7188,0.875 q0.0312,0.5 1.2188,0.6875 q1.8125,0.3125 3.1562,1.9688 q1.3438,1.6562 1.5938,4.1562 q0.0625,0.5 0.3438,0.5 q0.2812,0 0.9062,-0.125 q3.875,-1.0625 5.8438,-4.8438 q1.9688,-3.7812 2.3438,-9.0312 q0.25,-3.375 0.25,-7.1562 q0,-3.7812 -0.0312,-6.9375 q-0.0312,-3.1562 -0.0312,-4.7188 q0.0625,-2.25 -0.1875,-3.75 q-0.25,-1.5 -0.5625,-2.375 q-0.4375,-1.3125 -1.4688,-1.6875 q-1.0312,-0.375 -1.9688,-0.5 Z M13,0 l-1,16.125 q0.375,-0.125 0.8125,-0.2188 q0.4375,-0.0938 0.9062,-0.1875 q0.4688,-0.0938 0.9688,-0.1875 q0.5,-0.0938 1,-0.125 q0.5,-0.0312 1.0312,-0.0938 q0.5312,-0.0625 1.0688,-0.0938 q0.5375,-0.0312 1.0625,-0.0312 q0.525,0 1.0875,-0.0312 q0.5625,-0.0312 1.125,-0.0312 q0.5625,0 1.1547,0.0208 q0.5922,0.0208 1.1555,0.0417 q0.5633,0.0208 1.1266,0.0417 q0.5633,0.0208 1.1258,0.0521 q0.5625,0.0312 1.125,0.0625 q0.5625,0.0312 1.125,0.0312 q1.125,0.0625 1.5312,-0.4688 q0.4062,-0.5312 0.9688,-1.8438 q0.75,-1.6875 1.6562,-4.0625 q0.9062,-2.375 0.9688,-5.4375 q0.0625,-1.25 -1.0312,-2.3 q-1.0938,-1.05 -2.2188,-1.2 q-0.431,-0.025 -0.8717,-0.0438 q-0.4408,-0.0187 -0.8783,-0.05 q-0.4375,-0.0312 -0.9062,-0.0521 q-0.4688,-0.0208 -0.9375,-0.0312 q-0.4688,-0.0104 -0.9688,-0.0417 q-0.5,-0.0312 -1.0312,-0.0312 q-0.5312,0 -1.0625,0 q-0.5312,0 -1.1068,0 q-0.5756,0 -1.125,0 q-0.5494,0 -1.1744,0 q-0.625,0 -1.25,0.0312 q-0.625,0.0312 -1.2812,0.0312 q-0.6562,0 -1.3529,0.0312 q-0.6967,0.0312 -1.375,0.0625 q-0.6783,0.0312 -1.4283,0.0312 Z M22.125,6.8125 q1.375,0.1324 1.625,0.364 q0.25,0.2316 0.125,0.6287 q-0.0625,0.1324 -0.2188,0.2261 q-0.1562,0.0938 -0.6562,0.0312 q-0.2242,-0.0156 -0.4558,-0.0391 q-0.2317,-0.0234 -0.4409,-0.0234 q-0.2092,0 -0.4252,0 q-0.216,0 -0.4252,0 q-0.2093,0 -0.4185,0 q-0.2092,0 -0.428,-0.0312 q-0.2188,-0.0312 -0.4219,-0.0312 q-0.2031,0 -0.4062,0 q-0.2031,0 -0.4219,0 q-0.2188,0 -0.4375,0 q-0.2188,0 -0.4375,0 q-0.2188,0 -0.4688,0.0156 q-0.25,0.0156 -0.5,0.0312 q-0.25,0.0156 -0.5417,0.0156 q-0.2917,0 -0.5833,0 q0.125,-0.3971 0.4062,-0.7279 q0.2812,-0.3309 1.0938,-0.3971 q0.0625,0 0.1671,-0.0208 q0.1046,-0.0208 0.2192,-0.0417 q0.1146,-0.0208 0.2391,-0.0417 q0.1245,-0.0208 0.2702,-0.0208 q0.1457,0 0.3026,0 q0.1569,0 0.3194,0 q0.1625,0 0.3362,0 q0.1737,0 0.3474,0 q0.1737,0 0.3365,0 q0.1628,0 0.3257,0 q0.1628,0 0.3257,0 q0.1628,0 0.3306,0 q0.1678,0 0.3178,0.0078 q0.15,0.0078 0.3,0.0234 q0.15,0.0156 0.3,0.0312 Z" fill="#D3D3D3" transform="matrix(1,0,0,-1,6.5,191)"/>
  <path d="" fill="#D3D3D3" transform="matrix(1,0,0,-1,39.5,191)"/>
  <path d="M11.375,-20.75 q-2.3125,-0.25 -5.2188,-0.1562 q-2.9062,0.0938 -5.4688,0.625 q-2.5625,0.5312 -3.9375,1.5312 q-0.5,0.375 -0.5938,0.875 q-0.0938,0.5 0.5938,0.75 q1.125,0.5 2.5312,1.8438 q1.4062,1.3438 2.4688,3.2812 q0.125,0.3125 0.4062,0.25 q0.2812,-0.0625 0.4688,-0.1875 q0.9375,-0.75 3.75,-0.9688 q2.8125,-0.2188 6.9375,0.7188 l-3.875,-3.3125 q0.3125,4.8125 0.375,9.5 q0.0625,4.6875 -0.1875,7.75 q-0.25,3.25 -1.5312,5.0938 q-1.2812,1.8438 -3.2188,3.0312 q-1.9375,1.1875 -4.1875,2.3125 q-0.75,0.375 -0.7188,0.875 q0.0312,0.5 1.2188,0.6875 q1.8125,0.3125 3.1562,1.9688 q1.3438,1.6562 1.5938,4.1562 q0.0625,0.5 0.3438,0.5 q0.2812,0 0.9062,-0.125 q3.875,-1.0625 5.8438,-4.8438 q1.9688,-3.7812 2.3438,-9.0312 q0.25,-3.375 0.25,-7.1562 q0,-3.7812 -0.0312,-6.9375 q-0.0312,-3.1562 -0.0312,-4.7188 q0.0625,-2.25 -0.1875,-3.75 q-0.25,-1.5 -0.5625,-2.375 q-0.4375,-1.3125 -1.4688,-1.6875 q-1.0312,-0.375 -1.9688,-0.5 Z M12.0625,0 l-1,16.125 q1.4375,-0.1875 6.875,-0.3438 q5.4375,-0.1562 14.2812,-0.2812 q8.8438,-0.125 20.5,-0.2188 q11.6562,-0.0938 25.5938,-0.1562 q13.9375,-0.0625 29.5938,-0.0938 q15.6562,-0.0312 32.375,-0.0625 q16.7188,-0.0312 34.0312,-0.0312 q17.3125,0 34.5938,0 q17.2812,0 33.9688,0.0312 q16.6875,0.0312 32.2188,0.0625 q15.5312,0.0312 29.3125,0.0625 q13.7812,0.0312 25.2812,0.0625 q11.5,0.0312 20.125,0.0625 q8.625,0.0312 13.7812,0.0938 q5.1562,0.0625 6.2812,0.0625 q1.125,0.0625 1.5312,-0.4688 q0.4062,-0.5312 0.9688,-1.8438 q0.75,-1.6875 1.6562,-4.0625 q0.9062,-2.375 0.9688,-5.4375 q0.0625,-1.25 -1.0312,-2.125 q-1.0938,-0.875 -2.2188,-1 q-1.375,-0.1875 -6.8125,-0.3125 q-5.4375,-0.125 -14.3125,-0.25 q-8.875,-0.125 -20.5625,-0.1875 q-11.6875,-0.0625 -25.6562,-0.125 q-13.9688,-0.0625 -29.625,-0.0938 q-15.6562,-0.0312 -32.4688,-0.0312 q-16.8125,0 -34.1562,0 q-17.3438,0 -34.6562,0.0312 q-17.3125,0.0312 -34.0625,0.0625 q-16.75,0.0312 -32.3125,0.0625 q-15.5625,0.0312 -29.4062,0.0938 q-13.8438,0.0625 -25.375,0.0938 q-11.5312,0.0312 -20.1562,0.0625 q-8.625,0.0312 -13.8125,0.0938 q-5.1875,0.0625 -6.3125,0.0625 Z M364.125,6.875 q1.375,0.125 1.625,0.3438 q0.25,0.2188 0.125,0.5938 q-0.0625,0.125 -0.2188,0.25 q-0.1562,0.125 -0.6562,0.0625 q-0.9375,-0.0625 -5.9375,-0.1562 q-5,-0.0938 -13.4375,-0.125 q-8.4375,-0.0312 -19.6875,-0.0938 q-11.25,-0.0625 -24.7812,-0.0938 q-13.5312,-0.0312 -28.7812,-0.0312 q-15.25,0 -31.625,0 q-16.375,0 -33.3125,0 q-16.9375,0 -33.9062,0 q-16.9688,0 -33.375,0.0312 q-16.4062,0.0312 -31.6875,0.0625 q-15.2812,0.0312 -28.8438,0.0312 q-13.5625,0 -24.875,0.0312 q-11.3125,0.0312 -19.7812,0.0625 q-8.4688,0.0312 -13.5625,0.0938 q-5.0938,0.0625 -6.1562,0.0625 q0.125,-0.375 0.4062,-0.6875 q0.2812,-0.3125 1.0938,-0.375 q0.5625,0 5.25,-0.0312 q4.6875,-0.0312 12.8438,-0.0625 q8.1562,-0.0312 19.2188,-0.0625 q11.0625,-0.0312 24.4375,-0.0625 q13.375,-0.0312 28.5312,-0.0625 q15.1562,-0.0312 31.4688,-0.0625 q16.3125,-0.0312 33.2188,-0.0312 q16.9062,0 33.875,-0.0312 q16.9688,-0.0312 33.375,-0.0312 q16.4062,0 31.7188,0 q15.3125,0 28.9062,0.0312 q13.5938,0.0312 24.9375,0.0625 q11.3438,0.0312 19.8438,0.0625 q8.5,0.0312 13.5938,0.0938 q5.0938,0.0625 6.1562,0.125 Z" fill="#D3D3D3" transform="matrix(1,0,0,-1,64.5,191)"/>
  <path d="" fill="#D3D3D3" transform="matrix(1,0,0,-1,439.5,191)"/>
  <path d="M11.375,-20.75 q-2.3125,-0.25 -5.2188,-0.1562 q-2.9062,0.0938 -5.4688,0.625 q-2.5625,0.5312 -3.9375,1.5312 q-0.5,0.375 -0.5938,0.875 q-0.0938,0.5 0.5938,0.75 q1.125,0.5 2.5312,1.8438 q1.4062,1.3438 2.4688,3.2812 q0.125,0.3125 0.4062,0.25 q0.2812,-0.0625 0.4688,-0.1875 q0.9375,-0.75 3.75,-0.9688 q2.8125,-0.2188 6.9375,0.7188 l-3.875,-3.3125 q0.3125,4.8125 0.375,9.5 q0.0625,4.6875 -0.1875,7.75 q-0.25,3.25 -1.5312,5.0938 q-1.2812,1.8438 -3.2188,3.0312 q-1.9375,1.1875 -4.1875,2.3125 q-0.75,0.375 -0.7188,0.875 q0.0312,0.5 1.2188,0.6875 q1.8125,0.3125 3.1562,1.9688 q1.3438,1.6562 1.5938,4.1562 q0.0625,0.5 0.3438,0.5 q0.2812,0 0.9062,-0.125 q3.875,-1.0625 5.8438,-4.8438 q1.9688,-3.7812 2.3438,-9.0312 q0.25,-3.375 0.25,-7.1562 q0,-3.7812 -0.0312,-6.9375 q-0.0312,-3.1562 -0.0312,-4.7188 q0.0625,-2.25 -0.1875,-3.75 q-0.25,-1.5 -0.5625,-2.375 q-0.4375,-1.3125 -1.4688,-1.6875 q-1.0312,-0.375 -1.9688,-0.5 Z M12.0625,0 l-1,16.125 q1.4375,-0.1875 2.8438,-0.3438 q1.4062,-0.1562 2.8125,-0.2812 q1.4062,-0.125 2.7812,-0.2188 q1.375,-0.0938 2.75,-0.1562 q1.375,-0.0625 2.75,-0.0938 q1.375,-0.0312 2.7188,-0.0625 q1.3438,-0.0312 2.6562,-0.0312 q1.3125,0 2.625,0 q1.3125,0 2.5938,0.0312 q1.2812,0.0312 2.5625,0.0625 q1.2812,0.0312 2.5,0.0625 q1.2188,0.0312 2.4375,0.0625 q1.2188,0.0312 2.4062,0.0625 q1.1875,0.0312 2.3125,0.0938 q1.125,0.0625 2.25,0.0625 q1.125,0.0625 1.5312,-0.4688 q0.4062,-0.5312 0.9688,-1.8438 q0.75,-1.6875 1.6562,-4.0625 q0.9062,-2.375 0.9688,-5.4375 q0.0625,-1.25 -1.0312,-2.125 q-1.0938,-0.875 -2.2188,-1 q-1.375,-0.125 -2.7812,-0.2188 q-1.4062,-0.0938 -2.8438,-0.1562 q-1.4375,-0.0625 -2.8438,-0.125 q-1.4062,-0.0625 -2.8125,-0.0938 q-1.4062,-0.0312 -2.8125,-0.0625 q-1.4062,-0.0312 -2.7812,-0.0312 q-1.375,0 -2.75,0 q-1.375,0 -2.75,0 q-1.375,0 -2.6875,0 q-1.3125,0 -2.625,0.0312 q-1.3125,0.0312 -2.5938,0.0312 q-1.2812,0 -2.5312,0.0312 q-1.25,0.0312 -2.4375,0.0625 q-1.1875,0.0312 -2.3438,0.0625 q-1.1562,0.0312 -2.2812,0.0312 Z M44.3125,6.875 q1.375,0.125 1.625,0.3438 q0.25,0.2188 0.125,0.5938 q-0.0625,0.125 -0.2188,0.25 q-0.1562,0.125 -0.6562,0.0625 q-0.9375,-0.0625 -1.9062,-0.1562 q-0.9688,-0.0938 -1.9375,-0.125 q-0.9688,-0.0312 -1.9688,-0.0938 q-1,-0.0625 -1.9688,-0.0938 q-0.9688,-0.0312 -1.9375,-0.0312 q-0.9688,0 -1.9375,0 q-0.9688,0 -1.9688,0 q-1,0 -2,0 q-1,0 -2,0.0312 q-1,0.0312 -2,0.0625 q-1,0.0312 -2,0.0312 q-1,0 -2.0312,0.0312 q-1.0312,0.0312 -2.0625,0.0625 q-1.0312,0.0312 -2.0938,0.0938 q-1.0625,0.0625 -2.125,0.0625 q0.125,-0.375 0.4062,-0.6875 q0.2812,-0.3125 1.0938,-0.375 q0.5625,0 1.2188,-0.0312 q0.6562,-0.0312 1.375,-0.0625 q0.7188,-0.0312 1.5,-0.0625 q0.7812,-0.0312 1.5938,-0.0625 q0.8125,-0.0312 1.6875,-0.0625 q0.875,-0.0312 1.7812,-0.0625 q0.9062,-0.0312 1.875,-0.0312 q0.9688,0 1.9375,-0.0312 q0.9688,-0.0312 2,-0.0312 q1.0312,0 2.0625,0 q1.0312,0 2.0625,0.0312 q1.0312,0.0312 2.0938,0.0625 q1.0625,0.0312 2.125,0.0625 q1.0625,0.0312 2.125,0.0938 q1.0625,0.0625 2.125,0.125 Z" fill="#D3D3D3" transform="matrix(1,0,0,-1,464.5,191)"/>
  <path d="M11.5625,-0.875 q-3.8125,0.0625 -6.6875,0.5312 q-2.875,0.4688 -4.3125,1.3438 q-0.6875,0.4375 -0.5312,1.1562 q0.1562,0.7188 0.8438,0.4062 q0.3125,-0.125 0.4375,-0.1875 q0.125,-0.0625 0.375,0.0625 q1.3125,0.625 2.6562,1.9062 q1.3438,1.2812 2.2812,2.4062 q0.3125,0.375 0.9062,0.5312 q0.5938,0.1562 1.2188,-0.3438 q0.5,-0.375 1.7188,-0.6562 q1.2188,-0.2812 2.8438,-0.3438 q0.1875,0 0.3317,0 q0.1442,0 0.3125,0 q0.1683,0 0.3245,-0.0312 q0.1562,-0.0312 0.3046,-0.0312 q0.1483,0 0.3125,0 q0.1642,0 0.3015,0 q0.1373,0 0.2827,0 q0.1454,0 0.2949,0 q0.1494,0 0.311,0 q0.1616,0 0.3292,0 q0.1677,0 0.3438,0 q0.1761,0 0.3323,0.0312 q0.1562,0.0312 0.3572,0.0312 q0.2009,0 0.4019,0 q0.2009,0 0.3972,0 q1.375,0.0625 1.625,0.3438 q0.25,0.2812 0.125,0.6562 q-0.0625,0.125 -0.2188,0.2188 q-0.1562,0.0938 -0.6562,0.0938 q-0.15,0 -0.3,0 q-0.15,0 -0.3,0 q-0.15,0 -0.3062,-0.0312 q-0.1562,-0.0312 -0.3359,-0.0312 q-0.1797,0 -0.3594,0 q-0.1797,0 -0.3594,0 q-0.1797,0 -0.3594,0 q-0.1797,0 -0.3859,0 q-0.2063,0 -0.4062,0 q-0.2,0 -0.3719,0 q-0.1719,0 -0.3438,0 q-0.1719,0 -0.3281,0.0156 q-0.1562,0.0156 -0.3125,0.0312 q-0.1562,0.0156 -0.3021,0.0156 q-0.1458,0 -0.2917,0 q-0.875,0.0625 -2.0312,0.1875 q-1.1562,0.125 -1.9801,0.5625 q-0.8239,0.4375 -0.8239,1.3125 q-0.0568,7.0625 -0.0284,13.7812 q0.0284,6.7188 -0.142,12.2188 q-0.0568,2.125 -0.3381,3.4375 q-0.2812,1.3125 -0.2812,2.125 q0,0.8125 0.75,1.375 q1.125,0.8125 2.3438,2.0938 q1.2188,1.2812 2.2188,3.1562 q0.25,0.4375 0.4688,0.4062 q0.2188,-0.0312 0.2812,-0.5312 q0.125,-1.75 0.25,-3.4375 q0.125,-1.6875 0.1875,-3.4375 q0.125,-3.0625 0.0312,-6.4999 q-0.0938,-3.4374 -0.2188,-6.7487 q-0.125,-3.3113 -0.1875,-6.0549 q-0.0625,-2.7436 0.0625,-4.4466 q0.125,-1.875 2.125,-1.9375 q0.1979,0 0.402,0 q0.2041,0 0.4206,0 q0.2165,0 0.4329,0 q0.2165,0 0.4391,0 q0.2227,0 0.4515,0 q0.2288,0 0.4476,0 q0.2188,0 0.4688,-0.0312 q0.25,-0.0312 0.4813,-0.0312 q0.2312,0 0.4688,0 q0.2375,0 0.4875,0 q0.25,0 0.5,0 q0.25,0 0.5391,0 q0.2891,0 0.5781,0 q0.2891,0 0.5703,0 q0.2812,0 0.5625,0 q1.125,0 1.5312,-0.5 q0.4062,-0.5 0.9688,-1.8125 q0.75,-1.6875 1.6562,-4.0625 q0.9062,-2.375 0.9688,-5.4375 q0.0625,-1.25 -1.0312,-2.1542 q-1.0938,-0.9042 -2.2188,-1.0333 q-0.625,-0.0625 -1.2188,-0.0938 q-0.5938,-0.0312 -1.125,-0.0938 q-0.5312,-0.0625 -1.0312,-0.0938 q-0.5,-0.0312 -0.9267,-0.0521 q-0.4267,-0.0208 -0.8438,-0.0625 q-0.417,-0.0417 -0.8233,-0.0729 q-0.4062,-0.0312 -0.7924,-0.0625 q-0.3861,-0.0312 -0.7812,-0.0312 q-0.3951,0 -0.8014,-0.0312 q-0.4062,-0.0312 -0.8233,-0.0312 q-0.417,0 -0.8437,0 q-0.4267,0 -0.9267,-0.0312 q-0.5,-0.0312 -1.0312,0 q-0.5312,0.0312 -1.1399,0.0312 q-0.6087,0 -1.2038,0 Z" fill="#D3D3D3" transform="matrix(1,0,0,-1,8,134)"/>
  <path d="" fill="#D3D3D3" transform="matrix(1,0,0,-1,37,134)"/>
  <path d="M11.5625,-0.875 q-3.8125,0.0625 -6.6875,0.5312 q-2.875,0.4688 -4.3125,1.3438 q-0.6875,0.4375 -0.5312,1.1562 q0.1562,0.7188 0.8438,0.4062 q0.3125,-0.125 0.4375,-0.1875 q0.125,-0.0625 0.375,0.0625 q1.3125,0.625 2.6562,1.9062 q1.3438,1.2812 2.2812,2.4062 q0.3125,0.375 0.9062,0.5312 q0.5938,0.1562 1.2188,-0.3438 q0.5,-0.375 1.7188,-0.5625 q1.2188,-0.1875 2.8438,-0.3125 q0.4375,0 5,-0.0312 q4.5625,-0.0312 12.6562,-0.0625 q8.0938,-0.0312 19.125,-0.0625 q11.0312,-0.0312 24.4375,-0.0625 q13.4062,-0.0312 28.625,-0.0625 q15.2188,-0.0312 31.625,-0.0312 q16.4062,0 33.4688,-0.0312 q17.0625,-0.0312 34.1562,-0.0312 q17.0938,0 33.6875,0 q16.5938,0 32.0938,0.0312 q15.5,0.0312 29.3438,0.0625 q13.8438,0.0312 25.4062,0.0625 q11.5625,0.0312 20.3438,0.0938 q8.7812,0.0625 14.1562,0.1562 q5.375,0.0938 6.6875,0.1562 q1.375,0.125 1.625,0.3438 q0.25,0.2188 0.125,0.5938 q-0.0625,0.125 -0.2188,0.25 q-0.1562,0.125 -0.6562,0.0625 q-1,-0.0625 -6.0312,-0.1562 q-5.0312,-0.0938 -13.4375,-0.1562 q-8.4062,-0.0625 -19.6875,-0.0938 q-11.2812,-0.0312 -24.8125,-0.0625 q-13.5312,-0.0312 -28.75,-0.0625 q-15.2188,-0.0312 -31.5938,-0.0312 q-16.375,0 -33.2812,0 q-16.9062,0 -33.8438,0 q-16.9375,0 -33.3125,0 q-16.375,0 -31.5938,0.0312 q-15.2188,0.0312 -28.75,0.0625 q-13.5312,0.0312 -24.8125,0.0625 q-11.2812,0.0312 -19.6875,0.0625 q-8.4062,0.0312 -13.4375,0.0625 q-5.0312,0.0312 -6.0312,0.0312 q-1.8125,0.0625 -3.3438,0.1875 q-1.5312,0.125 -2.4375,0.5625 q-0.9062,0.4375 -0.9062,1.3125 q-0.0625,7.0625 -0.0312,13.7812 q0.0312,6.7188 -0.1562,12.2188 q-0.0625,2.125 -0.3438,3.4375 q-0.2812,1.3125 -0.2812,2.125 q0,0.8125 0.75,1.375 q1.125,0.8125 2.3438,2.0938 q1.2188,1.2812 2.2188,3.1562 q0.25,0.4375 0.4688,0.4062 q0.2188,-0.0312 0.2812,-0.5312 q0.125,-1.75 0.25,-3.4375 q0.125,-1.6875 0.1875,-3.4375 q0.125,-3.0625 0.0312,-6.4688 q-0.0938,-3.4062 -0.2188,-6.6875 q-0.125,-3.2812 -0.1875,-6 q-0.0625,-2.7188 0.0625,-4.4062 q0.0625,-1.75 2.125,-1.9375 q1,-0.0625 6.0625,-0.125 q5.0625,-0.0625 13.5625,-0.125 q8.5,-0.0625 19.875,-0.0938 q11.375,-0.0312 25.0312,-0.0625 q13.6562,-0.0312 29.0312,-0.0625 q15.375,-0.0312 31.875,-0.0312 q16.5,0 33.625,0 q17.125,0 34.2188,0 q17.0938,0 33.6562,0 q16.5625,0 31.9688,0 q15.4062,0 29.0938,0.0312 q13.6875,0.0312 25.125,0.0625 q11.4375,0.0312 20,0.0625 q8.5625,0.0312 13.7188,0.0625 q5.1562,0.0312 6.2812,0.0312 q1.125,0.0625 1.5312,-0.4688 q0.4062,-0.5312 0.9688,-1.8438 q0.75,-1.6875 1.6562,-4.0625 q0.9062,-2.375 0.9688,-5.4375 q0.0625,-1.25 -1.0312,-2.0938 q-1.0938,-0.8438 -2.2188,-1.0312 q-1.5625,-0.25 -7.125,-0.4688 q-5.5625,-0.2188 -14.4688,-0.3438 q-8.9062,-0.125 -20.5938,-0.25 q-11.6875,-0.125 -25.5938,-0.1875 q-13.9062,-0.0625 -29.5,-0.0938 q-15.5938,-0.0312 -32.3125,-0.0625 q-16.7188,-0.0312 -33.9688,0 q-17.25,0.0312 -34.4688,0.0625 q-17.2188,0.0312 -33.9062,0.0938 q-16.6875,0.0625 -32.2188,0.0938 q-15.5312,0.0312 -29.3438,0.0938 q-13.8125,0.0625 -25.4062,0.125 q-11.5938,0.0625 -20.3438,0.125 q-8.75,0.0625 -14.1562,0.0938 q-5.4062,0.0312 -6.7812,0.0312 Z" fill="#D3D3D3" transform="matrix(1,0,0,-1,62,134)"/>
  <path d="" fill="#D3D3D3" transform="matrix(1,0,0,-1,437,134)"/>
  <path d="M11.5625,-0.875 q-3.8125,0.0625 -6.6875,0.5312 q-2.875,0.4688 -4.3125,1.3438 q-0.6875,0.4375 -0.5312,1.1562 q0.1562,0.7188 0.8438,0.4062 q0.3125,-0.125 0.4375,-0.1875 q0.125,-0.0625 0.375,0.0625 q1.3125,0.625 2.6562,1.9062 q1.3438,1.2812 2.2812,2.4062 q0.3125,0.375 0.9062,0.5312 q0.5938,0.1562 1.2188,-0.3438 q0.5,-0.375 1.7188,-0.5625 q1.2188,-0.1875 2.8438,-0.3125 q0.4375,0 1,-0.0312 q0.5625,-0.0312 1.2188,-0.0625 q0.6562,-0.0312 1.4375,-0.0625 q0.7812,-0.0312 1.6562,-0.0625 q0.875,-0.0312 1.8438,-0.0625 q0.9688,-0.0312 2.0312,-0.0312 q1.0625,0 2.1875,-0.0312 q1.125,-0.0312 2.2812,-0.0312 q1.1562,0 2.4062,0 q1.25,0 2.5,0.0312 q1.25,0.0312 2.5625,0.0625 q1.3125,0.0312 2.6562,0.0625 q1.3438,0.0312 2.6875,0.0938 q1.3438,0.0625 2.6875,0.1562 q1.3438,0.0938 2.6562,0.1562 q1.375,0.125 1.625,0.3438 q0.25,0.2188 0.125,0.5938 q-0.0625,0.125 -0.2188,0.25 q-0.1562,0.125 -0.6562,0.0625 q-1,-0.0625 -2,-0.1562 q-1,-0.0938 -2,-0.1562 q-1,-0.0625 -2,-0.0938 q-1,-0.0312 -2,-0.0625 q-1,-0.0312 -2,-0.0625 q-1,-0.0312 -2,-0.0312 q-1,0 -2,0 q-1,0 -2.0312,0 q-1.0312,0 -2.0312,0 q-1,0 -2,0.0312 q-1,0.0312 -2,0.0625 q-1,0.0312 -2,0.0625 q-1,0.0312 -2,0.0625 q-1,0.0312 -2,0.0625 q-1,0.0312 -2,0.0312 q-1.8125,0.0625 -3.3438,0.1875 q-1.5312,0.125 -2.4375,0.5625 q-0.9062,0.4375 -0.9062,1.3125 q-0.0625,7.0625 -0.0312,13.7812 q0.0312,6.7188 -0.1562,12.2188 q-0.0625,2.125 -0.3438,3.4375 q-0.2812,1.3125 -0.2812,2.125 q0,0.8125 0.75,1.375 q1.125,0.8125 2.3438,2.0938 q1.2188,1.2812 2.2188,3.1562 q0.25,0.4375 0.4688,0.4062 q0.2188,-0.0312 0.2812,-0.5312 q0.125,-1.75 0.25,-3.4375 q0.125,-1.6875 0.1875,-3.4375 q0.125,-3.0625 0.0312,-6.4688 q-0.0938,-3.4062 -0.2188,-6.6875 q-0.125,-3.2812 -0.1875,-6 q-0.0625,-2.7188 0.0625,-4.4062 q0.0625,-1.75 2.125,-1.9375 q1,-0.0625 2.0312,-0.125 q1.0312,-0.0625 2.125,-0.125 q1.0938,-0.0625 2.1875,-0.0938 q1.0938,-0.0312 2.2188,-0.0625 q1.125,-0.0312 2.2812,-0.0625 q1.1562,-0.0312 2.3125,-0.0312 q1.1562,0 2.3438,0 q1.1875,0 2.3438,0 q1.1562,0 2.3438,0 q1.1875,0 2.375,0 q1.1875,0 2.375,0.0312 q1.1875,0.0312 2.3438,0.0625 q1.1562,0.0312 2.3125,0.0625 q1.1562,0.0312 2.2812,0.0625 q1.125,0.0312 2.25,0.0312 q1.125,0.0625 1.5312,-0.4688 q0.4062,-0.5312 0.9688,-1.8438 q0.75,-1.6875 1.6562,-4.0625 q0.9062,-2.375 0.9688,-5.4375 q0.0625,-1.25 -1.0312,-2.125 q-1.0938,-0.875 -2.2188,-1 q-1.375,-0.125 -2.7812,-0.2188 q-1.4062,-0.0938 -2.7812,-0.1562 q-1.375,-0.0625 -2.75,-0.125 q-1.375,-0.0625 -2.75,-0.0938 q-1.375,-0.0312 -2.7188,-0.0938 q-1.3438,-0.0625 -2.7188,-0.0625 q-1.375,0 -2.7188,-0.0312 q-1.3438,-0.0312 -2.7188,-0.0312 q-1.375,0 -2.75,0 q-1.375,0 -2.7188,0 q-1.3438,0 -2.7188,0 q-1.375,0 -2.75,0.0312 q-1.375,0.0312 -2.75,0.0312 q-1.375,0 -2.7812,0.0312 q-1.4062,0.0312 -2.7812,0.0312 Z" fill="#D3D3D3" transform="matrix(1,0,0,-1,462,134)"/>
  <path d="M12.625,-0.75 q-1.3125,0 -3.0938,0.0938 q-1.7812,0.0938 -3.5625,0.25 q-1.7812,0.1562 -3.1875,0.4375 q-1.4062,0.2812 -2.0312,0.7188 q-0.375,0.3125 -0.6875,0.6562 q-0.3125,0.3438 0.25,0.5312 q0.6875,0.3125 1.4375,1 q0.75,0.6875 0.8125,2.375 q0.375,6.6875 0.5938,12.5312 q0.2188,5.8438 0.1875,11.625 q-0.0312,5.7812 -0.4688,12.2188 q-0.0625,1.0625 -0.0312,1.7188 q0.0312,0.6562 0.6562,1.0938 q1.125,0.8125 2.5938,1.9688 q1.4688,1.1562 2.0938,3.0312 q0.125,0.4375 0.5,0.4062 q0.375,-0.0312 0.4375,-0.5312 q0.3125,-1.75 0.4688,-3.3125 q0.1562,-1.5625 0.2812,-3.3125 q0.125,-1.25 0.125,-3.875 q0,-2.625 -0.0625,-5.9062 q-0.0625,-3.2812 -0.1562,-6.5625 q-0.0938,-3.2812 -0.1875,-5.9375 q-0.0938,-2.6562 -0.1562,-4.0312 q-0.0625,-0.875 0.0625,-1.0625 q0.125,-0.1875 1.0625,-0.375 q0.2562,-0.0417 0.5284,-0.0833 q0.2722,-0.0417 0.5524,-0.0833 q0.2802,-0.0417 0.5684,-0.0625 q0.2882,-0.0208 0.5851,-0.0521 q0.2969,-0.0312 0.5938,-0.0625 q0.2969,-0.0312 0.6094,-0.0312 q0.3125,0 0.625,-0.0312 q0.3125,-0.0312 0.6765,-0.0312 q0.364,0 0.7188,0 q0.3547,0 0.7662,0 q0.4115,0 0.8125,0 q0.401,0 0.8443,0 q0.4433,0 0.875,0 q0.4317,0 0.9317,0.0312 q0.5,0.0312 1,0.0312 q1.125,0.0625 1.5312,-0.4062 q0.4062,-0.4688 0.9688,-1.7812 q0.75,-1.6875 1.6562,-4.0625 q0.9062,-2.375 0.9688,-5.4375 q0.0625,-1.25 -1.0312,-2.0938 q-1.0938,-0.8438 -2.2188,-1.1562 q-0.1875,-0.0625 -0.4062,-0.1094 q-0.2188,-0.0469 -0.4375,-0.0625 q-0.2188,-0.0156 -0.4723,-0.0573 q-0.2535,-0.0417 -0.5,-0.0625 q-0.2465,-0.0208 -0.5277,-0.0521 q-0.2812,-0.0312 -0.5938,-0.0312 q-0.3125,0 -0.6515,-0.0312 q-0.339,-0.0312 -0.6875,-0.0312 q-0.3485,0 -0.7391,0 q-0.3906,0 -0.7812,0 q-0.3906,0 -0.8438,0 q-0.4531,0 -0.9062,0 q-0.4531,0 -0.9375,0 q-0.4844,0 -0.9688,0 q-0.4844,0 -1.0469,0 Z M15.5625,6 q1.375,0 1.5938,0.4062 q0.2188,0.4062 0.0938,0.7812 q-0.0625,0.125 -0.1875,0.0938 q-0.125,-0.0312 -0.625,-0.0312 q-0.2205,0 -0.454,0 q-0.2335,0 -0.4647,0 q-0.2312,0 -0.4688,0 q-0.2375,0 -0.4875,0 q-0.25,0 -0.5,0.0312 q-0.25,0.0312 -0.5,0.0312 q-0.25,0 -0.5312,0.0312 q-0.2812,0.0312 -0.5938,0.0312 q-0.3125,0 -0.6337,0.0208 q-0.3212,0.0208 -0.625,0.0625 q-0.3038,0.0417 -0.6788,0.1042 q-0.375,0.0625 -0.75,0.0938 q-0.375,0.0312 -0.7812,0.0938 q-0.4062,0.0625 -0.8438,0.1562 q-0.4375,0.0938 -0.875,0.1562 l1.3125,1.875 q-0.0625,-0.6875 -0.0938,-1.375 q-0.0312,-0.6875 -0.0938,-1.375 q0,-0.4375 1.25,-0.6875 q0.1786,-0.0417 0.4018,-0.0833 q0.2232,-0.0417 0.4426,-0.0729 q0.2194,-0.0312 0.4688,-0.0625 q0.2493,-0.0312 0.4714,-0.0729 q0.222,-0.0417 0.4688,-0.0625 q0.2467,-0.0208 0.4586,-0.0521 q0.2119,-0.0312 0.4375,-0.0312 q0.2256,0 0.4443,0 q0.2188,0 0.4375,-0.0312 q0.2188,-0.0312 0.4037,-0.0312 q0.185,0 0.375,0 q0.19,0 0.3442,0 q0.1542,0 0.3125,0 q0.1583,0 0.2833,0 q0.125,0 0.1875,0 Z" fill="#D3D3D3" transform="matrix(1,0,0,-1,12.5,77)"/>
  <path d="" fill="#D3D3D3" transform="matrix(1,0,0,-1,38.5,77)"/>
  <path d="M12.625,-0.75 q-1.3125,0 -3.0938,0.0938 q-1.7812,0.0938 -3.5625,0.25 q-1.7812,0.1562 -3.1875,0.4375 q-1.4062,0.2812 -2.0312,0.7188 q-0.375,0.3125 -0.6875,0.6562 q-0.3125,0.3438 0.25,0.5312 q0.6875,0.3125 1.4375,1 q0.75,0.6875 0.8125,2.375 q0.375,6.6875 0.5938,12.5312 q0.2188,5.8438 0.1875,11.625 q-0.0312,5.7812 -0.4688,12.2188 q-0.0625,1.0625 -0.0312,1.7188 q0.0312,0.6562 0.6562,1.0938 q1.125,0.8125 2.5938,1.9688 q1.4688,1.1562 2.0938,3.0312 q0.125,0.4375 0.5,0.4062 q0.375,-0.0312 0.4375,-0.5312 q0.3125,-1.75 0.4688,-3.3125 q0.1562,-1.5625 0.2812,-3.3125 q0.125,-1.25 0.125,-3.875 q0,-2.625 -0.0625,-5.9062 q-0.0625,-3.2812 -0.1562,-6.5625 q-0.0938,-3.2812 -0.1875,-5.9375 q-0.0938,-2.6562 -0.1562,-4.0312 q-0.0625,-0.875 0.0625,-1.0938 q0.125,-0.2188 1.0625,-0.3438 q1,-0.0625 6.1562,-0.125 q5.1562,-0.0625 13.8125,-0.125 q8.6562,-0.0625 20.2188,-0.0938 q11.5625,-0.0312 25.4688,-0.0625 q13.9062,-0.0312 29.5625,-0.0625 q15.6562,-0.0312 32.4688,-0.0312 q16.8125,0 34.2188,0 q17.4062,0 34.8125,0 q17.4062,0 34.25,0 q16.8438,0 32.5312,0 q15.6875,0 29.625,0.0312 q13.9375,0.0312 25.5625,0.0625 q11.625,0.0312 20.3438,0.0625 q8.7188,0.0312 13.9375,0.0625 q5.2188,0.0312 6.3438,0.0312 q1.125,0.0625 1.5312,-0.4688 q0.4062,-0.5312 0.9688,-1.8438 q0.75,-1.6875 1.6562,-4.0625 q0.9062,-2.375 0.9688,-5.4375 q0.0625,-1.25 -1.0312,-2.125 q-1.0938,-0.875 -2.2188,-1 q-1.375,-0.125 -6.8125,-0.25 q-5.4375,-0.125 -14.25,-0.2188 q-8.8125,-0.0938 -20.4375,-0.1562 q-11.625,-0.0625 -25.5312,-0.0938 q-13.9062,-0.0312 -29.5,-0.0625 q-15.5938,-0.0312 -32.3125,-0.0625 q-16.7188,-0.0312 -34,-0.0312 q-17.2812,0 -34.5625,0 q-17.2812,0 -33.9688,0.0312 q-16.6875,0.0312 -32.25,0.0312 q-15.5625,0 -29.375,0.0312 q-13.8125,0.0312 -25.375,0.0625 q-11.5625,0.0312 -20.25,0.0625 q-8.6875,0.0312 -13.9688,0.0625 q-5.2812,0.0312 -6.5312,0.0312 Z M364.125,6.25 q1.375,0.125 1.625,0.3438 q0.25,0.2188 0.125,0.5938 q-0.0625,0.125 -0.2188,0.25 q-0.1562,0.125 -0.6562,0.0625 q-1.0625,-0.0625 -6.2812,-0.1562 q-5.2188,-0.0938 -13.9062,-0.1562 q-8.6875,-0.0625 -20.3125,-0.125 q-11.625,-0.0625 -25.5938,-0.0938 q-13.9688,-0.0312 -29.6562,-0.0625 q-15.6875,-0.0312 -32.5625,-0.0312 q-16.875,0 -34.2812,0 q-17.4062,0 -34.8125,0.0312 q-17.4062,0.0312 -34.1875,0.0625 q-16.7812,0.0312 -32.375,0.0938 q-15.5938,0.0625 -29.4375,0.125 q-13.8438,0.0625 -25.2812,0.1562 q-11.4375,0.0938 -19.9375,0.2188 q-8.5,0.125 -13.4375,0.25 q-4.9375,0.125 -5.6875,0.25 l1.3125,1.875 q-0.0625,-0.6875 -0.0938,-1.375 q-0.0312,-0.6875 -0.0938,-1.375 q0,-0.5 1.25,-0.6875 q0.5,-0.0625 5.2188,-0.125 q4.7188,-0.0625 12.9688,-0.125 q8.25,-0.0625 19.4688,-0.125 q11.2188,-0.0625 24.8125,-0.125 q13.5938,-0.0625 29,-0.0938 q15.4062,-0.0312 32.0312,-0.0625 q16.625,-0.0312 33.875,-0.0312 q17.25,0 34.5312,-0.0312 q17.2812,-0.0312 34.0625,-0.0312 q16.7812,0 32.4062,0.0312 q15.625,0.0312 29.5625,0.0625 q13.9375,0.0312 25.5625,0.0625 q11.625,0.0312 20.4062,0.0938 q8.7812,0.0625 14.0938,0.125 q5.3125,0.0625 6.5,0.125 Z" fill="#D3D3D3" transform="matrix(1,0,0,-1,63.5,77)"/>
  <path d="" fill="#D3D3D3" transform="matrix(1,0,0,-1,438.5,77)"/>
  <path d="M12.625,-0.75 q-1.3125,0 -3.0938,0.0938 q-1.7812,0.0938 -3.5625,0.25 q-1.7812,0.1562 -3.1875,0.4375 q-1.4062,0.2812 -2.0312,0.7188 q-0.375,0.3125 -0.6875,0.6562 q-0.3125,0.3438 0.25,0.5312 q0.6875,0.3125 1.4375,1 q0.75,0.6875 0.8125,2.375 q0.375,6.6875 0.5938,12.5312 q0.2188,5.8438 0.1875,11.625 q-0.0312,5.7812 -0.4688,12.2188 q-0.0625,1.0625 -0.0312,1.7188 q0.0312,0.6562 0.6562,1.0938 q1.125,0.8125 2.5938,1.9688 q1.4688,1.1562 2.0938,3.0312 q0.125,0.4375 0.5,0.4062 q0.375,-0.0312 0.4375,-0.5312 q0.3125,-1.75 0.4688,-3.3125 q0.1562,-1.5625 0.2812,-3.3125 q0.125,-1.25 0.125,-3.875 q0,-2.625 -0.0625,-5.9062 q-0.0625,-3.2812 -0.1562,-6.5625 q-0.0938,-3.2812 -0.1875,-5.9375 q-0.0938,-2.6562 -0.1562,-4.0312 q-0.0625,-0.875 0.0625,-1.0938 q0.125,-0.2188 1.0625,-0.3438 q1,-0.0625 2.0625,-0.125 q1.0625,-0.0625 2.1562,-0.125 q1.0938,-0.0625 2.2188,-0.0938 q1.125,-0.0312 2.2812,-0.0625 q1.1562,-0.0312 2.3125,-0.0625 q1.1562,-0.0312 2.3438,-0.0312 q1.1875,0 2.375,0 q1.1875,0 2.4062,0 q1.2188,0 2.4062,0 q1.1875,0 2.4062,0 q1.2188,0 2.4062,0.0312 q1.1875,0.0312 2.375,0.0625 q1.1875,0.0312 2.3438,0.0625 q1.1562,0.0312 2.2812,0.0625 q1.125,0.0312 2.25,0.0312 q1.125,0.0625 1.5312,-0.4688 q0.4062,-0.5312 0.9688,-1.8438 q0.75,-1.6875 1.6562,-4.0625 q0.9062,-2.375 0.9688,-5.4375 q0.0625,-1.25 -1.0312,-2.125 q-1.0938,-0.875 -2.2188,-1 q-1.0625,-0.0625 -2.1562,-0.1562 q-1.0938,-0.0938 -2.1875,-0.125 q-1.0938,-0.0312 -2.2188,-0.0938 q-1.125,-0.0625 -2.2188,-0.0938 q-1.0938,-0.0312 -2.2188,-0.0625 q-1.125,-0.0312 -2.25,-0.0625 q-1.125,-0.0312 -2.25,-0.0625 q-1.125,-0.0312 -2.2812,-0.0312 q-1.1562,0 -2.3125,0 q-1.1562,0 -2.3125,0 q-1.1562,0 -2.3438,0 q-1.1875,0 -2.375,0.0312 q-1.1875,0.0312 -2.4062,0.0312 q-1.2188,0 -2.4375,0.0312 q-1.2188,0.0312 -2.4688,0.0312 Z M39.4375,6.25 q1.375,0.125 1.625,0.3438 q0.25,0.2188 0.125,0.5938 q-0.0625,0.125 -0.2188,0.25 q-0.1562,0.125 -0.6562,0.0625 q-1.0625,-0.0625 -2.1875,-0.1562 q-1.125,-0.0938 -2.2812,-0.1562 q-1.1562,-0.0625 -2.3438,-0.125 q-1.1875,-0.0625 -2.375,-0.0938 q-1.1875,-0.0312 -2.4062,-0.0625 q-1.2188,-0.0312 -2.4375,-0.0312 q-1.2188,0 -2.4375,0 q-1.2188,0 -2.4062,0.0312 q-1.1875,0.0312 -2.3438,0.0625 q-1.1562,0.0312 -2.25,0.0938 q-1.0938,0.0625 -2.1562,0.125 q-1.0625,0.0625 -2.0938,0.1562 q-1.0312,0.0938 -1.9375,0.2188 q-0.9062,0.125 -1.7812,0.25 q-0.875,0.125 -1.625,0.25 l1.3125,1.875 q-0.0625,-0.6875 -0.0938,-1.375 q-0.0312,-0.6875 -0.0938,-1.375 q0,-0.5 1.25,-0.6875 q0.5,-0.0625 1.125,-0.125 q0.625,-0.0625 1.3125,-0.125 q0.6875,-0.0625 1.4688,-0.125 q0.7812,-0.0625 1.625,-0.125 q0.8438,-0.0625 1.7812,-0.0938 q0.9375,-0.0312 1.9062,-0.0625 q0.9688,-0.0312 2,-0.0312 q1.0312,0 2.125,-0.0312 q1.0938,-0.0312 2.2188,-0.0312 q1.125,0 2.2812,0.0312 q1.1562,0.0312 2.3438,0.0625 q1.1875,0.0312 2.375,0.0625 q1.1875,0.0312 2.4062,0.0938 q1.2188,0.0625 2.4375,0.125 q1.2188,0.0625 2.4062,0.125 Z" fill="#D3D3D3" transform="matrix(1,0,0,-1,463.5,77)"/>
  <path d="M10.6875,-0.875 q-3.8125,0.0625 -6.4375,0.4062 q-2.625,0.3438 -3.625,1.1562 q-0.6875,0.5 -0.625,1 q0.0625,0.5 0.8125,0.5 q0.375,0 0.7188,0.2188 q0.3438,0.2188 0.5938,0.4688 q0.5625,0.5625 1.4062,1.6562 q0.8438,1.0938 1.5312,2.2188 q0.6875,1.0625 2.1875,0.1875 q0.6875,-0.375 2.125,-0.6562 q1.4375,-0.2812 3.0625,-0.2812 q0.0619,0 0.1414,0 q0.0795,0 0.1723,0 q0.0928,0 0.2033,0 q0.1105,0 0.2342,0 q0.1237,0 0.2101,0 q0.0863,0 0.181,0 q0.0947,0 0.1949,0 q0.1002,0 0.2252,0 q0.125,0 0.2272,0 q0.1022,0 0.2043,0 q0.1022,0 0.2094,0 q0.1073,0 0.2171,0 q0.1098,0 0.2197,0 q0.1098,0 0.2148,0 q0.105,0 0.2075,0 q1.3125,0 1.5938,0.2019 q0.2812,0.2019 0.1562,0.5481 q-0.0625,0.1042 -0.2188,0.2083 q-0.1562,0.1042 -0.6562,0.1042 q-0.1138,0 -0.2514,0 q-0.1376,0 -0.2988,0 q-0.1613,0 -0.3368,0 q-0.1755,0 -0.3943,0 q-0.2188,0 -0.4062,0 q-0.1875,0 -0.4375,0 q-0.25,0 -0.4688,0.0312 q-0.2188,0.0312 -0.4716,0.0312 q-0.2529,0 -0.5,0 q-0.2471,0 -0.4971,0.0312 q-0.25,0.0312 -0.5,0.0312 q-0.25,0 -0.514,0.0268 q-0.264,0.0268 -0.5061,0.0536 q-0.242,0.0268 -0.4547,0.067 q-0.2127,0.0402 -0.4627,0.0402 q-1.5625,0.25 -2.1562,0.7333 q-0.5938,0.4833 0.0312,1.3292 q2.125,2.8125 4.2812,5.7812 q2.1562,2.9688 3.9062,5.9062 q0.3125,0.5 0.7188,0.3125 q0.4062,-0.1875 0.1562,-0.75 q-0.2143,-0.4907 -0.6696,-1.5266 q-0.4554,-1.0359 -0.9554,-2.1922 q-0.5,-1.1562 -0.9375,-2.1562 q0.1907,-0.0104 0.4018,-0.026 q0.2111,-0.0156 0.4359,-0.026 q0.2248,-0.0104 0.4559,-0.0104 q0.2312,0 0.4688,0 q0.2376,0 0.4677,0 q0.2301,0 0.4661,0 q0.236,0 0.4779,0 q0.2419,0 0.4897,0 q0.2478,0 0.4956,0 q0.2478,0 0.4897,0 q0.2419,0 0.4838,0 q0.2419,0 0.4887,0 q0.2468,0 0.4815,0 q0.2347,0 0.4574,0 q0.2227,0 0.4394,0 q1.125,0 1.5312,-0.7188 q0.4062,-0.7188 0.9688,-2.0312 q0.75,-1.6875 1.6562,-4.0625 q0.9062,-2.375 0.9688,-5.4375 q0.0625,-1.25 -1.0312,-2.125 q-1.0938,-0.875 -2.2188,-1 q-0.4104,-0.05 -0.8302,-0.0875 q-0.4198,-0.0375 -0.826,-0.0531 q-0.4062,-0.0156 -0.8125,-0.0312 q-0.4062,-0.0156 -0.8438,-0.0469 q-0.4375,-0.0312 -0.8545,-0.0312 q-0.417,0 -0.8438,0 q-0.4267,0 -0.8335,-0.0312 q-0.4068,-0.0312 -0.8231,-0.0312 q-0.4163,0 -0.8326,0 q-0.4163,0 -0.8231,0 q-0.4068,0 -0.8231,0 q-0.4163,0 -0.8225,0.0312 q-0.4062,0.0312 -0.8125,0.0312 q-0.4062,0 -0.826,0 q-0.4198,0 -0.8302,0 Z" fill="#D3D3D3" transform="matrix(1,0,0,-1,10,20)"/>
  <path d="" fill="#D3D3D3" transform="matrix(1,0,0,-1,36,20)"/>
  <path d="M10.6875,-0.25 q-3.8125,0.0625 -6.4375,0.4062 q-2.625,0.3438 -3.625,1.1562 q-0.6875,0.5 -0.625,1 q0.0625,0.5 0.8125,0.5 q0.375,0 0.7188,0.2188 q0.3438,0.2188 0.5938,0.4688 q0.5625,0.5625 1.4062,1.6562 q0.8438,1.0938 1.5312,2.2188 q0.6875,1.0625 2.1875,0.1875 q0.6875,-0.375 2.125,-0.5625 q1.4375,-0.1875 3.0625,-0.3125 q0.4375,0 5.0312,-0.0312 q4.5938,-0.0312 12.6875,-0.0625 q8.0938,-0.0312 19.1562,-0.0625 q11.0625,-0.0312 24.5,-0.0625 q13.4375,-0.0312 28.6875,-0.0625 q15.25,-0.0312 31.7188,-0.0312 q16.4688,0 33.5625,-0.0312 q17.0938,-0.0312 34.2188,-0.0312 q17.125,0 33.7812,0 q16.6562,0 32.1875,0.0312 q15.5312,0.0312 29.4062,0.0625 q13.875,0.0312 25.4688,0.0625 q11.5938,0.0312 20.4062,0.0938 q8.8125,0.0625 14.1875,0.1562 q5.375,0.0938 6.6875,0.1562 q1.375,0.125 1.625,0.3438 q0.25,0.2188 0.125,0.5938 q-0.0625,0.125 -0.2188,0.25 q-0.1562,0.125 -0.6562,0.0625 q-0.75,-0.0625 -5.6875,-0.125 q-4.9375,-0.0625 -13.4375,-0.125 q-8.5,-0.0625 -19.9375,-0.125 q-11.4375,-0.0625 -25.25,-0.0938 q-13.8125,-0.0312 -29.4062,-0.0625 q-15.5938,-0.0312 -32.3438,-0.0625 q-16.75,-0.0312 -34.125,-0.0312 q-17.375,0 -34.7188,0 q-17.3438,0 -34.0938,0.0312 q-16.75,0.0312 -32.3438,0.0312 q-15.5938,0 -29.375,0.0625 q-13.7812,0.0625 -25.2188,0.125 q-11.4375,0.0625 -19.9062,0.125 q-8.4688,0.0625 -13.4062,0.1562 q-4.9375,0.0938 -5.6875,0.2188 q-1.5625,0.1875 -2.1562,0.6875 q-0.5938,0.5 0.0312,1.375 q2.125,2.8125 4.1875,5.6562 q2.0625,2.8438 3.8125,5.7812 q0.3125,0.5 0.7188,0.3125 q0.4062,-0.1875 0.1562,-0.75 q-0.25,-0.5625 -0.7812,-1.75 q-0.5312,-1.1875 -1.0312,-2.3438 q-0.5,-1.1562 -0.75,-1.7812 q0.875,-0.0625 5.875,-0.1562 q5,-0.0938 13.4688,-0.1562 q8.4688,-0.0625 19.875,-0.0938 q11.4062,-0.0312 25.125,-0.0625 q13.7188,-0.0312 29.2188,-0.0312 q15.5,0 32.1562,0 q16.6562,0 33.9062,0 q17.25,0 34.5312,0 q17.2812,0 34,0.0312 q16.7188,0.0312 32.2812,0.0625 q15.5625,0.0312 29.4062,0.0625 q13.8438,0.0312 25.375,0.0625 q11.5312,0.0312 20.2188,0.0625 q8.6875,0.0312 13.875,0.0938 q5.1875,0.0625 6.3125,0.0625 q1.125,0.0625 1.5312,-0.4688 q0.4062,-0.5312 0.9688,-1.8438 q0.75,-1.6875 1.6562,-4.0625 q0.9062,-2.375 0.9688,-5.4375 q0.0625,-1.25 -1.0312,-2.125 q-1.0938,-0.875 -2.2188,-1 q-1.375,-0.125 -6.8125,-0.2188 q-5.4375,-0.0938 -14.25,-0.1562 q-8.8125,-0.0625 -20.4688,-0.125 q-11.6562,-0.0625 -25.5938,-0.0938 q-13.9375,-0.0312 -29.5625,-0.0938 q-15.625,-0.0625 -32.4062,-0.0625 q-16.7812,0 -34.0938,-0.0312 q-17.3125,-0.0312 -34.6562,-0.0312 q-17.3438,0 -34.125,0 q-16.7812,0 -32.4062,0 q-15.625,0 -29.5625,0 q-13.9375,0 -25.5938,0.0312 q-11.6562,0.0312 -20.4688,0.0312 q-8.8125,0 -14.25,0.0312 q-5.4375,0.0312 -6.8125,0.0312 Z" fill="#D3D3D3" transform="matrix(1,0,0,-1,61,20)"/>
  <path d="" fill="#D3D3D3" transform="matrix(1,0,0,-1,436,20)"/>
  <path d="M10.6875,-0.875 q-3.8125,0.0625 -6.4375,0.4062 q-2.625,0.3438 -3.625,1.1562 q-0.6875,0.5 -0.625,1 q0.0625,0.5 0.8125,0.5 q0.375,0 0.7188,0.2188 q0.3438,0.2188 0.5938,0.4688 q0.5625,0.5625 1.4062,1.6562 q0.8438,1.0938 1.5312,2.2188 q0.6875,1.0625 2.1875,0.1875 q0.6875,-0.375 2.125,-0.5625 q1.4375,-0.1875 3.0625,-0.3125 q0.4375,0 1,-0.0312 q0.5625,-0.0312 1.2188,-0.0625 q0.6562,-0.0312 1.4375,-0.0625 q0.7812,-0.0312 1.6562,-0.0625 q0.875,-0.0312 1.8438,-0.0625 q0.9688,-0.0312 2.0312,-0.0312 q1.0625,0 2.1875,-0.0312 q1.125,-0.0312 2.2812,-0.0312 q1.1562,0 2.4062,0 q1.25,0 2.5,0.0312 q1.25,0.0312 2.5625,0.0625 q1.3125,0.0312 2.6562,0.0625 q1.3438,0.0312 2.6875,0.0938 q1.3438,0.0625 2.6875,0.1562 q1.3438,0.0938 2.6562,0.1562 q1.375,0.125 1.625,0.3438 q0.25,0.2188 0.125,0.5938 q-0.0625,0.125 -0.2188,0.25 q-0.1562,0.125 -0.6562,0.0625 q-0.75,-0.0625 -1.6562,-0.125 q-0.9062,-0.0625 -1.9688,-0.125 q-1.0625,-0.0625 -2.2188,-0.125 q-1.1562,-0.0625 -2.4062,-0.0938 q-1.25,-0.0312 -2.5625,-0.0625 q-1.3125,-0.0312 -2.6562,-0.0625 q-1.3438,-0.0312 -2.75,-0.0312 q-1.4062,0 -2.7812,0 q-1.375,0 -2.7188,0.0312 q-1.3438,0.0312 -2.6562,0.0312 q-1.3125,0 -2.5625,0.0625 q-1.25,0.0625 -2.375,0.125 q-1.125,0.0625 -2.1562,0.125 q-1.0312,0.0625 -1.9375,0.1562 q-0.9062,0.0938 -1.6562,0.2188 q-1.5625,0.1875 -2.1562,0.6875 q-0.5938,0.5 0.0312,1.375 q2.125,2.8125 4.1875,5.6562 q2.0625,2.8438 3.8125,5.7812 q0.3125,0.5 0.7188,0.3125 q0.4062,-0.1875 0.1562,-0.75 q-0.25,-0.5625 -0.7812,-1.75 q-0.5312,-1.1875 -1.0312,-2.3438 q-0.5,-1.1562 -0.75,-1.7812 q0.875,-0.0625 1.8438,-0.1562 q0.9688,-0.0938 2,-0.1562 q1.0312,-0.0625 2.1562,-0.0938 q1.125,-0.0312 2.2812,-0.0625 q1.1562,-0.0312 2.375,-0.0312 q1.2188,0 2.4688,0 q1.25,0 2.5312,0 q1.2812,0 2.5938,0 q1.3125,0 2.625,0.0312 q1.3125,0.0312 2.5938,0.0625 q1.2812,0.0312 2.5625,0.0625 q1.2812,0.0312 2.5625,0.0625 q1.2812,0.0312 2.5,0.0625 q1.2188,0.0312 2.375,0.0938 q1.1562,0.0625 2.2812,0.0625 q1.125,0.0625 1.5312,-0.4688 q0.4062,-0.5312 0.9688,-1.8438 q0.75,-1.6875 1.6562,-4.0625 q0.9062,-2.375 0.9688,-5.4375 q0.0625,-1.25 -1.0312,-2.125 q-1.0938,-0.875 -2.2188,-1 q-1.375,-0.125 -2.7812,-0.2188 q-1.4062,-0.0938 -2.7812,-0.1562 q-1.375,-0.0625 -2.75,-0.125 q-1.375,-0.0625 -2.75,-0.0938 q-1.375,-0.0312 -2.7188,-0.0938 q-1.3438,-0.0625 -2.7188,-0.0625 q-1.375,0 -2.7188,-0.0312 q-1.3438,-0.0312 -2.7188,-0.0312 q-1.375,0 -2.75,0 q-1.375,0 -2.7188,0 q-1.3438,0 -2.7188,0 q-1.375,0 -2.75,0.0312 q-1.375,0.0312 -2.75,0.0312 q-1.375,0 -2.7812,0.0312 q-1.4062,0.0312 -2.7812,0.0312 Z" fill="#D3D3D3" transform="matrix(1,0,0,-1,461,20)"/>
</svg>
