<?xml version='1.0' encoding='ASCII'?>
<svg xmlns="http://www.w3.org/2000/svg" width="530" height="134" preserveAspectRatio="xMinYMin slice" viewBox="-4 -25 530 134" version="1.1">
  <path d="M-4,-25 v134 h530 v-134 Z" fill="#000000" transform="matrix(1,0,0,-1,0,84)"/>
  <path d="M15.125,-22.0625 q-1.5625,-0.625 -3.7812,-0.875 q-2.2188,-0.25 -4.5938,-0.0625 q-2.375,0.1875 -4.5312,0.7812 q-2.1562,0.5938 -3.5938,1.5938 q-0.5625,0.375 -0.6562,0.875 q-0.0938,0.5 0.5938,0.75 q1.125,0.5 2.4062,1.8438 q1.2812,1.3438 2.5938,3.2812 q0.1875,0.3125 0.4375,0.25 q0.25,-0.0625 0.4375,-0.1875 q1.4375,-0.8125 3.2812,-1.2188 q1.8438,-0.4062 4.9062,-0.2188 q0.3125,4.625 0.2188,8.375 q-0.0938,3.75 -0.4688,6.5 q-0.5,3.8125 -1.7812,5.6562 q-1.2812,1.8438 -3.6562,2.6875 q-2.375,0.8438 -6.0625,1.5938 q-0.8125,0.1875 -0.8438,0.7188 q-0.0312,0.5312 0.7188,0.7188 q2.1875,0.625 4.1875,2.4375 q2,1.8125 2.4375,4.25 q0.125,0.5 0.3125,0.5312 q0.1875,0.0312 0.6875,-0.0938 q0.0625,0 0.125,0 q4.8125,-1.0625 7,-4.8438 q2.1875,-3.7812 2.625,-9.0312 q0.25,-2.9375 0.2812,-6.2188 q0.0312,-3.2812 -0.0625,-6.1875 q-0.0938,-2.9062 -0.2188,-4.9062 q0,-0.4375 -0.0312,-0.8125 q-0.0312,-0.375 -0.0312,-0.6875 q0,-1.3125 -0.2812,-2.875 q-0.2812,-1.5625 -0.9062,-2.8438 q-0.625,-1.2812 -1.75,-1.7812 Z" fill="#D3D3D3" transform="matrix(1,0,0,-1,-1,84)"/>
  <path d="M16.375,-8.625 q-6.75,0 -10.4688,1.25 q-3.7188,1.25 -5.6562,3.875 q-0.5,0.6875 -0.125,1.0625 q0.375,0.375 0.875,0.375 q0.6875,0 1.75,0.6875 q1.0625,0.6875 2.0625,1.625 q1,0.9375 1.375,1.625 q0.3125,0.5625 0.9375,0.2812 q0.625,-0.2812 1.0625,-0.6562 q1.5625,-1.375 3.9062,-2.0938 q2.3438,-0.7188 4.75,-0.9375 q2.4062,-0.2188 4.2812,-0.1562 q1.875,0.0625 2.5625,0.1875 q0.75,0.125 0.7188,0.6562 q-0.0312,0.5312 -0.6562,0.4688 q-3.375,-0.25 -6.25,-0.0938 q-2.875,0.1562 -5.0625,1.0312 q-2.1875,0.875 -3.4062,2.8125 q-1.2188,1.9375 -1.2188,5.1875 q0,2.0625 0.625,4.1875 q0.625,2.125 1.875,3.9375 q1.25,1.8125 3.2188,2.9375 q1.9688,1.125 4.5938,1.125 q3.3125,0 5.1875,-1.125 q1.875,-1.125 3.625,-3.375 q1.5625,-2 2.125,-4.125 q0.5625,-2.125 0.9375,-3.1875 q0.3125,-0.8125 0.9375,-1.4688 q0.625,-0.6562 1.6875,-0.6562 v-6.8125 q0,-3.875 -2.125,-5.7188 q-2.125,-1.8438 -5.8125,-2.375 q-3.6875,-0.5312 -8.3125,-0.5312 Z M19.375,9.1875 q0.75,0 0.75,0.8125 q0,0.3125 -0.2188,0.5312 q-0.2188,0.2188 -0.5312,0.2188 q-0.8125,0 -0.8125,-0.75 q0,-0.8125 0.8125,-0.8125 Z" fill="#D3D3D3" transform="matrix(1,0,0,-1,42,84)"/>
  <path d="M-1.25,0 v6.875 h2.375 q-0.0625,3 -0.2188,7.4375 q-0.1562,4.4375 -0.4062,9.4375 q-0.25,5 -0.5,9.8125 q-0.25,4.8125 -0.5,8.5625 q0,0.125 -0.0625,0.375 q-0.0625,0.375 -0.0312,0.875 q0.0312,0.5 0.5938,1 q0.5625,0.4375 1.4375,1.2188 q0.875,0.7812 1.6875,1.6562 q0.8125,0.875 1.1875,1.5625 q0.5,0.875 1,0.6562 q0.5,-0.2188 0.5625,-1.2812 q0.1875,-3.6875 0.375,-8.0625 q0.1875,-4.375 0.4062,-9 q0.2188,-4.625 0.4062,-9.0312 q0.1875,-4.4062 0.375,-8.25 q0.1875,-3.8438 0.25,-6.5938 q0.125,-3.375 -0.5625,-4.875 q-0.6875,-1.5 -2.1875,-1.9062 q-1.5,-0.4062 -3.8125,-0.4688 h-2.375 Z M1.125,0 v6.875 h7.5 v-6.875 h-7.5 Z" fill="#D3D3D3" transform="matrix(1,0,0,-1,71,84)"/>
  <path d="M4.6875,0.875 q-1.5,0 -2.6562,1.1562 q-1.1562,1.1562 -1.1562,2.6562 q0,1.5625 1.1562,2.6875 q1.1562,1.125 2.6562,1.125 q1.5625,0 2.6875,-1.125 q1.125,-1.125 1.125,-2.6875 q0,-1.5 -1.125,-2.6562 q-1.125,-1.1562 -2.6875,-1.1562 Z" fill="#E22E00" transform="matrix(1,0,0,-1,267,92)"/>
  <path d="M-0.625,0 l-0.875,14.625 h1.125 q0.0625,-2.4375 1.0625,-4.0938 q1,-1.6562 2.4375,-2.5312 q1.4375,-0.875 2.8125,-1.125 v-6.875 h-6.5625 Z" fill="#D3D3D3" transform="matrix(1,0,0,-1,79,84)"/>
  <path d="M-1.25,0 v6.875 h1.25 q93.75,-0.75 187.5,-0.75 q93.75,0 187.5,0.75 v-6.875 q-94.0625,-0.625 -188.125,-0.625 q-94.0625,0 -188.125,0.625 Z" fill="#D3D3D3" transform="matrix(1,0,0,-1,85,84)"/>
  <path d="M-1.25,0 v6.875 h2.4375 q-0.0625,2.625 -0.0938,4.25 q-0.0312,1.625 -0.1562,3.1875 q0,0.1875 -0.0625,0.625 q-0.0625,1.125 0,1.8438 q0.0625,0.7188 0.625,1.0938 q2.8125,1.875 4.8125,4.9375 q0.3125,0.5 0.5938,0.4062 q0.2812,-0.0938 0.2812,-0.5312 q0,-4.6875 0.4375,-9.0938 q0.4375,-4.4062 0.5,-9.0938 q0.0625,-1.625 -1.375,-3.0625 q-1.4375,-1.4375 -3.25,-1.4375 h-4.75 Z" fill="#D3D3D3" transform="matrix(1,0,0,-1,460,84)"/>
  <path d="M4.0625,0 q-2.3125,0 -3.1562,0.9062 q-0.8438,0.9062 -0.9062,2.5312 q-0.125,4.3125 -0.1875,9.1875 q-0.0625,4.875 -0.1562,9.6562 q-0.0938,4.7812 -0.25,8.9062 q-0.1562,4.125 -0.4062,6.9375 q0,0.25 -0.0312,0.4375 q-0.0312,0.1875 -0.0312,0.375 q-0.25,2.625 -0.2188,3.6562 q0.0312,1.0312 0.7812,1.5312 q1.25,0.75 2.3438,2.0312 q1.0938,1.2812 2.0938,2.9688 q0.3125,0.5 0.8125,0.4375 q0.5,-0.0625 0.5,-1 q0,-3 0.0625,-6.7812 q0.0625,-3.7812 0.125,-7.7812 q0.0625,-4 0.1562,-7.6875 q0.0938,-3.6875 0.1562,-6.5312 q0.0625,-2.8438 0.125,-4.3438 q0.1875,-3.5 0.3125,-5.375 q0.125,-1.875 0.3438,-2.5312 q0.2188,-0.6562 0.5938,-0.6562 v-6.875 h-3.0625 Z" fill="#D3D3D3" transform="matrix(1,0,0,-1,493,84)"/>
  <path d="M-1.5,2.8125 v9.8125 h1.1875 q0.0625,-2.3125 1.0312,-3.25 q0.9688,-0.9375 1.8438,-1.25 v-5.3125 h-4.0625 Z" fill="#D3D3D3" transform="matrix(1,0,0,-1,499,84)"/>
  <path d="M15.0625,-0.125 l-16.3125,0.125 v6.875 h3.4375 q-0.25,0.5 -0.625,1.8125 q-0.375,1.3125 -0.5625,1.875 q-0.1875,0.625 0,0.9062 q0.1875,0.2812 0.6875,0.5312 q1.25,0.5625 1.9688,1.5312 q0.7188,0.9688 1.7188,2.6562 q0.3125,0.5625 0.8438,0.5625 q0.5312,0 0.6562,-0.6875 q0.6875,-3.25 1.1875,-5 q0.5,-1.75 1.5625,-2.3125 q-0.375,0.875 -0.6562,1.875 q-0.2812,1 -0.3438,1.875 q0,0.4375 0.2812,0.6875 q0.2812,0.25 0.5938,0.4375 q1.25,0.625 2.1562,1.5625 q0.9062,0.9375 1.6562,2.8125 q0.1875,0.4375 0.5625,0.5 q0.375,0.0625 0.5,-0.4375 q0.5625,-1.5625 0.9062,-3.4062 q0.3438,-1.8438 0.7812,-3.4375 q0.4375,-1.5938 1.125,-2.4062 q-0.125,1 -0.3125,2.3438 q-0.1875,1.3438 -0.375,2.5625 q-0.1875,1.2188 -0.3125,1.7188 q-0.125,0.5 0.0312,0.75 q0.1562,0.25 0.4688,0.4375 q0.1875,0.125 0.25,0.1875 q1,0.6875 2.0312,1.9688 q1.0312,1.2812 1.4062,2.7812 q0.1875,0.75 0.6562,0.8438 q0.4688,0.0938 0.6562,-0.7812 q0.25,-1.1875 0.5938,-3.375 q0.3438,-2.1875 0.6875,-4.7188 q0.3438,-2.5312 0.5312,-4.9375 q0.1875,-2.4062 0.125,-4.0938 q-0.0625,-1.1875 -0.7812,-2.2812 q-0.7188,-1.0938 -2.5625,-1.7188 q-1.8438,-0.625 -5.2188,-0.625 Z" fill="#D3D3D3" transform="matrix(1,0,0,-1,499,84)"/>
  <path d="M15.125,-22.0625 q-1.5625,-0.625 -3.7812,-0.875 q-2.2188,-0.25 -4.5938,-0.0625 q-2.375,0.1875 -4.5312,0.7812 q-2.1562,0.5938 -3.5938,1.5938 q-0.5625,0.375 -0.6562,0.875 q-0.0938,0.5 0.5938,0.75 q1.125,0.5 2.4062,1.8438 q1.2812,1.3438 2.5938,3.2812 q0.1875,0.3125 0.4375,0.25 q0.25,-0.0625 0.4375,-0.1875 q1.4375,-0.8125 3.2812,-1.2188 q1.8438,-0.4062 4.9062,-0.2188 q0.3125,4.625 0.2188,8.375 q-0.0938,3.75 -0.4688,6.5 q-0.5,3.8125 -1.7812,5.6562 q-1.2812,1.8438 -3.6562,2.6875 q-2.375,0.8438 -6.0625,1.5938 q-0.8125,0.1875 -0.8438,0.7188 q-0.0312,0.5312 0.7188,0.7188 q2.1875,0.625 4.1875,2.4375 q2,1.8125 2.4375,4.25 q0.125,0.5 0.3125,0.5312 q0.1875,0.0312 0.6875,-0.0938 q0.0625,0 0.125,0 q4.8125,-1.0625 7,-4.8438 q2.1875,-3.7812 2.625,-9.0312 q0.25,-2.9375 0.2812,-6.2188 q0.0312,-3.2812 -0.0625,-6.1875 q-0.0938,-2.9062 -0.2188,-4.9062 q0,-0.4375 -0.0312,-0.8125 q-0.0312,-0.375 -0.0312,-0.6875 q0,-1.3125 -0.2812,-2.875 q-0.2812,-1.5625 -0.9062,-2.8438 q-0.625,-1.2812 -1.75,-1.7812 Z" fill="#D3D3D3" transform="matrix(1,0,0,-1,189.5,27)"/>
  <path d="M16.375,-8.625 q-6.75,0 -10.4688,1.25 q-3.7188,1.25 -5.6562,3.875 q-0.5,0.6875 -0.125,1.0625 q0.375,0.375 0.875,0.375 q0.6875,0 1.75,0.6875 q1.0625,0.6875 2.0625,1.625 q1,0.9375 1.375,1.625 q0.3125,0.5625 0.9375,0.2812 q0.625,-0.2812 1.0625,-0.6562 q1.5625,-1.375 3.9062,-2.0938 q2.3438,-0.7188 4.75,-0.9375 q2.4062,-0.2188 4.2812,-0.1562 q1.875,0.0625 2.5625,0.1875 q0.75,0.125 0.7188,0.6562 q-0.0312,0.5312 -0.6562,0.4688 q-3.375,-0.25 -6.25,-0.0938 q-2.875,0.1562 -5.0625,1.0312 q-2.1875,0.875 -3.4062,2.8125 q-1.2188,1.9375 -1.2188,5.1875 q0,2.0625 0.625,4.1875 q0.625,2.125 1.875,3.9375 q1.25,1.8125 3.2188,2.9375 q1.9688,1.125 4.5938,1.125 q3.3125,0 5.1875,-1.125 q1.875,-1.125 3.625,-3.375 q1.5625,-2 2.125,-4.125 q0.5625,-2.125 0.9375,-3.1875 q0.3125,-0.8125 0.9375,-1.4688 q0.625,-0.6562 1.6875,-0.6562 v-6.8125 q0,-3.875 -2.125,-5.7188 q-2.125,-1.8438 -5.8125,-2.375 q-3.6875,-0.5312 -8.3125,-0.5312 Z M19.375,9.1875 q0.75,0 0.75,0.8125 q0,0.3125 -0.2188,0.5312 q-0.2188,0.2188 -0.5312,0.2188 q-0.8125,0 -0.8125,-0.75 q0,-0.8125 0.8125,-0.8125 Z" fill="#D3D3D3" transform="matrix(1,0,0,-1,232.5,27)"/>
  <path d="M-1.25,0 v6.875 h2.375 q-0.0625,3 -0.2188,7.4375 q-0.1562,4.4375 -0.4062,9.4375 q-0.25,5 -0.5,9.8125 q-0.25,4.8125 -0.5,8.5625 q0,0.125 -0.0625,0.375 q-0.0625,0.375 -0.0312,0.875 q0.0312,0.5 0.5938,1 q0.5625,0.4375 1.4375,1.2188 q0.875,0.7812 1.6875,1.6562 q0.8125,0.875 1.1875,1.5625 q0.5,0.875 1,0.6562 q0.5,-0.2188 0.5625,-1.2812 q0.1875,-3.6875 0.375,-8.0625 q0.1875,-4.375 0.4062,-9 q0.2188,-4.625 0.4062,-9.0312 q0.1875,-4.4062 0.375,-8.25 q0.1875,-3.8438 0.25,-6.5938 q0.125,-3.375 -0.5625,-4.875 q-0.6875,-1.5 -2.1875,-1.9062 q-1.5,-0.4062 -3.8125,-0.4688 h-2.375 Z M1.125,0 v6.875 h7.5 v-6.875 h-7.5 Z" fill="#D3D3D3" transform="matrix(1,0,0,-1,261.5,27)"/>
  <path d="M4.6875,0.875 q-1.5,0 -2.6562,1.1562 q-1.1562,1.1562 -1.1562,2.6562 q0,1.5625 1.1562,2.6875 q1.1562,1.125 2.6562,1.125 q1.5625,0 2.6875,-1.125 q1.125,-1.125 1.125,-2.6875 q0,-1.5 -1.125,-2.6562 q-1.125,-1.1562 -2.6875,-1.1562 Z" fill="#E22E00" transform="matrix(1,0,0,-1,272.5,34)"/>
  <path d="M-1.5,2.8125 v9.8125 h1.1875 q0.0625,-2.3125 1.0312,-3.25 q0.9688,-0.9375 1.8438,-1.25 v-5.3125 h-4.0625 Z" fill="#D3D3D3" transform="matrix(1,0,0,-1,269.5,27)"/>
  <path d="M-1.25,0 v6.875 h2.4375 q-0.0625,2.625 -0.0938,4.25 q-0.0312,1.625 -0.1562,3.1875 q0,0.1875 -0.0625,0.625 q-0.0625,1.125 0,1.8438 q0.0625,0.7188 0.625,1.0938 q2.8125,1.875 4.8125,4.9375 q0.3125,0.5 0.5938,0.4062 q0.2812,-0.0938 0.2812,-0.5312 q0,-4.6875 0.4375,-9.0938 q0.4375,-4.4062 0.5,-9.0938 q0.0625,-1.625 -1.375,-3.0625 q-1.4375,-1.4375 -3.25,-1.4375 h-4.75 Z" fill="#D3D3D3" transform="matrix(1,0,0,-1,269.5,27)"/>
  <path d="" fill="#D3D3D3" transform="matrix(1,0,0,-1,277.5,27)"/>
  <path d="M4.0625,0 q-2.3125,0 -3.1562,0.9062 q-0.8438,0.9062 -0.9062,2.5312 q-0.125,4.3125 -0.1875,9.1875 q-0.0625,4.875 -0.1562,9.6562 q-0.0938,4.7812 -0.25,8.9062 q-0.1562,4.125 -0.4062,6.9375 q0,0.25 -0.0312,0.4375 q-0.0312,0.1875 -0.0312,0.375 q-0.25,2.625 -0.2188,3.6562 q0.0312,1.0312 0.7812,1.5312 q1.25,0.75 2.3438,2.0312 q1.0938,1.2812 2.0938,2.9688 q0.3125,0.5 0.8125,0.4375 q0.5,-0.0625 0.5,-1 q0,-3 0.0625,-6.7812 q0.0625,-3.7812 0.125,-7.7812 q0.0625,-4 0.1562,-7.6875 q0.0938,-3.6875 0.1562,-6.5312 q0.0625,-2.8438 0.125,-4.3438 q0.1875,-3.5 0.3125,-5.375 q0.125,-1.875 0.3438,-2.5312 q0.2188,-0.6562 0.5938,-0.6562 v-6.875 h-3.0625 Z" fill="#D3D3D3" transform="matrix(1,0,0,-1,302.5,27)"/>
  <path d="M-1.5,2.8125 v9.8125 h1.1875 q0.0625,-2.3125 1.0312,-3.25 q0.9688,-0.9375 1.8438,-1.25 v-5.3125 h-4.0625 Z" fill="#D3D3D3" transform="matrix(1,0,0,-1,308.5,27)"/>
  <path d="M15.0625,-0.125 l-16.3125,0.125 v6.875 h3.4375 q-0.25,0.5 -0.625,1.8125 q-0.375,1.3125 -0.5625,1.875 q-0.1875,0.625 0,0.9062 q0.1875,0.2812 0.6875,0.5312 q1.25,0.5625 1.9688,1.5312 q0.7188,0.9688 1.7188,2.6562 q0.3125,0.5625 0.8438,0.5625 q0.5312,0 0.6562,-0.6875 q0.6875,-3.25 1.1875,-5 q0.5,-1.75 1.5625,-2.3125 q-0.375,0.875 -0.6562,1.875 q-0.2812,1 -0.3438,1.875 q0,0.4375 0.2812,0.6875 q0.2812,0.25 0.5938,0.4375 q1.25,0.625 2.1562,1.5625 q0.9062,0.9375 1.6562,2.8125 q0.1875,0.4375 0.5625,0.5 q0.375,0.0625 0.5,-0.4375 q0.5625,-1.5625 0.9062,-3.4062 q0.3438,-1.8438 0.7812,-3.4375 q0.4375,-1.5938 1.125,-2.4062 q-0.125,1 -0.3125,2.3438 q-0.1875,1.3438 -0.375,2.5625 q-0.1875,1.2188 -0.3125,1.7188 q-0.125,0.5 0.0312,0.75 q0.1562,0.25 0.4688,0.4375 q0.1875,0.125 0.25,0.1875 q1,0.6875 2.0312,1.9688 q1.0312,1.2812 1.4062,2.7812 q0.1875,0.75 0.6562,0.8438 q0.4688,0.0938 0.6562,-0.7812 q0.25,-1.1875 0.5938,-3.375 q0.3438,-2.1875 0.6875,-4.7188 q0.3438,-2.5312 0.5312,-4.9375 q0.1875,-2.4062 0.125,-4.0938 q-0.0625,-1.1875 -0.7812,-2.2812 q-0.7188,-1.0938 -2.5625,-1.7188 q-1.8438,-0.625 -5.2188,-0.625 Z" fill="#D3D3D3" transform="matrix(1,0,0,-1,308.5,27)"/>
</svg>
