<svg xmlns="http://www.w3.org/2000/svg" width="530" height="134" preserveAspectRatio="xMinYMin slice" viewBox="-4 -25 530 134"><path d="M-4 109V-25h530v134Z"/><path fill="#d3d3d3" d="M14.125 106.063q-1.562.624-3.781.874T5.75 107t-4.531-.781-3.594-1.594q-.562-.375-.656-.875t.594-.75q1.125-.5 2.406-1.844t2.594-3.281q.187-.312.437-.25.25.063.438.188 1.437.812 3.28 1.218 1.845.406 4.907.22.313-4.626.219-8.376t-.469-6.5q-.5-3.812-1.781-5.656T5.938 76.03t-6.063-1.593q-.812-.188-.844-.72-.03-.53.72-.718 2.187-.625 4.187-2.437 2-1.813 2.437-4.25.125-.5.313-.532.187-.03.687.094H7.5q4.813 1.063 7 4.844t2.625 9.031q.25 2.938.281 6.219t-.062 6.187-.219 4.907q0 .437-.031.812t-.031.688q0 1.312-.282 2.875-.28 1.562-.906 2.843-.625 1.282-1.75 1.782Zm44.25-13.438q-6.75 0-10.469-1.25T42.25 87.5q-.5-.687-.125-1.062.375-.376.875-.376.688 0 1.75-.687t2.063-1.625 1.374-1.625q.313-.562.938-.281t1.063.656q1.562 1.375 3.906 2.094 2.343.719 4.75.937 2.406.22 4.28.156 1.876-.062 2.563-.187.75-.125.72-.656-.032-.531-.657-.469-3.375.25-6.25.094t-5.062-1.031-3.407-2.813-1.218-5.187q0-2.063.624-4.188.626-2.125 1.876-3.937 1.25-1.813 3.218-2.938 1.97-1.125 4.594-1.125 3.313 0 5.188 1.125t3.625 3.375q1.562 2 2.125 4.125T72 75.063q.313.812.938 1.468.625.657 1.687.657V84q0 3.875-2.125 5.719t-5.812 2.375-8.313.531m3-17.812q.75 0 .75-.813 0-.312-.219-.531t-.531-.219q-.812 0-.812.75 0 .813.812.813"/><path fill="#d3d3d3" d="M69.75 84v-6.875h2.375q-.062-3-.219-7.437-.156-4.438-.406-9.438t-.5-9.812-.5-8.563q0-.125-.062-.375-.063-.375-.032-.875t.594-1q.563-.437 1.438-1.219.875-.781 1.687-1.656t1.188-1.562q.5-.876 1-.657.5.22.562 1.282.188 3.687.375 8.062.188 4.375.406 9 .22 4.625.406 9.031.188 4.406.376 8.25.187 3.844.25 6.594.124 3.375-.563 4.875t-2.187 1.906-3.813.469zm2.375 0v-6.875h7.5V84z"/><path fill="#e22e00" d="M271.688 91.125q-1.5 0-2.657-1.156-1.156-1.156-1.156-2.656 0-1.563 1.156-2.688t2.656-1.125q1.563 0 2.688 1.125t1.125 2.688q0 1.5-1.125 2.656t-2.687 1.156"/><path fill="#d3d3d3" d="M78.375 84 77.5 69.375h1.125q.063 2.438 1.063 4.094T82.125 76t2.813 1.125V84z"/><path fill="#d3d3d3" d="M83.75 84v-6.875H85q93.75.75 187.5.75t187.5-.75V84q-94.062.625-188.125.625-94.062 0-188.125-.625"/><path fill="#d3d3d3" d="M458.75 84v-6.875h2.438q-.063-2.625-.094-4.25t-.156-3.187q0-.188-.063-.626-.062-1.124 0-1.843.063-.72.625-1.094 2.813-1.875 4.813-4.938.312-.5.593-.406t.281.531q0 4.688.438 9.094t.5 9.094q.063 1.625-1.375 3.063Q465.313 84 463.5 84zm38.313 0q-2.313 0-3.157-.906T493 80.563q-.125-4.313-.187-9.188-.063-4.875-.157-9.656-.093-4.781-.25-8.906-.156-4.125-.406-6.938 0-.25-.031-.437-.031-.188-.031-.375-.25-2.625-.219-3.656t.781-1.532q1.25-.75 2.344-2.03 1.094-1.282 2.094-2.97.312-.5.812-.437.5.062.5 1 0 3 .063 6.781.062 3.781.125 7.781.062 4 .156 7.688t.156 6.53q.063 2.845.125 4.345.188 3.5.313 5.375t.343 2.53.594.657V84z"/><path fill="#d3d3d3" d="M497.5 81.188v-9.813h1.188q.062 2.313 1.03 3.25.97.938 1.844 1.25v5.313z"/><path fill="#d3d3d3" d="M514.063 84.125 497.75 84v-6.875h3.438q-.25-.5-.625-1.812T500 73.437q-.187-.624 0-.906.188-.28.688-.53 1.25-.563 1.968-1.532.72-.969 1.72-2.656.312-.563.843-.563t.656.688q.688 3.25 1.188 5t1.562 2.312q-.375-.875-.656-1.875t-.344-1.875q0-.437.281-.687t.594-.438q1.25-.625 2.156-1.562T512.312 66q.188-.437.563-.5.375-.062.5.438.563 1.562.906 3.406t.781 3.437 1.125 2.407q-.125-1-.312-2.344-.188-1.344-.375-2.563-.188-1.219-.313-1.719t.032-.75.468-.437q.188-.125.25-.187 1-.688 2.032-1.97 1.03-1.28 1.406-2.78.187-.75.656-.844t.656.78q.25 1.188.594 3.376t.688 4.719.53 4.937q.188 2.406.126 4.094-.063 1.188-.781 2.281-.72 1.094-2.563 1.719t-5.219.625ZM204.625 49.063q-1.562.624-3.781.874T196.25 50t-4.531-.781-3.594-1.594q-.562-.375-.656-.875t.594-.75q1.125-.5 2.406-1.844t2.594-3.281q.187-.312.437-.25.25.063.438.188 1.437.812 3.28 1.218 1.845.407 4.907.22.313-4.626.219-8.376t-.469-6.5q-.5-3.812-1.781-5.656t-3.656-2.688-6.063-1.593q-.812-.188-.844-.72-.03-.53.72-.718 2.187-.625 4.187-2.437 2-1.813 2.437-4.25.125-.5.313-.532.187-.03.687.094H198q4.813 1.063 7 4.844t2.625 9.031q.25 2.938.281 6.219t-.062 6.187-.219 4.907q0 .437-.031.812t-.031.688q0 1.312-.282 2.875-.28 1.562-.906 2.843-.625 1.282-1.75 1.782m44.25-13.438q-6.75 0-10.469-1.25T232.75 30.5q-.5-.687-.125-1.062t.875-.375q.688 0 1.75-.688t2.063-1.625 1.375-1.625q.312-.562.937-.281t1.063.656q1.562 1.375 3.906 2.094t4.75.937q2.406.22 4.28.157 1.876-.063 2.563-.188.75-.125.72-.656-.032-.531-.657-.469-3.375.25-6.25.094t-5.062-1.031-3.407-2.813-1.219-5.187q0-2.063.625-4.188t1.875-3.937 3.22-2.938 4.593-1.125q3.313 0 5.188 1.125t3.625 3.375q1.562 2 2.125 4.125t.937 3.188q.313.812.938 1.468.625.657 1.687.657V27q0 3.875-2.125 5.719t-5.812 2.375-8.313.531m3-17.812q.75 0 .75-.813 0-.312-.219-.531t-.531-.219q-.812 0-.812.75 0 .813.812.813"/><path fill="#d3d3d3" d="M260.25 27v-6.875h2.375q-.062-3-.219-7.437Q262.25 8.25 262 3.25t-.5-9.812-.5-8.563q0-.125-.062-.375-.063-.375-.032-.875t.594-1q.563-.437 1.438-1.219.875-.781 1.687-1.656t1.188-1.562q.5-.875 1-.657.5.22.562 1.282.188 3.687.375 8.062.188 4.375.406 9 .22 4.625.406 9.031.188 4.406.375 8.25.188 3.844.25 6.594.125 3.375-.562 4.875t-2.187 1.906-3.813.469zm2.375 0v-6.875h7.5V27z"/><path fill="#e22e00" d="M277.188 33.125q-1.5 0-2.657-1.156-1.156-1.156-1.156-2.656 0-1.563 1.156-2.688t2.656-1.125q1.563 0 2.688 1.125T281 29.313q0 1.5-1.125 2.656t-2.687 1.156"/><path fill="#d3d3d3" d="M268 24.188v-9.813h1.188q.062 2.313 1.03 3.25.97.938 1.844 1.25v5.313z"/><path fill="#d3d3d3" d="M268.25 27v-6.875h2.438q-.063-2.625-.094-4.25t-.156-3.187q0-.188-.063-.626-.062-1.124 0-1.843.063-.72.625-1.094 2.813-1.875 4.813-4.938.312-.5.593-.406t.281.531q0 4.688.438 9.094t.5 9.094q.063 1.625-1.375 3.063Q274.813 27 273 27zm38.313 0q-2.313 0-3.157-.906t-.906-2.531q-.125-4.313-.187-9.188-.063-4.875-.157-9.656-.093-4.781-.25-8.906-.156-4.125-.406-6.938 0-.25-.031-.437-.031-.188-.031-.375-.25-2.625-.219-3.656t.781-1.532q1.25-.75 2.344-2.03 1.094-1.282 2.094-2.97.312-.5.812-.437.5.062.5 1 0 3 .063 6.781.062 3.781.125 7.781.062 4 .156 7.688t.156 6.53q.063 2.845.125 4.345.188 3.5.313 5.375t.343 2.53.594.657V27z"/><path fill="#d3d3d3" d="M307 24.188v-9.813h1.188q.062 2.313 1.03 3.25.97.938 1.844 1.25v5.313z"/><path fill="#d3d3d3" d="M323.563 27.125 307.25 27v-6.875h3.438q-.25-.5-.625-1.812t-.563-1.875q-.187-.625 0-.907.188-.28.688-.53 1.25-.563 1.968-1.532.72-.969 1.72-2.656.312-.563.843-.563t.656.688q.688 3.25 1.188 5t1.562 2.312q-.375-.875-.656-1.875t-.344-1.875q0-.437.281-.687t.594-.438q1.25-.625 2.156-1.562T321.812 9q.188-.437.563-.5.375-.062.5.438.563 1.562.906 3.406t.781 3.437 1.125 2.407q-.125-1-.312-2.344-.188-1.344-.375-2.563-.188-1.219-.313-1.719t.032-.75.468-.437q.188-.125.25-.187 1-.688 2.032-1.97 1.03-1.28 1.406-2.78.187-.75.656-.844t.656.78q.25 1.188.594 3.376t.688 4.719q.343 2.53.53 4.937.188 2.406.126 4.094-.063 1.188-.781 2.281-.72 1.094-2.563 1.719t-5.219.625Z"/></svg>