<svg xmlns="http://www.w3.org/2000/svg" width="159" height="92" preserveAspectRatio="xMinYMin slice" viewBox="-2 -10 159 92"><path fill="#fffaed" d="M-2 82v-92h159v92Z"/><path d="M12.063 79.625q-.813 0-2.407-.125t-3.406-.594-3.469-1.437q-1.656-.97-2.718-2.563T-1 70.812q0-4.5 2.438-7.593 2.437-3.094 5.75-4.47 2.187-.874 3.593-.468t3.156 2.156q1.25 1.25 2.313 2.25t2.719 1.688 4.625 1.062 8.031.375l1.438 2.813q-2.813-1.313-5-2.97Q25.875 64 23.75 61.75q-.5-.5-.531-.844t.531-.719q.938-.625 2.188-1.969t2.312-2.969q.188-.312.625-.375.438-.062.813.375 3.375 3.875 7.437 6t8.688 3.032 9.687 1.062 10.375.156q.5 0 .719.282.219.28-.094.718-1 1.5-2.094 2.72-1.094 1.218-2.156 2.093-.562.5-1.687.687t-1.938.188q-2.25 0-5.656.031t-7.344.031-7.92.063-7.376.062-5.673.032q-2.281.03-2.844.03-3.625 0-6.687-.5T10 70.063t-2.688-3.938q-.062-.5-.687-.344t-.563.72q.438 2.562 2.032 4.03Q9.687 72 12 72.624q2.312.625 4.875.813 3 .187 6.375.187t6.375-.062 4.969-.156 2.218-.094q.813 0 .72.437-.095.438-.595.625-2 .688-5.562 1.97-3.563 1.28-8.438 2.28t-10.875 1Zm93 0q-.813 0-2.407-.125t-3.406-.594-3.469-1.437q-1.656-.97-2.719-2.563T92 70.812q0-4.5 2.438-7.593 2.437-3.094 5.75-4.47 2.187-.874 3.593-.468t3.156 2.156q1.25 1.25 2.532 2.375 1.28 1.125 2.656 1.969 1.375.844 2.937 1.156 1.563.313 3.313-.125l1.437 2.813q-2.812-1.313-5-2.97Q112.625 64 110.5 61.75q-.5-.5-.531-.844t.53-.719q.938-.625 2.188-1.969T115 55.25q.187-.312.625-.375.437-.062.812.375 3.375 3.875 7.438 6t8.687 3.032 9.688 1.062 10.375.156q.5 0 .719.282.218.28-.094.718-1 1.5-2.094 2.72-1.094 1.218-2.156 2.093-.563.5-1.688.687t-1.937.188q-2.25 0-5.188.031T134 72.25t-6.406.063-5.844.062-4.531.032q-1.844.03-2.406.03-3.626 0-6.688-.5T103 70.063q-2.062-1.375-2.687-3.938-.063-.5-.688-.344t-.562.72q.437 2.562 2.03 4.03Q102.688 72 105 72.624q2.312.625 4.875.813 3 .187 6.375.187t6.375-.062 4.969-.156 2.219-.094q.812 0 .718.437-.094.438-.594.625-2 .688-5.562 1.97-3.562 1.28-8.437 2.28-4.876 1-10.876 1Zm-92.5-57q-.813 0-2.407-.125t-3.406-.594-3.469-1.437q-1.656-.97-2.718-2.563T-.5 13.812q0-4.5 2.438-7.593 2.437-3.094 5.75-4.47 2.187-.874 3.593-.468t3.156 2.156q1.25 1.25 2.407 2.313Q18 6.812 19.53 7.593q1.531.782 3.781 1.125 2.25.344 5.688.094l2 2.125q-1.688-.375-3.125-1.53-1.438-1.157-2.344-2.688t-.969-3.063 1-2.656q.625-.688 1.875-1.906L30.093-3.5q1.407-1.375 2.532-2.438Q33.75-7 34.125-7.375q.687-.688 1.03-.25.345.437-.155 1-.375.437-1.032 1.406-.656.969-1.312 1.969t-.969 1.562q-.875 1.438.5 3.22 1.375 1.78 4.469 3.374T44 7.562q3.25.813 5.906 1.188t5.156.469 5.188 0q2.687-.094 6.062-.282.813-.062.813.313t-.375.687q-1.188.875-2.657 2.375-1.468 1.5-2.53 2.25-.313.25-.626.407-.312.156-.625.156-3.062 0-7 .031-3.937.031-8.28.063-4.345.03-8.595.093t-7.906.094-6.219.031q-3.625 0-6.687-.5T10.5 13.062 7.812 9.125q-.062-.5-.687-.344t-.563.719Q7 12.062 8.593 13.53t3.907 2.094 4.875.812q3 .188 6.375.188t6.375-.063 4.968-.156q1.97-.094 2.22-.094.812 0 .718.438-.094.437-.594.625-2 .687-5.562 1.969-3.563 1.28-8.438 2.28t-10.875 1Zm93 0q-.813 0-2.407-.125t-3.406-.594-3.469-1.437q-1.656-.97-2.719-2.563T92.5 13.812q0-4.5 2.438-7.593 2.437-3.094 5.75-4.47 2.187-.874 3.593-.468t3.156 2.156q1.25 1.25 2.532 2.375 1.28 1.125 2.656 1.969 1.375.844 2.937 1.156 1.563.313 3.313-.125l-1.125 2.125q-1.688-.375-3.125-1.531t-2.344-2.688q-.906-1.53-.969-3.062t1-2.656q.625-.688 1.875-1.906l2.656-2.594q1.407-1.375 2.532-2.438 1.125-1.062 1.5-1.437.687-.688 1.03-.25.345.437-.155 1-.375.437-1.032 1.406-.656.969-1.312 1.969t-.969 1.562q-.875 1.438.5 3.22 1.375 1.78 4.469 3.374t7.344 2.656q3.25.813 5.906 1.188t5.156.469 5.188 0 6.062-.282q.813-.062.813.313t-.375.687q-1.188.875-2.656 2.375-1.47 1.5-2.532 2.25-.312.25-.625.407-.312.156-.625.156-3.062 0-6.937.031l-7.938.062q-4.062.032-7.656.094-3.594.063-6.062.094-2.47.031-3.157.031-3.625 0-6.687-.5t-5.125-1.875-2.688-3.937q-.062-.5-.687-.344t-.563.719q.438 2.562 2.032 4.031 1.593 1.469 3.906 2.094 2.312.625 4.875.812 3 .188 6.375.188t6.375-.063 4.969-.156 2.218-.094q.813 0 .72.438-.095.437-.595.625-2 .687-5.562 1.969-3.563 1.28-8.438 2.28t-10.875 1Z"/></svg>