<?xml version='1.0' encoding='ASCII'?>
<svg xmlns="http://www.w3.org/2000/svg" width="112" height="56" preserveAspectRatio="xMinYMin slice" viewBox="-3 -5 112 56" version="1.1">
  <path d="M-3,-5 v56 h112 v-56 Z" fill="#000000" transform="matrix(1,0,0,-1,0,46)"/>
  <path d="M19.4375,-3 q-3.8125,0.0625 -7.2812,1.1875 q-3.4688,1.125 -6.1875,3.4375 q-2.7188,2.3125 -4.3125,5.9688 q-1.5938,3.6562 -1.6562,8.7812 q0,2.625 -0.0625,5.7812 q-0.0625,3.1562 -0.1562,6.4062 q-0.0938,3.25 -0.25,6.1562 q-0.1562,2.9062 -0.3438,4.9062 q-0.1875,1.4375 -0.3125,2.3125 q-0.125,0.875 0.3125,1.1875 q0.6875,0.4375 1.6562,1.2812 q0.9688,0.8438 1.8438,1.8438 q0.875,1 1.25,1.8125 q0.3125,0.6875 0.7812,0.6875 q0.4688,0 0.6562,-1.25 q0.3125,-2.25 0.375,-5.375 q0.0625,-3.125 0.0625,-6.6875 q0,-3.5625 0,-7.1562 q0,-3.5938 0.1875,-6.7188 q0.1875,-3.4375 1.3125,-6.25 q1.125,-2.8125 3.0938,-4.9062 q1.9688,-2.0938 4.5312,-3.4688 q3.25,-1.6875 7.3125,-2.1875 q4.0625,-0.5 8.625,0.3125 q4.5625,0.8125 9.25,2.875 q0.5625,0.3125 0.8438,0.125 q0.2812,-0.1875 0.0312,-0.75 q-2.3125,-5.125 -7.9688,-7.75 q-5.6562,-2.625 -13.5938,-2.5625 Z" fill="#D3D3D3" transform="matrix(1,0,0,-1,-1,46)"/>
  <path d="" fill="#D3D3D3" transform="matrix(1,0,0,-1,40,46)"/>
  <path d="M19.4375,-3 q-3.8125,0.0625 -7.2812,1.1875 q-3.4688,1.125 -6.1875,3.4375 q-2.7188,2.3125 -4.3125,5.9688 q-1.5938,3.6562 -1.6562,8.7812 q0,2.625 -0.0625,5.7812 q-0.0625,3.1562 -0.1562,6.4062 q-0.0938,3.25 -0.25,6.1562 q-0.1562,2.9062 -0.3438,4.9062 q-0.1875,1.4375 -0.3125,2.3125 q-0.125,0.875 0.3125,1.1875 q0.6875,0.4375 1.6562,1.2812 q0.9688,0.8438 1.8438,1.8438 q0.875,1 1.25,1.8125 q0.3125,0.6875 0.7812,0.6875 q0.4688,0 0.6562,-1.25 q0.3125,-2.25 0.375,-5.375 q0.0625,-3.125 0.0625,-6.6875 q0,-3.5625 0,-7.1562 q0,-3.5938 0.1875,-6.7188 q0.1875,-3.4375 1.3125,-6.25 q1.125,-2.8125 3.0938,-4.9062 q1.9688,-2.0938 4.5312,-3.4688 q3.25,-1.6875 7.3125,-2.1875 q4.0625,-0.5 8.625,0.3125 q4.5625,0.8125 9.25,2.875 q0.5625,0.3125 0.8438,0.125 q0.2812,-0.1875 0.0312,-0.75 q-2.3125,-5.125 -7.9688,-7.75 q-5.6562,-2.625 -13.5938,-2.5625 Z" fill="#D3D3D3" transform="matrix(1,0,0,-1,65,46)"/>
</svg>
