<svg xmlns="http://www.w3.org/2000/svg" width="311" height="80" preserveAspectRatio="xMinYMin slice" viewBox="-3 -28 311 80"><path fill="#fffaed" d="M-3 52v-80h311v80Z"/><path d="M3.063 24Q.75 24-.095 23.094T-1 20.563q-.125-4.313-.187-9.188Q-1.25 6.5-1.344 1.72q-.093-4.781-.25-8.906-.156-4.125-.406-6.938 0-.25-.031-.437-.031-.188-.031-.375-.25-2.625-.219-3.656t.781-1.532q1.25-.75 2.344-2.03 1.094-1.282 2.094-2.97.312-.5.812-.437.5.062.5 1 0 3 .063 6.781.062 3.78.125 7.78.062 4 .156 7.688t.156 6.53q.063 2.845.125 4.345.188 3.5.313 5.375t.343 2.53.594.657V24z"/><path d="M3.5 21.188v-9.813h1.188q.062 2.313 1.03 3.25.97.938 1.845 1.25v5.313z"/><path d="M22.313 24.625h-1.75q-4.063-.062-8.407-.344T3.75 24v-6.875h2.375q-.062-.375-.062-.812.062-2.75 1.156-5.532 1.094-2.78 3-5.094Q12.125 3.376 14.625 2T19.938.625q2.375 0 4.5 1.531t3.718 4.063q1.594 2.53 2.5 5.53.907 3 .907 6 0 1.876-.75 3.438t-2.75 2.5-5.75.938m-1-11.125q.75 0 .75-.812 0-.313-.22-.532-.218-.219-.53-.219-.813 0-.813.75 0 .813.813.813"/><path d="M37.5 24q-3 0-4.469-1.875t-1.594-7.25q-.062-1.75-.093-4.5-.032-2.75-.063-6.031t-.125-6.688-.25-6.469-.344-5.312q0-.25-.03-.437-.032-.188-.032-.376-.25-2.624-.219-3.656.031-1.03.781-1.53 1.25-.75 2.344-2.032 1.094-1.281 2.094-2.969.312-.5.812-.437.5.062.5 1 0 3 .063 6.78Q36.937-14 37.03-10t.188 7.688q.093 3.687.156 6.53.062 2.845.125 4.345.187 3.5.312 5.375t.313 2.53.562.657V24z"/><path d="M37.375 24 36.5 9.375h1.125q.063 2.438 1.063 4.094T41.125 16t2.813 1.125V24z"/><path d="M39.75 24v-6.875h4.375q-1.75-1.687-2.375-3.969t.813-3.781q.624-.687 1.874-1.906l2.657-2.594Q48.5 3.5 49.624 2.438 50.75 1.375 51.125 1q.688-.687 1.032-.25t-.156 1q-.375.438-1.031 1.406-.657.969-1.313 1.969t-.969 1.563q-.875 1.5.5 3.25t4.47 3.343T61 15.937q4.125 1.063 7.344 1.407 3.219.343 6.406.28 3.188-.062 7.25-.25.313 0 .656-.03.344-.032.656-.032.813-.062.813.313t-.375.688q-1.188.875-2.656 2.375-1.47 1.5-2.531 2.25-.313.25-.626.406-.312.156-.624.156-5.626.187-10.126.312T58.5 24q-4.187.062-8.687.062T39.75 24m73.642-3.41q-.613-.124-.488-.737.062-.306.344-.44 1.559-.767 2.978-1.787 1.418-1.019 2.795-2.142.233-.208.54-.146.612.125.487.737-.05.245-.197.343-2.863 2.48-6.067 4.124-.147.098-.392.048m-3.875-4.875q-.613-.124-.488-.737.062-.306.344-.44 1.559-.767 2.978-1.787 1.418-1.019 2.795-2.142.233-.208.54-.146.612.124.487.737-.05.245-.197.343-2.863 2.48-6.067 4.124-.147.098-.392.048m1.937 2.438q-.612-.125-.488-.737.062-.306.345-.44 1.558-.768 2.977-1.787 1.419-1.02 2.795-2.143.234-.208.54-.145.612.124.488.737-.05.245-.197.342-2.863 2.48-6.067 4.125-.148.098-.393.048M149.063 24q-2.313 0-3.157-.906T145 20.563q-.125-4.313-.187-9.188-.063-4.875-.157-9.656-.093-4.781-.25-8.906-.156-4.125-.406-6.938 0-.25-.031-.437-.031-.188-.031-.375-.25-2.625-.219-3.656t.781-1.532q1.25-.75 2.344-2.03 1.094-1.282 2.094-2.97.312-.5.812-.437.5.062.5 1 0 3 .063 6.781.062 3.781.125 7.781.062 4 .156 7.688t.156 6.53q.063 2.845.125 4.345.188 3.5.313 5.375t.343 2.53.594.657V24z"/><path d="M149.5 21.188v-9.813h1.188q.062 2.313 1.03 3.25.97.938 1.845 1.25v5.313z"/><path d="M168.313 24.625h-1.75q-4.063-.062-8.407-.344T149.75 24v-6.875h2.375q-.062-.375-.062-.812.062-2.75 1.156-5.532 1.094-2.78 3-5.094 1.906-2.312 4.406-3.687t5.313-1.375q2.375 0 4.5 1.531t3.718 4.063q1.594 2.53 2.5 5.53t.906 6q0 1.876-.75 3.438t-2.75 2.5-5.75.938m-1-11.125q.75 0 .75-.812 0-.313-.22-.532-.218-.219-.53-.219-.813 0-.813.75 0 .813.813.813"/><path d="M192.375 26.125q-4.812 0-7.937-1.125t-4.782-3.094-2.094-4.406q-.437-2.812.282-5.625.719-2.812 2.5-5.187 1.78-2.375 4.437-3.813 2.656-1.437 6.031-1.437 2.938 0 5.188 1.687t3.781 4.313 2.313 5.468.78 5.22q0 3.124-1.03 4.874-1.032 1.75-3.344 2.406-2.313.657-6.125.72ZM190.75 14.75q.75 0 .75-.812 0-.313-.219-.532t-.531-.219q-.812 0-.812.75 0 .813.812.813m41.642 5.84q-.613-.124-.488-.737.062-.306.344-.44 1.559-.767 2.978-1.787 1.419-1.019 2.795-2.142.233-.208.54-.146.612.125.488.737-.05.245-.198.343-2.863 2.48-6.067 4.124-.147.098-.392.048m-3.875-4.875q-.613-.124-.488-.737.062-.306.344-.44 1.559-.767 2.978-1.787 1.418-1.019 2.795-2.142.233-.208.54-.146.612.124.488.737-.05.245-.198.343-2.863 2.48-6.067 4.124-.147.098-.392.048m1.937 2.438q-.612-.125-.488-.737.062-.306.345-.44 1.559-.768 2.977-1.787 1.419-1.02 2.795-2.143.234-.208.54-.145.612.124.488.737-.05.245-.197.342-2.863 2.48-6.067 4.125-.148.098-.393.048M265 17.188q-.625 0-.625-.625 0-.313.25-.5Q266 15 267.188 13.719q1.187-1.281 2.312-2.656.188-.25.5-.25.625 0 .625.624 0 .25-.125.376-2.312 3-5.125 5.25-.125.125-.375.125"/><path d="M278.625 49.188q-1.562.624-3.781.874t-4.594.063-4.531-.781-3.594-1.594q-.562-.375-.656-.875t.594-.75q1.125-.5 2.406-1.844T267.063 41q.187-.312.437-.25.25.063.438.188 1.312.687 3.062 1.124t5.063.376q.125-3.563.125-6.532t-.063-5.28V30q-.062-3.812-1.344-5.656-1.28-1.844-3.75-2.688-2.469-.843-6.156-1.593-.812-.188-.844-.72-.03-.53.72-.718 2.187-.625 3.843-2.437 1.656-1.813 2.281-4.25.125-.5.438-.75.312-.25.937.062 3.5 1.938 5.5 3.875t2.906 4.344.97 5.906q.062 2.25.062 5.094t-.032 5.594q-.03 2.75-.093 4.875v.75q0 1.312-.282 2.875-.28 1.562-.906 2.843-.625 1.282-1.75 1.782"/><path d="M294.375 26.125q-4.812 0-7.937-1.125t-4.782-3.094-2.094-4.406q-.437-2.812.282-5.625.719-2.812 2.5-5.187 1.78-2.375 4.437-3.813 2.656-1.437 6.031-1.437 2.938 0 5.188 1.687t3.781 4.313 2.313 5.468.78 5.22q0 3.124-1.03 4.874-1.032 1.75-3.344 2.406-2.313.657-6.125.72ZM292.75 14.75q.75 0 .75-.812 0-.313-.219-.532t-.531-.219q-.812 0-.812.75 0 .813.812.813"/></svg>