<?xml version='1.0' encoding='ASCII'?>
<svg xmlns="http://www.w3.org/2000/svg" width="311" height="80" preserveAspectRatio="xMinYMin slice" viewBox="-3 -28 311 80" version="1.1">
  <path d="M-3,-28 v80 h311 v-80 Z" fill="#000000" transform="matrix(1,0,0,-1,0,24)"/>
  <path d="M4.0625,0 q-2.3125,0 -3.1562,0.9062 q-0.8438,0.9062 -0.9062,2.5312 q-0.125,4.3125 -0.1875,9.1875 q-0.0625,4.875 -0.1562,9.6562 q-0.0938,4.7812 -0.25,8.9062 q-0.1562,4.125 -0.4062,6.9375 q0,0.25 -0.0312,0.4375 q-0.0312,0.1875 -0.0312,0.375 q-0.25,2.625 -0.2188,3.6562 q0.0312,1.0312 0.7812,1.5312 q1.25,0.75 2.3438,2.0312 q1.0938,1.2812 2.0938,2.9688 q0.3125,0.5 0.8125,0.4375 q0.5,-0.0625 0.5,-1 q0,-3 0.0625,-6.7812 q0.0625,-3.7812 0.125,-7.7812 q0.0625,-4 0.1562,-7.6875 q0.0938,-3.6875 0.1562,-6.5312 q0.0625,-2.8438 0.125,-4.3438 q0.1875,-3.5 0.3125,-5.375 q0.125,-1.875 0.3438,-2.5312 q0.2188,-0.6562 0.5938,-0.6562 v-6.875 h-3.0625 Z" fill="#D3D3D3" transform="matrix(1,0,0,-1,-1,24)"/>
  <path d="M-1.5,2.8125 v9.8125 h1.1875 q0.0625,-2.3125 1.0312,-3.25 q0.9688,-0.9375 1.8438,-1.25 v-5.3125 h-4.0625 Z" fill="#D3D3D3" transform="matrix(1,0,0,-1,5,24)"/>
  <path d="M17.3125,-0.625 q-0.875,0 -1.75,0 v0 q-4.0625,0.0625 -8.4062,0.3438 q-4.3438,0.2812 -8.4062,0.2812 v6.875 h2.375 q-0.0625,0.375 -0.0625,0.8125 q0.0625,2.75 1.1562,5.5312 q1.0938,2.7812 3,5.0938 q1.9062,2.3125 4.4062,3.6875 q2.5,1.375 5.3125,1.375 q2.375,0 4.5,-1.5312 q2.125,-1.5312 3.7188,-4.0625 q1.5938,-2.5312 2.5,-5.5312 q0.9062,-3 0.9062,-6 q0,-1.875 -0.75,-3.4375 q-0.75,-1.5625 -2.75,-2.5 q-2,-0.9375 -5.75,-0.9375 Z M16.3125,10.5 q0.75,0 0.75,0.8125 q0,0.3125 -0.2188,0.5312 q-0.2188,0.2188 -0.5312,0.2188 q-0.8125,0 -0.8125,-0.75 q0,-0.8125 0.8125,-0.8125 Z" fill="#D3D3D3" transform="matrix(1,0,0,-1,5,24)"/>
  <path d="M5.5,0 q-3,0 -4.4688,1.875 q-1.4688,1.875 -1.5938,7.25 q-0.0625,1.75 -0.0938,4.5 q-0.0312,2.75 -0.0625,6.0312 q-0.0312,3.2812 -0.125,6.6875 q-0.0938,3.4062 -0.25,6.4688 q-0.1562,3.0625 -0.3438,5.3125 q0,0.25 -0.0312,0.4375 q-0.0312,0.1875 -0.0312,0.375 q-0.25,2.625 -0.2188,3.6562 q0.0312,1.0312 0.7812,1.5312 q1.25,0.75 2.3438,2.0312 q1.0938,1.2812 2.0938,2.9688 q0.3125,0.5 0.8125,0.4375 q0.5,-0.0625 0.5,-1 q0,-3 0.0625,-6.7812 q0.0625,-3.7812 0.1562,-7.7812 q0.0938,-4 0.1875,-7.6875 q0.0938,-3.6875 0.1562,-6.5312 q0.0625,-2.8438 0.125,-4.3438 q0.1875,-3.5 0.3125,-5.375 q0.125,-1.875 0.3125,-2.5312 q0.1875,-0.6562 0.5625,-0.6562 v-6.875 h-1.1875 Z" fill="#D3D3D3" transform="matrix(1,0,0,-1,32,24)"/>
  <path d="M-0.625,0 l-0.875,14.625 h1.125 q0.0625,-2.4375 1.0625,-4.0938 q1,-1.6562 2.4375,-2.5312 q1.4375,-0.875 2.8125,-1.125 v-6.875 h-6.5625 Z" fill="#D3D3D3" transform="matrix(1,0,0,-1,38,24)"/>
  <path d="M-1.25,0 v6.875 h4.375 q-1.75,1.6875 -2.375,3.9688 q-0.625,2.2812 0.8125,3.7812 q0.625,0.6875 1.875,1.9062 q1.25,1.2188 2.6562,2.5938 q1.4062,1.375 2.5312,2.4375 q1.125,1.0625 1.5,1.4375 q0.6875,0.6875 1.0312,0.25 q0.3438,-0.4375 -0.1562,-1 q-0.375,-0.4375 -1.0312,-1.4062 q-0.6562,-0.9688 -1.3125,-1.9688 q-0.6562,-1 -0.9688,-1.5625 q-0.875,-1.5 0.5,-3.25 q1.375,-1.75 4.4688,-3.3438 q3.0938,-1.5938 7.3438,-2.6562 q4.125,-1.0625 7.3438,-1.4062 q3.2188,-0.3438 6.4062,-0.2812 q3.1875,0.0625 7.25,0.25 q0.3125,0 0.6562,0.0312 q0.3438,0.0312 0.6562,0.0312 q0.8125,0.0625 0.8125,-0.3125 q0,-0.375 -0.375,-0.6875 q-1.1875,-0.875 -2.6562,-2.375 q-1.4688,-1.5 -2.5312,-2.25 q-0.3125,-0.25 -0.625,-0.4062 q-0.3125,-0.1562 -0.625,-0.1562 q-5.625,-0.1875 -10.125,-0.3125 q-4.5,-0.125 -8.6875,-0.1875 q-4.1875,-0.0625 -8.6875,-0.0625 q-4.5,0 -10.0625,0.0625 Z" fill="#D3D3D3" transform="matrix(1,0,0,-1,41,24)"/>
  <path d="" fill="#D3D3D3" transform="matrix(1,0,0,-1,84,24)"/>
  <path d="M4.3917,3.4097 q-0.6125,0.1244 -0.4881,0.7369 q0.0622,0.3062 0.3445,0.4402 q1.5589,0.7676 2.9777,1.7868 q1.4187,1.0192 2.7949,2.1428 q0.2335,0.2077 0.5397,0.1455 q0.6125,-0.1244 0.4881,-0.7369 q-0.0498,-0.245 -0.1971,-0.3426 q-2.8633,-2.4797 -6.0673,-4.1248 q-0.1474,-0.0976 -0.3924,-0.0479 Z M0.5167,8.2847 q-0.6125,0.1244 -0.4881,0.7369 q0.0622,0.3062 0.3445,0.4402 q1.5589,0.7676 2.9777,1.7868 q1.4187,1.0192 2.7949,2.1428 q0.2335,0.2077 0.5397,0.1455 q0.6125,-0.1244 0.4881,-0.7369 q-0.0498,-0.245 -0.1971,-0.3426 q-2.8633,-2.4797 -6.0673,-4.1248 q-0.1474,-0.0976 -0.3924,-0.0479 Z M2.4542,5.8472 q-0.6125,0.1244 -0.4881,0.7369 q0.0622,0.3062 0.3445,0.4402 q1.5589,0.7676 2.9777,1.7868 q1.4187,1.0192 2.7949,2.1428 q0.2335,0.2077 0.5397,0.1455 q0.6125,-0.1244 0.4881,-0.7369 q-0.0498,-0.245 -0.1971,-0.3426 q-2.8633,-2.4797 -6.0673,-4.1248 q-0.1474,-0.0976 -0.3924,-0.0479 Z" fill="#D3D3D3" transform="matrix(1,0,0,-1,109,24)"/>
  <path d="" fill="#D3D3D3" transform="matrix(1,0,0,-1,120,24)"/>
  <path d="M4.0625,0 q-2.3125,0 -3.1562,0.9062 q-0.8438,0.9062 -0.9062,2.5312 q-0.125,4.3125 -0.1875,9.1875 q-0.0625,4.875 -0.1562,9.6562 q-0.0938,4.7812 -0.25,8.9062 q-0.1562,4.125 -0.4062,6.9375 q0,0.25 -0.0312,0.4375 q-0.0312,0.1875 -0.0312,0.375 q-0.25,2.625 -0.2188,3.6562 q0.0312,1.0312 0.7812,1.5312 q1.25,0.75 2.3438,2.0312 q1.0938,1.2812 2.0938,2.9688 q0.3125,0.5 0.8125,0.4375 q0.5,-0.0625 0.5,-1 q0,-3 0.0625,-6.7812 q0.0625,-3.7812 0.125,-7.7812 q0.0625,-4 0.1562,-7.6875 q0.0938,-3.6875 0.1562,-6.5312 q0.0625,-2.8438 0.125,-4.3438 q0.1875,-3.5 0.3125,-5.375 q0.125,-1.875 0.3438,-2.5312 q0.2188,-0.6562 0.5938,-0.6562 v-6.875 h-3.0625 Z" fill="#D3D3D3" transform="matrix(1,0,0,-1,145,24)"/>
  <path d="M-1.5,2.8125 v9.8125 h1.1875 q0.0625,-2.3125 1.0312,-3.25 q0.9688,-0.9375 1.8438,-1.25 v-5.3125 h-4.0625 Z" fill="#D3D3D3" transform="matrix(1,0,0,-1,151,24)"/>
  <path d="M17.3125,-0.625 q-0.875,0 -1.75,0 v0 q-4.0625,0.0625 -8.4062,0.3438 q-4.3438,0.2812 -8.4062,0.2812 v6.875 h2.375 q-0.0625,0.375 -0.0625,0.8125 q0.0625,2.75 1.1562,5.5312 q1.0938,2.7812 3,5.0938 q1.9062,2.3125 4.4062,3.6875 q2.5,1.375 5.3125,1.375 q2.375,0 4.5,-1.5312 q2.125,-1.5312 3.7188,-4.0625 q1.5938,-2.5312 2.5,-5.5312 q0.9062,-3 0.9062,-6 q0,-1.875 -0.75,-3.4375 q-0.75,-1.5625 -2.75,-2.5 q-2,-0.9375 -5.75,-0.9375 Z M16.3125,10.5 q0.75,0 0.75,0.8125 q0,0.3125 -0.2188,0.5312 q-0.2188,0.2188 -0.5312,0.2188 q-0.8125,0 -0.8125,-0.75 q0,-0.8125 0.8125,-0.8125 Z" fill="#D3D3D3" transform="matrix(1,0,0,-1,151,24)"/>
  <path d="M14.375,-2.125 q-4.8125,0 -7.9375,1.125 q-3.125,1.125 -4.7812,3.0938 q-1.6562,1.9688 -2.0938,4.4062 q-0.4375,2.8125 0.2812,5.625 q0.7188,2.8125 2.5,5.1875 q1.7812,2.375 4.4375,3.8125 q2.6562,1.4375 6.0312,1.4375 q2.9375,0 5.1875,-1.6875 q2.25,-1.6875 3.7812,-4.3125 q1.5312,-2.625 2.3125,-5.4688 q0.7812,-2.8438 0.7812,-5.2188 q0,-3.125 -1.0312,-4.875 q-1.0312,-1.75 -3.3438,-2.4062 q-2.3125,-0.6562 -6.125,-0.7188 Z M12.75,9.25 q0.75,0 0.75,0.8125 q0,0.3125 -0.2188,0.5312 q-0.2188,0.2188 -0.5312,0.2188 q-0.8125,0 -0.8125,-0.75 q0,-0.8125 0.8125,-0.8125 Z" fill="#D3D3D3" transform="matrix(1,0,0,-1,178,24)"/>
  <path d="" fill="#D3D3D3" transform="matrix(1,0,0,-1,203,24)"/>
  <path d="M4.3917,3.4097 q-0.6125,0.1244 -0.4881,0.7369 q0.0622,0.3062 0.3445,0.4402 q1.5589,0.7676 2.9777,1.7868 q1.4187,1.0192 2.7949,2.1428 q0.2335,0.2077 0.5397,0.1455 q0.6125,-0.1244 0.4881,-0.7369 q-0.0498,-0.245 -0.1971,-0.3426 q-2.8633,-2.4797 -6.0673,-4.1248 q-0.1474,-0.0976 -0.3924,-0.0479 Z M0.5167,8.2847 q-0.6125,0.1244 -0.4881,0.7369 q0.0622,0.3062 0.3445,0.4402 q1.5589,0.7676 2.9777,1.7868 q1.4187,1.0192 2.7949,2.1428 q0.2335,0.2077 0.5397,0.1455 q0.6125,-0.1244 0.4881,-0.7369 q-0.0498,-0.245 -0.1971,-0.3426 q-2.8633,-2.4797 -6.0673,-4.1248 q-0.1474,-0.0976 -0.3924,-0.0479 Z M2.4542,5.8472 q-0.6125,0.1244 -0.4881,0.7369 q0.0622,0.3062 0.3445,0.4402 q1.5589,0.7676 2.9777,1.7868 q1.4187,1.0192 2.7949,2.1428 q0.2335,0.2077 0.5397,0.1455 q0.6125,-0.1244 0.4881,-0.7369 q-0.0498,-0.245 -0.1971,-0.3426 q-2.8633,-2.4797 -6.0673,-4.1248 q-0.1474,-0.0976 -0.3924,-0.0479 Z" fill="#D3D3D3" transform="matrix(1,0,0,-1,228,24)"/>
  <path d="" fill="#D3D3D3" transform="matrix(1,0,0,-1,239,24)"/>
  <path d="M1,0.8125 q-0.625,0 -0.625,0.625 q0,0.3125 0.25,0.5 q1.375,1.0625 2.5625,2.3438 q1.1875,1.2812 2.3125,2.6562 q0.1875,0.25 0.5,0.25 q0.625,0 0.625,-0.625 q0,-0.25 -0.125,-0.375 q-2.3125,-3 -5.125,-5.25 q-0.125,-0.125 -0.375,-0.125 Z" fill="#D3D3D3" transform="matrix(1,0,0,-1,264,18)"/>
  <path d="M14.625,-25.1875 q-1.5625,-0.625 -3.7812,-0.875 q-2.2188,-0.25 -4.5938,-0.0625 q-2.375,0.1875 -4.5312,0.7812 q-2.1562,0.5938 -3.5938,1.5938 q-0.5625,0.375 -0.6562,0.875 q-0.0938,0.5 0.5938,0.75 q1.125,0.5 2.4062,1.8438 q1.2812,1.3438 2.5938,3.2812 q0.1875,0.3125 0.4375,0.25 q0.25,-0.0625 0.4375,-0.1875 q1.3125,-0.6875 3.0625,-1.125 q1.75,-0.4375 5.0625,-0.375 q0.125,3.5625 0.125,6.5312 q0,2.9688 -0.0625,5.2812 q0,0.4375 0,0.625 q-0.0625,3.8125 -1.3438,5.6562 q-1.2812,1.8438 -3.75,2.6875 q-2.4688,0.8438 -6.1562,1.5938 q-0.8125,0.1875 -0.8438,0.7188 q-0.0312,0.5312 0.7188,0.7188 q2.1875,0.625 3.8438,2.4375 q1.6562,1.8125 2.2812,4.25 q0.125,0.5 0.4375,0.75 q0.3125,0.25 0.9375,-0.0625 q3.5,-1.9375 5.5,-3.875 q2,-1.9375 2.9062,-4.3438 q0.9062,-2.4062 0.9688,-5.9062 q0.0625,-2.25 0.0625,-5.0938 q0,-2.8438 -0.0312,-5.5938 q-0.0312,-2.75 -0.0938,-4.875 q0,-0.5 0,-0.75 q0,-1.3125 -0.2812,-2.875 q-0.2812,-1.5625 -0.9062,-2.8438 q-0.625,-1.2812 -1.75,-1.7812 Z" fill="#D3D3D3" transform="matrix(1,0,0,-1,264,24)"/>
  <path d="M14.375,-2.125 q-4.8125,0 -7.9375,1.125 q-3.125,1.125 -4.7812,3.0938 q-1.6562,1.9688 -2.0938,4.4062 q-0.4375,2.8125 0.2812,5.625 q0.7188,2.8125 2.5,5.1875 q1.7812,2.375 4.4375,3.8125 q2.6562,1.4375 6.0312,1.4375 q2.9375,0 5.1875,-1.6875 q2.25,-1.6875 3.7812,-4.3125 q1.5312,-2.625 2.3125,-5.4688 q0.7812,-2.8438 0.7812,-5.2188 q0,-3.125 -1.0312,-4.875 q-1.0312,-1.75 -3.3438,-2.4062 q-2.3125,-0.6562 -6.125,-0.7188 Z M12.75,9.25 q0.75,0 0.75,0.8125 q0,0.3125 -0.2188,0.5312 q-0.2188,0.2188 -0.5312,0.2188 q-0.8125,0 -0.8125,-0.75 q0,-0.8125 0.8125,-0.8125 Z" fill="#D3D3D3" transform="matrix(1,0,0,-1,280,24)"/>
</svg>
