<svg xmlns="http://www.w3.org/2000/svg" width="458" height="80" preserveAspectRatio="xMinYMin slice" viewBox="-2 -28 458 80"><path d="M-2 52v-80h458v80Z"/><path fill="#d3d3d3" d="M21.25 26.813q-5.062 0-9.687-.125-4.626-.125-7.876-.75t-4.312-2Q-.875 23.563-1 23t.75-.875q1.813-.687 3.031-1.562t2.156-2.438q.25-.437.72-.5.468-.062.968.125 1.125.375 2.313.625 1.187.25 2.437.375-.812-4.687.594-8.094t4.156-5.25T22 3.562q3.313 0 5.938 2.063 2.625 2.062 4.156 5.5 1.53 3.437 1.53 7.5 0 3.125-1.062 4.812t-2.718 2.407-3.5.843-3.47.125zm1.938-11.375q.75 0 .75-.813 0-.312-.22-.531-.218-.219-.53-.219-.813 0-.813.75 0 .813.813.813M34 31q-.625 0-.625-.625 0-.312.25-.5 1.375-1.062 2.563-2.344 1.187-1.281 2.312-2.656.188-.25.5-.25.625 0 .625.625 0 .25-.125.375-2.312 3-5.125 5.25Q34.25 31 34 31m1.875 1.688q-.625 0-.625-.626 0-.312.25-.5 1.375-1.062 2.563-2.343 1.187-1.282 2.312-2.657.188-.25.5-.25.625 0 .625.625 0 .25-.125.375-2.312 3-5.125 5.25-.125.126-.375.126"/><path fill="#d3d3d3" d="M39.5 24q-2.625 0-3.906-1.219T33.906 19.5t-.468-4.625q0-1.625-.032-2.719-.03-1.094-.218-3.031-.063-.5.124-1 .188-.5.813-.687.875-.313 2-1.782 1.125-1.468 2.563-3.593.312-.376.78-.313.47.063.532.938.187 2.437.312 5.156t.25 6.344q.063 1.062.25 2 .188.937.75.937V24z"/><path fill="#d3d3d3" d="M39.563 24V12h1.187q-.062 2.313 2.281 3.75 2.344 1.438 6.094 1.75v2.813z"/><path fill="#d3d3d3" d="M39.75 24v-6.875h6.75q-2.187-1.625-4.375-3.937-.5-.5-.531-.844t.531-.72q.938-.624 2.188-1.968t2.312-2.969q.188-.312.625-.375.438-.062.813.375 3.374 3.875 7.437 6.032t8.688 3.125 9.687 1.187 10.375.219q.5 0 .656.281t-.156.719q-1 1.5-2.031 2.562-1.031 1.063-2.094 1.938-.562.5-1.687.687T77 23.625q-3 0-7.375.062-4.375.063-9.187.125-3.876.063-7.688.094t-7.187.063q-3.376.03-5.813.03Zm51.5 7.563q-4.187.062-7.875-.97-3.687-1.03-5.687-2.343-.75-.5-.657-.938.094-.437.72-.687 1.437-.5 2.655-1.844 1.22-1.344 2.156-2.531.376-.5 1.126-.063 1.75.938 4.374 1.594 2.626.656 5.157.938 2.53.28 3.969.093.5-.062.406-.468t-.47-.407q-1.5.063-3.5-.156-2-.218-3.937-.718t-3.375-1.25q-.687-.375-.593-.907.093-.53.468-.843.875-.875 2.125-2.157 1.25-1.28 2.532-2.687 1.28-1.406 2.375-2.594 1.093-1.187 1.718-1.812l.407-.407q.156-.156.406-.156.312 0 .937.438 2.063 1.375 4 3.718 1.938 2.344 3.25 5.125t1.375 5.532q.063 1.687-.625 3.343-.687 1.657-3.125 2.344-2.062.625-4.719.688-2.656.062-5.593.125"/><path fill="#d3d3d3" d="M100.75 24v-6.875h2.375q-.062-4.062-.281-8.875t-.5-9.969-.594-10.156q0-.125-.062-.375-.063-.375-.032-.875t.594-1q.563-.437 1.438-1.219.875-.781 1.687-1.656t1.188-1.562q.5-.875 1-.657.5.22.562 1.282.313 6.125.594 12.375t.562 11.968q.282 5.72.407 10.344.125 3.375-.563 4.875t-2.187 1.906-3.813.47zm29.688 3q-3.813-.062-7.282-1.187t-6.187-3.438-4.313-5.969T111 7.625q0-2.625-.062-5.781-.063-3.156-.157-6.406-.093-3.25-.25-6.157-.156-2.906-.343-4.906-.188-1.437-.313-2.312t.313-1.188q.687-.437 1.656-1.281t1.844-1.844 1.25-1.812q.312-.688.78-.688.47 0 .657 1.25.313 2.25.375 5.375.063 3.125.063 6.688v7.156q0 3.594.187 6.719.188 3.437 1.313 6.25 1.124 2.812 3.093 4.906 1.97 2.094 4.531 3.469 3.25 1.687 7.313 2.187t8.625-.312 9.25-2.875q.563-.313.844-.125.281.187.031.75-2.312 5.125-7.969 7.75-5.656 2.625-13.594 2.562ZM153 17.188q-.625 0-.625-.625 0-.313.25-.5Q154 15 155.188 13.719q1.187-1.281 2.312-2.656.188-.25.5-.25.625 0 .625.624 0 .25-.125.376-2.312 3-5.125 5.25-.125.125-.375.125"/><path fill="#d3d3d3" d="M166.625 49.188q-1.562.624-3.781.874t-4.594.063-4.531-.781-3.594-1.594q-.562-.375-.656-.875t.594-.75q1.125-.5 2.406-1.844T155.063 41q.187-.312.437-.25.25.063.438.188 1.312.687 3.062 1.124t5.063.376q.125-3.563.125-6.532t-.063-5.28V30q-.062-3.812-1.344-5.656-1.28-1.844-3.75-2.688-2.469-.843-6.156-1.593-.812-.188-.844-.72-.03-.53.72-.718 2.187-.625 3.843-2.437 1.656-1.813 2.281-4.25.125-.5.438-.75.312-.25.937.062 3.5 1.938 5.5 3.875t2.906 4.344.97 5.906q.062 2.25.062 5.094t-.032 5.594q-.03 2.75-.093 4.875v.75q0 1.312-.282 2.875-.28 1.562-.906 2.843-.625 1.282-1.75 1.782"/><path fill="#d3d3d3" d="M183.625 25.625q-7.437 0-11.875-1.937t-4.375-6.125q.063-2.75 1.156-5.532 1.094-2.78 3-5.094 1.906-2.312 4.406-3.687t5.313-1.375q2.187 0 4.156 1.313t3.531 3.53q1.563 2.22 2.563 4.907t1.25 5.5h.125V24h-2.188q-1.062.75-2.78 1.187-1.72.438-4.282.438m-1.437-11.25q.75 0 .75-.812 0-.313-.22-.532-.218-.219-.53-.219-.813 0-.813.75 0 .813.813.813"/><path fill="#d3d3d3" d="M191.625 24V12h.625q.75 1.563 2.031 2.719t2.688 1.781 2.469.625V24z"/><path fill="#d3d3d3" d="M192.75 24v-6.875h6.75q-2.187-1.625-4.375-3.937-.5-.5-.531-.844t.531-.72q.938-.624 2.188-1.968t2.312-2.969q.188-.312.625-.375.438-.062.813.375 3.375 3.875 7.437 6.032t8.688 3.125 9.687 1.187 10.375.219q.5 0 .656.281t-.156.719q-1 1.5-2.031 2.562-1.031 1.063-2.094 1.938-.562.5-1.687.687t-1.938.188q-3 0-7.375.062-4.375.063-9.187.125-3.875.063-7.688.094t-7.187.063q-3.375.03-5.813.03Zm51.5 7.563q-4.187.062-7.875-.97-3.687-1.03-5.687-2.343-.75-.5-.657-.938.094-.437.72-.687 1.437-.5 2.655-1.844 1.22-1.344 2.156-2.531.375-.5 1.125-.063 1.75.938 4.375 1.594t5.157.938q2.53.28 3.969.093.5-.062.406-.468t-.47-.407q-1.5.063-3.5-.156-2-.218-3.937-.718t-3.375-1.25q-.687-.375-.593-.907.093-.53.468-.843.875-.875 2.125-2.157 1.25-1.28 2.532-2.687 1.28-1.406 2.375-2.594 1.093-1.187 1.718-1.812l.407-.407q.156-.156.406-.156.312 0 .937.438 2.063 1.375 4 3.718 1.938 2.344 3.25 5.125t1.375 5.532q.063 1.687-.625 3.343-.687 1.657-3.125 2.344-2.062.625-4.718.688t-5.594.125"/><path fill="#d3d3d3" d="M253.75 24v-6.875h2.375q-.062-4.062-.281-8.875t-.5-9.969-.594-10.156q0-.125-.062-.375-.063-.375-.032-.875t.594-1q.563-.437 1.438-1.219.875-.781 1.687-1.656t1.188-1.562q.5-.875 1-.657.5.22.562 1.282.313 6.125.594 12.375t.562 11.968q.282 5.72.407 10.344.125 3.375-.563 4.875t-2.187 1.906-3.813.47zm29.688 3q-3.813-.062-7.282-1.187t-6.187-3.438-4.313-5.969T264 7.625q0-2.625-.062-5.781-.063-3.156-.157-6.406-.093-3.25-.25-6.157-.156-2.906-.343-4.906-.188-1.437-.313-2.312t.313-1.188q.687-.437 1.656-1.281t1.844-1.844 1.25-1.812q.312-.688.78-.688.47 0 .657 1.25.313 2.25.375 5.375.063 3.125.063 6.688v7.156q0 3.594.187 6.719.188 3.437 1.313 6.25 1.125 2.812 3.093 4.906 1.97 2.094 4.531 3.469 3.25 1.687 7.313 2.187t8.625-.312 9.25-2.875q.563-.313.844-.125.281.187.031.75-2.312 5.125-7.969 7.75-5.656 2.625-13.594 2.562Zm36.125-2.625q-7.188 0-10.407-2.625T306 15.25q.063-2.875 1.813-5.25t4.718-3.875 6.594-1.562l-.062-.438q0-.25.187-.469.188-.219.5-.469.188-.125.406-.312.22-.188.407-.438.937-1.187 1.406-1.875T322.813-1q.437-1.125.968-1.063.532.063 1.032.813T325.5.562q.688 3.438.938 7.282t.5 7.718q.062.625.468.875t.657.125q-.063-2.5-.25-5.625-.188-3.125-.438-6.343-.25-3.22-.531-6.157t-.531-5.125q-.25-2.187-.438-3.125-.25-1.437-.594-2.53-.343-1.095-.53-1.72-.25-.812.093-1.093.344-.282.906-.47l.375-.187q1.25-.562 2.063-1.78.812-1.22 1.125-2.595.125-.375.53-.687.407-.313.876-.188t.719 1.125q.562 2 .937 5.344t.656 7.344.5 8.219q.22 4.219.5 8.03.282 3.813.657 6.688.125.625.437.72.313.093.563.03-.25-2.5-.5-5.843t-.47-7-.405-7.25-.375-6.688l-.313-5.156q-.062-1.063-.156-1.813t-.219-1.312q-.25-1.813.125-2.063 1.188-.875 2.625-2.343 1.438-1.47 2-2.532.5-.875 1.094-.656t.656 1.281q.188 3.688.406 8.125.22 4.438.47 9.188t.437 9.281.375 8.438q.187 3.906.312 6.656.188 3.375-.344 4.969-.53 1.593-2.187 2.093t-4.969.563zm-.063-8.812q.75 0 .75-.813 0-.312-.219-.531T319.5 14q-.812 0-.812.75 0 .813.812.813M362.438 27q-3.813-.062-7.282-1.187t-6.187-3.438-4.313-5.969T343 7.625q0-2.625-.062-5.781-.063-3.156-.157-6.406-.093-3.25-.25-6.157-.156-2.906-.343-4.906-.188-1.437-.313-2.312t.313-1.188q.687-.437 1.656-1.281t1.844-1.844 1.25-1.812q.312-.688.78-.688.47 0 .657 1.25.313 2.25.375 5.375.063 3.125.063 6.688v7.156q0 3.594.187 6.719.188 3.437 1.313 6.25 1.125 2.812 3.093 4.906 1.97 2.094 4.531 3.469 3.25 1.687 7.313 2.187t8.625-.312 9.25-2.875q.563-.313.844-.125.281.187.031.75-2.312 5.125-7.969 7.75-5.656 2.625-13.594 2.562Z"/><path fill="#d3d3d3" d="M404.438 26.813q-1.625 0-3.407-.125-1.78-.125-3.28-.563-6.25.25-10.626-.187-4.375-.438-5.75-2.25-.25-.375-.375-.938t.75-.875q1.813-.687 3.031-1.75 1.22-1.062 2.156-2.625.5-.937 1.688-.375 1.938.813 4.25 1.25 0-4.875 1.688-8.125t4.312-4.875 5.438-1.625q2.625 0 5.093 1.625Q411.876 7 413.687 10q1.813 3 2.438 7.125h.313V24l-.875.125q-1 1.438-2.813 2-1.812.563-3.844.656t-3.719.031zm1.25-10.75q.75 0 .75-.813 0-.312-.22-.531-.218-.219-.53-.219-.813 0-.813.75 0 .813.813.813"/><path fill="#d3d3d3" d="M413.5 21.188v-8.25h1.125q.375 1.187 1.156 1.906t1.219.906v5.437z"/><path fill="#d3d3d3" d="M413.75 24v-6.875h3.5q-.25-.75-.5-1.406t-.375-1.156q-.187-.625 0-.907.188-.28.688-.53 1.25-.563 2.062-1.688.813-1.125 1.813-2.813.75-1.25 1.187.125.875 2.875 1.656 4.344t1.656 2.156q-.125-.25-.25-.562-.312-.75.375-1.125 1.25-.625 2.282-1.844 1.03-1.219 1.968-3.781.125-.438.438-.5.312-.063.437.437.625 1.938 1.47 3.688.843 1.75 1.78 3.187 0-.562-.062-1.5-.063-1.125.75-1.437 1.812-.563 2.562-1.97.75-1.405 1.563-2.78.5-.875.937-.875t.5.875q.188 4.125.313 6.28.125 2.157.344 2.97.219.812.656.812V24zM447 26.688q-.625 0-.625-.625 0-.313.25-.5 1.375-1.063 2.563-2.344 1.187-1.282 2.312-2.657.188-.25.5-.25.625 0 .625.625 0 .25-.125.375-2.312 3-5.125 5.25-.125.125-.375.125"/><path fill="#d3d3d3" d="M439.5 21.188v-9.813h1.188q.062 2.313 1.03 3.25.97.938 1.844 1.25v5.313z"/><path fill="#d3d3d3" d="M439.75 24v-6.875h2.438q-.063-2.625-.22-5.5-.156-2.875-.28-4.437 0-.188-.063-.625-.062-1.125 0-1.844.063-.72.625-1.094 2.813-1.875 4.813-4.938.312-.5.593-.406t.281.531q0 3.125.282 6.72l.562 7.218q.281 3.625.344 6.75.063 1.625-1.375 3.063Q446.313 24 444.5 24z"/></svg>