<?xml version='1.0' encoding='ASCII'?>
<svg xmlns="http://www.w3.org/2000/svg" width="627" height="291" preserveAspectRatio="xMinYMin slice" viewBox="-25 -11 627 291" version="1.1">
  <path d="M-25,-11 v291 h627 v-291 Z" fill="#000000" transform="matrix(1,0,0,-1,0,269)"/>
  <path d="M7.1562,0.0125 q-1.95,0 -3.4531,1.5031 q-1.5031,1.5031 -1.5031,3.4531 q0,2.0312 1.5031,3.4937 q1.5031,1.4625 3.4531,1.4625 q2.0312,0 3.4937,-1.4625 q1.4625,-1.4625 1.4625,-3.4937 q0,-1.95 -1.4625,-3.4531 q-1.4625,-1.5031 -3.4937,-1.5031 Z M17.7812,0.0125 q-1.95,0 -3.4531,1.5031 q-1.5031,1.5031 -1.5031,3.4531 q0,2.0312 1.5031,3.4937 q1.5031,1.4625 3.4531,1.4625 q2.0312,0 3.4937,-1.4625 q1.4625,-1.4625 1.4625,-3.4937 q0,-1.95 -1.4625,-3.4531 q-1.4625,-1.5031 -3.4937,-1.5031 Z M12.4687,9.3875 q-1.95,0 -3.4531,1.5031 q-1.5031,1.5031 -1.5031,3.4531 q0,2.0312 1.5031,3.4937 q1.5031,1.4625 3.4531,1.4625 q2.0312,0 3.4937,-1.4625 q1.4625,-1.4625 1.4625,-3.4937 q0,-1.95 -1.4625,-3.4531 q-1.4625,-1.5031 -3.4937,-1.5031 Z" fill="#FFE2A1" transform="matrix(1,0,0,-1,-22.5,269)"/>
  <path d="M7.1561,0.775 q-1.65,0 -2.9218,1.2718 q-1.2718,1.2718 -1.2718,2.9218 q0,1.7187 1.2718,2.9562 q1.2718,1.2375 2.9218,1.2375 q1.7187,0 2.9562,-1.2375 q1.2375,-1.2375 1.2375,-2.9562 q0,-1.65 -1.2375,-2.9218 q-1.2375,-1.2718 -2.9562,-1.2718 Z M12.4686,10.15 q-1.65,0 -2.9218,1.2718 q-1.2718,1.2718 -1.2718,2.9218 q0,1.7187 1.2718,2.9562 q1.2718,1.2375 2.9218,1.2375 q1.7187,0 2.9562,-1.2375 q1.2375,-1.2375 1.2375,-2.9562 q0,-1.65 -1.2375,-2.9218 q-1.2375,-1.2718 -2.9562,-1.2718 Z M17.7811,0.775 q-1.65,0 -2.9218,1.2718 q-1.2718,1.2718 -1.2718,2.9218 q0,1.7187 1.2718,2.9562 q1.2718,1.2375 2.9218,1.2375 q1.7187,0 2.9562,-1.2375 q1.2375,-1.2375 1.2375,-2.9562 q0,-1.65 -1.2375,-2.9218 q-1.2375,-1.2718 -2.9562,-1.2718 Z" fill="#A67300" transform="matrix(1,0,0,-1,-22.5,269)"/>
  <path d="M6.7812,10.2 q-0.45,0 -0.7968,0.3469 q-0.3469,0.3469 -0.3469,0.7968 q0,0.4687 0.3469,0.8062 q0.3469,0.3375 0.7968,0.3375 q0.4687,0 0.8062,-0.3375 q0.3375,-0.3375 0.3375,-0.8062 q0,-0.45 -0.3375,-0.7968 q-0.3375,-0.3469 -0.8062,-0.3469 Z M12.4687,7.0125 q-0.45,0 -0.7968,0.3469 q-0.3469,0.3469 -0.3469,0.7968 q0,0.4687 0.3469,0.8062 q0.3469,0.3375 0.7968,0.3375 q0.4687,0 0.8062,-0.3375 q0.3375,-0.3375 0.3375,-0.8062 q0,-0.45 -0.3375,-0.7968 q-0.3375,-0.3469 -0.8062,-0.3469 Z M18.0312,10.2 q-0.45,0 -0.7968,0.3469 q-0.3469,0.3469 -0.3469,0.7968 q0,0.4687 0.3469,0.8062 q0.3469,0.3375 0.7968,0.3375 q0.4687,0 0.8062,-0.3375 q0.3375,-0.3375 0.3375,-0.8062 q0,-0.45 -0.3375,-0.7968 q-0.3375,-0.3469 -0.8062,-0.3469 Z M12.4687,0.45 q-0.45,0 -0.7968,0.3469 q-0.3469,0.3469 -0.3469,0.7968 q0,0.4687 0.3469,0.8062 q0.3469,0.3375 0.7968,0.3375 q0.4687,0 0.8062,-0.3375 q0.3375,-0.3375 0.3375,-0.8062 q0,-0.45 -0.3375,-0.7968 q-0.3375,-0.3469 -0.8062,-0.3469 Z" fill="#E22E00" transform="matrix(1,0,0,-1,-22.5,269)"/>
  <path d="M10.6875,-0.2896 q-3.8125,0.0625 -6.4375,0.4062 q-2.625,0.3438 -3.625,1.1562 q-0.6875,0.5 -0.625,1 q0.0625,0.5 0.8125,0.5 q0.375,0 0.7188,0.2188 q0.3438,0.2188 0.5938,0.4688 q0.5625,0.5625 1.4062,1.6562 q0.8438,1.0938 1.5312,2.2188 q0.6875,1.0625 2.1875,0.1875 q0.6875,-0.375 2.125,-0.5625 q1.4375,-0.1875 3.0625,-0.3125 q0.4375,0 2.4783,-0.0312 q2.0408,-0.0312 5.4243,-0.0625 q3.3836,-0.0312 7.935,-0.0625 q4.5514,-0.0312 10.033,-0.0625 q5.4817,-0.0312 11.6873,-0.0625 q6.2057,-0.0312 12.9176,-0.0312 q6.712,0 13.6927,-0.0312 q6.9807,-0.0312 13.9927,-0.0312 q7.012,0 13.9114,0 q6.8995,0 13.3864,0.0312 q6.4869,0.0312 12.4061,0.0625 q5.9192,0.0312 11.0216,0.0625 q5.1024,0.0312 9.185,0.0938 q4.0825,0.0625 6.9045,0.1562 q2.822,0.0938 4.1345,0.1562 q1.375,0.125 1.625,0.3438 q0.25,0.2188 0.125,0.5938 q-0.0625,0.125 -0.2188,0.25 q-0.1562,0.125 -0.6562,0.0625 q-0.75,-0.0625 -3.1345,-0.125 q-2.3845,-0.0625 -6.1743,-0.125 q-3.7898,-0.0625 -8.7162,-0.125 q-4.9264,-0.0625 -10.783,-0.0938 q-5.8567,-0.0312 -12.4061,-0.0625 q-6.5494,-0.0312 -13.5426,-0.0625 q-6.9932,-0.0312 -14.2552,-0.0312 q-7.262,0 -14.4927,0 q-7.2307,0 -14.2239,0.0312 q-6.9932,0.0312 -13.5426,0.0312 q-6.5494,0 -12.3946,0.0625 q-5.8452,0.0625 -10.7518,0.125 q-4.9066,0.0625 -8.6652,0.125 q-3.7586,0.0625 -6.1431,0.1562 q-2.3845,0.0938 -3.1345,0.2188 q-1.5625,0.1875 -2.1562,0.6875 q-0.5938,0.5 0.0312,1.375 q2.125,2.8125 4.1875,5.6562 q2.0625,2.8438 3.8125,5.7812 q0.3125,0.5 0.7188,0.3125 q0.4062,-0.1875 0.1562,-0.75 q-0.25,-0.5625 -0.7812,-1.75 q-0.5312,-1.1875 -1.0312,-2.3438 q-0.5,-1.1562 -0.75,-1.7812 q0.875,-0.0625 3.322,-0.1562 q2.447,-0.0938 6.2056,-0.1562 q3.7586,-0.0625 8.6537,-0.0938 q4.8951,-0.0312 10.658,-0.0625 q5.7629,-0.0312 12.2186,-0.0312 q6.4557,0 13.3551,0 q6.8995,0 14.0364,0 q7.137,0 14.3052,0 q7.1682,0 14.1302,0.0312 q6.962,0.0312 13.4801,0.0625 q6.5182,0.0312 12.4061,0.0625 q5.8879,0.0312 10.9278,0.0625 q5.0399,0.0312 8.9975,0.0625 q3.9575,0.0312 6.592,0.0938 q2.6345,0.0625 3.7595,0.0625 q1.125,0.0625 1.5312,-0.4688 q0.4062,-0.5312 0.9688,-1.8438 q0.75,-1.6875 1.6562,-4.0625 q0.9062,-2.375 0.9688,-5.4375 q0.0625,-1.25 -1.0312,-2.125 q-1.0938,-0.875 -2.2188,-1 q-1.375,-0.125 -4.2595,-0.2188 q-2.8845,-0.0938 -6.9868,-0.1562 q-4.1023,-0.0625 -9.2475,-0.125 q-5.1451,-0.0625 -11.1268,-0.0938 q-5.9817,-0.0312 -12.5623,-0.0938 q-6.5807,-0.0625 -13.6051,-0.0625 q-7.0245,0 -14.2239,-0.0312 q-7.1995,-0.0312 -14.4302,-0.0312 q-7.2307,0 -14.2552,0 q-7.0245,0 -13.6051,0 q-6.5807,0 -12.5623,0 q-5.9817,0 -11.1268,0.0312 q-5.1451,0.0312 -9.2475,0.0312 q-4.1023,0 -6.9868,0.0312 q-2.8845,0.0312 -4.2595,0.0312 Z M147.4229,-0.2542 l21.25,7.1292 h3.3125 v-6.875 q-5.5625,-0.1417 -11.8438,-0.1979 q-6.2812,-0.0562 -12.7188,-0.0562 Z" fill="#D3D3D3" transform="matrix(1,0,0,-1,2.5,269)"/>
  <path d="M-4.0625,0.625 v14.625 q0.6875,-0.0625 1.0312,-0.5312 q0.3438,-0.4688 1.0312,-1.4688 q1.3125,-2 2.9688,-3.6562 q1.6562,-1.6562 3.4688,-3.0938 v-5.875 h-8.5 Z" fill="#D3D3D3" transform="matrix(1,0,0,-1,174.5,269)"/>
  <path d="M-1.25,0 v6.875 h6.75 q-2.1875,1.625 -4.375,3.9375 q-0.5,0.5 -0.5312,0.8438 q-0.0312,0.3438 0.5312,0.7188 q0.9375,0.625 2.1875,1.9688 q1.25,1.3438 2.3125,2.9688 q0.1875,0.3125 0.625,0.375 q0.4375,0.0625 0.8125,-0.375 q3.375,-3.875 7.4375,-6.0312 q4.0625,-2.1562 8.6875,-3.125 q4.625,-0.9688 9.6875,-1.1875 q5.0625,-0.2188 10.375,-0.2188 q0.5,0 0.6562,-0.2812 q0.1562,-0.2812 -0.1562,-0.7188 q-1,-1.5 -2.0312,-2.5625 q-1.0312,-1.0625 -2.0938,-1.9375 q-0.5625,-0.5 -1.6875,-0.6875 q-1.125,-0.1875 -1.9375,-0.1875 q-3,0 -7.375,-0.0625 q-4.375,-0.0625 -9.1875,-0.125 q-3.875,-0.0625 -7.6875,-0.0938 q-3.8125,-0.0312 -7.1875,-0.0625 q-3.375,-0.0312 -5.8125,-0.0312 Z" fill="#D3D3D3" transform="matrix(1,0,0,-1,174.5,269)"/>
  <path d="M4.6875,0.875 q-1.5,0 -2.6562,1.1562 q-1.1562,1.1562 -1.1562,2.6562 q0,1.5625 1.1562,2.6875 q1.1562,1.125 2.6562,1.125 q1.5625,0 2.6875,-1.125 q1.125,-1.125 1.125,-2.6875 q0,-1.5 -1.125,-2.6562 q-1.125,-1.1562 -2.6875,-1.1562 Z" fill="#E22E00" transform="matrix(1,0,0,-1,246.5,235)"/>
  <path d="M19.4375,-3 q-3.8125,0.0625 -7.2812,1.1875 q-3.4688,1.125 -6.1875,3.4375 q-2.7188,2.3125 -4.3125,5.9688 q-1.5938,3.6562 -1.6562,8.7812 q0,2.625 -0.0625,5.7812 q-0.0625,3.1562 -0.1562,6.4062 q-0.0938,3.25 -0.25,6.1562 q-0.1562,2.9062 -0.3438,4.9062 q-0.1875,1.4375 -0.3125,2.3125 q-0.125,0.875 0.3125,1.1875 q0.6875,0.4375 1.6562,1.2812 q0.9688,0.8438 1.8438,1.8438 q0.875,1 1.25,1.8125 q0.3125,0.6875 0.7812,0.6875 q0.4688,0 0.6562,-1.25 q0.3125,-2.25 0.375,-5.375 q0.0625,-3.125 0.0625,-6.6875 q0,-3.5625 0,-7.1562 q0,-3.5938 0.1875,-6.7188 q0.1875,-3.4375 1.3125,-6.25 q1.125,-2.8125 3.0938,-4.9062 q1.9688,-2.0938 4.5312,-3.4688 q3.25,-1.6875 7.3125,-2.1875 q4.0625,-0.5 8.625,0.3125 q4.5625,0.8125 9.25,2.875 q0.5625,0.3125 0.8438,0.125 q0.2812,-0.1875 0.0312,-0.75 q-2.3125,-5.125 -7.9688,-7.75 q-5.6562,-2.625 -13.5938,-2.5625 Z" fill="#D3D3D3" transform="matrix(1,0,0,-1,241.5,269)"/>
  <path d="" fill="#D3D3D3" transform="matrix(1,0,0,-1,282.5,269)"/>
  <path d="M4.6875,0.875 q-1.5,0 -2.6562,1.1562 q-1.1562,1.1562 -1.1562,2.6562 q0,1.5625 1.1562,2.6875 q1.1562,1.125 2.6562,1.125 q1.5625,0 2.6875,-1.125 q1.125,-1.125 1.125,-2.6875 q0,-1.5 -1.125,-2.6562 q-1.125,-1.1562 -2.6875,-1.1562 Z M4.6875,9.25 q-1.5,0 -2.6562,1.1562 q-1.1562,1.1562 -1.1562,2.6562 q0,1.5625 1.1562,2.6875 q1.1562,1.125 2.6562,1.125 q1.5625,0 2.6875,-1.125 q1.125,-1.125 1.125,-2.6875 q0,-1.5 -1.125,-2.6562 q-1.125,-1.1562 -2.6875,-1.1562 Z" fill="#E22E00" transform="matrix(1,0,0,-1,312.5,239)"/>
  <path d="M19.4375,-3 q-3.8125,0.0625 -7.2812,1.1875 q-3.4688,1.125 -6.1875,3.4375 q-2.7188,2.3125 -4.3125,5.9688 q-1.5938,3.6562 -1.6562,8.7812 q0,2.625 -0.0625,5.7812 q-0.0625,3.1562 -0.1562,6.4062 q-0.0938,3.25 -0.25,6.1562 q-0.1562,2.9062 -0.3438,4.9062 q-0.1875,1.4375 -0.3125,2.3125 q-0.125,0.875 0.3125,1.1875 q0.6875,0.4375 1.6562,1.2812 q0.9688,0.8438 1.8438,1.8438 q0.875,1 1.25,1.8125 q0.3125,0.6875 0.7812,0.6875 q0.4688,0 0.6562,-1.25 q0.3125,-2.25 0.375,-5.375 q0.0625,-3.125 0.0625,-6.6875 q0,-3.5625 0,-7.1562 q0,-3.5938 0.1875,-6.7188 q0.1875,-3.4375 1.3125,-6.25 q1.125,-2.8125 3.0938,-4.9062 q1.9688,-2.0938 4.5312,-3.4688 q3.25,-1.6875 7.3125,-2.1875 q4.0625,-0.5 8.625,0.3125 q4.5625,0.8125 9.25,2.875 q0.5625,0.3125 0.8438,0.125 q0.2812,-0.1875 0.0312,-0.75 q-2.3125,-5.125 -7.9688,-7.75 q-5.6562,-2.625 -13.5938,-2.5625 Z" fill="#D3D3D3" transform="matrix(1,0,0,-1,307.5,269)"/>
  <path d="" fill="#D3D3D3" transform="matrix(1,0,0,-1,348.5,269)"/>
  <path d="M16.375,-8.625 q-6.75,0 -10.4688,1.25 q-3.7188,1.25 -5.6562,3.875 q-0.5,0.6875 -0.125,1.0625 q0.375,0.375 0.875,0.375 q0.6875,0 1.75,0.6875 q1.0625,0.6875 2.0625,1.625 q1,0.9375 1.375,1.625 q0.3125,0.5625 0.9375,0.2812 q0.625,-0.2812 1.0625,-0.6562 q1.5625,-1.375 3.9062,-2.0938 q2.3438,-0.7188 4.75,-0.9375 q2.4062,-0.2188 4.2812,-0.1562 q1.875,0.0625 2.5625,0.1875 q0.75,0.125 0.7188,0.6562 q-0.0312,0.5312 -0.6562,0.4688 q-3.375,-0.25 -6.25,-0.0938 q-2.875,0.1562 -5.0625,1.0312 q-2.1875,0.875 -3.4062,2.8125 q-1.2188,1.9375 -1.2188,5.1875 q0,2.0625 0.625,4.1875 q0.625,2.125 1.875,3.9375 q1.25,1.8125 3.2188,2.9375 q1.9688,1.125 4.5938,1.125 q3.3125,0 5.1875,-1.125 q1.875,-1.125 3.625,-3.375 q1.5625,-2 2.125,-4.125 q0.5625,-2.125 0.9375,-3.1875 q0.3125,-0.8125 0.9375,-1.4688 q0.625,-0.6562 1.6875,-0.6562 v-6.8125 q0,-3.875 -2.125,-5.7188 q-2.125,-1.8438 -5.8125,-2.375 q-3.6875,-0.5312 -8.3125,-0.5312 Z M19.375,9.1875 q0.75,0 0.75,0.8125 q0,0.3125 -0.2188,0.5312 q-0.2188,0.2188 -0.5312,0.2188 q-0.8125,0 -0.8125,-0.75 q0,-0.8125 0.8125,-0.8125 Z" fill="#D3D3D3" transform="matrix(1,0,0,-1,373.5,269)"/>
  <path d="M1,0.8125 q-0.625,0 -0.625,0.625 q0,0.3125 0.25,0.5 q1.375,1.0625 2.5625,2.3438 q1.1875,1.2812 2.3125,2.6562 q0.1875,0.25 0.5,0.25 q0.625,0 0.625,-0.625 q0,-0.25 -0.125,-0.375 q-2.3125,-3 -5.125,-5.25 q-0.125,-0.125 -0.375,-0.125 Z" fill="#D3D3D3" transform="matrix(1,0,0,-1,403.5,248)"/>
  <path d="M-2.875,0 v10.875 h1.5625 q0.5625,-1.6875 1.7188,-2.875 q1.1562,-1.1875 2.5312,-1.125 v-6.875 h-5.8125 Z" fill="#D3D3D3" transform="matrix(1,0,0,-1,404.5,269)"/>
  <path d="M-1.25,0 v6.875 h5.6875 q-1.5,1.375 -2.5,3.2188 q-1,1.8438 -1,4.3438 q0,3.375 1.7188,5.9375 q1.7188,2.5625 4.4062,4 q2.6875,1.4375 5.5625,1.4375 q2.9375,0 5.4062,-1.7188 q2.4688,-1.7188 3.9688,-4.8438 q1.5,-3.125 1.5,-7.5 q0,-0.875 -0.0312,-2.125 q-0.0312,-1.25 -0.0938,-2.75 h0.1875 v-6.875 h-24.8125 Z M13,14.875 q0.75,0 0.75,0.8125 q0,0.3125 -0.2188,0.5312 q-0.2188,0.2188 -0.5312,0.2188 q-0.8125,0 -0.8125,-0.75 q0,-0.8125 0.8125,-0.8125 Z" fill="#D3D3D3" transform="matrix(1,0,0,-1,403.5,269)"/>
  <path d="M-0.625,0 v8.8125 h0.6875 q0.3125,-0.8125 1.75,-1.0625 q1.4375,-0.25 5.3125,-0.4375 q1.125,-0.0625 3.7314,-0.0938 q2.6064,-0.0312 6.4848,-0.0625 q3.8784,-0.0312 8.7714,-0.0625 q4.8931,-0.0312 10.6341,-0.0312 q5.741,0 12.0926,0 q6.3515,0 13.1072,0 q6.7557,0 13.7177,0 q6.962,0 13.9125,0.0312 q6.9505,0.0312 13.6948,0.0312 q6.7443,0 13.0645,0.0312 q6.3203,0.0312 11.9988,0.0625 q5.6785,0.0312 10.5091,0.0625 q4.8306,0.0312 8.6068,0.0625 q3.7763,0.0312 6.3087,0.0625 q2.5324,0.0312 3.5324,0.0312 q1.0625,0.0625 1.375,0.25 q0.3125,0.1875 0.125,0.4375 q-0.0625,0.1875 -0.3438,0.2188 q-0.2812,0.0312 -0.4688,0.0312 q-0.75,0 -3.1262,0 q-2.3762,0 -6.09,-0.0312 q-3.7138,-0.0312 -8.5756,-0.0312 q-4.8618,0 -10.6226,-0.0312 q-5.7608,-0.0312 -12.2061,-0.0312 q-6.4453,0 -13.3458,-0.0312 q-6.9005,-0.0312 -14.0302,-0.0312 q-7.1297,0 -14.2677,0 q-7.138,0 -14.05,0 q-6.912,0 -13.377,0 q-6.4651,0 -12.2488,0.0312 q-5.7838,0.0312 -10.6768,0.0625 q-4.8931,0.0312 -8.6777,0.0625 q-3.7846,0.0312 -6.2035,0.0938 q-2.4189,0.0625 -3.2314,0.125 q-2.25,0.1875 -3.75,0.4375 q-1.5,0.25 -1.9375,0.5 q-0.4375,0.25 -0.125,0.6875 l8.6875,10.9375 q0.4375,0.5 0.8438,0.2812 q0.4062,-0.2188 -0.0312,-0.9062 l-3.1875,-4.9375 q0.7021,-0.1479 3.0563,-0.2531 q2.3543,-0.1052 6.0837,-0.1906 q3.7294,-0.0854 8.6131,-0.1281 q4.8837,-0.0427 10.7351,-0.074 q5.8515,-0.0312 12.3905,-0.051 q6.539,-0.0198 13.5479,-0.0198 q7.0089,0 14.2781,0.0312 q7.2693,0.0312 14.573,0.0625 q7.3037,0.0312 14.4323,0.0542 q7.1286,0.0229 13.8135,0.0542 q6.6849,0.0312 12.7363,0.074 q6.0515,0.0427 11.2237,0.074 q5.1722,0.0312 9.2444,0.0625 q4.0721,0.0312 6.8181,0.0427 q2.746,0.0115 3.9335,0.0115 q0.8125,0 1.3125,-0.9375 q1.4375,-2.5 2.3438,-5.8125 q0.9062,-3.3125 0.9062,-5.9375 q0,-1.3125 -0.5938,-1.9688 q-0.5938,-0.6562 -2.2188,-0.6562 q-1.5625,0 -4.7001,0 q-3.1376,0 -7.5587,0 q-4.4211,0 -9.9277,0 q-5.5066,0 -11.8414,0 q-6.3348,0 -13.3113,0 q-6.9765,0 -14.3572,0 q-7.3807,0 -14.9365,0 q-7.5557,0 -15.0688,0 q-7.513,0 -14.7885,0 q-7.2755,0 -14.0447,0 q-6.7692,0 -12.854,0 q-6.0848,0 -11.2278,0 q-5.1431,0 -9.1464,0 q-4.0034,0 -6.641,0 q-2.6376,0 -3.6376,0 h-1.5625 Z" fill="#D3D3D3" transform="matrix(1,0,0,-1,427.5,269)"/>
  <path d="M4.6875,0.875 q-1.5,0 -2.6562,1.1562 q-1.1562,1.1562 -1.1562,2.6562 q0,1.5625 1.1562,2.6875 q1.1562,1.125 2.6562,1.125 q1.5625,0 2.6875,-1.125 q1.125,-1.125 1.125,-2.6875 q0,-1.5 -1.125,-2.6562 q-1.125,-1.1562 -2.6875,-1.1562 Z" fill="#E22E00" transform="matrix(1,0,0,-1,-4.5,206)"/>
  <path d="M12.3125,0 q-12.3125,0.3125 -12.3125,8.8125 q0,3.8125 3.25,7.1875 q3.25,3.375 10,5.25 q-0.125,1.25 0.1875,1.5 q0.125,0.1875 0.5,0.3125 q0.375,0.125 1,0.5625 q1.1875,0.875 1.8438,1.8438 q0.6562,0.9688 1.2188,2.3438 q0.3125,0.6875 0.75,0.625 q0.4375,-0.0625 0.625,-0.8125 q0.4375,-1.5 0.75,-3.7812 q0.3125,-2.2812 0.4688,-4.8438 q0.1562,-2.5625 0.25,-4.9688 q0.0938,-2.4062 0.1562,-4.2188 q0.0625,-1.0625 0.25,-2 q0.1875,-0.9375 0.75,-0.9375 v-6.875 q-2,-0.125 -4.3125,-0.0938 q-2.3125,0.0312 -5.375,0.0938 Z M14.0625,9.625 q0.75,0 0.75,0.8125 q0,0.3125 -0.2188,0.5312 q-0.2188,0.2188 -0.5312,0.2188 q-0.8125,0 -0.8125,-0.75 q0,-0.8125 0.8125,-0.8125 Z" fill="#D3D3D3" transform="matrix(1,0,0,-1,3.5,212)"/>
  <path d="M-1.5,2.8125 v9.8125 h1.1875 q0.0625,-2.3125 1.0312,-3.25 q0.9688,-0.9375 1.8438,-1.25 v-5.3125 h-4.0625 Z" fill="#D3D3D3" transform="matrix(1,0,0,-1,24.5,212)"/>
  <path d="M-1.25,0 v6.875 h2.375 q-0.0625,3 -0.2188,7.4375 q-0.1562,4.4375 -0.4062,9.4375 q-0.25,5 -0.5,9.8125 q-0.25,4.8125 -0.5,8.5625 q0,0.125 -0.0625,0.375 q-0.0625,0.375 -0.0312,0.875 q0.0312,0.5 0.5938,1 q0.5625,0.4375 1.4375,1.2188 q0.875,0.7812 1.6875,1.6562 q0.8125,0.875 1.1875,1.5625 q0.5,0.875 1,0.6562 q0.5,-0.2188 0.5625,-1.2812 q0.1875,-3.6875 0.375,-8.0625 q0.1875,-4.375 0.4062,-9 q0.2188,-4.625 0.4062,-9.0312 q0.1875,-4.4062 0.375,-8.25 q0.1875,-3.8438 0.25,-6.5938 q0.125,-3.375 -0.5625,-4.875 q-0.6875,-1.5 -2.1875,-1.9062 q-1.5,-0.4062 -3.8125,-0.4688 h-2.375 Z" fill="#D3D3D3" transform="matrix(1,0,0,-1,24.5,212)"/>
  <path d="" fill="#D3D3D3" transform="matrix(1,0,0,-1,32.5,212)"/>
  <path d="M1,0.8125 q-0.625,0 -0.625,0.625 q0,0.3125 0.25,0.5 q1.375,1.0625 2.5625,2.3438 q1.1875,1.2812 2.3125,2.6562 q0.1875,0.25 0.5,0.25 q0.625,0 0.625,-0.625 q0,-0.25 -0.125,-0.375 q-2.3125,-3 -5.125,-5.25 q-0.125,-0.125 -0.375,-0.125 Z" fill="#D3D3D3" transform="matrix(1,0,0,-1,57.5,206)"/>
  <path d="M14.625,-25.1875 q-1.5625,-0.625 -3.7812,-0.875 q-2.2188,-0.25 -4.5938,-0.0625 q-2.375,0.1875 -4.5312,0.7812 q-2.1562,0.5938 -3.5938,1.5938 q-0.5625,0.375 -0.6562,0.875 q-0.0938,0.5 0.5938,0.75 q1.125,0.5 2.4062,1.8438 q1.2812,1.3438 2.5938,3.2812 q0.1875,0.3125 0.4375,0.25 q0.25,-0.0625 0.4375,-0.1875 q1.3125,-0.6875 3.0625,-1.125 q1.75,-0.4375 5.0625,-0.375 q0.125,3.5625 0.125,6.5312 q0,2.9688 -0.0625,5.2812 q0,0.4375 0,0.625 q-0.0625,3.8125 -1.3438,5.6562 q-1.2812,1.8438 -3.75,2.6875 q-2.4688,0.8438 -6.1562,1.5938 q-0.8125,0.1875 -0.8438,0.7188 q-0.0312,0.5312 0.7188,0.7188 q2.1875,0.625 3.8438,2.4375 q1.6562,1.8125 2.2812,4.25 q0.125,0.5 0.4375,0.75 q0.3125,0.25 0.9375,-0.0625 q3.5,-1.9375 5.5,-3.875 q2,-1.9375 2.9062,-4.3438 q0.9062,-2.4062 0.9688,-5.9062 q0.0625,-2.25 0.0625,-5.0938 q0,-2.8438 -0.0312,-5.5938 q-0.0312,-2.75 -0.0938,-4.875 q0,-0.5 0,-0.75 q0,-1.3125 -0.2812,-2.875 q-0.2812,-1.5625 -0.9062,-2.8438 q-0.625,-1.2812 -1.75,-1.7812 Z" fill="#D3D3D3" transform="matrix(1,0,0,-1,57.5,212)"/>
  <path d="M-0.625,0 v8.8125 h0.6875 q0.3125,-0.8125 1.75,-1.0625 q1.4375,-0.25 5.3125,-0.4375 q1.125,-0.0625 3.8689,-0.0938 q2.7439,-0.0312 6.8753,-0.0625 q4.1314,-0.0312 9.3754,-0.0625 q5.244,-0.0312 11.4131,-0.0312 q6.1691,0 13.0069,0 q6.8379,0 14.1195,0 q7.2816,0 14.7883,0 q7.5067,0 15.0008,0.0312 q7.4941,0.0312 14.7633,0.0312 q7.2691,0 14.0757,0.0312 q6.8066,0.0312 12.9132,0.0625 q6.1066,0.0312 11.2881,0.0625 q5.1815,0.0312 9.213,0.0625 q4.0314,0.0312 6.7003,0.0625 q2.6689,0.0312 3.6689,0.0312 q1.0625,0.0625 1.375,0.25 q0.3125,0.1875 0.125,0.4375 q-0.0625,0.1875 -0.3438,0.2188 q-0.2812,0.0312 -0.4688,0.0312 q-0.75,0 -3.2626,0 q-2.5126,0 -6.4815,-0.0312 q-3.9689,-0.0312 -9.1817,-0.0312 q-5.2128,0 -11.4006,-0.0312 q-6.1878,-0.0312 -13.1194,-0.0312 q-6.9316,0 -14.357,-0.0312 q-7.4254,-0.0312 -15.1008,-0.0312 q-7.6754,0 -15.357,0 q-7.6816,0 -15.1195,0 q-7.4379,0 -14.3882,0 q-6.9504,0 -13.1632,0.0312 q-6.2128,0.0312 -11.4568,0.0625 q-5.244,0.0312 -9.2817,0.0625 q-4.0377,0.0312 -6.594,0.0938 q-2.5564,0.0625 -3.3689,0.125 q-2.25,0.1875 -3.75,0.4375 q-1.5,0.25 -1.9375,0.5 q-0.4375,0.25 -0.125,0.6875 l8.6875,10.9375 q0.4375,0.5 0.8438,0.2812 q0.4062,-0.2188 -0.0312,-0.9062 l-3.1875,-4.9375 q0.675,-0.15 3.1438,-0.2563 q2.4688,-0.1063 6.4378,-0.1938 q3.9689,-0.0875 9.1942,-0.1313 q5.2253,-0.0438 11.5006,-0.075 q6.2753,-0.0312 13.3007,-0.05 q7.0254,-0.0187 14.5632,-0.0187 q7.5379,0 15.357,0.0312 q7.8192,0.0312 15.6758,0.0625 q7.8567,0.0312 15.5195,0.0563 q7.6629,0.025 14.8445,0.0563 q7.1816,0.0312 13.6694,0.075 q6.4878,0.0438 12.0193,0.075 q5.5315,0.0312 9.8629,0.0625 q4.3315,0.0312 7.2191,0.0438 q2.8876,0.0125 4.0751,0.0125 q0.8125,0 1.3125,-0.9375 q1.4375,-2.5 2.3438,-5.8125 q0.9062,-3.3125 0.9062,-5.9375 q0,-1.3125 -0.5938,-1.9688 q-0.5938,-0.6562 -2.2188,-0.6562 q-1.5625,0 -4.8376,0 q-3.2751,0 -7.9503,0 q-4.6752,0 -10.5317,0 q-5.8565,0 -12.6193,0 q-6.7628,0 -14.2257,0 q-7.4629,0 -15.3695,0 q-7.9066,0 -16.007,0 q-8.1004,0 -16.157,0 q-8.0566,0 -15.857,0 q-7.8004,0 -15.057,0 q-7.2566,0 -13.7694,0 q-6.5128,0 -12.0068,0 q-5.494,0 -9.7504,0 q-4.2564,0 -7.0315,0 q-2.7751,0 -3.7751,0 h-1.5625 Z M153.1955,0 l21.4375,6.875 h3.625 v-6.875 h-25.0625 Z" fill="#D3D3D3" transform="matrix(1,0,0,-1,71.5,212)"/>
  <path d="M1,2 q-0.625,0 -0.625,0.625 q0,0.3125 0.25,0.5 q1.375,1.0625 2.5625,2.3438 q1.1875,1.2812 2.3125,2.6562 q0.1875,0.25 0.5,0.25 q0.625,0 0.625,-0.625 q0,-0.25 -0.125,-0.375 q-2.3125,-3 -5.125,-5.25 q-0.125,-0.125 -0.375,-0.125 Z M2.875,0.3125 q-0.625,0 -0.625,0.625 q0,0.3125 0.25,0.5 q1.375,1.0625 2.5625,2.3438 q1.1875,1.2812 2.3125,2.6562 q0.1875,0.25 0.5,0.25 q0.625,0 0.625,-0.625 q0,-0.25 -0.125,-0.375 q-2.3125,-3 -5.125,-5.25 q-0.125,-0.125 -0.375,-0.125 Z" fill="#D3D3D3" transform="matrix(1,0,0,-1,253.5,217)"/>
  <path d="M-1.25,0 v6.875 h2.4375 q-0.0625,2.625 -0.0938,4.25 q-0.0312,1.625 -0.1562,3.1875 q0,0.1875 -0.0625,0.625 q-0.0625,1.125 0,1.8438 q0.0625,0.7188 0.625,1.0938 q2.8125,1.875 4.8125,4.9375 q0.3125,0.5 0.5938,0.4062 q0.2812,-0.0938 0.2812,-0.5312 q0,-4.6875 0.4375,-9.0938 q0.4375,-4.4062 0.5,-9.0938 q0.0625,-1.625 -1.375,-3.0625 q-1.4375,-1.4375 -3.25,-1.4375 h-4.75 Z" fill="#D3D3D3" transform="matrix(1,0,0,-1,248.5,212)"/>
  <path d="" fill="#D3D3D3" transform="matrix(1,0,0,-1,256.5,212)"/>
  <path d="M23.4375,-2.8125 q-1.625,0 -3.4062,0.125 q-1.7812,0.125 -3.2812,0.5625 q-6.25,-0.25 -10.625,0.1875 q-4.375,0.4375 -5.75,2.25 q-0.25,0.375 -0.375,0.9375 q-0.125,0.5625 0.75,0.875 q1.8125,0.6875 3.0312,1.75 q1.2188,1.0625 2.1562,2.625 q0.5,0.9375 1.6875,0.375 q1.9375,-0.8125 4.25,-1.25 q0,4.875 1.6875,8.125 q1.6875,3.25 4.3125,4.875 q2.625,1.625 5.4375,1.625 q2.625,0 5.0938,-1.625 q2.4688,-1.625 4.2812,-4.625 q1.8125,-3 2.4375,-7.125 q0.1875,0 0.3125,0 v-6.875 l-0.875,-0.125 q-1,-1.4375 -2.8125,-2 q-1.8125,-0.5625 -3.8438,-0.6562 q-2.0312,-0.0938 -3.7188,-0.0312 q-0.5,0 -0.75,0 Z M24.6875,7.9375 q0.75,0 0.75,0.8125 q0,0.3125 -0.2188,0.5312 q-0.2188,0.2188 -0.5312,0.2188 q-0.8125,0 -0.8125,-0.75 q0,-0.8125 0.8125,-0.8125 Z" fill="#D3D3D3" transform="matrix(1,0,0,-1,281.5,212)"/>
  <path d="M4.6875,0.875 q-1.5,0 -2.6562,1.1562 q-1.1562,1.1562 -1.1562,2.6562 q0,1.5625 1.1562,2.6875 q1.1562,1.125 2.6562,1.125 q1.5625,0 2.6875,-1.125 q1.125,-1.125 1.125,-2.6875 q0,-1.5 -1.125,-2.6562 q-1.125,-1.1562 -2.6875,-1.1562 Z" fill="#E22E00" transform="matrix(1,0,0,-1,306.5,178)"/>
  <path d="M-1.25,0 v6.875 h2.375 q-0.0625,3 -0.2188,7.4375 q-0.1562,4.4375 -0.4062,9.4375 q-0.25,5 -0.5,9.8125 q-0.25,4.8125 -0.5,8.5625 q0,0.125 -0.0625,0.375 q-0.0625,0.375 -0.0312,0.875 q0.0312,0.5 0.5938,1 q0.5625,0.4375 1.4375,1.2188 q0.875,0.7812 1.6875,1.6562 q0.8125,0.875 1.1875,1.5625 q0.5,0.875 1,0.6562 q0.5,-0.2188 0.5625,-1.2812 q0.1875,-3.6875 0.375,-8.0625 q0.1875,-4.375 0.4062,-9 q0.2188,-4.625 0.4062,-9.0312 q0.1875,-4.4062 0.375,-8.25 q0.1875,-3.8438 0.25,-6.5938 q0.125,-3.375 -0.5625,-4.875 q-0.6875,-1.5 -2.1875,-1.9062 q-1.5,-0.4062 -3.8125,-0.4688 h-2.375 Z" fill="#D3D3D3" transform="matrix(1,0,0,-1,314.5,212)"/>
  <path d="" fill="#D3D3D3" transform="matrix(1,0,0,-1,322.5,212)"/>
  <path d="M4.6875,0.875 q-1.5,0 -2.6562,1.1562 q-1.1562,1.1562 -1.1562,2.6562 q0,1.5625 1.1562,2.6875 q1.1562,1.125 2.6562,1.125 q1.5625,0 2.6875,-1.125 q1.125,-1.125 1.125,-2.6875 q0,-1.5 -1.125,-2.6562 q-1.125,-1.1562 -2.6875,-1.1562 Z" fill="#E22E00" transform="matrix(1,0,0,-1,360.5,188)"/>
  <path d="M16.25,-3.5625 q-3.25,-0.125 -6.375,0.3125 q-3.125,0.4375 -5.5938,1.375 q-2.4688,0.9375 -3.9062,2.375 q-0.625,0.6875 -0.1875,1.0625 q0.4375,0.375 0.9375,0.375 q0.6875,0 1.6875,0.6875 q1,0.6875 1.9375,1.6562 q0.9375,0.9688 1.3125,1.6562 q0.3125,0.5 0.9062,0.3125 q0.5938,-0.1875 1.0938,-0.5 q0.0625,-0.0625 0.125,-0.0625 q1.9375,-1.125 4.1875,-1.5938 q2.25,-0.4688 4.4375,-0.5312 q2.1875,-0.0625 3.9688,0.125 q1.7812,0.1875 2.7812,0.375 q0.75,0.125 0.7188,0.6875 q-0.0312,0.5625 -0.6562,0.4375 q-4.4375,-0.8125 -8.2188,-0.5 q-3.7812,0.3125 -6.0312,2.3438 q-2.25,2.0312 -2.25,6.3438 q0,3.25 1.5,5.9062 q1.5,2.6562 3.9688,4.2812 q2.4688,1.625 5.4688,1.625 q2.625,0 4.8125,-1.4062 q2.1875,-1.4062 3.8438,-3.6562 q1.6562,-2.25 2.7812,-4.8438 q1.125,-2.5938 1.7188,-5.0312 q0.5938,-2.4375 0.5938,-4.125 q0,-1.375 -0.2188,-2.5312 q-0.2188,-1.1562 -0.9062,-2.0938 q-1.1875,-1.75 -3.6875,-2.8438 q-2.5,-1.0938 -5.375,-1.5938 q-2.875,-0.5 -5.375,-0.625 Z M17.3125,15.1875 q0.75,0 0.75,0.8125 q0,0.3125 -0.2188,0.5312 q-0.2188,0.2188 -0.5312,0.2188 q-0.8125,0 -0.8125,-0.75 q0,-0.8125 0.8125,-0.8125 Z" fill="#D3D3D3" transform="matrix(1,0,0,-1,347.5,212)"/>
  <path d="M7.1562,0.0125 q-1.95,0 -3.4531,1.5031 q-1.5031,1.5031 -1.5031,3.4531 q0,2.0312 1.5031,3.4937 q1.5031,1.4625 3.4531,1.4625 q2.0312,0 3.4937,-1.4625 q1.4625,-1.4625 1.4625,-3.4937 q0,-1.95 -1.4625,-3.4531 q-1.4625,-1.5031 -3.4937,-1.5031 Z M17.7812,0.0125 q-1.95,0 -3.4531,1.5031 q-1.5031,1.5031 -1.5031,3.4531 q0,2.0312 1.5031,3.4937 q1.5031,1.4625 3.4531,1.4625 q2.0312,0 3.4937,-1.4625 q1.4625,-1.4625 1.4625,-3.4937 q0,-1.95 -1.4625,-3.4531 q-1.4625,-1.5031 -3.4937,-1.5031 Z M12.4687,9.3875 q-1.95,0 -3.4531,1.5031 q-1.5031,1.5031 -1.5031,3.4531 q0,2.0312 1.5031,3.4937 q1.5031,1.4625 3.4531,1.4625 q2.0312,0 3.4937,-1.4625 q1.4625,-1.4625 1.4625,-3.4937 q0,-1.95 -1.4625,-3.4531 q-1.4625,-1.5031 -3.4937,-1.5031 Z" fill="#FFE2A1" transform="matrix(1,0,0,-1,379.5,212)"/>
  <path d="M7.1561,0.775 q-1.65,0 -2.9218,1.2718 q-1.2718,1.2718 -1.2718,2.9218 q0,1.7187 1.2718,2.9562 q1.2718,1.2375 2.9218,1.2375 q1.7187,0 2.9562,-1.2375 q1.2375,-1.2375 1.2375,-2.9562 q0,-1.65 -1.2375,-2.9218 q-1.2375,-1.2718 -2.9562,-1.2718 Z M12.4686,10.15 q-1.65,0 -2.9218,1.2718 q-1.2718,1.2718 -1.2718,2.9218 q0,1.7187 1.2718,2.9562 q1.2718,1.2375 2.9218,1.2375 q1.7187,0 2.9562,-1.2375 q1.2375,-1.2375 1.2375,-2.9562 q0,-1.65 -1.2375,-2.9218 q-1.2375,-1.2718 -2.9562,-1.2718 Z M17.7811,0.775 q-1.65,0 -2.9218,1.2718 q-1.2718,1.2718 -1.2718,2.9218 q0,1.7187 1.2718,2.9562 q1.2718,1.2375 2.9218,1.2375 q1.7187,0 2.9562,-1.2375 q1.2375,-1.2375 1.2375,-2.9562 q0,-1.65 -1.2375,-2.9218 q-1.2375,-1.2718 -2.9562,-1.2718 Z" fill="#A67300" transform="matrix(1,0,0,-1,379.5,212)"/>
  <path d="M6.7812,10.2 q-0.45,0 -0.7968,0.3469 q-0.3469,0.3469 -0.3469,0.7968 q0,0.4687 0.3469,0.8062 q0.3469,0.3375 0.7968,0.3375 q0.4687,0 0.8062,-0.3375 q0.3375,-0.3375 0.3375,-0.8062 q0,-0.45 -0.3375,-0.7968 q-0.3375,-0.3469 -0.8062,-0.3469 Z M12.4687,7.0125 q-0.45,0 -0.7968,0.3469 q-0.3469,0.3469 -0.3469,0.7968 q0,0.4687 0.3469,0.8062 q0.3469,0.3375 0.7968,0.3375 q0.4687,0 0.8062,-0.3375 q0.3375,-0.3375 0.3375,-0.8062 q0,-0.45 -0.3375,-0.7968 q-0.3375,-0.3469 -0.8062,-0.3469 Z M18.0312,10.2 q-0.45,0 -0.7968,0.3469 q-0.3469,0.3469 -0.3469,0.7968 q0,0.4687 0.3469,0.8062 q0.3469,0.3375 0.7968,0.3375 q0.4687,0 0.8062,-0.3375 q0.3375,-0.3375 0.3375,-0.8062 q0,-0.45 -0.3375,-0.7968 q-0.3375,-0.3469 -0.8062,-0.3469 Z M12.4687,0.45 q-0.45,0 -0.7968,0.3469 q-0.3469,0.3469 -0.3469,0.7968 q0,0.4687 0.3469,0.8062 q0.3469,0.3375 0.7968,0.3375 q0.4687,0 0.8062,-0.3375 q0.3375,-0.3375 0.3375,-0.8062 q0,-0.45 -0.3375,-0.7968 q-0.3375,-0.3469 -0.8062,-0.3469 Z" fill="#E22E00" transform="matrix(1,0,0,-1,379.5,212)"/>
  <path d="M10.6875,-0.2875 q-3.8125,0.0625 -6.4375,0.4062 q-2.625,0.3438 -3.625,1.1562 q-0.6875,0.5 -0.625,1 q0.0625,0.5 0.8125,0.5 q0.375,0 0.7188,0.2188 q0.3438,0.2188 0.5938,0.4688 q0.5625,0.5625 1.4062,1.6562 q0.8438,1.0938 1.5312,2.2188 q0.6875,1.0625 2.1875,0.1875 q0.6875,-0.375 2.125,-0.5625 q1.4375,-0.1875 3.0625,-0.3125 q0.4375,0 2.6126,-0.0312 q2.1751,-0.0312 5.8065,-0.0625 q3.6314,-0.0312 8.5254,-0.0625 q4.894,-0.0312 10.7943,-0.0625 q5.9003,-0.0312 12.5819,-0.0625 q6.6816,-0.0312 13.907,-0.0312 q7.2254,0 14.7383,-0.0312 q7.5129,-0.0312 15.057,-0.0312 q7.5441,0 14.957,0 q7.4129,0 14.3757,0.0312 q6.9628,0.0312 13.3006,0.0625 q6.3378,0.0312 11.7818,0.0625 q5.444,0.0312 9.7754,0.0938 q4.3314,0.0625 7.2878,0.1562 q2.9563,0.0938 4.2688,0.1562 q1.375,0.125 1.625,0.3438 q0.25,0.2188 0.125,0.5938 q-0.0625,0.125 -0.2188,0.25 q-0.1562,0.125 -0.6562,0.0625 q-0.75,-0.0625 -3.2688,-0.125 q-2.5189,-0.0625 -6.5565,-0.125 q-4.0377,-0.0625 -9.3067,-0.125 q-5.269,-0.0625 -11.5443,-0.0938 q-6.2753,-0.0312 -13.3006,-0.0625 q-7.0254,-0.0312 -14.532,-0.0625 q-7.5066,-0.0312 -15.3008,-0.0312 q-7.7941,0 -15.557,0 q-7.7629,0 -15.2695,0.0312 q-7.5066,0.0312 -14.532,0.0312 q-7.0253,0 -13.2882,0.0625 q-6.2628,0.0625 -11.5131,0.125 q-5.2503,0.0625 -9.2567,0.125 q-4.0064,0.0625 -6.5253,0.1562 q-2.5188,0.0938 -3.2688,0.2188 q-1.5625,0.1875 -2.1562,0.6875 q-0.5938,0.5 0.0312,1.375 q2.125,2.8125 4.1875,5.6562 q2.0625,2.8438 3.8125,5.7812 q0.3125,0.5 0.7188,0.3125 q0.4062,-0.1875 0.1562,-0.75 q-0.25,-0.5625 -0.7812,-1.75 q-0.5312,-1.1875 -1.0312,-2.3438 q-0.5,-1.1562 -0.75,-1.7812 q0.875,-0.0625 3.4563,-0.1562 q2.5813,-0.0938 6.5878,-0.1562 q4.0064,-0.0625 9.2442,-0.0938 q5.2378,-0.0312 11.4193,-0.0625 q6.1816,-0.0312 13.1132,-0.0312 q6.9316,0 14.3445,0 q7.4129,0 15.082,0 q7.6691,0 15.3695,0 q7.7004,0 15.1758,0.0312 q7.4754,0.0312 14.4695,0.0625 q6.9941,0.0312 13.3006,0.0625 q6.3066,0.0312 11.6881,0.0625 q5.3815,0.0312 9.5879,0.0625 q4.2064,0.0312 6.9753,0.0938 q2.7688,0.0625 3.8938,0.0625 q1.125,0.0625 1.5312,-0.4688 q0.4062,-0.5312 0.9688,-1.8438 q0.75,-1.6875 1.6562,-4.0625 q0.9062,-2.375 0.9688,-5.4375 q0.0625,-1.25 -1.0312,-2.125 q-1.0938,-0.875 -2.2188,-1 q-1.375,-0.125 -4.3938,-0.2188 q-3.0189,-0.0938 -7.369,-0.1562 q-4.3502,-0.0625 -9.8379,-0.125 q-5.4877,-0.0625 -11.8881,-0.0938 q-6.4003,-0.0312 -13.4569,-0.0938 q-7.0566,-0.0625 -14.5945,-0.0625 q-7.5379,0 -15.2695,-0.0312 q-7.7316,-0.0312 -15.4945,-0.0312 q-7.7629,0 -15.3008,0 q-7.5379,0 -14.5945,0 q-7.0566,0 -13.4569,0 q-6.4003,0 -11.8881,0.0312 q-5.4878,0.0312 -9.8379,0.0312 q-4.3502,0 -7.369,0.0312 q-3.0188,0.0312 -4.3938,0.0312 Z M158.0828,-0.2375 l21.25,7.1125 h3.3125 v-6.875 q-5.5625,-0.1375 -11.8438,-0.1875 q-6.2812,-0.05 -12.7188,-0.05 Z" fill="#D3D3D3" transform="matrix(1,0,0,-1,404.5,212)"/>
  <path d="M-1.25,0 v6.875 h2.375 q-0.0625,3 -0.2188,7.4375 q-0.1562,4.4375 -0.4062,9.4375 q-0.25,5 -0.5,9.8125 q-0.25,4.8125 -0.5,8.5625 q0,0.125 -0.0625,0.375 q-0.0625,0.375 -0.0312,0.875 q0.0312,0.5 0.5938,1 q0.5625,0.4375 1.4375,1.2188 q0.875,0.7812 1.6875,1.6562 q0.8125,0.875 1.1875,1.5625 q0.5,0.875 1,0.6562 q0.5,-0.2188 0.5625,-1.2812 q0.1875,-3.6875 0.375,-8.0625 q0.1875,-4.375 0.4062,-9 q0.2188,-4.625 0.4062,-9.0312 q0.1875,-4.4062 0.375,-8.25 q0.1875,-3.8438 0.25,-6.5938 q0.125,-3.375 -0.5625,-4.875 q-0.6875,-1.5 -2.1875,-1.9062 q-1.5,-0.4062 -3.8125,-0.4688 h-2.375 Z" fill="#D3D3D3" transform="matrix(1,0,0,-1,586.5,212)"/>
  <path d="M16.375,-8.625 q-6.75,0 -10.4688,1.25 q-3.7188,1.25 -5.6562,3.875 q-0.5,0.6875 -0.125,1.0625 q0.375,0.375 0.875,0.375 q0.6875,0 1.75,0.6875 q1.0625,0.6875 2.0625,1.625 q1,0.9375 1.375,1.625 q0.3125,0.5625 0.9375,0.2812 q0.625,-0.2812 1.0625,-0.6562 q1.5625,-1.375 3.9062,-2.0938 q2.3438,-0.7188 4.75,-0.9375 q2.4062,-0.2188 4.2812,-0.1562 q1.875,0.0625 2.5625,0.1875 q0.75,0.125 0.7188,0.6562 q-0.0312,0.5312 -0.6562,0.4688 q-3.375,-0.25 -6.25,-0.0938 q-2.875,0.1562 -5.0625,1.0312 q-2.1875,0.875 -3.4062,2.8125 q-1.2188,1.9375 -1.2188,5.1875 q0,2.0625 0.625,4.1875 q0.625,2.125 1.875,3.9375 q1.25,1.8125 3.2188,2.9375 q1.9688,1.125 4.5938,1.125 q3.3125,0 5.1875,-1.125 q1.875,-1.125 3.625,-3.375 q1.5625,-2 2.125,-4.125 q0.5625,-2.125 0.9375,-3.1875 q0.3125,-0.8125 0.9375,-1.4688 q0.625,-0.6562 1.6875,-0.6562 v-6.8125 q0,-3.875 -2.125,-5.7188 q-2.125,-1.8438 -5.8125,-2.375 q-3.6875,-0.5312 -8.3125,-0.5312 Z M19.375,9.1875 q0.75,0 0.75,0.8125 q0,0.3125 -0.2188,0.5312 q-0.2188,0.2188 -0.5312,0.2188 q-0.8125,0 -0.8125,-0.75 q0,-0.8125 0.8125,-0.8125 Z" fill="#D3D3D3" transform="matrix(1,0,0,-1,-1,155)"/>
  <path d="M4.6875,0.875 q-1.5,0 -2.6562,1.1562 q-1.1562,1.1562 -1.1562,2.6562 q0,1.5625 1.1562,2.6875 q1.1562,1.125 2.6562,1.125 q1.5625,0 2.6875,-1.125 q1.125,-1.125 1.125,-2.6875 q0,-1.5 -1.125,-2.6562 q-1.125,-1.1562 -2.6875,-1.1562 Z" fill="#E22E00" transform="matrix(1,0,0,-1,24,149)"/>
  <path d="M1,2 q-0.625,0 -0.625,0.625 q0,0.3125 0.25,0.5 q1.375,1.0625 2.5625,2.3438 q1.1875,1.2812 2.3125,2.6562 q0.1875,0.25 0.5,0.25 q0.625,0 0.625,-0.625 q0,-0.25 -0.125,-0.375 q-2.3125,-3 -5.125,-5.25 q-0.125,-0.125 -0.375,-0.125 Z M2.875,0.3125 q-0.625,0 -0.625,0.625 q0,0.3125 0.25,0.5 q1.375,1.0625 2.5625,2.3438 q1.1875,1.2812 2.3125,2.6562 q0.1875,0.25 0.5,0.25 q0.625,0 0.625,-0.625 q0,-0.25 -0.125,-0.375 q-2.3125,-3 -5.125,-5.25 q-0.125,-0.125 -0.375,-0.125 Z" fill="#D3D3D3" transform="matrix(1,0,0,-1,33,160)"/>
  <path d="M-1.25,0 v6.875 h2.4375 q-0.0625,2.625 -0.0938,4.25 q-0.0312,1.625 -0.1562,3.1875 q0,0.1875 -0.0625,0.625 q-0.0625,1.125 0,1.8438 q0.0625,0.7188 0.625,1.0938 q2.8125,1.875 4.8125,4.9375 q0.3125,0.5 0.5938,0.4062 q0.2812,-0.0938 0.2812,-0.5312 q0,-4.6875 0.4375,-9.0938 q0.4375,-4.4062 0.5,-9.0938 q0.0625,-1.625 -1.375,-3.0625 q-1.4375,-1.4375 -3.25,-1.4375 h-4.75 Z" fill="#D3D3D3" transform="matrix(1,0,0,-1,28,155)"/>
  <path d="" fill="#D3D3D3" transform="matrix(1,0,0,-1,36,155)"/>
  <path d="M23.4375,-2.8125 q-1.625,0 -3.4062,0.125 q-1.7812,0.125 -3.2812,0.5625 q-6.25,-0.25 -10.625,0.1875 q-4.375,0.4375 -5.75,2.25 q-0.25,0.375 -0.375,0.9375 q-0.125,0.5625 0.75,0.875 q1.8125,0.6875 3.0312,1.75 q1.2188,1.0625 2.1562,2.625 q0.5,0.9375 1.6875,0.375 q1.9375,-0.8125 4.25,-1.25 q0,4.875 1.6875,8.125 q1.6875,3.25 4.3125,4.875 q2.625,1.625 5.4375,1.625 q2.625,0 5.0938,-1.625 q2.4688,-1.625 4.2812,-4.625 q1.8125,-3 2.4375,-7.125 q0.1875,0 0.3125,0 v-6.875 l-0.875,-0.125 q-1,-1.4375 -2.8125,-2 q-1.8125,-0.5625 -3.8438,-0.6562 q-2.0312,-0.0938 -3.7188,-0.0312 q-0.5,0 -0.75,0 Z M24.6875,7.9375 q0.75,0 0.75,0.8125 q0,0.3125 -0.2188,0.5312 q-0.2188,0.2188 -0.5312,0.2188 q-0.8125,0 -0.8125,-0.75 q0,-0.8125 0.8125,-0.8125 Z" fill="#D3D3D3" transform="matrix(1,0,0,-1,61,155)"/>
  <path d="M-2.375,0 v12 h0.625 q0.75,-1.5625 2.0312,-2.7188 q1.2812,-1.1562 2.6875,-1.7812 q1.4062,-0.625 2.4688,-0.625 v-6.875 h-7.8125 Z" fill="#D3D3D3" transform="matrix(1,0,0,-1,96,155)"/>
  <path d="M-1.25,0 v6.875 h1.25 q45.6081,-0.3583 91.2163,-0.3583 q45.6081,0 91.2163,0.3583 v-6.875 q-45.9206,-0.2986 -91.8413,-0.2986 q-45.9206,0 -91.8413,0.2986 Z" fill="#D3D3D3" transform="matrix(1,0,0,-1,98,155)"/>
  <path d="M-1.25,0 v6.875 h2.375 q-0.0625,3 -0.2188,7.4375 q-0.1562,4.4375 -0.4062,9.4375 q-0.25,5 -0.5,9.8125 q-0.25,4.8125 -0.5,8.5625 q0,0.125 -0.0625,0.375 q-0.0625,0.375 -0.0312,0.875 q0.0312,0.5 0.5938,1 q0.5625,0.4375 1.4375,1.2188 q0.875,0.7812 1.6875,1.6562 q0.8125,0.875 1.1875,1.5625 q0.5,0.875 1,0.6562 q0.5,-0.2188 0.5625,-1.2812 q0.1875,-3.6875 0.375,-8.0625 q0.1875,-4.375 0.4062,-9 q0.2188,-4.625 0.4062,-9.0312 q0.1875,-4.4062 0.375,-8.25 q0.1875,-3.8438 0.25,-6.5938 q0.125,-3.375 -0.5625,-4.875 q-0.6875,-1.5 -2.1875,-1.9062 q-1.5,-0.4062 -3.8125,-0.4688 h-2.375 Z" fill="#D3D3D3" transform="matrix(1,0,0,-1,280,155)"/>
  <path d="" fill="#D3D3D3" transform="matrix(1,0,0,-1,288,155)"/>
  <path d="M4.6875,0.875 q-1.5,0 -2.6562,1.1562 q-1.1562,1.1562 -1.1562,2.6562 q0,1.5625 1.1562,2.6875 q1.1562,1.125 2.6562,1.125 q1.5625,0 2.6875,-1.125 q1.125,-1.125 1.125,-2.6875 q0,-1.5 -1.125,-2.6562 q-1.125,-1.1562 -2.6875,-1.1562 Z" fill="#E22E00" transform="matrix(1,0,0,-1,326,131)"/>
  <path d="M16.25,-3.5625 q-3.25,-0.125 -6.375,0.3125 q-3.125,0.4375 -5.5938,1.375 q-2.4688,0.9375 -3.9062,2.375 q-0.625,0.6875 -0.1875,1.0625 q0.4375,0.375 0.9375,0.375 q0.6875,0 1.6875,0.6875 q1,0.6875 1.9375,1.6562 q0.9375,0.9688 1.3125,1.6562 q0.3125,0.5 0.9062,0.3125 q0.5938,-0.1875 1.0938,-0.5 q0.0625,-0.0625 0.125,-0.0625 q1.9375,-1.125 4.1875,-1.5938 q2.25,-0.4688 4.4375,-0.5312 q2.1875,-0.0625 3.9688,0.125 q1.7812,0.1875 2.7812,0.375 q0.75,0.125 0.7188,0.6875 q-0.0312,0.5625 -0.6562,0.4375 q-4.4375,-0.8125 -8.2188,-0.5 q-3.7812,0.3125 -6.0312,2.3438 q-2.25,2.0312 -2.25,6.3438 q0,3.25 1.5,5.9062 q1.5,2.6562 3.9688,4.2812 q2.4688,1.625 5.4688,1.625 q2.625,0 4.8125,-1.4062 q2.1875,-1.4062 3.8438,-3.6562 q1.6562,-2.25 2.7812,-4.8438 q1.125,-2.5938 1.7188,-5.0312 q0.5938,-2.4375 0.5938,-4.125 q0,-1.375 -0.2188,-2.5312 q-0.2188,-1.1562 -0.9062,-2.0938 q-1.1875,-1.75 -3.6875,-2.8438 q-2.5,-1.0938 -5.375,-1.5938 q-2.875,-0.5 -5.375,-0.625 Z M17.3125,15.1875 q0.75,0 0.75,0.8125 q0,0.3125 -0.2188,0.5312 q-0.2188,0.2188 -0.5312,0.2188 q-0.8125,0 -0.8125,-0.75 q0,-0.8125 0.8125,-0.8125 Z" fill="#D3D3D3" transform="matrix(1,0,0,-1,313,155)"/>
  <path d="" fill="#D3D3D3" transform="matrix(1,0,0,-1,345,155)"/>
  <path d="M10.6875,-0.2826 q-3.8125,0.0625 -6.4375,0.4062 q-2.625,0.3438 -3.625,1.1562 q-0.6875,0.5 -0.625,1 q0.0625,0.5 0.8125,0.5 q0.375,0 0.7188,0.2188 q0.3438,0.2188 0.5938,0.4688 q0.5625,0.5625 1.4062,1.6562 q0.8438,1.0938 1.5312,2.2188 q0.6875,1.0625 2.1875,0.1875 q0.6875,-0.375 2.125,-0.5625 q1.4375,-0.1875 3.0625,-0.3125 q0.4375,0 2.9261,-0.0312 q2.4886,-0.0312 6.6983,-0.0625 q4.2098,-0.0312 9.9032,-0.0625 q5.6935,-0.0312 12.5706,-0.0625 q6.8772,-0.0312 14.6692,-0.0625 q7.7921,-0.0312 16.2154,-0.0312 q8.4233,0 17.1779,-0.0312 q8.7546,-0.0312 17.5405,-0.0312 q8.7859,0 17.3967,0 q8.6108,0 16.6842,0.0312 q8.0733,0.0312 15.388,0.0625 q7.3147,0.0312 13.5557,0.0625 q6.241,0.0312 11.1532,0.0938 q4.9122,0.0625 8.182,0.1562 q3.2698,0.0938 4.5823,0.1562 q1.375,0.125 1.625,0.3438 q0.25,0.2188 0.125,0.5938 q-0.0625,0.125 -0.2188,0.25 q-0.1562,0.125 -0.6562,0.0625 q-0.75,-0.0625 -3.5823,-0.125 q-2.8323,-0.0625 -7.4483,-0.125 q-4.616,-0.0625 -10.6845,-0.125 q-6.0685,-0.0625 -13.3206,-0.0938 q-7.2522,-0.0312 -15.388,-0.0625 q-8.1358,-0.0312 -16.8405,-0.0625 q-8.7046,-0.0312 -17.7404,-0.0312 q-9.0359,0 -18.0405,0 q-9.0046,0 -17.7092,0.0312 q-8.7046,0.0312 -16.8404,0.0312 q-8.1358,0 -15.3731,0.0625 q-7.2372,0.0625 -13.2894,0.125 q-6.0521,0.0625 -10.6369,0.125 q-4.5848,0.0625 -7.4171,0.1562 q-2.8323,0.0938 -3.5823,0.2188 q-1.5625,0.1875 -2.1562,0.6875 q-0.5938,0.5 0.0312,1.375 q2.125,2.8125 4.1875,5.6562 q2.0625,2.8438 3.8125,5.7812 q0.3125,0.5 0.7188,0.3125 q0.4062,-0.1875 0.1562,-0.75 q-0.25,-0.5625 -0.7812,-1.75 q-0.5312,-1.1875 -1.0312,-2.3438 q-0.5,-1.1562 -0.75,-1.7812 q0.875,-0.0625 3.7698,-0.1562 q2.8948,-0.0938 7.4796,-0.1562 q4.5848,-0.0625 10.622,-0.0938 q6.0372,-0.0312 13.1956,-0.0625 q7.1584,-0.0312 15.2005,-0.0312 q8.0421,0 16.6529,0 q8.6108,0 17.5217,0 q8.9109,0 17.853,0 q8.9421,0 17.6154,0.0312 q8.6734,0.0312 16.778,0.0625 q8.1046,0.0312 15.388,0.0625 q7.2834,0.0312 13.4619,0.0625 q6.1785,0.0312 10.9657,0.0625 q4.7872,0.0312 7.8695,0.0938 q3.0823,0.0625 4.2073,0.0625 q1.125,0.0625 1.5312,-0.4688 q0.4062,-0.5312 0.9688,-1.8438 q0.75,-1.6875 1.6562,-4.0625 q0.9062,-2.375 0.9688,-5.4375 q0.0625,-1.25 -1.0312,-2.125 q-1.0938,-0.875 -2.2188,-1 q-1.375,-0.125 -4.7073,-0.2188 q-3.3323,-0.0938 -8.2608,-0.1562 q-4.9285,-0.0625 -11.2157,-0.125 q-6.2872,-0.0625 -13.6644,-0.0938 q-7.3772,-0.0312 -15.5442,-0.0938 q-8.1671,-0.0625 -16.903,-0.0625 q-8.7358,0 -17.7092,-0.0312 q-8.9734,-0.0312 -17.978,-0.0312 q-9.0046,0 -17.7404,0 q-8.7358,0 -16.9029,0 q-8.1671,0 -15.5442,0 q-7.3772,0 -13.6644,0.0312 q-6.2872,0.0312 -11.2157,0.0312 q-4.9285,0 -8.2608,0.0312 q-3.3323,0.0312 -4.7073,0.0312 Z M182.9559,-0.1986 l21.25,7.0736 h3.3125 v-6.875 q-5.5625,-0.1278 -11.8438,-0.1632 q-6.2812,-0.0354 -12.7188,-0.0354 Z" fill="#D3D3D3" transform="matrix(1,0,0,-1,370,155)"/>
  <path d="M-1.25,0 v6.875 h2.375 q-0.0625,3 -0.2188,7.4375 q-0.1562,4.4375 -0.4062,9.4375 q-0.25,5 -0.5,9.8125 q-0.25,4.8125 -0.5,8.5625 q0,0.125 -0.0625,0.375 q-0.0625,0.375 -0.0312,0.875 q0.0312,0.5 0.5938,1 q0.5625,0.4375 1.4375,1.2188 q0.875,0.7812 1.6875,1.6562 q0.8125,0.875 1.1875,1.5625 q0.5,0.875 1,0.6562 q0.5,-0.2188 0.5625,-1.2812 q0.1875,-3.6875 0.375,-8.0625 q0.1875,-4.375 0.4062,-9 q0.2188,-4.625 0.4062,-9.0312 q0.1875,-4.4062 0.375,-8.25 q0.1875,-3.8438 0.25,-6.5938 q0.125,-3.375 -0.5625,-4.875 q-0.6875,-1.5 -2.1875,-1.9062 q-1.5,-0.4062 -3.8125,-0.4688 h-2.375 Z M1.125,0 v6.875 h7.5 v-6.875 h-7.5 Z" fill="#D3D3D3" transform="matrix(1,0,0,-1,577,155)"/>
  <path d="M1,2 q-0.625,0 -0.625,0.625 q0,0.3125 0.25,0.5 q1.375,1.0625 2.5625,2.3438 q1.1875,1.2812 2.3125,2.6562 q0.1875,0.25 0.5,0.25 q0.625,0 0.625,-0.625 q0,-0.25 -0.125,-0.375 q-2.3125,-3 -5.125,-5.25 q-0.125,-0.125 -0.375,-0.125 Z M2.875,0.3125 q-0.625,0 -0.625,0.625 q0,0.3125 0.25,0.5 q1.375,1.0625 2.5625,2.3438 q1.1875,1.2812 2.3125,2.6562 q0.1875,0.25 0.5,0.25 q0.625,0 0.625,-0.625 q0,-0.25 -0.125,-0.375 q-2.3125,-3 -5.125,-5.25 q-0.125,-0.125 -0.375,-0.125 Z" fill="#D3D3D3" transform="matrix(1,0,0,-1,590,160)"/>
  <path d="M-1.5,2.8125 v9.8125 h1.1875 q0.0625,-2.3125 1.0312,-3.25 q0.9688,-0.9375 1.8438,-1.25 v-5.3125 h-4.0625 Z" fill="#D3D3D3" transform="matrix(1,0,0,-1,585,155)"/>
  <path d="M-1.25,0 v6.875 h2.4375 q-0.0625,2.625 -0.0938,4.25 q-0.0312,1.625 -0.1562,3.1875 q0,0.1875 -0.0625,0.625 q-0.0625,1.125 0,1.8438 q0.0625,0.7188 0.625,1.0938 q2.8125,1.875 4.8125,4.9375 q0.3125,0.5 0.5938,0.4062 q0.2812,-0.0938 0.2812,-0.5312 q0,-4.6875 0.4375,-9.0938 q0.4375,-4.4062 0.5,-9.0938 q0.0625,-1.625 -1.375,-3.0625 q-1.4375,-1.4375 -3.25,-1.4375 h-4.75 Z" fill="#D3D3D3" transform="matrix(1,0,0,-1,585,155)"/>
  <path d="M23.4375,-2.8125 q-1.625,0 -3.4062,0.125 q-1.7812,0.125 -3.2812,0.5625 q-6.25,-0.25 -10.625,0.1875 q-4.375,0.4375 -5.75,2.25 q-0.25,0.375 -0.375,0.9375 q-0.125,0.5625 0.75,0.875 q1.8125,0.6875 3.0312,1.75 q1.2188,1.0625 2.1562,2.625 q0.5,0.9375 1.6875,0.375 q1.9375,-0.8125 4.25,-1.25 q0,4.875 1.6875,8.125 q1.6875,3.25 4.3125,4.875 q2.625,1.625 5.4375,1.625 q2.625,0 5.0938,-1.625 q2.4688,-1.625 4.2812,-4.625 q1.8125,-3 2.4375,-7.125 q0.1875,0 0.3125,0 v-6.875 l-0.875,-0.125 q-1,-1.4375 -2.8125,-2 q-1.8125,-0.5625 -3.8438,-0.6562 q-2.0312,-0.0938 -3.7188,-0.0312 q-0.5,0 -0.75,0 Z M24.6875,7.9375 q0.75,0 0.75,0.8125 q0,0.3125 -0.2188,0.5312 q-0.2188,0.2188 -0.5312,0.2188 q-0.8125,0 -0.8125,-0.75 q0,-0.8125 0.8125,-0.8125 Z" fill="#D3D3D3" transform="matrix(1,0,0,-1,-0.5,98)"/>
  <path d="M4.6875,0.875 q-1.5,0 -2.6562,1.1562 q-1.1562,1.1562 -1.1562,2.6562 q0,1.5625 1.1562,2.6875 q1.1562,1.125 2.6562,1.125 q1.5625,0 2.6875,-1.125 q1.125,-1.125 1.125,-2.6875 q0,-1.5 -1.125,-2.6562 q-1.125,-1.1562 -2.6875,-1.1562 Z" fill="#E22E00" transform="matrix(1,0,0,-1,24.5,64)"/>
  <path d="M-1.25,0 v6.875 h2.375 q-0.0625,3 -0.2188,7.4375 q-0.1562,4.4375 -0.4062,9.4375 q-0.25,5 -0.5,9.8125 q-0.25,4.8125 -0.5,8.5625 q0,0.125 -0.0625,0.375 q-0.0625,0.375 -0.0312,0.875 q0.0312,0.5 0.5938,1 q0.5625,0.4375 1.4375,1.2188 q0.875,0.7812 1.6875,1.6562 q0.8125,0.875 1.1875,1.5625 q0.5,0.875 1,0.6562 q0.5,-0.2188 0.5625,-1.2812 q0.1875,-3.6875 0.375,-8.0625 q0.1875,-4.375 0.4062,-9 q0.2188,-4.625 0.4062,-9.0312 q0.1875,-4.4062 0.375,-8.25 q0.1875,-3.8438 0.25,-6.5938 q0.125,-3.375 -0.5625,-4.875 q-0.6875,-1.5 -2.1875,-1.9062 q-1.5,-0.4062 -3.8125,-0.4688 h-2.375 Z" fill="#D3D3D3" transform="matrix(1,0,0,-1,32.5,98)"/>
  <path d="M7.1562,0.0125 q-1.95,0 -3.4531,1.5031 q-1.5031,1.5031 -1.5031,3.4531 q0,2.0312 1.5031,3.4937 q1.5031,1.4625 3.4531,1.4625 q2.0312,0 3.4937,-1.4625 q1.4625,-1.4625 1.4625,-3.4937 q0,-1.95 -1.4625,-3.4531 q-1.4625,-1.5031 -3.4937,-1.5031 Z M17.7812,0.0125 q-1.95,0 -3.4531,1.5031 q-1.5031,1.5031 -1.5031,3.4531 q0,2.0312 1.5031,3.4937 q1.5031,1.4625 3.4531,1.4625 q2.0312,0 3.4937,-1.4625 q1.4625,-1.4625 1.4625,-3.4937 q0,-1.95 -1.4625,-3.4531 q-1.4625,-1.5031 -3.4937,-1.5031 Z M12.4687,9.3875 q-1.95,0 -3.4531,1.5031 q-1.5031,1.5031 -1.5031,3.4531 q0,2.0312 1.5031,3.4937 q1.5031,1.4625 3.4531,1.4625 q2.0312,0 3.4937,-1.4625 q1.4625,-1.4625 1.4625,-3.4937 q0,-1.95 -1.4625,-3.4531 q-1.4625,-1.5031 -3.4937,-1.5031 Z" fill="#FFE2A1" transform="matrix(1,0,0,-1,40.5,98)"/>
  <path d="M7.1561,0.775 q-1.65,0 -2.9218,1.2718 q-1.2718,1.2718 -1.2718,2.9218 q0,1.7187 1.2718,2.9562 q1.2718,1.2375 2.9218,1.2375 q1.7187,0 2.9562,-1.2375 q1.2375,-1.2375 1.2375,-2.9562 q0,-1.65 -1.2375,-2.9218 q-1.2375,-1.2718 -2.9562,-1.2718 Z M12.4686,10.15 q-1.65,0 -2.9218,1.2718 q-1.2718,1.2718 -1.2718,2.9218 q0,1.7187 1.2718,2.9562 q1.2718,1.2375 2.9218,1.2375 q1.7187,0 2.9562,-1.2375 q1.2375,-1.2375 1.2375,-2.9562 q0,-1.65 -1.2375,-2.9218 q-1.2375,-1.2718 -2.9562,-1.2718 Z M17.7811,0.775 q-1.65,0 -2.9218,1.2718 q-1.2718,1.2718 -1.2718,2.9218 q0,1.7187 1.2718,2.9562 q1.2718,1.2375 2.9218,1.2375 q1.7187,0 2.9562,-1.2375 q1.2375,-1.2375 1.2375,-2.9562 q0,-1.65 -1.2375,-2.9218 q-1.2375,-1.2718 -2.9562,-1.2718 Z" fill="#A67300" transform="matrix(1,0,0,-1,40.5,98)"/>
  <path d="M6.7812,10.2 q-0.45,0 -0.7968,0.3469 q-0.3469,0.3469 -0.3469,0.7968 q0,0.4687 0.3469,0.8062 q0.3469,0.3375 0.7968,0.3375 q0.4687,0 0.8062,-0.3375 q0.3375,-0.3375 0.3375,-0.8062 q0,-0.45 -0.3375,-0.7968 q-0.3375,-0.3469 -0.8062,-0.3469 Z M12.4687,7.0125 q-0.45,0 -0.7968,0.3469 q-0.3469,0.3469 -0.3469,0.7968 q0,0.4687 0.3469,0.8062 q0.3469,0.3375 0.7968,0.3375 q0.4687,0 0.8062,-0.3375 q0.3375,-0.3375 0.3375,-0.8062 q0,-0.45 -0.3375,-0.7968 q-0.3375,-0.3469 -0.8062,-0.3469 Z M18.0312,10.2 q-0.45,0 -0.7968,0.3469 q-0.3469,0.3469 -0.3469,0.7968 q0,0.4687 0.3469,0.8062 q0.3469,0.3375 0.7968,0.3375 q0.4687,0 0.8062,-0.3375 q0.3375,-0.3375 0.3375,-0.8062 q0,-0.45 -0.3375,-0.7968 q-0.3375,-0.3469 -0.8062,-0.3469 Z M12.4687,0.45 q-0.45,0 -0.7968,0.3469 q-0.3469,0.3469 -0.3469,0.7968 q0,0.4687 0.3469,0.8062 q0.3469,0.3375 0.7968,0.3375 q0.4687,0 0.8062,-0.3375 q0.3375,-0.3375 0.3375,-0.8062 q0,-0.45 -0.3375,-0.7968 q-0.3375,-0.3469 -0.8062,-0.3469 Z" fill="#E22E00" transform="matrix(1,0,0,-1,40.5,98)"/>
  <path d="M10.6875,-0.2861 q-3.8125,0.0625 -6.4375,0.4062 q-2.625,0.3438 -3.625,1.1562 q-0.6875,0.5 -0.625,1 q0.0625,0.5 0.8125,0.5 q0.375,0 0.7188,0.2188 q0.3438,0.2188 0.5938,0.4688 q0.5625,0.5625 1.4062,1.6562 q0.8438,1.0938 1.5312,2.2188 q0.6875,1.0625 2.1875,0.1875 q0.6875,-0.375 2.125,-0.5625 q1.4375,-0.1875 3.0625,-0.3125 q0.4375,0 2.7022,-0.0312 q2.2647,-0.0312 6.0613,-0.0625 q3.7967,-0.0312 8.9191,-0.0625 q5.1224,-0.0312 11.3018,-0.0625 q6.1794,-0.0312 13.1783,-0.0625 q6.9989,-0.0312 14.5665,-0.0312 q7.5677,0 15.4353,-0.0312 q7.8677,-0.0312 15.7666,-0.0312 q7.8989,0 15.6541,0 q7.7551,0 15.0353,0.0312 q7.2801,0.0312 13.897,0.0625 q6.6169,0.0312 12.2886,0.0625 q5.6717,0.0312 10.1691,0.0938 q4.4974,0.0625 7.5433,0.1562 q3.0459,0.0938 4.3584,0.1562 q1.375,0.125 1.625,0.3438 q0.25,0.2188 0.125,0.5938 q-0.0625,0.125 -0.2188,0.25 q-0.1562,0.125 -0.6562,0.0625 q-0.75,-0.0625 -3.3584,-0.125 q-2.6084,-0.0625 -6.8113,-0.125 q-4.2029,-0.0625 -9.7003,-0.125 q-5.4974,-0.0625 -12.0518,-0.0938 q-6.5544,-0.0312 -13.897,-0.0625 q-7.3426,-0.0312 -15.1915,-0.0625 q-7.8489,-0.0312 -15.9978,-0.0312 q-8.1489,0 -16.2666,0 q-8.1177,0 -15.9666,0.0312 q-7.8489,0.0312 -15.1915,0.0312 q-7.3426,0 -13.8838,0.0625 q-6.5412,0.0625 -12.0206,0.125 q-5.4794,0.0625 -9.651,0.125 q-4.1717,0.0625 -6.7801,0.1562 q-2.6084,0.0938 -3.3584,0.2188 q-1.5625,0.1875 -2.1562,0.6875 q-0.5938,0.5 0.0312,1.375 q2.125,2.8125 4.1875,5.6562 q2.0625,2.8438 3.8125,5.7812 q0.3125,0.5 0.7188,0.3125 q0.4062,-0.1875 0.1562,-0.75 q-0.25,-0.5625 -0.7812,-1.75 q-0.5312,-1.1875 -1.0312,-2.3438 q-0.5,-1.1562 -0.75,-1.7812 q0.875,-0.0625 3.5459,-0.1562 q2.6709,-0.0938 6.8426,-0.1562 q4.1717,-0.0625 9.6378,-0.0938 q5.4662,-0.0312 11.9268,-0.0625 q6.4607,-0.0312 13.7095,-0.0312 q7.2489,0 15.004,0 q7.7552,0 15.7791,0 q8.0239,0 16.0791,0 q8.0552,0 15.8728,0.0312 q7.8176,0.0312 15.129,0.0625 q7.3114,0.0312 13.897,0.0625 q6.5856,0.0312 12.1949,0.0625 q5.6092,0.0312 9.9816,0.0625 q4.3724,0.0312 7.2308,0.0938 q2.8584,0.0625 3.9834,0.0625 q1.125,0.0625 1.5312,-0.4688 q0.4062,-0.5312 0.9688,-1.8438 q0.75,-1.6875 1.6562,-4.0625 q0.9062,-2.375 0.9688,-5.4375 q0.0625,-1.25 -1.0312,-2.125 q-1.0938,-0.875 -2.2188,-1 q-1.375,-0.125 -4.4834,-0.2188 q-3.1084,-0.0938 -7.6238,-0.1562 q-4.5154,-0.0625 -10.2316,-0.125 q-5.7162,-0.0625 -12.3956,-0.0938 q-6.6794,-0.0312 -14.0533,-0.0938 q-7.3739,-0.0625 -15.254,-0.0625 q-7.8801,0 -15.9666,-0.0312 q-8.0864,-0.0312 -16.2041,-0.0312 q-8.1177,0 -15.9978,0 q-7.8801,0 -15.254,0 q-7.3739,0 -14.0533,0 q-6.6794,0 -12.3956,0.0312 q-5.7162,0.0312 -10.2316,0.0312 q-4.5154,0 -7.6238,0.0312 q-3.1084,0.0312 -4.4834,0.0312 Z M165.1894,-0.2264 l21.25,7.1014 h3.3125 v-6.875 q-5.5625,-0.1347 -11.8438,-0.1805 q-6.2812,-0.0458 -12.7188,-0.0458 Z" fill="#D3D3D3" transform="matrix(1,0,0,-1,65.5,98)"/>
  <path d="M12.5,-0.5 q-1.3125,0 -2.7188,0.125 q-1.4062,0.125 -2.7812,0.375 h-8.25 v6.875 h2.1875 q-0.0625,5 1.75,8.3438 q1.8125,3.3438 4.5625,5.0312 q2.75,1.6875 5.5625,1.6875 q2.8125,0 5.1562,-1.8438 q2.3438,-1.8438 3.875,-5.2188 q1.5312,-3.375 1.8438,-8 h0.0625 v-6.875 h-4.4375 q-1.6875,-0.4375 -3.5312,-0.4688 q-1.8438,-0.0312 -3.2812,-0.0312 Z M13.125,10.4375 q0.75,0 0.75,0.8125 q0,0.3125 -0.2188,0.5312 q-0.2188,0.2188 -0.5312,0.2188 q-0.8125,0 -0.8125,-0.75 q0,-0.8125 0.8125,-0.8125 Z" fill="#D3D3D3" transform="matrix(1,0,0,-1,255.5,98)"/>
  <path d="M-1.25,0 v6.875 l2,-0.0625 q0,2.5625 -0.0938,5.2188 q-0.0938,2.6562 -0.2188,4.7188 q-0.0625,0.875 -0.0938,1.875 q-0.0312,1 0.6562,1.5 q1.125,0.8125 2.375,2.2812 q1.25,1.4688 1.6875,2.9688 q0.3125,0.8125 0.75,0.8125 q0.4375,0 0.5625,-0.6875 q0.25,-1.1875 0.3125,-2.7812 q0.0625,-1.5938 0.0312,-3.125 q-0.0312,-1.5312 -0.0312,-2.5312 q0,-0.875 0.0312,-1.0938 q0.0312,-0.2188 0.9688,-0.3438 q1,-0.0625 3.8042,-0.125 q2.8042,-0.0625 7.1356,-0.125 q4.3314,-0.0625 9.9031,-0.0938 q5.5717,-0.0312 12.1643,-0.0625 q6.5926,-0.0312 13.929,-0.0625 q7.3364,-0.0312 15.2054,-0.0312 q7.869,0 15.9707,0 q8.1017,0 16.2215,0 q8.1198,0 15.9888,0 q7.869,0 15.2499,0 q7.3808,0 14.0227,0.0312 q6.6419,0.0312 12.2761,0.0625 q5.6342,0.0312 10.0281,0.0625 q4.3939,0.0312 7.2606,0.0625 q2.8667,0.0312 3.9917,0.0312 q1.125,0.0625 1.5312,-0.4688 q0.4062,-0.5312 0.9688,-1.8438 q0.75,-1.6875 1.6562,-4.0625 q0.9062,-2.375 0.9688,-5.4375 q0.0625,-1.25 -1.0312,-2.1431 q-1.0938,-0.8931 -2.2188,-0.9819 q-1.375,-0.0889 -4.541,-0.1778 q-3.166,-0.0889 -7.8051,-0.1333 q-4.639,-0.0444 -10.5101,-0.1069 q-5.871,-0.0625 -12.7449,-0.0757 q-6.8739,-0.0132 -14.5047,-0.0444 q-7.6308,-0.0312 -15.7811,-0.0312 q-8.1503,0 -16.5513,-0.0181 q-8.401,-0.0181 -16.8201,-0.0049 q-8.4191,0.0132 -16.6138,0.0264 q-8.1947,0.0132 -15.9374,0.0132 q-7.7426,0 -14.7595,0.0312 q-7.0169,0.0312 -13.0706,0.0444 q-6.0537,0.0132 -10.9163,0.0264 q-4.8626,0.0132 -8.2919,0.0132 q-3.4292,0 -5.1167,0 Z M175.0895,6.875 q1.375,0.125 1.625,0.3438 q0.25,0.2188 0.125,0.5938 q-0.0625,0.125 -0.2188,0.25 q-0.1562,0.125 -0.6562,0.0625 q-0.9375,-0.0625 -3.648,-0.1562 q-2.7105,-0.0938 -6.8988,-0.125 q-4.1883,-0.0312 -9.6219,-0.0938 q-5.4335,-0.0625 -11.8254,-0.0938 q-6.3919,-0.0312 -13.5227,-0.0312 q-7.1308,0 -14.7631,0 q-7.6322,0 -15.5201,0 q-7.8878,0 -15.7888,0 q-7.901,0 -15.5513,0.0312 q-7.6503,0.0312 -14.8124,0.0625 q-7.1621,0.0312 -13.5984,0.0312 q-6.4364,0 -11.9143,0.0312 q-5.478,0.0312 -9.7156,0.0625 q-4.2376,0.0312 -7.0419,0.0938 q-2.8042,0.0625 -3.8667,0.0625 q0.125,-0.375 0.4062,-0.6875 q0.2812,-0.3125 1.0938,-0.375 q0.5625,0 2.9605,-0.0312 q2.398,-0.0312 6.3363,-0.0625 q3.9383,-0.0312 9.1531,-0.0625 q5.2148,-0.0312 11.4636,-0.0625 q6.2489,-0.0312 13.2859,-0.0625 q7.0371,-0.0312 14.5936,-0.0625 q7.5565,-0.0312 15.4131,-0.0312 q7.8566,0 15.7395,-0.0312 q7.8829,-0.0312 15.5513,-0.0312 q7.6684,0 14.8617,0 q7.1933,0 13.6609,0.0312 q6.4676,0.0312 11.9768,0.0625 q5.5092,0.0312 9.7781,0.0625 q4.2689,0.0312 7.0731,0.0938 q2.8042,0.0625 3.8667,0.125 Z M160.4645,0 l21.4375,6.875 h3.625 v-6.875 h-25.0625 Z" fill="#D3D3D3" transform="matrix(1,0,0,-1,279.5,98)"/>
  <path d="M-1.25,0 v6.875 h2.375 q-0.0625,3 -0.2188,7.4375 q-0.1562,4.4375 -0.4062,9.4375 q-0.25,5 -0.5,9.8125 q-0.25,4.8125 -0.5,8.5625 q0,0.125 -0.0625,0.375 q-0.0625,0.375 -0.0312,0.875 q0.0312,0.5 0.5938,1 q0.5625,0.4375 1.4375,1.2188 q0.875,0.7812 1.6875,1.6562 q0.8125,0.875 1.1875,1.5625 q0.5,0.875 1,0.6562 q0.5,-0.2188 0.5625,-1.2812 q0.1875,-3.6875 0.375,-8.0625 q0.1875,-4.375 0.4062,-9 q0.2188,-4.625 0.4062,-9.0312 q0.1875,-4.4062 0.375,-8.25 q0.1875,-3.8438 0.25,-6.5938 q0.125,-3.375 -0.5625,-4.875 q-0.6875,-1.5 -2.1875,-1.9062 q-1.5,-0.4062 -3.8125,-0.4688 h-2.375 Z" fill="#D3D3D3" transform="matrix(1,0,0,-1,463.5,98)"/>
  <path d="" fill="#D3D3D3" transform="matrix(1,0,0,-1,471.5,98)"/>
  <path d="M19.4375,-3 q-3.8125,0.0625 -7.2812,1.1875 q-3.4688,1.125 -6.1875,3.4375 q-2.7188,2.3125 -4.3125,5.9688 q-1.5938,3.6562 -1.6562,8.7812 q0,2.625 -0.0625,5.7812 q-0.0625,3.1562 -0.1562,6.4062 q-0.0938,3.25 -0.25,6.1562 q-0.1562,2.9062 -0.3438,4.9062 q-0.1875,1.4375 -0.3125,2.3125 q-0.125,0.875 0.3125,1.1875 q0.6875,0.4375 1.6562,1.2812 q0.9688,0.8438 1.8438,1.8438 q0.875,1 1.25,1.8125 q0.3125,0.6875 0.7812,0.6875 q0.4688,0 0.6562,-1.25 q0.3125,-2.25 0.375,-5.375 q0.0625,-3.125 0.0625,-6.6875 q0,-3.5625 0,-7.1562 q0,-3.5938 0.1875,-6.7188 q0.1875,-3.4375 1.3125,-6.25 q1.125,-2.8125 3.0938,-4.9062 q1.9688,-2.0938 4.5312,-3.4688 q3.25,-1.6875 7.3125,-2.1875 q4.0625,-0.5 8.625,0.3125 q4.5625,0.8125 9.25,2.875 q0.5625,0.3125 0.8438,0.125 q0.2812,-0.1875 0.0312,-0.75 q-2.3125,-5.125 -7.9688,-7.75 q-5.6562,-2.625 -13.5938,-2.5625 Z" fill="#D3D3D3" transform="matrix(1,0,0,-1,496.5,98)"/>
  <path d="" fill="#D3D3D3" transform="matrix(1,0,0,-1,537.5,98)"/>
  <path d="M4.6875,0.875 q-1.5,0 -2.6562,1.1562 q-1.1562,1.1562 -1.1562,2.6562 q0,1.5625 1.1562,2.6875 q1.1562,1.125 2.6562,1.125 q1.5625,0 2.6875,-1.125 q1.125,-1.125 1.125,-2.6875 q0,-1.5 -1.125,-2.6562 q-1.125,-1.1562 -2.6875,-1.1562 Z" fill="#E22E00" transform="matrix(1,0,0,-1,552.5,94)"/>
  <path d="M13.5625,-0.375 q-7.1875,0 -10.4062,2.625 q-3.2188,2.625 -3.1562,6.5 q0.0625,2.875 1.8125,5.25 q1.75,2.375 4.7188,3.875 q2.9688,1.5 6.5938,1.5625 l-0.0625,0.4375 q0,0.25 0.1875,0.4688 q0.1875,0.2188 0.5,0.4688 q0.1875,0.125 0.4062,0.3125 q0.2188,0.1875 0.4062,0.4375 q0.9375,1.1875 1.4062,1.875 q0.4688,0.6875 0.8438,1.5625 q0.4375,1.125 0.9688,1.0625 q0.5312,-0.0625 1.0312,-0.8125 q0.5,-0.75 0.6875,-1.8125 q0.6875,-3.4375 0.9375,-7.2812 q0.25,-3.8438 0.5,-7.7188 q0.0625,-0.625 0.4688,-0.875 q0.4062,-0.25 0.6562,-0.125 q-0.0625,2.5 -0.25,5.625 q-0.1875,3.125 -0.4375,6.3438 q-0.25,3.2188 -0.5312,6.1562 q-0.2812,2.9375 -0.5312,5.125 q-0.25,2.1875 -0.4375,3.125 q-0.25,1.4375 -0.5938,2.5312 q-0.3438,1.0938 -0.5312,1.7188 q-0.25,0.8125 0.0938,1.0938 q0.3438,0.2812 0.9062,0.4688 q0.25,0.125 0.375,0.1875 q1.25,0.5625 2.0625,1.7812 q0.8125,1.2188 1.125,2.5938 q0.125,0.375 0.5312,0.6875 q0.4062,0.3125 0.875,0.1875 q0.4688,-0.125 0.7188,-1.125 q0.5625,-2 0.9375,-5.3438 q0.375,-3.3438 0.6562,-7.3438 q0.2812,-4 0.5,-8.2188 q0.2188,-4.2188 0.5,-8.0312 q0.2812,-3.8125 0.6562,-6.6875 q0.125,-0.625 0.4375,-0.7188 q0.3125,-0.0938 0.5625,-0.0312 q-0.25,2.5 -0.5,5.8438 q-0.25,3.3438 -0.4688,7 q-0.2188,3.6562 -0.4062,7.25 q-0.1875,3.5938 -0.375,6.6875 q-0.1875,3.0938 -0.3125,5.1562 q-0.0625,1.0625 -0.1562,1.8125 q-0.0938,0.75 -0.2188,1.3125 q-0.25,1.8125 0.125,2.0625 q1.1875,0.875 2.625,2.3438 q1.4375,1.4688 2,2.5312 q0.5,0.875 1.0938,0.6562 q0.5938,-0.2188 0.6562,-1.2812 q0.1875,-3.6875 0.4062,-8.125 q0.2188,-4.4375 0.4688,-9.1875 q0.25,-4.75 0.4375,-9.2812 q0.1875,-4.5312 0.375,-8.4375 q0.1875,-3.9062 0.3125,-6.6562 q0.1875,-3.375 -0.3438,-4.9688 q-0.5312,-1.5938 -2.1875,-2.0938 q-1.6562,-0.5 -4.9688,-0.5625 q-2.8125,0 -4.9062,0 q-2.0938,0 -4.3438,0 q-1.1875,0 -2.5312,0 q-1.3438,0 -2.9062,0 Z M13.5,8.4375 q0.75,0 0.75,0.8125 q0,0.3125 -0.2188,0.5312 q-0.2188,0.2188 -0.5312,0.2188 q-0.8125,0 -0.8125,-0.75 q0,-0.8125 0.8125,-0.8125 Z" fill="#D3D3D3" transform="matrix(1,0,0,-1,562.5,98)"/>
  <path d="M19.4375,-3 q-3.8125,0.0625 -7.2812,1.1875 q-3.4688,1.125 -6.1875,3.4375 q-2.7188,2.3125 -4.3125,5.9688 q-1.5938,3.6562 -1.6562,8.7812 q0,2.625 -0.0625,5.7812 q-0.0625,3.1562 -0.1562,6.4062 q-0.0938,3.25 -0.25,6.1562 q-0.1562,2.9062 -0.3438,4.9062 q-0.1875,1.4375 -0.3125,2.3125 q-0.125,0.875 0.3125,1.1875 q0.6875,0.4375 1.6562,1.2812 q0.9688,0.8438 1.8438,1.8438 q0.875,1 1.25,1.8125 q0.3125,0.6875 0.7812,0.6875 q0.4688,0 0.6562,-1.25 q0.3125,-2.25 0.375,-5.375 q0.0625,-3.125 0.0625,-6.6875 q0,-3.5625 0,-7.1562 q0,-3.5938 0.1875,-6.7188 q0.1875,-3.4375 1.3125,-6.25 q1.125,-2.8125 3.0938,-4.9062 q1.9688,-2.0938 4.5312,-3.4688 q3.25,-1.6875 7.3125,-2.1875 q4.0625,-0.5 8.625,0.3125 q4.5625,0.8125 9.25,2.875 q0.5625,0.3125 0.8438,0.125 q0.2812,-0.1875 0.0312,-0.75 q-2.3125,-5.125 -7.9688,-7.75 q-5.6562,-2.625 -13.5938,-2.5625 Z" fill="#D3D3D3" transform="matrix(1,0,0,-1,3.5,41)"/>
  <path d="M7.1562,0.0125 q-1.95,0 -3.4531,1.5031 q-1.5031,1.5031 -1.5031,3.4531 q0,2.0312 1.5031,3.4937 q1.5031,1.4625 3.4531,1.4625 q2.0312,0 3.4937,-1.4625 q1.4625,-1.4625 1.4625,-3.4937 q0,-1.95 -1.4625,-3.4531 q-1.4625,-1.5031 -3.4937,-1.5031 Z M17.7812,0.0125 q-1.95,0 -3.4531,1.5031 q-1.5031,1.5031 -1.5031,3.4531 q0,2.0312 1.5031,3.4937 q1.5031,1.4625 3.4531,1.4625 q2.0312,0 3.4937,-1.4625 q1.4625,-1.4625 1.4625,-3.4937 q0,-1.95 -1.4625,-3.4531 q-1.4625,-1.5031 -3.4937,-1.5031 Z M12.4687,9.3875 q-1.95,0 -3.4531,1.5031 q-1.5031,1.5031 -1.5031,3.4531 q0,2.0312 1.5031,3.4937 q1.5031,1.4625 3.4531,1.4625 q2.0312,0 3.4937,-1.4625 q1.4625,-1.4625 1.4625,-3.4937 q0,-1.95 -1.4625,-3.4531 q-1.4625,-1.5031 -3.4937,-1.5031 Z" fill="#FFE2A1" transform="matrix(1,0,0,-1,44.5,41)"/>
  <path d="M7.1561,0.775 q-1.65,0 -2.9218,1.2718 q-1.2718,1.2718 -1.2718,2.9218 q0,1.7187 1.2718,2.9562 q1.2718,1.2375 2.9218,1.2375 q1.7187,0 2.9562,-1.2375 q1.2375,-1.2375 1.2375,-2.9562 q0,-1.65 -1.2375,-2.9218 q-1.2375,-1.2718 -2.9562,-1.2718 Z M12.4686,10.15 q-1.65,0 -2.9218,1.2718 q-1.2718,1.2718 -1.2718,2.9218 q0,1.7187 1.2718,2.9562 q1.2718,1.2375 2.9218,1.2375 q1.7187,0 2.9562,-1.2375 q1.2375,-1.2375 1.2375,-2.9562 q0,-1.65 -1.2375,-2.9218 q-1.2375,-1.2718 -2.9562,-1.2718 Z M17.7811,0.775 q-1.65,0 -2.9218,1.2718 q-1.2718,1.2718 -1.2718,2.9218 q0,1.7187 1.2718,2.9562 q1.2718,1.2375 2.9218,1.2375 q1.7187,0 2.9562,-1.2375 q1.2375,-1.2375 1.2375,-2.9562 q0,-1.65 -1.2375,-2.9218 q-1.2375,-1.2718 -2.9562,-1.2718 Z" fill="#A67300" transform="matrix(1,0,0,-1,44.5,41)"/>
  <path d="M6.7812,10.2 q-0.45,0 -0.7968,0.3469 q-0.3469,0.3469 -0.3469,0.7968 q0,0.4687 0.3469,0.8062 q0.3469,0.3375 0.7968,0.3375 q0.4687,0 0.8062,-0.3375 q0.3375,-0.3375 0.3375,-0.8062 q0,-0.45 -0.3375,-0.7968 q-0.3375,-0.3469 -0.8062,-0.3469 Z M12.4687,7.0125 q-0.45,0 -0.7968,0.3469 q-0.3469,0.3469 -0.3469,0.7968 q0,0.4687 0.3469,0.8062 q0.3469,0.3375 0.7968,0.3375 q0.4687,0 0.8062,-0.3375 q0.3375,-0.3375 0.3375,-0.8062 q0,-0.45 -0.3375,-0.7968 q-0.3375,-0.3469 -0.8062,-0.3469 Z M18.0312,10.2 q-0.45,0 -0.7968,0.3469 q-0.3469,0.3469 -0.3469,0.7968 q0,0.4687 0.3469,0.8062 q0.3469,0.3375 0.7968,0.3375 q0.4687,0 0.8062,-0.3375 q0.3375,-0.3375 0.3375,-0.8062 q0,-0.45 -0.3375,-0.7968 q-0.3375,-0.3469 -0.8062,-0.3469 Z M12.4687,0.45 q-0.45,0 -0.7968,0.3469 q-0.3469,0.3469 -0.3469,0.7968 q0,0.4687 0.3469,0.8062 q0.3469,0.3375 0.7968,0.3375 q0.4687,0 0.8062,-0.3375 q0.3375,-0.3375 0.3375,-0.8062 q0,-0.45 -0.3375,-0.7968 q-0.3375,-0.3469 -0.8062,-0.3469 Z" fill="#E22E00" transform="matrix(1,0,0,-1,44.5,41)"/>
  <path d="M10.6875,-0.2938 q-3.8125,0.0625 -6.4375,0.4062 q-2.625,0.3438 -3.625,1.1562 q-0.6875,0.5 -0.625,1 q0.0625,0.5 0.8125,0.5 q0.375,0 0.7188,0.2188 q0.3438,0.2188 0.5938,0.4688 q0.5625,0.5625 1.4062,1.6562 q0.8438,1.0938 1.5312,2.2188 q0.6875,1.0625 2.1875,0.1875 q0.6875,-0.375 2.125,-0.5625 q1.4375,-0.1875 3.0625,-0.3125 q0.4375,0 2.2093,-0.0312 q1.7718,-0.0312 4.6592,-0.0625 q2.8874,-0.0312 6.7529,-0.0625 q3.8655,-0.0312 8.5091,-0.0625 q4.6436,-0.0312 9.8965,-0.0625 q5.2529,-0.0312 10.9371,-0.0312 q5.6842,0 11.5996,-0.0312 q5.9154,-0.0312 11.8621,-0.0312 q5.9467,0 11.8184,0 q5.8717,0 11.4059,0.0312 q5.5342,0.0312 10.6153,0.0625 q5.0811,0.0312 9.4997,0.0625 q4.4186,0.0312 8.0029,0.0938 q3.5843,0.0625 6.1374,0.1562 q2.5531,0.0938 3.8656,0.1562 q1.375,0.125 1.625,0.3438 q0.25,0.2188 0.125,0.5938 q-0.0625,0.125 -0.2188,0.25 q-0.1562,0.125 -0.6562,0.0625 q-0.75,-0.0625 -2.8656,-0.125 q-2.1156,-0.0625 -5.4092,-0.125 q-3.2937,-0.0625 -7.5341,-0.125 q-4.2405,-0.0625 -9.2591,-0.0938 q-5.0186,-0.0312 -10.6153,-0.0625 q-5.5967,-0.0312 -11.5621,-0.0625 q-5.9654,-0.0312 -12.1621,-0.0312 q-6.1967,0 -12.3621,0 q-6.1654,0 -12.1309,0.0312 q-5.9654,0.0312 -11.5621,0.0312 q-5.5967,0 -10.6059,0.0625 q-5.0092,0.0625 -9.2278,0.125 q-4.2186,0.0625 -7.481,0.125 q-3.2624,0.0625 -5.378,0.1562 q-2.1156,0.0938 -2.8656,0.2188 q-1.5625,0.1875 -2.1562,0.6875 q-0.5938,0.5 0.0312,1.375 q2.125,2.8125 4.1875,5.6562 q2.0625,2.8438 3.8125,5.7812 q0.3125,0.5 0.7188,0.3125 q0.4062,-0.1875 0.1562,-0.75 q-0.25,-0.5625 -0.7812,-1.75 q-0.5312,-1.1875 -1.0312,-2.3438 q-0.5,-1.1562 -0.75,-1.7812 q0.875,-0.0625 3.0531,-0.1562 q2.1781,-0.0938 5.4405,-0.1562 q3.2624,-0.0625 7.4717,-0.0938 q4.2092,-0.0312 9.1341,-0.0625 q4.9248,-0.0312 10.4278,-0.0312 q5.5029,0 11.3746,0 q5.8717,0 11.9434,0 q6.0717,0 12.1746,0 q6.1029,0 12.0371,0.0312 q5.9342,0.0312 11.4996,0.0625 q5.5655,0.0312 10.6153,0.0625 q5.0498,0.0312 9.406,0.0625 q4.3561,0.0312 7.8154,0.0625 q3.4593,0.0312 5.8249,0.0938 q2.3656,0.0625 3.4906,0.0625 q1.125,0.0625 1.5312,-0.4688 q0.4062,-0.5312 0.9688,-1.8438 q0.75,-1.6875 1.6562,-4.0625 q0.9062,-2.375 0.9688,-5.4375 q0.0625,-1.25 -1.0312,-2.125 q-1.0938,-0.875 -2.2188,-1 q-1.375,-0.125 -3.9906,-0.2188 q-2.6156,-0.0938 -6.2217,-0.1562 q-3.6062,-0.0625 -8.0654,-0.125 q-4.4593,-0.0625 -9.6028,-0.0938 q-5.1436,-0.0312 -10.7716,-0.0938 q-5.628,-0.0625 -11.6246,-0.0625 q-5.9967,0 -12.1309,-0.0312 q-6.1342,-0.0312 -12.2996,-0.0312 q-6.1654,0 -12.1621,0 q-5.9967,0 -11.6246,0 q-5.628,0 -10.7715,0 q-5.1436,0 -9.6028,0.0312 q-4.4592,0.0312 -8.0654,0.0312 q-3.6062,0 -6.2217,0.0312 q-2.6156,0.0312 -3.9906,0.0312 Z M126.0836,-0.2875 l21.25,7.1625 h3.3125 v-6.875 q-5.5625,-0.15 -11.8438,-0.2188 q-6.2812,-0.0688 -12.7187,-0.0688 Z" fill="#D3D3D3" transform="matrix(1,0,0,-1,69.5,41)"/>
  <path d="M-4.0625,0.625 v14.625 q0.6875,-0.0625 1.0312,-0.5312 q0.3438,-0.4688 1.0312,-1.4688 q1.3125,-2 2.9688,-3.6562 q1.6562,-1.6562 3.4688,-3.0938 v-5.875 h-8.5 Z" fill="#D3D3D3" transform="matrix(1,0,0,-1,220.5,41)"/>
  <path d="M-1.25,0 v6.875 h6.75 q-2.1875,1.625 -4.375,3.9375 q-0.5,0.5 -0.5312,0.8438 q-0.0312,0.3438 0.5312,0.7188 q0.9375,0.625 2.1875,1.9688 q1.25,1.3438 2.3125,2.9688 q0.1875,0.3125 0.625,0.375 q0.4375,0.0625 0.8125,-0.375 q3.375,-3.875 7.4375,-6.0312 q4.0625,-2.1562 8.6875,-3.125 q4.625,-0.9688 9.6875,-1.1875 q5.0625,-0.2188 10.375,-0.2188 q0.5,0 0.6562,-0.2812 q0.1562,-0.2812 -0.1562,-0.7188 q-1,-1.5 -2.0312,-2.5625 q-1.0312,-1.0625 -2.0938,-1.9375 q-0.5625,-0.5 -1.6875,-0.6875 q-1.125,-0.1875 -1.9375,-0.1875 q-3,0 -7.375,-0.0625 q-4.375,-0.0625 -9.1875,-0.125 q-3.875,-0.0625 -7.6875,-0.0938 q-3.8125,-0.0312 -7.1875,-0.0625 q-3.375,-0.0312 -5.8125,-0.0312 Z" fill="#D3D3D3" transform="matrix(1,0,0,-1,220.5,41)"/>
  <path d="" fill="#D3D3D3" transform="matrix(1,0,0,-1,264.5,41)"/>
  <path d="M4.6875,0.875 q-1.5,0 -2.6562,1.1562 q-1.1562,1.1562 -1.1562,2.6562 q0,1.5625 1.1562,2.6875 q1.1562,1.125 2.6562,1.125 q1.5625,0 2.6875,-1.125 q1.125,-1.125 1.125,-2.6875 q0,-1.5 -1.125,-2.6562 q-1.125,-1.1562 -2.6875,-1.1562 Z" fill="#E22E00" transform="matrix(1,0,0,-1,294.5,7)"/>
  <path d="M19.4375,-3 q-3.8125,0.0625 -7.2812,1.1875 q-3.4688,1.125 -6.1875,3.4375 q-2.7188,2.3125 -4.3125,5.9688 q-1.5938,3.6562 -1.6562,8.7812 q0,2.625 -0.0625,5.7812 q-0.0625,3.1562 -0.1562,6.4062 q-0.0938,3.25 -0.25,6.1562 q-0.1562,2.9062 -0.3438,4.9062 q-0.1875,1.4375 -0.3125,2.3125 q-0.125,0.875 0.3125,1.1875 q0.6875,0.4375 1.6562,1.2812 q0.9688,0.8438 1.8438,1.8438 q0.875,1 1.25,1.8125 q0.3125,0.6875 0.7812,0.6875 q0.4688,0 0.6562,-1.25 q0.3125,-2.25 0.375,-5.375 q0.0625,-3.125 0.0625,-6.6875 q0,-3.5625 0,-7.1562 q0,-3.5938 0.1875,-6.7188 q0.1875,-3.4375 1.3125,-6.25 q1.125,-2.8125 3.0938,-4.9062 q1.9688,-2.0938 4.5312,-3.4688 q3.25,-1.6875 7.3125,-2.1875 q4.0625,-0.5 8.625,0.3125 q4.5625,0.8125 9.25,2.875 q0.5625,0.3125 0.8438,0.125 q0.2812,-0.1875 0.0312,-0.75 q-2.3125,-5.125 -7.9688,-7.75 q-5.6562,-2.625 -13.5938,-2.5625 Z" fill="#D3D3D3" transform="matrix(1,0,0,-1,289.5,41)"/>
  <path d="" fill="#D3D3D3" transform="matrix(1,0,0,-1,330.5,41)"/>
  <path d="M4.6875,0.875 q-1.5,0 -2.6562,1.1562 q-1.1562,1.1562 -1.1562,2.6562 q0,1.5625 1.1562,2.6875 q1.1562,1.125 2.6562,1.125 q1.5625,0 2.6875,-1.125 q1.125,-1.125 1.125,-2.6875 q0,-1.5 -1.125,-2.6562 q-1.125,-1.1562 -2.6875,-1.1562 Z" fill="#E22E00" transform="matrix(1,0,0,-1,345.5,37)"/>
  <path d="M13.5625,-0.375 q-7.1875,0 -10.4062,2.625 q-3.2188,2.625 -3.1562,6.5 q0.0625,2.875 1.8125,5.25 q1.75,2.375 4.7188,3.875 q2.9688,1.5 6.5938,1.5625 l-0.0625,0.4375 q0,0.25 0.1875,0.4688 q0.1875,0.2188 0.5,0.4688 q0.1875,0.125 0.4062,0.3125 q0.2188,0.1875 0.4062,0.4375 q0.9375,1.1875 1.4062,1.875 q0.4688,0.6875 0.8438,1.5625 q0.4375,1.125 0.9688,1.0625 q0.5312,-0.0625 1.0312,-0.8125 q0.5,-0.75 0.6875,-1.8125 q0.6875,-3.4375 0.9375,-7.2812 q0.25,-3.8438 0.5,-7.7188 q0.0625,-0.625 0.4688,-0.875 q0.4062,-0.25 0.6562,-0.125 q-0.0625,2.5 -0.25,5.625 q-0.1875,3.125 -0.4375,6.3438 q-0.25,3.2188 -0.5312,6.1562 q-0.2812,2.9375 -0.5312,5.125 q-0.25,2.1875 -0.4375,3.125 q-0.25,1.4375 -0.5938,2.5312 q-0.3438,1.0938 -0.5312,1.7188 q-0.25,0.8125 0.0938,1.0938 q0.3438,0.2812 0.9062,0.4688 q0.25,0.125 0.375,0.1875 q1.25,0.5625 2.0625,1.7812 q0.8125,1.2188 1.125,2.5938 q0.125,0.375 0.5312,0.6875 q0.4062,0.3125 0.875,0.1875 q0.4688,-0.125 0.7188,-1.125 q0.5625,-2 0.9375,-5.3438 q0.375,-3.3438 0.6562,-7.3438 q0.2812,-4 0.5,-8.2188 q0.2188,-4.2188 0.5,-8.0312 q0.2812,-3.8125 0.6562,-6.6875 q0.125,-0.625 0.4375,-0.7188 q0.3125,-0.0938 0.5625,-0.0312 q-0.25,2.5 -0.5,5.8438 q-0.25,3.3438 -0.4688,7 q-0.2188,3.6562 -0.4062,7.25 q-0.1875,3.5938 -0.375,6.6875 q-0.1875,3.0938 -0.3125,5.1562 q-0.0625,1.0625 -0.1562,1.8125 q-0.0938,0.75 -0.2188,1.3125 q-0.25,1.8125 0.125,2.0625 q1.1875,0.875 2.625,2.3438 q1.4375,1.4688 2,2.5312 q0.5,0.875 1.0938,0.6562 q0.5938,-0.2188 0.6562,-1.2812 q0.1875,-3.6875 0.4062,-8.125 q0.2188,-4.4375 0.4688,-9.1875 q0.25,-4.75 0.4375,-9.2812 q0.1875,-4.5312 0.375,-8.4375 q0.1875,-3.9062 0.3125,-6.6562 q0.1875,-3.375 -0.3438,-4.9688 q-0.5312,-1.5938 -2.1875,-2.0938 q-1.6562,-0.5 -4.9688,-0.5625 q-2.8125,0 -4.9062,0 q-2.0938,0 -4.3438,0 q-1.1875,0 -2.5312,0 q-1.3438,0 -2.9062,0 Z M13.5,8.4375 q0.75,0 0.75,0.8125 q0,0.3125 -0.2188,0.5312 q-0.2188,0.2188 -0.5312,0.2188 q-0.8125,0 -0.8125,-0.75 q0,-0.8125 0.8125,-0.8125 Z" fill="#D3D3D3" transform="matrix(1,0,0,-1,355.5,41)"/>
  <path d="" fill="#D3D3D3" transform="matrix(1,0,0,-1,391.5,41)"/>
  <path d="M19.4375,-3 q-3.8125,0.0625 -7.2812,1.1875 q-3.4688,1.125 -6.1875,3.4375 q-2.7188,2.3125 -4.3125,5.9688 q-1.5938,3.6562 -1.6562,8.7812 q0,2.625 -0.0625,5.7812 q-0.0625,3.1562 -0.1562,6.4062 q-0.0938,3.25 -0.25,6.1562 q-0.1562,2.9062 -0.3438,4.9062 q-0.1875,1.4375 -0.3125,2.3125 q-0.125,0.875 0.3125,1.1875 q0.6875,0.4375 1.6562,1.2812 q0.9688,0.8438 1.8438,1.8438 q0.875,1 1.25,1.8125 q0.3125,0.6875 0.7812,0.6875 q0.4688,0 0.6562,-1.25 q0.3125,-2.25 0.375,-5.375 q0.0625,-3.125 0.0625,-6.6875 q0,-3.5625 0,-7.1562 q0,-3.5938 0.1875,-6.7188 q0.1875,-3.4375 1.3125,-6.25 q1.125,-2.8125 3.0938,-4.9062 q1.9688,-2.0938 4.5312,-3.4688 q3.25,-1.6875 7.3125,-2.1875 q4.0625,-0.5 8.625,0.3125 q4.5625,0.8125 9.25,2.875 q0.5625,0.3125 0.8438,0.125 q0.2812,-0.1875 0.0312,-0.75 q-2.3125,-5.125 -7.9688,-7.75 q-5.6562,-2.625 -13.5938,-2.5625 Z" fill="#D3D3D3" transform="matrix(1,0,0,-1,416.5,41)"/>
  <path d="" fill="#D3D3D3" transform="matrix(1,0,0,-1,457.5,41)"/>
  <path d="M4.6875,0.875 q-1.5,0 -2.6562,1.1562 q-1.1562,1.1562 -1.1562,2.6562 q0,1.5625 1.1562,2.6875 q1.1562,1.125 2.6562,1.125 q1.5625,0 2.6875,-1.125 q1.125,-1.125 1.125,-2.6875 q0,-1.5 -1.125,-2.6562 q-1.125,-1.1562 -2.6875,-1.1562 Z" fill="#E22E00" transform="matrix(1,0,0,-1,495.5,22)"/>
  <path d="M16.25,-8.75 q-3.25,-0.125 -6.375,0.3125 q-3.125,0.4375 -5.5938,1.375 q-2.4688,0.9375 -3.9062,2.375 q-0.625,0.6875 -0.1875,1.0625 q0.4375,0.375 0.9375,0.375 q0.6875,0 1.6875,0.6875 q1,0.6875 1.9375,1.6562 q0.9375,0.9688 1.3125,1.6562 q0.3125,0.5 0.9062,0.3125 q0.5938,-0.1875 1.0938,-0.5 q0.0625,-0.0625 0.125,-0.0625 q1.9375,-1.125 4.1875,-1.5938 q2.25,-0.4688 4.4375,-0.5312 q2.1875,-0.0625 3.9688,0.125 q1.7812,0.1875 2.7812,0.375 q0.75,0.125 0.7188,0.6875 q-0.0312,0.5625 -0.6562,0.4375 q-4.4375,-0.8125 -8.2188,-0.5 q-3.7812,0.3125 -6.0312,2.3438 q-2.25,2.0312 -2.25,6.3438 q0,3.25 1.5,5.9062 q1.5,2.6562 3.9688,4.2812 q2.4688,1.625 5.4688,1.625 q2.625,0 4.8125,-1.4062 q2.1875,-1.4062 3.8438,-3.6562 q1.6562,-2.25 2.7812,-4.8438 q1.125,-2.5938 1.7188,-5.0312 q0.5938,-2.4375 0.5938,-4.125 q0,-1.375 -0.2188,-2.5312 q-0.2188,-1.1562 -0.9062,-2.0938 q-1.1875,-1.75 -3.6875,-2.8438 q-2.5,-1.0938 -5.375,-1.5938 q-2.875,-0.5 -5.375,-0.625 Z M17.3125,10 q0.75,0 0.75,0.8125 q0,0.3125 -0.2188,0.5312 q-0.2188,0.2188 -0.5312,0.2188 q-0.8125,0 -0.8125,-0.75 q0,-0.8125 0.8125,-0.8125 Z" fill="#D3D3D3" transform="matrix(1,0,0,-1,482.5,41)"/>
  <path d="M13.375,-0.3125 q-3.6875,-0.0625 -6.9688,0.9375 q-3.2812,1 -5.3438,3.6875 q-1.75,2.3125 -2.125,4.5 q-0.375,2.1875 0.2188,4.2188 q0.5938,2.0312 1.6562,3.7188 q1.4375,2.1875 4.1875,4 q2.75,1.8125 5.5625,2.9375 q-0.1875,0.5625 -0.375,0.875 q-0.1875,0.5625 0.5625,0.9375 q1.125,0.5625 2.375,1.6875 q1.25,1.125 1.6875,2.5 q0.25,0.6875 0.8438,0.6562 q0.5938,-0.0312 0.7812,-0.5938 q0.125,-0.375 0.5625,-2.2812 q0.4375,-1.9062 0.9688,-4.6562 q0.5312,-2.75 1.0625,-5.875 q0.5312,-3.125 0.9375,-6.0312 q0.4062,-2.9062 0.4688,-5.0312 q0.125,-2.75 -1.625,-4.4375 q-1.75,-1.6875 -5.4375,-1.75 Z M11.0625,15.0625 q0.75,0 0.75,0.8125 q0,0.3125 -0.2188,0.5312 q-0.2188,0.2188 -0.5312,0.2188 q-0.8125,0 -0.8125,-0.75 q0,-0.8125 0.8125,-0.8125 Z M12.375,8.3125 q0.75,0 0.75,0.8125 q0,0.3125 -0.2188,0.5312 q-0.2188,0.2188 -0.5312,0.2188 q-0.8125,0 -0.8125,-0.75 q0,-0.8125 0.8125,-0.8125 Z" fill="#D3D3D3" transform="matrix(1,0,0,-1,513.5,41)"/>
  <path d="" fill="#D3D3D3" transform="matrix(1,0,0,-1,533.5,41)"/>
  <path d="M9.9375,-15.1875 q-2.125,-1.25 -4.8438,-1.6562 q-2.7188,-0.4062 -5.5938,0.0625 q-2.875,0.4688 -5.5,1.7812 q-0.625,0.3125 -0.4688,0.8438 q0.1562,0.5312 0.7812,0.9688 q1.375,0.875 2.4375,2.1875 q1.0625,1.3125 2.1875,2.6875 q0.25,0.3125 0.6562,0.2812 q0.4062,-0.0312 0.7812,-0.1562 q0.0625,0 0.0625,0 q1.25,-0.4375 2.6875,-0.5938 q1.4375,-0.1562 3,0.0938 q-0.25,4.6875 -0.5312,10.3125 q-0.2812,5.625 -0.625,11.4688 q-0.3438,5.8438 -0.6875,11.3125 q-0.3438,5.4688 -0.6562,9.9688 q-0.3125,4.5 -0.5625,7.4375 q0,0.125 -0.0625,0.4375 q-0.125,0.375 -0.125,0.8125 q0,0.4375 0.6875,0.8125 q0.5625,0.3125 1.3125,1.1875 q0.75,0.875 1.4062,1.9062 q0.6562,1.0312 1.0312,1.7188 q0.5,0.875 1.0312,0.6562 q0.5312,-0.2188 0.5938,-1.2812 q0.3125,-4.5625 0.625,-10.25 q0.3125,-5.6875 0.5938,-11.625 q0.2812,-5.9375 0.5312,-11.4688 q0.25,-5.5312 0.375,-9.8438 q0.0625,-3.125 0.3125,-7.7188 q0.25,-4.5938 0.25,-9.5312 q0,-1.125 -0.4688,-1.75 q-0.4688,-0.625 -1.2188,-1.0625 Z M7.375,0 v6.875 h4.4998 v-6.875 h-4.4998 Z" fill="#D3D3D3" transform="matrix(1,0,0,-1,558.5,41)"/>
  <path d="M4.6875,0.875 q-1.5,0 -2.6562,1.1562 q-1.1562,1.1562 -1.1562,2.6562 q0,1.5625 1.1562,2.6875 q1.1562,1.125 2.6562,1.125 q1.5625,0 2.6875,-1.125 q1.125,-1.125 1.125,-2.6875 q0,-1.5 -1.125,-2.6562 q-1.125,-1.1562 -2.6875,-1.1562 Z" fill="#E22E00" transform="matrix(1,0,0,-1,566.5,35)"/>
  <path d="M1,2 q-0.625,0 -0.625,0.625 q0,0.3125 0.25,0.5 q1.375,1.0625 2.5625,2.3438 q1.1875,1.2812 2.3125,2.6562 q0.1875,0.25 0.5,0.25 q0.625,0 0.625,-0.625 q0,-0.25 -0.125,-0.375 q-2.3125,-3 -5.125,-5.25 q-0.125,-0.125 -0.375,-0.125 Z M2.875,0.3125 q-0.625,0 -0.625,0.625 q0,0.3125 0.25,0.5 q1.375,1.0625 2.5625,2.3438 q1.1875,1.2812 2.3125,2.6562 q0.1875,0.25 0.5,0.25 q0.625,0 0.625,-0.625 q0,-0.25 -0.125,-0.375 q-2.3125,-3 -5.125,-5.25 q-0.125,-0.125 -0.375,-0.125 Z" fill="#D3D3D3" transform="matrix(1,0,0,-1,567.5,17)"/>
  <path d="M-1.4375,0 v16.5 h1 q0.125,-4.6875 3.0625,-7.1875 q2.9375,-2.5 8.25,-2.4375 l-7.9375,-6.875 h-4.375 Z" fill="#D3D3D3" transform="matrix(1,0,0,-1,569.5,41)"/>
  <path d="M-1.25,0 v6.875 q2.0625,0 4.4375,0 q2.375,0 4.5312,0.0625 q2.1562,0.0625 3.6875,0.2188 q1.5312,0.1562 1.9688,0.4062 q0.5,0.3125 0.4688,0.7188 q-0.0312,0.4062 -0.5312,0.2812 q-1.5,-0.25 -3.8125,-0.4688 q-2.3125,-0.2188 -4.7188,0.0938 q-2.4062,0.3125 -4.1562,1.5 q-1.5625,1.0625 -2.5625,2.7812 q-1,1.7188 -1,3.7812 q0,2.125 0.8438,4.3438 q0.8438,2.2188 2.375,4.0938 q1.5312,1.875 3.625,3.0312 q2.0938,1.1562 4.5938,1.1562 q2.6875,0 4.9688,-1.8438 q2.2812,-1.8438 3.9375,-4.9688 q1.6562,-3.125 2.5625,-6.9688 q0.9062,-3.8438 0.9062,-7.9062 q0,-2.1875 -1.375,-3.5938 q-1.375,-1.4062 -3.6875,-2.1562 q-2.3125,-0.75 -5.2188,-1.0625 q-2.9062,-0.3125 -5.9688,-0.375 q-3.0625,-0.0625 -5.875,0 Z M8.3125,17.9375 q0.75,0 0.75,0.8125 q0,0.3125 -0.2188,0.5312 q-0.2188,0.2188 -0.5312,0.2188 q-0.8125,0 -0.8125,-0.75 q0,-0.8125 0.8125,-0.8125 Z" fill="#D3D3D3" transform="matrix(1,0,0,-1,573.5,41)"/>
</svg>
