<svg xmlns="http://www.w3.org/2000/svg" width="627" height="291" preserveAspectRatio="xMinYMin slice" viewBox="-25 -11 627 291"><path d="M-25 280V-11h627v291Z"/><path fill="#ffe2a1" d="M-15.344 268.988q-1.95 0-3.453-1.504-1.503-1.503-1.503-3.453 0-2.03 1.503-3.493t3.453-1.463q2.031 0 3.494 1.463 1.462 1.462 1.462 3.493 0 1.95-1.462 3.453-1.463 1.504-3.494 1.504m10.625 0q-1.95 0-3.453-1.504-1.503-1.503-1.503-3.453 0-2.03 1.503-3.493t3.453-1.463q2.031 0 3.494 1.463Q.237 262 .237 264.03q0 1.95-1.462 3.453-1.463 1.504-3.494 1.504m-5.312-9.375q-1.95 0-3.453-1.504-1.504-1.503-1.504-3.453 0-2.03 1.504-3.493 1.503-1.463 3.453-1.463 2.03 0 3.493 1.463 1.463 1.462 1.463 3.493 0 1.95-1.463 3.453-1.462 1.504-3.493 1.504"/><path fill="#a67300" d="M-15.344 268.225q-1.65 0-2.922-1.272t-1.272-2.922q0-1.718 1.272-2.956t2.922-1.237q1.719 0 2.956 1.237 1.238 1.238 1.238 2.956 0 1.65-1.238 2.922t-2.956 1.272m5.313-9.375q-1.65 0-2.922-1.272t-1.272-2.922q0-1.718 1.272-2.956t2.922-1.237q1.718 0 2.956 1.237t1.237 2.956q0 1.65-1.237 2.922t-2.956 1.272m5.312 9.375q-1.65 0-2.922-1.272t-1.272-2.922q0-1.718 1.272-2.956t2.922-1.237q1.719 0 2.956 1.237 1.238 1.238 1.238 2.956 0 1.65-1.238 2.922t-2.956 1.272"/><path fill="#e22e00" d="M-15.719 258.8q-.45 0-.797-.347t-.347-.797q0-.468.347-.806.347-.337.797-.337.469 0 .806.337.338.338.338.806 0 .45-.338.797-.337.347-.806.347m5.688 3.188q-.45 0-.797-.347t-.347-.797q0-.469.347-.806t.797-.338q.468 0 .806.338.337.337.337.806 0 .45-.337.797-.338.346-.806.346m5.562-3.188q-.45 0-.797-.347t-.347-.797q0-.468.347-.806.347-.337.797-.337.469 0 .806.337.338.338.338.806 0 .45-.338.797-.337.347-.806.347m-5.562 9.75q-.45 0-.797-.347t-.347-.797q0-.468.347-.806.347-.337.797-.337.468 0 .806.337.337.338.337.806 0 .45-.337.797-.338.347-.806.347"/><path fill="#d3d3d3" d="M13.188 269.29q-3.813-.063-6.438-.407t-3.625-1.156q-.687-.5-.625-1t.813-.5q.374 0 .718-.219.344-.218.594-.468.563-.563 1.406-1.657.844-1.093 1.532-2.218.687-1.063 2.187-.188.688.375 2.125.563t3.063.312q.437 0 2.478.031 2.04.032 5.424.063t7.935.062q4.552.032 10.033.063 5.482.031 11.687.062 6.206.032 12.918.032t13.693.03q6.98.032 13.992.032h13.912q6.9 0 13.386-.031 6.487-.031 12.406-.063 5.92-.031 11.022-.062t9.185-.094q4.082-.063 6.904-.156 2.822-.094 4.135-.156 1.375-.125 1.625-.344.25-.22.125-.594-.063-.125-.219-.25t-.656-.063q-.75.063-3.135.125-2.384.063-6.174.125-3.79.063-8.716.125-4.926.063-10.783.094t-12.406.063l-13.543.062q-6.993.031-14.255.031H81.418q-7.23 0-14.224-.03-6.993-.032-13.542-.032-6.55 0-12.395-.062-5.845-.063-10.752-.125-4.906-.063-8.665-.125-3.758-.063-6.143-.157-2.384-.093-3.134-.218-1.563-.188-2.157-.688-.593-.5.032-1.375 2.125-2.812 4.187-5.656t3.813-5.781q.312-.5.718-.313.407.188.157.75t-.782 1.75-1.03 2.344-.75 1.781q.874.063 3.321.156 2.447.094 6.206.157 3.758.062 8.654.093 4.895.032 10.658.063 5.762.031 12.218.031h41.697q7.168 0 14.13-.031t13.48-.063q6.518-.03 12.406-.062 5.888-.031 10.928-.063 5.04-.03 8.998-.062 3.957-.031 6.592-.094 2.634-.062 3.759-.062 1.125-.063 1.531.468.406.532.969 1.844.75 1.688 1.656 4.063t.969 5.437q.063 1.25-1.031 2.125t-2.219 1q-1.375.125-4.26.219t-6.986.156-9.248.125-11.127.094-12.562.094-13.605.062-14.224.031-14.43.032H44.808q-5.981 0-11.126-.032-5.146-.03-9.248-.03t-6.987-.032q-2.884-.031-4.26-.031Zm136.735-.036 21.25-7.129h3.312V269q-5.562.142-11.843.198-6.282.056-12.72.056Z"/><path fill="#d3d3d3" d="M170.438 268.375V253.75q.687.063 1.03.531.345.469 1.032 1.469 1.312 2 2.969 3.656t3.469 3.094v5.875z"/><path fill="#d3d3d3" d="M173.25 269v-6.875H180q-2.187-1.625-4.375-3.937-.5-.5-.531-.844t.531-.72q.938-.624 2.188-1.968t2.312-2.969q.188-.312.625-.375.438-.062.813.375 3.375 3.875 7.437 6.032t8.688 3.125 9.687 1.187 10.375.219q.5 0 .656.281t-.156.719q-1 1.5-2.031 2.562-1.031 1.063-2.094 1.938-.562.5-1.687.687t-1.938.188q-3 0-7.375.062-4.375.063-9.187.125-3.875.063-7.688.094t-7.187.063q-3.375.03-5.813.03Z"/><path fill="#e22e00" d="M251.188 234.125q-1.5 0-2.657-1.156-1.156-1.156-1.156-2.656 0-1.563 1.156-2.688t2.656-1.125q1.563 0 2.688 1.125t1.125 2.688q0 1.5-1.125 2.656t-2.687 1.156"/><path fill="#d3d3d3" d="M260.938 272q-3.813-.062-7.282-1.187t-6.187-3.438-4.313-5.969-1.656-8.781q0-2.625-.062-5.781-.063-3.156-.157-6.406-.093-3.25-.25-6.157-.156-2.906-.343-4.906-.188-1.437-.313-2.312t.313-1.188q.687-.437 1.656-1.281t1.844-1.844 1.25-1.812q.312-.688.78-.688.47 0 .657 1.25.313 2.25.375 5.375.063 3.125.063 6.688v7.156q0 3.594.187 6.719.188 3.437 1.313 6.25 1.125 2.812 3.093 4.906 1.97 2.094 4.531 3.469 3.25 1.687 7.313 2.187t8.625-.312 9.25-2.875q.563-.313.844-.125.281.187.031.75-2.312 5.125-7.969 7.75-5.656 2.625-13.594 2.562Z"/><path fill="#e22e00" d="M317.188 238.125q-1.5 0-2.657-1.156-1.156-1.156-1.156-2.656 0-1.563 1.156-2.688t2.656-1.125q1.563 0 2.688 1.125t1.125 2.688q0 1.5-1.125 2.656t-2.687 1.156m0-8.375q-1.5 0-2.657-1.156-1.156-1.156-1.156-2.656 0-1.563 1.156-2.688t2.656-1.125q1.563 0 2.688 1.125t1.125 2.688q0 1.5-1.125 2.656t-2.687 1.156"/><path fill="#d3d3d3" d="M326.938 272q-3.813-.062-7.282-1.187t-6.187-3.438-4.313-5.969-1.656-8.781q0-2.625-.062-5.781-.063-3.156-.157-6.406-.093-3.25-.25-6.157-.156-2.906-.343-4.906-.188-1.437-.313-2.312t.313-1.188q.687-.437 1.656-1.281t1.844-1.844 1.25-1.812q.312-.688.78-.688.47 0 .657 1.25.313 2.25.375 5.375.063 3.125.063 6.688v7.156q0 3.594.187 6.719.188 3.437 1.313 6.25 1.125 2.812 3.093 4.906 1.97 2.094 4.531 3.469 3.25 1.687 7.313 2.187t8.625-.312 9.25-2.875q.563-.313.844-.125.281.187.031.75-2.312 5.125-7.969 7.75-5.656 2.625-13.594 2.562Zm62.937 5.625q-6.75 0-10.469-1.25t-5.656-3.875q-.5-.687-.125-1.062t.875-.375q.688 0 1.75-.688t2.063-1.625 1.375-1.625q.312-.562.937-.281t1.063.656q1.562 1.375 3.906 2.094t4.75.937q2.406.22 4.28.156 1.876-.062 2.563-.187.75-.125.72-.656-.032-.531-.657-.469-3.375.25-6.25.094t-5.062-1.031-3.407-2.813-1.219-5.187q0-2.063.625-4.188t1.875-3.937 3.22-2.938 4.593-1.125q3.313 0 5.188 1.125t3.625 3.375q1.562 2 2.125 4.125t.937 3.188q.313.812.938 1.468.625.657 1.687.657V269q0 3.875-2.125 5.719t-5.812 2.375-8.313.531m3-17.812q.75 0 .75-.813 0-.312-.219-.531t-.531-.219q-.812 0-.812.75 0 .813.812.813m11.625-12.625q-.625 0-.625-.625 0-.313.25-.5 1.375-1.063 2.563-2.344 1.187-1.281 2.312-2.656.188-.25.5-.25.625 0 .625.625 0 .25-.125.375-2.312 3-5.125 5.25-.125.125-.375.125"/><path fill="#d3d3d3" d="M401.625 269v-10.875h1.563q.562 1.688 1.718 2.875t2.531 1.125V269z"/><path fill="#d3d3d3" d="M402.25 269v-6.875h5.688q-1.5-1.375-2.5-3.219t-1-4.344q0-3.375 1.718-5.937 1.72-2.563 4.406-4 2.688-1.438 5.563-1.438 2.938 0 5.406 1.72 2.469 1.718 3.969 4.843t1.5 7.5q0 .875-.031 2.125t-.094 2.75h.188V269zm14.25-14.875q.75 0 .75-.812 0-.313-.219-.532t-.531-.219q-.812 0-.812.75 0 .813.812.813"/><path fill="#d3d3d3" d="M426.875 269v-8.812h.688q.312.812 1.75 1.062t5.312.438q1.125.062 3.731.093 2.607.031 6.485.063 3.879.031 8.772.062t10.634.031h38.917q6.962 0 13.913-.03 6.95-.032 13.694-.032t13.065-.031 11.999-.063q5.678-.03 10.509-.062 4.83-.031 8.607-.063 3.776-.03 6.308-.062 2.533-.031 3.533-.031 1.062-.063 1.375-.25.312-.188.125-.438-.063-.187-.344-.219-.281-.03-.469-.03h-3.126q-2.376 0-6.09.03-3.714.032-8.576.032-4.861 0-10.622.03-5.761.032-12.206.032-6.446 0-13.346.031t-14.03.031h-41.695q-6.465 0-12.249-.03-5.784-.032-10.677-.063t-8.677-.063-6.204-.094-3.231-.125q-2.25-.187-3.75-.437t-1.938-.5-.125-.688l8.688-10.937q.437-.5.844-.281t-.032.906l-3.187 4.937q.702.148 3.056.254 2.354.105 6.084.19t8.613.128 10.735.074 12.39.051q6.54.02 13.548.02 7.01 0 14.279-.031l14.573-.063q7.303-.03 14.432-.054 7.128-.023 13.813-.054t12.737-.074 11.223-.074 9.245-.063q4.072-.03 6.818-.042t3.933-.012q.813 0 1.313.938 1.437 2.5 2.344 5.812t.906 5.938q0 1.312-.594 1.968-.594.657-2.219.657z"/><path fill="#e22e00" d="M.188 205.125q-1.5 0-2.657-1.156-1.156-1.156-1.156-2.656 0-1.563 1.156-2.688T.188 197.5q1.562 0 2.687 1.125T4 201.313q0 1.5-1.125 2.656t-2.687 1.156"/><path fill="#d3d3d3" d="M15.813 212Q3.5 211.688 3.5 203.188q0-3.813 3.25-7.188t10-5.25q-.125-1.25.188-1.5.125-.187.5-.312t1-.563q1.187-.875 1.843-1.844.657-.969 1.22-2.344.312-.687.75-.625.437.063.624.813.438 1.5.75 3.781.313 2.281.469 4.844.156 2.562.25 4.969.094 2.406.156 4.219.063 1.062.25 2 .188.937.75.937V212q-2 .125-4.312.094T15.813 212m1.75-9.625q.75 0 .75-.812 0-.313-.22-.532-.218-.219-.53-.219-.813 0-.813.75 0 .813.813.813"/><path fill="#d3d3d3" d="M23 209.188v-9.813h1.188q.062 2.313 1.03 3.25.97.938 1.844 1.25v5.313z"/><path fill="#d3d3d3" d="M23.25 212v-6.875h2.375q-.062-3-.219-7.437-.156-4.438-.406-9.438t-.5-9.812-.5-8.563q0-.125-.062-.375-.063-.375-.032-.875.032-.5.594-1 .563-.437 1.438-1.219.875-.781 1.687-1.656t1.188-1.562q.5-.875 1-.657.5.22.562 1.281.188 3.688.375 8.063.188 4.375.406 9 .22 4.625.407 9.031t.375 8.25.25 6.594q.124 3.375-.563 4.875t-2.187 1.906-3.813.469zm35.25-6.812q-.625 0-.625-.625 0-.313.25-.5 1.375-1.063 2.563-2.344 1.187-1.281 2.312-2.656.188-.25.5-.25.625 0 .625.625 0 .25-.125.375-2.312 3-5.125 5.25-.125.125-.375.125"/><path fill="#d3d3d3" d="M72.125 237.188q-1.562.625-3.781.875t-4.594.062-4.531-.781-3.594-1.594q-.562-.375-.656-.875t.594-.75q1.125-.5 2.406-1.844T60.563 229q.187-.312.437-.25.25.063.438.188 1.312.687 3.062 1.125t5.063.375q.125-3.563.125-6.532t-.063-5.28V218q-.062-3.812-1.344-5.656-1.28-1.844-3.75-2.688-2.469-.843-6.156-1.593-.812-.188-.844-.72-.03-.53.72-.718 2.187-.625 3.843-2.437 1.656-1.813 2.281-4.25.125-.5.438-.75.312-.25.937.062 3.5 1.938 5.5 3.875t2.906 4.344.97 5.906q.062 2.25.062 5.094t-.032 5.594q-.03 2.75-.093 4.875v.75q0 1.312-.282 2.875-.28 1.562-.906 2.843-.625 1.282-1.75 1.782"/><path fill="#d3d3d3" d="M70.875 212v-8.812h.688q.312.812 1.75 1.062t5.312.438q1.125.062 3.869.093t6.875.063 9.376.062 11.413.031h41.914q7.507 0 15.001-.03 7.494-.032 14.763-.032t14.076-.031 12.913-.063q6.107-.03 11.288-.062 5.182-.031 9.213-.063 4.032-.03 6.7-.062 2.67-.031 3.67-.031 1.062-.063 1.375-.25.312-.188.125-.438-.063-.187-.344-.219-.281-.03-.469-.03h-3.262q-2.513 0-6.482.03-3.969.032-9.182.032-5.212 0-11.4.03-6.188.032-13.12.032t-14.357.031-15.1.031h-44.865q-6.95 0-13.163-.03-6.213-.032-11.457-.063t-9.282-.063q-4.038-.031-6.594-.094-2.556-.062-3.369-.125Q76.5 203.25 75 203t-1.937-.5-.125-.688l8.687-10.937q.438-.5.844-.281t-.031.906l-3.188 4.937q.675.15 3.144.257 2.469.106 6.438.194 3.969.087 9.194.13 5.225.045 11.5.076t13.301.05 14.564.019 15.357-.032l15.675-.062q7.857-.031 15.52-.056t14.844-.057 13.67-.075 12.02-.075q5.53-.031 9.862-.062t7.22-.044 4.074-.013q.813 0 1.313.938 1.437 2.5 2.344 5.812t.906 5.938q0 1.312-.594 1.969-.594.656-2.219.656zm153.82 0 21.438-6.875h3.625V212zm29.805 3q-.625 0-.625-.625 0-.312.25-.5 1.375-1.062 2.563-2.344 1.187-1.281 2.312-2.656.188-.25.5-.25.625 0 .625.625 0 .25-.125.375-2.312 3-5.125 5.25-.125.125-.375.125m1.875 1.688q-.625 0-.625-.625 0-.313.25-.5 1.375-1.063 2.563-2.344 1.187-1.281 2.312-2.656.188-.25.5-.25.625 0 .625.625 0 .25-.125.375-2.312 3-5.125 5.25-.125.125-.375.125"/><path fill="#d3d3d3" d="M247.25 212v-6.875h2.438q-.063-2.625-.094-4.25t-.156-3.187q0-.188-.063-.625-.062-1.125 0-1.844.063-.72.625-1.094 2.813-1.875 4.813-4.938.312-.5.593-.406t.281.531q0 4.688.438 9.094t.5 9.094q.063 1.625-1.375 3.063Q253.813 212 252 212zm57.688 2.813q-1.625 0-3.407-.125-1.78-.125-3.28-.563-6.25.25-10.626-.187-4.375-.438-5.75-2.25-.25-.375-.375-.938t.75-.875q1.813-.687 3.031-1.75 1.22-1.062 2.156-2.625.5-.937 1.688-.375 1.938.813 4.25 1.25 0-4.875 1.688-8.125t4.312-4.875 5.438-1.625q2.625 0 5.093 1.625 2.47 1.625 4.281 4.625 1.813 3 2.438 7.125h.313V212l-.875.125q-1 1.438-2.813 2-1.812.563-3.844.656t-3.719.031zm1.25-10.75q.75 0 .75-.813 0-.312-.22-.531-.218-.219-.53-.219-.813 0-.813.75 0 .813.813.813"/><path fill="#e22e00" d="M311.188 177.125q-1.5 0-2.657-1.156-1.156-1.156-1.156-2.656 0-1.563 1.156-2.688t2.656-1.125q1.563 0 2.688 1.125t1.125 2.688q0 1.5-1.125 2.656t-2.687 1.156"/><path fill="#d3d3d3" d="M313.25 212v-6.875h2.375q-.062-3-.219-7.437-.156-4.438-.406-9.438t-.5-9.812-.5-8.563q0-.125-.062-.375-.063-.375-.032-.875t.594-1q.563-.437 1.438-1.219.875-.781 1.687-1.656t1.188-1.562q.5-.875 1-.657.5.22.562 1.281.188 3.688.375 8.063.188 4.375.406 9 .22 4.625.406 9.031.188 4.406.375 8.25.188 3.844.25 6.594.125 3.375-.562 4.875t-2.187 1.906-3.813.469z"/><path fill="#e22e00" d="M365.188 187.125q-1.5 0-2.657-1.156-1.156-1.156-1.156-2.656 0-1.563 1.156-2.688t2.656-1.125q1.563 0 2.688 1.125t1.125 2.688q0 1.5-1.125 2.656t-2.687 1.156"/><path fill="#d3d3d3" d="M363.75 215.563q-3.25.125-6.375-.313-3.125-.437-5.594-1.375t-3.906-2.375q-.625-.687-.187-1.062.437-.375.937-.375.688 0 1.688-.688t1.937-1.656 1.313-1.656q.312-.5.906-.313.594.188 1.094.5.062.063.125.063 1.937 1.125 4.187 1.593 2.25.47 4.438.532t3.968-.125 2.781-.375q.75-.125.72-.688-.032-.562-.657-.437-4.437.812-8.219.5-3.78-.313-6.03-2.344t-2.25-6.344q0-3.25 1.5-5.906t3.968-4.281 5.469-1.625q2.625 0 4.812 1.406t3.844 3.656 2.781 4.844 1.719 5.031.594 4.125q0 1.375-.219 2.531t-.906 2.094q-1.188 1.75-3.688 2.844t-5.375 1.594-5.375.625m1.063-18.75q.75 0 .75-.813 0-.312-.22-.531-.218-.219-.53-.219-.813 0-.813.75 0 .813.813.813"/><path fill="#ffe2a1" d="M386.656 211.988q-1.95 0-3.453-1.504-1.503-1.503-1.503-3.453 0-2.03 1.503-3.493t3.453-1.463q2.031 0 3.494 1.463 1.462 1.462 1.462 3.493 0 1.95-1.462 3.453-1.463 1.504-3.494 1.504m10.625 0q-1.95 0-3.453-1.504-1.503-1.503-1.503-3.453 0-2.03 1.503-3.493t3.453-1.463q2.031 0 3.494 1.463 1.462 1.462 1.462 3.493 0 1.95-1.462 3.453-1.463 1.504-3.494 1.504m-5.312-9.375q-1.95 0-3.453-1.504-1.504-1.503-1.504-3.453 0-2.03 1.504-3.493 1.503-1.463 3.453-1.463 2.03 0 3.493 1.463 1.463 1.462 1.463 3.493 0 1.95-1.463 3.453-1.462 1.504-3.493 1.504"/><path fill="#a67300" d="M386.656 211.225q-1.65 0-2.922-1.272t-1.272-2.922q0-1.718 1.272-2.956t2.922-1.237q1.719 0 2.956 1.237 1.238 1.238 1.238 2.956 0 1.65-1.238 2.922t-2.956 1.272m5.313-9.375q-1.65 0-2.922-1.272t-1.272-2.922q0-1.718 1.272-2.956t2.922-1.237q1.718 0 2.956 1.237t1.237 2.956q0 1.65-1.237 2.922t-2.956 1.272m5.312 9.375q-1.65 0-2.922-1.272t-1.272-2.922q0-1.718 1.272-2.956t2.922-1.237q1.719 0 2.956 1.237 1.238 1.238 1.238 2.956 0 1.65-1.238 2.922t-2.956 1.272"/><path fill="#e22e00" d="M386.281 201.8q-.45 0-.797-.347-.346-.347-.346-.797 0-.468.346-.806.347-.337.797-.337.469 0 .806.337.338.338.338.806 0 .45-.338.797-.337.347-.806.347m5.688 3.188q-.45 0-.797-.347t-.347-.797q0-.469.347-.806t.797-.338q.468 0 .806.338.337.337.337.806 0 .45-.337.797-.338.347-.806.347m5.562-3.188q-.45 0-.797-.347-.346-.347-.346-.797 0-.468.346-.806.347-.337.797-.337.469 0 .806.337.338.338.338.806 0 .45-.338.797-.337.347-.806.347m-5.562 9.75q-.45 0-.797-.347t-.347-.797q0-.468.347-.806.347-.337.797-.337.468 0 .806.337.337.338.337.806 0 .45-.337.797-.338.347-.806.347"/><path fill="#d3d3d3" d="M415.188 212.288q-3.813-.063-6.438-.407t-3.625-1.156q-.687-.5-.625-1t.813-.5q.375 0 .718-.219.344-.219.594-.469.563-.562 1.406-1.656.844-1.094 1.531-2.219.688-1.062 2.188-.187.688.375 2.125.563t3.063.312q.437 0 2.612.031t5.807.063q3.631.03 8.525.062 4.894.031 10.794.063l12.582.062q6.682.031 13.907.031 7.226 0 14.738.032 7.513.03 15.057.03h14.957q7.413 0 14.376-.03l13.3-.063q6.339-.031 11.783-.062 5.444-.032 9.775-.094 4.331-.063 7.288-.156 2.956-.094 4.269-.157 1.375-.125 1.625-.343.25-.22.125-.594-.063-.125-.22-.25-.155-.125-.655-.063-.75.063-3.27.125-2.518.063-6.556.125-4.037.063-9.306.125-5.27.063-11.545.094t-13.3.063l-14.532.062q-7.507.031-15.301.031h-15.557q-7.763 0-15.27-.03-7.506-.032-14.532-.032t-13.288-.063-11.513-.125-9.257-.125-6.525-.156-3.269-.219q-1.562-.187-2.156-.687t.031-1.375q2.125-2.813 4.188-5.656 2.062-2.844 3.812-5.781.313-.5.72-.313.405.188.155.75l-.78 1.75q-.532 1.188-1.032 2.344t-.75 1.781q.875.063 3.456.156 2.581.094 6.588.156 4.006.063 9.244.094t11.42.063q6.181.03 13.113.03h44.796q7.7 0 15.175-.03 7.476-.031 14.47-.063 6.994-.031 13.3-.062t11.689-.063 9.588-.062 6.975-.094 3.894-.063q1.125-.062 1.53.47.407.53.97 1.843.75 1.688 1.656 4.063t.969 5.437q.062 1.25-1.032 2.125-1.093.875-2.218 1-1.375.125-4.394.219t-7.37.156-9.837.125-11.888.094-13.457.094-14.595.062-15.269.031-15.495.031h-43.352q-6.4 0-11.888-.03-5.488-.032-9.838-.032t-7.369-.031-4.394-.031Zm147.395-.05 21.25-7.113h3.312V212q-5.562.138-11.843.188-6.282.05-12.72.05"/><path fill="#d3d3d3" d="M585.25 212v-6.875h2.375q-.062-3-.219-7.437-.156-4.438-.406-9.438t-.5-9.812-.5-8.563q0-.125-.062-.375-.063-.375-.032-.875.032-.5.594-1 .563-.437 1.438-1.219.875-.781 1.687-1.656t1.188-1.562q.5-.875 1-.657.5.22.562 1.281.188 3.688.375 8.063.188 4.375.406 9 .22 4.625.407 9.031t.375 8.25.25 6.594q.125 3.375-.563 4.875t-2.187 1.906-3.813.469zM15.375 163.625q-6.75 0-10.469-1.25T-.75 158.5q-.5-.687-.125-1.062t.875-.375q.688 0 1.75-.688t2.063-1.625 1.374-1.625q.313-.562.938-.281t1.063.656q1.562 1.375 3.906 2.094t4.75.937q2.406.22 4.28.156 1.876-.062 2.563-.187.75-.125.72-.656-.032-.531-.657-.469-3.375.25-6.25.094t-5.062-1.031-3.407-2.813-1.218-5.187q0-2.063.625-4.188t1.875-3.937 3.218-2.938q1.97-1.125 4.594-1.125 3.313 0 5.188 1.125t3.625 3.375q1.562 2 2.125 4.125t.937 3.188q.313.812.938 1.468.625.657 1.687.657V155q0 3.875-2.125 5.719t-5.812 2.375-8.313.531m3-17.812q.75 0 .75-.813 0-.312-.219-.531t-.531-.219q-.812 0-.812.75 0 .813.812.813"/><path fill="#e22e00" d="M28.688 148.125q-1.5 0-2.657-1.156-1.156-1.156-1.156-2.656 0-1.563 1.156-2.688 1.157-1.125 2.657-1.125 1.562 0 2.687 1.125t1.125 2.688q0 1.5-1.125 2.656t-2.687 1.156"/><path fill="#d3d3d3" d="M34 158q-.625 0-.625-.625 0-.312.25-.5 1.375-1.062 2.563-2.344 1.187-1.281 2.312-2.656.188-.25.5-.25.625 0 .625.625 0 .25-.125.375-2.312 3-5.125 5.25Q34.25 158 34 158m1.875 1.688q-.625 0-.625-.625 0-.313.25-.5 1.375-1.063 2.563-2.344 1.187-1.281 2.312-2.656.188-.25.5-.25.625 0 .625.625 0 .25-.125.375-2.312 3-5.125 5.25-.125.125-.375.125M26.75 155v-6.875h2.438q-.063-2.625-.094-4.25-.032-1.625-.157-3.187 0-.188-.062-.625-.062-1.125 0-1.844.063-.72.625-1.094 2.813-1.875 4.813-4.938.312-.5.593-.406.282.094.282.531 0 4.688.437 9.094.438 4.406.5 9.094.063 1.625-1.375 3.063Q33.313 155 31.5 155zm57.688 2.813q-1.626 0-3.407-.125-1.78-.125-3.28-.563-6.25.25-10.626-.187-4.375-.438-5.75-2.25-.25-.375-.375-.938t.75-.875q1.813-.687 3.031-1.75 1.22-1.062 2.156-2.625.5-.937 1.688-.375 1.938.813 4.25 1.25 0-4.875 1.688-8.125t4.312-4.875 5.438-1.625q2.624 0 5.093 1.625Q91.876 138 93.687 141q1.813 3 2.438 7.125h.313V155l-.876.125q-1 1.438-2.812 2t-3.844.656-3.719.031zm1.25-10.75q.75 0 .75-.813 0-.312-.22-.531-.218-.219-.53-.219-.813 0-.813.75 0 .813.813.813"/><path fill="#d3d3d3" d="M93.625 155v-12h.625q.75 1.563 2.031 2.719t2.688 1.781 2.469.625V155z"/><path fill="#d3d3d3" d="M96.75 155v-6.875H98q45.608.358 91.216.358t91.217-.358V155q-45.921.299-91.842.299T96.75 155"/><path fill="#d3d3d3" d="M278.75 155v-6.875h2.375q-.062-3-.219-7.437-.156-4.438-.406-9.438t-.5-9.812-.5-8.563q0-.125-.062-.375-.063-.375-.032-.875t.594-1q.563-.437 1.438-1.219.875-.781 1.687-1.656t1.188-1.562q.5-.876 1-.657.5.22.562 1.281.188 3.688.375 8.063.188 4.375.406 9 .22 4.625.406 9.031.188 4.406.375 8.25.188 3.844.25 6.594.125 3.375-.562 4.875t-2.187 1.906-3.813.469z"/><path fill="#e22e00" d="M330.688 130.125q-1.5 0-2.657-1.156-1.156-1.156-1.156-2.656 0-1.563 1.156-2.688t2.656-1.125q1.563 0 2.688 1.125t1.125 2.688q0 1.5-1.125 2.656t-2.687 1.156"/><path fill="#d3d3d3" d="M329.25 158.563q-3.25.125-6.375-.313-3.125-.437-5.594-1.375t-3.906-2.375q-.625-.687-.187-1.062.437-.375.937-.375.688 0 1.688-.688t1.937-1.656 1.313-1.656q.312-.5.906-.313.594.188 1.094.5.062.063.125.063 1.937 1.125 4.187 1.593 2.25.47 4.438.532t3.968-.125 2.781-.375q.75-.125.72-.688-.032-.562-.657-.437-4.437.812-8.219.5-3.78-.313-6.03-2.344t-2.25-6.344q0-3.25 1.5-5.906t3.968-4.281 5.469-1.625q2.625 0 4.812 1.406t3.844 3.656 2.781 4.844 1.719 5.031.594 4.125q0 1.375-.219 2.531t-.906 2.094q-1.188 1.75-3.688 2.844t-5.375 1.594-5.375.625m1.063-18.75q.75 0 .75-.813 0-.312-.22-.531-.218-.219-.53-.219-.813 0-.813.75 0 .813.813.813m50.375 15.47q-3.813-.063-6.438-.407t-3.625-1.156q-.687-.5-.625-1t.813-.5q.375 0 .718-.219.344-.218.594-.468.563-.563 1.406-1.657.844-1.093 1.531-2.218.688-1.063 2.188-.188.688.375 2.125.563t3.063.312q.437 0 2.926.031 2.488.032 6.698.063t9.903.062 12.57.063q6.878.031 14.67.062 7.792.032 16.215.032t17.178.03 17.54.032h17.397q8.611 0 16.685-.031t15.388-.063 13.555-.062 11.154-.094 8.182-.156 4.582-.156q1.375-.125 1.625-.344.25-.22.125-.594-.063-.125-.219-.25t-.656-.063q-.75.063-3.582.125-2.833.063-7.449.125-4.616.063-10.684.125-6.069.063-13.32.094-7.253.031-15.389.063l-16.84.062q-8.705.031-17.74.031H464.91q-9.005 0-17.71-.03-8.704-.032-16.84-.032t-15.373-.062-13.29-.125q-6.051-.063-10.636-.125-4.585-.063-7.417-.157-2.833-.093-3.583-.218-1.562-.188-2.156-.688t.031-1.375q2.125-2.812 4.188-5.656t3.812-5.781q.313-.5.72-.313.405.188.155.75l-.78 1.75q-.532 1.188-1.032 2.344t-.75 1.781q.875.063 3.77.156 2.895.094 7.48.157 4.584.062 10.621.093 6.038.032 13.196.063t15.2.031h52.028q8.942 0 17.615-.031 8.674-.031 16.778-.063 8.105-.03 15.388-.062 7.284-.031 13.462-.063 6.179-.03 10.966-.062 4.787-.031 7.87-.094 3.082-.062 4.207-.062 1.125-.063 1.531.468.406.532.969 1.844.75 1.688 1.656 4.063t.969 5.437q.062 1.25-1.031 2.125-1.094.875-2.22 1-1.374.125-4.706.219t-8.261.156-11.216.125-13.664.094q-7.378.031-15.545.094-8.167.062-16.903.062t-17.709.031q-8.973.032-17.978.032h-50.187q-7.378 0-13.665-.032-6.287-.03-11.215-.03-4.929 0-8.261-.032-3.333-.031-4.708-.031Zm172.268-.084 21.25-7.074h3.312V155q-5.562.128-11.843.163-6.282.036-12.72.036"/><path fill="#d3d3d3" d="M575.75 155v-6.875h2.375q-.062-3-.219-7.437-.156-4.438-.406-9.438t-.5-9.812-.5-8.563q0-.125-.062-.375-.063-.375-.032-.875.032-.5.594-1 .563-.437 1.438-1.219.875-.781 1.687-1.656t1.188-1.562q.5-.876 1-.657.5.22.562 1.281.188 3.688.375 8.063.188 4.375.406 9 .22 4.625.407 9.031t.375 8.25.25 6.594q.125 3.375-.563 4.875t-2.187 1.906-3.813.469zm2.375 0v-6.875h7.5V155zM591 158q-.625 0-.625-.625 0-.312.25-.5 1.375-1.062 2.563-2.344 1.187-1.281 2.312-2.656.188-.25.5-.25.625 0 .625.625 0 .25-.125.375-2.312 3-5.125 5.25-.125.125-.375.125m1.875 1.688q-.625 0-.625-.625 0-.313.25-.5 1.375-1.063 2.563-2.344 1.187-1.281 2.312-2.656.188-.25.5-.25.625 0 .625.625 0 .25-.125.375-2.312 3-5.125 5.25-.125.125-.375.125"/><path fill="#d3d3d3" d="M583.5 152.188v-9.813h1.188q.062 2.313 1.03 3.25.97.938 1.845 1.25v5.313z"/><path fill="#d3d3d3" d="M583.75 155v-6.875h2.438q-.063-2.625-.094-4.25-.032-1.625-.157-3.187 0-.188-.062-.625-.062-1.125 0-1.844.063-.72.625-1.094 2.813-1.875 4.813-4.938.312-.5.593-.406.282.094.282.531 0 4.688.437 9.094.438 4.406.5 9.094.063 1.625-1.375 3.063Q590.313 155 588.5 155zM22.938 100.813q-1.625 0-3.407-.126-1.78-.124-3.28-.562-6.25.25-10.626-.187-4.375-.438-5.75-2.25-.25-.376-.375-.938t.75-.875q1.813-.687 3.031-1.75 1.22-1.062 2.157-2.625.5-.937 1.687-.375 1.938.813 4.25 1.25 0-4.875 1.688-8.125t4.312-4.875 5.438-1.625q2.625 0 5.093 1.625Q30.376 81 32.188 84t2.437 7.125h.313V98l-.876.125q-1 1.438-2.812 2t-3.844.656-3.719.031zm1.25-10.75q.75 0 .75-.813 0-.312-.22-.531-.218-.219-.53-.219-.813 0-.813.75 0 .813.813.813"/><path fill="#e22e00" d="M29.188 63.125q-1.5 0-2.657-1.156-1.156-1.156-1.156-2.656 0-1.563 1.156-2.688 1.157-1.125 2.657-1.125 1.562 0 2.687 1.125T33 59.313q0 1.5-1.125 2.656t-2.687 1.156"/><path fill="#d3d3d3" d="M31.25 98v-6.875h2.375q-.062-3-.219-7.437Q33.25 79.25 33 74.25t-.5-9.812-.5-8.563q0-.125-.062-.375-.063-.375-.032-.875.032-.5.594-1 .563-.437 1.438-1.219.875-.781 1.687-1.656t1.188-1.562q.5-.876 1-.657.5.22.562 1.282.188 3.687.375 8.062.188 4.375.406 9 .22 4.625.407 9.031t.374 8.25.25 6.594q.126 3.375-.562 4.875-.687 1.5-2.187 1.906T33.625 98z"/><path fill="#ffe2a1" d="M47.656 97.988q-1.95 0-3.453-1.504-1.503-1.503-1.503-3.453 0-2.03 1.503-3.493t3.453-1.463q2.031 0 3.494 1.463Q52.612 91 52.612 93.03q0 1.95-1.462 3.453-1.463 1.503-3.494 1.503m10.625 0q-1.95 0-3.453-1.504-1.503-1.503-1.503-3.453 0-2.03 1.503-3.493t3.453-1.463q2.031 0 3.494 1.463Q63.237 91 63.237 93.03q0 1.95-1.462 3.453-1.463 1.503-3.494 1.503m-5.312-9.376q-1.95 0-3.453-1.503t-1.503-3.453q0-2.03 1.503-3.493t3.453-1.463q2.03 0 3.493 1.463 1.463 1.462 1.463 3.493 0 1.95-1.463 3.453Q55 88.612 52.97 88.612"/><path fill="#a67300" d="M47.656 97.225q-1.65 0-2.922-1.272-1.271-1.272-1.271-2.922 0-1.718 1.271-2.956 1.272-1.237 2.922-1.237 1.719 0 2.956 1.237 1.238 1.238 1.238 2.956 0 1.65-1.238 2.922t-2.956 1.272m5.313-9.375q-1.65 0-2.922-1.272t-1.272-2.922q0-1.718 1.272-2.956t2.922-1.237q1.718 0 2.956 1.237t1.237 2.956q0 1.65-1.237 2.922t-2.956 1.272m5.312 9.375q-1.65 0-2.922-1.272t-1.272-2.922q0-1.718 1.272-2.956t2.922-1.237q1.719 0 2.956 1.237 1.238 1.238 1.238 2.956 0 1.65-1.238 2.922t-2.956 1.272"/><path fill="#e22e00" d="M47.281 87.8q-.45 0-.797-.347t-.347-.797q0-.468.347-.806.347-.337.797-.337.469 0 .806.337.338.338.338.806 0 .45-.338.797-.337.347-.806.347m5.688 3.188q-.45 0-.797-.347t-.347-.797q0-.469.347-.806t.797-.338q.468 0 .806.338.337.337.337.806 0 .45-.337.797-.338.346-.806.346M58.53 87.8q-.45 0-.797-.347t-.347-.797q0-.468.347-.806.347-.337.797-.337.469 0 .806.337.338.338.338.806 0 .45-.338.797-.337.347-.806.347m-5.562 9.75q-.45 0-.797-.347t-.347-.797q0-.468.347-.806.347-.337.797-.337.468 0 .806.337.337.338.337.806 0 .45-.337.797-.338.347-.806.347"/><path fill="#d3d3d3" d="M76.188 98.286q-3.813-.062-6.438-.406t-3.625-1.156q-.687-.5-.625-1t.813-.5q.374 0 .718-.22.344-.218.594-.468.563-.562 1.406-1.656.844-1.094 1.531-2.219.688-1.062 2.188-.187.688.375 2.125.562t3.063.313q.437 0 2.702.03 2.264.032 6.061.063 3.797.032 8.92.063t11.3.062 13.18.063 14.566.031 15.435.031 15.767.031h15.654q7.755 0 15.035-.03 7.28-.032 13.897-.063t12.289-.063 10.169-.094 7.543-.156 4.358-.156q1.375-.125 1.625-.344t.125-.594q-.062-.125-.218-.25-.157-.125-.657-.062-.75.062-3.358.125-2.608.062-6.811.125-4.203.062-9.7.125-5.498.062-12.052.094l-13.897.062-15.192.063q-7.849.03-15.998.03h-16.266q-8.118 0-15.967-.03-7.849-.031-15.191-.031t-13.884-.063-12.02-.125-9.652-.125-6.78-.156-3.358-.219q-1.563-.187-2.156-.687t.03-1.376q2.126-2.812 4.188-5.656 2.063-2.843 3.813-5.78.312-.5.719-.313t.156.75l-.781 1.75Q81 79.66 80.5 80.817t-.75 1.782q.875.062 3.546.156t6.843.156q4.172.063 9.638.094t11.926.062 13.71.032h46.863q8.054 0 15.872-.032 7.818-.03 15.129-.062 7.311-.031 13.897-.063 6.586-.03 12.195-.062 5.609-.031 9.981-.063 4.373-.03 7.231-.093 2.859-.063 3.984-.063 1.125-.062 1.53.469.407.531.97 1.844.75 1.687 1.656 4.062t.969 5.438q.062 1.25-1.032 2.125-1.093.875-2.218 1-1.375.125-4.484.218-3.108.094-7.624.157-4.515.062-10.231.125-5.716.062-12.396.093-6.68.032-14.053.094-7.374.063-15.254.063t-15.967.03-16.204.032h-45.305q-6.68 0-12.395-.031-5.717-.031-10.232-.031t-7.624-.031-4.483-.032m154.501-.06 21.25-7.101h3.313V98q-5.563.135-11.844.18-6.281.046-12.719.046"/><path fill="#d3d3d3" d="M268 98.5q-1.312 0-2.719-.125T262.5 98h-8.25v-6.875h2.188q-.063-5 1.75-8.344t4.562-5.031 5.563-1.687 5.156 1.843 3.875 5.22q1.53 3.374 1.844 8h.062V98h-4.437q-1.688.438-3.532.469t-3.28.031Zm.625-10.937q.75 0 .75-.813 0-.312-.219-.531t-.531-.219q-.812 0-.812.75 0 .813.812.813"/><path fill="#d3d3d3" d="M278.25 98v-6.875l2 .063q0-2.563-.094-5.22t-.219-4.718q-.062-.875-.093-1.875-.032-1 .656-1.5 1.125-.813 2.375-2.281 1.25-1.47 1.687-2.97.313-.812.75-.812.438 0 .563.688.25 1.187.312 2.781.063 1.594.032 3.125-.032 1.531-.032 2.531 0 .875.032 1.094.03.219.968.344 1 .062 3.805.125 2.804.062 7.135.125 4.332.062 9.903.094 5.572.03 12.165.062 6.592.031 13.929.063 7.336.03 15.205.03h63.431q7.38 0 14.023-.03 6.641-.031 12.276-.063 5.634-.031 10.028-.062t7.26-.063 3.992-.031q1.125-.062 1.531.469t.969 1.844q.75 1.687 1.656 4.062t.969 5.438q.063 1.25-1.031 2.143t-2.219.982q-1.375.089-4.541.177-3.166.09-7.805.134-4.64.044-10.51.107-5.871.062-12.745.075-6.874.014-14.505.045-7.63.03-15.78.03-8.151 0-16.552.019-8.401.018-16.82.005l-16.614-.026q-8.195-.014-15.937-.014-7.743 0-14.76-.03-7.017-.032-13.07-.045-6.054-.013-10.917-.027-4.863-.013-8.292-.013zm176.34-6.875q1.375-.125 1.625-.344t.125-.594q-.063-.125-.22-.25-.156-.125-.656-.062-.937.062-3.648.156-2.71.094-6.898.125-4.189.031-9.622.094-5.434.062-11.826.094-6.392.03-13.522.03h-46.073q-7.9 0-15.55-.03-7.65-.031-14.813-.063-7.162-.031-13.598-.031t-11.915-.031-9.715-.063q-4.238-.03-7.042-.094-2.804-.062-3.867-.062.125.375.406.688t1.094.374q.563 0 2.96.032 2.399.03 6.337.062 3.938.031 9.153.063 5.215.03 11.464.062 6.248.031 13.285.063l14.594.062q7.557.031 15.413.031 7.857 0 15.74.032 7.883.03 15.551.03h14.862q7.193 0 13.66-.03 6.468-.032 11.977-.063t9.779-.062q4.268-.032 7.073-.094 2.804-.063 3.866-.125ZM439.965 98l21.437-6.875h3.625V98z"/><path fill="#d3d3d3" d="M462.25 98v-6.875h2.375q-.062-3-.219-7.437-.156-4.438-.406-9.438t-.5-9.812-.5-8.563q0-.125-.062-.375-.063-.375-.032-.875t.594-1q.563-.437 1.438-1.219.875-.781 1.687-1.656t1.188-1.562q.5-.876 1-.657.5.22.562 1.282.188 3.687.375 8.062.188 4.375.406 9 .22 4.625.406 9.031.188 4.406.375 8.25.188 3.844.25 6.594.125 3.375-.562 4.875t-2.187 1.906-3.813.469zm53.688 3q-3.813-.062-7.282-1.187t-6.187-3.438-4.313-5.969-1.656-8.781q0-2.625-.062-5.781-.063-3.156-.157-6.406-.093-3.25-.25-6.157-.156-2.906-.343-4.906-.188-1.437-.313-2.312t.313-1.188q.687-.437 1.656-1.281t1.844-1.844 1.25-1.812q.312-.688.78-.688.47 0 .657 1.25.313 2.25.375 5.375.063 3.125.063 6.688v7.156q0 3.594.187 6.719.188 3.437 1.313 6.25 1.125 2.812 3.093 4.906 1.97 2.094 4.531 3.469 3.25 1.687 7.313 2.187t8.625-.312 9.25-2.875q.563-.313.844-.125.281.187.031.75-2.312 5.125-7.969 7.75-5.656 2.625-13.594 2.562Z"/><path fill="#e22e00" d="M557.188 93.125q-1.5 0-2.657-1.156-1.156-1.156-1.156-2.656 0-1.563 1.156-2.688 1.157-1.125 2.657-1.125 1.562 0 2.687 1.125T561 89.313q0 1.5-1.125 2.656t-2.687 1.156"/><path fill="#d3d3d3" d="M576.063 98.375q-7.188 0-10.407-2.625-3.218-2.625-3.156-6.5.063-2.875 1.813-5.25t4.718-3.875 6.594-1.562l-.062-.438q0-.25.187-.469.188-.219.5-.469.188-.125.406-.312.22-.188.407-.438.937-1.187 1.406-1.875t.844-1.562q.437-1.125.968-1.063.532.063 1.032.813t.687 1.812q.688 3.438.938 7.282t.5 7.718q.062.625.468.875t.657.125q-.063-2.5-.25-5.625-.188-3.125-.438-6.343-.25-3.22-.531-6.157t-.531-5.125q-.25-2.187-.438-3.125-.25-1.437-.594-2.53-.343-1.095-.53-1.72-.25-.812.093-1.093.344-.282.906-.47l.375-.187q1.25-.562 2.063-1.78.812-1.22 1.125-2.595.125-.375.53-.687.407-.313.876-.188t.719 1.125q.562 2 .937 5.344t.656 7.344q.282 4 .5 8.219.22 4.219.5 8.03.282 3.813.657 6.688.125.625.437.72.313.093.563.03-.25-2.5-.5-5.843t-.47-7-.405-7.25-.375-6.688l-.313-5.156q-.062-1.063-.156-1.813t-.219-1.312q-.25-1.813.125-2.063 1.188-.875 2.625-2.343 1.438-1.47 2-2.532.5-.875 1.094-.656t.656 1.281q.188 3.688.406 8.125.22 4.438.47 9.188t.437 9.281.375 8.438.312 6.656q.188 3.375-.344 4.969-.53 1.593-2.187 2.093t-4.969.563zM576 89.563q.75 0 .75-.813 0-.312-.219-.531T576 88q-.812 0-.812.75 0 .813.812.813M22.938 44q-3.813-.062-7.282-1.187T9.47 39.375t-4.313-5.969T3.5 24.625q0-2.625-.062-5.781-.063-3.156-.157-6.406-.093-3.25-.25-6.157-.156-2.906-.343-4.906Q2.5-.062 2.375-.937t.313-1.188q.687-.437 1.656-1.281T6.188-5.25t1.25-1.812q.312-.688.78-.688.47 0 .657 1.25.313 2.25.375 5.375.063 3.125.063 6.688v7.156q0 3.594.187 6.719.188 3.437 1.313 6.25 1.124 2.812 3.093 4.906 1.97 2.094 4.531 3.469 3.25 1.687 7.313 2.187t8.625-.312 9.25-2.875q.563-.313.844-.125.281.187.031.75-2.312 5.125-7.969 7.75Q30.875 44.063 22.937 44Z"/><path fill="#ffe2a1" d="M51.656 40.988q-1.95 0-3.453-1.504-1.503-1.503-1.503-3.453 0-2.03 1.503-3.493t3.453-1.463q2.031 0 3.494 1.463Q56.612 34 56.612 36.03q0 1.95-1.462 3.453-1.463 1.503-3.494 1.503m10.625 0q-1.95 0-3.453-1.504-1.503-1.503-1.503-3.453 0-2.03 1.503-3.493t3.453-1.463q2.031 0 3.494 1.463Q67.237 34 67.237 36.03q0 1.95-1.462 3.453-1.463 1.503-3.494 1.503m-5.312-9.375q-1.95 0-3.453-1.504-1.503-1.503-1.503-3.453 0-2.03 1.503-3.493t3.453-1.463q2.03 0 3.493 1.463 1.463 1.462 1.463 3.493 0 1.95-1.463 3.453Q59 31.612 56.97 31.612"/><path fill="#a67300" d="M51.656 40.225q-1.65 0-2.922-1.272-1.271-1.272-1.271-2.922 0-1.718 1.271-2.956 1.272-1.237 2.922-1.237 1.719 0 2.956 1.237 1.238 1.238 1.238 2.956 0 1.65-1.238 2.922t-2.956 1.272m5.313-9.375q-1.65 0-2.922-1.272t-1.272-2.922q0-1.718 1.272-2.956t2.922-1.237q1.718 0 2.956 1.237t1.237 2.956q0 1.65-1.237 2.922t-2.956 1.272m5.312 9.375q-1.65 0-2.922-1.272t-1.272-2.922q0-1.718 1.272-2.956t2.922-1.237q1.719 0 2.956 1.237 1.238 1.238 1.238 2.956 0 1.65-1.238 2.922t-2.956 1.272"/><path fill="#e22e00" d="M51.281 30.8q-.45 0-.797-.347t-.347-.797q0-.468.347-.806.347-.337.797-.337.469 0 .806.337.338.338.338.806 0 .45-.338.797-.337.347-.806.347m5.688 3.187q-.45 0-.797-.346-.347-.347-.347-.797 0-.469.347-.806t.797-.338q.468 0 .806.338.337.337.337.806 0 .45-.337.797-.338.347-.806.347M62.53 30.8q-.45 0-.797-.347t-.347-.797q0-.468.347-.806.347-.337.797-.337.469 0 .806.337.338.338.338.806 0 .45-.338.797-.337.347-.806.347m-5.562 9.75q-.45 0-.797-.347t-.347-.797q0-.468.347-.806.347-.337.797-.337.468 0 .806.337.337.338.337.806 0 .45-.337.797-.338.347-.806.347"/><path fill="#d3d3d3" d="M80.188 41.294q-3.813-.063-6.438-.406t-3.625-1.157q-.687-.5-.625-1t.813-.5q.374 0 .718-.218.344-.22.594-.47.563-.562 1.406-1.655.844-1.094 1.531-2.22.688-1.062 2.188-.187.688.375 2.125.563t3.063.312q.437 0 2.209.031 1.772.032 4.659.063t6.753.062 8.509.063 9.897.062q5.252.032 10.937.032t11.6.03 11.861.032h11.819q5.871 0 11.406-.031 5.534-.031 10.615-.063 5.081-.03 9.5-.062 4.418-.031 8.002-.094 3.585-.062 6.138-.156t3.866-.156q1.375-.125 1.625-.344t.125-.594q-.063-.125-.22-.25-.155-.125-.655-.062-.75.062-2.866.125-2.116.062-5.41.125-3.293.062-7.533.125-4.24.062-9.26.093-5.018.032-10.615.063l-11.562.062q-5.965.032-12.162.032h-12.362q-6.165 0-12.131-.032-5.965-.03-11.562-.03t-10.606-.063q-5.01-.063-9.228-.125-4.218-.063-7.48-.125-3.263-.063-5.379-.157-2.115-.093-2.865-.218-1.563-.188-2.157-.688-.593-.5.032-1.375 2.125-2.812 4.187-5.656t3.813-5.781q.312-.5.718-.313.407.188.157.75t-.782 1.75-1.03 2.344-.75 1.781q.874.063 3.052.156 2.178.094 5.44.157 3.263.062 7.473.093 4.209.032 9.134.063 4.924.031 10.427.031h35.493q6.103 0 12.037-.031t11.5-.063q5.565-.03 10.615-.062 5.05-.031 9.406-.063 4.356-.03 7.815-.062 3.46-.031 5.825-.094 2.366-.062 3.49-.062 1.126-.063 1.532.468.406.532.969 1.844.75 1.688 1.656 4.063t.969 5.437q.062 1.25-1.031 2.125-1.094.875-2.22 1-1.374.125-3.99.22-2.615.093-6.221.155-3.607.063-8.066.125-4.46.063-9.603.094t-10.771.094q-5.628.062-11.625.062t-12.13.032-12.3.03h-34.558q-5.144 0-9.603-.03-4.46-.032-8.066-.032t-6.221-.03-3.991-.032m115.396-.006 21.25-7.163h3.312V41q-5.562.15-11.844.219-6.28.069-12.718.069"/><path fill="#d3d3d3" d="M216.438 40.375V25.75q.687.063 1.03.531.345.469 1.032 1.469 1.312 2 2.969 3.656t3.469 3.094v5.875z"/><path fill="#d3d3d3" d="M219.25 41v-6.875H226q-2.187-1.625-4.375-3.937-.5-.5-.531-.844t.531-.72q.938-.624 2.188-1.968t2.312-2.969q.188-.312.625-.375.438-.062.813.375 3.375 3.875 7.437 6.031 4.063 2.157 8.688 3.125 4.625.97 9.687 1.188 5.063.219 10.375.219.5 0 .656.281t-.156.719q-1 1.5-2.031 2.562-1.031 1.063-2.094 1.938-.562.5-1.687.687t-1.938.188q-3 0-7.375.062-4.375.063-9.187.125-3.875.063-7.688.094t-7.187.063q-3.375.03-5.813.03Z"/><path fill="#e22e00" d="M299.188 6.125q-1.5 0-2.657-1.156-1.156-1.156-1.156-2.656 0-1.563 1.156-2.688t2.656-1.125q1.563 0 2.688 1.125T303 2.313q0 1.5-1.125 2.656t-2.687 1.156"/><path fill="#d3d3d3" d="M308.938 44q-3.813-.062-7.282-1.187t-6.187-3.438-4.313-5.969-1.656-8.781q0-2.625-.062-5.781-.063-3.156-.157-6.406-.093-3.25-.25-6.157-.156-2.906-.343-4.906-.188-1.437-.313-2.312t.313-1.188q.687-.437 1.656-1.281t1.844-1.844 1.25-1.812q.312-.688.78-.688.47 0 .657 1.25.313 2.25.375 5.375.063 3.125.063 6.688v7.156q0 3.594.187 6.719.188 3.437 1.313 6.25 1.125 2.812 3.093 4.906 1.97 2.094 4.531 3.469 3.25 1.687 7.313 2.187t8.625-.312 9.25-2.875q.563-.313.844-.125.281.187.031.75-2.312 5.125-7.969 7.75-5.656 2.625-13.594 2.562Z"/><path fill="#e22e00" d="M350.188 36.125q-1.5 0-2.657-1.156-1.156-1.156-1.156-2.656 0-1.563 1.156-2.688t2.656-1.125q1.563 0 2.688 1.125T354 32.313q0 1.5-1.125 2.656t-2.687 1.156"/><path fill="#d3d3d3" d="M369.063 41.375q-7.188 0-10.407-2.625t-3.156-6.5q.063-2.875 1.813-5.25t4.718-3.875 6.594-1.562l-.062-.438q0-.25.187-.469.188-.219.5-.469.188-.125.406-.312.22-.188.407-.438.937-1.187 1.406-1.875t.844-1.562q.437-1.125.968-1.063.532.063 1.032.813t.687 1.812q.688 3.438.938 7.282t.5 7.718q.062.625.468.875t.657.125q-.063-2.5-.25-5.625-.188-3.125-.438-6.343-.25-3.22-.531-6.157t-.531-5.125-.438-3.125q-.25-1.437-.594-2.53-.343-1.095-.53-1.72-.25-.812.093-1.093.344-.282.906-.47l.375-.187q1.25-.562 2.063-1.78.812-1.22 1.125-2.595.125-.375.53-.687.407-.313.876-.188t.719 1.125q.562 2 .937 5.344t.656 7.344.5 8.219q.22 4.218.5 8.03.282 3.813.657 6.688.125.625.437.72.313.093.563.03-.25-2.5-.5-5.843t-.47-7-.405-7.25-.375-6.688l-.313-5.156q-.062-1.063-.156-1.813t-.219-1.312q-.25-1.813.125-2.063 1.188-.875 2.625-2.343 1.438-1.47 2-2.532.5-.875 1.094-.656t.656 1.281q.188 3.688.406 8.125.22 4.438.47 9.188t.437 9.281.375 8.438q.187 3.906.312 6.656.188 3.375-.344 4.969-.53 1.593-2.187 2.093t-4.969.563zM369 32.563q.75 0 .75-.813 0-.312-.219-.531T369 31q-.812 0-.812.75 0 .813.812.813M435.938 44q-3.813-.062-7.282-1.187t-6.187-3.438-4.313-5.969-1.656-8.781q0-2.625-.062-5.781-.063-3.156-.157-6.406-.093-3.25-.25-6.157-.156-2.906-.343-4.906-.188-1.437-.313-2.312t.313-1.188q.687-.437 1.656-1.281t1.844-1.844 1.25-1.812q.312-.688.78-.688.47 0 .657 1.25.313 2.25.375 5.375.063 3.125.063 6.688v7.156q0 3.594.187 6.719.188 3.437 1.313 6.25 1.125 2.812 3.093 4.906 1.97 2.094 4.531 3.469 3.25 1.687 7.313 2.187t8.625-.312 9.25-2.875q.563-.313.844-.125.281.187.031.75-2.312 5.125-7.969 7.75-5.656 2.625-13.594 2.562Z"/><path fill="#e22e00" d="M500.188 21.125q-1.5 0-2.657-1.156-1.156-1.156-1.156-2.656 0-1.563 1.156-2.688t2.656-1.125q1.563 0 2.688 1.125T504 17.313q0 1.5-1.125 2.656t-2.687 1.156"/><path fill="#d3d3d3" d="M498.75 49.75q-3.25.125-6.375-.312-3.125-.438-5.594-1.376t-3.906-2.374q-.625-.688-.187-1.063.437-.375.937-.375.688 0 1.688-.687t1.937-1.657 1.313-1.656q.312-.5.906-.312.594.187 1.094.5.062.062.125.062 1.937 1.125 4.187 1.594t4.438.531 3.968-.125 2.781-.375q.75-.125.72-.687-.032-.563-.657-.438-4.437.813-8.219.5-3.78-.312-6.03-2.344-2.25-2.03-2.25-6.343 0-3.25 1.5-5.907t3.968-4.28Q497.563 21 500.563 21q2.625 0 4.812 1.406 2.188 1.407 3.844 3.657T512 30.906t1.719 5.032.594 4.124q0 1.376-.219 2.532t-.906 2.093q-1.188 1.75-3.688 2.844t-5.375 1.594-5.375.625M499.813 31q.75 0 .75-.812 0-.313-.22-.532-.218-.218-.53-.218-.813 0-.813.75 0 .812.813.812"/><path fill="#d3d3d3" d="M526.875 41.313q-3.687.062-6.969-.938-3.281-1-5.344-3.687-1.75-2.313-2.125-4.5-.375-2.188.22-4.22.593-2.03 1.655-3.718 1.438-2.188 4.188-4 2.75-1.813 5.562-2.938-.187-.562-.375-.875-.187-.562.563-.937 1.125-.563 2.375-1.688t1.687-2.5q.25-.687.844-.656t.781.594q.125.375.563 2.281t.969 4.656q.53 2.75 1.062 5.875.531 3.125.938 6.032t.468 5.03q.125 2.75-1.625 4.438t-5.437 1.75Zm-2.312-15.376q.75 0 .75-.812 0-.312-.22-.531-.218-.219-.53-.219-.813 0-.813.75 0 .813.813.813m1.312 6.75q.75 0 .75-.812 0-.312-.219-.531t-.531-.219q-.812 0-.812.75 0 .813.812.813m42.563 23.499q-2.125 1.25-4.844 1.656T558 57.78 552.5 56q-.625-.312-.469-.844.156-.531.781-.969 1.375-.875 2.438-2.187 1.062-1.313 2.187-2.688.25-.312.657-.28.406.03.78.155h.063q1.25.438 2.688.594 1.437.156 3-.094-.25-4.687-.531-10.312t-.625-11.469-.688-11.312-.656-9.97-.563-7.437q0-.125-.062-.437-.125-.375-.125-.813t.687-.812q.563-.313 1.313-1.188t1.406-1.906 1.031-1.719q.5-.875 1.031-.656.532.219.594 1.281.313 4.563.625 10.25.313 5.688.594 11.625t.531 11.47q.25 5.53.375 9.843.063 3.125.313 7.719.25 4.593.25 9.53 0 1.126-.47 1.75-.468.626-1.218 1.063ZM565.875 41v-6.875h4.5V41z"/><path fill="#e22e00" d="M571.188 34.125q-1.5 0-2.657-1.156-1.156-1.156-1.156-2.656 0-1.563 1.156-2.688 1.157-1.125 2.657-1.125 1.562 0 2.687 1.125T575 30.313q0 1.5-1.125 2.656t-2.687 1.156"/><path fill="#d3d3d3" d="M568.5 15q-.625 0-.625-.625 0-.312.25-.5 1.375-1.062 2.563-2.344 1.187-1.281 2.312-2.656.188-.25.5-.25.625 0 .625.625 0 .25-.125.375-2.312 3-5.125 5.25-.125.125-.375.125m1.875 1.688q-.625 0-.625-.625 0-.313.25-.5 1.375-1.063 2.563-2.344 1.187-1.281 2.312-2.656.188-.25.5-.25.625 0 .625.624 0 .25-.125.376-2.312 3-5.125 5.25-.125.125-.375.125M568.063 41V24.5h1q.125 4.688 3.062 7.188 2.938 2.5 8.25 2.437L572.438 41z"/><path fill="#d3d3d3" d="M572.25 41v-6.875h4.438q2.375 0 4.53-.062 2.157-.063 3.688-.22 1.531-.156 1.969-.406.5-.312.469-.718-.031-.407-.531-.282-1.5.25-3.813.47-2.312.218-4.719-.094-2.406-.313-4.156-1.5-1.562-1.063-2.562-2.782-1-1.718-1-3.78 0-2.126.843-4.345.844-2.218 2.375-4.093t3.625-3.032T582 12.125q2.688 0 4.969 1.844t3.937 4.969 2.563 6.969.906 7.906q0 2.187-1.375 3.593t-3.687 2.157-5.22 1.062q-2.905.313-5.968.375-3.062.063-5.875 0m9.563-17.937q.75 0 .75-.813 0-.312-.22-.531-.218-.219-.53-.219-.813 0-.813.75 0 .813.813.813"/></svg>