<?xml version='1.0' encoding='ASCII'?>
<svg xmlns="http://www.w3.org/2000/svg" width="655" height="80" preserveAspectRatio="xMinYMin slice" viewBox="-2 -28 655 80" version="1.1">
  <path d="M-2,-28 v80 h655 v-80 Z" fill="#FFFAED" transform="matrix(1,0,0,-1,0,24)"/>
  <path d="M22.25,-2.8125 q-5.0625,0 -9.6875,0.125 q-4.625,0.125 -7.875,0.75 q-3.25,0.625 -4.3125,2 q-0.25,0.375 -0.375,0.9375 q-0.125,0.5625 0.75,0.875 q1.8125,0.6875 3.0312,1.5625 q1.2188,0.875 2.1562,2.4375 q0.25,0.4375 0.7188,0.5 q0.4688,0.0625 0.9688,-0.125 q1.125,-0.375 2.3125,-0.625 q1.1875,-0.25 2.4375,-0.375 q-0.8125,4.6875 0.5938,8.0938 q1.4062,3.4062 4.1562,5.25 q2.75,1.8438 5.875,1.8438 q3.3125,0 5.9375,-2.0625 q2.625,-2.0625 4.1562,-5.5 q1.5312,-3.4375 1.5312,-7.5 q0,-3.125 -1.0625,-4.8125 q-1.0625,-1.6875 -2.7188,-2.4062 q-1.6562,-0.7188 -3.5,-0.8438 q-1.8438,-0.125 -3.4688,-0.125 q-0.5,0 -0.75,0 h-0.875 Z M24.1875,8.5625 q0.75,0 0.75,0.8125 q0,0.3125 -0.2188,0.5312 q-0.2188,0.2188 -0.5312,0.2188 q-0.8125,0 -0.8125,-0.75 q0,-0.8125 0.8125,-0.8125 Z" fill="#000000" transform="matrix(1,0,0,-1,-1,24)"/>
  <path d="M1,2 q-0.625,0 -0.625,0.625 q0,0.3125 0.25,0.5 q1.375,1.0625 2.5625,2.3438 q1.1875,1.2812 2.3125,2.6562 q0.1875,0.25 0.5,0.25 q0.625,0 0.625,-0.625 q0,-0.25 -0.125,-0.375 q-2.3125,-3 -5.125,-5.25 q-0.125,-0.125 -0.375,-0.125 Z M2.875,0.3125 q-0.625,0 -0.625,0.625 q0,0.3125 0.25,0.5 q1.375,1.0625 2.5625,2.3438 q1.1875,1.2812 2.3125,2.6562 q0.1875,0.25 0.5,0.25 q0.625,0 0.625,-0.625 q0,-0.25 -0.125,-0.375 q-2.3125,-3 -5.125,-5.25 q-0.125,-0.125 -0.375,-0.125 Z" fill="#000000" transform="matrix(1,0,0,-1,33,33)"/>
  <path d="M5.5,0 q-2.625,0 -3.9062,1.2188 q-1.2812,1.2188 -1.6875,3.2812 q-0.4062,2.0625 -0.4688,4.625 q0,1.625 -0.0312,2.7188 q-0.0312,1.0938 -0.2188,3.0312 q-0.0625,0.5 0.125,1 q0.1875,0.5 0.8125,0.6875 q0.875,0.3125 2,1.7812 q1.125,1.4688 2.5625,3.5938 q0.3125,0.375 0.7812,0.3125 q0.4688,-0.0625 0.5312,-0.9375 q0.1875,-2.4375 0.3125,-5.1562 q0.125,-2.7188 0.25,-6.3438 q0.0625,-1.0625 0.25,-2 q0.1875,-0.9375 0.75,-0.9375 v-6.875 h-2.0625 Z" fill="#000000" transform="matrix(1,0,0,-1,34,24)"/>
  <path d="M-1.4375,0 v12 h1.1875 q-0.0625,-2.3125 2.2812,-3.75 q2.3438,-1.4375 6.0938,-1.75 v-2.8125 l-9.5625,-3.6875 Z" fill="#000000" transform="matrix(1,0,0,-1,41,24)"/>
  <path d="M-1.25,0 v6.875 h6.75 q-2.1875,1.625 -4.375,3.9375 q-0.5,0.5 -0.5312,0.8438 q-0.0312,0.3438 0.5312,0.7188 q0.9375,0.625 2.1875,1.9688 q1.25,1.3438 2.3125,2.9688 q0.1875,0.3125 0.625,0.375 q0.4375,0.0625 0.8125,-0.375 q3.375,-3.875 7.4375,-6.0312 q4.0625,-2.1562 8.6875,-3.125 q4.625,-0.9688 9.6875,-1.1875 q5.0625,-0.2188 10.375,-0.2188 q0.5,0 0.6562,-0.2812 q0.1562,-0.2812 -0.1562,-0.7188 q-1,-1.5 -2.0312,-2.5625 q-1.0312,-1.0625 -2.0938,-1.9375 q-0.5625,-0.5 -1.6875,-0.6875 q-1.125,-0.1875 -1.9375,-0.1875 q-3,0 -7.375,-0.0625 q-4.375,-0.0625 -9.1875,-0.125 q-3.875,-0.0625 -7.6875,-0.0938 q-3.8125,-0.0312 -7.1875,-0.0625 q-3.375,-0.0312 -5.8125,-0.0312 Z" fill="#000000" transform="matrix(1,0,0,-1,41,24)"/>
  <path d="M14.25,-7.5625 q-4.1875,-0.0625 -7.875,0.9688 q-3.6875,1.0312 -5.6875,2.3438 q-0.75,0.5 -0.6562,0.9375 q0.0938,0.4375 0.7188,0.6875 q1.4375,0.5 2.6562,1.8438 q1.2188,1.3438 2.1562,2.5312 q0.375,0.5 1.125,0.0625 q1.75,-0.9375 4.375,-1.5938 q2.625,-0.6562 5.1562,-0.9375 q2.5312,-0.2812 3.9688,-0.0938 q0.5,0.0625 0.4062,0.4688 q-0.0938,0.4062 -0.4688,0.4062 q-1.5,-0.0625 -3.5,0.1562 q-2,0.2188 -3.9375,0.7188 q-1.9375,0.5 -3.375,1.25 q-0.6875,0.375 -0.5938,0.9062 q0.0938,0.5312 0.4688,0.8438 q0.875,0.875 2.125,2.1562 q1.25,1.2812 2.5312,2.6875 q1.2812,1.4062 2.375,2.5938 q1.0938,1.1875 1.7188,1.8125 q0.25,0.25 0.4062,0.4062 q0.1562,0.1562 0.4062,0.1562 q0.3125,0 0.9375,-0.4375 q2.0625,-1.375 4,-3.7188 q1.9375,-2.3438 3.25,-5.125 q1.3125,-2.7812 1.375,-5.5312 q0.0625,-1.6875 -0.625,-3.3438 q-0.6875,-1.6562 -3.125,-2.3438 q-2.0625,-0.625 -4.7188,-0.6875 q-2.6562,-0.0625 -5.5938,-0.125 Z" fill="#000000" transform="matrix(1,0,0,-1,101,24)"/>
  <path d="M-1.25,0 v6.875 h2.375 q-0.0625,3 -0.2188,7.4375 q-0.1562,4.4375 -0.4062,9.4375 q-0.25,5 -0.5,9.8125 q-0.25,4.8125 -0.5,8.5625 q0,0.125 -0.0625,0.375 q-0.0625,0.375 -0.0312,0.875 q0.0312,0.5 0.5938,1 q0.5625,0.4375 1.4375,1.2188 q0.875,0.7812 1.6875,1.6562 q0.8125,0.875 1.1875,1.5625 q0.5,0.875 1,0.6562 q0.5,-0.2188 0.5625,-1.2812 q0.1875,-3.6875 0.375,-8.0625 q0.1875,-4.375 0.4062,-9 q0.2188,-4.625 0.4062,-9.0312 q0.1875,-4.4062 0.375,-8.25 q0.1875,-3.8438 0.25,-6.5938 q0.125,-3.375 -0.5625,-4.875 q-0.6875,-1.5 -2.1875,-1.9062 q-1.5,-0.4062 -3.8125,-0.4688 h-2.375 Z" fill="#000000" transform="matrix(1,0,0,-1,126,24)"/>
  <path d="M19.4375,-3 q-3.8125,0.0625 -7.2812,1.1875 q-3.4688,1.125 -6.1875,3.4375 q-2.7188,2.3125 -4.3125,5.9688 q-1.5938,3.6562 -1.6562,8.7812 q0,2.625 -0.0625,5.7812 q-0.0625,3.1562 -0.1562,6.4062 q-0.0938,3.25 -0.25,6.1562 q-0.1562,2.9062 -0.3438,4.9062 q-0.1875,1.4375 -0.3125,2.3125 q-0.125,0.875 0.3125,1.1875 q0.6875,0.4375 1.6562,1.2812 q0.9688,0.8438 1.8438,1.8438 q0.875,1 1.25,1.8125 q0.3125,0.6875 0.7812,0.6875 q0.4688,0 0.6562,-1.25 q0.3125,-2.25 0.375,-5.375 q0.0625,-3.125 0.0625,-6.6875 q0,-3.5625 0,-7.1562 q0,-3.5938 0.1875,-6.7188 q0.1875,-3.4375 1.3125,-6.25 q1.125,-2.8125 3.0938,-4.9062 q1.9688,-2.0938 4.5312,-3.4688 q3.25,-1.6875 7.3125,-2.1875 q4.0625,-0.5 8.625,0.3125 q4.5625,0.8125 9.25,2.875 q0.5625,0.3125 0.8438,0.125 q0.2812,-0.1875 0.0312,-0.75 q-2.3125,-5.125 -7.9688,-7.75 q-5.6562,-2.625 -13.5938,-2.5625 Z" fill="#000000" transform="matrix(1,0,0,-1,159,24)"/>
  <path d="" fill="#000000" transform="matrix(1,0,0,-1,200,24)"/>
  <path d="M1,0.8125 q-0.625,0 -0.625,0.625 q0,0.3125 0.25,0.5 q1.375,1.0625 2.5625,2.3438 q1.1875,1.2812 2.3125,2.6562 q0.1875,0.25 0.5,0.25 q0.625,0 0.625,-0.625 q0,-0.25 -0.125,-0.375 q-2.3125,-3 -5.125,-5.25 q-0.125,-0.125 -0.375,-0.125 Z" fill="#000000" transform="matrix(1,0,0,-1,225,18)"/>
  <path d="M14.625,-25.1875 q-1.5625,-0.625 -3.7812,-0.875 q-2.2188,-0.25 -4.5938,-0.0625 q-2.375,0.1875 -4.5312,0.7812 q-2.1562,0.5938 -3.5938,1.5938 q-0.5625,0.375 -0.6562,0.875 q-0.0938,0.5 0.5938,0.75 q1.125,0.5 2.4062,1.8438 q1.2812,1.3438 2.5938,3.2812 q0.1875,0.3125 0.4375,0.25 q0.25,-0.0625 0.4375,-0.1875 q1.3125,-0.6875 3.0625,-1.125 q1.75,-0.4375 5.0625,-0.375 q0.125,3.5625 0.125,6.5312 q0,2.9688 -0.0625,5.2812 q0,0.4375 0,0.625 q-0.0625,3.8125 -1.3438,5.6562 q-1.2812,1.8438 -3.75,2.6875 q-2.4688,0.8438 -6.1562,1.5938 q-0.8125,0.1875 -0.8438,0.7188 q-0.0312,0.5312 0.7188,0.7188 q2.1875,0.625 3.8438,2.4375 q1.6562,1.8125 2.2812,4.25 q0.125,0.5 0.4375,0.75 q0.3125,0.25 0.9375,-0.0625 q3.5,-1.9375 5.5,-3.875 q2,-1.9375 2.9062,-4.3438 q0.9062,-2.4062 0.9688,-5.9062 q0.0625,-2.25 0.0625,-5.0938 q0,-2.8438 -0.0312,-5.5938 q-0.0312,-2.75 -0.0938,-4.875 q0,-0.5 0,-0.75 q0,-1.3125 -0.2812,-2.875 q-0.2812,-1.5625 -0.9062,-2.8438 q-0.625,-1.2812 -1.75,-1.7812 Z" fill="#000000" transform="matrix(1,0,0,-1,225,24)"/>
  <path d="M15.625,-1.625 q-7.4375,0 -11.875,1.9375 q-4.4375,1.9375 -4.375,6.125 q0.0625,2.75 1.1562,5.5312 q1.0938,2.7812 3,5.0938 q1.9062,2.3125 4.4062,3.6875 q2.5,1.375 5.3125,1.375 q2.1875,0 4.1562,-1.3125 q1.9688,-1.3125 3.5312,-3.5312 q1.5625,-2.2188 2.5625,-4.9062 q1,-2.6875 1.25,-5.5 h0.125 v-6.875 h-2.1875 q-1.0625,-0.75 -2.7812,-1.1875 q-1.7188,-0.4375 -4.2812,-0.4375 Z M14.1875,9.625 q0.75,0 0.75,0.8125 q0,0.3125 -0.2188,0.5312 q-0.2188,0.2188 -0.5312,0.2188 q-0.8125,0 -0.8125,-0.75 q0,-0.8125 0.8125,-0.8125 Z" fill="#000000" transform="matrix(1,0,0,-1,241,24)"/>
  <path d="M-2.375,0 v12 h0.625 q0.75,-1.5625 2.0312,-2.7188 q1.2812,-1.1562 2.6875,-1.7812 q1.4062,-0.625 2.4688,-0.625 v-6.875 h-7.8125 Z" fill="#000000" transform="matrix(1,0,0,-1,267,24)"/>
  <path d="M-1.25,0 v6.875 h6.75 q-2.1875,1.625 -4.375,3.9375 q-0.5,0.5 -0.5312,0.8438 q-0.0312,0.3438 0.5312,0.7188 q0.9375,0.625 2.1875,1.9688 q1.25,1.3438 2.3125,2.9688 q0.1875,0.3125 0.625,0.375 q0.4375,0.0625 0.8125,-0.375 q3.375,-3.875 7.4375,-6.0312 q4.0625,-2.1562 8.6875,-3.125 q4.625,-0.9688 9.6875,-1.1875 q5.0625,-0.2188 10.375,-0.2188 q0.5,0 0.6562,-0.2812 q0.1562,-0.2812 -0.1562,-0.7188 q-1,-1.5 -2.0312,-2.5625 q-1.0312,-1.0625 -2.0938,-1.9375 q-0.5625,-0.5 -1.6875,-0.6875 q-1.125,-0.1875 -1.9375,-0.1875 q-3,0 -7.375,-0.0625 q-4.375,-0.0625 -9.1875,-0.125 q-3.875,-0.0625 -7.6875,-0.0938 q-3.8125,-0.0312 -7.1875,-0.0625 q-3.375,-0.0312 -5.8125,-0.0312 Z" fill="#000000" transform="matrix(1,0,0,-1,267,24)"/>
  <path d="M14.25,-7.5625 q-4.1875,-0.0625 -7.875,0.9688 q-3.6875,1.0312 -5.6875,2.3438 q-0.75,0.5 -0.6562,0.9375 q0.0938,0.4375 0.7188,0.6875 q1.4375,0.5 2.6562,1.8438 q1.2188,1.3438 2.1562,2.5312 q0.375,0.5 1.125,0.0625 q1.75,-0.9375 4.375,-1.5938 q2.625,-0.6562 5.1562,-0.9375 q2.5312,-0.2812 3.9688,-0.0938 q0.5,0.0625 0.4062,0.4688 q-0.0938,0.4062 -0.4688,0.4062 q-1.5,-0.0625 -3.5,0.1562 q-2,0.2188 -3.9375,0.7188 q-1.9375,0.5 -3.375,1.25 q-0.6875,0.375 -0.5938,0.9062 q0.0938,0.5312 0.4688,0.8438 q0.875,0.875 2.125,2.1562 q1.25,1.2812 2.5312,2.6875 q1.2812,1.4062 2.375,2.5938 q1.0938,1.1875 1.7188,1.8125 q0.25,0.25 0.4062,0.4062 q0.1562,0.1562 0.4062,0.1562 q0.3125,0 0.9375,-0.4375 q2.0625,-1.375 4,-3.7188 q1.9375,-2.3438 3.25,-5.125 q1.3125,-2.7812 1.375,-5.5312 q0.0625,-1.6875 -0.625,-3.3438 q-0.6875,-1.6562 -3.125,-2.3438 q-2.0625,-0.625 -4.7188,-0.6875 q-2.6562,-0.0625 -5.5938,-0.125 Z" fill="#000000" transform="matrix(1,0,0,-1,327,24)"/>
  <path d="M-1.25,0 v6.875 h2.375 q-0.0625,3 -0.2188,7.4375 q-0.1562,4.4375 -0.4062,9.4375 q-0.25,5 -0.5,9.8125 q-0.25,4.8125 -0.5,8.5625 q0,0.125 -0.0625,0.375 q-0.0625,0.375 -0.0312,0.875 q0.0312,0.5 0.5938,1 q0.5625,0.4375 1.4375,1.2188 q0.875,0.7812 1.6875,1.6562 q0.8125,0.875 1.1875,1.5625 q0.5,0.875 1,0.6562 q0.5,-0.2188 0.5625,-1.2812 q0.1875,-3.6875 0.375,-8.0625 q0.1875,-4.375 0.4062,-9 q0.2188,-4.625 0.4062,-9.0312 q0.1875,-4.4062 0.375,-8.25 q0.1875,-3.8438 0.25,-6.5938 q0.125,-3.375 -0.5625,-4.875 q-0.6875,-1.5 -2.1875,-1.9062 q-1.5,-0.4062 -3.8125,-0.4688 h-2.375 Z" fill="#000000" transform="matrix(1,0,0,-1,352,24)"/>
  <path d="M19.4375,-3 q-3.8125,0.0625 -7.2812,1.1875 q-3.4688,1.125 -6.1875,3.4375 q-2.7188,2.3125 -4.3125,5.9688 q-1.5938,3.6562 -1.6562,8.7812 q0,2.625 -0.0625,5.7812 q-0.0625,3.1562 -0.1562,6.4062 q-0.0938,3.25 -0.25,6.1562 q-0.1562,2.9062 -0.3438,4.9062 q-0.1875,1.4375 -0.3125,2.3125 q-0.125,0.875 0.3125,1.1875 q0.6875,0.4375 1.6562,1.2812 q0.9688,0.8438 1.8438,1.8438 q0.875,1 1.25,1.8125 q0.3125,0.6875 0.7812,0.6875 q0.4688,0 0.6562,-1.25 q0.3125,-2.25 0.375,-5.375 q0.0625,-3.125 0.0625,-6.6875 q0,-3.5625 0,-7.1562 q0,-3.5938 0.1875,-6.7188 q0.1875,-3.4375 1.3125,-6.25 q1.125,-2.8125 3.0938,-4.9062 q1.9688,-2.0938 4.5312,-3.4688 q3.25,-1.6875 7.3125,-2.1875 q4.0625,-0.5 8.625,0.3125 q4.5625,0.8125 9.25,2.875 q0.5625,0.3125 0.8438,0.125 q0.2812,-0.1875 0.0312,-0.75 q-2.3125,-5.125 -7.9688,-7.75 q-5.6562,-2.625 -13.5938,-2.5625 Z" fill="#000000" transform="matrix(1,0,0,-1,385,24)"/>
  <path d="" fill="#000000" transform="matrix(1,0,0,-1,426,24)"/>
  <path d="M13.5625,-0.375 q-7.1875,0 -10.4062,2.625 q-3.2188,2.625 -3.1562,6.5 q0.0625,2.875 1.8125,5.25 q1.75,2.375 4.7188,3.875 q2.9688,1.5 6.5938,1.5625 l-0.0625,0.4375 q0,0.25 0.1875,0.4688 q0.1875,0.2188 0.5,0.4688 q0.1875,0.125 0.4062,0.3125 q0.2188,0.1875 0.4062,0.4375 q0.9375,1.1875 1.4062,1.875 q0.4688,0.6875 0.8438,1.5625 q0.4375,1.125 0.9688,1.0625 q0.5312,-0.0625 1.0312,-0.8125 q0.5,-0.75 0.6875,-1.8125 q0.6875,-3.4375 0.9375,-7.2812 q0.25,-3.8438 0.5,-7.7188 q0.0625,-0.625 0.4688,-0.875 q0.4062,-0.25 0.6562,-0.125 q-0.0625,2.5 -0.25,5.625 q-0.1875,3.125 -0.4375,6.3438 q-0.25,3.2188 -0.5312,6.1562 q-0.2812,2.9375 -0.5312,5.125 q-0.25,2.1875 -0.4375,3.125 q-0.25,1.4375 -0.5938,2.5312 q-0.3438,1.0938 -0.5312,1.7188 q-0.25,0.8125 0.0938,1.0938 q0.3438,0.2812 0.9062,0.4688 q0.25,0.125 0.375,0.1875 q1.25,0.5625 2.0625,1.7812 q0.8125,1.2188 1.125,2.5938 q0.125,0.375 0.5312,0.6875 q0.4062,0.3125 0.875,0.1875 q0.4688,-0.125 0.7188,-1.125 q0.5625,-2 0.9375,-5.3438 q0.375,-3.3438 0.6562,-7.3438 q0.2812,-4 0.5,-8.2188 q0.2188,-4.2188 0.5,-8.0312 q0.2812,-3.8125 0.6562,-6.6875 q0.125,-0.625 0.4375,-0.7188 q0.3125,-0.0938 0.5625,-0.0312 q-0.25,2.5 -0.5,5.8438 q-0.25,3.3438 -0.4688,7 q-0.2188,3.6562 -0.4062,7.25 q-0.1875,3.5938 -0.375,6.6875 q-0.1875,3.0938 -0.3125,5.1562 q-0.0625,1.0625 -0.1562,1.8125 q-0.0938,0.75 -0.2188,1.3125 q-0.25,1.8125 0.125,2.0625 q1.1875,0.875 2.625,2.3438 q1.4375,1.4688 2,2.5312 q0.5,0.875 1.0938,0.6562 q0.5938,-0.2188 0.6562,-1.2812 q0.1875,-3.6875 0.4062,-8.125 q0.2188,-4.4375 0.4688,-9.1875 q0.25,-4.75 0.4375,-9.2812 q0.1875,-4.5312 0.375,-8.4375 q0.1875,-3.9062 0.3125,-6.6562 q0.1875,-3.375 -0.3438,-4.9688 q-0.5312,-1.5938 -2.1875,-2.0938 q-1.6562,-0.5 -4.9688,-0.5625 q-2.8125,0 -4.9062,0 q-2.0938,0 -4.3438,0 q-1.1875,0 -2.5312,0 q-1.3438,0 -2.9062,0 Z M13.5,8.4375 q0.75,0 0.75,0.8125 q0,0.3125 -0.2188,0.5312 q-0.2188,0.2188 -0.5312,0.2188 q-0.8125,0 -0.8125,-0.75 q0,-0.8125 0.8125,-0.8125 Z" fill="#000000" transform="matrix(1,0,0,-1,451,24)"/>
  <path d="M19.4375,-3 q-3.8125,0.0625 -7.2812,1.1875 q-3.4688,1.125 -6.1875,3.4375 q-2.7188,2.3125 -4.3125,5.9688 q-1.5938,3.6562 -1.6562,8.7812 q0,2.625 -0.0625,5.7812 q-0.0625,3.1562 -0.1562,6.4062 q-0.0938,3.25 -0.25,6.1562 q-0.1562,2.9062 -0.3438,4.9062 q-0.1875,1.4375 -0.3125,2.3125 q-0.125,0.875 0.3125,1.1875 q0.6875,0.4375 1.6562,1.2812 q0.9688,0.8438 1.8438,1.8438 q0.875,1 1.25,1.8125 q0.3125,0.6875 0.7812,0.6875 q0.4688,0 0.6562,-1.25 q0.3125,-2.25 0.375,-5.375 q0.0625,-3.125 0.0625,-6.6875 q0,-3.5625 0,-7.1562 q0,-3.5938 0.1875,-6.7188 q0.1875,-3.4375 1.3125,-6.25 q1.125,-2.8125 3.0938,-4.9062 q1.9688,-2.0938 4.5312,-3.4688 q3.25,-1.6875 7.3125,-2.1875 q4.0625,-0.5 8.625,0.3125 q4.5625,0.8125 9.25,2.875 q0.5625,0.3125 0.8438,0.125 q0.2812,-0.1875 0.0312,-0.75 q-2.3125,-5.125 -7.9688,-7.75 q-5.6562,-2.625 -13.5938,-2.5625 Z" fill="#000000" transform="matrix(1,0,0,-1,512,24)"/>
  <path d="" fill="#000000" transform="matrix(1,0,0,-1,553,24)"/>
  <path d="M23.4375,-2.8125 q-1.625,0 -3.4062,0.125 q-1.7812,0.125 -3.2812,0.5625 q-6.25,-0.25 -10.625,0.1875 q-4.375,0.4375 -5.75,2.25 q-0.25,0.375 -0.375,0.9375 q-0.125,0.5625 0.75,0.875 q1.8125,0.6875 3.0312,1.75 q1.2188,1.0625 2.1562,2.625 q0.5,0.9375 1.6875,0.375 q1.9375,-0.8125 4.25,-1.25 q0,4.875 1.6875,8.125 q1.6875,3.25 4.3125,4.875 q2.625,1.625 5.4375,1.625 q2.625,0 5.0938,-1.625 q2.4688,-1.625 4.2812,-4.625 q1.8125,-3 2.4375,-7.125 q0.1875,0 0.3125,0 v-6.875 l-0.875,-0.125 q-1,-1.4375 -2.8125,-2 q-1.8125,-0.5625 -3.8438,-0.6562 q-2.0312,-0.0938 -3.7188,-0.0312 q-0.5,0 -0.75,0 Z M24.6875,7.9375 q0.75,0 0.75,0.8125 q0,0.3125 -0.2188,0.5312 q-0.2188,0.2188 -0.5312,0.2188 q-0.8125,0 -0.8125,-0.75 q0,-0.8125 0.8125,-0.8125 Z" fill="#000000" transform="matrix(1,0,0,-1,578,24)"/>
  <path d="M-2.5,2.8125 v8.25 h1.125 q0.375,-1.1875 1.1562,-1.9062 q0.7812,-0.7188 1.2188,-0.9062 v-5.4375 h-3.5 Z" fill="#000000" transform="matrix(1,0,0,-1,613,24)"/>
  <path d="M-1.25,0 v6.875 h3.5 q-0.25,0.75 -0.5,1.4062 q-0.25,0.6562 -0.375,1.1562 q-0.1875,0.625 0,0.9062 q0.1875,0.2812 0.6875,0.5312 q1.25,0.5625 2.0625,1.6875 q0.8125,1.125 1.8125,2.8125 q0.75,1.25 1.1875,-0.125 q0.875,-2.875 1.6562,-4.3438 q0.7812,-1.4688 1.6562,-2.1562 q-0.125,0.25 -0.25,0.5625 q-0.3125,0.75 0.375,1.125 q1.25,0.625 2.2812,1.8438 q1.0312,1.2188 1.9688,3.7812 q0.125,0.4375 0.4375,0.5 q0.3125,0.0625 0.4375,-0.4375 q0.625,-1.9375 1.4688,-3.6875 q0.8438,-1.75 1.7812,-3.1875 q0,0.5625 -0.0625,1.5 q-0.0625,1.125 0.75,1.4375 q1.8125,0.5625 2.5625,1.9688 q0.75,1.4062 1.5625,2.7812 q0.5,0.875 0.9375,0.875 q0.4375,0 0.5,-0.875 q0.1875,-4.125 0.3125,-6.2812 q0.125,-2.1562 0.3438,-2.9688 q0.2188,-0.8125 0.6562,-0.8125 v-6.875 h-27.75 Z" fill="#000000" transform="matrix(1,0,0,-1,612,24)"/>
  <path d="M1,0.3125 q-0.625,0 -0.625,0.625 q0,0.3125 0.25,0.5 q1.375,1.0625 2.5625,2.3438 q1.1875,1.2812 2.3125,2.6562 q0.1875,0.25 0.5,0.25 q0.625,0 0.625,-0.625 q0,-0.25 -0.125,-0.375 q-2.3125,-3 -5.125,-5.25 q-0.125,-0.125 -0.375,-0.125 Z" fill="#000000" transform="matrix(1,0,0,-1,643,27)"/>
  <path d="M-1.5,2.8125 v9.8125 h1.1875 q0.0625,-2.3125 1.0312,-3.25 q0.9688,-0.9375 1.8438,-1.25 v-5.3125 h-4.0625 Z" fill="#000000" transform="matrix(1,0,0,-1,638,24)"/>
  <path d="M-1.25,0 v6.875 h2.4375 q-0.0625,2.625 -0.2188,5.5 q-0.1562,2.875 -0.2812,4.4375 q0,0.1875 -0.0625,0.625 q-0.0625,1.125 0,1.8438 q0.0625,0.7188 0.625,1.0938 q2.8125,1.875 4.8125,4.9375 q0.3125,0.5 0.5938,0.4062 q0.2812,-0.0938 0.2812,-0.5312 q0,-3.125 0.2812,-6.7188 q0.2812,-3.5938 0.5625,-7.2188 q0.2812,-3.625 0.3438,-6.75 q0.0625,-1.625 -1.375,-3.0625 q-1.4375,-1.4375 -3.25,-1.4375 h-4.75 Z" fill="#000000" transform="matrix(1,0,0,-1,638,24)"/>
</svg>
