<?xml version='1.0' encoding='ASCII'?>
<svg xmlns="http://www.w3.org/2000/svg" width="631" height="75" preserveAspectRatio="xMinYMin slice" viewBox="-7 -23 631 75" version="1.1">
  <path d="M-7,-23 v75 h631 v-75 Z" fill="#FFFAED" transform="matrix(1,0,0,-1,0,29)"/>
  <path d="M21.375,-16.1875 q-2,-0.5 -4.875,-0.8438 q-2.875,-0.3438 -6,-0.4688 q-3.125,-0.125 -6.0938,0.125 q-2.9688,0.25 -5.25,0.9688 q-2.2812,0.7188 -3.4062,1.9688 q-0.5,0.625 -0.375,1.0938 q0.125,0.4688 0.9375,0.4688 q0.8125,0 2,1.3125 q1.1875,1.3125 1.9375,2.5625 q0.3125,0.5 0.7188,0.8438 q0.4062,0.3438 0.9688,0.0312 q2.375,-1.375 6.3125,-1.875 q3.9375,-0.5 8,0.0625 q-0.0625,0.0625 -0.125,0.25 q-0.0625,0.1875 -0.2188,0.375 q-0.1562,0.1875 -0.6562,0.125 q-15.25,-0.875 -15.25,11.0625 q0,3.0625 1.4375,5.75 q1.4375,2.6875 3.7812,4.3438 q2.3438,1.6562 5.0938,1.5938 q1.3125,0 2.25,-0.9062 q0.9375,-0.9062 1.7188,-2.1562 q0.7812,-1.25 1.5625,-2.2812 q0.7812,-1.0312 1.7812,-1.3438 v-6.875 q-0.4375,0 -0.875,0 q-0.4375,0 -0.8125,0 q-2.6875,-0.0625 -4.4688,0.1562 q-1.7812,0.2188 -3.1562,1.4688 q-0.5,0.5 -0.7188,0.25 q-0.2188,-0.25 0.0938,-0.8125 q0.5625,-0.9375 1.9375,-1.4688 q1.375,-0.5312 3.0938,-0.75 q1.7188,-0.2188 3.4375,-0.2188 q1.7188,0 2.9688,0 q1.0625,0 1.3438,-0.1875 q0.2812,-0.1875 0.5938,-0.75 q0.6875,-1.1875 1.5938,-3.0938 q0.9062,-1.9062 1.3438,-4.4062 q0.4375,-2.6875 -0.1562,-4.2812 q-0.5938,-1.5938 -2.4688,-2.0938 Z" fill="#000000" transform="matrix(1,0,0,-1,-1,29)"/>
  <path d="M1,0.3125 q-0.625,0 -0.625,0.625 q0,0.3125 0.25,0.5 q1.375,1.0625 2.5625,2.3438 q1.1875,1.2812 2.3125,2.6562 q0.1875,0.25 0.5,0.25 q0.625,0 0.625,-0.625 q0,-0.25 -0.125,-0.375 q-2.3125,-3 -5.125,-5.25 q-0.125,-0.125 -0.375,-0.125 Z" fill="#000000" transform="matrix(1,0,0,-1,22,36)"/>
  <path d="M-1.25,0 v6.875 h2.5625 q-0.0625,3 -0.1875,5.0625 q-0.125,2.0625 -0.25,3.5 q-0.0625,0.5 0.0938,0.7812 q0.1562,0.2812 0.7812,0.5938 q1.3125,0.75 2,1.875 q0.6875,1.125 2.125,3.25 q0.3125,0.375 0.7812,0.3125 q0.4688,-0.0625 0.5312,-0.9375 q0.1875,-2.4375 0.375,-5.1562 q0.1875,-2.7188 0.25,-6.3438 q0.0625,-1.0625 0.25,-2 q0.1875,-0.9375 0.75,-0.9375 v-6.875 h-10.0625 Z" fill="#000000" transform="matrix(1,0,0,-1,17,29)"/>
  <path d="M-1.4375,0 v12 h1.1875 q-0.0625,-2.3125 2.2812,-3.75 q2.3438,-1.4375 6.0938,-1.75 v-2.8125 l-9.5625,-3.6875 Z" fill="#000000" transform="matrix(1,0,0,-1,25,29)"/>
  <path d="M-1.25,0 v6.875 h6.75 q-2.1875,1.625 -4.375,3.9375 q-0.5,0.5 -0.5312,0.8438 q-0.0312,0.3438 0.5312,0.7188 q0.9375,0.625 2.1875,1.9688 q1.25,1.3438 2.3125,2.9688 q0.1875,0.3125 0.625,0.375 q0.4375,0.0625 0.8125,-0.375 q3.375,-3.875 7.4375,-6.0312 q4.0625,-2.1562 8.6875,-3.125 q4.625,-0.9688 9.6875,-1.1875 q5.0625,-0.2188 10.375,-0.2188 q0.5,0 0.6562,-0.2812 q0.1562,-0.2812 -0.1562,-0.7188 q-1,-1.5 -2.0312,-2.5625 q-1.0312,-1.0625 -2.0938,-1.9375 q-0.5625,-0.5 -1.6875,-0.6875 q-1.125,-0.1875 -1.9375,-0.1875 q-3,0 -7.375,-0.0625 q-4.375,-0.0625 -9.1875,-0.125 q-3.875,-0.0625 -7.6875,-0.0938 q-3.8125,-0.0312 -7.1875,-0.0625 q-3.375,-0.0312 -5.8125,-0.0312 Z" fill="#000000" transform="matrix(1,0,0,-1,25,29)"/>
  <path d="" fill="#000000" transform="matrix(1,0,0,-1,69,29)"/>
  <path d="M4.3917,3.4097 q-0.6125,0.1244 -0.4881,0.7369 q0.0622,0.3062 0.3445,0.4402 q1.5589,0.7676 2.9777,1.7868 q1.4187,1.0192 2.7949,2.1428 q0.2335,0.2077 0.5397,0.1455 q0.6125,-0.1244 0.4881,-0.7369 q-0.0498,-0.245 -0.1971,-0.3426 q-2.8633,-2.4797 -6.0673,-4.1248 q-0.1474,-0.0976 -0.3924,-0.0479 Z M0.5167,8.2847 q-0.6125,0.1244 -0.4881,0.7369 q0.0622,0.3062 0.3445,0.4402 q1.5589,0.7676 2.9777,1.7868 q1.4187,1.0192 2.7949,2.1428 q0.2335,0.2077 0.5397,0.1455 q0.6125,-0.1244 0.4881,-0.7369 q-0.0498,-0.245 -0.1971,-0.3426 q-2.8633,-2.4797 -6.0673,-4.1248 q-0.1474,-0.0976 -0.3924,-0.0479 Z M2.4542,5.8472 q-0.6125,0.1244 -0.4881,0.7369 q0.0622,0.3062 0.3445,0.4402 q1.5589,0.7676 2.9777,1.7868 q1.4187,1.0192 2.7949,2.1428 q0.2335,0.2077 0.5397,0.1455 q0.6125,-0.1244 0.4881,-0.7369 q-0.0498,-0.245 -0.1971,-0.3426 q-2.8633,-2.4797 -6.0673,-4.1248 q-0.1474,-0.0976 -0.3924,-0.0479 Z" fill="#000000" transform="matrix(1,0,0,-1,94,29)"/>
  <path d="" fill="#000000" transform="matrix(1,0,0,-1,105,29)"/>
  <path d="M19.5625,-15.625 q-2,-0.5 -4.8438,-0.7812 q-2.8438,-0.2812 -5.9375,-0.3125 q-3.0938,-0.0312 -6.0312,0.2188 q-2.9375,0.25 -5.1875,0.875 q-2.25,0.625 -3.375,1.6875 q-0.5625,0.5625 -0.4062,1.0625 q0.1562,0.5 0.9688,0.5 q0.8125,0 2,1.1562 q1.1875,1.1562 1.9375,2.4062 q0.3125,0.5 0.7188,0.8438 q0.4062,0.3438 0.9688,0.0312 q2.375,-1.375 6.2188,-1.8125 q3.8438,-0.4375 8.2188,0.125 q-0.0625,0.0625 -0.125,0.25 q-0.0625,0.1875 -0.2188,0.375 q-0.1562,0.1875 -0.6562,0.125 q-4.75,-0.1875 -7.5312,0.2188 q-2.7812,0.4062 -4.125,1.5 q-1.3438,1.0938 -1.75,2.875 q-0.4062,1.7812 -0.4062,4.2812 v9.25 l7.4375,-1.9375 v-7.3125 q0,-0.25 0.1562,-0.5938 q0.1562,-0.3438 1.0312,-0.4688 q0.125,0 0.375,-0.0625 q0.5625,-0.0625 1.4688,-0.1875 q0.9062,-0.125 2.6562,-0.125 q1.75,0 4.9375,0.125 q1,0.0625 1.2812,-0.125 q0.2812,-0.1875 0.5938,-0.6875 q0.0625,-0.0625 0.0625,-0.125 q0.6875,-1.1875 1.2188,-2.8438 q0.5312,-1.6562 0.9688,-4.1562 q0.4375,-2.6875 -0.1562,-4.2812 q-0.5938,-1.5938 -2.4688,-2.0938 Z" fill="#000000" transform="matrix(1,0,0,-1,130,29)"/>
  <path d="M1.1106,1.5839 q-0.6173,-0.0978 -0.7151,0.5195 q-0.0489,0.3086 0.1687,0.5329 q1.1918,1.2645 2.1643,2.7157 q0.9724,1.4512 1.8685,2.9853 q0.1461,0.2762 0.4547,0.3251 q0.6173,0.0978 0.7151,-0.5195 q0.0391,-0.2469 -0.0648,-0.3899 q-1.8147,-3.3248 -4.2405,-5.987 q-0.1039,-0.143 -0.3508,-0.1821 Z M2.9856,-0.1036 q-0.6173,-0.0978 -0.7151,0.5195 q-0.0489,0.3086 0.1687,0.5329 q1.1918,1.2645 2.1643,2.7157 q0.9724,1.4512 1.8685,2.9853 q0.1461,0.2762 0.4547,0.3251 q0.6173,0.0978 0.7151,-0.5195 q0.0391,-0.2469 -0.0648,-0.3899 q-1.8147,-3.3248 -4.2405,-5.987 q-0.1039,-0.143 -0.3508,-0.1821 Z" fill="#000000" transform="matrix(1,0,0,-1,127,12)"/>
  <path d="M5.5,0 q-2.625,0 -3.9062,1.2188 q-1.2812,1.2188 -1.6875,3.2812 q-0.4062,2.0625 -0.4688,4.625 q0,1.625 -0.0312,2.7188 q-0.0312,1.0938 -0.2188,3.0312 q-0.0625,0.5 0.125,1 q0.1875,0.5 0.8125,0.6875 q0.875,0.3125 2,1.7812 q1.125,1.4688 2.5625,3.5938 q0.3125,0.375 0.7812,0.3125 q0.4688,-0.0625 0.5312,-0.9375 q0.1875,-2.4375 0.3125,-5.1562 q0.125,-2.7188 0.25,-6.3438 q0.0625,-1.0625 0.25,-2 q0.1875,-0.9375 0.75,-0.9375 v-6.875 h-2.0625 Z" fill="#000000" transform="matrix(1,0,0,-1,131,29)"/>
  <path d="M-1.4375,0 v12 h1.1875 q-0.0625,-2.3125 2.2812,-3.75 q2.3438,-1.4375 6.0938,-1.75 v-2.8125 l-9.5625,-3.6875 Z" fill="#000000" transform="matrix(1,0,0,-1,138,29)"/>
  <path d="M-1.25,0 v6.875 h6.75 q-2.1875,1.625 -4.375,3.9375 q-0.5,0.5 -0.5312,0.8438 q-0.0312,0.3438 0.5312,0.7188 q0.9375,0.625 2.1875,1.9688 q1.25,1.3438 2.3125,2.9688 q0.1875,0.3125 0.625,0.375 q0.4375,0.0625 0.8125,-0.375 q3.375,-3.875 7.4375,-6.0312 q4.0625,-2.1562 8.6875,-3.125 q4.625,-0.9688 9.6875,-1.1875 q5.0625,-0.2188 10.375,-0.2188 q0.5,0 0.6562,-0.2812 q0.1562,-0.2812 -0.1562,-0.7188 q-1,-1.5 -2.0312,-2.5625 q-1.0312,-1.0625 -2.0938,-1.9375 q-0.5625,-0.5 -1.6875,-0.6875 q-1.125,-0.1875 -1.9375,-0.1875 q-3,0 -7.375,-0.0625 q-4.375,-0.0625 -9.1875,-0.125 q-3.875,-0.0625 -7.6875,-0.0938 q-3.8125,-0.0312 -7.1875,-0.0625 q-3.375,-0.0312 -5.8125,-0.0312 Z" fill="#000000" transform="matrix(1,0,0,-1,138,29)"/>
  <path d="" fill="#000000" transform="matrix(1,0,0,-1,182,29)"/>
  <path d="M4.3917,3.4097 q-0.6125,0.1244 -0.4881,0.7369 q0.0622,0.3062 0.3445,0.4402 q1.5589,0.7676 2.9777,1.7868 q1.4187,1.0192 2.7949,2.1428 q0.2335,0.2077 0.5397,0.1455 q0.6125,-0.1244 0.4881,-0.7369 q-0.0498,-0.245 -0.1971,-0.3426 q-2.8633,-2.4797 -6.0673,-4.1248 q-0.1474,-0.0976 -0.3924,-0.0479 Z M0.5167,8.2847 q-0.6125,0.1244 -0.4881,0.7369 q0.0622,0.3062 0.3445,0.4402 q1.5589,0.7676 2.9777,1.7868 q1.4187,1.0192 2.7949,2.1428 q0.2335,0.2077 0.5397,0.1455 q0.6125,-0.1244 0.4881,-0.7369 q-0.0498,-0.245 -0.1971,-0.3426 q-2.8633,-2.4797 -6.0673,-4.1248 q-0.1474,-0.0976 -0.3924,-0.0479 Z M2.4542,5.8472 q-0.6125,0.1244 -0.4881,0.7369 q0.0622,0.3062 0.3445,0.4402 q1.5589,0.7676 2.9777,1.7868 q1.4187,1.0192 2.7949,2.1428 q0.2335,0.2077 0.5397,0.1455 q0.6125,-0.1244 0.4881,-0.7369 q-0.0498,-0.245 -0.1971,-0.3426 q-2.8633,-2.4797 -6.0673,-4.1248 q-0.1474,-0.0976 -0.3924,-0.0479 Z" fill="#000000" transform="matrix(1,0,0,-1,207,29)"/>
  <path d="" fill="#000000" transform="matrix(1,0,0,-1,218,29)"/>
  <path d="M1,2 q-0.625,0 -0.625,0.625 q0,0.3125 0.25,0.5 q1.375,1.0625 2.5625,2.3438 q1.1875,1.2812 2.3125,2.6562 q0.1875,0.25 0.5,0.25 q0.625,0 0.625,-0.625 q0,-0.25 -0.125,-0.375 q-2.3125,-3 -5.125,-5.25 q-0.125,-0.125 -0.375,-0.125 Z M2.875,0.3125 q-0.625,0 -0.625,0.625 q0,0.3125 0.25,0.5 q1.375,1.0625 2.5625,2.3438 q1.1875,1.2812 2.3125,2.6562 q0.1875,0.25 0.5,0.25 q0.625,0 0.625,-0.625 q0,-0.25 -0.125,-0.375 q-2.3125,-3 -5.125,-5.25 q-0.125,-0.125 -0.375,-0.125 Z" fill="#000000" transform="matrix(1,0,0,-1,264,50)"/>
  <path d="M21.375,-16.1875 q-2,-0.5 -4.875,-0.8438 q-2.875,-0.3438 -6,-0.4688 q-3.125,-0.125 -6.0938,0.125 q-2.9688,0.25 -5.25,0.9688 q-2.2812,0.7188 -3.4062,1.9688 q-0.5,0.625 -0.375,1.0938 q0.125,0.4688 0.9375,0.4688 q0.8125,0 2,1.3125 q1.1875,1.3125 1.9375,2.5625 q0.3125,0.5 0.7188,0.8438 q0.4062,0.3438 0.9688,0.0312 q2.375,-1.375 6.3125,-1.875 q3.9375,-0.5 8,0.0625 q-0.0625,0.0625 -0.125,0.25 q-0.0625,0.1875 -0.2188,0.375 q-0.1562,0.1875 -0.6562,0.125 q-15.25,-0.875 -15.25,11.0625 q0,3.0625 1.4375,5.75 q1.4375,2.6875 3.7812,4.3438 q2.3438,1.6562 5.0938,1.5938 q1.3125,0 2.25,-0.9062 q0.9375,-0.9062 1.7188,-2.1562 q0.7812,-1.25 1.5625,-2.2812 q0.7812,-1.0312 1.7812,-1.3438 v-6.875 q-0.4375,0 -0.875,0 q-0.4375,0 -0.8125,0 q-2.6875,-0.0625 -4.4688,0.1562 q-1.7812,0.2188 -3.1562,1.4688 q-0.5,0.5 -0.7188,0.25 q-0.2188,-0.25 0.0938,-0.8125 q0.5625,-0.9375 1.9375,-1.4688 q1.375,-0.5312 3.0938,-0.75 q1.7188,-0.2188 3.4375,-0.2188 q1.7188,0 2.9688,0 q1.0625,0 1.3438,-0.1875 q0.2812,-0.1875 0.5938,-0.75 q0.6875,-1.1875 1.5938,-3.0938 q0.9062,-1.9062 1.3438,-4.4062 q0.4375,-2.6875 -0.1562,-4.2812 q-0.5938,-1.5938 -2.4688,-2.0938 Z" fill="#000000" transform="matrix(1,0,0,-1,243,29)"/>
  <path d="M4.6875,0.875 q-1.5,0 -2.6562,1.1562 q-1.1562,1.1562 -1.1562,2.6562 q0,1.5625 1.1562,2.6875 q1.1562,1.125 2.6562,1.125 q1.5625,0 2.6875,-1.125 q1.125,-1.125 1.125,-2.6875 q0,-1.5 -1.125,-2.6562 q-1.125,-1.1562 -2.6875,-1.1562 Z" fill="#902900" fill-opacity="0.902" transform="matrix(1,0,0,-1,264,36)"/>
  <path d="M-1.25,0 v6.875 h2.375 q-0.0625,3 -0.2188,7.4375 q-0.1562,4.4375 -0.4062,9.4375 q-0.25,5 -0.5,9.8125 q-0.25,4.8125 -0.5,8.5625 q0,0.125 -0.0625,0.375 q-0.0625,0.375 -0.0312,0.875 q0.0312,0.5 0.5938,1 q0.5625,0.4375 1.4375,1.2188 q0.875,0.7812 1.6875,1.6562 q0.8125,0.875 1.1875,1.5625 q0.5,0.875 1,0.6562 q0.5,-0.2188 0.5625,-1.2812 q0.1875,-3.6875 0.375,-8.0625 q0.1875,-4.375 0.4062,-9 q0.2188,-4.625 0.4062,-9.0312 q0.1875,-4.4062 0.375,-8.25 q0.1875,-3.8438 0.25,-6.5938 q0.125,-3.375 -0.5625,-4.875 q-0.6875,-1.5 -2.1875,-1.9062 q-1.5,-0.4062 -3.8125,-0.4688 h-2.375 Z M1.125,0 v6.875 h7.5 v-6.875 h-7.5 Z" fill="#000000" transform="matrix(1,0,0,-1,261,29)"/>
  <path d="M-0.625,0 l-0.875,14.625 h1.125 q0.0625,-2.4375 1.0625,-4.0938 q1,-1.6562 2.4375,-2.5312 q1.4375,-0.875 2.8125,-1.125 v-6.875 h-6.5625 Z" fill="#000000" transform="matrix(1,0,0,-1,269,29)"/>
  <path d="M-1.25,0 v6.875 h4.375 q-1.75,1.6875 -2.375,3.9688 q-0.625,2.2812 0.8125,3.7812 q0.625,0.6875 1.875,1.9062 q1.25,1.2188 2.6562,2.5938 q1.4062,1.375 2.5312,2.4375 q1.125,1.0625 1.5,1.4375 q0.6875,0.6875 1.0312,0.25 q0.3438,-0.4375 -0.1562,-1 q-0.375,-0.4375 -1.0312,-1.4062 q-0.6562,-0.9688 -1.3125,-1.9688 q-0.6562,-1 -0.9688,-1.5625 q-0.875,-1.5 0.5,-3.25 q1.375,-1.75 4.4688,-3.3438 q3.0938,-1.5938 7.3438,-2.6562 q4.125,-1.0625 7.3438,-1.4062 q3.2188,-0.3438 6.4062,-0.2812 q3.1875,0.0625 7.25,0.25 q0.3125,0 0.6562,0.0312 q0.3438,0.0312 0.6562,0.0312 q0.8125,0.0625 0.8125,-0.3125 q0,-0.375 -0.375,-0.6875 q-1.1875,-0.875 -2.6562,-2.375 q-1.4688,-1.5 -2.5312,-2.25 q-0.3125,-0.25 -0.625,-0.4062 q-0.3125,-0.1562 -0.625,-0.1562 q-5.625,-0.1875 -10.125,-0.3125 q-4.5,-0.125 -8.6875,-0.1875 q-4.1875,-0.0625 -8.6875,-0.0625 q-4.5,0 -10.0625,0.0625 Z" fill="#000000" transform="matrix(1,0,0,-1,272,29)"/>
  <path d="" fill="#000000" transform="matrix(1,0,0,-1,315,29)"/>
  <path d="M4.3917,3.4097 q-0.6125,0.1244 -0.4881,0.7369 q0.0622,0.3062 0.3445,0.4402 q1.5589,0.7676 2.9777,1.7868 q1.4187,1.0192 2.7949,2.1428 q0.2335,0.2077 0.5397,0.1455 q0.6125,-0.1244 0.4881,-0.7369 q-0.0498,-0.245 -0.1971,-0.3426 q-2.8633,-2.4797 -6.0673,-4.1248 q-0.1474,-0.0976 -0.3924,-0.0479 Z M0.5167,8.2847 q-0.6125,0.1244 -0.4881,0.7369 q0.0622,0.3062 0.3445,0.4402 q1.5589,0.7676 2.9777,1.7868 q1.4187,1.0192 2.7949,2.1428 q0.2335,0.2077 0.5397,0.1455 q0.6125,-0.1244 0.4881,-0.7369 q-0.0498,-0.245 -0.1971,-0.3426 q-2.8633,-2.4797 -6.0673,-4.1248 q-0.1474,-0.0976 -0.3924,-0.0479 Z M2.4542,5.8472 q-0.6125,0.1244 -0.4881,0.7369 q0.0622,0.3062 0.3445,0.4402 q1.5589,0.7676 2.9777,1.7868 q1.4187,1.0192 2.7949,2.1428 q0.2335,0.2077 0.5397,0.1455 q0.6125,-0.1244 0.4881,-0.7369 q-0.0498,-0.245 -0.1971,-0.3426 q-2.8633,-2.4797 -6.0673,-4.1248 q-0.1474,-0.0976 -0.3924,-0.0479 Z" fill="#000000" transform="matrix(1,0,0,-1,340,29)"/>
  <path d="" fill="#000000" transform="matrix(1,0,0,-1,351,29)"/>
  <path d="M1,2 q-0.625,0 -0.625,0.625 q0,0.3125 0.25,0.5 q1.375,1.0625 2.5625,2.3438 q1.1875,1.2812 2.3125,2.6562 q0.1875,0.25 0.5,0.25 q0.625,0 0.625,-0.625 q0,-0.25 -0.125,-0.375 q-2.3125,-3 -5.125,-5.25 q-0.125,-0.125 -0.375,-0.125 Z M2.875,0.3125 q-0.625,0 -0.625,0.625 q0,0.3125 0.25,0.5 q1.375,1.0625 2.5625,2.3438 q1.1875,1.2812 2.3125,2.6562 q0.1875,0.25 0.5,0.25 q0.625,0 0.625,-0.625 q0,-0.25 -0.125,-0.375 q-2.3125,-3 -5.125,-5.25 q-0.125,-0.125 -0.375,-0.125 Z" fill="#000000" transform="matrix(1,0,0,-1,395,50)"/>
  <path d="M19.5625,-15.625 q-2,-0.5 -4.8438,-0.7812 q-2.8438,-0.2812 -5.9375,-0.3125 q-3.0938,-0.0312 -6.0312,0.2188 q-2.9375,0.25 -5.1875,0.875 q-2.25,0.625 -3.375,1.6875 q-0.5625,0.5625 -0.4062,1.0625 q0.1562,0.5 0.9688,0.5 q0.8125,0 2,1.1562 q1.1875,1.1562 1.9375,2.4062 q0.3125,0.5 0.7188,0.8438 q0.4062,0.3438 0.9688,0.0312 q2.375,-1.375 6.2188,-1.8125 q3.8438,-0.4375 8.2188,0.125 q-0.0625,0.0625 -0.125,0.25 q-0.0625,0.1875 -0.2188,0.375 q-0.1562,0.1875 -0.6562,0.125 q-4.75,-0.1875 -7.5312,0.2188 q-2.7812,0.4062 -4.125,1.5 q-1.3438,1.0938 -1.75,2.875 q-0.4062,1.7812 -0.4062,4.2812 v9.25 l7.4375,-1.9375 v-7.3125 q0,-0.25 0.1562,-0.5938 q0.1562,-0.3438 1.0312,-0.4688 q0.125,0 0.375,-0.0625 q0.5625,-0.0625 1.4688,-0.1875 q0.9062,-0.125 2.6562,-0.125 q1.75,0 4.9375,0.125 q1,0.0625 1.2812,-0.125 q0.2812,-0.1875 0.5938,-0.6875 q0.0625,-0.0625 0.0625,-0.125 q0.6875,-1.1875 1.2188,-2.8438 q0.5312,-1.6562 0.9688,-4.1562 q0.4375,-2.6875 -0.1562,-4.2812 q-0.5938,-1.5938 -2.4688,-2.0938 Z" fill="#000000" transform="matrix(1,0,0,-1,376,29)"/>
  <path d="M5.5,0 q-3,0 -4.4688,1.875 q-1.4688,1.875 -1.5938,7.25 q-0.0625,1.75 -0.0938,4.5 q-0.0312,2.75 -0.0625,6.0312 q-0.0312,3.2812 -0.125,6.6875 q-0.0938,3.4062 -0.25,6.4688 q-0.1562,3.0625 -0.3438,5.3125 q0,0.25 -0.0312,0.4375 q-0.0312,0.1875 -0.0312,0.375 q-0.25,2.625 -0.2188,3.6562 q0.0312,1.0312 0.7812,1.5312 q1.25,0.75 2.3438,2.0312 q1.0938,1.2812 2.0938,2.9688 q0.3125,0.5 0.8125,0.4375 q0.5,-0.0625 0.5,-1 q0,-3 0.0625,-6.7812 q0.0625,-3.7812 0.1562,-7.7812 q0.0938,-4 0.1875,-7.6875 q0.0938,-3.6875 0.1562,-6.5312 q0.0625,-2.8438 0.125,-4.3438 q0.1875,-3.5 0.3125,-5.375 q0.125,-1.875 0.3125,-2.5312 q0.1875,-0.6562 0.5625,-0.6562 v-6.875 h-1.1875 Z" fill="#000000" transform="matrix(1,0,0,-1,377,29)"/>
  <path d="M-0.625,0 l-0.875,14.625 h1.125 q0.0625,-2.4375 1.0625,-4.0938 q1,-1.6562 2.4375,-2.5312 q1.4375,-0.875 2.8125,-1.125 v-6.875 h-6.5625 Z" fill="#000000" transform="matrix(1,0,0,-1,383,29)"/>
  <path d="M-1.25,0 v6.875 h4.375 q-1.75,1.6875 -2.375,3.9688 q-0.625,2.2812 0.8125,3.7812 q0.625,0.6875 1.875,1.9062 q1.25,1.2188 2.6562,2.5938 q1.4062,1.375 2.5312,2.4375 q1.125,1.0625 1.5,1.4375 q0.6875,0.6875 1.0312,0.25 q0.3438,-0.4375 -0.1562,-1 q-0.375,-0.4375 -1.0312,-1.4062 q-0.6562,-0.9688 -1.3125,-1.9688 q-0.6562,-1 -0.9688,-1.5625 q-0.875,-1.5 0.5,-3.25 q1.375,-1.75 4.4688,-3.3438 q3.0938,-1.5938 7.3438,-2.6562 q4.125,-1.0625 7.3438,-1.4062 q3.2188,-0.3438 6.4062,-0.2812 q3.1875,0.0625 7.25,0.25 q0.3125,0 0.6562,0.0312 q0.3438,0.0312 0.6562,0.0312 q0.8125,0.0625 0.8125,-0.3125 q0,-0.375 -0.375,-0.6875 q-1.1875,-0.875 -2.6562,-2.375 q-1.4688,-1.5 -2.5312,-2.25 q-0.3125,-0.25 -0.625,-0.4062 q-0.3125,-0.1562 -0.625,-0.1562 q-5.625,-0.1875 -10.125,-0.3125 q-4.5,-0.125 -8.6875,-0.1875 q-4.1875,-0.0625 -8.6875,-0.0625 q-4.5,0 -10.0625,0.0625 Z" fill="#000000" transform="matrix(1,0,0,-1,386,29)"/>
  <path d="" fill="#000000" transform="matrix(1,0,0,-1,429,29)"/>
  <path d="M4.3917,3.4097 q-0.6125,0.1244 -0.4881,0.7369 q0.0622,0.3062 0.3445,0.4402 q1.5589,0.7676 2.9777,1.7868 q1.4187,1.0192 2.7949,2.1428 q0.2335,0.2077 0.5397,0.1455 q0.6125,-0.1244 0.4881,-0.7369 q-0.0498,-0.245 -0.1971,-0.3426 q-2.8633,-2.4797 -6.0673,-4.1248 q-0.1474,-0.0976 -0.3924,-0.0479 Z M0.5167,8.2847 q-0.6125,0.1244 -0.4881,0.7369 q0.0622,0.3062 0.3445,0.4402 q1.5589,0.7676 2.9777,1.7868 q1.4187,1.0192 2.7949,2.1428 q0.2335,0.2077 0.5397,0.1455 q0.6125,-0.1244 0.4881,-0.7369 q-0.0498,-0.245 -0.1971,-0.3426 q-2.8633,-2.4797 -6.0673,-4.1248 q-0.1474,-0.0976 -0.3924,-0.0479 Z M2.4542,5.8472 q-0.6125,0.1244 -0.4881,0.7369 q0.0622,0.3062 0.3445,0.4402 q1.5589,0.7676 2.9777,1.7868 q1.4187,1.0192 2.7949,2.1428 q0.2335,0.2077 0.5397,0.1455 q0.6125,-0.1244 0.4881,-0.7369 q-0.0498,-0.245 -0.1971,-0.3426 q-2.8633,-2.4797 -6.0673,-4.1248 q-0.1474,-0.0976 -0.3924,-0.0479 Z" fill="#000000" transform="matrix(1,0,0,-1,454,29)"/>
  <path d="" fill="#000000" transform="matrix(1,0,0,-1,465,29)"/>
  <path d="" fill="#000000" transform="matrix(1,0,0,-1,490,29)"/>
  <path d="M1,2 q-0.625,0 -0.625,0.625 q0,0.3125 0.25,0.5 q1.375,1.0625 2.5625,2.3438 q1.1875,1.2812 2.3125,2.6562 q0.1875,0.25 0.5,0.25 q0.625,0 0.625,-0.625 q0,-0.25 -0.125,-0.375 q-2.3125,-3 -5.125,-5.25 q-0.125,-0.125 -0.375,-0.125 Z M2.875,0.3125 q-0.625,0 -0.625,0.625 q0,0.3125 0.25,0.5 q1.375,1.0625 2.5625,2.3438 q1.1875,1.2812 2.3125,2.6562 q0.1875,0.25 0.5,0.25 q0.625,0 0.625,-0.625 q0,-0.25 -0.125,-0.375 q-2.3125,-3 -5.125,-5.25 q-0.125,-0.125 -0.375,-0.125 Z" fill="#000000" transform="matrix(1,0,0,-1,511,50)"/>
  <path d="M21.375,-16.1875 q-2,-0.5 -4.875,-0.8438 q-2.875,-0.3438 -6,-0.4688 q-3.125,-0.125 -6.0938,0.125 q-2.9688,0.25 -5.25,0.9688 q-2.2812,0.7188 -3.4062,1.9688 q-0.5,0.625 -0.375,1.0938 q0.125,0.4688 0.9375,0.4688 q0.8125,0 2,1.3125 q1.1875,1.3125 1.9375,2.5625 q0.3125,0.5 0.7188,0.8438 q0.4062,0.3438 0.9688,0.0312 q2.375,-1.375 6.3125,-1.875 q3.9375,-0.5 8,0.0625 q-0.0625,0.0625 -0.125,0.25 q-0.0625,0.1875 -0.2188,0.375 q-0.1562,0.1875 -0.6562,0.125 q-15.25,-0.875 -15.25,11.0625 q0,3.0625 1.4375,5.75 q1.4375,2.6875 3.7812,4.3438 q2.3438,1.6562 5.0938,1.5938 q1.3125,0 2.25,-0.9062 q0.9375,-0.9062 1.7188,-2.1562 q0.7812,-1.25 1.5625,-2.2812 q0.7812,-1.0312 1.7812,-1.3438 v-6.875 q-0.4375,0 -0.875,0 q-0.4375,0 -0.8125,0 q-2.6875,-0.0625 -4.4688,0.1562 q-1.7812,0.2188 -3.1562,1.4688 q-0.5,0.5 -0.7188,0.25 q-0.2188,-0.25 0.0938,-0.8125 q0.5625,-0.9375 1.9375,-1.4688 q1.375,-0.5312 3.0938,-0.75 q1.7188,-0.2188 3.4375,-0.2188 q1.7188,0 2.9688,0 q1.0625,0 1.3438,-0.1875 q0.2812,-0.1875 0.5938,-0.75 q0.6875,-1.1875 1.5938,-3.0938 q0.9062,-1.9062 1.3438,-4.4062 q0.4375,-2.6875 -0.1562,-4.2812 q-0.5938,-1.5938 -2.4688,-2.0938 Z" fill="#000000" transform="matrix(1,0,0,-1,490,29)"/>
  <path d="M4.6875,0.875 q-1.5,0 -2.6562,1.1562 q-1.1562,1.1562 -1.1562,2.6562 q0,1.5625 1.1562,2.6875 q1.1562,1.125 2.6562,1.125 q1.5625,0 2.6875,-1.125 q1.125,-1.125 1.125,-2.6875 q0,-1.5 -1.125,-2.6562 q-1.125,-1.1562 -2.6875,-1.1562 Z" fill="#902900" fill-opacity="0.902" transform="matrix(1,0,0,-1,516,37)"/>
  <path d="M15.0625,-0.125 l-16.3125,0.125 v6.875 h3.4375 q-0.25,0.5 -0.625,1.8125 q-0.375,1.3125 -0.5625,1.875 q-0.1875,0.625 0,0.9062 q0.1875,0.2812 0.6875,0.5312 q1.25,0.5625 1.9688,1.5312 q0.7188,0.9688 1.7188,2.6562 q0.3125,0.5625 0.8438,0.5625 q0.5312,0 0.6562,-0.6875 q0.6875,-3.25 1.1875,-5 q0.5,-1.75 1.5625,-2.3125 q-0.375,0.875 -0.6562,1.875 q-0.2812,1 -0.3438,1.875 q0,0.4375 0.2812,0.6875 q0.2812,0.25 0.5938,0.4375 q1.25,0.625 2.1562,1.5625 q0.9062,0.9375 1.6562,2.8125 q0.1875,0.4375 0.5625,0.5 q0.375,0.0625 0.5,-0.4375 q0.5625,-1.5625 0.9062,-3.4062 q0.3438,-1.8438 0.7812,-3.4375 q0.4375,-1.5938 1.125,-2.4062 q-0.125,1 -0.3125,2.3438 q-0.1875,1.3438 -0.375,2.5625 q-0.1875,1.2188 -0.3125,1.7188 q-0.125,0.5 0.0312,0.75 q0.1562,0.25 0.4688,0.4375 q0.1875,0.125 0.25,0.1875 q1,0.6875 2.0312,1.9688 q1.0312,1.2812 1.4062,2.7812 q0.1875,0.75 0.6562,0.8438 q0.4688,0.0938 0.6562,-0.7812 q0.25,-1.1875 0.5938,-3.375 q0.3438,-2.1875 0.6875,-4.7188 q0.3438,-2.5312 0.5312,-4.9375 q0.1875,-2.4062 0.125,-4.0938 q-0.0625,-1.1875 -0.7812,-2.2812 q-0.7188,-1.0938 -2.5625,-1.7188 q-1.8438,-0.625 -5.2188,-0.625 Z" fill="#000000" transform="matrix(1,0,0,-1,506,29)"/>
  <path d="" fill="#000000" transform="matrix(1,0,0,-1,530,29)"/>
  <path d="M4.3917,3.4097 q-0.6125,0.1244 -0.4881,0.7369 q0.0622,0.3062 0.3445,0.4402 q1.5589,0.7676 2.9777,1.7868 q1.4187,1.0192 2.7949,2.1428 q0.2335,0.2077 0.5397,0.1455 q0.6125,-0.1244 0.4881,-0.7369 q-0.0498,-0.245 -0.1971,-0.3426 q-2.8633,-2.4797 -6.0673,-4.1248 q-0.1474,-0.0976 -0.3924,-0.0479 Z M0.5167,8.2847 q-0.6125,0.1244 -0.4881,0.7369 q0.0622,0.3062 0.3445,0.4402 q1.5589,0.7676 2.9777,1.7868 q1.4187,1.0192 2.7949,2.1428 q0.2335,0.2077 0.5397,0.1455 q0.6125,-0.1244 0.4881,-0.7369 q-0.0498,-0.245 -0.1971,-0.3426 q-2.8633,-2.4797 -6.0673,-4.1248 q-0.1474,-0.0976 -0.3924,-0.0479 Z M2.4542,5.8472 q-0.6125,0.1244 -0.4881,0.7369 q0.0622,0.3062 0.3445,0.4402 q1.5589,0.7676 2.9777,1.7868 q1.4187,1.0192 2.7949,2.1428 q0.2335,0.2077 0.5397,0.1455 q0.6125,-0.1244 0.4881,-0.7369 q-0.0498,-0.245 -0.1971,-0.3426 q-2.8633,-2.4797 -6.0673,-4.1248 q-0.1474,-0.0976 -0.3924,-0.0479 Z" fill="#000000" transform="matrix(1,0,0,-1,555,29)"/>
  <path d="" fill="#000000" transform="matrix(1,0,0,-1,566,29)"/>
  <path d="" fill="#000000" transform="matrix(1,0,0,-1,591,29)"/>
  <path d="M1,2 q-0.625,0 -0.625,0.625 q0,0.3125 0.25,0.5 q1.375,1.0625 2.5625,2.3438 q1.1875,1.2812 2.3125,2.6562 q0.1875,0.25 0.5,0.25 q0.625,0 0.625,-0.625 q0,-0.25 -0.125,-0.375 q-2.3125,-3 -5.125,-5.25 q-0.125,-0.125 -0.375,-0.125 Z M2.875,0.3125 q-0.625,0 -0.625,0.625 q0,0.3125 0.25,0.5 q1.375,1.0625 2.5625,2.3438 q1.1875,1.2812 2.3125,2.6562 q0.1875,0.25 0.5,0.25 q0.625,0 0.625,-0.625 q0,-0.25 -0.125,-0.375 q-2.3125,-3 -5.125,-5.25 q-0.125,-0.125 -0.375,-0.125 Z" fill="#000000" transform="matrix(1,0,0,-1,612,50)"/>
  <path d="M21.0625,-15.9375 q-3.4375,-0.625 -7.5312,-0.9062 q-4.0938,-0.2812 -8,-0.0938 q-3.9062,0.1875 -6.9375,0.8438 q-3.0312,0.6562 -4.4062,1.8438 q-0.625,0.5 -0.4375,1.0312 q0.1875,0.5312 1,0.5312 q0.8125,0 2,1.3125 q1.1875,1.3125 1.9375,2.5625 q0.3125,0.5 0.7188,0.8438 q0.4062,0.3438 0.9688,0.0312 q2.375,-1.375 6.3125,-1.7812 q3.9375,-0.4062 10.1875,-0.0312 q-0.125,0.25 -0.2188,0.5625 q-0.0938,0.3125 -0.7812,0.3125 q-4.4375,-0.125 -7.25,0.0625 q-2.8125,0.1875 -4.4062,0.7812 q-1.5938,0.5938 -2.5312,1.5312 q-1.125,1.1875 -1.3125,3.0938 q-0.1875,1.9062 -0.375,3.4688 q-0.25,2.25 -0.5,4.9062 q-0.25,2.6562 -0.5625,4.4062 q-0.0625,0.5 0.0312,0.7188 q0.0938,0.2188 0.5938,0.6562 q1.3125,1.125 2.2188,2.3125 q0.9062,1.1875 1.9062,3.0625 q0.25,0.4375 0.75,0.6562 q0.5,0.2188 0.5625,-0.9688 q0.125,-1.1875 0.2812,-2.25 q0.1562,-1.0625 0.3438,-2.8125 q0.125,-1.1875 0.4688,-1.6875 q0.3438,-0.5 0.7188,-0.625 q-0.0625,0.75 -0.125,1.4688 q-0.0625,0.7188 -0.125,1.0312 q-0.0625,0.5 0.0312,0.7188 q0.0938,0.2188 0.5938,0.6562 q1.3125,1.125 2.2188,2.3125 q0.9062,1.1875 1.9062,3.0625 q0.25,0.4375 0.75,0.6562 q0.5,0.2188 0.5625,-0.9688 q0.125,-1.1875 0.2812,-2.25 q0.1562,-1.0625 0.3438,-2.8125 q0.125,-1.25 0.5,-2 q0.375,-0.75 0.75,-1.125 q-0.0625,1.6875 -0.2188,2.5625 q-0.1562,0.875 -0.2812,1.625 q-0.0625,0.5 0.0625,0.8125 q0.125,0.3125 0.75,0.5625 q1.3125,0.5 2.2188,1.9062 q0.9062,1.4062 2.3438,3.5312 q0.3125,0.375 0.75,0.3125 q0.4375,-0.0625 0.4375,-0.9375 q0.0625,-2.375 0.3125,-4.625 q0.25,-2.25 0.4688,-4.7188 q0.2188,-2.4688 0.2812,-5.6562 q0.0625,-1.5625 -1.1562,-3.0625 q-1.2188,-1.5 -3.8438,-1.5 q-3.125,0 -5.0625,0.0312 q-1.9375,0.0312 -3.9375,0.2188 q0.0625,-0.5 0.3438,-0.6875 q0.2812,-0.1875 0.7812,-0.3125 q0.625,-0.125 1.5625,-0.2812 q0.9375,-0.1562 3.1875,-0.2188 q2.25,-0.0625 6.625,-0.0625 q1.0625,0 1.3438,-0.1875 q0.2812,-0.1875 0.5938,-0.75 q0.6875,-1.1875 1,-2.8438 q0.3125,-1.6562 0.75,-4.1562 q0.4375,-2.6875 -0.2188,-4.5 q-0.6562,-1.8125 -2.5312,-2.1875 Z" fill="#000000" transform="matrix(1,0,0,-1,591,29)"/>
</svg>
