<?xml version='1.0' encoding='ASCII'?>
<svg xmlns="http://www.w3.org/2000/svg" width="337" height="87" preserveAspectRatio="xMinYMin slice" viewBox="-4 -35 337 87" version="1.1">
  <path d="M-4,-35 v87 h337 v-87 Z" fill="#000000" transform="matrix(1,0,0,-1,0,17)"/>
  <path d="M1,2 q-0.625,0 -0.625,0.625 q0,0.3125 0.25,0.5 q1.375,1.0625 2.5625,2.3438 q1.1875,1.2812 2.3125,2.6562 q0.1875,0.25 0.5,0.25 q0.625,0 0.625,-0.625 q0,-0.25 -0.125,-0.375 q-2.3125,-3 -5.125,-5.25 q-0.125,-0.125 -0.375,-0.125 Z M2.875,0.3125 q-0.625,0 -0.625,0.625 q0,0.3125 0.25,0.5 q1.375,1.0625 2.5625,2.3438 q1.1875,1.2812 2.3125,2.6562 q0.1875,0.25 0.5,0.25 q0.625,0 0.625,-0.625 q0,-0.25 -0.125,-0.375 q-2.3125,-3 -5.125,-5.25 q-0.125,-0.125 -0.375,-0.125 Z" fill="#D3D3D3" transform="matrix(1,0,0,-1,15,50)"/>
  <path d="M14.8125,-26.875 q-2.625,-0.375 -5.7812,-0.375 q-3.1562,0 -5.9375,0.5312 q-2.7812,0.5312 -4.4062,1.6562 q-0.625,0.4375 -0.4375,1 q0.1875,0.5625 1,0.5625 q0.8125,0 2,1.3125 q1.1875,1.3125 1.9375,2.5625 q0.3125,0.5 0.6875,0.7812 q0.375,0.2812 1,0.0938 q2.125,-0.75 4.2812,-0.9375 q2.1562,-0.1875 4.5938,0 q0,0.25 0.0312,0.4375 q0.0312,0.1875 0.0312,0.4375 q0.0625,2.6875 0.0312,5.4062 q-0.0312,2.7188 -0.5938,4.1562 q-6.4375,-0.0625 -9.8438,2.6562 q-3.4062,2.7188 -3.4062,8.4688 q0,3.0625 1.4375,5.75 q1.4375,2.6875 3.8125,4.3438 q2.375,1.6562 5.125,1.5938 q1.25,0 2.1875,-0.9062 q0.9375,-0.9062 1.7188,-2.1562 q0.7812,-1.25 1.5625,-2.2812 q0.7812,-1.0312 1.7812,-1.3438 v-6.875 q-0.4375,0 -0.875,0 q-0.4375,0 -0.8125,0 q-2.6875,-0.0625 -4.4688,0.1562 q-1.7812,0.2188 -3.1562,1.4688 q-0.5625,0.5 -0.75,0.25 q-0.1875,-0.25 0.125,-0.8125 q0.5625,-0.9375 1.8125,-1.4375 q1.25,-0.5 2.75,-0.7188 q1.5,-0.2188 2.8125,-0.25 q1.3125,-0.0312 2,-0.0312 q0.125,0 0.1875,0 q1.0625,0 1.3125,-0.625 q0.25,-0.625 0.25,-1.125 q-0.125,-1.8125 -0.0625,-3.5625 q0.0625,-1.75 0.125,-3.5 q0.0625,-0.8125 0.0938,-1.625 q0.0312,-0.8125 0.0312,-1.625 q0.125,-2.3125 0.3125,-4.2812 q0.1875,-1.9688 0.1875,-3.4062 q0,-2.8125 -1.4062,-4.125 q-1.4062,-1.3125 -3.2812,-1.625 Z" fill="#D3D3D3" transform="matrix(1,0,0,-1,-1,17)"/>
  <path d="M-0.3125,0 l-3.3125,11.0625 h1.125 q1.4375,-1.9375 3.3438,-3.0625 q1.9062,-1.125 3.3438,-1.125 v-6.875 h-4.5 Z" fill="#D3D3D3" transform="matrix(1,0,0,-1,16,17)"/>
  <path d="M-1.25,0 v6.875 h6.75 q-2.1875,1.625 -4.375,3.9375 q-0.5,0.5 -0.5312,0.8438 q-0.0312,0.3438 0.5312,0.7188 q0.9375,0.625 2.1875,1.9688 q1.25,1.3438 2.3125,2.9688 q0.1875,0.3125 0.625,0.375 q0.4375,0.0625 0.8125,-0.375 q3.375,-3.875 7.4375,-6.0312 q4.0625,-2.1562 8.6875,-3.125 q4.625,-0.9688 9.6875,-1.1875 q5.0625,-0.2188 10.375,-0.2188 q0.5,0 0.6562,-0.2812 q0.1562,-0.2812 -0.1562,-0.7188 q-1,-1.5 -2.0312,-2.5625 q-1.0312,-1.0625 -2.0938,-1.9375 q-0.5625,-0.5 -1.6875,-0.6875 q-1.125,-0.1875 -1.9375,-0.1875 q-3,0 -7.375,-0.0625 q-4.375,-0.0625 -9.1875,-0.125 q-3.875,-0.0625 -7.6875,-0.0938 q-3.8125,-0.0312 -7.1875,-0.0625 q-3.375,-0.0312 -5.8125,-0.0312 Z" fill="#D3D3D3" transform="matrix(1,0,0,-1,15,17)"/>
  <path d="" fill="#D3D3D3" transform="matrix(1,0,0,-1,59,17)"/>
  <path d="M4.3917,3.4097 q-0.6125,0.1244 -0.4881,0.7369 q0.0622,0.3062 0.3445,0.4402 q1.5589,0.7676 2.9777,1.7868 q1.4187,1.0192 2.7949,2.1428 q0.2335,0.2077 0.5397,0.1455 q0.6125,-0.1244 0.4881,-0.7369 q-0.0498,-0.245 -0.1971,-0.3426 q-2.8633,-2.4797 -6.0673,-4.1248 q-0.1474,-0.0976 -0.3924,-0.0479 Z M0.5167,8.2847 q-0.6125,0.1244 -0.4881,0.7369 q0.0622,0.3062 0.3445,0.4402 q1.5589,0.7676 2.9777,1.7868 q1.4187,1.0192 2.7949,2.1428 q0.2335,0.2077 0.5397,0.1455 q0.6125,-0.1244 0.4881,-0.7369 q-0.0498,-0.245 -0.1971,-0.3426 q-2.8633,-2.4797 -6.0673,-4.1248 q-0.1474,-0.0976 -0.3924,-0.0479 Z M2.4542,5.8472 q-0.6125,0.1244 -0.4881,0.7369 q0.0622,0.3062 0.3445,0.4402 q1.5589,0.7676 2.9777,1.7868 q1.4187,1.0192 2.7949,2.1428 q0.2335,0.2077 0.5397,0.1455 q0.6125,-0.1244 0.4881,-0.7369 q-0.0498,-0.245 -0.1971,-0.3426 q-2.8633,-2.4797 -6.0673,-4.1248 q-0.1474,-0.0976 -0.3924,-0.0479 Z" fill="#D3D3D3" transform="matrix(1,0,0,-1,84,17)"/>
  <path d="" fill="#D3D3D3" transform="matrix(1,0,0,-1,95,17)"/>
  <path d="M1,2 q-0.625,0 -0.625,0.625 q0,0.3125 0.25,0.5 q1.375,1.0625 2.5625,2.3438 q1.1875,1.2812 2.3125,2.6562 q0.1875,0.25 0.5,0.25 q0.625,0 0.625,-0.625 q0,-0.25 -0.125,-0.375 q-2.3125,-3 -5.125,-5.25 q-0.125,-0.125 -0.375,-0.125 Z M2.875,0.3125 q-0.625,0 -0.625,0.625 q0,0.3125 0.25,0.5 q1.375,1.0625 2.5625,2.3438 q1.1875,1.2812 2.3125,2.6562 q0.1875,0.25 0.5,0.25 q0.625,0 0.625,-0.625 q0,-0.25 -0.125,-0.375 q-2.3125,-3 -5.125,-5.25 q-0.125,-0.125 -0.375,-0.125 Z" fill="#D3D3D3" transform="matrix(1,0,0,-1,141,49)"/>
  <path d="M20.125,-27.3125 q-2,-0.375 -4.8438,-0.5312 q-2.8438,-0.1562 -5.8438,-0.0312 q-3,0.125 -5.4688,0.5938 q-2.4688,0.4688 -3.7188,1.3438 q-0.625,0.4375 -0.4375,1 q0.1875,0.5625 1,0.5625 q0.8125,0 2,1.3125 q1.1875,1.3125 1.9375,2.5625 q0.3125,0.5 0.6875,0.7812 q0.375,0.2812 1,0.0938 q2.875,-1 5.6875,-1.2188 q2.8125,-0.2188 6.625,0.4688 q0,2.1875 -0.0625,4.5312 q-0.0625,2.3438 -0.375,4.1875 q-0.3125,1.8438 -1.0625,2.5312 q-8.4375,-0.5625 -12.8438,1.9688 q-4.4062,2.5312 -4.4062,9.0312 q0,3.0625 1.4375,5.75 q1.4375,2.6875 3.7812,4.3438 q2.3438,1.6562 5.0938,1.5938 q1.3125,0 2.25,-0.9062 q0.9375,-0.9062 1.7188,-2.1562 q0.7812,-1.25 1.5625,-2.2812 q0.7812,-1.0312 1.7812,-1.3438 v-6.875 q-0.4375,0 -0.875,0 q-0.4375,0 -0.8125,0 q-2.6875,-0.0625 -4.4688,0.1562 q-1.7812,0.2188 -3.1562,1.4688 q-0.5,0.5 -0.7188,0.25 q-0.2188,-0.25 0.0938,-0.8125 q0.8125,-1.25 3,-1.8125 q2.1875,-0.5625 5.2188,-0.5938 q3.0312,-0.0312 6.1562,0.1562 q1.0625,0.125 1.4062,-0.6562 q0.3438,-0.7812 0.4062,-1.2812 q0.3125,-2.6875 0.3438,-5.25 q0.0312,-2.5625 0.0938,-5.0625 q0.125,-2.3125 0.3125,-4.2812 q0.1875,-1.9688 0.1875,-3.4062 q0,-2.8125 -1.4062,-4.3438 q-1.4062,-1.5312 -3.2812,-1.8438 Z" fill="#D3D3D3" transform="matrix(1,0,0,-1,120,17)"/>
  <path d="M1,0.8125 q-0.625,0 -0.625,0.625 q0,0.3125 0.25,0.5 q1.375,1.0625 2.5625,2.3438 q1.1875,1.2812 2.3125,2.6562 q0.1875,0.25 0.5,0.25 q0.625,0 0.625,-0.625 q0,-0.25 -0.125,-0.375 q-2.3125,-3 -5.125,-5.25 q-0.125,-0.125 -0.375,-0.125 Z" fill="#D3D3D3" transform="matrix(1,0,0,-1,133,-6)"/>
  <path d="M-6.125,0.375 l3.625,10.25 q1.3125,-1.5 3.4062,-2.6562 q2.0938,-1.1562 5.7812,-1.0938 q2.375,0.0625 4.125,0.2188 q1.75,0.1562 2.1875,0.4688 q0.5,0.3125 0.4688,0.7188 q-0.0312,0.4062 -0.5312,0.2812 q-1.5,-0.25 -3.8125,-0.4688 q-2.3125,-0.2188 -4.7188,0.0938 q-2.4062,0.3125 -4.1562,1.5 q-1.5625,1.0625 -2.5625,2.7812 q-1,1.7188 -1,3.7812 q0,2.125 0.8438,4.3438 q0.8438,2.2188 2.375,4.0938 q1.5312,1.875 3.625,3.0312 q2.0938,1.1562 4.5938,1.1562 q2.6875,0 4.9688,-1.8438 q2.2812,-1.8438 3.9375,-4.9688 q1.6562,-3.125 2.5625,-6.9688 q0.9062,-3.8438 0.9062,-7.9062 q0,-2 -1.6875,-3.4062 q-1.6875,-1.4062 -4.375,-2.3125 q-2.6875,-0.9062 -5.8438,-1.3438 q-3.1562,-0.4375 -6.1562,-0.5 q-3,-0.0625 -5.3125,0.1562 q-2.3125,0.2188 -3.25,0.5938 Z M7.9375,17.9375 q0.75,0 0.75,0.8125 q0,0.3125 -0.2188,0.5312 q-0.2188,0.2188 -0.5312,0.2188 q-0.8125,0 -0.8125,-0.75 q0,-0.8125 0.8125,-0.8125 Z" fill="#D3D3D3" transform="matrix(1,0,0,-1,137,17)"/>
  <path d="" fill="#D3D3D3" transform="matrix(1,0,0,-1,158,17)"/>
  <path d="M4.3917,3.4097 q-0.6125,0.1244 -0.4881,0.7369 q0.0622,0.3062 0.3445,0.4402 q1.5589,0.7676 2.9777,1.7868 q1.4187,1.0192 2.7949,2.1428 q0.2335,0.2077 0.5397,0.1455 q0.6125,-0.1244 0.4881,-0.7369 q-0.0498,-0.245 -0.1971,-0.3426 q-2.8633,-2.4797 -6.0673,-4.1248 q-0.1474,-0.0976 -0.3924,-0.0479 Z M0.5167,8.2847 q-0.6125,0.1244 -0.4881,0.7369 q0.0622,0.3062 0.3445,0.4402 q1.5589,0.7676 2.9777,1.7868 q1.4187,1.0192 2.7949,2.1428 q0.2335,0.2077 0.5397,0.1455 q0.6125,-0.1244 0.4881,-0.7369 q-0.0498,-0.245 -0.1971,-0.3426 q-2.8633,-2.4797 -6.0673,-4.1248 q-0.1474,-0.0976 -0.3924,-0.0479 Z M2.4542,5.8472 q-0.6125,0.1244 -0.4881,0.7369 q0.0622,0.3062 0.3445,0.4402 q1.5589,0.7676 2.9777,1.7868 q1.4187,1.0192 2.7949,2.1428 q0.2335,0.2077 0.5397,0.1455 q0.6125,-0.1244 0.4881,-0.7369 q-0.0498,-0.245 -0.1971,-0.3426 q-2.8633,-2.4797 -6.0673,-4.1248 q-0.1474,-0.0976 -0.3924,-0.0479 Z" fill="#D3D3D3" transform="matrix(1,0,0,-1,183,17)"/>
  <path d="" fill="#D3D3D3" transform="matrix(1,0,0,-1,194,17)"/>
  <path d="M1,2 q-0.625,0 -0.625,0.625 q0,0.3125 0.25,0.5 q1.375,1.0625 2.5625,2.3438 q1.1875,1.2812 2.3125,2.6562 q0.1875,0.25 0.5,0.25 q0.625,0 0.625,-0.625 q0,-0.25 -0.125,-0.375 q-2.3125,-3 -5.125,-5.25 q-0.125,-0.125 -0.375,-0.125 Z M2.875,0.3125 q-0.625,0 -0.625,0.625 q0,0.3125 0.25,0.5 q1.375,1.0625 2.5625,2.3438 q1.1875,1.2812 2.3125,2.6562 q0.1875,0.25 0.5,0.25 q0.625,0 0.625,-0.625 q0,-0.25 -0.125,-0.375 q-2.3125,-3 -5.125,-5.25 q-0.125,-0.125 -0.375,-0.125 Z" fill="#D3D3D3" transform="matrix(1,0,0,-1,240,49)"/>
  <path d="M20.125,-27.3125 q-2,-0.375 -4.8438,-0.5312 q-2.8438,-0.1562 -5.8438,-0.0312 q-3,0.125 -5.4688,0.5938 q-2.4688,0.4688 -3.7188,1.3438 q-0.625,0.4375 -0.4375,1 q0.1875,0.5625 1,0.5625 q0.8125,0 2,1.3125 q1.1875,1.3125 1.9375,2.5625 q0.3125,0.5 0.6875,0.7812 q0.375,0.2812 1,0.0938 q2.875,-1 5.6875,-1.2188 q2.8125,-0.2188 6.625,0.4688 q0,2.1875 -0.0625,4.5312 q-0.0625,2.3438 -0.375,4.1875 q-0.3125,1.8438 -1.0625,2.5312 q-8.4375,-0.5625 -12.8438,1.9688 q-4.4062,2.5312 -4.4062,9.0312 q0,3.0625 1.4375,5.75 q1.4375,2.6875 3.7812,4.3438 q2.3438,1.6562 5.0938,1.5938 q1.3125,0 2.25,-0.9062 q0.9375,-0.9062 1.7188,-2.1562 q0.7812,-1.25 1.5625,-2.2812 q0.7812,-1.0312 1.7812,-1.3438 v-6.875 q-0.4375,0 -0.875,0 q-0.4375,0 -0.8125,0 q-2.6875,-0.0625 -4.4688,0.1562 q-1.7812,0.2188 -3.1562,1.4688 q-0.5,0.5 -0.7188,0.25 q-0.2188,-0.25 0.0938,-0.8125 q0.8125,-1.25 3,-1.8125 q2.1875,-0.5625 5.2188,-0.5938 q3.0312,-0.0312 6.1562,0.1562 q1.0625,0.125 1.4062,-0.6562 q0.3438,-0.7812 0.4062,-1.2812 q0.3125,-2.6875 0.3438,-5.25 q0.0312,-2.5625 0.0938,-5.0625 q0.125,-2.3125 0.3125,-4.2812 q0.1875,-1.9688 0.1875,-3.4062 q0,-2.8125 -1.4062,-4.3438 q-1.4062,-1.5312 -3.2812,-1.8438 Z" fill="#D3D3D3" transform="matrix(1,0,0,-1,219,17)"/>
  <path d="M-1.25,0 v6.875 h2.375 q-0.0625,3 -0.2188,7.4375 q-0.1562,4.4375 -0.4062,9.4375 q-0.25,5 -0.5,9.8125 q-0.25,4.8125 -0.5,8.5625 q0,0.125 -0.0625,0.375 q-0.0625,0.375 -0.0312,0.875 q0.0312,0.5 0.5938,1 q0.5625,0.4375 1.4375,1.2188 q0.875,0.7812 1.6875,1.6562 q0.8125,0.875 1.1875,1.5625 q0.5,0.875 1,0.6562 q0.5,-0.2188 0.5625,-1.2812 q0.1875,-3.6875 0.375,-8.0625 q0.1875,-4.375 0.4062,-9 q0.2188,-4.625 0.4062,-9.0312 q0.1875,-4.4062 0.375,-8.25 q0.1875,-3.8438 0.25,-6.5938 q0.125,-3.375 -0.5625,-4.875 q-0.6875,-1.5 -2.1875,-1.9062 q-1.5,-0.4062 -3.8125,-0.4688 h-2.375 Z" fill="#D3D3D3" transform="matrix(1,0,0,-1,236,17)"/>
  <path d="" fill="#D3D3D3" transform="matrix(1,0,0,-1,244,17)"/>
  <path d="M4.3917,3.4097 q-0.6125,0.1244 -0.4881,0.7369 q0.0622,0.3062 0.3445,0.4402 q1.5589,0.7676 2.9777,1.7868 q1.4187,1.0192 2.7949,2.1428 q0.2335,0.2077 0.5397,0.1455 q0.6125,-0.1244 0.4881,-0.7369 q-0.0498,-0.245 -0.1971,-0.3426 q-2.8633,-2.4797 -6.0673,-4.1248 q-0.1474,-0.0976 -0.3924,-0.0479 Z M0.5167,8.2847 q-0.6125,0.1244 -0.4881,0.7369 q0.0622,0.3062 0.3445,0.4402 q1.5589,0.7676 2.9777,1.7868 q1.4187,1.0192 2.7949,2.1428 q0.2335,0.2077 0.5397,0.1455 q0.6125,-0.1244 0.4881,-0.7369 q-0.0498,-0.245 -0.1971,-0.3426 q-2.8633,-2.4797 -6.0673,-4.1248 q-0.1474,-0.0976 -0.3924,-0.0479 Z M2.4542,5.8472 q-0.6125,0.1244 -0.4881,0.7369 q0.0622,0.3062 0.3445,0.4402 q1.5589,0.7676 2.9777,1.7868 q1.4187,1.0192 2.7949,2.1428 q0.2335,0.2077 0.5397,0.1455 q0.6125,-0.1244 0.4881,-0.7369 q-0.0498,-0.245 -0.1971,-0.3426 q-2.8633,-2.4797 -6.0673,-4.1248 q-0.1474,-0.0976 -0.3924,-0.0479 Z" fill="#D3D3D3" transform="matrix(1,0,0,-1,269,17)"/>
  <path d="" fill="#D3D3D3" transform="matrix(1,0,0,-1,280,17)"/>
  <path d="M1,2 q-0.625,0 -0.625,0.625 q0,0.3125 0.25,0.5 q1.375,1.0625 2.5625,2.3438 q1.1875,1.2812 2.3125,2.6562 q0.1875,0.25 0.5,0.25 q0.625,0 0.625,-0.625 q0,-0.25 -0.125,-0.375 q-2.3125,-3 -5.125,-5.25 q-0.125,-0.125 -0.375,-0.125 Z M2.875,0.3125 q-0.625,0 -0.625,0.625 q0,0.3125 0.25,0.5 q1.375,1.0625 2.5625,2.3438 q1.1875,1.2812 2.3125,2.6562 q0.1875,0.25 0.5,0.25 q0.625,0 0.625,-0.625 q0,-0.25 -0.125,-0.375 q-2.3125,-3 -5.125,-5.25 q-0.125,-0.125 -0.375,-0.125 Z" fill="#D3D3D3" transform="matrix(1,0,0,-1,321,44)"/>
  <path d="M14.8125,-21.4375 q-2.625,-0.375 -5.7812,-0.375 q-3.1562,0 -5.9375,0.5312 q-2.7812,0.5312 -4.4062,1.6562 q-0.625,0.4375 -0.4375,1 q0.1875,0.5625 1,0.5625 q0.8125,0 2,1.3125 q1.1875,1.3125 1.9375,2.5625 q0.3125,0.5 0.6875,0.7812 q0.375,0.2812 1,0.0938 q2.125,-0.75 4.2812,-0.9375 q2.1562,-0.1875 4.5938,0 q0,0.25 0.0312,0.4375 q0.0312,0.1875 0.0312,0.4375 q0.0625,2.875 0,5.75 q-0.0625,2.875 -0.6875,4.1875 q-6.8125,0 -9.9688,2.25 q-3.1562,2.25 -3.1562,6.6875 q0,4 1.5625,7.0312 q1.5625,3.0312 3.9375,4.75 q2.375,1.7188 4.8125,1.7188 q1.25,0 2.375,-0.9062 q1.125,-0.9062 2.2812,-2.2812 q1.1562,-1.375 2.5938,-2.75 q0.625,-0.625 1.25,-0.5938 q0.625,0.0312 1.4375,0.2188 q0.1875,0.0625 0.25,0.0625 q-0.125,-2.625 -0.7812,-4.7812 q-0.6562,-2.1562 -2.0938,-2.5312 q-1.4375,-0.375 -3.2188,-0.2188 q-1.7812,0.1562 -3.4688,0.7188 q-1.6875,0.5625 -2.875,1.375 q-0.3125,0.25 -0.5625,-0.0312 q-0.25,-0.2812 0.1875,-0.7812 q1.1875,-1.1875 3.8438,-1.9688 q2.6562,-0.7812 5.7188,-0.7812 q1.0625,0 1.3125,-0.4688 q0.25,-0.4688 0.25,-0.9688 q-0.125,-1.8125 -0.0625,-3.5625 q0.0625,-1.75 0.125,-3.5 q0.0625,-0.8125 0.0938,-1.625 q0.0312,-0.8125 0.0312,-1.625 q0.125,-2.3125 0.3125,-4.2812 q0.1875,-1.9688 0.1875,-3.4062 q0,-2.8125 -1.4062,-4.125 q-1.4062,-1.3125 -3.2812,-1.625 Z" fill="#D3D3D3" transform="matrix(1,0,0,-1,305,17)"/>
</svg>
