<svg xmlns="http://www.w3.org/2000/svg" width="445" height="121" preserveAspectRatio="xMinYMin slice" viewBox="-2 -12 445 121"><path d="M-2 109V-12h445v121Z"/><path fill="#d3d3d3" d="M28 104q-.625 0-.625-.625 0-.312.25-.5 1.375-1.062 2.563-2.344 1.187-1.281 2.312-2.656.188-.25.5-.25.625 0 .625.625 0 .25-.125.375-2.312 3-5.125 5.25Q28.25 104 28 104m1.875 1.688q-.625 0-.625-.626 0-.312.25-.5 1.375-1.062 2.563-2.343 1.187-1.281 2.312-2.656.188-.25.5-.25.625 0 .625.624 0 .25-.125.376-2.312 3-5.125 5.25-.125.124-.375.124M16.813 97Q10 97 6.092 96.125q-3.905-.875-5.5-3Q-1 91-1 87.375-1 85.063 0 83q1-2.062 2.625-3.625 1.625-1.562 3.594-2.437 1.969-.876 3.843-.876 1.626 0 2.813.97 1.188.968 2.063 2.312.874 1.344 1.718 2.469T18.5 83.25v6.875q-3.437 0-5.594-.094-2.156-.094-3.718-1.53-.563-.438-.813.062t.375.937q.938.625 1.875 1t2.531.594 4.438.312 7.53.094h348.188q.375 0 .625.344t-.25.594q-1.625.687-2.719 1.469-1.093.78-2.187 1.312-1.094.531-2.844.531-29.5 0-59 .032-29.5.03-58.875.125-29.375.093-58.562.218l-58.157.25q-28.968.125-57.625.282-28.656.156-56.906.343Z"/><path fill="#d3d3d3" d="M16.75 89.813v-6.876h2.375q-.062-4.062-.281-8.874t-.5-9.97-.594-10.156q0-.124-.062-.374-.063-.376-.032-.876.032-.5.594-1 .563-.437 1.438-1.218.875-.782 1.687-1.657.813-.874 1.188-1.562.5-.875 1-.656t.562 1.281q.313 6.125.594 12.375t.562 11.969.407 10.344q.125 3.375-.563 4.875t-2.187 1.906-3.813.469z"/><path fill="#e22e00" d="M422.688 107.125q-1.5 0-2.657-1.156-1.156-1.156-1.156-2.656 0-1.563 1.156-2.688t2.656-1.125q1.563 0 2.688 1.125t1.125 2.688q0 1.5-1.125 2.656t-2.687 1.156"/><path fill="#d3d3d3" d="M418.438 100q-3.813-.062-7.282-1.187t-6.187-3.438-4.313-5.969T399 80.625q0-2.625-.062-5.781-.063-3.156-.157-6.406-.093-3.25-.25-6.157-.156-2.906-.343-4.906-.188-1.437-.313-2.312t.313-1.188q.687-.437 1.656-1.281t1.844-1.844 1.25-1.812q.312-.688.78-.688.47 0 .657 1.25.313 2.25.375 5.375.063 3.125.063 6.688v7.156q0 3.594.187 6.719.188 3.437 1.313 6.25 1.125 2.812 3.093 4.906 1.97 2.094 4.531 3.469 3.25 1.687 7.313 2.187t8.625-.312 9.25-2.875q.563-.313.844-.125.281.187.031.75-2.312 5.125-7.969 7.75-5.656 2.625-13.594 2.562ZM9.392 36.59q-.613-.124-.488-.737.062-.306.344-.44 1.559-.767 2.978-1.787 1.419-1.019 2.795-2.142.233-.208.54-.146.612.125.488.737-.05.245-.198.343-2.863 2.48-6.067 4.124-.147.098-.392.048m-3.875-4.875q-.613-.124-.488-.737.062-.306.344-.44 1.559-.767 2.978-1.787 1.418-1.019 2.795-2.142.233-.208.54-.146.612.124.487.737-.05.245-.197.343-2.863 2.48-6.067 4.124-.147.098-.392.048m1.937 2.438q-.612-.125-.488-.737.062-.306.345-.44 1.559-.768 2.977-1.787 1.419-1.02 2.795-2.143.234-.208.54-.145.612.124.488.737-.05.245-.197.342-2.863 2.48-6.067 4.125-.148.098-.393.048M70 54q-.625 0-.625-.625 0-.312.25-.5 1.375-1.062 2.563-2.344 1.187-1.281 2.312-2.656.188-.25.5-.25.625 0 .625.625 0 .25-.125.375-2.312 3-5.125 5.25Q70.25 54 70 54m1.875 1.688q-.625 0-.625-.626 0-.312.25-.5 1.375-1.062 2.563-2.343 1.187-1.282 2.312-2.657.188-.25.5-.25.625 0 .625.626 0 .25-.125.374-2.312 3-5.125 5.25-.125.126-.375.126M53.75 46.75q-4.312-.25-7.125-1.094t-4.219-2.812Q41 40.874 41 37.25q0-2.313 1-4.375 1-2.063 2.625-3.625 1.625-1.563 3.594-2.438t3.844-.875q1.625 0 2.812.97 1.188.968 2.063 2.312t1.718 2.468 1.844 1.438V40q-3.437 0-5.594-.094-2.156-.094-3.718-1.531-.563-.437-.813.063t.375.937q.938.625 1.875.969t2.531.531 4.438.25 7.531.063q1.5 0 4.344.03 2.844.032 6.5.032t7.687.062 8.031.063 7.47.031q3.468.031 5.906.031.374-.062.656.313.28.375-.156.812-1.688.563-2.813 1.438t-2.219 1.562-2.844.688q-1.687 0-5.218.062-3.532.063-8.063.156-4.531.094-9.437.188-4.907.094-9.5.156-4.594.063-8.22.063-3.624 0-5.5-.125Zm8.36-25.146q-.617.097-.715-.52-.048-.309.17-.533 1.191-1.264 2.164-2.716.972-1.45 1.868-2.985.146-.276.455-.325.617-.098.715.52.039.246-.065.39-1.815 3.324-4.24 5.986-.104.143-.351.183Z"/><path fill="#d3d3d3" d="M58.75 40v-6.875h2.563q-.063-3-.188-5.062t-.25-3.5q-.062-.5.094-.782.156-.28.781-.593 1.313-.75 2-1.875t2.125-3.25q.313-.375.781-.313.469.063.531.938.188 2.437.375 5.156.188 2.718.25 6.343.063 1.063.25 2 .188.938.75.938V40zM74 42.688q-.625 0-.625-.626 0-.312.25-.5Q75 40.5 76.188 39.22q1.187-1.282 2.312-2.657.188-.25.5-.25.625 0 .625.626 0 .25-.125.374-2.312 3-5.125 5.25-.125.126-.375.126"/><path fill="#d3d3d3" d="M66.5 37.188v-9.813h1.188q.062 2.313 1.03 3.25.97.938 1.844 1.25v5.313z"/><path fill="#d3d3d3" d="M66.75 40v-6.875h2.438q0-1.312-.094-3.344t-.188-4.187q-.094-2.157-.219-3.938t-.187-2.531q-.125-1.437.187-2.187.313-.75.938-1.188 1.062-.687 2.094-2.187 1.03-1.5 1.969-2.938.312-.5.562-.406t.313.531q.124 2.375.374 5.625t.5 6.781.438 6.75.25 5.594q.063 1.625-1.094 3.063Q73.875 40 72.062 40zm70.642-3.41q-.613-.124-.488-.737.062-.306.344-.44 1.559-.767 2.978-1.787 1.419-1.019 2.795-2.142.233-.208.54-.146.612.125.488.737-.05.245-.198.343-2.863 2.48-6.067 4.124-.147.098-.392.048m-3.875-4.875q-.613-.124-.488-.737.062-.306.344-.44 1.559-.767 2.978-1.787 1.418-1.019 2.795-2.142.233-.208.54-.146.612.124.488.737-.05.245-.198.343-2.863 2.48-6.067 4.124-.147.098-.392.048m1.937 2.438q-.612-.125-.488-.737.062-.306.345-.44 1.559-.768 2.977-1.787 1.419-1.02 2.795-2.143.234-.208.54-.145.612.124.488.737-.05.245-.197.342-2.863 2.48-6.067 4.125-.148.098-.393.048M181.75 46.75q-4.312-.25-7.125-1.094t-4.219-2.812Q169 40.874 169 37.25q0-2.313 1-4.375 1-2.063 2.625-3.625 1.625-1.563 3.594-2.438t3.844-.875q1.625 0 2.812.97 1.188.968 2.063 2.312t1.718 2.468 1.844 1.438V40q-3.437 0-5.594-.094-2.156-.094-3.718-1.531-.563-.437-.813.063t.375.937q.938.625 1.875.969t2.531.531 4.438.25 7.531.063q1.5 0 4.344.03 2.844.032 6.5.032t7.687.062 8.031.063 7.47.031q3.468.031 5.905.031.375-.062.657.313.28.375-.156.812-1.688.563-2.813 1.438t-2.219 1.562-2.844.688q-1.687 0-5.218.062-3.532.063-8.063.156-4.531.094-9.437.188-4.907.094-9.5.156-4.594.063-8.22.063-3.624 0-5.5-.125Z"/><path fill="#d3d3d3" d="M186.75 40v-6.875h2.375q-.062-3-.219-7.437-.156-4.438-.406-9.438t-.5-9.812-.5-8.563q0-.125-.062-.375-.063-.375-.032-.875t.594-1q.563-.437 1.438-1.219.875-.781 1.687-1.656t1.188-1.562q.5-.876 1-.657.5.22.562 1.281.188 3.688.375 8.063.188 4.375.406 9 .22 4.625.406 9.031.188 4.406.375 8.25.188 3.844.25 6.594.125 3.375-.562 4.875t-2.187 1.906-3.813.469zm2.375 0v-6.875h7.5V40z"/><path fill="#d3d3d3" d="m195.375 40-.875-14.625h1.125q.063 2.438 1.063 4.094T199.125 32t2.813 1.125V40z"/><path fill="#d3d3d3" d="M197.75 40v-6.875h4.375q-1.75-1.687-2.375-3.969t.813-3.781q.625-.687 1.875-1.906t2.656-2.594 2.53-2.437q1.126-1.063 1.5-1.438.688-.687 1.032-.25t-.156 1q-.375.438-1.031 1.406-.656.969-1.313 1.969t-.969 1.563q-.875 1.5.5 3.25t4.47 3.343T219 31.938q4.125 1.062 7.344 1.406t6.406.28q3.188-.062 7.25-.25.313 0 .656-.03.344-.032.656-.032.813-.062.813.313t-.375.688q-1.188.874-2.656 2.374-1.47 1.5-2.531 2.25-.313.25-.625.407-.313.156-.625.156-5.625.187-10.125.312T216.5 40t-8.687.062T197.75 40m73.642-3.41q-.613-.124-.488-.737.062-.306.344-.44 1.559-.767 2.978-1.787 1.419-1.019 2.795-2.142.233-.208.54-.146.612.125.488.737-.05.245-.198.343-2.863 2.48-6.067 4.124-.147.098-.392.048m-3.875-4.875q-.613-.124-.488-.737.062-.306.344-.44 1.559-.767 2.978-1.787 1.419-1.019 2.795-2.142.233-.208.54-.146.612.124.488.737-.05.245-.198.343-2.863 2.48-6.067 4.124-.147.098-.392.048m1.937 2.438q-.612-.125-.488-.737.062-.306.345-.44 1.559-.768 2.977-1.787 1.419-1.02 2.795-2.143.234-.208.54-.145.612.124.488.737-.05.245-.197.342-2.863 2.48-6.067 4.125-.148.098-.393.048M332 46q-.625 0-.625-.625 0-.312.25-.5 1.375-1.062 2.563-2.344 1.187-1.281 2.312-2.656.188-.25.5-.25.625 0 .625.625 0 .25-.125.375-2.312 3-5.125 5.25Q332.25 46 332 46m1.875 1.688q-.625 0-.625-.626 0-.312.25-.5 1.375-1.062 2.563-2.343 1.187-1.282 2.312-2.657.188-.25.5-.25.625 0 .625.626 0 .25-.125.374-2.312 3-5.125 5.25-.125.126-.375.126m-18.125-8.875q-4.312-.063-7.125-.907-2.812-.843-4.219-2.875Q303 33.001 303 29.375q0-2.312 1-4.375 1-2.062 2.625-3.625 1.625-1.562 3.594-2.437t3.844-.875q1.812 0 2.937 1.03 1.125 1.032 2.063 2.5.937 1.47 2.187 2.845.688.75 1.625.656t1.813-.344q.187 3.25-1.094 5.063T320.156 32t-4.656-.562-4.812-3.125q-.563-.563-.875-.157-.313.407.25.97 1.687 1.624 3.28 2.5 1.595.874 3.438 1.218t4.22.469q.187 0 1 .03.812.032 2.155.032 1.344 0 3.156.031 1.813.032 4 .063t4.625.062 5 .063 5.22.031 5.312.031 5.156.031 4.781-.03 4.219-.032 3.5-.062q.438 0 .688.5t-.5.75q-1.563.5-2.625 1.374-1.063.876-2.157 1.532t-2.844.656q-1.687 0-5.218.031t-8.063.094-9.469.125-9.53.094q-4.595.03-8.188.062-3.594.031-5.47.031Z"/><path fill="#e22e00" d="M402.688 5.125q-1.5 0-2.657-1.156-1.156-1.156-1.156-2.656 0-1.563 1.156-2.688t2.656-1.125q1.563 0 2.688 1.125t1.125 2.688q0 1.5-1.125 2.656t-2.687 1.156"/><path fill="#d3d3d3" d="M412.438 43q-3.813-.062-7.282-1.187t-6.187-3.438-4.313-5.969T393 23.625q0-2.625-.062-5.781-.063-3.156-.157-6.406-.093-3.25-.25-6.157-.156-2.906-.343-4.906-.188-1.437-.313-2.312t.313-1.188q.687-.437 1.656-1.281t1.844-1.844 1.25-1.812q.312-.688.78-.688.47 0 .657 1.25.313 2.25.375 5.375.063 3.125.063 6.688v7.156q0 3.594.187 6.719.188 3.437 1.313 6.25 1.125 2.812 3.093 4.906 1.97 2.094 4.531 3.469 3.25 1.687 7.313 2.187t8.625-.312 9.25-2.875q.563-.313.844-.125.281.187.031.75-2.312 5.125-7.969 7.75-5.656 2.625-13.594 2.562Z"/></svg>