<svg xmlns="http://www.w3.org/2000/svg" width="337" height="87" preserveAspectRatio="xMinYMin slice" viewBox="-4 -35 337 87"><path d="M-4 52v-87h337v87Z"/><path fill="#d3d3d3" d="M16 48q-.625 0-.625-.625 0-.312.25-.5 1.375-1.062 2.563-2.344 1.187-1.281 2.312-2.656.188-.25.5-.25.625 0 .625.625 0 .25-.125.375-2.312 3-5.125 5.25Q16.25 48 16 48m1.875 1.688q-.625 0-.625-.626 0-.312.25-.5 1.375-1.062 2.563-2.343 1.187-1.282 2.312-2.657.188-.25.5-.25.625 0 .625.626 0 .25-.125.374-2.312 3-5.125 5.25-.125.126-.375.126m-4.062-5.813q-2.626.375-5.782.375t-5.937-.531-4.406-1.656q-.625-.438-.438-1 .188-.563 1-.563t2-1.312 1.938-2.563q.312-.5.687-.781t1-.094q2.125.75 4.281.938t4.594 0q0-.25.031-.438.031-.187.031-.437.063-2.688.032-5.407t-.594-4.156q-6.438.063-9.844-2.656T-1 15.125q0-3.062 1.437-5.75Q1.875 6.688 4.25 5.031q2.375-1.656 5.125-1.593 1.25 0 2.187.906.938.906 1.72 2.156.78 1.25 1.562 2.281.78 1.031 1.78 1.344V17h-1.687q-2.687.063-4.468-.156t-3.157-1.469q-.562-.5-.75-.25t.125.813q.563.937 1.813 1.437t2.75.719 2.812.25 2 .031h.188q1.062 0 1.312.625t.25 1.125q-.125 1.813-.062 3.563l.125 3.5q.062.812.094 1.625.03.812.03 1.625.126 2.312.313 4.28.188 1.97.188 3.407 0 2.812-1.406 4.125-1.406 1.312-3.281 1.625"/><path fill="#d3d3d3" d="M15.688 17 12.375 5.938H13.5Q14.938 7.875 16.844 9t3.344 1.125V17z"/><path fill="#d3d3d3" d="M13.75 17v-6.875h6.75Q18.313 8.5 16.125 6.188q-.5-.5-.531-.844t.531-.72q.938-.624 2.188-1.968t2.312-2.969q.188-.312.625-.375.438-.062.813.375Q25.438 3.562 29.5 5.72t8.688 3.125 9.687 1.187 10.375.219q.5 0 .656.281t-.156.719q-1 1.5-2.031 2.562-1.031 1.063-2.094 1.938-.562.5-1.687.687T51 16.625q-3 0-7.375.062-4.375.063-9.187.125-3.876.063-7.688.094t-7.187.063q-3.375.03-5.813.03Zm74.642-3.41q-.613-.124-.488-.737.062-.306.344-.44 1.559-.767 2.978-1.787 1.418-1.019 2.795-2.142.233-.208.54-.146.612.124.487.737-.05.245-.197.343-2.863 2.48-6.067 4.124-.147.098-.392.048m-3.875-4.875q-.613-.124-.488-.737.062-.306.344-.44 1.559-.767 2.978-1.787 1.418-1.019 2.795-2.142.233-.208.54-.146.612.124.487.737-.05.245-.197.343-2.863 2.48-6.067 4.124-.147.098-.392.048m1.937 2.438q-.612-.125-.488-.737.062-.306.345-.44 1.558-.768 2.977-1.787 1.419-1.02 2.795-2.143.234-.208.54-.145.612.124.488.736-.05.245-.197.343-2.863 2.48-6.067 4.125-.148.097-.393.048M142 47q-.625 0-.625-.625 0-.312.25-.5 1.375-1.062 2.563-2.344 1.187-1.281 2.312-2.656.188-.25.5-.25.625 0 .625.625 0 .25-.125.375-2.312 3-5.125 5.25Q142.25 47 142 47m1.875 1.688q-.625 0-.625-.626 0-.312.25-.5 1.375-1.062 2.563-2.343 1.187-1.282 2.312-2.657.188-.25.5-.25.625 0 .625.626 0 .25-.125.374-2.312 3-5.125 5.25-.125.126-.375.126m-3.75-4.375q-2 .374-4.844.53t-5.844.032-5.468-.594q-2.47-.469-3.72-1.344-.624-.437-.437-1 .188-.562 1-.562t2-1.313 1.938-2.562q.312-.5.687-.781t1-.094q2.875 1 5.688 1.219 2.812.218 6.625-.47 0-2.187-.063-4.53-.062-2.344-.375-4.188-.312-1.844-1.062-2.531-8.438.562-12.844-1.969T120 15.125q0-3.063 1.437-5.75 1.438-2.688 3.782-4.344 2.343-1.656 5.093-1.594 1.313 0 2.25.906.938.907 1.72 2.157.78 1.25 1.562 2.28.78 1.032 1.78 1.345V17h-1.687q-2.687.062-4.468-.157-1.782-.218-3.157-1.468-.5-.5-.718-.25-.22.25.093.812.813 1.25 3 1.813t5.22.593q3.03.032 6.155-.156 1.063-.125 1.407.656.343.782.406 1.282.312 2.687.344 5.25.03 2.562.093 5.062.125 2.313.313 4.281.187 1.97.187 3.407 0 2.812-1.406 4.343t-3.281 1.844ZM134-6.812q-.625 0-.625-.625 0-.313.25-.5Q135-9 136.188-10.281q1.187-1.281 2.312-2.656.188-.25.5-.25.625 0 .625.624 0 .25-.125.376-2.312 3-5.125 5.25-.125.125-.375.125"/><path fill="#d3d3d3" d="m130.875 16.625 3.625-10.25q1.313 1.5 3.406 2.656t5.781 1.094q2.375-.062 4.125-.219 1.75-.156 2.188-.469.5-.312.469-.718-.031-.407-.531-.282-1.5.25-3.813.47-2.312.218-4.719-.095-2.406-.312-4.156-1.5-1.562-1.062-2.562-2.78-1-1.72-1-3.782 0-2.125.843-4.344.844-2.219 2.375-4.094t3.625-3.03 4.594-1.157q2.688 0 4.969 1.844t3.937 4.969 2.563 6.968.906 7.907q0 2-1.687 3.406t-4.375 2.312-5.844 1.344-6.156.5-5.313-.156-3.25-.594M144.938-.937q.75 0 .75-.813 0-.312-.22-.531-.218-.219-.53-.219-.813 0-.813.75 0 .813.813.813m42.454 14.527q-.613-.124-.488-.737.062-.306.344-.44 1.559-.767 2.978-1.787 1.419-1.019 2.795-2.142.233-.208.54-.146.612.124.488.737-.05.245-.198.343-2.863 2.48-6.067 4.124-.147.098-.392.048m-3.875-4.875q-.613-.124-.488-.737.062-.306.344-.44 1.559-.767 2.978-1.787 1.418-1.019 2.795-2.142.233-.208.54-.146.612.124.488.737-.05.245-.198.343-2.863 2.48-6.067 4.124-.147.098-.392.048m1.937 2.438q-.612-.125-.488-.737.062-.306.345-.44 1.559-.768 2.977-1.787 1.419-1.02 2.795-2.143.234-.208.54-.145.612.124.488.736-.05.245-.197.343-2.863 2.48-6.067 4.125-.148.097-.393.048M241 47q-.625 0-.625-.625 0-.312.25-.5 1.375-1.062 2.563-2.344 1.187-1.281 2.312-2.656.188-.25.5-.25.625 0 .625.625 0 .25-.125.375-2.312 3-5.125 5.25Q241.25 47 241 47m1.875 1.688q-.625 0-.625-.626 0-.312.25-.5 1.375-1.062 2.563-2.343 1.187-1.282 2.312-2.657.188-.25.5-.25.625 0 .625.626 0 .25-.125.374-2.312 3-5.125 5.25-.125.126-.375.126m-3.75-4.375q-2 .374-4.844.53t-5.844.032-5.468-.594q-2.47-.469-3.72-1.344-.624-.437-.437-1 .188-.562 1-.562t2-1.313 1.938-2.562q.312-.5.687-.781t1-.094q2.875 1 5.688 1.219 2.812.218 6.625-.47 0-2.187-.063-4.53-.062-2.344-.375-4.188-.312-1.844-1.062-2.531-8.438.562-12.844-1.969T219 15.125q0-3.063 1.437-5.75 1.438-2.688 3.782-4.344 2.343-1.656 5.093-1.594 1.313 0 2.25.906.938.907 1.72 2.157.78 1.25 1.562 2.28.78 1.032 1.78 1.345V17h-1.687q-2.687.062-4.468-.157-1.782-.218-3.157-1.468-.5-.5-.718-.25-.22.25.093.812.813 1.25 3 1.813t5.22.593q3.03.032 6.155-.156 1.063-.125 1.407.656.343.782.406 1.282.312 2.687.344 5.25.03 2.562.093 5.062.125 2.313.313 4.281.187 1.97.187 3.407 0 2.812-1.406 4.343t-3.281 1.844Z"/><path fill="#d3d3d3" d="M234.75 17v-6.875h2.375q-.062-3-.219-7.437-.156-4.438-.406-9.438t-.5-9.812-.5-8.563q0-.125-.062-.375-.063-.375-.032-.875t.594-1q.563-.437 1.438-1.219.875-.781 1.687-1.656t1.188-1.562q.5-.875 1-.657.5.22.562 1.282.188 3.687.375 8.062.188 4.375.406 9 .22 4.625.406 9.031.188 4.406.375 8.25.188 3.844.25 6.594.125 3.375-.562 4.875t-2.187 1.906-3.813.469zm38.642-3.41q-.613-.124-.488-.737.062-.306.344-.44 1.559-.767 2.978-1.787 1.419-1.019 2.795-2.142.233-.208.54-.146.612.124.488.737-.05.245-.198.343-2.863 2.48-6.067 4.124-.147.098-.392.048m-3.875-4.875q-.613-.124-.488-.737.062-.306.344-.44 1.559-.767 2.978-1.787 1.419-1.019 2.795-2.142.233-.208.54-.146.612.124.488.737-.05.245-.198.343-2.863 2.48-6.067 4.124-.147.098-.392.048m1.937 2.438q-.612-.125-.488-.737.062-.306.345-.44 1.559-.768 2.977-1.787 1.419-1.02 2.795-2.143.234-.208.54-.145.612.124.488.736-.05.245-.197.343-2.863 2.48-6.067 4.125-.148.097-.393.048M322 42q-.625 0-.625-.625 0-.312.25-.5 1.375-1.062 2.563-2.344 1.187-1.281 2.312-2.656.188-.25.5-.25.625 0 .625.625 0 .25-.125.375-2.312 3-5.125 5.25Q322.25 42 322 42m1.875 1.688q-.625 0-.625-.626 0-.312.25-.5 1.375-1.062 2.563-2.343 1.187-1.282 2.312-2.657.188-.25.5-.25.625 0 .625.626 0 .25-.125.374-2.312 3-5.125 5.25-.125.126-.375.126m-4.062-5.25q-2.625.374-5.782.374t-5.937-.53-4.406-1.657q-.625-.437-.438-1 .188-.562 1-.562t2-1.313 1.938-2.562q.312-.5.687-.782.375-.28 1-.093 2.125.75 4.281.937t4.594 0q0-.25.031-.437.031-.188.031-.438.063-2.875 0-5.75-.062-2.875-.687-4.187-6.812 0-9.969-2.25T305 11.5q0-4 1.563-7.031t3.937-4.75T315.313-2q1.25 0 2.375.906 1.125.907 2.28 2.282 1.157 1.375 2.594 2.75.625.625 1.25.593.625-.03 1.438-.218.188-.063.25-.063-.125 2.625-.781 4.781t-2.094 2.531-3.219.22-3.469-.72-2.875-1.375q-.312-.25-.562.032-.25.28.187.78 1.188 1.188 3.844 1.97 2.656.78 5.719.78 1.063 0 1.313.47.25.468.25.968-.125 1.813-.063 3.563l.125 3.5q.063.812.094 1.625T324 25q.125 2.312.313 4.281.187 1.969.187 3.406 0 2.813-1.406 4.125-1.406 1.313-3.281 1.625Z"/></svg>