<?xml version='1.0' encoding='ASCII'?>
<svg xmlns="http://www.w3.org/2000/svg" width="445" height="121" preserveAspectRatio="xMinYMin slice" viewBox="-2 -12 445 121" version="1.1">
  <path d="M-2,-12 v121 h445 v-121 Z" fill="#FFFAED" transform="matrix(1,0,0,-1,0,97)"/>
  <path d="M17.8125,0 q-6.8125,0 -10.7188,0.875 q-3.9062,0.875 -5.5,3 q-1.5938,2.125 -1.5938,5.75 q0,2.3125 1,4.375 q1,2.0625 2.625,3.625 q1.625,1.5625 3.5938,2.4375 q1.9688,0.875 3.8438,0.875 q1.625,0 2.8125,-0.9688 q1.1875,-0.9688 2.0625,-2.3125 q0.875,-1.3438 1.7188,-2.4688 q0.8438,-1.125 1.8438,-1.4375 v-6.875 q-3.4375,0 -5.5938,0.0938 q-2.1562,0.0938 -3.7188,1.5312 q-0.5625,0.4375 -0.8125,-0.0625 q-0.25,-0.5 0.375,-0.9375 q0.9375,-0.625 1.875,-1 q0.9375,-0.375 2.5312,-0.5938 q1.5938,-0.2188 4.4375,-0.3125 q2.8438,-0.0938 7.5312,-0.0938 q29,0 58.0312,0 q29.0312,0 58.0312,0 q29,0 58.0312,0 q29.0312,0 58.0312,0 q29,0 58.0312,0 q29.0312,0 58.0312,0 q0.375,0 0.625,-0.3438 q0.25,-0.3438 -0.25,-0.5938 q-1.625,-0.6875 -2.7188,-1.4688 q-1.0938,-0.7812 -2.1875,-1.3125 q-1.0938,-0.5312 -2.8438,-0.5312 q-29.5,0 -59,-0.0312 q-29.5,-0.0312 -58.875,-0.125 q-29.375,-0.0938 -58.5625,-0.2188 q-29.1875,-0.125 -58.1562,-0.25 q-28.9688,-0.125 -57.625,-0.2812 q-28.6562,-0.1562 -56.9062,-0.3438 Z" fill="#000000" transform="matrix(1,0,0,-1,-1,97)"/>
  <path d="M-1.25,7.1875 v6.875 h2.375 q-0.0625,4.0625 -0.2812,8.875 q-0.2188,4.8125 -0.5,9.9688 q-0.2812,5.1562 -0.5938,10.1562 q0,0.125 -0.0625,0.375 q-0.0625,0.375 -0.0312,0.875 q0.0312,0.5 0.5938,1 q0.5625,0.4375 1.4375,1.2188 q0.875,0.7812 1.6875,1.6562 q0.8125,0.875 1.1875,1.5625 q0.5,0.875 1,0.6562 q0.5,-0.2188 0.5625,-1.2812 q0.3125,-6.125 0.5938,-12.375 q0.2812,-6.25 0.5625,-11.9688 q0.2812,-5.7188 0.4062,-10.3438 q0.125,-3.375 -0.5625,-4.875 q-0.6875,-1.5 -2.1875,-1.9062 q-1.5,-0.4062 -3.8125,-0.4688 h-2.375 Z" fill="#000000" transform="matrix(1,0,0,-1,18,97)"/>
  <path d="M4.6875,0.875 q-1.5,0 -2.6562,1.1562 q-1.1562,1.1562 -1.1562,2.6562 q0,1.5625 1.1562,2.6875 q1.1562,1.125 2.6562,1.125 q1.5625,0 2.6875,-1.125 q1.125,-1.125 1.125,-2.6875 q0,-1.5 -1.125,-2.6562 q-1.125,-1.1562 -2.6875,-1.1562 Z" fill="#902900" fill-opacity="0.902" transform="matrix(1,0,0,-1,418,108)"/>
  <path d="M19.4375,-3 q-3.8125,0.0625 -7.2812,1.1875 q-3.4688,1.125 -6.1875,3.4375 q-2.7188,2.3125 -4.3125,5.9688 q-1.5938,3.6562 -1.6562,8.7812 q0,2.625 -0.0625,5.7812 q-0.0625,3.1562 -0.1562,6.4062 q-0.0938,3.25 -0.25,6.1562 q-0.1562,2.9062 -0.3438,4.9062 q-0.1875,1.4375 -0.3125,2.3125 q-0.125,0.875 0.3125,1.1875 q0.6875,0.4375 1.6562,1.2812 q0.9688,0.8438 1.8438,1.8438 q0.875,1 1.25,1.8125 q0.3125,0.6875 0.7812,0.6875 q0.4688,0 0.6562,-1.25 q0.3125,-2.25 0.375,-5.375 q0.0625,-3.125 0.0625,-6.6875 q0,-3.5625 0,-7.1562 q0,-3.5938 0.1875,-6.7188 q0.1875,-3.4375 1.3125,-6.25 q1.125,-2.8125 3.0938,-4.9062 q1.9688,-2.0938 4.5312,-3.4688 q3.25,-1.6875 7.3125,-2.1875 q4.0625,-0.5 8.625,0.3125 q4.5625,0.8125 9.25,2.875 q0.5625,0.3125 0.8438,0.125 q0.2812,-0.1875 0.0312,-0.75 q-2.3125,-5.125 -7.9688,-7.75 q-5.6562,-2.625 -13.5938,-2.5625 Z" fill="#000000" transform="matrix(1,0,0,-1,399,97)"/>
  <path d="M4.3917,3.4097 q-0.6125,0.1244 -0.4881,0.7369 q0.0622,0.3062 0.3445,0.4402 q1.5589,0.7676 2.9777,1.7868 q1.4187,1.0192 2.7949,2.1428 q0.2335,0.2077 0.5397,0.1455 q0.6125,-0.1244 0.4881,-0.7369 q-0.0498,-0.245 -0.1971,-0.3426 q-2.8633,-2.4797 -6.0673,-4.1248 q-0.1474,-0.0976 -0.3924,-0.0479 Z M0.5167,8.2847 q-0.6125,0.1244 -0.4881,0.7369 q0.0622,0.3062 0.3445,0.4402 q1.5589,0.7676 2.9777,1.7868 q1.4187,1.0192 2.7949,2.1428 q0.2335,0.2077 0.5397,0.1455 q0.6125,-0.1244 0.4881,-0.7369 q-0.0498,-0.245 -0.1971,-0.3426 q-2.8633,-2.4797 -6.0673,-4.1248 q-0.1474,-0.0976 -0.3924,-0.0479 Z M2.4542,5.8472 q-0.6125,0.1244 -0.4881,0.7369 q0.0622,0.3062 0.3445,0.4402 q1.5589,0.7676 2.9777,1.7868 q1.4187,1.0192 2.7949,2.1428 q0.2335,0.2077 0.5397,0.1455 q0.6125,-0.1244 0.4881,-0.7369 q-0.0498,-0.245 -0.1971,-0.3426 q-2.8633,-2.4797 -6.0673,-4.1248 q-0.1474,-0.0976 -0.3924,-0.0479 Z" fill="#000000" transform="matrix(1,0,0,-1,5,40)"/>
  <path d="" fill="#000000" transform="matrix(1,0,0,-1,16,40)"/>
  <path d="M12.75,-6.75 q-4.3125,0.25 -7.125,1.0938 q-2.8125,0.8438 -4.2188,2.8125 q-1.4062,1.9688 -1.4062,5.5938 q0,2.3125 1,4.375 q1,2.0625 2.625,3.625 q1.625,1.5625 3.5938,2.4375 q1.9688,0.875 3.8438,0.875 q1.625,0 2.8125,-0.9688 q1.1875,-0.9688 2.0625,-2.3125 q0.875,-1.3438 1.7188,-2.4688 q0.8438,-1.125 1.8438,-1.4375 v-6.875 q-3.4375,0 -5.5938,0.0938 q-2.1562,0.0938 -3.7188,1.5312 q-0.5625,0.4375 -0.8125,-0.0625 q-0.25,-0.5 0.375,-0.9375 q0.9375,-0.625 1.875,-0.9688 q0.9375,-0.3438 2.5312,-0.5312 q1.5938,-0.1875 4.4375,-0.25 q2.8438,-0.0625 7.5312,-0.0625 q1.5,0 4.3438,-0.0312 q2.8438,-0.0312 6.5,-0.0312 q3.6562,0 7.6875,-0.0625 q4.0312,-0.0625 8.0312,-0.0625 q4,0 7.4688,-0.0312 q3.4688,-0.0312 5.9062,-0.0312 q0.375,0.0625 0.6562,-0.3125 q0.2812,-0.375 -0.1562,-0.8125 q-1.6875,-0.5625 -2.8125,-1.4375 q-1.125,-0.875 -2.2188,-1.5625 q-1.0938,-0.6875 -2.8438,-0.6875 q-1.6875,0 -5.2188,-0.0625 q-3.5312,-0.0625 -8.0625,-0.1562 q-4.5312,-0.0938 -9.4375,-0.1875 q-4.9062,-0.0938 -9.5,-0.1562 q-4.5938,-0.0625 -8.2188,-0.0625 q-3.625,0 -5.5,0.125 Z" fill="#000000" transform="matrix(1,0,0,-1,41,40)"/>
  <path d="M1.1106,0.3964 q-0.6173,-0.0978 -0.7151,0.5195 q-0.0489,0.3086 0.1687,0.5329 q1.1918,1.2645 2.1643,2.7157 q0.9724,1.4512 1.8685,2.9853 q0.1461,0.2762 0.4547,0.3251 q0.6173,0.0978 0.7151,-0.5195 q0.0391,-0.2469 -0.0648,-0.3899 q-1.8147,-3.3248 -4.2405,-5.987 q-0.1039,-0.143 -0.3508,-0.1821 Z" fill="#000000" transform="matrix(1,0,0,-1,61,22)"/>
  <path d="M-1.25,0 v6.875 h2.5625 q-0.0625,3 -0.1875,5.0625 q-0.125,2.0625 -0.25,3.5 q-0.0625,0.5 0.0938,0.7812 q0.1562,0.2812 0.7812,0.5938 q1.3125,0.75 2,1.875 q0.6875,1.125 2.125,3.25 q0.3125,0.375 0.7812,0.3125 q0.4688,-0.0625 0.5312,-0.9375 q0.1875,-2.4375 0.375,-5.1562 q0.1875,-2.7188 0.25,-6.3438 q0.0625,-1.0625 0.25,-2 q0.1875,-0.9375 0.75,-0.9375 v-6.875 h-10.0625 Z" fill="#000000" transform="matrix(1,0,0,-1,60,40)"/>
  <path d="M1,0.3125 q-0.625,0 -0.625,0.625 q0,0.3125 0.25,0.5 q1.375,1.0625 2.5625,2.3438 q1.1875,1.2812 2.3125,2.6562 q0.1875,0.25 0.5,0.25 q0.625,0 0.625,-0.625 q0,-0.25 -0.125,-0.375 q-2.3125,-3 -5.125,-5.25 q-0.125,-0.125 -0.375,-0.125 Z" fill="#000000" transform="matrix(1,0,0,-1,73,43)"/>
  <path d="M-1.5,2.8125 v9.8125 h1.1875 q0.0625,-2.3125 1.0312,-3.25 q0.9688,-0.9375 1.8438,-1.25 v-5.3125 h-4.0625 Z" fill="#000000" transform="matrix(1,0,0,-1,68,40)"/>
  <path d="M-1.25,0 v6.875 h2.4375 q0,1.3125 -0.0938,3.3438 q-0.0938,2.0312 -0.1875,4.1875 q-0.0938,2.1562 -0.2188,3.9375 q-0.125,1.7812 -0.1875,2.5312 q-0.125,1.4375 0.1875,2.1875 q0.3125,0.75 0.9375,1.1875 q1.0625,0.6875 2.0938,2.1875 q1.0312,1.5 1.9688,2.9375 q0.3125,0.5 0.5625,0.4062 q0.25,-0.0938 0.3125,-0.5312 q0.125,-2.375 0.375,-5.625 q0.25,-3.25 0.5,-6.7812 q0.25,-3.5312 0.4375,-6.75 q0.1875,-3.2188 0.25,-5.5938 q0.0625,-1.625 -1.0938,-3.0625 q-1.1562,-1.4375 -2.9688,-1.4375 h-5.3125 Z" fill="#000000" transform="matrix(1,0,0,-1,68,40)"/>
  <path d="" fill="#000000" transform="matrix(1,0,0,-1,108,40)"/>
  <path d="M4.3917,3.4097 q-0.6125,0.1244 -0.4881,0.7369 q0.0622,0.3062 0.3445,0.4402 q1.5589,0.7676 2.9777,1.7868 q1.4187,1.0192 2.7949,2.1428 q0.2335,0.2077 0.5397,0.1455 q0.6125,-0.1244 0.4881,-0.7369 q-0.0498,-0.245 -0.1971,-0.3426 q-2.8633,-2.4797 -6.0673,-4.1248 q-0.1474,-0.0976 -0.3924,-0.0479 Z M0.5167,8.2847 q-0.6125,0.1244 -0.4881,0.7369 q0.0622,0.3062 0.3445,0.4402 q1.5589,0.7676 2.9777,1.7868 q1.4187,1.0192 2.7949,2.1428 q0.2335,0.2077 0.5397,0.1455 q0.6125,-0.1244 0.4881,-0.7369 q-0.0498,-0.245 -0.1971,-0.3426 q-2.8633,-2.4797 -6.0673,-4.1248 q-0.1474,-0.0976 -0.3924,-0.0479 Z M2.4542,5.8472 q-0.6125,0.1244 -0.4881,0.7369 q0.0622,0.3062 0.3445,0.4402 q1.5589,0.7676 2.9777,1.7868 q1.4187,1.0192 2.7949,2.1428 q0.2335,0.2077 0.5397,0.1455 q0.6125,-0.1244 0.4881,-0.7369 q-0.0498,-0.245 -0.1971,-0.3426 q-2.8633,-2.4797 -6.0673,-4.1248 q-0.1474,-0.0976 -0.3924,-0.0479 Z" fill="#000000" transform="matrix(1,0,0,-1,133,40)"/>
  <path d="" fill="#000000" transform="matrix(1,0,0,-1,144,40)"/>
  <path d="M12.75,-6.75 q-4.3125,0.25 -7.125,1.0938 q-2.8125,0.8438 -4.2188,2.8125 q-1.4062,1.9688 -1.4062,5.5938 q0,2.3125 1,4.375 q1,2.0625 2.625,3.625 q1.625,1.5625 3.5938,2.4375 q1.9688,0.875 3.8438,0.875 q1.625,0 2.8125,-0.9688 q1.1875,-0.9688 2.0625,-2.3125 q0.875,-1.3438 1.7188,-2.4688 q0.8438,-1.125 1.8438,-1.4375 v-6.875 q-3.4375,0 -5.5938,0.0938 q-2.1562,0.0938 -3.7188,1.5312 q-0.5625,0.4375 -0.8125,-0.0625 q-0.25,-0.5 0.375,-0.9375 q0.9375,-0.625 1.875,-0.9688 q0.9375,-0.3438 2.5312,-0.5312 q1.5938,-0.1875 4.4375,-0.25 q2.8438,-0.0625 7.5312,-0.0625 q1.5,0 4.3438,-0.0312 q2.8438,-0.0312 6.5,-0.0312 q3.6562,0 7.6875,-0.0625 q4.0312,-0.0625 8.0312,-0.0625 q4,0 7.4688,-0.0312 q3.4688,-0.0312 5.9062,-0.0312 q0.375,0.0625 0.6562,-0.3125 q0.2812,-0.375 -0.1562,-0.8125 q-1.6875,-0.5625 -2.8125,-1.4375 q-1.125,-0.875 -2.2188,-1.5625 q-1.0938,-0.6875 -2.8438,-0.6875 q-1.6875,0 -5.2188,-0.0625 q-3.5312,-0.0625 -8.0625,-0.1562 q-4.5312,-0.0938 -9.4375,-0.1875 q-4.9062,-0.0938 -9.5,-0.1562 q-4.5938,-0.0625 -8.2188,-0.0625 q-3.625,0 -5.5,0.125 Z" fill="#000000" transform="matrix(1,0,0,-1,169,40)"/>
  <path d="M-1.25,0 v6.875 h2.375 q-0.0625,3 -0.2188,7.4375 q-0.1562,4.4375 -0.4062,9.4375 q-0.25,5 -0.5,9.8125 q-0.25,4.8125 -0.5,8.5625 q0,0.125 -0.0625,0.375 q-0.0625,0.375 -0.0312,0.875 q0.0312,0.5 0.5938,1 q0.5625,0.4375 1.4375,1.2188 q0.875,0.7812 1.6875,1.6562 q0.8125,0.875 1.1875,1.5625 q0.5,0.875 1,0.6562 q0.5,-0.2188 0.5625,-1.2812 q0.1875,-3.6875 0.375,-8.0625 q0.1875,-4.375 0.4062,-9 q0.2188,-4.625 0.4062,-9.0312 q0.1875,-4.4062 0.375,-8.25 q0.1875,-3.8438 0.25,-6.5938 q0.125,-3.375 -0.5625,-4.875 q-0.6875,-1.5 -2.1875,-1.9062 q-1.5,-0.4062 -3.8125,-0.4688 h-2.375 Z M1.125,0 v6.875 h7.5 v-6.875 h-7.5 Z" fill="#000000" transform="matrix(1,0,0,-1,188,40)"/>
  <path d="M-0.625,0 l-0.875,14.625 h1.125 q0.0625,-2.4375 1.0625,-4.0938 q1,-1.6562 2.4375,-2.5312 q1.4375,-0.875 2.8125,-1.125 v-6.875 h-6.5625 Z" fill="#000000" transform="matrix(1,0,0,-1,196,40)"/>
  <path d="M-1.25,0 v6.875 h4.375 q-1.75,1.6875 -2.375,3.9688 q-0.625,2.2812 0.8125,3.7812 q0.625,0.6875 1.875,1.9062 q1.25,1.2188 2.6562,2.5938 q1.4062,1.375 2.5312,2.4375 q1.125,1.0625 1.5,1.4375 q0.6875,0.6875 1.0312,0.25 q0.3438,-0.4375 -0.1562,-1 q-0.375,-0.4375 -1.0312,-1.4062 q-0.6562,-0.9688 -1.3125,-1.9688 q-0.6562,-1 -0.9688,-1.5625 q-0.875,-1.5 0.5,-3.25 q1.375,-1.75 4.4688,-3.3438 q3.0938,-1.5938 7.3438,-2.6562 q4.125,-1.0625 7.3438,-1.4062 q3.2188,-0.3438 6.4062,-0.2812 q3.1875,0.0625 7.25,0.25 q0.3125,0 0.6562,0.0312 q0.3438,0.0312 0.6562,0.0312 q0.8125,0.0625 0.8125,-0.3125 q0,-0.375 -0.375,-0.6875 q-1.1875,-0.875 -2.6562,-2.375 q-1.4688,-1.5 -2.5312,-2.25 q-0.3125,-0.25 -0.625,-0.4062 q-0.3125,-0.1562 -0.625,-0.1562 q-5.625,-0.1875 -10.125,-0.3125 q-4.5,-0.125 -8.6875,-0.1875 q-4.1875,-0.0625 -8.6875,-0.0625 q-4.5,0 -10.0625,0.0625 Z" fill="#000000" transform="matrix(1,0,0,-1,199,40)"/>
  <path d="" fill="#000000" transform="matrix(1,0,0,-1,242,40)"/>
  <path d="M4.3917,3.4097 q-0.6125,0.1244 -0.4881,0.7369 q0.0622,0.3062 0.3445,0.4402 q1.5589,0.7676 2.9777,1.7868 q1.4187,1.0192 2.7949,2.1428 q0.2335,0.2077 0.5397,0.1455 q0.6125,-0.1244 0.4881,-0.7369 q-0.0498,-0.245 -0.1971,-0.3426 q-2.8633,-2.4797 -6.0673,-4.1248 q-0.1474,-0.0976 -0.3924,-0.0479 Z M0.5167,8.2847 q-0.6125,0.1244 -0.4881,0.7369 q0.0622,0.3062 0.3445,0.4402 q1.5589,0.7676 2.9777,1.7868 q1.4187,1.0192 2.7949,2.1428 q0.2335,0.2077 0.5397,0.1455 q0.6125,-0.1244 0.4881,-0.7369 q-0.0498,-0.245 -0.1971,-0.3426 q-2.8633,-2.4797 -6.0673,-4.1248 q-0.1474,-0.0976 -0.3924,-0.0479 Z M2.4542,5.8472 q-0.6125,0.1244 -0.4881,0.7369 q0.0622,0.3062 0.3445,0.4402 q1.5589,0.7676 2.9777,1.7868 q1.4187,1.0192 2.7949,2.1428 q0.2335,0.2077 0.5397,0.1455 q0.6125,-0.1244 0.4881,-0.7369 q-0.0498,-0.245 -0.1971,-0.3426 q-2.8633,-2.4797 -6.0673,-4.1248 q-0.1474,-0.0976 -0.3924,-0.0479 Z" fill="#000000" transform="matrix(1,0,0,-1,267,40)"/>
  <path d="" fill="#000000" transform="matrix(1,0,0,-1,278,40)"/>
  <path d="M12.75,1.1875 q-4.3125,0.0625 -7.125,0.9062 q-2.8125,0.8438 -4.2188,2.875 q-1.4062,2.0312 -1.4062,5.6562 q0,2.3125 1,4.375 q1,2.0625 2.625,3.625 q1.625,1.5625 3.5938,2.4375 q1.9688,0.875 3.8438,0.875 q1.8125,0 2.9375,-1.0312 q1.125,-1.0312 2.0625,-2.5 q0.9375,-1.4688 2.1875,-2.8438 q0.6875,-0.75 1.625,-0.6562 q0.9375,0.0938 1.8125,0.3438 q0.1875,-3.25 -1.0938,-5.0625 q-1.2812,-1.8125 -3.4375,-2.1875 q-2.1562,-0.375 -4.6562,0.5625 q-2.5,0.9375 -4.8125,3.125 q-0.5625,0.5625 -0.875,0.1562 q-0.3125,-0.4062 0.25,-0.9688 q1.6875,-1.625 3.2812,-2.5 q1.5938,-0.875 3.4375,-1.2188 q1.8438,-0.3438 4.2188,-0.4688 q0.1875,0 1,-0.0312 q0.8125,-0.0312 2.1562,-0.0312 q1.3438,0 3.1562,-0.0312 q1.8125,-0.0312 4,-0.0625 q2.1875,-0.0312 4.625,-0.0625 q2.4375,-0.0312 5,-0.0625 q2.5625,-0.0312 5.2188,-0.0312 q2.6562,0 5.3125,-0.0312 q2.6562,-0.0312 5.1562,-0.0312 q2.5,0 4.7812,0.0312 q2.2812,0.0312 4.2188,0.0312 q1.9375,0 3.5,0.0625 q0.4375,0 0.6875,-0.5 q0.25,-0.5 -0.5,-0.75 q-1.5625,-0.5 -2.625,-1.375 q-1.0625,-0.875 -2.1562,-1.5312 q-1.0938,-0.6562 -2.8438,-0.6562 q-1.6875,0 -5.2188,-0.0312 q-3.5312,-0.0312 -8.0625,-0.0938 q-4.5312,-0.0625 -9.4688,-0.125 q-4.9375,-0.0625 -9.5312,-0.0938 q-4.5938,-0.0312 -8.1875,-0.0625 q-3.5938,-0.0312 -5.4688,-0.0312 Z" fill="#000000" transform="matrix(1,0,0,-1,303,40)"/>
  <path d="M4.6875,0.875 q-1.5,0 -2.6562,1.1562 q-1.1562,1.1562 -1.1562,2.6562 q0,1.5625 1.1562,2.6875 q1.1562,1.125 2.6562,1.125 q1.5625,0 2.6875,-1.125 q1.125,-1.125 1.125,-2.6875 q0,-1.5 -1.125,-2.6562 q-1.125,-1.1562 -2.6875,-1.1562 Z" fill="#902900" fill-opacity="0.902" transform="matrix(1,0,0,-1,398,6)"/>
  <path d="M19.4375,-3 q-3.8125,0.0625 -7.2812,1.1875 q-3.4688,1.125 -6.1875,3.4375 q-2.7188,2.3125 -4.3125,5.9688 q-1.5938,3.6562 -1.6562,8.7812 q0,2.625 -0.0625,5.7812 q-0.0625,3.1562 -0.1562,6.4062 q-0.0938,3.25 -0.25,6.1562 q-0.1562,2.9062 -0.3438,4.9062 q-0.1875,1.4375 -0.3125,2.3125 q-0.125,0.875 0.3125,1.1875 q0.6875,0.4375 1.6562,1.2812 q0.9688,0.8438 1.8438,1.8438 q0.875,1 1.25,1.8125 q0.3125,0.6875 0.7812,0.6875 q0.4688,0 0.6562,-1.25 q0.3125,-2.25 0.375,-5.375 q0.0625,-3.125 0.0625,-6.6875 q0,-3.5625 0,-7.1562 q0,-3.5938 0.1875,-6.7188 q0.1875,-3.4375 1.3125,-6.25 q1.125,-2.8125 3.0938,-4.9062 q1.9688,-2.0938 4.5312,-3.4688 q3.25,-1.6875 7.3125,-2.1875 q4.0625,-0.5 8.625,0.3125 q4.5625,0.8125 9.25,2.875 q0.5625,0.3125 0.8438,0.125 q0.2812,-0.1875 0.0312,-0.75 q-2.3125,-5.125 -7.9688,-7.75 q-5.6562,-2.625 -13.5938,-2.5625 Z" fill="#000000" transform="matrix(1,0,0,-1,393,40)"/>
</svg>
