<svg xmlns="http://www.w3.org/2000/svg" width="631" height="75" preserveAspectRatio="xMinYMin slice" viewBox="-7 -23 631 75"><path fill="#fffaed" d="M-7 52v-75h631v75Z"/><path d="M20.375 45.188q-2 .5-4.875.843-2.875.344-6 .47-3.125.124-6.094-.126t-5.25-.969-3.406-1.968q-.5-.626-.375-1.094.125-.47.938-.47t2-1.312T-.75 38q.313-.5.719-.844t.969-.031Q3.313 38.5 7.25 39t8-.063q-.062-.062-.125-.25-.062-.187-.219-.375-.156-.187-.656-.125Q-1 39.062-1 27.125q0-3.063 1.438-5.75 1.437-2.688 3.78-4.344 2.345-1.656 5.095-1.594 1.312 0 2.25.906.937.907 1.718 2.157.782 1.25 1.563 2.28.781 1.032 1.781 1.345V29h-1.687q-2.688.062-4.47-.157-1.78-.218-3.155-1.468-.5-.5-.72-.25-.218.25.095.812.562.938 1.937 1.469t3.094.75 3.437.219h2.97q1.062 0 1.343.187.281.188.594.75.687 1.188 1.594 3.094.906 1.906 1.343 4.406.438 2.688-.156 4.282t-2.469 2.093Zm2.625-9.5q-.625 0-.625-.626 0-.312.25-.5Q24 33.5 25.188 32.22q1.187-1.282 2.312-2.657.188-.25.5-.25.625 0 .625.625 0 .25-.125.375-2.312 3-5.125 5.25-.125.126-.375.126"/><path d="M15.75 29v-6.875h2.563q-.063-3-.188-5.062t-.25-3.5q-.062-.5.094-.782.156-.28.781-.594 1.313-.75 2-1.874.688-1.126 2.125-3.25.313-.375.781-.313.469.063.531.938.188 2.437.375 5.156.188 2.719.25 6.344.063 1.062.25 2 .188.937.75.937V29z"/><path d="M23.563 29V17h1.187q-.062 2.313 2.281 3.75 2.344 1.438 6.094 1.75v2.813z"/><path d="M23.75 29v-6.875h6.75q-2.187-1.625-4.375-3.937-.5-.5-.531-.844t.531-.72q.938-.624 2.188-1.968t2.312-2.969q.188-.312.625-.375.438-.062.813.375 3.374 3.875 7.437 6.031 4.063 2.157 8.688 3.125 4.624.97 9.687 1.188 5.063.219 10.375.219.5 0 .656.281t-.156.719q-1 1.5-2.031 2.562-1.031 1.063-2.094 1.938-.562.5-1.687.687T61 28.625q-3 0-7.375.062-4.375.063-9.187.125-3.876.063-7.688.094t-7.187.063q-3.375.03-5.813.03Zm74.642-3.41q-.613-.124-.488-.737.062-.306.344-.44 1.559-.767 2.978-1.787 1.418-1.019 2.795-2.142.233-.208.54-.146.612.124.487.737-.05.245-.197.343-2.863 2.48-6.067 4.124-.147.098-.392.048m-3.875-4.875q-.613-.124-.488-.737.062-.306.344-.44 1.559-.767 2.978-1.787 1.418-1.019 2.795-2.142.233-.208.54-.146.612.125.487.737-.05.245-.197.343-2.863 2.48-6.067 4.124-.147.098-.392.048m1.937 2.438q-.612-.125-.488-.737.062-.306.345-.44 1.558-.768 2.977-1.787 1.419-1.02 2.795-2.143.234-.208.54-.145.612.124.488.737-.05.244-.197.342-2.863 2.48-6.067 4.125-.148.098-.393.048m53.109 21.472q-2 .5-4.844.781t-5.938.313q-3.094.03-6.031-.22t-5.187-.874-3.376-1.688q-.562-.562-.406-1.062t.97-.5q.812 0 2-1.156 1.187-1.157 1.937-2.407.312-.5.718-.843.407-.344.97-.032 2.374 1.376 6.218 1.813t8.219-.125q-.063-.062-.125-.25-.063-.187-.219-.375-.156-.187-.656-.125-4.75.188-7.531-.219-2.782-.406-4.125-1.5-1.344-1.094-1.75-2.875Q130 31.5 130 29v-9.25l7.438 1.938V29q0 .25.156.594t1.031.469q.125 0 .375.062.563.063 1.47.188.905.125 2.655.125t4.938-.125q1-.063 1.281.125.281.187.594.687.062.063.062.125.688 1.188 1.22 2.844.53 1.656.968 4.156.437 2.688-.156 4.281-.594 1.594-2.47 2.094ZM128.11 10.416q-.617.098-.715-.52-.048-.308.17-.532 1.191-1.265 2.164-2.716.972-1.451 1.868-2.985.146-.277.455-.325.617-.098.715.52.039.246-.065.389-1.815 3.325-4.24 5.987-.104.143-.351.182Zm1.876 1.688q-.618.097-.715-.52-.05-.309.168-.533 1.192-1.264 2.165-2.716.972-1.45 1.868-2.985.146-.276.455-.325.617-.098.715.52.039.246-.065.39-1.815 3.324-4.24 5.986-.104.143-.351.183"/><path d="M136.5 29q-2.625 0-3.906-1.219t-1.688-3.281-.469-4.625q0-1.625-.03-2.719-.032-1.094-.22-3.031-.062-.5.125-1 .188-.5.813-.688.875-.312 2-1.78 1.125-1.47 2.563-3.595.312-.375.78-.312.47.062.532.937.187 2.438.312 5.157t.25 6.343q.063 1.063.25 2 .188.938.75.938V29z"/><path d="M136.563 29V17h1.187q-.062 2.313 2.281 3.75 2.344 1.438 6.094 1.75v2.813z"/><path d="M136.75 29v-6.875h6.75q-2.187-1.625-4.375-3.937-.5-.5-.531-.844t.531-.72q.938-.624 2.188-1.968t2.312-2.969q.188-.312.625-.375.438-.062.813.375 3.375 3.875 7.437 6.031 4.063 2.157 8.688 3.125 4.625.97 9.687 1.188 5.063.219 10.375.219.5 0 .656.281t-.156.719q-1 1.5-2.031 2.562-1.031 1.063-2.094 1.938-.562.5-1.687.687t-1.938.188q-3 0-7.375.062-4.375.063-9.187.125-3.875.063-7.688.094t-7.187.063q-3.375.03-5.813.03Zm74.642-3.41q-.613-.124-.488-.737.062-.306.344-.44 1.559-.767 2.978-1.787 1.419-1.019 2.795-2.142.233-.208.54-.146.612.124.488.737-.05.245-.198.343-2.863 2.48-6.067 4.124-.147.098-.392.048m-3.875-4.875q-.613-.124-.488-.737.062-.306.344-.44 1.559-.767 2.978-1.787 1.418-1.019 2.795-2.142.233-.208.54-.146.612.125.488.737-.05.245-.198.343-2.863 2.48-6.067 4.124-.147.098-.392.048m1.937 2.438q-.612-.125-.488-.737.062-.306.345-.44 1.559-.768 2.977-1.787 1.419-1.02 2.795-2.143.234-.208.54-.145.612.124.488.737-.05.244-.197.342-2.863 2.48-6.067 4.125-.148.098-.393.048M265 48q-.625 0-.625-.625 0-.312.25-.5 1.375-1.062 2.563-2.344 1.187-1.281 2.312-2.656.188-.25.5-.25.625 0 .625.625 0 .25-.125.375-2.312 3-5.125 5.25Q265.25 48 265 48m1.875 1.688q-.625 0-.625-.626 0-.312.25-.5 1.375-1.062 2.563-2.343 1.187-1.282 2.312-2.657.188-.25.5-.25.625 0 .625.626 0 .25-.125.374-2.312 3-5.125 5.25-.125.126-.375.126m-2.5-4.5q-2 .5-4.875.843-2.875.344-6 .47-3.125.124-6.094-.126t-5.25-.969-3.406-1.968q-.5-.626-.375-1.094.125-.47.938-.47t2-1.312T243.25 38q.313-.5.719-.844t.969-.031Q247.313 38.5 251.25 39t8-.063q-.062-.062-.125-.25-.062-.187-.219-.375-.156-.187-.656-.125Q243 39.062 243 27.125q0-3.063 1.438-5.75 1.437-2.688 3.78-4.344 2.345-1.656 5.095-1.594 1.312 0 2.25.906.937.907 1.718 2.157.782 1.25 1.563 2.28.781 1.032 1.781 1.345V29h-1.687q-2.688.062-4.47-.157-1.78-.218-3.155-1.468-.5-.5-.72-.25-.218.25.095.812.562.938 1.937 1.469t3.094.75 3.437.219h2.97q1.062 0 1.343.187.281.188.594.75.687 1.188 1.594 3.094.906 1.906 1.343 4.406.438 2.688-.156 4.282t-2.469 2.093Z"/><path fill="#902900" fill-opacity=".902" d="M268.688 35.125q-1.5 0-2.657-1.156-1.156-1.156-1.156-2.656 0-1.563 1.156-2.688t2.656-1.125q1.563 0 2.688 1.125t1.125 2.688q0 1.5-1.125 2.656t-2.687 1.156"/><path d="M259.75 29v-6.875h2.375q-.062-3-.219-7.437-.156-4.438-.406-9.438t-.5-9.812-.5-8.563q0-.125-.062-.375-.063-.375-.032-.875t.594-1q.563-.437 1.438-1.219.875-.781 1.687-1.656t1.188-1.562q.5-.875 1-.657.5.22.562 1.282.188 3.687.375 8.062.188 4.375.406 9 .22 4.625.406 9.031.188 4.406.375 8.25.188 3.844.25 6.594.125 3.375-.562 4.875t-2.187 1.906-3.813.469zm2.375 0v-6.875h7.5V29z"/><path d="m268.375 29-.875-14.625h1.125q.063 2.438 1.063 4.094T272.125 21t2.813 1.125V29z"/><path d="M270.75 29v-6.875h4.375q-1.75-1.687-2.375-3.969t.813-3.781q.625-.688 1.875-1.906 1.25-1.219 2.656-2.594t2.53-2.438 1.5-1.437q.688-.688 1.032-.25t-.156 1q-.375.437-1.031 1.406t-1.313 1.969-.969 1.562q-.875 1.5.5 3.25t4.47 3.344T292 20.937q4.125 1.063 7.344 1.407 3.219.343 6.406.28 3.188-.062 7.25-.25.313 0 .656-.03.344-.032.656-.032.813-.062.813.313t-.375.688q-1.188.875-2.656 2.375-1.47 1.5-2.531 2.25-.313.25-.625.406-.313.156-.625.156-5.625.187-10.125.312T289.5 29t-8.687.062T270.75 29m73.642-3.41q-.613-.124-.488-.737.062-.306.344-.44 1.559-.767 2.978-1.787 1.419-1.019 2.795-2.142.233-.208.54-.146.612.124.488.737-.05.245-.198.343-2.863 2.48-6.067 4.124-.147.098-.392.048m-3.875-4.875q-.613-.124-.488-.737.062-.306.344-.44 1.559-.767 2.978-1.787 1.419-1.019 2.795-2.142.233-.208.54-.146.612.125.488.737-.05.245-.198.343-2.863 2.48-6.067 4.124-.147.098-.392.048m1.937 2.438q-.612-.125-.488-.737.062-.306.345-.44 1.559-.768 2.977-1.787 1.419-1.02 2.795-2.143.234-.208.54-.145.612.124.488.737-.05.244-.197.342-2.863 2.48-6.067 4.125-.148.098-.393.048M396 48q-.625 0-.625-.625 0-.312.25-.5 1.375-1.062 2.563-2.344 1.187-1.281 2.312-2.656.188-.25.5-.25.625 0 .625.625 0 .25-.125.375-2.312 3-5.125 5.25Q396.25 48 396 48m1.875 1.688q-.625 0-.625-.626 0-.312.25-.5 1.375-1.062 2.563-2.343 1.187-1.282 2.312-2.657.188-.25.5-.25.625 0 .625.626 0 .25-.125.374-2.312 3-5.125 5.25-.125.126-.375.126m-2.312-5.063q-2 .5-4.844.781t-5.938.313q-3.094.03-6.031-.22t-5.187-.874-3.375-1.688q-.563-.562-.407-1.062t.97-.5 2-1.156 1.937-2.407q.312-.5.718-.843.407-.344.97-.032 2.374 1.376 6.218 1.813t8.219-.125q-.063-.062-.125-.25-.063-.187-.219-.375-.156-.187-.656-.125-4.75.188-7.531-.219-2.782-.406-4.125-1.5-1.344-1.094-1.75-2.875Q376 31.5 376 29v-9.25l7.438 1.938V29q0 .25.156.594t1.031.469q.125 0 .375.062.563.063 1.47.188.905.125 2.655.125t4.938-.125q1-.063 1.281.125.281.187.594.687.062.063.062.125.688 1.188 1.22 2.844.53 1.656.968 4.156.437 2.688-.156 4.281-.594 1.594-2.47 2.094Z"/><path d="M382.5 29q-3 0-4.469-1.875t-1.594-7.25q-.062-1.75-.093-4.5-.032-2.75-.063-6.031t-.125-6.688-.25-6.469-.344-5.312q0-.25-.03-.437-.032-.188-.032-.376-.25-2.624-.219-3.656.031-1.03.781-1.53 1.25-.75 2.344-2.032 1.094-1.281 2.094-2.969.312-.5.812-.437.5.062.5 1 0 3 .063 6.78Q381.937-9 382.03-5t.188 7.687.156 6.532.125 4.343q.187 3.5.312 5.375t.313 2.532.562.656V29z"/><path d="m382.375 29-.875-14.625h1.125q.063 2.438 1.063 4.094T386.125 21t2.813 1.125V29z"/><path d="M384.75 29v-6.875h4.375q-1.75-1.687-2.375-3.969t.813-3.781q.625-.688 1.875-1.906 1.25-1.219 2.656-2.594t2.53-2.438 1.5-1.437q.688-.688 1.032-.25t-.156 1q-.375.437-1.031 1.406t-1.313 1.969-.969 1.562q-.875 1.5.5 3.25t4.47 3.344T406 20.937q4.125 1.063 7.344 1.407 3.219.343 6.406.28 3.188-.062 7.25-.25.313 0 .656-.03.344-.032.656-.032.813-.062.813.313t-.375.688q-1.188.875-2.656 2.375-1.47 1.5-2.531 2.25-.313.25-.625.406-.313.156-.625.156-5.625.187-10.125.312T403.5 29t-8.687.062T384.75 29m73.642-3.41q-.613-.124-.488-.737.062-.306.344-.44 1.559-.767 2.978-1.787 1.419-1.019 2.795-2.142.233-.208.54-.146.612.124.488.737-.05.245-.198.343-2.863 2.48-6.067 4.124-.147.098-.392.048m-3.875-4.875q-.613-.124-.488-.737.062-.306.344-.44 1.559-.767 2.978-1.787 1.419-1.019 2.795-2.142.233-.208.54-.146.612.125.488.737-.05.245-.198.343-2.863 2.48-6.067 4.124-.147.098-.392.048m1.937 2.438q-.612-.125-.488-.737.062-.306.345-.44 1.559-.768 2.977-1.787 1.419-1.02 2.795-2.143.234-.208.54-.145.612.124.488.737-.05.244-.197.342-2.863 2.48-6.067 4.125-.148.098-.393.048M512 48q-.625 0-.625-.625 0-.312.25-.5 1.375-1.062 2.563-2.344 1.187-1.281 2.312-2.656.188-.25.5-.25.625 0 .625.625 0 .25-.125.375-2.312 3-5.125 5.25Q512.25 48 512 48m1.875 1.688q-.625 0-.625-.626 0-.312.25-.5 1.375-1.062 2.563-2.343 1.187-1.282 2.312-2.657.188-.25.5-.25.625 0 .625.626 0 .25-.125.374-2.312 3-5.125 5.25-.125.126-.375.126m-2.5-4.5q-2 .5-4.875.843-2.875.344-6 .47-3.125.124-6.094-.126t-5.25-.969-3.406-1.968q-.5-.626-.375-1.094.125-.47.938-.47t2-1.312T490.25 38q.313-.5.719-.844t.969-.031Q494.313 38.5 498.25 39t8-.063q-.062-.062-.125-.25-.062-.187-.219-.375-.156-.187-.656-.125Q490 39.062 490 27.125q0-3.063 1.438-5.75 1.437-2.688 3.78-4.344 2.345-1.656 5.095-1.594 1.312 0 2.25.906.937.907 1.718 2.157.782 1.25 1.563 2.28.781 1.032 1.781 1.345V29h-1.687q-2.688.062-4.47-.157-1.78-.218-3.155-1.468-.5-.5-.72-.25-.218.25.095.812.562.938 1.937 1.469t3.094.75 3.437.219h2.97q1.062 0 1.343.187.281.188.594.75.687 1.188 1.594 3.094.906 1.906 1.343 4.406.438 2.688-.156 4.282t-2.469 2.093Z"/><path fill="#902900" fill-opacity=".902" d="M520.688 36.125q-1.5 0-2.657-1.156-1.156-1.156-1.156-2.656 0-1.563 1.156-2.688 1.157-1.125 2.657-1.125 1.562 0 2.687 1.125t1.125 2.688q0 1.5-1.125 2.656t-2.687 1.156"/><path d="M521.063 29.125 504.75 29v-6.875h3.438q-.25-.5-.625-1.812T507 18.438q-.187-.625 0-.907.188-.28.688-.53 1.25-.563 1.968-1.532.72-.969 1.72-2.656.312-.563.843-.563t.656.688q.688 3.25 1.188 5t1.562 2.312q-.375-.875-.656-1.875t-.344-1.875q0-.437.281-.687t.594-.438q1.25-.625 2.156-1.562T519.313 11q.187-.437.562-.5.375-.062.5.438.563 1.562.906 3.406t.781 3.437 1.125 2.407q-.125-1-.312-2.344-.188-1.344-.375-2.563-.188-1.218-.313-1.718t.032-.75.468-.438q.188-.125.25-.187 1-.688 2.032-1.97 1.03-1.28 1.406-2.78.187-.75.656-.844t.656.78q.25 1.188.594 3.376t.688 4.719q.343 2.53.53 4.937.188 2.406.126 4.094-.063 1.188-.781 2.281-.72 1.094-2.563 1.719t-5.219.625Zm38.329-3.535q-.613-.124-.488-.737.062-.306.344-.44 1.559-.767 2.978-1.787 1.419-1.019 2.795-2.142.233-.208.54-.146.612.124.488.737-.05.245-.198.343-2.863 2.48-6.067 4.124-.147.098-.392.048m-3.875-4.875q-.613-.124-.488-.737.062-.306.344-.44 1.559-.767 2.978-1.787 1.419-1.019 2.795-2.142.233-.208.54-.146.612.125.488.737-.05.245-.198.343-2.863 2.48-6.067 4.124-.147.098-.392.048m1.937 2.438q-.612-.125-.488-.737.062-.306.345-.44 1.558-.768 2.977-1.787 1.419-1.02 2.795-2.143.234-.208.54-.145.612.124.488.737-.05.244-.197.342-2.863 2.48-6.067 4.125-.148.098-.393.048M613 48q-.625 0-.625-.625 0-.312.25-.5 1.375-1.062 2.563-2.344 1.187-1.281 2.312-2.656.188-.25.5-.25.625 0 .625.625 0 .25-.125.375-2.312 3-5.125 5.25Q613.25 48 613 48m1.875 1.688q-.625 0-.625-.626 0-.312.25-.5 1.375-1.062 2.563-2.343 1.187-1.282 2.312-2.657.188-.25.5-.25.625 0 .625.626 0 .25-.125.374-2.312 3-5.125 5.25-.125.126-.375.126m-2.812-4.75q-3.438.624-7.532.906-4.093.28-8 .093t-6.937-.843-4.406-1.844q-.625-.5-.438-1.031.188-.532 1-.532t2-1.312 1.938-2.562q.312-.5.718-.844.407-.344.97-.032 2.374 1.376 6.312 1.782 3.937.406 10.187.03-.125-.25-.219-.562-.093-.312-.78-.312-4.438.125-7.25-.063-2.813-.187-4.407-.78-1.594-.595-2.531-1.532-1.125-1.187-1.313-3.094T591 28.937q-.25-2.25-.5-4.906t-.562-4.406q-.063-.5.031-.719t.594-.656q1.312-1.125 2.219-2.312.906-1.188 1.906-3.063.25-.437.75-.656t.562.969q.125 1.187.281 2.25t.344 2.812q.125 1.188.47 1.688.343.5.718.625l-.125-1.47q-.063-.718-.125-1.03-.063-.5.031-.72.094-.218.594-.655 1.312-1.125 2.219-2.313.906-1.187 1.906-3.062.25-.438.75-.657.5-.218.562.97.125 1.187.282 2.25t.343 2.812q.125 1.25.5 2t.75 1.125q-.062-1.688-.218-2.563-.157-.875-.282-1.625-.062-.5.063-.812t.75-.563q1.312-.5 2.219-1.906t2.343-3.531q.313-.375.75-.313.438.063.438.938.062 2.375.312 4.625t.47 4.719.28 5.656q.063 1.562-1.156 3.062t-3.844 1.5q-3.125 0-5.062-.03-1.938-.032-3.938-.22.063.5.344.688t.781.312q.625.125 1.563.281t3.187.22 6.625.062q1.063 0 1.344.187.281.188.594.75.688 1.188 1 2.844t.75 4.156q.438 2.688-.219 4.5-.656 1.813-2.53 2.188Z"/></svg>