<svg xmlns="http://www.w3.org/2000/svg" viewBox="0 0 2953 482.05"><path d="M47.23 133.25q5.636-.001 8.195 4.61 2.813 4.863 2.813 9.984.002 13.307-2.176 41.469-2.175 28.16-6.527 71.426-1.535 3.07-4.094 3.328-2.309-1.283-3.074-2.817-7.68-86.526-7.68-113.41 0-5.121 3.586-9.984 3.582-4.61 8.957-4.61zM32.382 292.48q0-5.63 4.098-9.469 4.605-4.096 9.726-4.097 5.633.001 9.73 4.097 3.84 3.838 3.84 9.469 0 5.378-3.84 9.73-3.842 4.353-9.73 4.352-5.373 0-9.726-4.351-4.096-4.095-4.098-9.731M158.59 170.89c.68-11.605-3.246-20.227-11.777-25.855q-7.68-5.121-17.664-5.121-11.009.51-16.129 6.656-12.03 13.565 1.023 35.328 8.708 14.081 13.184 28.543c2.989 9.645 4.653 19.242 4.993 28.801q.256 6.4 0 11.777c-.168 3.582-.598 6.824-1.278 9.727q-.766 3.07-3.328 3.07c-2.05 0-2.988-1.277-2.816-3.84q.256-2.559.254-5.117v-4.867q0-13.054-7.422-19.711-26.624-22.782-30.72-36.094-7.936-24.834 5.888-44.29c8.363-11.265 20.734-17.065 37.12-17.41q10.752.001 20.478 5.634 10.752 6.146 15.105 19.71c1.367 4.27 1.793 9.387 1.28 15.364q-.767 9.469-2.562 13.312c-3.242 7.335-8.36 11.008-15.359 11.008q-7.165 0-11.52-5.121-3.838-5.123-3.84-10.497 0-5.888 3.329-10.242 3.328-4.347 10.496-4.863c4.609-.168 8.363 1.195 11.266 4.098zm-44.801 121.6q-.001-5.63 4.094-9.469 4.61-4.096 9.73-4.097 5.63.001 9.727 4.097 3.839 3.838 3.84 9.469-.002 5.378-3.84 9.73c-3.838 4.352-5.8 4.352-9.727 4.352q-5.378 0-9.73-4.351-4.095-4.095-4.094-9.731m82.695-82.947q-.001-5.633 4.094-9.602 4.095-3.967 9.726-3.968 5.636.001 9.602 3.968 3.967 3.97 3.969 9.602c.002 5.632-1.324 7.04-3.969 9.856q-3.966 4.223-9.602 4.222-5.631.001-9.726-4.222-4.094-4.225-4.094-9.856m0 82.941q-.001-5.63 4.094-9.598c4.095-3.968 5.972-3.968 9.726-3.968q5.636.001 9.602 3.968c3.966 3.967 3.969 5.844 3.969 9.598q0 5.636-3.969 9.86-3.966 4.22-9.602 4.222-5.631-.002-9.726-4.223-4.094-4.223-4.094-9.859m109.814 37.121q0 4.863-3.586 8.45c-2.39 2.386-5.203 3.581-8.45 3.581q-4.863 0-8.444-3.582-3.586-3.586-3.586-8.449c0-3.414 1.195-6.312 3.586-8.703q3.58-3.586 8.445-3.586c3.246 0 6.059 1.195 8.45 3.586s3.585 5.289 3.585 8.703m-15.363-127.49c2.902-1.875 5.207-1.793 6.914.258 1.707 1.875 1.363 4.008-1.023 6.398-20.992 21.848-28.16 41.984-21.504 60.418q1.021 2.814 2.816 1.024c3.754-4.782 8.79-7.168 15.102-7.168 5.293 0 9.898 1.96 13.824 5.886q5.632 5.632 5.633 13.57.001 7.937-6.145 13.82-6.397 5.89-14.336 5.633-9.47-.51-15.359-4.605-15.615-12.293-13.055-46.082a66.5 66.5 0 0 1 3.328-15.105q2.557-7.425 7.168-14.59 9.212-14.337 16.637-19.457m94.469.005c2.902-1.875 5.207-1.793 6.914.258 1.707 1.875 1.363 4.008-1.023 6.398-20.992 21.848-28.16 41.984-21.504 60.418q1.021 2.815 2.816 1.024c3.754-4.782 8.79-7.168 15.102-7.168 5.293 0 9.898 1.96 13.824 5.886q5.632 5.632 5.633 13.57.001 7.937-6.145 13.82-6.397 5.89-14.336 5.633-9.47-.51-15.359-4.605-15.615-12.293-13.055-46.082a66.5 66.5 0 0 1 3.328-15.105q2.557-7.425 7.168-14.59 9.213-14.337 16.637-19.457m241.156-34.31q.51-4.605 4.098-4.605c2.73 0 4.007 2.472 3.84 7.421q-.258 7.94-1.665 16.641c-.941 5.805-2.261 11.863-3.968 18.176-4.61 16.727-14.934 22.527-30.977 17.41q-7.425-2.308-13.055-6.656-12.288 13.313-27.137 12.285 16.125 64.77 8.449 94.977-.773 2.561-2.817 3.328c-1.539.512-2.73.426-3.586-.254q-1.277-1.024-1.793-4.351-4.347-68.611-34.559-113.41-5.374-7.424-4.097-12.543l6.402-25.855q2.303-9.217 8.96.765 14.85 21.762 18.177 23.81 7.166 4.094 18.176 3.074 15.1-1.54 20.48-27.906 1.278-5.121 3.84-4.864 3.071.258 3.84 3.586.764 3.58-1.024 13.055-2.05 9.728 12.031 13.566c9.727 2.563 15.188-6.656 16.383-27.648zm60.17 2.56q1.025-4.864 3.074-5.121 2.814-.512 6.91 7.426c8.536 16.039 19.797 24.062 33.793 24.062q29.955 0 33.535-26.88.77-4.61 4.352-4.609 3.33 0 4.61 2.817.51 1.278.128 5.758-.387 4.482-1.664 11.648-2.303 14.339-10.242 25.602-12.798 18.944-43.262 13.824 8.192 30.205 10.367 54.91 2.175 24.708-1.664 43.648-.512 2.818-2.558 3.585-2.562.767-3.84-.511-1.284-1.536-1.793-4.098c-2.73-43.859-14.336-81.836-34.816-113.92-2.903-4.781-4.012-8.79-3.328-12.035zm177.667-.76c2.39-7.34 5.8-5.8 10.238 4.61q7.426 19.2 12.547 37.632c3.41 12.285 5.973 24.316 7.68 36.094 2.386 16.555 3.328 31.148 2.816 43.777-.516 12.63-2.219 23.38-5.121 32.254q-1.536 4.095-4.61 3.329-3.327-.77-3.327-5.118.766-65.284-26.625-113.92-4.096-7.68-2.301-13.055zm151.051 54.269c.512-1.535 1.277-2.477 2.3-2.816q2.052-1.026 5.38 1.28l21.246 13.567q4.352 3.071 2.558 8.703l-8.191 25.344c-1.363 4.098-4.266 4.863-8.703 2.305l-23.297-13.566q-3.07-1.796-1.024-7.68zM1244.053 51.85q10.236-18.69 26.367-6.402c6.996 5.46 10.75 11.863 11.266 19.199q.768 13.826-8.45 20.48c-4.609 3.074-10.155 4.351-16.64 3.84q-20.479-1.535-16.641-25.599c.344-2.218.898-4.27 1.664-6.144a77 77 0 0 1 2.433-5.375zm27.137 19.199q7.424-2.05-.258-9.73-5.632-5.63-13.566-5.63-9.474-.256-9.984 8.192-.001 5.631 4.094 7.168c5.972 2.047 12.547 2.047 19.715 0zm39.42 194.814c1.027-2.39 2.39-2.73 4.098-1.023.855.851 1.96 2.218 3.328 4.093q2.05 2.82 4.61 6.915 3.07 4.863 10.495 4.863 5.372.001 6.145 5.375.767 4.863-1.793 11.52-2.306 6.145-4.352 6.144h-7.937c-1.024 19.97-7.082 38.398-18.176 55.297q-19.203 29.184-65.023 30.72-23.04.768-37.121-12.802-13.821-13.564-12.801-33.023.513-9.726 5.503-22.91c4.99-13.184 7.98-18.73 13.953-29.824q.77-1.535 2.047-1.535 1.794 0 2.563 1.023c.68.852.597 1.961-.258 3.329q-12.545 24.316-11.777 33.535c1.195 22.699 14.852 34.219 40.961 34.559q42.497.257 64.258-23.297c2.902-20.648 1.277-37.801-4.863-51.453q-1.54-3.585-1.282-4.352zm-54.016-57.09q.516-.769 2.05-.512 10.238 3.584 18.177 10.754 1.02 1.021.254 2.047l-12.031 19.457q-.767 1.278-2.559-.258-1.024-.768-5.379-3.582c-2.898-1.879-7.082-4.437-12.543-7.683q-1.277-.768-.512-1.535zM1367.917 10.37q3.84-.769 7.168 4.094 6.399 9.983 0 26.625 2.046 1.025 3.453 1.922c.942.593 1.75 1.066 2.434 1.406q3.327 1.534 1.535 5.121l-2.817 5.375c-1.023 1.707-2.3 2.305-3.84 1.793q-1.02-.515-2.816-1.281-1.788-.769-4.094-2.047-17.667 23.549-40.19 34.559-4.864 2.56-6.657-.512-2.05-3.838 3.582-6.91 22.787-13.314 36.61-30.977c-5.122-2.73-8.704-5.121-10.755-7.168q-6.14-5.632-3.328-12.547c4.781-11.602 11.352-18.09 19.715-19.453m-2.816 16.383c-3.754-3.414-6.829-3.156-9.215.77-.684 1.023-.258 2.3 1.277 3.84q2.562 2.56 10.754 6.398 1.279-7.936-2.816-11.008"/><path d="M1381.741 264.84q3.327 3.84 7.168 5.117 4.096 1.537 9.727 7.426 10.754 12.031 12.03 22.527 1.284 10.494 0 18.176-1.02 6.147-6.656 4.863-12.284-2.301-22.016-12.8-9.727-10.497-11.773-23.294-.767-4.095-1.793-5.12c-.851-.856-1.793-1.282-2.816-1.282s-3.242 1.707-6.656 5.121q-15.873 15.873-25.855 18.176-2.304.768-3.84-3.586-2.56-8.19.512-16.125 1.025-3.076 3.328-3.328c1.879-.344 4.098-1.066 6.656-2.176s5.547-2.52 8.96-4.226q10.497-5.374 15.614-12.031 7.426-8.96 12.289-3.328zm59.984-222.47q6.398-3.841 4.606 2.559l-2.56 8.191q-.767 3.33-5.632 6.145l-49.664 28.672q-2.303 1.28-3.582.769-1.024-.767-1.023-3.074V81.28c0-1.363 1.535-3.328 4.605-5.886z"/><path d="M1452.987 279.688q5.378 1.536 6.914 12.797c1.363 10.414-.937 15.105-6.914 14.082q-21.247-3.072-25.086-52.48-8.45 19.967-28.93 27.648c-10.07 3.926-18.941 1.535-26.625-7.168-4.777-5.293-6.652-9.984-5.629-14.082q.769-3.84 5.117-3.84l7.68 3.586q6.914 3.327 12.035 2.816 24.065-2.305 28.16-16.129c.34-1.195.254-5.8-.258-13.824-.512-8.019-1.449-19.543-2.816-34.559q-3.84-45.058-3.84-51.715 0-6.141 1.535-8.703l5.38-11.262q1.534-2.818 3.07-1.793c.855.684 1.449 1.875 1.792 3.582l6.145 67.84q1.535 20.735 3.328 36.227 1.792 15.487 4.094 25.473 4.095 18.428 14.848 21.504m71.838-237.318q6.398-3.841 4.606 2.559l-2.56 8.191q-.767 3.33-5.632 6.145l-49.664 28.672q-2.303 1.28-3.582.769-1.024-.767-1.023-3.074V81.28c0-1.363 1.535-3.328 4.605-5.886z"/><path d="M1438.364 202.63q41.472 11.777 56.32 29.441 12.544 15.105 12.543 29.695 0 49.922-54.527 44.801c-2.39-.172-4.266-2.047-5.633-5.633q-2.559-6.913-.765-12.543 2.812-9.472 6.398-8.703c18.262 2.899 33.879-1.621 46.848-13.57q1.535-1.278.77-2.305-17.667-27.392-66.563-40.445-5.374-1.282-5.375-13.059.002-9.726 2.56-15.613c5.976-13.656 26.538-30.55 61.698-50.688q21.246-12.035 41.344-21.89 20.094-9.855 39.04-17.536 7.165-2.56 5.632 4.098l-3.84 16.125q-.769 3.585-4.098 4.867c-9.386 3.41-20.308 8.063-32.77 13.95-12.456 5.89-26.366 13.097-41.726 21.632-30.892 17.066-50.177 29.527-57.856 37.375zm255.719 130.815q.767-12.545 6.656-28.16c1.88-5.121 3.754-9.598 5.633-13.438s3.754-7.043 5.633-9.602q2.046-2.301 4.094-1.28 2.562 1.282.511 4.35-20.221 36.867-10.496 55.81c9.22 18.434 26.54 26.965 51.97 25.602q44.287-2.05 77.058-29.441 2.559-3.84-4.61-5.633c-4.776-1.191-12.374-2.219-22.784-3.07q-15.616-1.28-16.895-2.047-12.545-6.913-3.328-21.25c3.754-5.633 9.004-10.453 15.742-14.465q10.112-6.014 24.449-10.11 7.94-2.301 6.398 8.192-2.045 14.848-6.398 14.848-24.833 0-25.086 6.656c20.82.684 34.645 3.668 41.469 8.961q4.095 3.07 5.12 7.68c.856 3.07 0 7.766-2.558 14.078q-3.841 9.731-7.168 13.059-32.514 34.301-82.945 36.605-31.23 1.537-49.664-15.359c-9.726-9.047-13.996-23.039-12.8-41.984zm86.527 80.129q.516-.769 2.05-.512 5.122 1.793 9.598 4.352 4.483 2.56 8.579 6.144 1.023 1.024.253 2.305l-12.285 19.453q-.513.77-2.304-.512-.77-.767-4.352-2.941-3.586-2.178-10.242-6.016l-9.726 15.102q-.77 1.283-2.56-.254-1.025-.767-5.378-3.585c-2.898-1.875-7.082-4.438-12.543-7.68q-1.026-.768-.258-1.535l12.547-18.688q.511-.769 2.047-.512a38.6 38.6 0 0 1 8.192 3.453 47 47 0 0 1 7.168 4.992zm127.015-28.672q6.398-3.84 4.606 2.559l-2.56 8.191c-.51 2.219-2.39 4.27-5.632 6.145l-49.664 28.671q-2.303 1.282-3.582.77-1.024-.767-1.023-3.074v-4.352c0-1.363 1.535-3.328 4.605-5.886zm5.618-332.802q.769-5.89 3.84-5.375 3.843.511 3.586 5.375-.769 13.312-5.121 22.785-5.121 11.008-14.336 11.773-5.888.258-11.266-6.14-1.79 3.326-4.352 5.628c-1.707 1.54-3.496 2.817-5.375 3.84-4.266 2.219-8.45 2.477-12.543.77q-14.847-6.146-3.328-35.84 1.277-2.82 3.07-3.328 1.026-.258 2.305.257 2.819 1.279 1.793 5.63-4.352 15.103 3.582 16.128c6.488.684 11.605-6.23 15.363-20.734.851-2.902 2.219-4.097 4.094-3.586q3.33.769 2.558 3.84-1.534 8.96 1.793 11.777 1.793 1.28 4.352 1.281 8.449 0 9.984-14.082z"/><path d="M1913.004 297.606q-19.2 6.398-49.152 6.656-15.105.258-24.191 0c-9.086-.258-10.113-.34-12.16-.512-1.367-.34-2.645-2.305-3.84-5.887-3.586-10.926-2.305-16.64 3.84-17.152l11.008-.258 14.082-15.102q.252-24.58-1.793-54.273-2.05-29.695-6.402-64.258-.509-5.115-.895-8.19-.386-3.073-.894-4.095-1.026-3.583 6.14-17.41c.516-1.023 1.196-1.535 2.051-1.535q1.279 0 2.047 1.793 5.377 13.821 10.754 19.2 3.07 2.817 0 6.655l-4.356 5.633c-.851 1.023-1.109 2.898-.765 5.633q6.656 52.22 5.375 73.727-.258 4.095-1.535 11.648-1.284 7.553-3.328 18.305c20.992-17.582 36.609-28.758 46.848-33.54q16.13-7.423 23.809-4.862c8.019 2.218 14.422 8.277 19.199 18.176q1.28 2.303.511 7.425-3.584 19.713-17.406 32 9.726 2.561 18.941 3.457c6.145.594 12.117.555 17.922-.129 2.39-.343 3.926 1.196 4.61 4.606q2.303 9.986-.258 14.082c-1.88 2.902-3.328 4.352-4.352 4.352-16.727 1.367-35.328-.684-55.809-6.145zm8.45-46.848q-16.133-12.03-44.802 7.68a149 149 0 0 0-13.695 10.495 230 230 0 0 0-12.418 11.52q45.824-2.56 80.387-19.969-2.562-4.605-9.472-9.726M2053.317 10.37q3.84-.769 7.168 4.094 6.399 9.983 0 26.625 2.046 1.025 3.453 1.922c.942.593 1.75 1.066 2.434 1.406q3.328 1.534 1.535 5.121l-2.817 5.375c-1.023 1.707-2.3 2.305-3.84 1.793q-1.02-.515-2.816-1.281-1.788-.769-4.094-2.047-17.667 23.549-40.19 34.559-4.864 2.56-6.657-.512-2.05-3.838 3.582-6.91 22.787-13.314 36.61-30.977c-5.122-2.73-8.704-5.121-10.755-7.168q-6.14-5.632-3.328-12.547c4.781-11.602 11.352-18.09 19.715-19.453m-2.816 16.383c-3.754-3.414-6.829-3.156-9.215.77-.684 1.023-.258 2.3 1.277 3.84q2.562 2.56 10.754 6.398 1.278-7.936-2.816-11.008"/><path d="M1970.035 247.941q2.05-8.19 10.242-16.129 8.702-8.19 18.176-8.191 9.727-.001 44.543 14.594 6.399 2.56 14.594 4.734 8.192 2.178 17.918 4.227c13.141 2.558 26.625 3.328 40.45 2.3q5.63-.252 3.327 4.61l-7.168 15.617q-1.534 3.071-5.379 2.305c-19.285-3.247-37.547-2.305-54.78 2.812q-31.747 10.499-50.689 19.715-18.432 9.216-32.77 9.215c-1.023 0-1.879-.852-2.558-2.559q-2.819-7.681-1.281-14.082 1.535-5.888 3.84-6.398c12.288-.856 24.061-2.86 35.327-6.016a177.3 177.3 0 0 0 32.512-12.672c-22.527-12.973-43.266-16.473-62.207-10.496q-2.05.767-3.328-.512-1.022-1.281-.77-3.074zM2244.253 51.85q10.236-18.69 26.367-6.402c6.996 5.46 10.75 11.863 11.266 19.199q.768 13.826-8.45 20.48c-4.609 3.074-10.155 4.351-16.64 3.84q-20.479-1.535-16.641-25.599c.344-2.218.898-4.27 1.664-6.144a77 77 0 0 1 2.434-5.375zm27.137 19.199q7.424-2.05-.258-9.73-5.632-5.63-13.566-5.63-9.474-.256-9.984 8.192-.001 5.631 4.094 7.168c5.972 2.047 12.547 2.047 19.715 0zm2.587 161.275c.172-.68.426-1.11.766-1.277q1.283-.515 3.843 2.047 9.98 10.241 14.848 27.39 5.117 17.666 3.582 34.306-3.07 22.53-17.918 41.473-14.847 19.202-38.914 25.344-6.14 1.791-12.289-.254-14.846-5.123-24.19-8.832c-6.227-2.477-10.54-4.48-12.927-6.016q-1.024-.773-1.023-1.539-.001-1.02.766-1.79c.511-.515 1.28-.597 2.304-.257q8.96 2.561 16.383 3.457c7.423.896 9.559.64 13.824.129 4.266-.516 8.832-1.75 13.695-3.715 4.868-1.96 10.027-4.734 15.488-8.32 16.215-10.41 28.074-22.7 35.586-36.863.684-1.024.852-2.39.512-4.094q-3.838-13.57-19.969-33.539-.769-1.278-.512-2.047zm-26.113-79.613c.344-.512 1.023-.684 2.047-.512 6.828 2.387 12.887 5.973 18.18 10.75q1.021 1.026.254 2.047l-12.031 19.457q-.77 1.283-2.559-.254-1.024-.767-5.379-3.586c-2.898-1.875-7.082-4.437-12.543-7.68q-1.278-.767-.511-1.535zM2329.201 28.8l46.078-20.48q4.61-1.792 4.098 2.047l-1.024 8.703q-.514 2.818-2.304 3.586l-45.055 15.617q-5.637 1.788-4.868-2.816l.512-3.586c.172-1.364 1.027-2.391 2.563-3.07zm44.542 23.3q.769-5.89 3.84-5.375 3.843.511 3.586 5.375-.769 13.312-5.121 22.785-5.12 11.008-14.336 11.773-5.888.258-11.266-6.14-1.79 3.326-4.352 5.628c-1.707 1.54-3.496 2.817-5.375 3.84-4.266 2.219-8.45 2.477-12.543.77q-14.847-6.146-3.328-35.84 1.277-2.82 3.07-3.328 1.026-.258 2.305.257 2.819 1.279 1.793 5.63-4.352 15.103 3.582 16.128c6.488.684 11.605-6.23 15.363-20.734.851-2.902 2.219-4.097 4.094-3.586q3.33.769 2.558 3.84-1.534 8.96 1.793 11.777 1.793 1.28 4.352 1.281 8.449 0 9.984-14.082zm22.556 254.466q-7.935 45.568-48.383 63.742c-3.414 1.54-6.742 2.774-9.984 3.715q-4.866 1.406-9.215 1.664-9.216.509-32.77-15.617c-1.88-1.367-2.473-2.644-1.793-3.84q1.025-1.794 3.586-.511 21.247 11.009 53.504-7.426 27.392-15.616 37.375-43.262.001-1.025-.766-1.281-18.948-.51-27.395-5.121c-5.973-3.414-8.191-10.066-6.656-19.97a32 32 0 0 1 .77-3.71q.509-1.919 1.28-4.223 5.373-15.873 15.872-21.762 10.493-5.888 17.664 4.098c4.949 6.824 7.765 16.043 8.445 27.648q1.025 0 1.922-.13a13.5 13.5 0 0 1 1.918-.128q3.842.001 4.61 5.89c.51 3.754.257 7.594-.77 11.52-1.024 3.926-2.301 5.887-3.84 5.887h-4.863q.002.767-.512 2.817zm-12.289-28.672c-3.41-7.168-7.508-10.668-12.285-10.496q-4.353.767-6.914 4.094c-.852 1.027-.68 2.219.512 3.586 2.73 3.582 8.62 5.207 17.664 4.863 1.023 0 1.367-.683 1.023-2.047m76.015-235.524q6.398-3.841 4.606 2.559l-2.56 8.191q-.767 3.33-5.632 6.145l-49.664 28.672q-2.303 1.28-3.582.769-1.024-.767-1.023-3.074V81.28c0-1.363 1.535-3.328 4.605-5.886z"/><path d="M2423.416 221.316q6.145-23.038 16.895-22.527 11.009.515 34.562 22.785 23.295 22.016 25.598 35.84 2.818 17.15-7.934 29.953-5.378 6.4-13.312 5.629-20.737-2.301-43.777-11.008c-16.21 14.508-27.562 21.762-34.047 21.762q-2.304 0-4.097-4.098-7.678-17.407 4.097-18.94 9.729-1.282 17.664-7.169-7.166-5.631-3.84-15.617 5.375-16.642 18.689-28.414-2.56-4.097-8.192-4.867-3.071-.51-2.305-3.328zm37.887 21.762q-1.022-.767-1.023.512 1.282 8.19-8.703 21.25c19.796 6.14 31.487 8.191 35.07 6.14 1.195-.511 1.625-1.191 1.28-2.047q-5.12-12.286-26.624-25.855m-19.199 18.434q8.45-4.353 8.45-6.656-1.025-13.312-7.938-14.848c-6.824-1.54-13.227 1.449-19.2 8.957q-2.56 3.073 1.794 5.89c2.902 1.875 8.53 4.094 16.895 6.657zM2634.653 51.85q10.236-18.69 26.367-6.402c6.996 5.46 10.75 11.863 11.266 19.199q.768 13.826-8.45 20.48c-4.609 3.074-10.155 4.351-16.64 3.84q-20.479-1.535-16.641-25.599c.344-2.218.898-4.27 1.664-6.144a77 77 0 0 1 2.433-5.375zm27.137 19.199q7.424-2.05-.258-9.73-5.632-5.63-13.566-5.63-9.474-.256-9.984 8.192-.001 5.631 4.094 7.168c5.972 2.047 12.547 2.047 19.715 0zm50.68 209.662c2.734.852 4.438 3.07 5.121 6.656q1.283 6.141-.254 11.262-1.54 5.121-4.867 5.121c-11.09-.683-18.688-9.984-22.781-27.902q-1.026-4.353-1.535-6.53l-.516-2.177q-.767-2.045-1.535.258-8.189 21.762-20.48 26.625-15.615 6.398-43.008 4.606-21.245-1.536-11.008-33.535 1.281-3.84 3.84-4.098 2.56-.252 3.586 3.328 2.304 7.425 6.91 8.45 24.832 5.376 44.8-2.56 9.728-3.843 13.056-14.335.256-1.536-3.582-27.395-1.792-12.8-2.817-20.863-1.025-8.061-1.535-10.88-.768-5.631.766-8.702c1.367-2.903 2.562-5.418 3.586-7.555q1.536-3.2 2.305-5.246.766-2.05 2.558-1.793 2.049.513 2.305 2.562 3.07 26.878 6.527 48.254t7.04 37.25q3.843 17.407 11.52 19.2zm43.755-238.341q6.398-3.841 4.606 2.559l-2.56 8.191q-.767 3.33-5.632 6.145l-49.664 28.672q-2.303 1.28-3.582.769-1.024-.767-1.023-3.074V81.28c0-1.363 1.535-3.328 4.605-5.886z"/><path d="M2755.254 239.75q12.03 4.864 26.109 8.191c14.079 3.327 19.285 4.012 29.695 5.375q31.487 4.355 49.41 2.305 2.303-.252 3.07 1.535.767 1.795-.254 3.84l-7.68 13.57q-1.282 2.561-4.35 2.047-41.73-2.303-76.548 8.191-1.277.257-8.191 2.688c-4.61 1.625-11.094 3.969-19.457 7.043q-24.832 9.215-34.56 9.215-3.07-.002-5.12-8.703-2.56-14.082 5.378-14.336 7.934-.258 33.023-6.657a4421 4421 0 0 0 18.816-4.738c4.352-1.11 6.696-1.746 7.04-1.918q.512-.258.765-.383a1.14 1.14 0 0 1 .512-.129q2.05-.767.258-1.535c-3.754-1.879-7.938-3.457-12.543-4.738-4.61-1.277-9.645-2.348-15.105-3.2a171 171 0 0 0-15.488-1.792q-7.552-.51-14.207 0c-1.367 0-1.961-.598-1.793-1.793a21.4 21.4 0 0 1 2.304-5.375 73 73 0 0 1 3.586-5.375q4.35-5.888 8.703-6.914c6.825-1.704 15.7-.512 26.625 3.585zm13.055 81.406q.51-.766 2.047-.512 10.242 3.587 18.176 10.754 1.025 1.024.258 2.047l-12.031 19.457c-.516.852-1.367.77-2.563-.258q-1.023-.768-5.375-3.582-4.352-2.817-12.543-7.68-1.28-.767-.512-1.535zm30.444-269.306q10.236-18.69 26.367-6.402c6.996 5.46 10.75 11.863 11.266 19.199q.768 13.826-8.45 20.48c-4.609 3.074-10.155 4.351-16.64 3.84q-20.479-1.535-16.641-25.599c.344-2.218.898-4.27 1.664-6.144a77 77 0 0 1 2.434-5.375zm27.137 19.199q7.424-2.05-.258-9.73-5.632-5.63-13.566-5.63-9.474-.256-9.984 8.192-.001 5.631 4.094 7.168c5.972 2.047 12.547 2.047 19.715 0z"/><path d="M2836.32 211.848q0 2.303-1.281 3.328-1.536 1.021-3.07.254-1.026-.51-1.536-3.07c-1.879-12.973-4.695-20.992-8.449-24.066q-3.837-3.07-6.914.77-29.18 38.655-58.367 53.503c-6.996 3.582-15.699 4.524-26.109 2.817-7.684-1.536-10.07-3.672-7.168-6.403q2.556-2.56 8.445-4.863 14.08-5.375 26.113-11.137c8.02-3.84 15.445-7.89 22.273-12.16 12.285-7.68 21.246-18.344 26.88-32q6.909-16.383 13.565-16.383c8.535-.172 13.738 16.301 15.617 49.41zm3.582 126.97c.344-.512 1.027-.68 2.05-.512q10.237 3.587 18.177 10.754 1.023 1.024.254 2.047l-12.031 19.457c-.512.852-1.364.77-2.559-.258q-1.026-.768-5.375-3.582-4.354-2.817-12.547-7.68-1.277-.767-.512-1.535zM2914.66 10.13c3.071-1.879 4.606-1.535 4.606 1.023l-.254 8.961q-.002 3.329-2.558 4.864a612 612 0 0 1-18.434 9.09 1345 1345 0 0 1-17.41 8.062q-4.864 2.303-6.14 1.535-1.283-.511-1.282-2.305v-5.375q.001-1.792 2.305-3.328c10.07-5.972 18.387-10.836 24.96-14.59q9.856-5.633 14.208-7.937zm-12.005 122.1c3.586-8.363 5.887-8.535 6.914-.512l5.887 62.72c6.484 56.491 5.719 92.331-2.305 107.52q-1.792 3.076-2.816 1.534-1.025-1.276-1.024-4.351c.34-14.336-.683-30.461-3.07-48.383q0-1.024-5.379-48.641l-5.629-46.336c-.344-3.414 0-6.313 1.024-8.703zm23.297-36.352q-6.914 1.278-11.906 2.305c-3.324.68-5.93 1.363-7.805 2.047q-2.818 1.025-8.195 3.199-5.374 2.174-13.309 5.761-3.328 1.535-4.867-1.027-3.07-4.604 9.984-12.543c-6.312-3.07-9.898-6.656-10.75-10.75q-2.05-10.753 8.703-25.344 10.751-14.595 22.785-13.57 7.677.769 6.91 8.703-.766 7.94-4.605 13.312-3.585 5.12-6.145 1.281-2.816-4.605-7.68-4.863c-3.413-.344-6.058.684-7.937 3.07q-3.07 3.844.258 6.657 8.444 7.94 25.086 8.449 1.284-.002 3.2-.383l4.48-.898c1.879-.34 3.414-.641 4.61-.895 1.195-.258 2.132-.383 2.816-.383 1.535 0 2.558.594 3.07 1.79q.768 1.536.258 2.816c-3.414 6.996-6.403 10.754-8.961 11.266"/></svg>