<?xml version="1.0" encoding="UTF-8"?>
<svg version="1.1" viewBox="0 0 2953 482.05" xmlns="http://www.w3.org/2000/svg">
 <g fill="white">
  <g transform="translate(16,303.75)">
   <path d="m31.23-170.5c3.7578 0 6.4883 1.5352 8.1953 4.6094 1.875 3.2422 2.8125 6.5703 2.8125 9.9844 0 8.8711-0.72266 22.695-2.1758 41.469-1.4492 18.773-3.625 42.582-6.5273 71.426-1.0234 2.0469-2.3867 3.1562-4.0938 3.3281-1.5391-0.85547-2.5625-1.793-3.0742-2.8164-5.1211-57.684-7.6797-95.488-7.6797-113.41 0-3.4141 1.1953-6.7422 3.5859-9.9844 2.3867-3.0742 5.375-4.6094 8.957-4.6094zm-14.848 159.23c0-3.7539 1.3672-6.9102 4.0977-9.4688 3.0703-2.7305 6.3125-4.0977 9.7266-4.0977 3.7539 0 7 1.3672 9.7305 4.0977 2.5586 2.5586 3.8398 5.7148 3.8398 9.4688 0 3.5859-1.2812 6.8281-3.8398 9.7305-2.5625 2.9023-5.8047 4.3516-9.7305 4.3516-3.582 0-6.8242-1.4492-9.7266-4.3516-2.7305-2.7305-4.0977-5.9727-4.0977-9.7305z"/>
  </g>
  <g transform="translate(76.156 303.75)">
   <path d="m82.434-132.86c0.67969-11.605-3.2461-20.227-11.777-25.855-5.1211-3.4141-11.008-5.1211-17.664-5.1211-7.3398 0.33984-12.715 2.5586-16.129 6.6562-8.0195 9.043-7.6797 20.82 1.0234 35.328 5.8047 9.3867 10.199 18.902 13.184 28.543 2.9883 9.6445 4.6523 19.242 4.9922 28.801 0.17188 4.2656 0.17188 8.1914 0 11.777-0.16797 3.582-0.59766 6.8242-1.2773 9.7266-0.51172 2.0469-1.6211 3.0703-3.3281 3.0703-2.0508 0-2.9883-1.2773-2.8164-3.8398 0.17188-1.707 0.25391-3.4102 0.25391-5.1172v-4.8672c0-8.7031-2.4727-15.273-7.4219-19.711-17.75-15.188-27.988-27.219-30.719-36.094-5.293-16.555-3.3281-31.32 5.8867-44.289 8.3633-11.266 20.734-17.066 37.121-17.41 7.168 0 13.992 1.8789 20.477 5.6328 7.168 4.0976 12.203 10.668 15.105 19.711 1.3672 4.2695 1.793 9.3867 1.2812 15.363-0.51172 6.3125-1.3672 10.75-2.5625 13.312-3.2422 7.3359-8.3594 11.008-15.359 11.008-4.7773 0-8.6172-1.707-11.52-5.1211-2.5586-3.4141-3.8398-6.9141-3.8398-10.496 0-3.9258 1.1094-7.3398 3.3281-10.242 2.2188-2.8984 5.7188-4.5195 10.496-4.8633 4.6094-0.16797 8.3633 1.1953 11.266 4.0977zm-44.801 121.6c0-3.7539 1.3633-6.9102 4.0938-9.4688 3.0742-2.7305 6.3164-4.0977 9.7305-4.0977 3.7539 0 6.9961 1.3672 9.7266 4.0977 2.5586 2.5586 3.8398 5.7148 3.8398 9.4688 0 3.5859-1.2812 6.8281-3.8398 9.7305s-5.8008 4.3516-9.7266 4.3516c-3.5859 0-6.8281-1.4492-9.7305-4.3516-2.7305-2.7305-4.0938-5.9727-4.0938-9.7305z"/>
  </g>
  <g transform="translate(181.89 303.75)">
   <path d="m14.594-94.207c0-3.7539 1.3633-6.957 4.0938-9.6016 2.7305-2.6445 5.9727-3.9688 9.7266-3.9688 3.7578 0 6.957 1.3242 9.6016 3.9688 2.6445 2.6445 3.9688 5.8477 3.9688 9.6016s-1.3242 7.0391-3.9688 9.8555c-2.6445 2.8164-5.8438 4.2227-9.6016 4.2227-3.7539 0-6.9961-1.4062-9.7266-4.2227-2.7305-2.8164-4.0938-6.1016-4.0938-9.8555zm0 82.941c0-3.7539 1.3633-6.9531 4.0938-9.5977s5.9727-3.9688 9.7266-3.9688c3.7578 0 6.957 1.3242 9.6016 3.9688s3.9688 5.8438 3.9688 9.5977c0 3.7578-1.3242 7.043-3.9688 9.8594-2.6445 2.8125-5.8438 4.2227-9.6016 4.2227-3.7539 0-6.9961-1.4102-9.7266-4.2227-2.7305-2.8164-4.0938-6.1016-4.0938-9.8594z"/>
  </g>
  <g transform="translate(238.2 303.75)">
   <path d="m68.098 25.855c0 3.2422-1.1953 6.0586-3.5859 8.4492-2.3906 2.3867-5.2031 3.582-8.4492 3.582-3.2422 0-6.0586-1.1953-8.4453-3.582-2.3906-2.3906-3.5859-5.207-3.5859-8.4492 0-3.4141 1.1953-6.3125 3.5859-8.7031 2.3867-2.3906 5.2031-3.5859 8.4453-3.5859 3.2461 0 6.0586 1.1953 8.4492 3.5859s3.5859 5.2891 3.5859 8.7031zm-15.363-127.49c2.9023-1.875 5.207-1.793 6.9141 0.25781 1.707 1.875 1.3633 4.0078-1.0234 6.3984-20.992 21.848-28.16 41.984-21.504 60.418 0.67969 1.875 1.6211 2.2188 2.8164 1.0234 3.7539-4.7812 8.7891-7.168 15.102-7.168 5.293 0 9.8984 1.9609 13.824 5.8867 3.7539 3.7539 5.6328 8.2773 5.6328 13.57 0 5.2891-2.0469 9.8984-6.1445 13.82-4.2656 3.9258-9.043 5.8047-14.336 5.6328-6.3125-0.33984-11.434-1.875-15.359-4.6055-10.41-8.1953-14.762-23.555-13.055-46.082 0.51172-5.1211 1.6211-10.152 3.3281-15.105 1.7031-4.9492 4.0938-9.8125 7.168-14.59 6.1406-9.5586 11.688-16.043 16.637-19.457z"/>
  </g>
  <g transform="translate(332.67 303.75)">
   <path d="m52.734-101.63c2.9023-1.875 5.207-1.793 6.9141 0.25781 1.707 1.875 1.3633 4.0078-1.0234 6.3984-20.992 21.848-28.16 41.984-21.504 60.418 0.67969 1.875 1.6211 2.2188 2.8164 1.0234 3.7539-4.7812 8.7891-7.168 15.102-7.168 5.293 0 9.8984 1.9609 13.824 5.8867 3.7539 3.7539 5.6328 8.2773 5.6328 13.57 0 5.2891-2.0469 9.8984-6.1445 13.82-4.2656 3.9258-9.043 5.8047-14.336 5.6328-6.3125-0.33984-11.434-1.875-15.359-4.6055-10.41-8.1953-14.762-23.555-13.055-46.082 0.51172-5.1211 1.6211-10.152 3.3281-15.105 1.7031-4.9492 4.0938-9.8125 7.168-14.59 6.1406-9.5586 11.688-16.043 16.637-19.457z"/>
  </g>
  <g transform="translate(501.89 303.75)">
   <path d="m124.67-135.94c0.33984-3.0703 1.707-4.6055 4.0976-4.6055 2.7305 0 4.0078 2.4727 3.8398 7.4219-0.17187 5.293-0.72656 10.84-1.6641 16.641-0.9414 5.8047-2.2617 11.863-3.9688 18.176-4.6094 16.727-14.934 22.527-30.977 17.41-4.9492-1.5391-9.3008-3.7578-13.055-6.6562-8.1914 8.875-17.238 12.969-27.137 12.285 10.75 43.18 13.566 74.84 8.4492 94.977-0.51562 1.707-1.4531 2.8164-2.8164 3.3281-1.5391 0.51172-2.7305 0.42578-3.5859-0.25391-0.85156-0.68359-1.4492-2.1328-1.793-4.3516-2.8984-45.742-14.418-83.543-34.559-113.41-3.582-4.9492-4.9492-9.1289-4.0977-12.543l6.4023-25.855c1.5352-6.1445 4.5234-5.8906 8.9609 0.76563 9.8984 14.508 15.957 22.445 18.176 23.809 4.7773 2.7305 10.836 3.7539 18.176 3.0742 10.066-1.0274 16.895-10.328 20.48-27.906 0.85156-3.4141 2.1328-5.0352 3.8398-4.8633 2.0469 0.17187 3.3281 1.3672 3.8398 3.5859 0.51172 2.3867 0.16797 6.7383-1.0234 13.055-1.3672 6.4844 2.6445 11.008 12.031 13.566 9.7266 2.5625 15.188-6.6562 16.383-27.648z"/>
  </g>
  <g transform="translate(651.66 303.75)">
   <path d="m35.07-133.38c0.68359-3.2422 1.707-4.9492 3.0742-5.1211 1.875-0.33985 4.1797 2.1328 6.9102 7.4258 8.5352 16.039 19.797 24.062 33.793 24.062 19.969 0 31.148-8.9609 33.535-26.879 0.51172-3.0742 1.9648-4.6094 4.3516-4.6094 2.2188 0 3.7578 0.9375 4.6094 2.8164 0.33984 0.85157 0.38281 2.7734 0.12891 5.7578-0.25782 2.9883-0.8125 6.8711-1.6641 11.648-1.5352 9.5586-4.9492 18.094-10.242 25.602-8.5312 12.629-22.953 17.238-43.262 13.824 5.4609 20.137 8.918 38.441 10.367 54.91 1.4492 16.473 0.89453 31.02-1.6641 43.648-0.33984 1.8789-1.1953 3.0742-2.5586 3.5859-1.707 0.51172-2.9883 0.33984-3.8398-0.51172-0.85547-1.0234-1.4531-2.3906-1.793-4.0977-2.7305-43.859-14.336-81.836-34.816-113.92-2.9023-4.7813-4.0117-8.7891-3.3281-12.035z"/>
  </g>
  <g transform="translate(801.42 303.75)">
   <path d="m62.977-134.14c2.3906-7.3398 5.8008-5.8008 10.238 4.6094 4.9492 12.801 9.1328 25.344 12.547 37.633 3.4102 12.285 5.9727 24.316 7.6797 36.094 2.3867 16.555 3.3281 31.148 2.8164 43.777-0.51562 12.629-2.2188 23.379-5.1211 32.254-1.0234 2.7305-2.5625 3.8398-4.6094 3.3281-2.2188-0.51172-3.3281-2.2188-3.3281-5.1172 0.51172-43.523-8.3633-81.496-26.625-113.92-2.7305-5.1211-3.4961-9.4727-2.3008-13.055z"/>
  </g>
  <g transform="translate(951.19 303.75)">
   <path d="m64.258-79.871c0.51172-1.5352 1.2773-2.4766 2.3008-2.8164 1.3672-0.68359 3.1602-0.25781 5.3789 1.2812l21.246 13.566c2.9023 2.0469 3.7539 4.9492 2.5586 8.7031l-8.1914 25.344c-1.3633 4.0977-4.2656 4.8633-8.7031 2.3047l-23.297-13.566c-2.0469-1.1953-2.3867-3.7578-1.0234-7.6797z"/>
  </g>
  <g transform="translate(1214.1 303.75)">
   <path d="m29.953-251.9c6.8242-12.461 15.613-14.594 26.367-6.4024 6.9961 5.4609 10.75 11.863 11.266 19.199 0.51172 9.2188-2.3047 16.043-8.4492 20.48-4.6094 3.0742-10.156 4.3516-16.641 3.8398-13.652-1.0234-19.199-9.5547-16.641-25.598 0.34375-2.2188 0.89844-4.2695 1.6641-6.1445 0.76953-1.8789 1.5781-3.6719 2.4336-5.375zm27.137 19.199c4.9492-1.3672 4.8633-4.6094-0.25781-9.7305-3.7539-3.7539-8.2773-5.6289-13.566-5.6289-6.3164-0.17187-9.6445 2.5586-9.9844 8.1914 0 3.7539 1.3633 6.1445 4.0938 7.168 5.9727 2.0469 12.547 2.0469 19.715 0z"/>
  </g>
  <g transform="translate(1175.7 303.75)">
   <path d="m134.91-37.887c1.0273-2.3906 2.3906-2.7305 4.0976-1.0234 0.85547 0.85156 1.9609 2.2188 3.3281 4.0938 1.3672 1.8789 2.9023 4.1836 4.6094 6.9141 2.0469 3.2422 5.5469 4.8633 10.496 4.8633 3.582 0 5.6289 1.793 6.1445 5.375 0.51172 3.2422-0.0859 7.082-1.793 11.52-1.5352 4.0977-2.9883 6.1445-4.3516 6.1445h-7.9375c-1.0234 19.969-7.082 38.398-18.176 55.297-12.801 19.457-34.477 29.695-65.023 30.719-15.359 0.51172-27.734-3.7539-37.121-12.801-9.2148-9.043-13.48-20.051-12.801-33.023 0.34375-6.4844 2.1758-14.121 5.5039-22.91s7.9805-18.73 13.953-29.824c0.51172-1.0234 1.1953-1.5352 2.0469-1.5352 1.1953 0 2.0508 0.33984 2.5625 1.0234 0.67969 0.85156 0.59766 1.9609-0.25781 3.3281-8.3633 16.211-12.289 27.391-11.777 33.535 1.1953 22.699 14.852 34.219 40.961 34.559 28.332 0.17187 49.75-7.5938 64.258-23.297 2.9024-20.648 1.2774-37.801-4.8633-51.453-1.0273-2.3906-1.4531-3.8398-1.2812-4.3516zm-54.016-57.09c0.34375-0.51172 1.0273-0.68359 2.0508-0.51172 6.8242 2.3906 12.883 5.9727 18.176 10.754 0.67969 0.67969 0.76563 1.3633 0.25391 2.0469l-12.031 19.457c-0.51172 0.85156-1.3633 0.76562-2.5586-0.25781-0.68359-0.51172-2.4766-1.707-5.3789-3.582-2.8984-1.8789-7.082-4.4375-12.543-7.6836-0.85156-0.51172-1.0234-1.0234-0.51172-1.5352z"/>
  </g>
  <g transform="translate(1288.3 303.75)">
   <path d="m79.617-293.38c2.5586-0.51172 4.9492 0.85156 7.168 4.0938 4.2656 6.6562 4.2656 15.531 0 26.625 1.3633 0.68359 2.5156 1.3242 3.4531 1.9219 0.94141 0.59375 1.75 1.0664 2.4336 1.4062 2.2188 1.0234 2.7305 2.7305 1.5352 5.1211l-2.8164 5.375c-1.0234 1.707-2.3008 2.3047-3.8398 1.793-0.67969-0.34375-1.6211-0.76953-2.8164-1.2812-1.1914-0.51172-2.5586-1.1953-4.0938-2.0469-11.777 15.699-25.176 27.219-40.191 34.559-3.2422 1.707-5.4609 1.5352-6.6562-0.51172-1.3672-2.5586-0.17188-4.8633 3.582-6.9102 15.191-8.875 27.395-19.203 36.609-30.977-5.1211-2.7305-8.7031-5.1211-10.754-7.168-4.0938-3.7539-5.2031-7.9375-3.3281-12.547 4.7812-11.602 11.352-18.09 19.715-19.453zm-2.8164 16.383c-3.7539-3.4141-6.8281-3.1562-9.2148 0.76953-0.68359 1.0234-0.25781 2.3008 1.2773 3.8398 1.707 1.707 5.293 3.8398 10.754 6.3984 0.85156-5.2891-0.08594-8.9609-2.8164-11.008z"/>
  </g>
  <g transform="translate(1333.1 303.75)">
   <path d="m48.641-38.91c2.2188 2.5586 4.6055 4.2656 7.168 5.1172 2.7305 1.0234 5.9727 3.5 9.7266 7.4258 7.168 8.0195 11.18 15.531 12.031 22.527 0.85547 6.9961 0.85547 13.055 0 18.176-0.67969 4.0977-2.8984 5.7188-6.6562 4.8633-8.1914-1.5352-15.527-5.8008-22.016-12.801-6.4844-6.9961-10.41-14.762-11.773-23.293-0.51172-2.7305-1.1094-4.4375-1.793-5.1211-0.85156-0.85547-1.793-1.2812-2.8164-1.2812s-3.2422 1.707-6.6562 5.1211c-10.582 10.582-19.199 16.641-25.855 18.176-1.5352 0.51172-2.8164-0.68359-3.8398-3.5859-1.707-5.4609-1.5352-10.836 0.51172-16.125 0.68359-2.0508 1.793-3.1602 3.3281-3.3281 1.8789-0.34375 4.0977-1.0664 6.6562-2.1758s5.5469-2.5195 8.9609-4.2266c6.9961-3.582 12.203-7.5938 15.613-12.031 4.9492-5.9727 9.0469-7.082 12.289-3.3281z"/>
  </g>
  <g transform="translate(1351.1 303.75)">
   <path d="m90.625-261.38c4.2656-2.5625 5.8008-1.707 4.6055 2.5586l-2.5586 8.1914c-0.51172 2.2188-2.3906 4.2695-5.6328 6.1445l-49.664 28.672c-1.5352 0.85547-2.7305 1.1094-3.582 0.76953-0.68359-0.51172-1.0234-1.5352-1.0234-3.0742v-4.3516c0-1.3633 1.5352-3.3281 4.6055-5.8867z"/>
  </g>
  <g transform="translate(1383.1 303.75)">
   <path d="m69.887-24.062c3.5859 1.0234 5.8906 5.2891 6.9141 12.797 1.3633 10.414-0.9375 15.105-6.9141 14.082-14.164-2.0469-22.527-19.543-25.086-52.48-5.6328 13.312-15.277 22.527-28.93 27.648-10.07 3.9258-18.941 1.5352-26.625-7.168-4.7773-5.293-6.6523-9.9844-5.6289-14.082 0.51172-2.5586 2.2188-3.8398 5.1172-3.8398 0 0 2.5625 1.1953 7.6797 3.5859 4.6094 2.2188 8.6211 3.1562 12.035 2.8164 16.043-1.5352 25.43-6.9141 28.16-16.129 0.33984-1.1953 0.25391-5.8008-0.25781-13.824-0.51172-8.0195-1.4492-19.543-2.8164-34.559-2.5586-30.039-3.8398-47.277-3.8398-51.715 0-4.0938 0.51172-6.9961 1.5352-8.7031l5.3789-11.262c1.0234-1.8789 2.0469-2.4766 3.0703-1.793 0.85547 0.68359 1.4492 1.875 1.793 3.582l6.1445 67.84c1.0234 13.824 2.1328 25.898 3.3281 36.227 1.1953 10.324 2.5586 18.816 4.0938 25.473 2.7305 12.285 7.6797 19.453 14.848 21.504z"/>
  </g>
  <g transform="translate(1434.2 303.75)">
   <path d="m90.625-261.38c4.2656-2.5625 5.8008-1.707 4.6055 2.5586l-2.5586 8.1914c-0.51172 2.2188-2.3906 4.2695-5.6328 6.1445l-49.664 28.672c-1.5352 0.85547-2.7305 1.1094-3.582 0.76953-0.68359-0.51172-1.0234-1.5352-1.0234-3.0742v-4.3516c0-1.3633 1.5352-3.3281 4.6055-5.8867z"/>
  </g>
  <g transform="translate(1452.7 303.75)">
   <path d="m-14.336-101.12c27.648 7.8516 46.422 17.664 56.32 29.441 8.3633 10.07 12.543 19.969 12.543 29.695 0 33.281-18.176 48.215-54.527 44.801-2.3906-0.17188-4.2656-2.0469-5.6328-5.6328-1.707-4.6094-1.9609-8.7891-0.76563-12.543 1.875-6.3164 4.0078-9.2148 6.3984-8.7031 18.262 2.8984 33.879-1.6211 46.848-13.57 1.0234-0.85156 1.2812-1.6211 0.76953-2.3047-11.777-18.262-33.965-31.742-66.562-40.445-3.582-0.85547-5.375-5.207-5.375-13.059 0-6.4844 0.85547-11.688 2.5586-15.613 5.9766-13.656 26.539-30.551 61.699-50.688 14.164-8.0234 27.945-15.32 41.344-21.891 13.395-6.5703 26.41-12.414 39.039-17.535 4.7774-1.707 6.6562-0.33984 5.6328 4.0977l-3.8398 16.125c-0.51172 2.3906-1.8789 4.0117-4.0976 4.8672-9.3867 3.4102-20.309 8.0625-32.77 13.949-12.457 5.8906-26.367 13.098-41.727 21.633-30.891 17.066-50.176 29.527-57.855 37.375z"/>
  </g>
  <g transform="translate(1677.7 303.75)">
   <path d="m16.383 29.695c0.51172-8.3633 2.7305-17.75 6.6562-28.16 1.8789-5.1211 3.7539-9.5977 5.6328-13.438s3.7539-7.043 5.6328-9.6016c1.3633-1.5352 2.7305-1.9609 4.0938-1.2812 1.707 0.85547 1.8789 2.3047 0.51172 4.3516-13.48 24.578-16.98 43.18-10.496 55.809 9.2188 18.434 26.539 26.965 51.969 25.602 29.527-1.3672 55.211-11.18 77.059-29.441 1.707-2.5586 0.16796-4.4375-4.6094-5.6328-4.7773-1.1914-12.375-2.2188-22.785-3.0703-10.41-0.85156-16.043-1.5352-16.895-2.0469-8.3633-4.6094-9.4726-11.691-3.3281-21.25 3.7539-5.6328 9.0039-10.453 15.742-14.465 6.7422-4.0078 14.891-7.3789 24.449-10.109 5.293-1.5352 7.4258 1.1953 6.3984 8.1914-1.3633 9.8984-3.4961 14.848-6.3984 14.848-16.555 0-24.918 2.2188-25.086 6.6562 20.82 0.68359 34.645 3.668 41.469 8.9609 2.7305 2.0469 4.4375 4.6055 5.1211 7.6797 0.85547 3.0703 0 7.7656-2.5586 14.078-2.5625 6.4883-4.9492 10.84-7.168 13.059-21.676 22.867-49.324 35.07-82.945 36.605-20.82 1.0234-37.375-4.0938-49.664-15.359-9.7266-9.0469-13.996-23.039-12.801-41.984zm86.527 80.129c0.34375-0.51172 1.0273-0.68359 2.0508-0.51172 3.4141 1.1953 6.6133 2.6445 9.5976 4.3516 2.9883 1.707 5.8477 3.7539 8.5781 6.1445 0.68359 0.6836 0.76562 1.4492 0.25391 2.3047l-12.285 19.453c-0.34375 0.51171-1.1094 0.34375-2.3047-0.51172-0.51172-0.51172-1.9648-1.4922-4.3516-2.9414-2.3906-1.4531-5.8047-3.457-10.242-6.0156l-9.7266 15.102c-0.51172 0.85547-1.3672 0.76953-2.5586-0.25391-0.68359-0.51172-2.4766-1.707-5.3789-3.5859-2.8984-1.875-7.082-4.4375-12.543-7.6797-0.68359-0.51172-0.76953-1.0234-0.25781-1.5352l12.547-18.688c0.33984-0.51172 1.0234-0.68359 2.0469-0.51172 2.9023 0.85157 5.6328 2.0039 8.1914 3.4531 2.5625 1.4531 4.9492 3.1172 7.168 4.9922z"/>
  </g>
  <g transform="translate(1817 303.75)">
   <path d="m90.625 81.152c4.2656-2.5586 5.8008-1.707 4.6055 2.5586l-2.5586 8.1914c-0.51172 2.2188-2.3906 4.2695-5.6328 6.1445l-49.664 28.672c-1.5352 0.85547-2.7305 1.1094-3.582 0.76953-0.68359-0.51172-1.0234-1.5352-1.0234-3.0742v-4.3516c0-1.3633 1.5352-3.3281 4.6055-5.8867z"/>
  </g>
  <g transform="translate(1836.7 303.75)">
   <path d="m76.543-251.65c0.51172-3.9258 1.793-5.7188 3.8398-5.375 2.5625 0.33985 3.7578 2.1328 3.5859 5.375-0.51172 8.875-2.2188 16.469-5.1211 22.785-3.4141 7.3398-8.1914 11.262-14.336 11.773-3.9258 0.17187-7.6797-1.875-11.266-6.1406-1.1914 2.2188-2.6445 4.0938-4.3516 5.6289-1.707 1.5391-3.4961 2.8164-5.375 3.8398-4.2656 2.2188-8.4492 2.4766-12.543 0.76953-9.8984-4.0976-11.008-16.043-3.3281-35.84 0.85156-1.8789 1.875-2.9883 3.0703-3.3281 0.68359-0.17187 1.4531-0.0859 2.3047 0.25782 1.8789 0.85156 2.4766 2.7305 1.793 5.6289-2.9023 10.07-1.707 15.445 3.582 16.129 6.4883 0.68359 11.605-6.2305 15.363-20.734 0.85156-2.9023 2.2188-4.0976 4.0938-3.5859 2.2188 0.51172 3.0742 1.793 2.5586 3.8398-1.0234 5.9727-0.42578 9.8984 1.793 11.777 1.1953 0.85157 2.6445 1.2812 4.3516 1.2812 5.6328 0 8.9609-4.6953 9.9844-14.082z"/>
  </g>
  <g transform="translate(1827.5 303.75)">
   <path d="m85.504-6.1445c-12.801 4.2656-29.184 6.4844-49.152 6.6562-10.07 0.17188-18.133 0.17188-24.191 0s-10.113-0.33984-12.16-0.51172c-1.3672-0.33984-2.6445-2.3047-3.8398-5.8867-3.5859-10.926-2.3047-16.641 3.8398-17.152l11.008-0.25781 14.082-15.102c0.16797-16.387-0.42969-34.477-1.793-54.273-1.3672-19.797-3.5-41.215-6.4023-64.258-0.33984-3.4102-0.63672-6.1406-0.89453-8.1914-0.25781-2.0469-0.55469-3.4141-0.89453-4.0938-0.68359-2.3906 1.3633-8.1914 6.1406-17.41 0.51562-1.0234 1.1953-1.5352 2.0508-1.5352 0.85156 0 1.5352 0.59766 2.0469 1.793 3.5859 9.2148 7.168 15.613 10.754 19.199 2.0469 1.8789 2.0469 4.0977 0 6.6562l-4.3555 5.6328c-0.85156 1.0234-1.1094 2.8984-0.76563 5.6328 4.4375 34.812 6.2305 59.391 5.375 73.727-0.17187 2.7305-0.68359 6.6133-1.5352 11.648-0.85547 5.0352-1.9648 11.137-3.3281 18.305 20.992-17.582 36.609-28.758 46.848-33.539 10.754-4.9492 18.688-6.5703 23.809-4.8633 8.0195 2.2188 14.422 8.2773 19.199 18.176 0.85547 1.5352 1.0234 4.0117 0.51172 7.4258-2.3906 13.141-8.1914 23.809-17.406 32 6.4844 1.707 12.797 2.8594 18.941 3.457 6.1445 0.59375 12.117 0.55469 17.922-0.12891 2.3906-0.34375 3.9258 1.1953 4.6094 4.6055 1.5352 6.6562 1.4492 11.352-0.25781 14.082-1.8789 2.9023-3.3281 4.3516-4.3516 4.3516-16.727 1.3672-35.328-0.68359-55.809-6.1445zm8.4492-46.848c-10.754-8.0195-25.688-5.4609-44.801 7.6797-4.7773 3.2422-9.3438 6.7422-13.695 10.496-4.3516 3.7539-8.4922 7.5938-12.418 11.52 30.551-1.707 57.344-8.3633 80.387-19.969-1.707-3.0703-4.8672-6.3125-9.4727-9.7266z"/>
  </g>
  <g transform="translate(1973.7 303.75)">
   <path d="m79.617-293.38c2.5586-0.51172 4.9492 0.85156 7.168 4.0938 4.2656 6.6562 4.2656 15.531 0 26.625 1.3633 0.68359 2.5156 1.3242 3.4531 1.9219 0.94141 0.59375 1.75 1.0664 2.4336 1.4062 2.2188 1.0234 2.7305 2.7305 1.5352 5.1211l-2.8164 5.375c-1.0234 1.707-2.3008 2.3047-3.8398 1.793-0.67969-0.34375-1.6211-0.76953-2.8164-1.2812-1.1914-0.51172-2.5586-1.1953-4.0938-2.0469-11.777 15.699-25.176 27.219-40.191 34.559-3.2422 1.707-5.4609 1.5352-6.6562-0.51172-1.3672-2.5586-0.17188-4.8633 3.582-6.9102 15.191-8.875 27.395-19.203 36.609-30.977-5.1211-2.7305-8.7031-5.1211-10.754-7.168-4.0938-3.7539-5.2031-7.9375-3.3281-12.547 4.7812-11.602 11.352-18.09 19.715-19.453zm-2.8164 16.383c-3.7539-3.4141-6.8281-3.1562-9.2148 0.76953-0.68359 1.0234-0.25781 2.3008 1.2773 3.8398 1.707 1.707 5.293 3.8398 10.754 6.3984 0.85156-5.2891-0.08594-8.9609-2.8164-11.008z"/>
  </g>
  <g transform="translate(1968.5 303.75)">
   <path d="m1.5352-55.809c1.3672-5.4609 4.7812-10.836 10.242-16.129 5.8008-5.4609 11.859-8.1914 18.176-8.1914 6.4844 0 21.332 4.8633 44.543 14.594 4.2656 1.707 9.1289 3.2852 14.594 4.7344 5.4609 1.4531 11.434 2.8594 17.918 4.2266 13.141 2.5586 26.625 3.3281 40.449 2.3008 3.7539-0.16797 4.8633 1.3672 3.3281 4.6094l-7.168 15.617c-1.0234 2.0469-2.8164 2.8164-5.3789 2.3047-19.285-3.2461-37.547-2.3047-54.781 2.8125-21.164 7-38.059 13.57-50.688 19.715-12.289 6.1445-23.211 9.2148-32.77 9.2148-1.0234 0-1.8789-0.85156-2.5586-2.5586-1.8789-5.1211-2.3047-9.8164-1.2812-14.082 1.0234-3.9258 2.3047-6.0586 3.8398-6.3984 12.289-0.85547 24.062-2.8594 35.328-6.0156 11.266-3.1602 22.102-7.3828 32.512-12.672-22.527-12.973-43.266-16.473-62.207-10.496-1.3672 0.51172-2.4766 0.33984-3.3281-0.51172-0.68359-0.85547-0.9375-1.8789-0.76953-3.0742z"/>
  </g>
  <g transform="translate(2214.3 303.75)">
   <path d="m29.953-251.9c6.8242-12.461 15.613-14.594 26.367-6.4024 6.9961 5.4609 10.75 11.863 11.266 19.199 0.51172 9.2188-2.3047 16.043-8.4492 20.48-4.6094 3.0742-10.156 4.3516-16.641 3.8398-13.652-1.0234-19.199-9.5547-16.641-25.598 0.34375-2.2188 0.89844-4.2695 1.6641-6.1445 0.76953-1.8789 1.5781-3.6719 2.4336-5.375zm27.137 19.199c4.9492-1.3672 4.8633-4.6094-0.25781-9.7305-3.7539-3.7539-8.2773-5.6289-13.566-5.6289-6.3164-0.17187-9.6445 2.5586-9.9844 8.1914 0 3.7539 1.3633 6.1445 4.0938 7.168 5.9727 2.0469 12.547 2.0469 19.715 0z"/>
  </g>
  <g transform="translate(2211 303.75)">
   <path d="m62.977-71.426c0.17188-0.67969 0.42578-1.1094 0.76563-1.2773 0.85547-0.34375 2.1367 0.33984 3.8438 2.0469 6.6523 6.8281 11.602 15.957 14.848 27.391 3.4102 11.777 4.6055 23.211 3.582 34.305-2.0469 15.02-8.0195 28.844-17.918 41.473-9.8984 12.801-22.871 21.25-38.914 25.344-4.0938 1.1953-8.1914 1.1094-12.289-0.25391-9.8984-3.4141-17.961-6.3594-24.191-8.832-6.2266-2.4766-10.539-4.4805-12.926-6.0156-0.68359-0.51562-1.0234-1.0273-1.0234-1.5391 0-0.67969 0.25391-1.2773 0.76562-1.7891 0.51172-0.51562 1.2812-0.59766 2.3047-0.25781 5.9727 1.707 11.434 2.8594 16.383 3.457s9.5586 0.64062 13.824 0.12891c4.2656-0.51562 8.832-1.75 13.695-3.7148 4.8672-1.9609 10.027-4.7344 15.488-8.3203 16.215-10.41 28.074-22.699 35.586-36.863 0.68359-1.0234 0.85156-2.3906 0.51172-4.0938-2.5586-9.0469-9.2148-20.227-19.969-33.539-0.51172-0.85156-0.68359-1.5352-0.51172-2.0469zm-26.113-79.613c0.34375-0.51172 1.0234-0.6836 2.0469-0.51172 6.8281 2.3867 12.887 5.9727 18.18 10.75 0.67969 0.68359 0.76562 1.3672 0.25391 2.0469l-12.031 19.457c-0.51172 0.85547-1.3672 0.76954-2.5586-0.2539-0.68359-0.51172-2.4766-1.707-5.3789-3.5859-2.8984-1.875-7.082-4.4375-12.543-7.6797-0.85156-0.51171-1.0234-1.0234-0.51172-1.5352z"/>
  </g>
  <g transform="translate(2348.4 290.69)">
   <path d="m-19.199-261.89 46.078-20.48c3.0742-1.1953 4.4375-0.51172 4.0977 2.0469l-1.0234 8.7031c-0.34375 1.8789-1.1094 3.0742-2.3047 3.5859l-45.055 15.617c-3.7578 1.1914-5.3789 0.2539-4.8672-2.8164l0.51172-3.5859c0.17188-1.3633 1.0273-2.3906 2.5625-3.0703z"/>
  </g>
  <g transform="translate(2297.2 303.75)">
   <path d="m76.543-251.65c0.51172-3.9258 1.793-5.7188 3.8398-5.375 2.5625 0.33985 3.7578 2.1328 3.5859 5.375-0.51172 8.875-2.2188 16.469-5.1211 22.785-3.4141 7.3398-8.1914 11.262-14.336 11.773-3.9258 0.17187-7.6797-1.875-11.266-6.1406-1.1914 2.2188-2.6445 4.0938-4.3516 5.6289-1.707 1.5391-3.4961 2.8164-5.375 3.8398-4.2656 2.2188-8.4492 2.4766-12.543 0.76953-9.8984-4.0976-11.008-16.043-3.3281-35.84 0.85156-1.8789 1.875-2.9883 3.0703-3.3281 0.68359-0.17187 1.4531-0.0859 2.3047 0.25782 1.8789 0.85156 2.4766 2.7305 1.793 5.6289-2.9023 10.07-1.707 15.445 3.582 16.129 6.4883 0.68359 11.605-6.2305 15.363-20.734 0.85156-2.9023 2.2188-4.0976 4.0938-3.5859 2.2188 0.51172 3.0742 1.793 2.5586 3.8398-1.0234 5.9727-0.42578 9.8984 1.793 11.777 1.1953 0.85157 2.6445 1.2812 4.3516 1.2812 5.6328 0 8.9609-4.6953 9.9844-14.082z"/>
  </g>
  <g transform="translate(2313.1 303.75)">
   <path d="m83.199 2.8164c-5.2891 30.379-21.418 51.625-48.383 63.742-3.4141 1.5391-6.7422 2.7734-9.9844 3.7148-3.2422 0.9375-6.3164 1.4922-9.2148 1.6641-6.1445 0.33984-17.066-4.8672-32.77-15.617-1.8789-1.3672-2.4727-2.6445-1.793-3.8398 0.68359-1.1953 1.8789-1.3672 3.5859-0.51172 14.164 7.3398 32 4.8633 53.504-7.4258 18.262-10.41 30.719-24.832 37.375-43.262 0-0.68359-0.25391-1.1094-0.76562-1.2812-12.633-0.33984-21.762-2.0469-27.395-5.1211-5.9727-3.4141-8.1914-10.066-6.6562-19.969 0.17188-1.1914 0.42578-2.4297 0.76953-3.7109 0.33984-1.2773 0.76562-2.6875 1.2812-4.2227 3.582-10.582 8.8711-17.836 15.871-21.762 6.9961-3.9258 12.883-2.5586 17.664 4.0977 4.9492 6.8242 7.7656 16.043 8.4453 27.648 0.68359 0 1.3242-0.04297 1.9219-0.12891 0.59766-0.08594 1.2383-0.12891 1.918-0.12891 2.5625 0 4.0977 1.9648 4.6094 5.8906 0.51172 3.7539 0.25781 7.5938-0.76953 11.52-1.0234 3.9258-2.3008 5.8867-3.8398 5.8867h-4.8633c0 0.51172-0.16797 1.4492-0.51172 2.8164zm-12.289-28.672c-3.4102-7.168-7.5078-10.668-12.285-10.496-2.9023 0.51172-5.207 1.875-6.9141 4.0938-0.85156 1.0273-0.67969 2.2188 0.51172 3.5859 2.7305 3.582 8.6211 5.207 17.664 4.8633 1.0234 0 1.3672-0.68359 1.0234-2.0469z"/>
  </g>
  <g transform="translate(2369.4 303.75)">
   <path d="m90.625-261.38c4.2656-2.5625 5.8008-1.707 4.6055 2.5586l-2.5586 8.1914c-0.51172 2.2188-2.3906 4.2695-5.6328 6.1445l-49.664 28.672c-1.5352 0.85547-2.7305 1.1094-3.582 0.76953-0.68359-0.51172-1.0234-1.5352-1.0234-3.0742v-4.3516c0-1.3633 1.5352-3.3281 4.6055-5.8867z"/>
  </g>
  <g transform="translate(2401.4 303.75)">
   <path d="m22.016-82.434c4.0977-15.359 9.7266-22.867 16.895-22.527 7.3398 0.34375 18.859 7.9375 34.562 22.785 15.531 14.676 24.062 26.625 25.598 35.84 1.8789 11.434-0.76562 21.418-7.9336 29.953-3.5859 4.2656-8.0234 6.1445-13.312 5.6289-13.824-1.5352-28.418-5.2031-43.777-11.008-16.211 14.508-27.562 21.762-34.047 21.762-1.5352 0-2.9023-1.3672-4.0977-4.0977-5.1172-11.605-3.7539-17.918 4.0977-18.941 6.4844-0.85547 12.375-3.2422 17.664-7.168-4.7773-3.7539-6.0586-8.9609-3.8398-15.617 3.582-11.094 9.8125-20.566 18.688-28.414-1.707-2.7305-4.4375-4.3555-8.1914-4.8672-2.0469-0.33984-2.8164-1.4492-2.3047-3.3281zm37.887 21.762c-0.67969-0.51172-1.0234-0.33984-1.0234 0.51172 0.85547 5.4609-2.0469 12.543-8.7031 21.25 19.797 6.1406 31.488 8.1914 35.07 6.1406 1.1953-0.51172 1.625-1.1914 1.2812-2.0469-3.4141-8.1914-12.289-16.809-26.625-25.855zm-19.199 18.434c5.6328-2.9023 8.4492-5.1211 8.4492-6.6562-0.68359-8.875-3.3281-13.824-7.9375-14.848-6.8242-1.5391-13.227 1.4492-19.199 8.957-1.707 2.0508-1.1094 4.0117 1.793 5.8906 2.9023 1.875 8.5312 4.0938 16.895 6.6562z"/>
  </g>
  <g transform="translate(2604.7 303.75)">
   <path d="m29.953-251.9c6.8242-12.461 15.613-14.594 26.367-6.4024 6.9961 5.4609 10.75 11.863 11.266 19.199 0.51172 9.2188-2.3047 16.043-8.4492 20.48-4.6094 3.0742-10.156 4.3516-16.641 3.8398-13.652-1.0234-19.199-9.5547-16.641-25.598 0.34375-2.2188 0.89844-4.2695 1.6641-6.1445 0.76953-1.8789 1.5781-3.6719 2.4336-5.375zm27.137 19.199c4.9492-1.3672 4.8633-4.6094-0.25781-9.7305-3.7539-3.7539-8.2773-5.6289-13.566-5.6289-6.3164-0.17187-9.6445 2.5586-9.9844 8.1914 0 3.7539 1.3633 6.1445 4.0938 7.168 5.9727 2.0469 12.547 2.0469 19.715 0z"/>
  </g>
  <g transform="translate(2591.9 303.75)">
   <path d="m120.57-23.039c2.7344 0.85156 4.4375 3.0703 5.1211 6.6562 0.85547 4.0938 0.76953 7.8477-0.2539 11.262-1.0274 3.4141-2.6484 5.1211-4.8672 5.1211-11.09-0.68359-18.688-9.9844-22.781-27.902-0.68359-2.9023-1.1953-5.0781-1.5352-6.5312-0.34375-1.4492-0.51562-2.1758-0.51562-2.1758-0.51172-1.3633-1.0234-1.2773-1.5352 0.25781-5.4609 14.508-12.285 23.383-20.48 26.625-10.41 4.2656-24.746 5.8008-43.008 4.6055-14.164-1.0234-17.832-12.203-11.008-33.535 0.85547-2.5586 2.1328-3.9258 3.8398-4.0977 1.707-0.16797 2.9023 0.94141 3.5859 3.3281 1.5352 4.9492 3.8398 7.7656 6.9102 8.4492 16.555 3.5859 31.488 2.7305 44.801-2.5586 6.4844-2.5625 10.836-7.3398 13.055-14.336 0.17188-1.0234-1.0234-10.156-3.582-27.395-1.1953-8.5312-2.1328-15.488-2.8164-20.863-0.68359-5.375-1.1953-9-1.5352-10.879-0.51172-3.7539-0.25781-6.6562 0.76562-8.7031 1.3672-2.9023 2.5625-5.418 3.5859-7.5547 1.0234-2.1328 1.793-3.8828 2.3047-5.2461 0.51172-1.3672 1.3633-1.9648 2.5586-1.793 1.3672 0.34375 2.1328 1.1953 2.3047 2.5625 2.0469 17.918 4.2227 34.004 6.5273 48.254 2.3047 14.25 4.6523 26.668 7.0391 37.25 2.5625 11.605 6.4023 18.004 11.52 19.199z"/>
  </g>
  <g transform="translate(2665.6 303.75)">
   <path d="m90.625-261.38c4.2656-2.5625 5.8008-1.707 4.6055 2.5586l-2.5586 8.1914c-0.51172 2.2188-2.3906 4.2695-5.6328 6.1445l-49.664 28.672c-1.5352 0.85547-2.7305 1.1094-3.582 0.76953-0.68359-0.51172-1.0234-1.5352-1.0234-3.0742v-4.3516c0-1.3633 1.5352-3.3281 4.6055-5.8867z"/>
  </g>
  <g transform="translate(2712.5 303.75)">
   <path d="m42.754-64c8.0195 3.2422 16.723 5.9727 26.109 8.1914s19.285 4.0117 29.695 5.375c20.992 2.9023 37.461 3.6719 49.41 2.3047 1.5352-0.16797 2.5586 0.34375 3.0703 1.5352 0.51172 1.1953 0.42578 2.4766-0.2539 3.8398l-7.6797 13.57c-0.85547 1.707-2.3047 2.3906-4.3516 2.0469-27.82-1.5352-53.336 1.1953-76.547 8.1914-0.85156 0.17187-3.582 1.0664-8.1914 2.6875-4.6094 1.625-11.094 3.9688-19.457 7.043-16.555 6.1445-28.074 9.2148-34.559 9.2148-2.0469 0-3.7539-2.9023-5.1211-8.7031-1.707-9.3867 0.085938-14.168 5.3789-14.336 5.2891-0.17188 16.297-2.3906 33.023-6.6562 8.1914-2.0469 14.461-3.6289 18.816-4.7383 4.3516-1.1094 6.6953-1.7461 7.0391-1.918 0.33984-0.17188 0.59766-0.30078 0.76562-0.38281 0.17188-0.08594 0.34375-0.12891 0.51172-0.12891 1.3672-0.51172 1.4531-1.0234 0.25781-1.5352-3.7539-1.8789-7.9375-3.457-12.543-4.7383-4.6094-1.2773-9.6445-2.3477-15.105-3.1992-5.2891-0.85156-10.453-1.4492-15.488-1.793-5.0352-0.33984-9.7695-0.33984-14.207 0-1.3672 0-1.9609-0.59766-1.793-1.793 0.51172-1.875 1.2812-3.668 2.3047-5.375 1.0234-1.707 2.2188-3.4961 3.5859-5.375 2.8984-3.9258 5.8008-6.2305 8.7031-6.9141 6.8242-1.7031 15.699-0.51172 26.625 3.5859zm13.055 81.406c0.33984-0.51172 1.0234-0.67969 2.0469-0.51172 6.8281 2.3906 12.887 5.9766 18.176 10.754 0.68359 0.68359 0.76953 1.3633 0.25781 2.0469l-12.031 19.457c-0.51562 0.85156-1.3672 0.76953-2.5625-0.25781-0.68359-0.51172-2.4727-1.707-5.375-3.582-2.9023-1.8789-7.082-4.4375-12.543-7.6797-0.85547-0.51172-1.0234-1.0234-0.51172-1.5352z"/>
  </g>
  <g transform="translate(2768.8 303.75)">
   <path d="m29.953-251.9c6.8242-12.461 15.613-14.594 26.367-6.4024 6.9961 5.4609 10.75 11.863 11.266 19.199 0.51172 9.2188-2.3047 16.043-8.4492 20.48-4.6094 3.0742-10.156 4.3516-16.641 3.8398-13.652-1.0234-19.199-9.5547-16.641-25.598 0.34375-2.2188 0.89844-4.2695 1.6641-6.1445 0.76953-1.8789 1.5781-3.6719 2.4336-5.375zm27.137 19.199c4.9492-1.3672 4.8633-4.6094-0.25781-9.7305-3.7539-3.7539-8.2773-5.6289-13.566-5.6289-6.3164-0.17187-9.6445 2.5586-9.9844 8.1914 0 3.7539 1.3633 6.1445 4.0938 7.168 5.9727 2.0469 12.547 2.0469 19.715 0z"/>
  </g>
  <g transform="translate(2726.5 303.75)">
   <path d="m109.82-91.902c0 1.5352-0.42578 2.6445-1.2812 3.3281-1.0234 0.67969-2.0469 0.76562-3.0703 0.25391-0.6836-0.33984-1.1953-1.3633-1.5352-3.0703-1.8789-12.973-4.6953-20.992-8.4492-24.066-2.5586-2.0469-4.8633-1.7891-6.9141 0.76953-19.453 25.77-38.91 43.605-58.367 53.504-6.9961 3.582-15.699 4.5234-26.109 2.8164-7.6836-1.5352-10.07-3.6719-7.168-6.4023 1.7031-1.707 4.5195-3.3281 8.4453-4.8633 9.3867-3.582 18.09-7.2969 26.113-11.137 8.0195-3.8398 15.445-7.8906 22.273-12.16 12.285-7.6797 21.246-18.344 26.879-32 4.6055-10.922 9.1289-16.383 13.566-16.383 8.5352-0.17187 13.738 16.301 15.617 49.41zm3.582 126.97c0.34375-0.51172 1.0273-0.67969 2.0508-0.51172 6.8242 2.3906 12.883 5.9766 18.176 10.754 0.6836 0.68359 0.76563 1.3633 0.25391 2.0469l-12.031 19.457c-0.51172 0.85156-1.3633 0.76953-2.5586-0.25781-0.6836-0.51172-2.4766-1.707-5.375-3.582-2.9024-1.8789-7.0859-4.4375-12.547-7.6797-0.85156-0.51172-1.0234-1.0234-0.51172-1.5352z"/>
  </g>
  <g transform="translate(2905.7 308.11)">
   <path d="m8.9609-297.98c3.0703-1.8789 4.6055-1.5352 4.6055 1.0234l-0.25391 8.9609c0 2.2188-0.85547 3.8398-2.5586 4.8633-6.3164 3.2422-12.461 6.2734-18.434 9.0898-5.9727 2.8164-11.777 5.5039-17.41 8.0625-3.2422 1.5352-5.2891 2.0469-6.1406 1.5352-0.85547-0.33984-1.2812-1.1094-1.2812-2.3047v-5.375c0-1.1953 0.76953-2.3047 2.3047-3.3281 10.07-5.9727 18.387-10.836 24.961-14.59 6.5703-3.7539 11.305-6.4024 14.207-7.9375z"/>
  </g>
  <g transform="translate(2876.8 303.75)">
   <path d="m25.855-171.52c3.5859-8.3633 5.8867-8.5352 6.9141-0.51172l5.8867 62.719c6.4844 56.492 5.7188 92.332-2.3047 107.52-1.1953 2.0508-2.1328 2.5625-2.8164 1.5352-0.68359-0.85156-1.0234-2.3008-1.0234-4.3516 0.33984-14.336-0.68359-30.461-3.0703-48.383 0-0.68359-1.793-16.895-5.3789-48.641l-5.6289-46.336c-0.34375-3.4141 0-6.3125 1.0234-8.7031zm23.297-36.352c-4.6094 0.85156-8.5781 1.6211-11.906 2.3047-3.3242 0.67969-5.9297 1.3633-7.8047 2.0469-1.8789 0.68359-4.6094 1.75-8.1953 3.1992-3.582 1.4492-8.0195 3.3711-13.309 5.7617-2.2188 1.0234-3.8398 0.67968-4.8672-1.0274-2.0469-3.0703 1.2812-7.25 9.9844-12.543-6.3125-3.0703-9.8984-6.6562-10.75-10.75-1.3672-7.168 1.5352-15.617 8.7031-25.344 7.168-9.7305 14.762-14.254 22.785-13.57 5.1172 0.51172 7.4219 3.4141 6.9102 8.7031-0.51172 5.293-2.0469 9.7305-4.6055 13.312-2.3906 3.4141-4.4375 3.8398-6.1445 1.2812-1.8789-3.0703-4.4375-4.6914-7.6797-4.8633-3.4141-0.34375-6.0586 0.68359-7.9375 3.0703-2.0469 2.5625-1.9609 4.7812 0.25781 6.6562 5.6289 5.293 13.992 8.1094 25.086 8.4492 0.85547 0 1.9219-0.12891 3.1992-0.38282 1.2812-0.25781 2.7734-0.55468 4.4805-0.89843 1.8789-0.33985 3.4141-0.64063 4.6094-0.89453 1.1953-0.25782 2.1328-0.38282 2.8164-0.38282 1.5352 0 2.5586 0.59375 3.0703 1.7891 0.51172 1.0234 0.59766 1.9648 0.25781 2.8164-3.4141 6.9961-6.4023 10.754-8.9609 11.266z"/>
  </g>
 </g>
</svg>
