<svg xmlns="http://www.w3.org/2000/svg" width="1082" height="332" preserveAspectRatio="xMinYMin slice" viewBox="-20 -100 1082 332"><path fill="#575757" d="M6 163.75V138.5C6 131.5.5 126-6.5 126S-19 131.5-19 138.5v25c0 7 5.25 12.5 12.25 12.5 7 .25 12.75-5.25 12.75-12.25"/><path fill="#2a2a2a" d="M43.5 151V26c0-7-5.5-12.5-12.5-12.5S18.5 19 18.5 26v125c0 7 5.5 12.5 12.5 12.5S43.5 158 43.5 151M46 76c0 7 5.5 12.5 12.5 12.5S71 83 71 76V26c0-7-5.5-12.5-12.5-12.5S46 19 46 26zm27.5 0c0 7 5.5 12.5 12.5 12.5S98.5 83 98.5 76V26c0-7-5.5-12.5-12.5-12.5S73.5 19 73.5 26zm62.5 75V26c0-7-5.5-12.5-12.5-12.5S111 19 111 26v125c0 7 5.5 12.5 12.5 12.5S136 158 136 151m2.5-75c0 7 5.5 12.5 12.5 12.5S163.5 83 163.5 76V26c0-7-5.5-12.5-12.5-12.5S138.5 19 138.5 26zm62.5 75V26c0-7-5.5-12.5-12.5-12.5S176 19 176 26v125c0 7 5.5 12.5 12.5 12.5S201 158 201 151m25-50c7 0 12.5-5.5 12.5-12.5S233 76 226 76s-12.5 5.5-12.5 12.5S219 101 226 101"/><path fill="#008aff" d="M279.75-81.5h-7.5c-1.5 0-2.5 1-2.5 2.5s1 2.5 2.5 2.5h7.5c1.5 0 2.5-1 2.5-2.5s-1-2.5-2.5-2.5m-10-5c0 1.5 1 2.5 2.5 2.5h7.5c1.5 0 2.5-1 2.5-2.5s-1-2.5-2.5-2.5h-7.5c-1.5 0-2.5 1-2.5 2.5"/><path fill="#44003b" d="M276 53.5c7 0 12.5-5.5 12.5-12.5S283 28.5 276 28.5 263.5 34 263.5 41 269 53.5 276 53.5"/><path fill="#2a2a2a" d="M288.5 151.25V71c0-7-5.5-12.5-12.5-12.5S263.5 64 263.5 71v80c0 7 5.25 12.5 12.25 12.5 7 .25 12.75-5.25 12.75-12.25"/><path fill="#008aff" d="M337.25-81.5h-20c-1.5 0-2.5 1-2.5 2.5s1 2.5 2.5 2.5h20c1.5 0 2.5-1 2.5-2.5s-1-2.5-2.5-2.5m-10-5c0 1.5 1 2.5 2.5 2.5h7.5c1.5 0 2.5-1 2.5-2.5s-1-2.5-2.5-2.5h-7.5c-1.5 0-2.5 1-2.5 2.5"/><path fill="#2a2a2a" d="M353.5 151.25V101c0-7-5.5-12.5-12.5-12.5S328.5 94 328.5 101v50c0 7 5.25 12.5 12.25 12.5 7 .25 12.75-5.25 12.75-12.25M301 181c0 7 5.25 12.5 12.25 12.5 7 .25 12.75-5.25 12.75-12.25V101c0-7-5.5-12.5-12.5-12.5S301 94 301 101z"/><path fill="#008aff" d="M388.5-81.5h-20c-1.5 0-2.5 1-2.5 2.5s1 2.5 2.5 2.5h20c1.5 0 2.5-1 2.5-2.5s-1-2.5-2.5-2.5"/><path fill="#2a2a2a" d="M391 181.25V-14c0-7-5.5-12.5-12.5-12.5S366-21 366-14v195c0 7 5.25 12.5 12.25 12.5 7 .25 12.75-5.25 12.75-12.25"/><path fill="#008aff" d="M426-81.5h-20c-1.5 0-2.5 1-2.5 2.5s1 2.5 2.5 2.5h20c1.5 0 2.5-1 2.5-2.5s-1-2.5-2.5-2.5"/><path fill="#44003b" d="M417.5 53.5v-28c-7.75 0-14 6.25-14 14s6.25 14 14 14"/><path fill="#2a2a2a" d="M456 151V-14c0-7-5.5-12.5-12.5-12.5S431-21 431-14v165c0 7 5.5 12.5 12.5 12.5S456 158 456 151m-52.5 0c0 7 5.25 12.5 12.25 12.5 7 .25 12.75-5.25 12.75-12.25V71c0-7-5.5-12.5-12.5-12.5S403.5 64 403.5 71z"/><path fill="#44003b" d="M493.5 221c7 0 12.5-5.5 12.5-12.5s-5.5-12.5-12.5-12.5-12.5 5.5-12.5 12.5 5.5 12.5 12.5 12.5M481 181c0 7 5.5 12.5 12.5 12.5S506 188 506 181s-5.5-12.5-12.5-12.5S481 174 481 181"/><path fill="#2a2a2a" d="M506 151.25V71c0-7-5.5-12.5-12.5-12.5S481 64 481 71v80c0 7 5.25 12.5 12.25 12.5 7 .25 12.75-5.25 12.75-12.25"/><path fill="#008aff" d="M541 226h-20c-1.5 0-2.5 1-2.5 2.5s1 2.5 2.5 2.5h20c1.5 0 2.5-1 2.5-2.5s-1-2.5-2.5-2.5M528.5-86.5v7.5c0 1.5 1 2.5 2.5 2.5s2.5-1 2.5-2.5v-7.5c0-1.5-1-2.5-2.5-2.5s-2.5 1-2.5 2.5M521-79c0 1.5 1 2.5 2.5 2.5s2.5-1 2.5-2.5v-7.5c0-1.5-1-2.5-2.5-2.5s-2.5 1-2.5 2.5zm15 0c0 1.5 1 2.5 2.5 2.5s2.5-1 2.5-2.5v-7.5c0-1.5-1-2.5-2.5-2.5s-2.5 1-2.5 2.5z"/><path fill="#2a2a2a" d="M543.5 151V-14c0-7-5.5-12.5-12.5-12.5S518.5-21 518.5-14v165c0 7 5.5 12.5 12.5 12.5s12.5-5.5 12.5-12.5m2.5 0c0 7 5.25 12.5 12.25 12.5 7 .25 12.75-5.25 12.75-12.25V71c0-7-5.5-12.5-12.5-12.5S546 64 546 71z"/><path fill="#008aff" d="M606-81.5h-20c-1.5 0-2.5 1-2.5 2.5s1 2.5 2.5 2.5h20c1.5 0 2.5-1 2.5-2.5s-1-2.5-2.5-2.5m-10-5c0 1.5 1 2.5 2.5 2.5h7.5c1.5 0 2.5-1 2.5-2.5s-1-2.5-2.5-2.5h-7.5c-1.5 0-2.5 1-2.5 2.5"/><path fill="#2a2a2a" d="M608.5 181.25V101c0-7-5.5-12.5-12.5-12.5S583.5 94 583.5 101v80c0 7 5.25 12.5 12.25 12.5 7 .25 12.75-5.25 12.75-12.25M611 151c0 7 5.25 12.5 12.25 12.5 7 .25 12.75-5.25 12.75-12.25V71c0-7-5.5-12.5-12.5-12.5S611 64 611 71z"/><path fill="#008aff" d="M677.25-81.5h-7.5c-1.5 0-2.5 1-2.5 2.5s1 2.5 2.5 2.5h7.5c1.5 0 2.5-1 2.5-2.5s-1-2.5-2.5-2.5m-10-5c0 1.5 1 2.5 2.5 2.5h7.5c1.5 0 2.5-1 2.5-2.5s-1-2.5-2.5-2.5h-7.5c-1.5 0-2.5 1-2.5 2.5"/><path fill="#44003b" d="M673.5 83.5c7 0 12.5-5.5 12.5-12.5s-5.5-12.5-12.5-12.5S661 64 661 71s5.5 12.5 12.5 12.5"/><path fill="#2a2a2a" d="M686 181.25V101c0-7-5.5-12.5-12.5-12.5S661 94 661 101v80c0 7 5.25 12.5 12.25 12.5 7 .25 12.75-5.25 12.75-12.25"/><path fill="#008aff" d="M734.75-99h-20c-1.5 0-2.5 1-2.5 2.5s1 2.5 2.5 2.5h20c1.5 0 2.5-1 2.5-2.5s-1-2.5-2.5-2.5m-12.5 12.5v7.5c0 1.5 1 2.5 2.5 2.5s2.5-1 2.5-2.5v-7.5c0-1.5-1-2.5-2.5-2.5s-2.5 1-2.5 2.5m-7.5 7.5c0 1.5 1 2.5 2.5 2.5s2.5-1 2.5-2.5v-7.5c0-1.5-1-2.5-2.5-2.5s-2.5 1-2.5 2.5zm15 0c0 1.5 1 2.5 2.5 2.5s2.5-1 2.5-2.5v-7.5c0-1.5-1-2.5-2.5-2.5s-2.5 1-2.5 2.5z"/><path fill="#2a2a2a" d="M723.5 151.25V101c0-7-5.5-12.5-12.5-12.5S698.5 94 698.5 101v50c0 7 5.25 12.5 12.25 12.5 7 .25 12.75-5.25 12.75-12.25M726 181c0 7 5.25 12.5 12.25 12.5 7 .25 12.75-5.25 12.75-12.25V101c0-7-5.5-12.5-12.5-12.5S726 94 726 101z"/><path fill="#008aff" d="M813.5-81.5h-20c-1.5 0-2.5 1-2.5 2.5s1 2.5 2.5 2.5h20c1.5 0 2.5-1 2.5-2.5s-1-2.5-2.5-2.5"/><path fill="#2a2a2a" d="M788.5 151.25V101c0-7-5.5-12.5-12.5-12.5S763.5 94 763.5 101v50c0 7 5.25 12.5 12.25 12.5 7 .25 12.75-5.25 12.75-12.25m2.5-.25c0 7 5.25 12.5 12.25 12.5 7 .25 12.75-5.25 12.75-12.25V71c0-7-5.5-12.5-12.5-12.5S791 64 791 71zm27.5 0c0 7 5.25 12.5 12.25 12.5 7 .25 12.75-5.25 12.75-12.25V101c0-7-5.5-12.5-12.5-12.5S818.5 94 818.5 101z"/><path fill="#008aff" d="M912.25-81.5h-7.5c-1.5 0-2.5 1-2.5 2.5s1 2.5 2.5 2.5h7.5c1.5 0 2.5-1 2.5-2.5s-1-2.5-2.5-2.5m-10-5c0 1.5 1 2.5 2.5 2.5h7.5c1.5 0 2.5-1 2.5-2.5s-1-2.5-2.5-2.5h-7.5c-1.5 0-2.5 1-2.5 2.5"/><path fill="#2a2a2a" d="M893.5 151.25V101c0-7-5.5-12.5-12.5-12.5S868.5 94 868.5 101v50c0 7 5.25 12.5 12.25 12.5 7 .25 12.75-5.25 12.75-12.25m2.5-.25c0 7 5.25 12.5 12.25 12.5 7 .25 12.75-5.25 12.75-12.25V71c0-7-5.5-12.5-12.5-12.5S896 64 896 71z"/><path fill="#008aff" d="M956-81.5h-20c-1.5 0-2.5 1-2.5 2.5s1 2.5 2.5 2.5h20c1.5 0 2.5-1 2.5-2.5s-1-2.5-2.5-2.5"/><path fill="#44003b" d="M973.5 193.5c7 0 12.5-5.5 12.5-12.5s-5.5-12.5-12.5-12.5S961 174 961 181s5.5 12.5 12.5 12.5"/><path fill="#2a2a2a" d="M958.5 181.25V101c0-7-5.5-12.5-12.5-12.5S933.5 94 933.5 101v80c0 7 5.25 12.5 12.25 12.5 7 .25 12.75-5.25 12.75-12.25M961 151c0 7 5.25 12.5 12.25 12.5 7 .25 12.75-5.25 12.75-12.25V71c0-7-5.5-12.5-12.5-12.5S961 64 961 71z"/><path fill="#008aff" d="M1014.75-81.5h-7.5c-1.5 0-2.5 1-2.5 2.5s1 2.5 2.5 2.5h7.5c1.5 0 2.5-1 2.5-2.5s-1-2.5-2.5-2.5m-10-5c0 1.5 1 2.5 2.5 2.5h7.5c1.5 0 2.5-1 2.5-2.5s-1-2.5-2.5-2.5h-7.5c-1.5 0-2.5 1-2.5 2.5"/><path fill="#44003b" d="M1011 193.5c7 0 12.5-5.5 12.5-12.5s-5.5-12.5-12.5-12.5-12.5 5.5-12.5 12.5 5.5 12.5 12.5 12.5"/><path fill="#2a2a2a" d="M1023.5 151.25V71c0-7-5.5-12.5-12.5-12.5S998.5 64 998.5 71v80c0 7 5.25 12.5 12.25 12.5 7 .25 12.75-5.25 12.75-12.25"/><path fill="#008aff" d="M1058.5-81.5h-20c-1.5 0-2.5 1-2.5 2.5s1 2.5 2.5 2.5h20c1.5 0 2.5-1 2.5-2.5s-1-2.5-2.5-2.5M1061 151V-14c0-7-5.5-12.5-12.5-12.5S1036-21 1036-14v165c0 7 5.5 12.5 12.5 12.5S1061 158 1061 151m-25-196.5c0 7.75 6.25 14 14 14v-28c-7.75 0-14 6.25-14 14"/><path fill="#dcbb48" d="M1050-31.5v-28c-7.75 0-14 6.25-14 14s6.25 14 14 14"/><path fill="#2a2a2a" d="M1061 151V-14c0-7-5.5-12.5-12.5-12.5S1036-21 1036-14v165c0 7 5.5 12.5 12.5 12.5S1061 158 1061 151"/></svg>