<?xml version="1.0" encoding="UTF-8"?>
<svg width="1082" height="332" preserveAspectRatio="xMinYMin slice" version="1.1" viewBox="-20 -100 1082 332" xmlns="http://www.w3.org/2000/svg">
 <g transform="translate(-19,-19)">
  <path transform="matrix(.25 0 0 -.25 0 170)" d="m100-51v101c0 28-22 50-50 50s-50-22-50-50v-100c0-28 21-50 49-50 28-1 51 21 51 49z" fill="#575757"/>
  <g fill="#2a2a2a">
   <path transform="matrix(.25 0 0 -.25 37.5 170)" d="m100 0v500c0 28-22 50-50 50s-50-22-50-50v-500c0-28 22-50 50-50s50 22 50 50zm10 300c0-28 22-50 50-50s50 22 50 50v200c0 28-22 50-50 50s-50-22-50-50zm110 0c0-28 22-50 50-50s50 22 50 50v200c0 28-22 50-50 50s-50-22-50-50z"/>
   <path transform="matrix(.25 0 0 -.25 130 170)" d="m100 0v500c0 28-22 50-50 50s-50-22-50-50v-500c0-28 22-50 50-50s50 22 50 50zm10 300c0-28 22-50 50-50s50 22 50 50v200c0 28-22 50-50 50s-50-22-50-50z"/>
   <path transform="matrix(.25 0 0 -.25 195 170)" d="m100 0v500c0 28-22 50-50 50s-50-22-50-50v-500c0-28 22-50 50-50s50 22 50 50z"/>
   <path transform="matrix(.25 0 0 -.25 232.5 170)" d="m50 200c28 0 50 22 50 50s-22 50-50 50-50-22-50-50 22-50 50-50z"/>
  </g>
  <path transform="matrix(.25 0 0 -.25 282.5 170)" d="m65 930h-30c-6 0-10-4-10-10s4-10 10-10h30c6 0 10 4 10 10s-4 10-10 10zm-40 20c0-6 4-10 10-10h30c6 0 10 4 10 10s-4 10-10 10h-30c-6 0-10-4-10-10z" fill="#008aff"/>
  <path transform="matrix(.25 0 0 -.25 282.5 170)" d="m50 390c28 0 50 22 50 50s-22 50-50 50-50-22-50-50 22-50 50-50z" fill="#44003b"/>
  <path transform="matrix(.25 0 0 -.25 282.5 170)" d="m100-1v321c0 28-22 50-50 50s-50-22-50-50v-320c0-28 21-50 49-50 28-1 51 21 51 49z" fill="#2a2a2a"/>
  <path transform="matrix(.25 0 0 -.25 333.75 170)" d="m90 930h-80c-6 0-10-4-10-10s4-10 10-10h80c6 0 10 4 10 10s-4 10-10 10zm-40 20c0-6 4-10 10-10h30c6 0 10 4 10 10s-4 10-10 10h-30c-6 0-10-4-10-10z" fill="#008aff"/>
  <path transform="matrix(.25 0 0 -.25 320 170)" d="m210-1v201c0 28-22 50-50 50s-50-22-50-50v-200c0-28 21-50 49-50 28-1 51 21 51 49zm-210-119c0-28 21-50 49-50 28-1 51 21 51 49v321c0 28-22 50-50 50s-50-22-50-50z" fill="#2a2a2a"/>
  <path transform="matrix(.25 0 0 -.25 385 170)" d="m90 930h-80c-6 0-10-4-10-10s4-10 10-10h80c6 0 10 4 10 10s-4 10-10 10z" fill="#008aff"/>
  <path transform="matrix(.25 0 0 -.25 385 170)" d="m100-121v781c0 28-22 50-50 50s-50-22-50-50v-780c0-28 21-50 49-50 28-1 51 21 51 49z" fill="#2a2a2a"/>
  <path transform="matrix(.25 0 0 -.25 422.5 170)" d="m90 930h-80c-6 0-10-4-10-10s4-10 10-10h80c6 0 10 4 10 10s-4 10-10 10z" fill="#008aff"/>
  <path transform="matrix(.25 0 0 -.25 422.5 170)" d="m56 390v112c-31 0-56-25-56-56s25-56 56-56z" fill="#44003b"/>
  <path transform="matrix(.25 0 0 -.25 422.5 170)" d="m210 0v660c0 28-22 50-50 50s-50-22-50-50v-660c0-28 22-50 50-50s50 22 50 50zm-210 0c0-28 21-50 49-50 28-1 51 21 51 49v321c0 28-22 50-50 50s-50-22-50-50z" fill="#2a2a2a"/>
  <path transform="matrix(.25 0 0 -.25 500 170)" d="m50-280c28 0 50 22 50 50s-22 50-50 50-50-22-50-50 22-50 50-50zm-50 160c0-28 22-50 50-50s50 22 50 50-22 50-50 50-50-22-50-50z" fill="#44003b"/>
  <path transform="matrix(.25 0 0 -.25 500 170)" d="m100-1v321c0 28-22 50-50 50s-50-22-50-50v-320c0-28 21-50 49-50 28-1 51 21 51 49z" fill="#2a2a2a"/>
  <path transform="matrix(.25 0 0 -.25 537.5 170)" d="m90-300h-80c-6 0-10-4-10-10s4-10 10-10h80c6 0 10 4 10 10s-4 10-10 10z" fill="#008aff"/>
  <path transform="matrix(.25 0 0 -.25 537.5 170)" d="m40 950v-30c0-6 4-10 10-10s10 4 10 10v30c0 6-4 10-10 10s-10-4-10-10zm-30-30c0-6 4-10 10-10s10 4 10 10v30c0 6-4 10-10 10s-10-4-10-10zm60 0c0-6 4-10 10-10s10 4 10 10v30c0 6-4 10-10 10s-10-4-10-10z" fill="#008aff"/>
  <path transform="matrix(.25 0 0 -.25 537.5 170)" d="m100 0v660c0 28-22 50-50 50s-50-22-50-50v-660c0-28 22-50 50-50s50 22 50 50zm10 0c0-28 21-50 49-50 28-1 51 21 51 49v321c0 28-22 50-50 50s-50-22-50-50z" fill="#2a2a2a"/>
  <path transform="matrix(.25 0 0 -.25 602.5 170)" d="m90 930h-80c-6 0-10-4-10-10s4-10 10-10h80c6 0 10 4 10 10s-4 10-10 10zm-40 20c0-6 4-10 10-10h30c6 0 10 4 10 10s-4 10-10 10h-30c-6 0-10-4-10-10z" fill="#008aff"/>
  <path transform="matrix(.25 0 0 -.25 602.5 170)" d="m100-121v321c0 28-22 50-50 50s-50-22-50-50v-320c0-28 21-50 49-50 28-1 51 21 51 49zm10 121c0-28 21-50 49-50 28-1 51 21 51 49v321c0 28-22 50-50 50s-50-22-50-50z" fill="#2a2a2a"/>
  <path transform="matrix(.25 0 0 -.25 680 170)" d="m65 930h-30c-6 0-10-4-10-10s4-10 10-10h30c6 0 10 4 10 10s-4 10-10 10zm-40 20c0-6 4-10 10-10h30c6 0 10 4 10 10s-4 10-10 10h-30c-6 0-10-4-10-10z" fill="#008aff"/>
  <path transform="matrix(.25 0 0 -.25 680 170)" d="m50 270c28 0 50 22 50 50s-22 50-50 50-50-22-50-50 22-50 50-50z" fill="#44003b"/>
  <path transform="matrix(.25 0 0 -.25 680 170)" d="m100-121v321c0 28-22 50-50 50s-50-22-50-50v-320c0-28 21-50 49-50 28-1 51 21 51 49z" fill="#2a2a2a"/>
  <path transform="matrix(.25 0 0 -.25 731.25 152.5)" d="m90 930h-80c-6 0-10-4-10-10s4-10 10-10h80c6 0 10 4 10 10s-4 10-10 10z" fill="#008aff"/>
  <path transform="matrix(.25 0 0 -.25 731.25 170)" d="m40 950v-30c0-6 4-10 10-10s10 4 10 10v30c0 6-4 10-10 10s-10-4-10-10zm-30-30c0-6 4-10 10-10s10 4 10 10v30c0 6-4 10-10 10s-10-4-10-10zm60 0c0-6 4-10 10-10s10 4 10 10v30c0 6-4 10-10 10s-10-4-10-10z" fill="#008aff"/>
  <path transform="matrix(.25 0 0 -.25 717.5 170)" d="m100-1v201c0 28-22 50-50 50s-50-22-50-50v-200c0-28 21-50 49-50 28-1 51 21 51 49zm10-119c0-28 21-50 49-50 28-1 51 21 51 49v321c0 28-22 50-50 50s-50-22-50-50z" fill="#2a2a2a"/>
  <path transform="matrix(.25 0 0 -.25 810 170)" d="m90 930h-80c-6 0-10-4-10-10s4-10 10-10h80c6 0 10 4 10 10s-4 10-10 10z" fill="#008aff"/>
  <path transform="matrix(.25 0 0 -.25 782.5 170)" d="m100-1v201c0 28-22 50-50 50s-50-22-50-50v-200c0-28 21-50 49-50 28-1 51 21 51 49zm10 1c0-28 21-50 49-50 28-1 51 21 51 49v321c0 28-22 50-50 50s-50-22-50-50zm110 0c0-28 21-50 49-50 28-1 51 21 51 49v201c0 28-22 50-50 50s-50-22-50-50z" fill="#2a2a2a"/>
  <path transform="matrix(.25 0 0 -.25 915 170)" d="m65 930h-30c-6 0-10-4-10-10s4-10 10-10h30c6 0 10 4 10 10s-4 10-10 10zm-40 20c0-6 4-10 10-10h30c6 0 10 4 10 10s-4 10-10 10h-30c-6 0-10-4-10-10z" fill="#008aff"/>
  <path transform="matrix(.25 0 0 -.25 887.5 170)" d="m100-1v201c0 28-22 50-50 50s-50-22-50-50v-200c0-28 21-50 49-50 28-1 51 21 51 49zm10 1c0-28 21-50 49-50 28-1 51 21 51 49v321c0 28-22 50-50 50s-50-22-50-50z" fill="#2a2a2a"/>
  <path transform="matrix(.25 0 0 -.25 952.5 170)" d="m90 930h-80c-6 0-10-4-10-10s4-10 10-10h80c6 0 10 4 10 10s-4 10-10 10z" fill="#008aff"/>
  <path transform="matrix(.25 0 0 -.25 952.5 170)" d="m160-170c28 0 50 22 50 50s-22 50-50 50-50-22-50-50 22-50 50-50z" fill="#44003b"/>
  <path transform="matrix(.25 0 0 -.25 952.5 170)" d="m100-121v321c0 28-22 50-50 50s-50-22-50-50v-320c0-28 21-50 49-50 28-1 51 21 51 49zm10 121c0-28 21-50 49-50 28-1 51 21 51 49v321c0 28-22 50-50 50s-50-22-50-50z" fill="#2a2a2a"/>
  <path transform="matrix(.25 0 0 -.25 1017.5 170)" d="m65 930h-30c-6 0-10-4-10-10s4-10 10-10h30c6 0 10 4 10 10s-4 10-10 10zm-40 20c0-6 4-10 10-10h30c6 0 10 4 10 10s-4 10-10 10h-30c-6 0-10-4-10-10z" fill="#008aff"/>
  <path transform="matrix(.25 0 0 -.25 1017.5 170)" d="m50-170c28 0 50 22 50 50s-22 50-50 50-50-22-50-50 22-50 50-50z" fill="#44003b"/>
  <path transform="matrix(.25 0 0 -.25 1017.5 170)" d="m100-1v321c0 28-22 50-50 50s-50-22-50-50v-320c0-28 21-50 49-50 28-1 51 21 51 49z" fill="#2a2a2a"/>
  <path transform="matrix(.25 0 0 -.25 1055 170)" d="m90 930h-80c-6 0-10-4-10-10s4-10 10-10h80c6 0 10 4 10 10s-4 10-10 10z" fill="#008aff"/>
  <path transform="matrix(.25 0 0 -.25 1055 170)" d="m100 0v660c0 28-22 50-50 50s-50-22-50-50v-660c0-28 22-50 50-50s50 22 50 50zm-100 786c0-31 25-56 56-56v112c-31 0-56-25-56-56z" fill="#008aff"/>
  <path transform="matrix(.25 0 0 -.25 1055 170)" d="m56 730v112c-31 0-56-25-56-56s25-56 56-56z" fill="#dcbb48"/>
  <path transform="matrix(.25 0 0 -.25 1055 170)" d="m100 0v660c0 28-22 50-50 50s-50-22-50-50v-660c0-28 22-50 50-50s50 22 50 50z" fill="#2a2a2a"/>
 </g>
</svg>
