<?xml version="1.0" encoding="UTF-8"?>
<svg version="1.1" viewBox="0 0 2311 407.05" xmlns="http://www.w3.org/2000/svg">
 <defs></defs>
 <g fill="#fff">
  <g transform="translate(16 328.58)">
   <path d="m51.969-118.79c0.85156 12.461 0.12891 23.34-2.1758 32.641-2.3047 9.3008-5.3359 17.707-9.0898 25.215-1.0234 2.0508-2.0039 4.0977-2.9414 6.1445-0.94141 2.0508-2.2617 3.7539-3.9688 5.1211-1.1953 0.85156-1.8359 0.76953-1.9219-0.25781-0.08594-1.0234-0.12891-1.6211-0.12891-1.7891 2.5625-15.359 3.1172-29.824 1.6641-43.395-1.4492-13.566-4.1367-26.066-8.0625-37.504-3.9258-11.434-8.2773-21.758-13.055-30.977-0.34375-0.67968-1.0234-1.832-2.0508-3.4531-1.0234-1.6211-1.918-3.2422-2.6875-4.8633-0.76562-1.6211-1.0664-2.6914-0.89453-3.2031 2.3906-5.9726 4.9062-11.902 7.5508-17.789 2.6445-5.8906 5.25-11.906 7.8086-18.051 4.2656 9.0469 8.5352 18.176 12.801 27.395 4.2656 9.2148 7.9766 19.027 11.137 29.438 3.1562 10.41 5.1602 22.188 6.0156 35.328zm-39.426 97.023 22.785-23.551c0.68359-1.0234 1.707-1.0234 3.0703 0l18.691 17.922c1.0234 0.67969 1.0234 1.707 0 3.0703l-22.531 23.551c-0.85156 1.0273-1.9609 1.0273-3.3281 0l-18.43-17.918c-1.0234-0.85547-1.1094-1.8789-0.25781-3.0742z"/>
  </g>
  <g transform="translate(80.766 328.58)">
   <path d="m81.922-193.28c-1.5391 5.4609-3.1172 10.926-4.7383 16.387s-3.625 10.75-6.0156 15.871c-0.51172 1.0234-1.5781 1.875-3.1992 2.5586-1.6211 0.68359-2.5195 0.17187-2.6875-1.5352-0.34375-5.6328-2.4766-10.156-6.4023-13.566-3.9258-3.4141-8.7891-5.207-14.59-5.3789-8.5352-0.33985-15.703 1.793-21.504 6.4023 1.3633 6.3125 4.0078 11.648 7.9336 16s7.7656 8.4883 11.52 12.414c5.9766 5.9727 11.395 12.586 16.258 19.84 4.8633 7.2539 7.8945 16.258 9.0898 27.008-0.34375 9.8984-2.2188 18.52-5.6328 25.855-3.4141 7.3398-6.9141 14.508-10.496 21.504-0.17188 0.51562-0.68359 0.76953-1.5352 0.76953-0.85547 0-1.1953-0.42578-1.0273-1.2812 2.7305-8.7031 3.4141-16.852 2.0508-24.445-1.3672-7.5977-3.8398-14.465-7.4258-20.609-3.582-6.1445-7.6797-11.266-12.289-15.359-4.2656-3.9258-8.2773-8.1914-12.031-12.801-3.7539-4.6094-6.8242-9.8125-9.2148-15.617-1.1953-6.8242-0.98047-14.461 0.64062-22.91s4.5625-16.469 8.832-24.062c4.2656-7.5977 9.7695-13.742 16.512-18.434 6.7422-4.6953 14.547-6.7852 23.422-6.2734 5.1211 0.34375 9.3438 1.9219 12.672 4.7383s6.0156 6.0156 8.0664 9.5977c0.33984 0.34375 0.55469 0.8125 0.64062 1.4102 0.08203 0.59766 0.46875 1.2383 1.1523 1.918zm-54.785 171.52 22.785-23.551c0.67969-1.0234 1.7031-1.0234 3.0703 0l18.688 17.922c1.0234 0.67969 1.0234 1.707 0 3.0703l-22.527 23.551c-0.85547 1.0273-1.9648 1.0273-3.3281 0l-18.434-17.918c-1.0234-0.85547-1.1094-1.8789-0.25391-3.0742z"/>
  </g>
  <g transform="translate(169.08 328.58)">
   <path d="m8.9609-101.89c0-3.9258 1.4492-7.3398 4.3516-10.242 2.9023-2.9023 6.3984-4.3516 10.496-4.3516 3.9258 0 7.2969 1.4492 10.113 4.3516 2.8125 2.9024 4.2227 6.3164 4.2227 10.242 0 3.9258-1.4102 7.3359-4.2227 10.238-2.8164 2.9023-6.1875 4.3516-10.113 4.3516-4.0977 0-7.5938-1.4492-10.496-4.3516-2.9023-2.9023-4.3516-6.3125-4.3516-10.238zm0 90.367c0-3.9258 1.4492-7.3398 4.3516-10.242 2.9023-2.8984 6.3984-4.3516 10.496-4.3516 3.9258 0 7.2969 1.4531 10.113 4.3516 2.8125 2.9023 4.2227 6.3164 4.2227 10.242s-1.4102 7.3398-4.2227 10.238c-2.8164 2.9023-6.1875 4.3516-10.113 4.3516-4.0977 0-7.5938-1.4492-10.496-4.3516-2.9023-2.8984-4.3516-6.3125-4.3516-10.238z"/>
  </g>
  <g transform="translate(216.19 328.58)">
   <path d="m32.512-58.625c-5.2891 0-9.6406-2.9844-13.055-8.9609-3.4141-5.9727-4.6094-13.906-3.5859-23.805 0.85547-9.2188 2.9023-19.672 6.1445-31.363 3.2422-11.688 6.9961-23.508 11.266-35.453l7.9336-7.6797c-0.16797 1.1953-0.85156 4.1797-2.0469 8.957-1.1953 4.7812-2.9023 11.266-5.1211 19.457-1.1953 4.2656-2.1328 9.2148-2.8164 14.848-0.67969 5.6328-0.9375 11.008-0.76562 16.129 0.16797 5.1211 0.98047 9.3008 2.4297 12.543 1.4531 3.2422 3.7578 4.8242 6.9141 4.7383 3.1562-0.08594 7.3789-2.6875 12.672-7.8086 0.85156-0.85547 1.707-1.0234 2.5586-0.51172 0.85547 0.51172 1.2812 1.2773 1.2812 2.3047-0.51172 11.605-2.6875 20.605-6.5273 27.008-3.8398 6.3984-9.6016 9.5977-17.281 9.5977zm-17.918 36.863 22.781-23.551c1.0234-1.0234 2.0508-1.0234 3.0742 0l18.43 17.922c1.1953 1.0234 1.2812 2.0469 0.25781 3.0703l-22.785 23.551c-1.0234 1.0273-2.0469 1.1094-3.0703 0.25781l-18.688-18.176c-1.0273-1.0234-1.0273-2.0469 0-3.0742z"/>
  </g>
  <g transform="translate(287.36 328.58)">
   <path d="m32.512 0c-5.2891 0-9.6406-2.9883-13.055-8.9609-3.4141-5.9727-4.6094-13.91-3.5859-23.809 0.85547-9.2148 2.9023-19.668 6.1445-31.359s6.9961-23.508 11.266-35.457l7.9336-7.6797c-0.16797 1.1953-0.85156 4.1836-2.0469 8.9609-1.1953 4.7812-2.9023 11.266-5.1211 19.457-1.1953 4.2656-2.1328 9.2148-2.8164 14.848-0.67969 5.6328-0.9375 11.008-0.76562 16.129 0.16797 5.1172 0.98047 9.3008 2.4297 12.543 1.4531 3.2422 3.7578 4.8203 6.9141 4.7344 3.1562-0.08203 7.3789-2.6875 12.672-7.8047 0.85156-0.85547 1.707-1.0273 2.5586-0.51172 0.85547 0.51172 1.2812 1.2773 1.2812 2.3008-0.51172 11.605-2.6875 20.609-6.5273 27.008-3.8398 6.4023-9.6016 9.6016-17.281 9.6016z"/>
  </g>
  <g transform="translate(395.91 328.58)">
   <path d="m99.586-148.48c-0.68359 9.3867-2.0078 18.219-3.9688 26.496-1.9648 8.2774-5.5898 14.891-10.883 19.84-2.2188 1.8789-5.2891 3.6289-9.2148 5.25-3.9258 1.6211-7.6797 1.3203-11.262-0.89844-0.85547-0.51172-1.582-1.1523-2.1797-1.918-0.59375-0.76953-1.2344-1.4961-1.918-2.1758-1.1953 1.0234-2.6875 2.3438-4.4805 3.9648-1.793 1.625-2.4336 2.8594-1.918 3.7148 5.4609 9.3867 9.4258 19.496 11.902 30.336 2.4766 10.836 3.0273 21.633 1.6641 32.383-1.3672 10.754-5.1211 20.906-11.266 30.465-0.16797 0.51172-0.67969 0.9375-1.5352 1.2812-0.85156 0.33984-1.2812 0.42578-1.2812 0.25391 1.1953-12.117 0.51562-23.125-2.0469-33.023-2.5586-9.8984-6.0586-18.988-10.496-27.266s-8.875-16-13.312-23.168c-3.4102-5.8008-7.082-11.434-11.008-16.895-3.9258-5.4609-7.2539-11.52-9.9844-18.176 1.8789-5.293 3.8398-10.625 5.8906-16 2.0469-5.375 4.2656-10.625 6.6562-15.746 1.875 3.9258 3.9258 8.1094 6.1445 12.547s5.0312 7.8476 8.4453 10.238c3.2422 2.2188 6.8711 3.2852 10.879 3.1992 4.0117-0.0859 7.8516-0.98047 11.523-2.6875 3.668-1.707 6.3555-3.7539 8.0625-6.1445 0.68359-0.85157 1.4062-2.5586 2.1758-5.1172 0.76953-2.5625 1.4922-4.3516 2.1758-5.3789 0.33984-0.85156 0.76953-0.85156 1.2812 0 0.51172 0.85547 0.68359 1.4531 0.51172 1.793-0.34375 2.7305 0.12891 5.0781 1.4062 7.0391 1.2812 1.9648 2.7734 3.1172 4.4805 3.457 5.4609 1.1953 10.156 0.30079 14.082-2.6875 3.9258-2.9883 6.3125-6.7852 7.168-11.391 0.16797-0.51172 0.64062-1.4961 1.4062-2.9453 0.76953-1.4492 1.0664-1.6641 0.89844-0.64063z"/>
  </g>
  <g transform="translate(501.89 328.58)">
   <path d="m67.07-146.18-7.6797 28.672c-0.16797 0.85157-0.59766 1.6641-1.2773 2.4336-0.68359 0.76562-1.3672 1.0664-2.0508 0.89453-5.2891-1.5352-11.051-2.6875-17.277-3.457-6.2305-0.76563-12.246-0.29688-18.051 1.4102 2.5625 6.1445 5.5469 12.586 8.9609 19.328 3.4141 6.7383 6.7852 13.523 10.113 20.352 3.3281 6.8242 5.9297 13.652 7.8086 20.48 0.85156 6.6562 0.67969 12.926-0.51172 18.816-1.1953 5.8867-2.6914 11.602-4.4805 17.148-1.793 5.5469-3.457 11.051-4.9922 16.512-0.34375 1.3672-1.1953 2.5625-2.5625 3.5859 1.0273-9.2148 0.51563-18.09-1.5352-26.625-2.0469-8.5312-4.7773-16.512-8.1914-23.934-3.4141-7.4258-6.8281-13.953-10.238-19.586-2.7305-4.6094-4.7812-10.195-6.1445-16.766-1.3672-6.5742-1.9648-13.398-1.793-20.48 0.17188-7.0859 1.1953-13.781 3.0703-20.098 1.8789-6.3125 4.6523-11.562 8.3203-15.742 3.6719-4.1836 8.4062-6.6133 14.211-7.2969 6.1406-0.85547 11.988-0.8125 17.535 0.1289 5.5469 0.9375 10.965 2.0898 16.254 3.4531 0 0 0.08594 0.043 0.25781 0.1289 0.17188 0.0859 0.25391 0.30079 0.25391 0.64063z"/>
  </g>
  <g transform="translate(575.11 328.58)">
   <path d="m39.938-71.938c1.3633 13.996 0.72266 26.668-1.9219 38.016-2.6445 11.352-6.1016 21.465-10.367 30.336-0.33984 0.68359-0.85547 1.5391-1.5352 2.5625-0.68359 1.0234-1.5391 1.3633-2.5625 1.0234 2.7305-22.188 2.3047-42.965-1.2773-62.336-3.5859-19.371-8.875-36.566-15.875-51.586 1.8789-5.6289 3.9688-11.562 6.2734-17.789 2.3047-6.2305 4.6523-12.246 7.0391-18.051 4.4375 10.926 8.4062 22.316 11.906 34.176 3.4961 11.863 6.1016 24.707 7.8086 38.531 0 0.51172 0.08203 1.3633 0.25391 2.5586 0.17187 1.1953 0.25781 2.0469 0.25781 2.5586z"/>
  </g>
  <g transform="translate(623.23 328.58)">
   <path d="m7.6797-67.328 18.945-23.551c0.51172-0.51172 1.0234-0.76953 1.5352-0.76953 0.68359 0 1.2812 0.25781 1.793 0.76953l21.246 17.918c0.85547 0.51172 1.2812 1.1094 1.2812 1.793 0 0.51172-0.25781 1.0234-0.76953 1.5352l-19.199 23.297c-0.68359 0.68359-1.1094 1.0234-1.2812 1.0234-0.67969 0-1.2773-0.25391-1.7891-0.76562l-21.25-17.922c-0.85156-0.51172-1.2812-1.1953-1.2812-2.0469 0-0.34375 0.25781-0.76953 0.76953-1.2812z"/>
  </g>
  <g transform="translate(719.75 328.58)">
   <path d="m94.207-61.953c0-6.9961-0.64062-13.227-1.918-18.688-1.2812-5.4609-2.7734-10.836-4.4805-16.129l13.824-32c5.4609 11.438 8.1914 23.043 8.1914 34.816 0 2.3906-0.0859 4.8633-0.25781 7.4258-0.16797 2.5586-0.51172 5.0352-1.0234 7.4219-3.0703 17.238-9.3867 32.855-18.941 46.848-9.3867 13.312-21.25 22.699-35.586 28.16-3.7539 1.1953-7.3398 2.1758-10.75 2.9453-3.4141 0.76953-6.6562 1.1523-9.7305 1.1523-2.9023 0-5.7148-0.33984-8.4453-1.0234-2.7344-0.68359-5.293-1.6211-7.6836-2.8164-5.2891-2.5586-9.5117-6.9141-12.672-13.055-3.1562-6.1445-4.7344-13.738-4.7344-22.785 0-8.0234 1.8359-17.449 5.5039-28.289 3.668-10.836 9.2578-23.082 16.77-36.734 2.0469-3.9258 4.3086-8.0234 6.7812-12.289 2.4766-4.2656 4.8242-8.2773 7.043-12.031l3.8398 2.0469 20.477 13.824c-1.3633 2.5586-2.7305 5.0781-4.0938 7.5508-1.3672 2.4766-2.7305 4.9102-4.0977 7.2969l-8.1914 14.594-18.941-12.801c-2.2188 5.1211-4.5664 10.324-7.043 15.617-2.4727 5.2891-4.9062 11.094-7.293 17.406-1.1953 2.9023-1.793 5.8047-1.793 8.7031 0 7.3398 4.4375 12.887 13.312 16.641 5.4609 1.0234 10.75 1.5352 15.871 1.5352 9.043 0 17.492-1.5352 25.344-4.6055 12.289-4.9492 22.527-11.094 30.719-18.434z"/>
  </g>
  <g transform="translate(817.28 269.97)">
   <path d="m50.176-42.238c1.1953-2.3906 2.5586-5.4219 4.0977-9.0898 1.5352-3.668 3.4102-7.8945 5.6289-12.672 4.2695-9.3867 8.6211-14.078 13.059-14.078 2.9023-1.0273 8.4453-1.3672 16.641-1.0273 8.0195 0.17188 11.348 3.5 9.9844 9.9844-1.1953 6.3164-2.3477 11.18-3.457 14.594-1.1094 3.4141-2.5195 6.3984-4.2266 8.9609-1.7031 2.5586-4.1797 5.8008-7.4219 9.7266-4.9492 5.9727-12.715 11.605-23.297 16.895-9.3867 4.7812-19.07 8.4492-29.055 11.008-9.9844 2.5625-20.695 5.207-32.129 7.9375l5.6328-33.023c15.699-1.8789 30.547-4.9492 44.543-9.2148z"/>
  </g>
  <g transform="translate(872.33 260.77)">
   <path d="m69.375-148.48 18.688-30.977 12.801 153.6-18.687 25.855-7.9375-89.344c-10.238 3.4141-18.984 6.6562-26.238 9.7266-7.2539 3.0742-12.93 5.8047-17.023 8.1914-8.3633 4.9492-17.324 15.02-26.879 30.211-0.68359 1.1953-1.707 1.7891-3.0742 1.7891-1.1953 0-1.3633-1.4492-0.51172-4.3516 6.1445-19.797 15.105-34.387 26.879-43.773 5.9766-4.7812 12.629-9.4297 19.969-13.953 7.3398-4.5234 15.445-9.0039 24.32-13.441z"/>
  </g>
  <g transform="translate(954.5 260.77)">
   <path d="m57.855-115.2c-1.1953 0.68359-2.0469 0.85156-2.5586 0.51172-0.51172-0.34375-0.59766-1.1094-0.25781-2.3047l8.4492-29.695c9.3867-5.4609 18.262-10.582 26.625-15.359 8.3633-4.7812 16.723-9.5586 25.086-14.336 8.3633-4.7812 17.238-9.8984 26.625-15.359 2.2188-1.3672 3.1562-0.76953 2.8164 1.7891l-8.4492 29.953c-9.2148 5.4609-18.047 10.539-26.496 15.23-8.4492 4.6953-16.852 9.4297-25.215 14.211-8.3633 4.7773-17.238 9.8984-26.625 15.359zm-8.9609 99.328c-5.2891 3.7539-11.773 7.0391-19.453 9.8555-7.6797 2.8164-16.043 4.7344-25.09 5.7578-1.0234 0-1.793 0.085937-2.3047 0.25781-1.3633 0-2.0469-0.51172-2.0469-1.5352l15.871-31.234c8.3633-0.85156 16.258-2.1758 23.68-3.9648 7.4258-1.793 14.465-4.2266 21.121-7.2969 0.68359-13.824-4.6914-23.895-16.129-30.207-11.605-6.4883-21.758-2.9023-30.465 10.75l-0.76562-11.52c1.3633-1.8789 2.8594-4.0977 4.4805-6.6562 1.6211-2.5586 3.5391-5.207 5.7578-7.9375 2.3906-3.2422 5.3359-6.6953 8.832-10.367 3.5-3.668 7.3828-6.7422 11.648-9.2148 4.2656-2.4766 8.7031-3.668 13.312-3.5859 4.6094 0.0859 9.0469 2.3476 13.312 6.7852 7.5078 7.6797 11.266 16.469 11.266 26.367 0 9.3867-2.0508 18.605-6.1445 27.648-7.6797 16.727-16.641 28.758-26.883 36.098z"/>
  </g>
  <g transform="translate(1196.4 354.44)">
   <path d="m16.641 9.4727-49.152 9.2148 15.359-30.465 49.152-9.2148z"/>
  </g>
  <g transform="translate(1136.8 328.58)">
   <path d="m34.816-124.67c0.85156 0 1.2812 0.25782 1.2812 0.76954 0 0.33984-0.08594 0.67968-0.25781 1.0234-2.7305 5.6328-6.0586 12.031-9.9844 19.199-3.9258 7.168-6.9102 14.078-8.9609 20.734-0.85156 2.7305-1.4922 5.5469-1.918 8.4492-0.42578 2.9023-0.64062 5.7188-0.64062 8.4492 0 7.5078 1.9219 13.523 5.7617 18.047s9.043 7.8086 15.613 9.8555c6.5703 2.0469 13.867 3.0742 21.891 3.0742 3.4102 0 6.7812-0.12891 10.109-0.38672 3.3281-0.25391 6.6133-0.72266 9.8555-1.4062 19.801-3.5859 37.977-10.668 54.531-21.25-8.5352-0.67969-16.473-2.6445-23.809-5.8867-7-3.0703-11.52-8.0195-13.57-14.848-0.51172-1.5352-0.76562-3.0742-0.76562-4.6094 0-3.582 0.85156-7.5938 2.5586-12.031 2.5586-7.168 5.7188-13.91 9.4727-20.223 2.3906 7.3359 7.2109 12.883 14.465 16.641 7.2539 3.7539 15.145 6.2266 23.68 7.4219 3.7539 0.51172 6.9102 2.1328 9.4726 4.8633 2.5586 2.7305 3.8398 6.0586 3.8398 9.9844 0 4.6094-2.0508 9.9844-6.1445 16.129-3.9258 6.1445-9.1328 12.246-15.617 18.305-6.4844 6.0586-13.48 11.648-20.992 16.766-7.5078 5.1211-14.934 9.4727-22.273 13.059-12.797 6.3125-25.512 10.324-38.141 12.031-1.707 0.17188-3.3281 0.29688-4.8672 0.38281-1.5352 0.085937-3.0703 0.12891-4.6055 0.12891-4.4375 0-8.7461-0.46875-12.93-1.4062-4.1797-0.94141-8.1484-2.4336-11.902-4.4805-7.168-3.9258-12.246-8.6641-15.234-14.211-2.9844-5.5469-4.4766-12.754-4.4766-21.629 0-3.9258 0.29688-7.7656 0.89453-11.52 0.59766-3.7578 1.4922-7.6836 2.6875-11.777 3.2422-11.434 8.0234-22.699 14.336-33.793 3.0703-5.4609 5.8867-10.324 8.4492-14.59 2.5586-4.2695 4.9492-7.8516 7.168-10.754 0.16797-0.33984 0.51172-0.51172 1.0234-0.51172z"/>
  </g>
  <g transform="translate(1233.3 235.14)">
   <path d="m97.535-153.09 18.945-30.207 5.375 82.176-18.945 29.953zm-25.086 126.46c-8.875 1.707-17.879 3.6289-27.008 5.7617-9.1328 2.1328-17.367 4.9062-24.707 8.3203-5.6289 2.7305-10.75 6.9102-15.359 12.543l-5.375-4.3516v-0.25781c2.3906-5.1172 4.6523-9.9414 6.7852-14.461 2.1328-4.5234 4.8203-8.6641 8.0625-12.418 6.8281-8.7031 15.02-14.25 24.578-16.641 4.7773-1.1953 9.6406-2.3867 14.59-3.582 4.9492-1.1953 10.07-2.3906 15.359-3.5859 4.4375-1.1953 9.3438-2.3867 14.723-3.582 5.375-1.1953 9.7695-2.3906 13.184-3.5859 6.6562-8.0195 14.164-16.383 22.527-25.086 8.3633-8.707 16.383-16.641 24.062-23.809 3.7539-3.5859 9.7305-6.1445 17.922-7.6797 8.0195-1.5352 14.164 0.2539 18.43 5.375 5.293 6.3164 6.1445 13.055 2.5625 20.223-4.9492 9.3867-10.582 17.621-16.898 24.707-6.3125 7.082-14.25 13.27-23.809 18.559-11.945 6.4844-24.316 11.605-37.117 15.359-5.293 1.707-10.668 3.2422-16.129 4.6094-5.4609 1.3633-10.922 2.5586-16.383 3.582zm85.504-58.367c-1.3672-2.5586-4.1836-4.5234-8.4492-5.8867-4.2656-1.3672-8.2774-1.0234-12.031 1.0234-5.9727 3.2422-11.266 7.2109-15.871 11.902-4.6094 4.6953-9.3047 9.3438-14.082 13.953 9.0469-1.8789 17.793-3.8398 26.242-5.8867 8.4453-2.0508 16.34-4.7812 23.68-8.1914 2.0469-1.0273 2.2188-3.3281 0.51171-6.9141z"/>
  </g>
  <g transform="translate(1307 271.23)">
   <path d="m27.137-85.246c0.85156 0 1.2773 0.25391 1.2773 0.76562 0 0.33984-0.08203 0.68359-0.25391 1.0234-3.2422 6.6562-5.7617 12.547-7.5508 17.664-1.793 5.1211-2.6875 9.5586-2.6875 13.312 0 2.7305 0.51172 5.0352 1.5352 6.9141 2.2188 4.4375 5.6328 7.5938 10.238 9.4688 4.6094 1.8789 10.324 2.8164 17.152 2.8164 4.0977 0 8.4062-0.29688 12.93-0.89453 4.5195-0.59766 9.3438-1.4102 14.461-2.4336 6.6562-1.3633 12.973-2.6016 18.945-3.7109 5.9727-1.1094 11.605-2.0039 16.895-2.6875 2.2188-6.4844 4.9102-13.227 8.0664-20.223 3.1562-7 6.8672-13.57 11.137-19.715 4.2656-6.1445 8.957-11.008 14.078-14.59 3.0742-2.0508 6.1445-3.0742 9.2148-3.0742 4.7812 0 8.832 1.4531 12.16 4.3516 3.3281 2.9023 5.9336 6.0586 7.8086 9.4727 3.0742 5.293 5.4609 11.094 7.168 17.41 2.3906 2.7305 5.1211 4.0938 8.1914 4.0938 2.2188 0 4.4375-0.59766 6.6562-1.7891l-16.383 35.07c-12.629 3.9258-24.703 7.2539-36.223 9.9844-11.52 2.7305-24.023 5.8008-37.504 9.2148-0.68359 1.707-1.4102 4.0547-2.1758 7.0391-0.76953 2.9883-2.1758 4.9102-4.2266 5.7617h-0.51172c-1.3633 0-2.0469-0.51172-2.0469-1.5352 0-1.3672 0.29688-2.9453 0.89453-4.7383 0.59766-1.7891 0.98438-3.2852 1.1523-4.4805-5.2891 1.1953-11.18 2.4336-17.664 3.7148-6.4844 1.2773-13.566 2.6016-21.246 3.9688-10.242 2.0469-19.285 3.0703-27.137 3.0703-7.6797 0-14.336-1.1094-19.969-3.3281-5.6328-2.2188-9.043-5.9727-10.238-11.266-0.17188-1.3633-0.38672-2.7734-0.64062-4.2227-0.25781-1.4492-0.38281-2.9453-0.38281-4.4805 0-4.9492 0.9375-10.41 2.8125-16.383 1.3672-4.6094 2.9883-9.1328 4.8672-13.566 1.875-4.4375 4.0938-8.793 6.6562-13.059 2.5586-4.4375 4.8203-8.1484 6.7812-11.137 1.9648-2.9844 3.543-5.418 4.7383-7.293 0.16797-0.34375 0.51172-0.51172 1.0234-0.51172zm126.46 30.973c-1.3672-2.8984-2.8164-5.5039-4.3555-7.8047-1.5352-2.3047-3.2422-4.1406-5.1172-5.5078-2.3906-1.875-4.8633-2.8125-7.4258-2.8125-2.3867 0-4.7773 1.0234-7.168 3.0703-3.4141 3.0703-6.0156 6.6133-7.8086 10.625-1.7891 4.0117-3.625 8.2344-5.5039 12.672l36.098-7.168c1.0234-0.34375 1.5352-0.94141 1.5352-1.793 0-0.51172-0.0859-0.9375-0.25391-1.2812z"/>
  </g>
  <g transform="translate(1640.6 211.59)">
   <path d="m20.223-3.3281c-3.4102 4.4375-6.8672 8.832-10.367 13.184-3.5 4.3516-7.0391 8.7461-10.625 13.184l-18.176-16.895 20.992-26.367z"/>
  </g>
  <g transform="translate(1548.4 328.58)">
   <path d="m114.69-69.633c-1.0234 5.6328-2.6016 11.562-4.7344 17.793-2.1328 6.2305-4.4805 12.031-7.043 17.406-2.5586 5.3789-5.2031 9.6875-7.9336 12.93-5.8047 6.8281-13.098 12.203-21.887 16.129-8.793 3.9258-19.672 5.7148-32.641 5.375-8.0234-0.17188-15.191-0.55469-21.504-1.1523-6.3164-0.59766-11.18-1.4062-14.594-2.4336-3.4141-1.0234-4.8203-2.4297-4.2227-4.2227 0.59766-1.793 3.7539-4.0117 9.4727-6.6562 5.7148-2.6445 14.633-5.8438 26.75-9.5977 10.41-3.2461 20.523-6.7422 30.336-10.496 9.8125-3.7578 18.816-8.3633 27.008-13.824 7.6797-5.1211 13.57-12.203 17.664-21.25 0.34375-1.0234 0.9375-1.4922 1.793-1.4062 0.85157 0.08594 1.3633 0.55469 1.5352 1.4062z"/>
  </g>
  <g transform="translate(1668.5 328.58)">
   <path d="m58.879-2.0469c-9.3867 1.707-18.984 2.3438-28.801 1.918-9.8125-0.42578-19.41-1.0664-28.797-1.918-0.85547-0.17188-1.2812-0.72656-1.2812-1.6641 0-0.94141 0.33984-1.5781 1.0234-1.9219 13.312-7.5078 27.477-14.078 42.496-19.711s29.867-11.434 44.543-17.41c3.9258-1.5352 7.5117-3.4961 10.754-5.8867 3.2422-2.3906 6.1445-5.0352 8.7031-7.9336 0.85547-0.85547 0.98047-2.3477 0.38281-4.4805-0.59375-2.1328-1.3203-3.7969-2.1758-4.9922-4.0938 0.85156-8.4883 1.0664-13.184 0.64062-4.6914-0.42969-8.1484-1.8359-10.367-4.2266-1.8789-2.2188-2.7305-4.7344-2.5586-7.5508 0.16797-2.8164 0.85156-5.5039 2.0469-8.0625 2.9023-5.6328 5.5898-11.352 8.0625-17.152 2.4766-5.8047 5.7617-11.008 9.8594-15.617 1.875-2.2188 4.3086-2.8164 7.293-1.793 2.9883 1.0234 5.25 2.3047 6.7852 3.8398 6.6562 6.6562 10.496 14.551 11.52 23.68 1.0234 9.1328-0.043 18.562-3.1992 28.289-3.1562 9.7266-7.9375 18.945-14.336 27.648-6.4024 8.7031-13.824 16.129-22.273 22.273-8.4453 6.1406-17.277 10.152-26.496 12.031z"/>
  </g>
  <g transform="translate(1777.5 262.28)">
   <path d="m87.809-100.1c2.7305 0 5.0352 1.3242 6.9102 3.9688 1.8789 2.6445 3.3711 5.6758 4.4805 9.0898 1.1094 3.4141 1.6641 6.3125 1.6641 8.7031 0 3.0703-0.76562 6.1445-2.3047 9.2148-1.707 3.7539-3.582 7.6367-5.6289 11.648-2.0508 4.0117-4.2695 8.2344-6.6562 12.672 12.629-2.2188 23.211-6.0586 31.742-11.52 0.17187-1.3633 0.25781-2.7734 0.25781-4.2227v-4.2266c0-10.238-0.85547-19.84-2.5625-28.797-1.707-8.9609-4.3516-17.109-7.9336-24.449-0.68359-1.5352-2.0508-3.1992-4.0976-4.9922-2.0469-1.793-4.3516-2.6875-6.9102-2.6875-1.1953 0-2.8164 0.42578-4.8672 1.2812-5.4609 2.7305-9.9805 6.6523-13.566 11.773-1.707 2.5625-3.5 4.9492-5.375 7.168-1.8789 2.2188-3.7539 4.4375-5.6328 6.6563-0.85156 0.85547-2.2188 1.3672-4.0977 1.5352-1.5352 0-2.2188-0.51172-2.0469-1.5352 1.8789-5.4609 4.5234-10.41 7.9375-14.848 3.4141-4.4375 6.7422-8.7891 9.9844-13.055 2.5586-3.2422 5.5469-6.7422 8.957-10.496 3.4141-3.7539 7.125-7.168 11.137-10.242 4.0117-3.0703 8.0664-5.2891 12.16-6.6562 1.8789-0.67969 3.9258-1.0234 6.1445-1.0234 3.7539 0 6.9961 0.9375 9.7266 2.8164 4.6094 3.0742 7.8516 10.41 9.7305 22.016 0.68359 3.9258 1.2773 7.8086 1.793 11.648 0.51171 3.8398 1.1094 7.5508 1.7891 11.137 0.34375 2.2188 0.64062 4.3516 0.89844 6.3984 0.2539 2.0508 0.38281 4.1836 0.38281 6.4023 0 1.3633-0.043 2.7734-0.12891 4.2227-0.0859 1.4492-0.21094 2.8594-0.38281 4.2227-1.0234 9.5586-5.375 20.227-13.055 32-5.6328 8.5352-11.906 16.043-18.816 22.531-6.9141 6.4844-14.977 11.52-24.195 15.102-9.2148 3.5859-20.309 5.375-33.277 5.375h-2.8164-1.2812c-0.68359 0-1.1953 0.08594-1.5352 0.25781-7.6797 2.0469-15.402 3.8828-23.168 5.5039s-15.488 3.457-23.168 5.5039l5.8867-33.281 37.891-6.1445c8.3633-20.648 18.602-37.887 30.719-51.711 5.1211-5.9727 9.5586-8.9609 13.312-8.9609zm-29.953 51.457c0 1.1953 0.59766 2.4336 1.793 3.7109 1.1953 1.2812 2.1328 1.9219 2.8164 1.9219h0.25391c7.168-2.0469 12.973-5.0352 17.41-8.9609l-0.51172-0.76562c-2.3906-6.8281-5.293-10.242-8.707-10.242-0.67969 0-1.2773 0.08594-1.7891 0.25781-4.2695 1.5352-7.8516 5.4609-10.754 11.773-0.33984 1.0234-0.51172 1.793-0.51172 2.3047z"/>
  </g>
  <g transform="translate(1964.7 328.58)">
   <path d="m95.742-41.984c1.3672 0 2.3906 0.42578 3.0742 1.2812 0.68359 0.85156 1.0234 1.875 1.0234 3.0703 0 3.4141-1.1953 5.5469-3.582 6.4023-2.7344 2.0469-5.293 4.6055-7.6836 7.6797-2.3867 3.0703-4.5195 6.1445-6.3984 9.2148-3.2422 4.7773-6.6133 8.3633-10.113 10.75-3.4961 2.3906-8.1484 3.5859-13.949 3.5859-5.4609 0-11.438-1.0234-17.922-3.0703-1.3633-0.34375-3.7109-1.1953-7.0391-2.5625-3.3281-1.3633-7.7227-3.1562-13.184-5.375-10.582-4.6094-16.98-7.8516-19.199-9.7266-0.51172-0.51172-0.76953-0.94141-0.76953-1.2812 0-0.85547 0.85156-1.5352 2.5586-2.0469 11.949-2.9023 24.621-4.8242 38.016-5.7617 13.398-0.9375 26.414-2.4336 39.043-4.4805 4.7773-0.85156 8.957-2.9023 12.543-6.1445 1.0234-1.0234 2.2188-1.5352 3.582-1.5352z"/>
  </g>
  <g transform="translate(2130.1 347.78)">
   <path d="m20.223-3.3281c-3.4102 4.4375-6.8672 8.832-10.367 13.184-3.5 4.3516-7.0391 8.7461-10.625 13.184l-18.176-16.895 20.992-26.367z"/>
  </g>
  <g transform="translate(2051.2 316.3)">
   <path d="m12.031-2.3047c-4.6055-2.5586-7.4219-5.9727-8.4453-10.238-1.0273-4.2695-0.94141-8.875 0.25391-13.824 1.1953-4.9492 2.9023-9.6445 5.1211-14.082s4.3516-8.0195 6.3984-10.75c1.1953-1.8789 1.793-1.8789 1.793 0-1.0234 7.168 0.59766 12.203 4.8633 15.102 4.2656 2.9023 10.453 4.0547 18.559 3.457 8.1094-0.59766 17.539-2.7734 28.289-6.5273 10.754-3.7539 22.102-8.7891 34.047-15.105 2.7344-1.707 3.8008-3.1992 3.2031-4.4805-0.59765-1.2773-3.2031-2.5156-7.8086-3.7109-5.293-1.1953-11.949-1.9609-19.969-2.3047-7.8516-0.33984-13.398-0.85156-16.641-1.5352-1.3633-0.17187-1.4492-1.793-0.25391-4.8633 2.0469-4.9492 4.3086-9.7695 6.7812-14.465 2.4766-4.6914 4.8242-9.4297 7.043-14.207h0.25391c2.9023 0.68359 6.4844 1.3242 10.754 1.918 4.2656 0.59766 9.3008 1.1523 15.102 1.6641 5.8047 0.51562 10.797 1.2812 14.977 2.3047 4.1836 1.0234 7.3828 2.4766 9.6016 4.3516 2.7305 2.2188 3.2422 5.9766 1.5352 11.266-2.0469 6.3164-5.1211 12.887-9.2148 19.711-4.0977 6.8281-8.6211 13.059-13.57 18.688-5.9727 7-13.355 13.312-22.145 18.945-8.7891 5.6328-17.789 10.238-27.008 13.824-9.2148 3.582-17.75 5.8438-25.598 6.7852-7.8516 0.9375-13.824 0.29687-17.922-1.9219z"/>
  </g>
  <g transform="translate(2219.9 229.52)">
   <path d="m20.223-3.3281c-3.4102 4.4375-6.8672 8.832-10.367 13.184-3.5 4.3516-7.0391 8.7461-10.625 13.184l-18.176-16.895 20.992-26.367z"/>
  </g>
  <g transform="translate(2123.2 222.09)">
   <path d="m0.25781 0c0.51172-1.5352 3.0703-5.2891 7.6797-11.266 4.6055-6.1406 11.859-13.906 21.758-23.293 10.242-9.7305 22.102-17.324 35.586-22.785 0.16797 0 0.76562-0.17188 1.7891-0.51172h0.25781c9.8984-4.6094 18.688-5.375 26.367-2.3047l1.2812 1.5352c-1.8789 4.7812-3.7539 9.5586-5.6328 14.336-1.8789 4.7812-4.0117 9.3867-6.3984 13.824-0.68359 1.1953-1.707 1.793-3.0742 1.793-1.3633 0-2.7305-0.08594-4.0938-0.25781-5.9766-0.51172-11.266-0.16797-15.875 1.0273-11.262 3.7539-21.074 9.3008-29.438 16.637-2.0508 1.707-4.0117 3.543-5.8906 5.5039-1.875 1.9648-3.7539 3.8828-5.6289 5.7617z"/>
  </g>
  <g transform="translate(2262.4 126.08)">
   <path d="m14.848-38.91-5.375 11.52c-1.0234 2.2188-2.9023 3.8828-5.6328 4.9922-2.7305 1.1094-5.0352 3.0273-6.9102 5.7578 1.5352 1.707 3.625 2.8594 6.2695 3.457s4.9062 1.5781 6.7852 2.9453c3.582 2.2188 4.4375 5.6289 2.5586 10.238-1.875 4.6094-5.2031 8.6172-9.9844 12.031-3.9258 2.7305-8.1055 4.4805-12.543 5.25-4.4375 0.76562-8.9609 1.5781-13.566 2.4297 3.9258-1.875 7.9336-3.668 12.031-5.375 4.0938-1.707 8.0195-3.582 11.777-5.6328 0.33984-0.33984 0.85156-0.76562 1.5352-1.2773 0.68359-0.51562 0.59766-1.0273-0.25781-1.5391-1.3633-0.85156-2.9844-1.707-4.8633-2.5586s-3.5-1.6211-4.8633-2.3047c-3.2422-1.875-4.5664-4.5234-3.9688-7.9336 0.59766-3.4141 2.2188-7.0859 4.8633-11.012 2.6445-3.9219 5.4609-7.5078 8.4492-10.75 2.9844-3.2422 5.332-5.4609 7.0391-6.6562 1.0234-0.85156 2.0898-1.5352 3.1992-2.0469s2.2617-1.0234 3.457-1.5352z"/>
  </g>
  <g transform="translate(2231.4 328.58)">
   <path d="m18.688-145.66 18.945-30.207 7.168 108.8-18.945 30.207z"/>
  </g>
 </g>
</svg>
