<svg xmlns="http://www.w3.org/2000/svg" viewBox="0 0 2311 407.05"><g fill="#fff"><path d="M67.969 209.79q1.28 18.69-2.176 32.641-3.458 13.952-9.09 25.215a204 204 0 0 0-2.941 6.144c-.941 2.051-2.262 3.754-3.969 5.122-1.195.851-1.836.77-1.922-.258q-.129-1.536-.129-1.79 3.845-23.037 1.664-43.394-2.173-20.348-8.062-37.504-5.889-17.15-13.055-30.977c-.344-.68-1.023-1.832-2.05-3.453a46 46 0 0 1-2.688-4.864c-.766-1.62-1.067-2.691-.895-3.203a466 466 0 0 1 7.551-17.789 717 717 0 0 0 7.809-18.05 4194 4194 0 0 1 12.8 27.394q6.398 13.822 11.138 29.438 4.733 15.616 6.015 35.328m-39.426 97.023 22.785-23.551q1.026-1.535 3.07 0l18.691 17.922c1.024.68 1.024 1.707 0 3.07l-22.53 23.551q-1.278 1.542-3.329 0L28.8 309.887q-1.535-1.282-.258-3.074zM162.688 135.3c-1.54 5.46-3.117 10.926-4.738 16.387s-3.625 10.75-6.016 15.871q-.768 1.534-3.2 2.559c-1.62.683-2.519.171-2.687-1.536q-.514-8.45-6.402-13.566-5.889-5.121-14.59-5.378-12.802-.51-21.504 6.402 2.045 9.47 7.934 16c5.889 6.53 7.765 8.488 11.52 12.414q8.964 8.958 16.258 19.84 7.295 10.882 9.09 27.008c-.344 9.898-2.22 18.52-5.633 25.855a633 633 0 0 1-10.496 21.504q-.258.771-1.536.77-1.28.001-1.027-1.282 4.095-13.055 2.051-24.445-2.049-11.395-7.426-20.609-5.374-9.218-12.289-15.359a122.4 122.4 0 0 1-12.03-12.8c-3.755-4.61-6.825-9.813-9.216-15.618q-1.791-10.236.641-22.91c2.432-12.674 4.563-16.469 8.832-24.062q6.399-11.397 16.512-18.434 10.111-7.042 23.422-6.273 7.68.514 12.672 4.738c4.992 4.224 6.016 6.016 8.066 9.598q.511.514.641 1.41c.082.598.469 1.238 1.152 1.918zm-54.785 171.52 22.785-23.551q1.02-1.535 3.07 0l18.688 17.922c1.024.68 1.024 1.707 0 3.07l-22.527 23.551q-1.283 1.542-3.328 0l-18.434-17.918q-1.536-1.282-.254-3.074m70.137-80.13q0-5.889 4.353-10.242 4.351-4.352 10.496-4.352 5.887 0 10.113 4.352 4.22 4.353 4.222 10.242-.002 5.887-4.222 10.238-4.226 4.353-10.113 4.352-6.145 0-10.496-4.352-4.353-4.351-4.352-10.238m0 90.367q0-5.889 4.353-10.242c2.902-2.898 6.398-4.352 10.496-4.352q5.887.002 10.113 4.352 4.22 4.353 4.222 10.242c.002 5.889-1.41 7.34-4.222 10.238q-4.226 4.353-10.113 4.352-6.145 0-10.496-4.352-4.353-4.348-4.352-10.238m70.66-47.102q-7.934.002-13.055-8.96-5.121-8.96-3.586-23.806 1.282-13.827 6.145-31.363 4.862-17.534 11.266-35.453l7.933-7.68q-.252 1.793-2.047 8.957-1.793 7.172-5.12 19.457-1.793 6.399-2.817 14.848-1.022 8.448-.766 16.13.253 7.68 2.43 12.542 2.18 4.866 6.914 4.739 4.733-.128 12.672-7.809 1.28-1.28 2.559-.512 1.281.766 1.28 2.305-.766 17.406-6.527 27.008-5.76 9.598-17.28 9.598zm-17.918 36.863 22.781-23.551q1.536-1.535 3.074 0l18.43 17.922q1.793 1.535.258 3.07l-22.785 23.551c-1.023 1.028-2.047 1.11-3.07.258l-18.688-18.176q-1.542-1.534 0-3.074m89.088 21.762q-7.934-.001-13.055-8.96t-3.586-23.81q1.282-13.822 6.145-31.359c4.863-17.537 6.996-23.508 11.266-35.457l7.933-7.68q-.252 1.795-2.047 8.961-1.793 7.172-5.12 19.457-1.793 6.399-2.817 14.848-1.022 8.448-.766 16.13.254 7.677 2.43 12.542 2.18 4.863 6.914 4.735c3.156-.082 7.379-2.688 12.672-7.805q1.28-1.284 2.559-.512 1.281.767 1.28 2.301-.766 17.41-6.527 27.008-5.76 9.602-17.28 9.602zM495.496 180.1q-1.027 14.08-3.969 26.496-2.945 12.416-10.883 19.84-3.327 2.818-9.215 5.25-5.888 2.43-11.262-.898a7.9 7.9 0 0 1-2.18-1.918 22 22 0 0 0-1.917-2.176 229 229 0 0 0-4.48 3.965c-1.794 1.625-2.434 2.859-1.919 3.714 5.461 9.387 9.426 19.496 11.902 30.336 2.477 10.836 3.028 21.633 1.664 32.383-1.367 10.754-5.12 20.906-11.266 30.465q-.252.767-1.535 1.282c-.851.34-1.281.425-1.281.253 1.195-12.117.516-23.125-2.047-33.023q-3.84-14.848-10.496-27.266c-6.656-12.418-8.875-16-13.312-23.168a220 220 0 0 0-11.008-16.895q-5.889-8.191-9.984-18.176a729 729 0 0 1 5.89-16 235 235 0 0 1 6.656-15.746c1.875 3.926 3.926 8.11 6.145 12.547s5.031 7.848 8.445 10.238q4.865 3.33 10.88 3.2a28.5 28.5 0 0 0 11.522-2.688q5.502-2.56 8.063-6.144 1.023-1.279 2.176-5.118c.769-2.562 1.492-4.351 2.175-5.378.34-.852.77-.852 1.282 0q.768 1.283.511 1.793c-.344 2.73.13 5.078 1.406 7.039q1.922 2.947 4.48 3.457 8.194 1.793 14.083-2.688c3.926-2.988 6.312-6.785 7.168-11.39.168-.513.64-1.497 1.406-2.946q1.153-2.175.899-.64zm73.464 2.3-7.68 28.672c-.168.852-.597 1.664-1.277 2.434-.684.765-1.367 1.066-2.05.894q-7.937-2.302-17.278-3.457-9.345-1.15-18.05 1.41 3.841 9.216 8.96 19.328a1463 1463 0 0 1 10.113 20.352q4.991 10.238 7.809 20.48c.851 6.657.68 12.926-.512 18.816a159 159 0 0 1-4.48 17.148 447 447 0 0 0-4.993 16.512q-.513 2.052-2.562 3.586 1.54-13.822-1.535-26.625c-2.047-8.531-4.778-16.512-8.192-23.934q-5.122-11.138-10.238-19.586c-2.73-4.61-4.781-10.195-6.144-16.766q-2.052-9.859-1.793-20.48c.172-7.086 1.195-13.78 3.07-20.098q2.818-9.47 8.32-15.742c3.672-4.183 8.406-6.613 14.211-7.297 6.14-.855 11.988-.812 17.535.13q8.32 1.407 16.254 3.452l.258.13c.172.085.254.3.254.64zm46.088 74.242q2.045 20.994-1.922 38.016-3.968 17.029-10.367 30.336c-.34.684-.855 1.54-1.535 2.563q-1.027 1.534-2.563 1.023 4.096-33.28-1.277-62.336c-3.586-19.371-8.875-36.566-15.875-51.586a585 585 0 0 1 6.273-17.79 541 541 0 0 1 7.04-18.05q6.656 16.387 11.906 34.176 5.246 17.795 7.808 38.53-.002.768.254 2.56.258 1.791.258 2.558m15.862 4.61 18.945-23.551q.767-.769 1.535-.77 1.025.001 1.793.77l21.246 17.918q1.282.768 1.281 1.793-.001.767-.77 1.535l-19.198 23.297q-1.025 1.025-1.282 1.024-1.02.001-1.789-.766l-21.25-17.922q-1.278-.768-1.28-2.047 0-.515.769-1.281m183.047 5.375q0-10.495-1.918-18.688a205 205 0 0 0-4.48-16.129l13.824-32q8.19 17.157 8.19 34.816 0 3.583-.257 7.426a51.5 51.5 0 0 1-1.023 7.422c-3.07 17.238-9.387 32.855-18.941 46.848q-14.081 19.968-35.586 28.16a129 129 0 0 1-10.75 2.945q-5.12 1.154-9.73 1.152-4.353 0-8.446-1.023a37.4 37.4 0 0 1-7.684-2.816c-5.289-2.56-9.511-6.915-12.672-13.055q-4.734-9.216-4.734-22.785c0-8.024 1.836-17.45 5.504-28.29q5.502-16.255 16.77-36.734a315 315 0 0 1 6.781-12.289q3.715-6.399 7.043-12.03l3.84 2.046 20.477 13.824a601 601 0 0 1-4.094 7.551 530 530 0 0 1-4.098 7.297l-8.191 14.594-18.941-12.8a595 595 0 0 1-7.043 15.616q-3.711 7.937-7.293 17.406-1.793 4.355-1.793 8.703 0 11.01 13.312 16.641 8.19 1.536 15.87 1.535 13.566 0 25.345-4.605 18.432-7.425 30.719-18.434z"/><path d="M867.456 227.732q1.791-3.587 4.098-9.09 2.301-5.504 5.629-12.672c4.27-9.386 8.62-14.078 13.059-14.078 2.902-1.027 8.445-1.367 16.64-1.027q12.03.258 9.985 9.984-1.793 9.474-3.457 14.594-1.666 5.12-4.227 8.961c-1.703 2.559-4.18 5.801-7.421 9.727q-7.424 8.96-23.297 16.895-14.079 7.17-29.055 11.008a1976 1976 0 0 1-32.13 7.937l5.633-33.023q23.55-2.818 44.543-9.214z"/><path d="m941.705 112.29 18.688-30.977 12.801 153.6-18.687 25.855-7.937-89.344q-15.357 5.12-26.238 9.727-10.882 4.61-17.023 8.191-12.546 7.425-26.88 30.211-1.024 1.791-3.074 1.79-1.79 0-.511-4.353 9.217-29.695 26.879-43.773c5.976-4.78 12.629-9.43 19.969-13.953q11.009-6.784 24.32-13.44z"/><path d="M1012.355 145.57q-1.792 1.024-2.559.512-.767-.514-.257-2.305l8.449-29.695a3891 3891 0 0 1 26.625-15.359q12.543-7.171 25.086-14.336a4088 4088 0 0 0 26.625-15.359q3.327-2.05 2.816 1.79l-8.449 29.952a1089 1089 0 0 1-26.496 15.23c-8.45 4.695-16.852 9.43-25.215 14.211a3916 3916 0 0 0-26.625 15.36zm-8.96 99.328q-7.935 5.631-19.454 9.856-11.52 4.223-25.09 5.757-1.536 0-2.305.258-2.046 0-2.047-1.535L970.37 228q12.547-1.28 23.68-3.965 11.138-2.69 21.121-7.297 1.028-20.738-16.129-30.207c-11.605-6.488-21.758-2.902-30.465 10.75l-.765-11.52c1.363-1.879 2.86-4.097 4.48-6.656q2.431-3.84 5.758-7.937 3.587-4.862 8.832-10.367c3.5-3.668 7.383-6.743 11.648-9.215 4.266-2.477 8.703-3.668 13.312-3.586q6.915.129 13.312 6.785 11.264 11.52 11.266 26.367-.002 14.082-6.144 27.648-11.52 25.09-26.883 36.098zm209.646 119.015-49.152 9.214 15.359-30.465 49.152-9.214zm-41.425-160.003q1.28.001 1.281.77 0 .51-.258 1.023c-2.73 5.633-6.058 12.03-9.984 19.199s-6.91 14.078-8.96 20.734a55 55 0 0 0-1.919 8.45 58 58 0 0 0-.64 8.448q0 11.262 5.761 18.047c5.761 6.785 9.043 7.809 15.613 9.856q9.855 3.072 21.891 3.074 5.116 0 10.11-.387a76 76 0 0 0 9.855-1.406q29.7-5.378 54.53-21.25-12.803-1.021-23.808-5.887c-7-3.07-11.52-8.02-13.57-14.848a14.5 14.5 0 0 1-.766-4.609q0-5.374 2.559-12.031c2.558-7.168 5.718-13.91 9.472-20.223q3.585 11.004 14.465 16.641 10.88 5.63 23.68 7.422 5.63.768 9.473 4.863 3.84 4.095 3.84 9.985-.002 6.912-6.145 16.129-5.89 9.216-15.617 18.305a175 175 0 0 1-20.992 16.766q-11.263 7.68-22.273 13.059-19.197 9.47-38.14 12.03a107 107 0 0 1-4.868.383q-2.302.13-4.605.13-6.656 0-12.93-1.407a45.7 45.7 0 0 1-11.902-4.48q-10.752-5.89-15.234-14.211c-2.985-5.547-4.477-12.754-4.477-21.63q0-5.888.894-11.52.896-5.636 2.688-11.776 4.865-17.152 14.336-33.793 4.605-8.191 8.45-14.59 3.838-6.403 7.167-10.754c.168-.34.512-.512 1.024-.512z"/><path d="m1330.835 82.05 18.945-30.207 5.375 82.176-18.945 29.953zm-25.086 126.46a700 700 0 0 0-27.008 5.762q-13.698 3.199-24.707 8.32-8.444 4.094-15.359 12.543l-5.375-4.352v-.257c2.39-5.118 4.652-9.942 6.785-14.461a54.4 54.4 0 0 1 8.063-12.418q10.242-13.055 24.578-16.641c4.777-1.196 9.64-2.387 14.59-3.582q7.425-1.794 15.359-3.586c4.437-1.196 9.343-2.387 14.723-3.582q8.063-1.793 13.184-3.586 9.983-12.03 22.527-25.086 12.544-13.058 24.062-23.81 5.632-5.377 17.922-7.679 12.03-2.304 18.43 5.375c5.293 6.316 6.144 13.055 2.562 20.223q-7.424 14.08-16.898 24.707-9.47 10.624-23.809 18.56-17.917 9.726-37.117 15.358a252 252 0 0 1-16.129 4.61 282 282 0 0 1-16.383 3.581zm85.504-58.367q-2.05-3.84-8.45-5.887-6.399-2.048-12.03 1.024-8.962 4.863-15.871 11.902a731 731 0 0 1-14.082 13.953 818 818 0 0 0 26.242-5.887q12.669-3.076 23.68-8.191c2.047-1.028 2.219-3.328.512-6.914z"/><path d="M1334.137 185.984q1.278-.001 1.277.766.002.511-.254 1.023c-3.242 6.656-5.761 12.547-7.55 17.664q-2.689 7.682-2.688 13.312 0 4.095 1.535 6.914 3.33 6.657 10.238 9.469c4.61 1.879 10.324 2.816 17.152 2.816q6.145 0 12.93-.894c4.52-.598 9.344-1.41 14.461-2.434a1054 1054 0 0 1 18.945-3.71q8.96-1.664 16.895-2.688 3.33-9.728 8.067-20.223 4.733-10.499 11.137-19.715 6.397-9.217 14.078-14.59 4.61-3.075 9.214-3.074c4.782 0 8.832 1.453 12.16 4.351q4.995 4.352 7.81 9.473 4.608 7.938 7.167 17.41 3.586 4.094 8.191 4.094 3.33-.001 6.657-1.79l-16.383 35.07q-18.944 5.889-36.223 9.985c-17.28 4.096-24.023 5.8-37.504 9.215q-1.026 2.561-2.176 7.039c-.77 2.988-2.176 4.91-4.227 5.762h-.511q-2.047 0-2.047-1.536 0-2.05.894-4.738c.598-1.789.985-3.285 1.152-4.48a669 669 0 0 1-17.664 3.714 1185 1185 0 0 1-21.245 3.97c-10.243 2.046-19.286 3.07-27.138 3.07q-11.52 0-19.969-3.329-8.447-3.326-10.238-11.266a89 89 0 0 0-.64-4.222 25.6 25.6 0 0 1-.383-4.48q0-7.424 2.813-16.384a128 128 0 0 1 4.867-13.566 104 104 0 0 1 6.656-13.059q3.839-6.655 6.781-11.137a609 609 0 0 0 4.738-7.293c.168-.344.512-.512 1.024-.512zm126.46 30.973c-1.367-2.898-2.816-5.504-4.355-7.805q-2.305-3.456-5.118-5.507-3.584-2.813-7.425-2.813-3.582 0-7.168 3.07-5.12 4.607-7.81 10.625a728 728 0 0 0-5.503 12.672l36.098-7.168q1.535-.515 1.535-1.793-.001-.766-.254-1.28zm200.226-8.695a761 761 0 0 1-10.367 13.184q-5.249 6.527-10.625 13.184l-18.176-16.895 20.992-26.367zm2.267 50.685q-1.535 8.448-4.734 17.793t-7.043 17.406q-3.838 8.068-7.934 12.93c-5.805 6.828-13.098 12.203-21.887 16.129-8.793 3.926-19.672 5.715-32.641 5.375q-12.034-.257-21.504-1.152c-6.316-.598-11.18-1.406-14.594-2.434q-5.12-1.534-4.223-4.223.896-2.689 9.473-6.656 8.573-3.967 26.75-9.597a509 509 0 0 0 30.336-10.496q14.72-5.635 27.008-13.824 11.521-7.681 17.664-21.25c.344-1.024.938-1.493 1.793-1.407q1.278.129 1.535 1.407zm64.289 67.586c-9.387 1.707-18.984 2.344-28.801 1.918a613 613 0 0 1-28.797-1.918q-1.282-.258-1.281-1.664c0-.941.34-1.578 1.023-1.922q19.968-11.262 42.496-19.71c22.528-8.449 29.867-11.435 44.543-17.41q5.89-2.303 10.754-5.888 4.865-3.586 8.703-7.933c.856-.856.98-2.348.383-4.48q-.892-3.2-2.176-4.993-6.14 1.278-13.184.64-7.037-.641-10.367-4.226-2.817-3.327-2.558-7.55a22 22 0 0 1 2.047-8.063 260 260 0 0 0 8.062-17.152q3.714-8.706 9.86-15.617 2.814-3.329 7.293-1.793 4.482 1.536 6.785 3.84 9.984 9.985 11.52 23.68 1.535 13.698-3.2 28.289c-3.156 9.726-7.937 18.945-14.335 27.648-6.403 8.703-13.824 16.129-22.273 22.273q-12.668 9.212-26.496 12.03z"/><path d="M1865.309 162.18q4.096 0 6.91 3.969 2.818 3.968 4.48 9.09c1.11 3.414 1.665 6.312 1.665 8.703q.002 4.607-2.305 9.214a287 287 0 0 1-5.629 11.648 687 687 0 0 1-6.656 12.672q18.944-3.327 31.742-11.52.258-2.046.258-4.222v-4.227c0-10.238-.856-19.84-2.563-28.797q-2.56-13.44-7.933-24.449-1.027-2.303-4.098-4.992t-6.91-2.688q-1.792-.001-4.867 1.282c-5.461 2.73-9.98 6.652-13.566 11.773a79 79 0 0 1-5.375 7.168c-1.88 2.218-3.754 4.437-5.633 6.656q-1.279 1.283-4.098 1.535-2.304 0-2.047-1.535 2.819-8.19 7.938-14.848a2788 2788 0 0 0 9.984-13.055q3.84-4.864 8.957-10.496a84.5 84.5 0 0 1 11.137-10.242q6.02-4.606 12.16-6.656 2.818-1.022 6.145-1.024 5.631 0 9.726 2.817c4.61 3.074 7.852 10.41 9.73 22.016a303 303 0 0 1 1.794 11.648q.77 5.758 1.789 11.137c.344 2.219.64 4.351.898 6.398q.382 3.076.383 6.402 0 2.048-.129 4.223c-.086 1.45-.21 2.86-.383 4.223q-1.535 14.339-13.055 32-8.45 12.801-18.816 22.53-10.37 9.728-24.195 15.103c-9.214 3.586-20.309 5.375-33.277 5.375h-4.097q-1.025 0-1.535.258-11.52 3.072-23.168 5.504c-11.648 2.432-15.488 3.457-23.168 5.504l5.886-33.281 37.891-6.145q12.544-30.973 30.72-51.711 7.68-8.96 13.311-8.96zm-29.953 51.457q0 1.794 1.793 3.71 1.792 1.923 2.816 1.923h.254q10.753-3.071 17.41-8.961l-.511-.766q-3.586-10.242-8.707-10.242-1.021 0-1.79.258-6.401 2.304-10.754 11.773-.51 1.536-.511 2.305m225.086 72.959q2.05 0 3.074 1.281 1.025 1.278 1.024 3.07-.001 5.12-3.582 6.403c-2.735 2.047-5.293 4.605-7.684 7.68a101 101 0 0 0-6.398 9.214q-4.864 7.169-10.113 10.75c-3.496 2.39-8.149 3.586-13.95 3.586-5.46 0-11.437-1.023-17.921-3.07-1.364-.344-3.711-1.195-7.04-2.563a5068 5068 0 0 0-13.183-5.375q-15.872-6.913-19.2-9.726c-.511-.512-.769-.942-.769-1.281q0-1.282 2.559-2.047 17.923-4.355 38.016-5.762c13.398-.937 26.414-2.434 39.043-4.48 4.777-.852 8.957-2.903 12.543-6.145q1.535-1.535 3.582-1.535zm89.881 57.856a761 761 0 0 1-10.367 13.184q-5.249 6.527-10.625 13.184l-18.176-16.895 20.992-26.367z"/><path d="M2063.231 313.995q-6.91-3.838-8.445-10.238c-1.028-4.27-.942-8.875.254-13.824q1.793-7.424 5.12-14.082c3.328-6.658 4.352-8.02 6.4-10.75q1.791-2.819 1.792 0-1.534 10.753 4.863 15.102 6.4 4.354 18.56 3.457 12.163-.896 28.288-6.527 16.13-5.632 34.047-15.105 4.101-2.56 3.204-4.48-.899-1.918-7.81-3.711c-5.292-1.196-11.948-1.961-19.968-2.305q-11.777-.51-16.641-1.535-2.046-.258-.254-4.864 3.072-7.423 6.781-14.465a312 312 0 0 0 7.043-14.207h.254q4.352 1.027 10.754 1.918 6.399.897 15.102 1.664 8.707.772 14.977 2.305 6.275 1.538 9.602 4.352 4.095 3.33 1.535 11.266-3.072 9.475-9.215 19.71-6.147 10.245-13.57 18.689c-5.973 7-13.355 13.312-22.145 18.945s-17.789 10.238-27.008 13.824q-13.824 5.373-25.598 6.785-11.776 1.406-17.922-1.922zm176.892-87.803a761 761 0 0 1-10.367 13.184q-5.249 6.527-10.625 13.184l-18.176-16.895 20.992-26.367z"/><path d="M2123.458 222.09q.767-2.302 7.68-11.266 6.909-9.211 21.758-23.293 15.361-14.594 35.586-22.785.252-.001 1.789-.512h.257c9.899-4.61 18.688-5.375 26.367-2.304l1.282 1.535c-1.88 4.781-3.754 9.558-5.633 14.336a128 128 0 0 1-6.399 13.824q-1.024 1.793-3.074 1.793a33 33 0 0 1-4.094-.258q-8.963-.767-15.875 1.027-16.893 5.632-29.438 16.637a72 72 0 0 0-5.89 5.504 360 360 0 0 1-5.63 5.762zm153.79-134.92-5.375 11.52q-1.535 3.328-5.633 4.992c-4.098 1.664-5.035 3.027-6.91 5.758q2.303 2.561 6.27 3.457c3.967.896 4.906 1.578 6.785 2.945q5.375 3.328 2.558 10.238c-1.875 4.61-5.203 8.617-9.984 12.031q-5.888 4.095-12.543 5.25-6.658 1.15-13.566 2.43a259 259 0 0 1 12.03-5.375 125 125 0 0 0 11.778-5.633q.51-.51 1.535-1.277 1.026-.772-.258-1.54c-1.363-.85-2.984-1.706-4.863-2.558s-3.5-1.62-4.863-2.304c-3.243-1.876-4.567-4.524-3.97-7.934q.898-5.122 4.864-11.012 3.967-5.885 8.45-10.75 4.477-4.863 7.038-6.656 1.535-1.279 3.2-2.047a106 106 0 0 1 3.457-1.535m-27.16 95.75 18.945-30.207 7.168 108.8-18.945 30.207z"/></g></svg>