<svg xmlns="http://www.w3.org/2000/svg" xmlns:xlink="http://www.w3.org/1999/xlink" width="2758" height="424.531" viewBox="0 0 2758 424.531"><defs><path id="a" d="M38.57-187.734 36.18-42.668H23.895l-2.391-145.066ZM30.04 0q-5.466.001-9.22-3.754t-3.754-9.215q-.001-5.123 3.754-8.875 3.754-3.757 9.22-3.758c3.41 0 6.37 1.254 8.87 3.758q3.757 3.752 3.758 8.875-.001 5.46-3.758 9.215C36.41-1.25 33.45 0 30.04 0m0 0"/><path id="b" d="m70.656-42.668-2.39-52.223 11.605 8.536q-17.747 3.07-31.914-2.735c-9.441-3.867-16.953-9.953-22.527-18.258q-8.363-12.46-8.364-29.187 0-15.7 6.997-27.133c4.667-7.625 10.808-13.539 18.433-17.75q11.431-6.316 25.09-6.316 9.899 0 20.477 3.586 10.582 3.58 20.14 11.433l-.34 2.73q-6.83 2.39-10.414 6.485-3.58 4.096-6.656 12.29h-2.047q-.339-9.217-6.996-14.337-6.655-5.121-15.531-5.121-7.512.001-14.848 3.758c-4.894 2.5-8.988 6.258-12.289 11.262q-4.95 7.51-4.95 19.113.001 9.56 4.438 17.41t12.29 12.29q7.85 4.435 17.406 4.437 8.876-.001 17.066-3.758l-2.387 63.488ZM76.801 0c-3.64 0-6.715-1.25-9.215-3.754q-3.757-3.755-3.758-9.215.001-5.123 3.758-8.875 3.752-3.757 9.215-3.758 5.12.001 8.875 3.758 3.755 3.752 3.754 8.875.001 5.46-3.754 9.215T76.8 0m0 0"/><path id="c" d="M30.04 0q-5.466.001-9.22-3.754t-3.754-9.215q-.001-5.123 3.754-8.875 3.754-3.757 9.22-3.758c3.41 0 6.37 1.254 8.87 3.758q3.757 3.752 3.758 8.875-.001 5.46-3.758 9.215C36.41-1.25 33.45 0 30.04 0m0-59.734q-5.466.001-9.22-3.754t-3.754-9.215q-.001-5.12 3.754-8.875t9.22-3.754c3.41 0 6.37 1.25 8.87 3.754q3.757 3.754 3.758 8.875-.001 5.459-3.758 9.215c-2.5 2.504-5.46 3.754-8.87 3.754m0 0"/><path id="d" d="M30.04 42.668q-5.466-.001-9.22-3.758-3.755-3.752-3.754-9.215-.001-5.12 3.754-8.875t9.22-3.754c3.41 0 6.37 1.25 8.87 3.754q3.757 3.755 3.758 8.875c0 3.64-1.254 6.715-3.758 9.215-2.5 2.504-5.46 3.758-8.87 3.758M30.04 0q-5.466.001-9.22-3.754t-3.754-9.215q-.681-9.56 5.973-20.14 6.658-10.583 16.215-18.09l3.754 4.437q-9.217 8.533-12.457 18.09-3.245 9.555-2.903 16.727l-8.535-8.192q5.121-5.804 10.582-5.633c3.64.114 6.715 1.422 9.215 3.926q3.757 3.752 3.758 8.875-.001 5.46-3.758 9.215C36.41-1.25 33.45 0 30.04 0m0 0"/><path id="e" d="M30.04 0q-5.466.001-9.22-3.754t-3.754-9.215q-.681-9.56 5.973-20.14 6.658-10.583 16.215-18.09l3.754 4.437q-9.217 8.533-12.457 18.09-3.245 9.555-2.903 16.727l-8.535-8.192q5.121-5.804 10.582-5.633c3.64.114 6.715 1.422 9.215 3.926q3.757 3.752 3.758 8.875-.001 5.46-3.758 9.215C36.41-1.25 33.45 0 30.04 0m0 0"/><path id="g" d="M51.543-109.227c-6.602 0-12.402-2.105-17.41-6.316-5.004-4.207-8.875-9.5-11.606-15.871l15.02-7.168c1.594 3.64 3.582 6.602 5.973 8.875q3.586 3.415 9.386 3.414 5.801 0 10.582-7.168 4.777-7.166 4.778-18.434h17.066c0 7.739 1.48 13.938 4.438 18.606q4.44 6.996 10.921 6.996 6.486 0 10.926-7.168 4.437-7.166 4.438-18.434h17.066q0 11.267-3.926 20.993c-2.617 6.488-6.316 11.718-11.093 15.703-4.778 3.98-10.47 5.972-17.067 5.972q-7.511 0-13.652-3.585-6.147-3.58-10.582-10.067c-2.961 4.324-6.656 7.68-11.094 10.067q-6.657 3.585-14.164 3.585M51.543 0Q46.762-36.524 38.23-73.727a672 672 0 0 0-21.164-73.046l15.36-6.829a670 670 0 0 1 22.187 74.754Q63.49-40.96 68.266-3.414Zm0 0"/><path id="h" d="M85.332-151.895h17.066q0 14.68-5.8 25.942c-3.868 7.512-9.047 13.312-15.532 17.41q-9.727 6.143-21.675 6.145-9.558 0-18.09-4.438-8.534-4.438-14.336-11.95l13.652-10.237c1.367 2.957 3.64 5.289 6.828 6.996q4.782 2.561 10.582 2.562c4.094 0 8.25-1.082 12.457-3.246q6.317-3.24 10.582-10.41 4.266-7.165 4.266-18.774M51.543 0Q46.762-36.524 38.23-73.727a672 672 0 0 0-21.164-73.046l15.36-6.829a670 670 0 0 1 22.187 74.754Q63.49-40.96 68.266-3.414Zm0 0"/><path id="i" d="M51.543 0Q46.762-36.524 38.23-73.727a672 672 0 0 0-21.164-73.046l15.36-6.829a670 670 0 0 1 22.187 74.754Q63.49-40.96 68.266-3.414Zm0 0"/><path id="j" d="M58.027-55.98 34.133-80.215l23.894-24.234 23.895 24.234Zm0 0"/><path id="k" d="M12.969 0q-5.46.001-9.215-3.754T0-12.969q-.001-5.123 3.754-8.875 3.755-3.757 9.215-3.758 5.123.001 8.875 3.758 3.757 3.752 3.758 8.875-.001 5.46-3.758 9.215Q18.092.001 12.969 0m0 0"/><path id="l" d="M184.32 0v-17.066h20.48V0Zm-74.41 68.266q-13.652 0-23.555-4.95c-6.597-3.296-12.285-7.68-17.066-13.14q-7.167-8.19-12.629-18.262a503 503 0 0 1-10.582-20.648L53.246 0c4.324 9.559 9.106 18.203 14.34 25.941 5.23 7.739 11.32 13.88 18.258 18.434q10.413 6.824 24.066 6.824c8.875 0 18.031-2.558 27.477-7.68 9.445-5.12 18.316-12.003 26.625-20.648Q176.468 9.9 183.98-6.484l.34 24.574-14.675-33.793q-1.367-3.41-5.633-8.871c-2.844-3.645-6.371-6.942-10.582-9.903q-6.315-4.437-13.825-5.117l-.683-2.73q11.606-4.78 17.066-10.07c3.64-3.528 6.489-8.477 8.535-14.848l2.387-1.024 25.262 62.121a37 37 0 0 1 1.707 4.95 20.6 20.6 0 0 1 .68 5.293q0 6.141-4.094 12.968-9.557 14.337-22.7 25.942-13.141 11.608-27.988 18.433-14.848 6.826-29.867 6.825M17.066 34.133q-1.364-12.288-4.949-19.113Q8.531 8.193 0 2.73V0h53.246v13.652c-3.184 0-7.05.743-11.601 2.22-4.555 1.48-8.875 3.698-12.973 6.655q-6.146 4.437-8.875 11.606Zm0 0"/><path id="m" d="M70.656 0v-17.066h20.48V0ZM45.738 21.504q-8.191 0-15.02-4.098-6.825-4.094-10.921-10.75Q15.703.001 15.703-8.535q-.001-8.19 4.094-15.016t10.922-10.754q6.826-3.925 15.02-3.925 8.191 0 15.019 3.925 6.825 3.926 10.75 10.754 3.926 6.826 3.926 15.016 0 8.536-3.926 15.191-3.925 6.656-10.75 10.75-6.828 4.096-15.02 4.098M-3.414 0v-17.066h27.309V0Zm49.152 4.438q5.12.001 8.875-3.754t3.754-9.22c0-3.41-1.25-6.37-3.754-8.87q-3.754-3.757-8.875-3.758-5.459.001-9.215 3.758c-2.503 2.5-3.753 5.46-3.753 8.87q0 5.466 3.753 9.22 3.755 3.755 9.215 3.754m0 0"/><path id="n" d="M13.652 0v-17.066h20.48V0ZM0 0v-136.535q-.001-3.751-1.367-10.238-1.363-6.487-5.117-12.457-3.757-5.977-10.582-8.708v-2.73q12.287-1.364 19.113-4.95 6.826-3.58 12.289-12.116h2.73V0Zm-3.414 0v-17.066h20.48V0Zm0 0"/><path id="o" d="M17.066-34.133 92.5-134.145l15.703 6.829-70.316 93.183ZM-3.414 0v-17.066h166.23V0ZM35.84-34.133v-17.066h120.832v17.066ZM155.648 0l-6.828-51.2h17.41L173.055 0ZM93.184-117.418l-11.606-8.875q-3.071-2.39-9.043-5.121-5.976-2.73-12.972-3.414-6.998-.681-13.485 3.414l-2.047-1.707q6.146-10.58 7.34-18.262 1.194-7.676-2.219-17.234l1.707-2.051 57.344 43.352Zm0 0"/><path id="p" d="M47.105 0q-5.461.001-9.218-3.754c-2.5-2.504-3.754-5.574-3.754-9.215 0-3.414 1.254-6.375 3.754-8.875q3.757-3.757 9.218-3.758c3.41 0 6.372 1.254 8.875 3.758q3.752 3.752 3.754 8.875-.002 5.46-3.754 9.215C53.477-1.25 50.516 0 47.105 0M12.97 0Q7.51.001 3.755-3.754T0-12.969q-.001-5.123 3.754-8.875 3.755-3.757 9.215-3.758 5.123.001 8.875 3.758 3.757 3.752 3.758 8.875-.001 5.46-3.758 9.215Q18.092.001 12.969 0m0 0"/><path id="q" d="M211.625 0v-17.066h20.48V0Zm-97.96 68.266q-15.361 0-26.114-4.95c-7.168-3.296-13.254-7.68-18.262-13.14q-7.507-8.19-12.969-18.262a503 503 0 0 1-10.582-20.648L52.906 0c4.324 9.559 9.16 18.203 14.508 25.941 5.348 7.739 11.773 13.88 19.285 18.434q11.262 6.824 26.965 6.824 14.676.002 27.649-7.68 12.973-7.68 21.843-20.648Q172.032 9.9 174.422-6.484l.34 26.964-29.012-72.023 16.727-4.437 20.136 49.835a36.4 36.4 0 0 1 1.707 4.95c.453 1.707.684 3.472.684 5.293q0 9.897-5.461 21.16c-3.64 7.512-8.707 14.508-15.191 20.992q-9.727 9.728-22.7 15.871-12.968 6.146-27.988 6.145M17.065 34.133q-1.364-12.288-4.949-19.113Q8.531 8.193 0 2.73V0h53.246v13.652c-3.184 0-7.05.743-11.601 2.22-4.555 1.48-8.875 3.698-12.973 6.655q-6.146 4.437-8.875 11.606ZM156.672-38.57 145.75-51.543l41.64-34.812 3.075 19.453ZM203.434 0l-27.305-67.926 11.262-18.43L221.867 0Zm0 0"/><path id="r" d="M167.254 0v-17.066h20.48V0ZM0 0l108.887-144.383h20.82L21.164 0Zm17.75 0v-17.066h138.922L173.055 0Zm155.305 0-19.797-17.066-2.387-17.067 15.36-17.066ZM42.668-34.133v-17.066H166.23l-9.558 17.066Zm70.996-101.035-10.582-8.191q-3.071-2.391-9.043-5.121-5.976-2.73-12.973-3.415c-4.664-.453-9.16.684-13.48 3.415l-2.05-1.708q6.144-10.58 7.339-18.261 1.194-7.676-2.219-17.235l1.707-2.05 57.344 43.351ZM-3.414 0v-17.066h20.48V0Zm0 0"/><path id="s" d="M79.531 36.18c-2.73-4.551-6.203-10.524-10.41-17.918Q62.805 7.168 54.613-5.461a247 247 0 0 0-17.75-24.062Q27.306-40.96 17.238-48.13 7.166-55.296-2.73-55.297l-2.047-2.047C-.91-63.03 1.593-68.496 2.73-73.727q1.705-7.852.34-15.02l2.051-2.046q16.384 12.628 30.207 28.672c9.215 10.695 17.524 21.672 24.918 32.937 7.395 11.262 13.938 21.79 19.625 31.575q8.537 14.677 13.996 24.574ZM-3.414 0v-17.066h71.68V0Zm0 0"/><path id="t" d="M-34.133 42.668v-2.73q8.532-5.807 12.117-12.461 3.586-6.655 4.95-18.942h2.73q2.729 6.826 8.875 10.578Q.681 22.87 7.168 24.234q6.487 1.367 9.898 1.368c10.012 0 18.262-3.247 24.747-9.73q9.728-9.728 9.73-24.407.001-12.286-5.465-20.137-5.46-7.852-13.48-12.457-8.021-4.611-15.532-6.316v-2.73q11.949-3.074 18.09-7.34 6.147-4.266 10.582-13.481l3.075-.344q3.75 7.51 8.19 17.067 4.438 9.557 7.849 20.992 3.415 11.439 3.414 24.746.001 14.678-6.485 26.285-6.487 11.603-18.09 18.262-11.607 6.656-26.625 6.656Zm0 0"/><path id="u" d="M-18.09 51.2v-2.731q8.532-5.801 12.117-12.457c2.387-4.438 4.04-10.754 4.95-18.946h2.73q2.729 6.827 8.875 10.582 6.142 3.756 12.629 5.122 6.484 1.364 9.898 1.363 15.019-.002 24.407-8.703Q66.902 16.722 66.902 0q.001-10.24-3.074-17.922-3.07-7.677-7.508-11.945-4.437-4.266-8.875-4.266-5.12.001-8.875 4.778c-2.504 3.187-3.98 7.28-4.437 12.289h36.523V0H25.258q-8.871.001-8.192-8.875.34-10.923 3.926-20.48 3.585-9.559 10.41-15.7 6.827-6.145 16.043-6.144c6.828 0 12.97 2.273 18.434 6.824 5.46 4.555 9.84 10.695 13.14 18.434C82.317-18.203 83.97-9.56 83.97 0q-.001 16.383-6.828 27.82-6.826 11.434-18.262 17.407-11.431 5.971-25.77 5.972ZM78.164 0v-17.066h20.48V0Zm0 0"/><path id="v" d="M17.066-3.754v-13.312q.001-16.728 8.024-30.207 8.02-13.484 21.672-21.504c9.101-5.348 19.117-8.024 30.039-8.024q16.724.001 30.207 8.024 13.482 8.02 21.504 21.504c5.347 8.988 8.023 19.054 8.023 30.207v13.312h-17.07v-13.312q0-11.947-5.8-21.504-5.803-9.557-15.36-15.36-9.557-5.804-21.504-5.804c-7.739 0-14.848 1.933-21.336 5.804q-9.727 5.802-15.528 15.36-5.804 9.556-5.804 21.504v13.312ZM-3.414 0v-17.066h139.95V0Zm72.023-8.191c-4.55-17.524-11.437-32.996-20.652-46.422q-13.823-20.138-36.012-35.84l10.243-13.652Q46.42-86.696 61.953-64.172q15.527 22.529 23.04 51.883Zm-35.5-64.512c-5.687-5.692-11.433-9.785-17.238-12.29-5.8-2.503-10.98-3.187-15.531-2.046l-1.363-3.414c6.824-2.504 12.628-6.086 17.406-10.754q7.171-6.996 10.582-17.578l3.754 1.367c-1.137 4.324-.453 9.441 2.05 15.36q3.752 8.875 12.286 17.406Zm0 0"/><path id="w" d="M184.32 0v-17.066h20.48V0Zm-47.785 0v-17.066h36.863L190.121 0ZM37.547-34.133l8.531-73.047 3.074.344c3.184 6.145 6.828 10.637 10.922 13.48 4.098 2.844 10.012 5.293 17.75 7.34v2.73q-7.51 1.706-11.945 7.34c-2.961 3.755-5.121 7.68-6.488 11.774q-2.046 6.148-2.73 9.899l-1.708 17.41Zm0 0 10.238-17.066h135.512l-9.899 17.066ZM190.12 0l-19.797-17.066-2.387-17.067 15.36-17.066ZM0 0v-2.73c5.688-3.868 9.727-8.024 12.117-12.457q3.585-6.657 4.95-18.946h2.73q2.729 6.826 8.875 10.582 6.147 3.751 12.457 5.117 6.315 1.367 10.07 1.368h102.403L170.668 0Zm0 0"/><path id="x" d="M12.969 0q-5.46.001-9.215-3.754T0-12.969q-.001-5.123 3.754-8.875 3.755-3.757 9.215-3.758 5.123.001 8.875 3.758 3.757 3.752 3.758 8.875-.001 5.46-3.758 9.215Q18.092.001 12.969 0m0 0"/><path id="y" d="M79.531 36.18c-2.73-4.551-6.203-10.524-10.41-17.918Q62.805 7.168 54.613-5.461a247 247 0 0 0-17.75-24.062Q27.306-40.96 17.238-48.13 7.166-55.296-2.73-55.297l-2.047-2.047C-.91-63.03 1.593-68.496 2.73-73.727q1.705-7.852.34-15.02l2.051-2.046q16.384 12.628 30.207 28.672c9.215 10.695 17.524 21.672 24.918 32.937 7.395 11.262 13.938 21.79 19.625 31.575q8.537 14.677 13.996 24.574ZM-3.414 0v-17.066h71.68V0Zm69.973 0v-17.066h27.308V0Zm0 0"/><path id="z" d="M-3.414 0v-17.066H6.828V0Zm0 0"/><path id="A" d="m23.55 0-2.386-17.066q-.343-3.757-2.562-9.899-2.215-6.144-6.657-11.433-4.434-5.291-11.945-7l-.34-3.07c7.965-2.048 13.992-4.61 18.09-7.68 4.094-3.075 7.621-7.567 10.582-13.485l2.73-.34L40.618 0ZM-3.413 0v-17.066H38.23V0Zm0 0"/><path id="B" d="M11.094 0v-8.535h9.898q-3.926-5.46-3.926-12.797.002-6.485 2.903-11.266c1.933-3.183 4.523-5.66 7.765-7.422q4.865-2.648 10.496-2.648c3.415 0 6.91.77 10.497 2.305q5.375 2.303 9.812 7.254l-.34 1.023q-2.736.684-5.804 2.902-3.072 2.218-3.583 4.778h-1.027c-.226-3.297-1.277-5.746-3.156-7.336q-2.814-2.39-6.23-2.39-5.29 0-9.044 3.753-3.754 3.756-3.753 9.047 0 5.289 3.753 9.043 3.754 3.755 9.043 3.754 3.245 0 6.403-1.703 3.157-1.71 4.863-5.121h1.023c.458 2.73 1.024 4.89 1.708 6.484q1.023 2.39 2.816 4.012t4.523 3.496V0ZM0 0v-1.367q2.9-1.874 4.61-3.496 1.704-1.622 2.73-4.012 1.02-2.39 1.707-6.484h1.023q1.874 3.41 4.95 5.12 3.07 1.705 6.312 1.704V0Zm0 0"/><path id="C" d="M0 0v-136.535q-.001-3.751-1.367-10.238-1.363-6.487-5.117-12.457-3.757-5.977-10.582-8.708v-2.73q12.287-1.364 19.113-4.95 6.826-3.58 12.289-12.116h2.73v170.668c7.508 0 12.29-3.414 14.336-10.243h2.73q1.365 12.292 5.806 17.41c2.957 3.415 6.71 5.801 11.261 7.169V0Zm0 0"/></defs><use xlink:href="#a" x="16" y="289.063"/><use xlink:href="#b" x="75.734" y="289.063"/><use xlink:href="#c" x="201" y="289.063"/><use xlink:href="#d" x="260.734" y="289.063"/><use xlink:href="#e" x="320.469" y="289.063"/><use xlink:href="#f" x="380.203" y="289.063"/><use xlink:href="#g" x="397.266" y="289.063"/><use xlink:href="#h" x="547.453" y="289.063"/><use xlink:href="#i" x="666.922" y="289.063"/><use xlink:href="#j" x="752.25" y="289.063"/><use xlink:href="#f" x="858.063" y="289.063"/><use xlink:href="#k" x="1002.094" y="203.734"/><use xlink:href="#l" x="875.125" y="289.063"/><use xlink:href="#m" x="1079.922" y="289.063"/><use xlink:href="#n" x="1171.063" y="289.063"/><use xlink:href="#o" x="1205.203" y="289.063"/><use xlink:href="#f" x="1392.938" y="289.063"/><use xlink:href="#p" x="1493.625" y="400"/><use xlink:href="#q" x="1410" y="289.063"/><use xlink:href="#r" x="1642.109" y="289.063"/><use xlink:href="#s" x="1829.844" y="289.063"/><use xlink:href="#f" x="1923.703" y="289.063"/><use xlink:href="#f" x="1940.766" y="289.063"/><use xlink:href="#k" x="1974.891" y="194.859"/><use xlink:href="#t" x="1957.828" y="289.063"/><use xlink:href="#u" x="2043.156" y="289.063"/><use xlink:href="#v" x="2141.797" y="289.063"/><use xlink:href="#f" x="2295.391" y="289.063"/><use xlink:href="#w" x="2312.453" y="289.063"/><use xlink:href="#x" x="2538.406" y="331.734"/><use xlink:href="#y" x="2517.25" y="289.063"/><use xlink:href="#x" x="2622.031" y="331.734"/><use xlink:href="#z" x="2611.109" y="289.063"/><use xlink:href="#A" x="2617.938" y="289.063"/><use xlink:href="#B" x="2651.734" y="84.266"/><use xlink:href="#C" x="2673.234" y="289.063"/></svg>