<svg xmlns="http://www.w3.org/2000/svg" viewBox="0 0 320 320.39"><path d="M-5-4.805h330v330H-5z"/><path fill="#fff" d="M156.9 292.79q-19.491-.32-37.384-6.07-17.574-5.752-31.632-17.575-13.739-11.822-22.047-30.354-7.988-18.852-8.307-45.052 0-13.42-.32-29.396-.32-16.295-.64-32.91-.638-16.615-1.277-31.313-.959-15.017-1.917-25.242-.959-7.349-1.598-11.822t1.598-6.07q3.514-2.237 8.307-6.391 5.113-4.473 9.586-9.586 4.473-5.112 6.39-9.266 1.598-3.514 3.834-3.514 2.557 0 3.515 6.39 1.598 11.503 1.917 27.479.32 15.976.32 34.189v36.745q0 18.213.958 34.189.959 17.574 6.71 31.952t15.656 25.242q10.225 10.544 23.325 17.574 16.615 8.627 37.384 11.183t44.094-1.598 47.29-14.698q2.875-1.597 4.153-.639 1.598.959.32 3.834-11.822 26.201-40.898 39.62-28.757 13.42-69.336 13.1z"/><path fill="#e22e00" d="M124.14 78.343a19.57 19.57 0 0 1-19.558 19.572 19.57 19.57 0 0 1-19.586-19.543 19.57 19.57 0 0 1 19.529-19.601 19.57 19.57 0 0 1 19.615 19.515"/></svg>