<?xml version="1.0" encoding="UTF-8"?>
<svg version="1.1" viewBox="0 0 2857 364.8" xmlns="http://www.w3.org/2000/svg">
 <rect x="-14.734" y="-28.396" width="2907.7" height="429.59"/>
 <g fill="#fff">
  <g transform="translate(16 259.2)">
   <path d="m29.695-50.688-2.8164-96.77-0.51172-24.062h21.25l-0.51172 24.062-2.8164 96.77zm7.4258 53.758c-4.2695 0-7.8945-1.4922-10.883-4.4766-2.9844-2.9883-4.4766-6.7852-4.4766-11.395 0-4.9492 1.4922-8.918 4.4766-11.902 2.9883-2.9883 6.6133-4.4805 10.883-4.4805 4.0938 0 7.6367 1.4922 10.621 4.4805 2.9883 2.9844 4.4805 6.9531 4.4805 11.902 0 4.6094-1.4922 8.4062-4.4805 11.395-2.9844 2.9844-6.5273 4.4766-10.621 4.4766z"/>
  </g>
  <g transform="translate(89.984 259.2)">
   <path d="m49.406-50.688c0.85547-7.168 0.12891-13.57-2.1758-19.199-2.3008-5.6328-5.332-10.926-9.0859-15.875-3.7539-4.9492-7.6367-9.8125-11.648-14.59-4.0117-4.7774-7.3828-9.8555-10.113-15.234-2.7305-5.375-4.0938-11.391-4.0938-18.047 0-8.5312 1.75-15.828 5.2461-21.887 3.5-6.0586 8.4922-10.754 14.977-14.082 6.4844-3.3281 13.996-4.9922 22.527-4.9922 9.3867 0 17.75 2.0078 25.09 6.0195 7.3359 4.0078 13.652 9.0859 18.941 15.23l-12.031 11.008c-3.9258-4.6094-8.4062-8.2344-13.438-10.879-5.0352-2.6484-10.371-3.9688-16-3.9688-5.4648 0-10.027 1.1094-13.699 3.3281-3.668 2.2188-6.4414 5.2031-8.3164 8.9609-1.8789 3.7539-2.8164 7.9336-2.8164 12.543 0 5.4609 1.3633 10.496 4.0938 15.105 2.7305 4.6055 6.0156 9.2148 9.8555 13.82 3.8398 4.6094 7.5977 9.4727 11.266 14.594 3.668 5.1211 6.5273 10.754 8.5742 16.895 2.0508 6.1445 2.4766 13.227 1.2812 21.25zm8.707 53.758c-4.2695 0-7.8945-1.4922-10.883-4.4766-2.9844-2.9883-4.4766-6.7852-4.4766-11.395 0-4.9492 1.4922-8.918 4.4766-11.902 2.9883-2.9883 6.6133-4.4805 10.883-4.4805 4.2656 0 7.8477 1.4922 10.75 4.4805 2.9023 2.9844 4.3516 6.9531 4.3516 11.902 0 4.6094-1.4492 8.4062-4.3516 11.395-2.9023 2.9844-6.4844 4.4766-10.75 4.4766z"/>
  </g>
  <g transform="translate(198.78 259.2)">
   <path d="m32-89.344c-4.2656 0-7.8945-1.4922-10.879-4.4805-2.9883-2.9883-4.4805-6.7852-4.4805-11.391 0-4.9492 1.4922-8.918 4.4805-11.906 2.9844-2.9844 6.6133-4.4805 10.879-4.4805 4.0977 0 7.6367 1.4961 10.625 4.4805 2.9844 2.9883 4.4805 6.957 4.4805 11.906 0 4.6055-1.4961 8.4023-4.4805 11.391-2.9883 2.9883-6.5273 4.4805-10.625 4.4805zm0 92.414c-4.2656 0-7.8945-1.4922-10.879-4.4766-2.9883-2.9883-4.4805-6.7852-4.4805-11.395 0-4.9492 1.4922-8.918 4.4805-11.902 2.9844-2.9883 6.6133-4.4805 10.879-4.4805 4.0977 0 7.6367 1.4922 10.625 4.4805 2.9844 2.9844 4.4805 6.9531 4.4805 11.902 0 4.6094-1.4961 8.4062-4.4805 11.395-2.9883 2.9844-6.5273 4.4766-10.625 4.4766z"/>
  </g>
  <g transform="translate(262.53 259.2)">
   <path d="m30.719-89.344c-5.4609 0-9.7695-2.2188-12.926-6.6562-3.1602-4.4375-4.7383-10.496-4.7383-18.176 0-11.094 2.9883-20.777 8.9609-29.055 5.9727-8.2773 14.164-14.551 24.578-18.816l5.1172 12.285c-7.3359 3.2461-13.055 7.5977-17.152 13.059-4.0938 5.4609-6.0586 11.691-5.8867 18.687l2.3047 18.945-10.496-15.363c1.3633-1.707 2.9844-2.8555 4.8633-3.4531s3.8398-0.89844 5.8867-0.89844c4.0977 0 7.6406 1.2383 10.625 3.7148 2.9883 2.4726 4.4805 6.1016 4.4805 10.879 0 4.6055-1.5352 8.2344-4.6094 10.879-3.0703 2.6445-6.7383 3.9688-11.008 3.9688zm1.0234 92.414c-4.0938 0-7.6367-1.5352-10.621-4.6055-2.9883-3.0742-4.4805-7-4.4805-11.777 0-4.6094 1.4922-8.4062 4.4805-11.391 2.9844-2.9883 6.5273-4.4805 10.621-4.4805 4.2695 0 7.8945 1.4922 10.883 4.4805 2.9844 2.9844 4.4805 6.7812 4.4805 11.391 0 4.7773-1.4961 8.7031-4.4805 11.777-2.9883 3.0703-6.6133 4.6055-10.883 4.6055z"/>
  </g>
  <g transform="translate(326.28 259.2)">
   <path d="m30.719 3.0703c-5.4609 0-9.7695-2.2188-12.926-6.6562-3.1602-4.4336-4.7383-10.492-4.7383-18.176 0-11.09 2.9883-20.777 8.9609-29.055s14.164-14.551 24.578-18.816l5.1172 12.289c-7.3359 3.2422-13.055 7.5938-17.152 13.055-4.0938 5.4609-6.0586 11.691-5.8867 18.688l2.3047 18.945-10.496-15.359c1.3633-1.707 2.9844-2.8594 4.8633-3.457s3.8398-0.89453 5.8867-0.89453c4.0977 0 7.6406 1.2383 10.625 3.7109 2.9883 2.4766 4.4805 6.1016 4.4805 10.879 0 4.6094-1.5352 8.2344-4.6094 10.883-3.0703 2.6445-6.7383 3.9648-11.008 3.9648z"/>
  </g>
  <g transform="translate(441.23 259.2)">
   <path d="m6.6562 0v-165.63h19.969v165.63zm18.176-98.816v-20.223h31.23c-0.33984 0.33984-0.72266 0.72265-1.1523 1.1523l-1.4062 1.4062v-49.152h20.223v43.52c0 4.4375-1.0664 8.4062-3.1992 11.906-2.1328 3.4961-4.9922 6.2695-8.5742 8.3203-3.5859 2.0469-7.5977 3.0703-12.031 3.0703zm47.617 0v-20.223h30.719c-0.33984 0.33984-0.72656 0.72265-1.1523 1.1523-0.42579 0.42578-0.89454 0.89453-1.4062 1.4062v-49.152h20.223v43.52c0 4.4375-1.0664 8.4062-3.1992 11.906-2.1328 3.4961-4.9922 6.2695-8.5781 8.3203-3.582 2.0469-7.5938 3.0703-12.031 3.0703z"/>
  </g>
  <g transform="translate(568.47 259.2)">
   <path d="m16.895 0v-141.57c0.17188-4.6094 1.3242-8.6641 3.457-12.16 2.1328-3.5 4.9922-6.2734 8.5781-8.3203 3.582-2.0508 7.4219-3.0742 11.52-3.0742h70.145v20.227h-76.289c0.51172-0.51172 0.98047-0.98438 1.4062-1.4102 0.42578-0.42578 0.8125-0.80859 1.1523-1.1523v147.46z"/>
  </g>
  <g transform="translate(695.7 259.2)">
   <path d="m53.504 0v-165.38h20.223v165.38z"/>
  </g>
  <g transform="translate(822.94 259.2)">
   <path d="m63.742-68.609c-4.2656 0-7.9336-1.5352-11.008-4.6055-3.0703-3.0742-4.6055-6.7422-4.6055-11.008 0-4.2695 1.5352-7.9375 4.6055-11.008 3.0742-3.0742 6.7422-4.6094 11.008-4.6094 4.2695 0 7.8945 1.5352 10.883 4.6094 2.9844 3.0703 4.4805 6.7383 4.4805 11.008 0 4.2656-1.4961 7.9336-4.4805 11.008-2.9883 3.0703-6.6133 4.6055-10.883 4.6055z"/>
  </g>
  <g transform="translate(1044.6 146.05)">
   <path d="m26.625 8.1914c-4.9492 0-9.4297-1.2383-13.441-3.7109-4.0117-2.4766-7.2109-5.7617-9.5977-9.8555-2.3906-4.0977-3.5859-8.5352-3.5859-13.312 0-4.9492 1.1953-9.4727 3.5859-13.57 2.3867-4.0938 5.5859-7.3359 9.5977-9.7266 4.0117-2.3906 8.4922-3.582 13.441-3.582s9.4297 1.1914 13.438 3.582c4.0117 2.3906 7.2109 5.6328 9.6016 9.7266 2.3906 4.0977 3.582 8.6211 3.582 13.57 0 4.7773-1.1914 9.2148-3.582 13.312-2.3906 4.0938-5.5898 7.3789-9.6016 9.8555-4.0078 2.4727-8.4883 3.7109-13.438 3.7109zm0-11.52c4.4375 0 8.1055-1.4922 11.008-4.4805 2.9023-2.9844 4.3516-6.6133 4.3516-10.879 0-4.4375-1.4492-8.1055-4.3516-11.008-2.9023-2.9023-6.5703-4.3516-11.008-4.3516-4.2695 0-7.8945 1.4492-10.883 4.3516-2.9844 2.9023-4.4766 6.5703-4.4766 11.008 0 4.2656 1.4922 7.8945 4.4766 10.879 2.9883 2.9883 6.6133 4.4805 10.883 4.4805z"/>
  </g>
  <g transform="translate(1071.3 181.89)">
   <path d="m0 10.754c-3.0703 0-5.6328-1.0273-7.6797-3.0742s-3.0742-4.6094-3.0742-7.6797 1.0273-5.6328 3.0742-7.6797 4.6094-3.0742 7.6797-3.0742 5.6328 1.0273 7.6797 3.0742 3.0742 4.6094 3.0742 7.6797-1.0273 5.6328-3.0742 7.6797-4.6094 3.0742-7.6797 3.0742z"/>
  </g>
  <g transform="translate(1001.4 259.2)">
   <path d="m121.6 0v-20.223h36.863v20.223zm-55.043 48.129c-7.6797 0-14.848-1.0234-21.504-3.0742-6.6562-2.0469-12.457-4.9492-17.406-8.7031-4.9492-3.7539-8.832-8.3633-11.648-13.824-2.8164-5.4609-4.2227-11.605-4.2227-18.43v-48.641h20.223v48.641c0 3.4102 1.1953 6.9531 3.5859 10.621 2.3867 3.6719 6.1406 6.7422 11.262 9.2188 5.1211 2.4727 11.691 3.7109 19.711 3.7109h40.961l-2.5585 2.5585v-75.008h20.223v69.375c0 4.0977-0.98046 7.9375-2.9453 11.523-1.9609 3.582-4.6914 6.4844-8.1914 8.7031-3.4961 2.2188-7.5508 3.3281-12.16 3.3281z"/>
  </g>
  <g transform="translate(1190.6 135.05)">
   <path d="m7.4258 7.168-3.8398-10.496 20.734-7.6797-2.8164-9.2148c-1.5352-4.2695-1.3672-8.4492 0.51172-12.547 1.8789-4.0938 4.8633-6.7383 8.9609-7.9336 4.4375-1.1953 8.5742-1.2383 12.414-0.12891s7.125 2.9453 9.8555 5.5039c2.7344 2.5586 4.6094 5.375 5.6328 8.4492 1.3672 3.4141 1.3672 6.9531 0 10.621-1.3633 3.6719-4.2656 6.3594-8.7031 8.0664zm27.902-22.273 11.008-4.0938c1.3672-0.34375 2.1328-0.72656 2.3047-1.1523 0.17188-0.42578 0.08594-1.2383-0.25781-2.4336-0.67969-2.0469-2.3867-3.8828-5.1172-5.5039s-5.8047-2.0039-9.2188-1.1523c-0.67969 0.17188-1.2773 0.76953-1.7891 1.793-0.51562 1.0234-0.51562 2.2188 0 3.5859z"/>
  </g>
  <g transform="translate(1155.8 259.2)">
   <path d="m111.11 0v-20.223h10.496v20.223zm-111.11 0v-20.223h31.488c-0.51172 0.51172-0.9375 0.9375-1.2812 1.2773-0.33984 0.34375-0.76562 0.76953-1.2773 1.2812v-39.938c0-5.1172 0.9375-9.8984 2.8125-14.336 1.8789-4.4375 4.4375-8.1914 7.6836-11.262 4.9492-4.9492 10.836-8.1094 17.664-9.4727 6.8242-1.3672 13.738-1.0664 20.734 0.89453 6.9961 1.9648 13.055 5.6758 18.176 11.137 7.168 7.5117 12.543 14.762 16.129 21.762 3.582 6.9961 5.375 13.91 5.375 20.734 0 6.6562-1.4922 12.375-4.4805 17.152-2.9844 4.7773-6.9102 8.7461-11.777 11.902-4.8633 3.1602-10.238 5.4648-16.125 6.9141-5.8906 1.4492-11.648 2.1758-17.281 2.1758h-19.711v-20.223h19.711c6.4844 0 11.902-0.85547 16.258-2.5625 4.3516-1.707 7.6367-3.9258 9.8555-6.6562 2.2188-2.7305 3.3281-5.6289 3.3281-8.7031 0-2.9023-1.1094-6.7852-3.3281-11.648s-6.4023-10.539-12.547-17.023c-2.7305-2.9023-5.8867-4.8203-9.4688-5.7578-3.5859-0.94141-7.043-1.0703-10.371-0.38672-3.3281 0.68359-6.0156 2.0508-8.0625 4.0977-1.1953 1.1953-2.2188 2.6875-3.0703 4.4805-0.85547 1.7891-1.2812 4.0508-1.2812 6.7812v34.051c0 4.2656-1.0664 8.1914-3.1992 11.773-2.1328 3.5859-4.9922 6.4453-8.5781 8.5781-3.582 2.1328-7.7656 3.1992-12.543 3.1992z"/>
  </g>
  <g transform="translate(1286 64.641)">
   <path d="m7.9375 3.8398-4.0977-10.75 50.688-18.434 4.0977 10.496z"/>
  </g>
  <g transform="translate(1273.2 259.2)">
   <path d="m0 0v-20.223h36.098c-0.34375 0.51172-0.72656 0.9375-1.1523 1.2773-0.42969 0.34375-0.8125 0.76953-1.1523 1.2812v-142.08h20.223v136.19c0 4.2656-1.0234 8.1914-3.0703 11.773-2.0508 3.5859-4.8672 6.4453-8.4492 8.5781-3.5859 2.1328-7.6797 3.1992-12.289 3.1992z"/>
  </g>
  <g transform="translate(1365.9 83.078)">
   <path d="m7.9375 3.8398-4.0977-10.75 50.688-18.434 4.0977 10.496z"/>
  </g>
  <g transform="translate(1327.3 259.2)">
   <path d="m0 0v-20.223h114.18c0 0.16797 0.043 0.38281 0.12891 0.63672 0.0859 0.25781 0.1289 0.51563 0.1289 0.76953v0.64062l-67.84-69.375c-0.51562-0.51172-1.2812-0.76953-2.3047-0.76953h-2.5625c-0.85156 0-1.5352-0.25391-2.0469-0.76953l-8.7031-8.7031c-3.5859-3.7539-5.8477-7.8906-6.7852-12.414s-0.29688-9.0469 1.9219-13.57c2.2188-4.5195 6.3125-8.5742 12.285-12.16 7.168-4.4375 15.402-8.4023 24.707-11.902 9.3008-3.5 18.602-6.5703 27.902-9.2148 9.3008-2.6484 17.621-4.6953 24.961-6.1445 7.3398-1.4531 12.543-2.1758 15.617-2.1758l0.2539 19.969c-1.1953 0-4.1367 0.46875-8.832 1.4062-4.6914 0.9375-10.367 2.2617-17.023 3.9688-6.6563 1.707-13.652 3.7109-20.992 6.0156-7.3398 2.3047-14.336 4.8203-20.992 7.5508-6.6562 2.7305-12.375 5.6328-17.152 8.7031-0.51172 0.34375-0.59766 0.72656-0.25391 1.1523 0.33984 0.42969 0.67969 0.8125 1.0234 1.1524l75.773 77.312c3.4141 3.4141 5.4219 7.2969 6.0156 11.648 0.59766 4.3516 0.0859 8.5352-1.5352 12.543-1.6211 4.0117-4.2226 7.3398-7.8086 9.9844-3.582 2.6445-7.8477 3.9688-12.797 3.9688z"/>
  </g>
  <g transform="translate(1600.9 337.55)">
   <path d="m-21.504 10.754c-3.0703 0-5.6328-1.0273-7.6797-3.0742s-3.0742-4.6094-3.0742-7.6797 1.0273-5.6328 3.0742-7.6797 4.6094-3.0742 7.6797-3.0742 5.6328 1.0273 7.6797 3.0742 3.0703 4.6094 3.0703 7.6797-1.0234 5.6328-3.0703 7.6797-4.6094 3.0742-7.6797 3.0742zm43.008 0c-3.0703 0-5.6328-1.0273-7.6797-3.0742s-3.0703-4.6094-3.0703-7.6797 1.0234-5.6328 3.0703-7.6797 4.6094-3.0742 7.6797-3.0742 5.6328 1.0273 7.6797 3.0742 3.0742 4.6094 3.0742 7.6797-1.0273 5.6328-3.0742 7.6797-4.6094 3.0742-7.6797 3.0742z"/>
  </g>
  <g transform="translate(1522.1 259.2)">
   <path d="m57.855 55.297c-4.7773 0-9.8125-0.72656-15.102-2.1758-5.293-1.4531-10.285-3.8398-14.977-7.168-4.6953-3.3281-8.5352-7.6797-11.52-13.059-2.9883-5.375-4.4805-11.902-4.4805-19.582v-46.848h20.223v46.848c0 5.2891 1.2812 9.5586 3.8398 12.801 2.5586 3.2422 5.9297 5.5898 10.113 7.0391 4.1797 1.4492 8.7461 2.1758 13.695 2.1758h62.207c0 0.51172 0.043 1.0234 0.12891 1.5352 0.0859 0.51172 0.1289 1.0234 0.1289 1.5352l-30.465-36.863c-3.4141-4.0938-5.375-8.2773-5.8867-12.543-0.51562-4.2656 0.125-8.1914 1.918-11.777 1.793-3.582 4.5234-6.4844 8.1914-8.7031 3.6719-2.2188 8.0664-3.3281 13.184-3.3281h32.512v19.969h-40.703c0.17188-0.51172 0.25781-1.0234 0.25781-1.5352 0-0.51172 0.0859-1.0234 0.25391-1.5391l34.305 41.219c3.0742 3.582 4.6094 7.2539 4.6094 11.008 0 3.7539-1.0664 7.2109-3.1992 10.367-2.1367 3.1562-4.9922 5.7188-8.5781 7.6797-3.582 1.9648-7.5078 2.9453-11.777 2.9453z"/>
  </g>
  <g transform="translate(1709 294.02)">
   <path d="m7.9375 35.84-4.0977-10.75 50.688-18.434 4.0977 10.496z"/>
  </g>
  <g transform="translate(1718.9 125.58)">
   <path d="m14.078 8.1914c-3.2422 1.0234-6.3984 0.64062-9.4688-1.1523-3.0742-1.793-4.6094-5.0781-4.6094-9.8555v-20.992h11.008v20.48l13.566-4.6094v-24.832h11.777v25.09c0 3.0703-1.0664 5.5469-3.1992 7.4219-2.1328 1.8789-4.3945 3.2461-6.7852 4.0977zm22.273-7.6797v-12.801l14.336-5.1172v-24.832h11.008v25.344c0 3.0703-0.9375 5.5039-2.8164 7.293-1.875 1.793-3.8398 3.1172-5.8867 3.9688z"/>
  </g>
  <g transform="translate(1663.6 259.2)">
   <path d="m0 0v-20.223h121.86c-0.51172 0.51172-1.0234 0.98047-1.5352 1.4062-0.51172 0.42578-0.9375 0.8125-1.2812 1.1523v-22.527c0-6.4844-0.55468-11.605-1.6641-15.359-1.1094-3.7578-2.6445-6.6133-4.6055-8.5781-1.9648-1.9609-4.3125-3.5391-7.043-4.7344-4.4375-1.707-9.1289-1.6211-14.078 0.25391-4.9492 1.8789-10.199 5.4219-15.746 10.625-5.5469 5.207-11.52 11.945-17.918 20.223-6.3984 8.2773-13.355 18.051-20.863 29.312l-13.059-7.6797c4.2695-7.5078 8.7891-15.273 13.57-23.297 4.7773-8.0195 9.8984-15.57 15.359-22.652 5.4609-7.0859 11.266-13.102 17.406-18.051 6.1445-4.9492 12.758-8.2344 19.84-9.8555 7.0859-1.6211 14.723-0.89453 22.914 2.1758 8.875 3.7539 15.445 9.7305 19.711 17.922 4.2656 8.1914 6.4023 17.918 6.4023 29.184v16.895c0 4.4375-1.0273 8.4492-3.0742 12.031-2.0469 3.5859-4.8633 6.4453-8.4492 8.5781-3.582 2.1328-7.5078 3.1992-11.773 3.1992zm24.32-16.383c1.3633-7.3398 2.1328-14.551 2.3047-21.633 0.16797-7.082 0.25391-14.039 0.25391-20.863v-100.86h20.48v93.438c0 12.117-0.80859 22.402-2.4297 30.848-1.6211 8.4492-2.8594 14.805-3.7148 19.074z"/>
  </g>
  <g transform="translate(1814.7 134.28)">
   <path d="m7.4258 7.168-3.8398-10.496 20.734-7.6797-2.8164-9.2148c-1.5352-4.2695-1.3672-8.4492 0.51172-12.547 1.8789-4.0938 4.8633-6.7383 8.9609-7.9336 4.4375-1.1953 8.5742-1.2383 12.414-0.12891s7.125 2.9453 9.8555 5.5039c2.7344 2.5586 4.6094 5.375 5.6328 8.4492 1.3672 3.4141 1.3672 6.9531 0 10.621-1.3633 3.6719-4.2656 6.3594-8.7031 8.0664zm27.902-22.273 11.008-4.0938c1.3672-0.34375 2.1328-0.72656 2.3047-1.1523 0.17188-0.42578 0.08594-1.2383-0.25781-2.4336-0.67969-2.0469-2.3867-3.8828-5.1172-5.5039s-5.8047-2.0039-9.2188-1.1523c-0.67969 0.17188-1.2773 0.76953-1.7891 1.793-0.51562 1.0234-0.51562 2.2188 0 3.5859z"/>
  </g>
  <g transform="translate(1801.6 259.2)">
   <path d="m0 0v-20.223h108.03c0 0.16797-0.043 0.38281-0.12891 0.63672-0.082 0.25781-0.125 0.47266-0.125 0.64063-2.5625-0.85156-5.0352-2.1758-7.4258-3.9648-2.3906-1.793-4.6094-3.6289-6.6562-5.5039-5.4609-4.9531-11.051-10.371-16.766-16.258-5.7188-5.8867-11.223-10.711-16.516-14.465-6.3125-4.4375-12.457-7.6367-18.43-9.5977-5.9727-1.9648-11.605-3.543-16.895-4.7383l4.6055-19.711c5.293 1.1953 11.648 3.0273 19.074 5.5039 7.4219 2.4727 15.059 6.4414 22.91 11.902 7.5078 5.293 14.293 11.137 20.352 17.539 6.0586 6.3984 11.648 11.816 16.77 16.254 4.0938 3.5859 7.5078 6.2305 10.238 7.9375s5.6328 2.8164 8.7031 3.3281c3.0742 0.51172 7.168 0.76562 12.289 0.76562l0.51172 9.2188c0.17187 2.0469 0 4.2227-0.51172 6.5273-0.51172 2.3047-1.4492 4.5625-2.8164 6.7812-1.3633 2.2188-3.1562 4.0117-5.375 5.3789-2.2188 1.3633-4.9492 2.0469-8.1914 2.0469z"/>
  </g>
  <g transform="translate(2032.8 139.14)">
   <path d="m26.625 8.1914c-4.9492 0-9.4297-1.2383-13.441-3.7109-4.0117-2.4766-7.2109-5.7617-9.5977-9.8555-2.3906-4.0977-3.5859-8.5352-3.5859-13.312 0-4.9492 1.1953-9.4727 3.5859-13.57 2.3867-4.0938 5.5859-7.3359 9.5977-9.7266 4.0117-2.3906 8.4922-3.582 13.441-3.582s9.4297 1.1914 13.438 3.582c4.0117 2.3906 7.2109 5.6328 9.6016 9.7266 2.3906 4.0977 3.582 8.6211 3.582 13.57 0 4.7773-1.1914 9.2148-3.582 13.312-2.3906 4.0938-5.5898 7.3789-9.6016 9.8555-4.0078 2.4727-8.4883 3.7109-13.438 3.7109zm0-11.52c4.4375 0 8.1055-1.4922 11.008-4.4805 2.9023-2.9844 4.3516-6.6133 4.3516-10.879 0-4.4375-1.4492-8.1055-4.3516-11.008-2.9023-2.9023-6.5703-4.3516-11.008-4.3516-4.2695 0-7.8945 1.4492-10.883 4.3516-2.9844 2.9023-4.4766 6.5703-4.4766 11.008 0 4.2656 1.4922 7.8945 4.4766 10.879 2.9883 2.9883 6.6133 4.4805 10.883 4.4805z"/>
  </g>
  <g transform="translate(2059.4 174.98)">
   <path d="m0 10.754c-3.0703 0-5.6328-1.0273-7.6797-3.0742s-3.0742-4.6094-3.0742-7.6797 1.0273-5.6328 3.0742-7.6797 4.6094-3.0742 7.6797-3.0742 5.6328 1.0273 7.6797 3.0742 3.0742 4.6094 3.0742 7.6797-1.0273 5.6328-3.0742 7.6797-4.6094 3.0742-7.6797 3.0742z"/>
  </g>
  <g transform="translate(2005.1 259.2)">
   <path d="m0 51.199v-20.223h23.297c7.168 0 12.586-2.4766 16.254-7.4258 3.6719-4.9492 5.5039-11.605 5.5039-19.965v-38.656c0-3.4141 0.89844-5.7617 2.6875-7.043 1.793-1.2773 4.1836-2.0039 7.168-2.1758 2.9883-0.16797 6.4453-0.25391 10.371-0.25391v48.129c0 8.3594-1.6211 16.168-4.8672 23.422-3.2422 7.2539-7.9766 13.098-14.207 17.535-6.2266 4.4375-13.867 6.6562-22.91 6.6562z"/>
  </g>
  <g transform="translate(2107.3 74.891)">
   <path d="m7.9375 3.8398-4.0977-10.75 50.688-18.434 4.0977 10.496z"/>
  </g>
  <g transform="translate(2107.8 130.44)">
   <path d="m14.078 8.1914c-3.2422 1.0234-6.3984 0.64062-9.4688-1.1523-3.0742-1.793-4.6094-5.0781-4.6094-9.8555v-20.992h11.008v20.48l13.566-4.6094v-24.832h11.777v25.09c0 3.0703-1.0664 5.5469-3.1992 7.4219-2.1328 1.8789-4.3945 3.2461-6.7852 4.0977zm22.273-7.6797v-12.801l14.336-5.1172v-24.832h11.008v25.344c0 3.0703-0.9375 5.5039-2.8164 7.293-1.875 1.793-3.8398 3.1172-5.8867 3.9688z"/>
  </g>
  <g transform="translate(2082.2 259.2)">
   <path d="m89.344 0v-20.223h37.887v20.223zm-83.711 51.199v-20.223h49.406c4.9492 0 9.3438-1.2812 13.184-3.8398 3.8398-2.5625 6.8281-5.9727 8.9609-10.242 2.1328-4.2656 3.1992-8.7891 3.1992-13.566v-56.32c0-5.1211-1.1523-9.1289-3.4531-12.031-2.3047-2.9023-5.5898-4.3516-9.8594-4.3516-4.4375 0-9.1719 1.3203-14.207 3.9688-5.0352 2.6445-9.4297 6.4414-13.184 11.391-3.7539 4.9492-6.0586 11.094-6.9102 18.43-0.17188 3.5859 1.3203 7.043 4.4766 10.371 3.1602 3.3281 7.2109 4.9922 12.16 4.9922h40.449v20.223h-40.449c-6.9961 0-13.309-1.707-18.941-5.1211-5.6328-3.4141-10.07-7.9766-13.312-13.695-3.2422-5.7188-4.6953-11.816-4.3516-18.305 0.85156-8.1914 2.9844-15.531 6.3984-22.016 3.4141-6.4844 7.7227-11.988 12.93-16.512 5.2031-4.5234 10.836-7.9766 16.895-10.367 6.0586-2.3906 11.988-3.5859 17.793-3.5859 5.8008-0.16797 11.262 1.0273 16.383 3.5859 5.1211 2.5586 9.2578 6.3125 12.418 11.262 3.1562 4.9531 4.7344 11.094 4.7344 18.434v59.906c0 5.8008-1.0664 11.562-3.1992 17.277-2.1328 5.7188-5.1641 10.84-9.0898 15.359-3.9219 4.5234-8.6602 8.1523-14.207 10.883s-11.816 4.0938-18.816 4.0938z"/>
  </g>
  <g transform="translate(2260.4 89.219)">
   <path d="m7.9375 3.8398-4.0977-10.75 50.688-18.434 4.0977 10.496z"/>
  </g>
  <g transform="translate(2205.6 259.2)">
   <path d="m0 0v-20.223h150.27c-0.51172 0.51172-0.98438 0.9375-1.4102 1.2773-0.42578 0.34375-0.89453 0.76953-1.4062 1.2812 0.33984-9.5586-0.98047-19.199-3.9688-28.93-2.9883-9.7266-7.8945-18.688-14.719-26.879-6.8281-8.1914-15.617-14.848-26.371-19.969-10.75-5.1172-23.723-7.7656-38.91-7.9336l0.51172-19.969c14.508 0.17187 27.391 2.2617 38.656 6.2734 11.266 4.0078 21.078 9.3438 29.441 16 8.3594 6.6562 15.23 14.164 20.605 22.527s9.3008 17.109 11.777 26.238c2.4726 9.1328 3.625 18.047 3.457 26.754 0 4.4375-1.1094 8.4453-3.3281 12.031-2.2188 3.582-5.0781 6.3984-8.5781 8.4492-3.4961 2.0469-7.3789 3.0703-11.648 3.0703zm82.688-0.25781-0.51172-19.965c4.2656 0 7.6797-1.1523 10.238-3.457 2.5625-2.3047 3.8438-5.0781 3.8438-8.3203 0-1.3672-0.34375-3.1562-1.0273-5.375-0.67969-2.2188-1.9609-4.6953-3.8398-7.4258-3.7539-5.8008-7.7656-9.8984-12.031-12.289-4.2656-2.3867-8.1914-3.625-11.773-3.7109-3.5859-0.08594-6.4023 0.55469-8.4492 1.9219-1.3672 1.0234-2.5625 2.3438-3.5859 3.9688-1.0234 1.6211-1.5352 3.9648-1.5352 7.0391v28.672h-19.969v-28.672c0-5.9727 1.2383-11.395 3.7148-16.258 2.4727-4.8633 5.8438-8.6602 10.109-11.391 6.1445-4.0977 12.887-5.9727 20.227-5.6328 7.3359 0.33984 14.59 2.6445 21.758 6.9141 7.168 4.2656 13.313 10.41 18.434 18.43 2.5586 3.9258 4.5234 7.8516 5.8867 11.777 1.3672 3.9258 2.1328 7.8516 2.3047 11.773 0.17187 6.8281-1.4922 12.633-4.9922 17.41s-7.8516 8.3633-13.055 10.75c-5.207 2.3906-10.453 3.6719-15.746 3.8398z"/>
  </g>
  <g transform="translate(2459.8 136.06)">
   <path d="m26.625 8.1914c-4.9492 0-9.4297-1.2383-13.441-3.7109-4.0117-2.4766-7.2109-5.7617-9.5977-9.8555-2.3906-4.0977-3.5859-8.5352-3.5859-13.312 0-4.9492 1.1953-9.4727 3.5859-13.57 2.3867-4.0938 5.5859-7.3359 9.5977-9.7266 4.0117-2.3906 8.4922-3.582 13.441-3.582s9.4297 1.1914 13.438 3.582c4.0117 2.3906 7.2109 5.6328 9.6016 9.7266 2.3906 4.0977 3.582 8.6211 3.582 13.57 0 4.7773-1.1914 9.2148-3.582 13.312-2.3906 4.0938-5.5898 7.3789-9.6016 9.8555-4.0078 2.4727-8.4883 3.7109-13.438 3.7109zm0-11.52c4.4375 0 8.1055-1.4922 11.008-4.4805 2.9023-2.9844 4.3516-6.6133 4.3516-10.879 0-4.4375-1.4492-8.1055-4.3516-11.008-2.9023-2.9023-6.5703-4.3516-11.008-4.3516-4.2695 0-7.8945 1.4492-10.883 4.3516-2.9844 2.9023-4.4766 6.5703-4.4766 11.008 0 4.2656 1.4922 7.8945 4.4766 10.879 2.9883 2.9883 6.6133 4.4805 10.883 4.4805z"/>
  </g>
  <g transform="translate(2436.5 259.2)">
   <path d="m11.777 0v-20.223h73.469c-0.51172 0-0.9375 0.04297-1.2773 0.125-0.34375 0.08594-0.76953 0.12891-1.2812 0.12891 0-9.7266-2.2188-17.918-6.6562-24.574s-9.8555-12.16-16.254-16.512c-6.4023-4.3516-12.758-8.0664-19.074-11.137l8.9609-17.922c4.4375 2.2188 9.6445 5.1211 15.617 8.707 5.9727 3.582 11.816 8.0195 17.535 13.309 5.7188 5.293 10.496 11.648 14.336 19.074 3.8398 7.4219 5.7578 16 5.7578 25.727 0 4.0977-0.98047 7.9375-2.9414 11.52-1.9648 3.5859-4.6953 6.4453-8.1914 8.5781-3.5 2.1328-7.6367 3.1992-12.418 3.1992z"/>
  </g>
  <g transform="translate(2552.2 134.28)">
   <path d="m7.9375 3.8398-4.0977-10.75 50.688-18.434 4.0977 10.496z"/>
  </g>
  <g transform="translate(2602.4 297.61)">
   <path d="m0 10.754c-3.0703 0-5.6328-1.0273-7.6797-3.0742s-3.0742-4.6094-3.0742-7.6797 1.0273-5.6328 3.0742-7.6797 4.6094-3.0742 7.6797-3.0742 5.6328 1.0273 7.6797 3.0742 3.0742 4.6094 3.0742 7.6797-1.0273 5.6328-3.0742 7.6797-4.6094 3.0742-7.6797 3.0742z"/>
  </g>
  <g transform="translate(2539.4 259.2)">
   <path d="m0 0v-20.223h108.03c0 0.16797-0.043 0.38281-0.12891 0.63672-0.082 0.25781-0.125 0.47266-0.125 0.64063-2.5625-0.85156-5.0352-2.1758-7.4258-3.9648-2.3906-1.793-4.6094-3.6289-6.6562-5.5039-5.4609-4.9531-11.051-10.371-16.766-16.258-5.7188-5.8867-11.223-10.711-16.516-14.465-6.3125-4.4375-12.457-7.6367-18.43-9.5977-5.9727-1.9648-11.605-3.543-16.895-4.7383l4.6055-19.711c5.293 1.1953 11.648 3.0273 19.074 5.5039 7.4219 2.4727 15.059 6.4414 22.91 11.902 7.5078 5.293 14.293 11.137 20.352 17.539 6.0586 6.3984 11.648 11.816 16.77 16.254 4.0938 3.5859 7.5078 6.2305 10.238 7.9375s5.6328 2.8164 8.7031 3.3281c3.0742 0.51172 7.168 0.76562 12.289 0.76562l0.51172 9.2188c0.17187 2.0469 0 4.2227-0.51172 6.5273-0.51172 2.3047-1.4492 4.5625-2.8164 6.7812-1.3633 2.2188-3.1562 4.0117-5.375 5.3789-2.2188 1.3633-4.9492 2.0469-8.1914 2.0469z"/>
  </g>
  <g transform="translate(2704.3 124.3)">
   <path d="m26.625 8.1914c-4.9492 0-9.4297-1.2383-13.441-3.7109-4.0117-2.4766-7.2109-5.7617-9.5977-9.8555-2.3906-4.0977-3.5859-8.5352-3.5859-13.312 0-4.9492 1.1953-9.4727 3.5859-13.57 2.3867-4.0938 5.5859-7.3359 9.5977-9.7266 4.0117-2.3906 8.4922-3.582 13.441-3.582s9.4297 1.1914 13.438 3.582c4.0117 2.3906 7.2109 5.6328 9.6016 9.7266 2.3906 4.0977 3.582 8.6211 3.582 13.57 0 4.7773-1.1914 9.2148-3.582 13.312-2.3906 4.0938-5.5898 7.3789-9.6016 9.8555-4.0078 2.4727-8.4883 3.7109-13.438 3.7109zm0-11.52c4.4375 0 8.1055-1.4922 11.008-4.4805 2.9023-2.9844 4.3516-6.6133 4.3516-10.879 0-4.4375-1.4492-8.1055-4.3516-11.008-2.9023-2.9023-6.5703-4.3516-11.008-4.3516-4.2695 0-7.8945 1.4492-10.883 4.3516-2.9844 2.9023-4.4766 6.5703-4.4766 11.008 0 4.2656 1.4922 7.8945 4.4766 10.879 2.9883 2.9883 6.6133 4.4805 10.883 4.4805z"/>
  </g>
  <g transform="translate(2730.9 297.34)">
   <path d="m0 10.754c-3.0703 0-5.6328-1.0273-7.6797-3.0742s-3.0742-4.6094-3.0742-7.6797 1.0273-5.6328 3.0742-7.6797 4.6094-3.0742 7.6797-3.0742 5.6328 1.0273 7.6797 3.0742 3.0742 4.6094 3.0742 7.6797-1.0273 5.6328-3.0742 7.6797-4.6094 3.0742-7.6797 3.0742z"/>
  </g>
  <g transform="translate(2680 259.2)">
   <path d="m0 0v-20.223h79.871c-0.33984 0.51172-0.72266 0.98047-1.1523 1.4062-0.42578 0.42578-0.80859 0.89453-1.1523 1.4102v-75.523h20.227v69.633c0 4.4375-1.1094 8.4062-3.3281 11.906-2.2188 3.4961-5.1211 6.2695-8.7031 8.3203-3.5859 2.0469-7.5117 3.0703-11.777 3.0703z"/>
  </g>
  <g transform="translate(2783.6 25.219)">
   <path d="m7.9375 3.8398-4.0977-10.75 50.688-18.434 4.0977 10.496z"/>
  </g>
  <g transform="translate(2790.3 89.219)">
   <path d="m0 0v-14.336h20.992l-6.6562-13.824s-0.25781-0.55469-0.76953-1.6641c-0.51172-1.1094-0.80859-2.4727-0.89453-4.0977-0.08594-1.6211 0.38281-3.1992 1.4062-4.7344 0.85547-1.1953 2.0938-2.1758 3.7148-2.9453 1.6211-0.76563 3.5391-1.1523 5.7578-1.1523h25.602v14.34h-18.945l6.6562 13.82c0.51172 1.1953 1.0664 2.7734 1.6641 4.7383 0.59766 1.9609 0.12891 3.9688-1.4062 6.0156-1.1953 1.707-2.7305 2.7734-4.6094 3.1992-1.8789 0.42578-3.3281 0.64062-4.3516 0.64062z"/>
  </g>
  <g transform="translate(2789.5 259.2)">
   <path d="m15.617 0v-159.74h19.969v138.75c0 3.7539-0.76953 7.2539-2.3047 10.496-1.5391 3.2422-3.7969 5.8047-6.7852 7.6797-2.9883 1.8789-6.6133 2.8164-10.879 2.8164z"/>
  </g>
 </g>
</svg>
