<svg xmlns="http://www.w3.org/2000/svg" viewBox="0 0 2857 364.8"><path d="m45.695 208.512-2.816-96.77-.512-24.062h21.25l-.512 24.062-2.816 96.77zm7.426 53.758q-6.403 0-10.883-4.477-4.477-4.481-4.477-11.395 0-7.425 4.477-11.902 4.48-4.481 10.883-4.48c4.094 0 7.637 1.492 10.62 4.48q4.483 4.478 4.481 11.902.001 6.914-4.48 11.395-4.479 4.477-10.621 4.477m86.269-53.758q1.282-10.754-2.176-19.199c-2.3-5.633-5.332-10.926-9.086-15.875a377 377 0 0 0-11.648-14.59q-6.017-7.166-10.113-15.234-4.094-8.063-4.094-18.047 0-12.797 5.247-21.887 5.25-9.09 14.977-14.082c6.484-3.328 13.996-4.992 22.527-4.992q14.08.001 25.09 6.02c7.335 4.007 13.652 9.085 18.94 15.23l-12.03 11.007q-5.89-6.913-13.438-10.879-7.555-3.97-16-3.969c-5.465 0-10.027 1.11-13.7 3.329q-5.501 3.326-8.316 8.96-2.817 5.63-2.816 12.543-.001 8.192 4.094 15.105 4.095 6.91 9.855 13.82 5.762 6.914 11.266 14.594 5.503 7.683 8.574 16.895 3.076 9.217 1.281 21.25zm8.707 53.758c-4.27 0-7.895-1.492-10.883-4.477q-4.477-4.481-4.477-11.395 0-7.425 4.477-11.902c2.988-2.988 6.613-4.48 10.883-4.48q6.398-.001 10.75 4.48 4.353 4.478 4.352 11.902 0 6.914-4.352 11.395-4.352 4.477-10.75 4.477m82.683-92.414q-6.4.001-10.879-4.48-4.481-4.483-4.48-11.392-.001-7.424 4.48-11.906 4.478-4.478 10.879-4.48c4.098 0 7.637 1.496 10.625 4.48q4.478 4.483 4.48 11.906-.002 6.909-4.48 11.391c-2.988 2.989-6.527 4.481-10.625 4.481m0 92.414q-6.4 0-10.879-4.477-4.481-4.481-4.48-11.395-.001-7.425 4.48-11.902 4.478-4.481 10.879-4.48c4.098 0 7.637 1.492 10.625 4.48q4.478 4.478 4.48 11.902-.002 6.914-4.48 11.395c-2.988 2.985-6.527 4.477-10.625 4.477m62.469-92.414q-8.191 0-12.926-6.656-4.739-6.656-4.738-18.176.001-16.64 8.96-29.055 8.959-12.418 24.579-18.816l5.117 12.285q-11.005 4.868-17.152 13.059-6.143 8.19-5.887 18.687l2.305 18.945-10.496-15.363q2.044-2.559 4.863-3.453c2.82-.894 3.84-.899 5.887-.899q6.146 0 10.625 3.715 4.481 3.711 4.48 10.88.001 6.909-4.61 10.878-4.603 3.968-11.007 3.969m1.023 92.414c-4.093 0-7.636-1.535-10.62-4.605q-4.482-4.612-4.481-11.778-.001-6.914 4.48-11.39c2.985-2.989 6.528-4.481 10.621-4.481 4.27 0 7.895 1.492 10.883 4.48q4.479 4.478 4.48 11.391-.001 7.167-4.48 11.777c-2.988 3.07-6.613 4.606-10.883 4.606m62.727 0q-8.191 0-12.926-6.656-4.739-6.65-4.738-18.176.001-16.637 8.96-29.055c8.96-12.418 14.165-14.55 24.579-18.816l5.117 12.29q-11.005 4.862-17.152 13.054-6.143 8.192-5.887 18.688l2.305 18.945-10.496-15.359q2.044-2.561 4.863-3.457c2.82-.896 3.84-.894 5.887-.894q6.147.001 10.625 3.71 4.481 3.714 4.48 10.88.001 6.912-4.61 10.882-4.604 3.966-11.007 3.965zm90.887-3.07V93.57h19.97V259.2zm18.176-98.816v-20.223h31.23l-1.152 1.152-1.406 1.407V93.568h20.223v43.52q0 6.656-3.2 11.906-3.2 5.244-8.574 8.32-5.38 3.07-12.03 3.07zm47.617 0v-20.223h30.72q-.512.51-1.153 1.152l-1.406 1.407V93.568h20.223v43.52q0 6.656-3.2 11.906-3.198 5.244-8.578 8.32-5.374 3.07-12.03 3.07zm71.686 98.816V117.63q.258-6.916 3.457-12.16 3.2-5.25 8.578-8.32 5.373-3.076 11.52-3.075h70.145v20.227h-76.289c.512-.511.98-.984 1.406-1.41q.641-.637 1.153-1.152V259.2zm163.839 0V93.82h20.223V259.2zm137.478-68.609q-6.398 0-11.008-4.605-4.605-4.611-4.605-11.008 0-6.404 4.605-11.009 4.61-4.61 11.008-4.609c4.27 0 7.895 1.535 10.883 4.61q4.478 4.604 4.48 11.007-.002 6.398-4.48 11.008c-2.988 3.07-6.613 4.606-10.883 4.606m184.543-36.35q-7.425-.001-13.441-3.71-6.017-3.715-9.598-9.856-3.586-6.147-3.586-13.312 0-7.425 3.586-13.57 3.58-6.14 9.598-9.727 6.018-3.584 13.441-3.582c7.423.002 9.43 1.192 13.438 3.582q6.016 3.586 9.602 9.727 3.584 6.147 3.582 13.57.002 7.166-3.582 13.312-3.585 6.141-9.602 9.855-6.013 3.71-13.438 3.711m0-11.52q6.655.001 11.008-4.48 4.352-4.479 4.352-10.88 0-6.655-4.352-11.007t-11.008-4.352c-4.27 0-7.894 1.45-10.883 4.352q-4.476 4.352-4.477 11.008 0 6.4 4.477 10.879c2.988 2.988 6.613 4.48 10.883 4.48m.075 49.923c-3.07 0-5.633-1.027-7.68-3.074s-3.074-4.61-3.074-7.68 1.027-5.633 3.074-7.68 4.61-3.074 7.68-3.074 5.633 1.028 7.68 3.074 3.074 4.61 3.074 7.68-1.027 5.633-3.074 7.68-4.61 3.074-7.68 3.074M1123 259.2v-20.223h36.863V259.2zm-55.043 48.129q-11.52.001-21.504-3.074-9.983-3.072-17.406-8.703-7.425-5.632-11.648-13.824-4.224-8.192-4.223-18.43v-48.641h20.223v48.64c0 3.41 1.196 6.954 3.586 10.622q3.58 5.506 11.262 9.218 7.681 3.71 19.711 3.711h40.961l-2.558 2.559v-75.008h20.223v69.375q.001 6.146-2.946 11.523-2.94 5.374-8.191 8.703-5.245 3.328-12.16 3.328zm130.069-165.111-3.84-10.496 20.734-7.68-2.816-9.214q-2.306-6.403.511-12.547c1.88-4.094 4.864-6.739 8.961-7.934q6.656-1.792 12.414-.129c5.758 1.663 7.125 2.945 9.856 5.504q4.1 3.837 5.633 8.45 2.05 5.119 0 10.62-2.047 5.507-8.704 8.066zm27.902-22.273 11.008-4.094q2.049-.514 2.305-1.152.256-.64-.258-2.434-1.02-3.07-5.118-5.504c-4.098-2.434-5.804-2.003-9.218-1.152q-1.021.258-1.79 1.793-.773 1.536 0 3.586z"/><path d="M1266.91 259.2v-20.223h10.496V259.2zm-111.11 0v-20.223h31.488q-.766.767-1.281 1.277-.51.515-1.277 1.281v-39.938q0-7.677 2.812-14.336 2.817-6.655 7.684-11.262 7.423-7.425 17.664-9.472 10.238-2.049 20.734.894 10.494 2.947 18.176 11.137c7.168 7.512 12.543 14.762 16.129 21.762q5.374 10.496 5.375 20.734 0 9.986-4.48 17.152-4.477 7.168-11.778 11.902-7.295 4.74-16.125 6.914-8.834 2.175-17.28 2.176h-19.712v-20.223h19.711q9.725 0 16.258-2.562 6.528-2.56 9.856-6.656 3.328-4.095 3.328-8.704 0-4.353-3.328-11.648c-3.328-7.295-6.403-10.539-12.547-17.023q-4.095-4.352-9.47-5.757-5.378-1.412-10.37-.387t-8.063 4.098q-1.793 1.792-3.07 4.48-1.282 2.685-1.281 6.781v34.051q0 6.4-3.2 11.773a24.26 24.26 0 0 1-8.578 8.578q-5.375 3.2-12.543 3.2zm138.138-190.72-4.098-10.75 50.688-18.433 4.098 10.496z"/><path d="M1273.2 259.2v-20.223h36.098a5.6 5.6 0 0 1-1.152 1.277q-.644.515-1.153 1.281V99.455h20.223v136.19q0 6.4-3.07 11.773-3.075 5.38-8.45 8.579-5.376 3.198-12.288 3.199zm100.638-172.282-4.098-10.75 50.688-18.434 4.098 10.496zM1327.3 259.2v-20.223h114.18q0 .254.129.637.129.387.129.77v.64l-67.84-69.375c-.516-.512-1.281-.77-2.305-.77h-2.562q-1.28.002-2.047-.77l-8.703-8.702q-5.379-5.63-6.786-12.414c-1.407-6.784-.296-9.047 1.922-13.57q3.329-6.78 12.285-12.16 10.75-6.655 24.707-11.902 13.952-5.249 27.902-9.215 13.951-3.971 24.961-6.145c7.34-1.453 12.543-2.175 15.617-2.175l.254 19.969c-1.195 0-4.136.468-8.832 1.406q-7.038 1.407-17.023 3.969-9.983 2.559-20.992 6.015t-20.992 7.551q-9.985 4.096-17.152 8.703-.768.515-.254 1.152.509.644 1.024 1.153l75.773 77.312c3.414 3.414 5.422 7.297 6.015 11.648.598 4.351.086 8.535-1.535 12.543q-2.43 6.018-7.808 9.984-5.373 3.968-12.797 3.969zm252.096 89.104c-3.07 0-5.633-1.027-7.68-3.074s-3.074-4.61-3.074-7.68 1.027-5.633 3.074-7.68 4.61-3.074 7.68-3.074 5.633 1.027 7.68 3.074 3.07 4.61 3.07 7.68-1.023 5.633-3.07 7.68-4.61 3.074-7.68 3.074m43.008 0c-3.07 0-5.633-1.027-7.68-3.074s-3.07-4.61-3.07-7.68 1.023-5.633 3.07-7.68 4.61-3.074 7.68-3.074 5.633 1.027 7.68 3.074 3.074 4.61 3.074 7.68-1.027 5.633-3.074 7.68-4.61 3.074-7.68 3.074m-42.449-33.807q-7.166-.001-15.102-2.176-7.94-2.178-14.977-7.168-7.043-4.991-11.52-13.059-4.481-8.062-4.48-19.582v-46.848h20.222v46.848q.002 7.937 3.84 12.801t10.113 7.04q6.27 2.173 13.695 2.175h62.207q0 .767.13 1.535.128.768.128 1.535l-30.465-36.863c-3.414-4.093-5.375-8.277-5.887-12.543q-.772-6.397 1.918-11.777 2.69-5.374 8.192-8.703 5.508-3.328 13.184-3.328h32.512v19.97h-40.703a4.8 4.8 0 0 0 .258-1.536q.001-.766.254-1.539l34.305 41.219c3.074 3.582 4.609 7.254 4.609 11.008q0 5.631-3.2 10.367c-2.136 3.156-4.991 5.719-8.577 7.68q-5.373 2.945-11.777 2.945zm136.983 15.363-4.098-10.75 50.688-18.434 4.098 10.496zm16.04-196.089q-4.863 1.537-9.469-1.152-4.61-2.69-4.61-9.855v-20.992h11.009v20.48l13.566-4.61V92.81h11.777v25.09c0 3.07-1.067 5.547-3.2 7.422q-3.198 2.82-6.785 4.098zm22.273-7.68v-12.8l14.336-5.117V83.34h11.008v25.345q.001 4.607-2.816 7.292-2.814 2.691-5.887 3.97z"/><path d="M1663.6 259.2v-20.223h121.86q-.768.767-1.535 1.406c-.512.426-.938.813-1.281 1.152v-22.527q0-9.727-1.665-15.359c-1.109-3.757-2.644-6.613-4.605-8.578q-2.947-2.94-7.043-4.734-6.655-2.56-14.078.254-7.425 2.82-15.746 10.625c-5.547 5.207-11.52 11.945-17.918 20.223s-13.355 18.05-20.863 29.312l-13.059-7.68a1338 1338 0 0 1 13.57-23.297q7.166-12.03 15.359-22.652c5.46-7.086 11.266-13.102 17.406-18.05q9.217-7.425 19.84-9.856 10.628-2.431 22.914 2.176c8.875 3.753 15.445 9.73 19.711 17.922q6.4 12.285 6.402 29.184v16.895q-.002 6.657-3.074 12.03-3.07 5.38-8.45 8.579-5.373 3.198-11.772 3.199zm24.32-16.383q2.046-11.01 2.305-21.633.253-10.625.254-20.863V99.461h20.48v93.438q0 18.177-2.43 30.848c-1.621 8.45-2.86 14.805-3.715 19.074zm134.206-101.369-3.84-10.496 20.734-7.68-2.816-9.215q-2.306-6.402.511-12.546c1.88-4.094 4.864-6.739 8.961-7.934q6.656-1.793 12.414-.129c5.758 1.664 7.125 2.945 9.856 5.504q4.1 3.837 5.633 8.45 2.05 5.119 0 10.62-2.046 5.507-8.704 8.066zm27.902-22.273 11.008-4.094q2.049-.515 2.305-1.152.256-.64-.258-2.434-1.02-3.07-5.118-5.504c-4.098-2.434-5.804-2.003-9.218-1.152q-1.021.258-1.79 1.793-.773 1.536 0 3.586z"/><path d="M1801.6 259.2v-20.223h108.03q0 .254-.129.637a2.2 2.2 0 0 0-.125.64q-3.841-1.279-7.426-3.964a88 88 0 0 1-6.656-5.504q-8.191-7.428-16.766-16.258-8.577-8.832-16.516-14.465-9.47-6.657-18.43-9.598-8.96-2.946-16.895-4.738l4.606-19.711c5.293 1.195 11.648 3.027 19.074 5.504q11.132 3.709 22.91 11.902 11.262 7.938 20.352 17.539 9.087 9.597 16.77 16.254 6.14 5.377 10.238 7.937c4.098 2.56 5.632 2.816 8.703 3.328q4.61.767 12.289.766l.511 9.219q.257 3.07-.511 6.527c-.512 2.305-1.45 4.562-2.817 6.781a16.2 16.2 0 0 1-5.375 5.379q-3.328 2.046-8.191 2.047zm257.825-111.869q-7.425-.001-13.441-3.71-6.017-3.715-9.598-9.856-3.585-6.147-3.586-13.312 0-7.425 3.586-13.57 3.58-6.14 9.598-9.727 6.018-3.584 13.441-3.582c7.423.002 9.43 1.192 13.438 3.582 4.012 2.391 7.21 5.633 9.602 9.727q3.583 6.147 3.582 13.57.001 7.166-3.582 13.312-3.585 6.141-9.602 9.855-6.012 3.71-13.438 3.711m0-11.52q6.655.001 11.008-4.48 4.352-4.479 4.352-10.88 0-6.655-4.352-11.007t-11.008-4.352c-4.27 0-7.894 1.45-10.883 4.352q-4.477 4.352-4.477 11.008 0 6.4 4.477 10.879 4.48 4.481 10.883 4.48m-.025 49.923c-3.07 0-5.633-1.027-7.68-3.074s-3.074-4.61-3.074-7.68 1.027-5.633 3.074-7.68 4.61-3.074 7.68-3.074 5.633 1.028 7.68 3.074 3.074 4.61 3.074 7.68-1.027 5.633-3.074 7.68-4.61 3.074-7.68 3.074m-54.3 124.665v-20.223h23.297q10.752-.001 16.254-7.426 5.506-7.424 5.504-19.965V224.13q.002-5.12 2.687-7.043 2.69-1.917 7.168-2.176 4.483-.253 10.371-.254v48.13q.002 12.54-4.867 23.421-4.862 10.88-14.207 17.535c-6.226 4.438-13.867 6.657-22.91 6.657zM2115.238 78.73l-4.098-10.75 50.688-18.433 4.098 10.496zm6.64 59.901q-4.863 1.537-9.469-1.152-4.61-2.69-4.61-9.855v-20.992h11.009v20.48l13.566-4.61V97.67h11.777v25.09c0 3.07-1.067 5.547-3.2 7.422q-3.198 2.82-6.785 4.098zm22.273-7.68v-12.8l14.336-5.118V88.201h11.008v25.344c0 3.07-.937 5.504-2.816 7.293q-2.814 2.69-5.887 3.97zm27.393 128.249v-20.223h37.887V259.2zm-83.711 51.199v-20.223h49.406q7.424 0 13.184-3.84c3.84-2.562 6.828-5.973 8.96-10.242a29.94 29.94 0 0 0 3.2-13.566v-56.32q0-7.68-3.453-12.03-3.456-4.353-9.86-4.352-6.654-.002-14.206 3.968-7.553 3.968-13.184 11.391-5.632 7.426-6.91 18.43-.258 5.379 4.476 10.371c3.16 3.328 7.21 4.993 12.16 4.993h40.449v20.223h-40.449q-10.494 0-18.941-5.122c-5.633-3.414-10.07-7.976-13.312-13.695-3.242-5.718-4.695-11.816-4.352-18.305q1.278-12.286 6.399-22.016 5.12-9.726 12.93-16.512 7.805-6.782 16.895-10.367 9.086-3.585 17.793-3.585 8.7-.252 16.383 3.585 7.679 3.84 12.418 11.262c3.156 4.954 4.734 11.094 4.734 18.434v59.906q0 8.703-3.199 17.277-3.2 8.58-9.09 15.36-5.885 6.786-14.207 10.882c-8.322 4.096-11.816 4.094-18.816 4.094zm180.505-217.34-4.098-10.75 50.688-18.434 4.098 10.496z"/><path d="M2205.6 259.2v-20.223h150.27q-.77.767-1.41 1.277-.64.515-1.406 1.281c.34-9.558-.98-19.199-3.97-28.93q-4.481-14.59-14.718-26.879-10.241-12.286-26.371-19.969c-10.75-5.117-23.723-7.765-38.91-7.933l.512-19.97c14.508.173 27.39 2.263 38.656 6.274q16.898 6.014 29.44 16 12.541 9.984 20.606 22.527c8.065 12.543 9.3 17.11 11.777 26.238 2.472 9.133 3.625 18.047 3.457 26.754q0 6.655-3.329 12.031-3.327 5.373-8.578 8.45-5.244 3.07-11.648 3.07zm82.688-.258-.512-19.965q6.4 0 10.238-3.457 3.844-3.457 3.844-8.32c0-1.367-.344-3.156-1.027-5.375q-1.02-3.329-3.84-7.426-5.632-8.701-12.031-12.289-6.4-3.582-11.773-3.71-5.378-.13-8.45 1.921-2.05 1.533-3.585 3.969-1.535 2.43-1.535 7.039v28.672h-19.97v-28.672q0-8.961 3.715-16.258 3.71-7.294 10.11-11.391 9.216-6.145 20.226-5.633 11.005.51 21.758 6.914 10.752 6.4 18.434 18.43 3.841 5.89 5.887 11.777 2.049 5.89 2.305 11.773.258 10.243-4.992 17.41c-5.25 7.167-7.852 8.364-13.055 10.75q-7.809 3.587-15.746 3.84zm198.137-114.691q-7.425-.001-13.441-3.71-6.017-3.715-9.598-9.856-3.585-6.147-3.586-13.312 0-7.425 3.586-13.57 3.58-6.14 9.598-9.727 6.018-3.584 13.441-3.582c7.423.002 9.43 1.192 13.438 3.582 4.012 2.391 7.21 5.633 9.602 9.727q3.583 6.147 3.582 13.57.001 7.166-3.582 13.312-3.585 6.141-9.602 9.855-6.012 3.71-13.438 3.711m0-11.52q6.655.001 11.008-4.48 4.352-4.478 4.352-10.88 0-6.655-4.352-11.007t-11.008-4.352c-4.27 0-7.894 1.45-10.883 4.352q-4.476 4.352-4.477 11.008c0 4.265 1.493 7.894 4.477 10.879q4.48 4.481 10.883 4.48M2448.277 259.2v-20.223h73.469q-.767.001-1.277.125-.515.129-1.282.129 0-14.59-6.656-24.574c-6.656-9.984-9.855-12.16-16.254-16.512q-9.601-6.53-19.074-11.137l8.961-17.922q6.658 3.328 15.617 8.707 8.958 5.374 17.535 13.309c5.719 5.293 10.496 11.648 14.336 19.074q5.759 11.135 5.758 25.727 0 6.146-2.941 11.52-2.948 5.379-8.192 8.578-5.248 3.2-12.418 3.2zm111.861-121.08-4.098-10.75 50.688-18.434 4.098 10.496zm42.262 170.244c-3.07 0-5.633-1.027-7.68-3.074s-3.074-4.61-3.074-7.68 1.027-5.633 3.074-7.68 4.61-3.074 7.68-3.074 5.633 1.027 7.68 3.074 3.074 4.61 3.074 7.68-1.027 5.633-3.074 7.68-4.61 3.074-7.68 3.074"/><path d="M2539.4 259.2v-20.223h108.03q0 .254-.129.637a2.2 2.2 0 0 0-.125.64q-3.841-1.279-7.426-3.964a88 88 0 0 1-6.656-5.504q-8.191-7.428-16.766-16.258-8.577-8.832-16.516-14.465-9.47-6.657-18.43-9.598-8.96-2.946-16.895-4.738l4.606-19.711c5.293 1.195 11.648 3.027 19.074 5.504q11.132 3.709 22.91 11.902 11.262 7.938 20.352 17.539 9.087 9.597 16.77 16.254 6.14 5.377 10.238 7.937c4.098 2.56 5.632 2.816 8.703 3.328q4.61.767 12.289.766l.511 9.219q.257 3.07-.511 6.527c-.512 2.305-1.45 4.562-2.817 6.781a16.2 16.2 0 0 1-5.375 5.379q-3.328 2.046-8.191 2.047zm191.525-126.709q-7.425-.001-13.441-3.71-6.017-3.715-9.598-9.856-3.585-6.147-3.586-13.312 0-7.425 3.586-13.57 3.58-6.14 9.598-9.727 6.018-3.584 13.441-3.582c7.423.002 9.43 1.192 13.438 3.582 4.012 2.391 7.21 5.633 9.602 9.727q3.583 6.147 3.582 13.57.001 7.166-3.582 13.312-3.585 6.141-9.602 9.855-6.012 3.71-13.438 3.711m0-11.52q6.655.001 11.008-4.48 4.352-4.479 4.352-10.88 0-6.655-4.352-11.007-4.352-4.353-11.008-4.352c-4.27 0-7.894 1.45-10.883 4.352q-4.476 4.352-4.477 11.008 0 6.4 4.477 10.879 4.48 4.481 10.883 4.48m-.025 187.123c-3.07 0-5.633-1.027-7.68-3.074s-3.074-4.61-3.074-7.68 1.027-5.633 3.074-7.68 4.61-3.074 7.68-3.074 5.633 1.027 7.68 3.074 3.074 4.61 3.074 7.68-1.027 5.633-3.074 7.68-4.61 3.074-7.68 3.074"/><path d="M2680 259.2v-20.223h79.871a9 9 0 0 1-1.152 1.406 9.2 9.2 0 0 0-1.153 1.41V166.27h20.227v69.633q0 6.657-3.328 11.906a24.7 24.7 0 0 1-8.703 8.32q-5.38 3.072-11.777 3.071zm111.538-230.141-4.098-10.75 50.688-18.434 4.098 10.496zm-1.238 60.16V74.883h20.992l-6.656-13.824s-.258-.555-.77-1.664c-.511-1.11-.808-2.473-.894-4.098q-.129-2.43 1.406-4.734 1.283-1.792 3.715-2.945 2.43-1.151 5.758-1.153h25.602v14.34h-18.945l6.656 13.82q.767 1.793 1.664 4.739c.597 1.96.129 3.968-1.406 6.015q-1.792 2.56-4.61 3.2-2.818.639-4.351.64zm14.817 169.981V99.46h19.969v138.75q-.001 5.632-2.305 10.496c-1.539 3.242-3.797 5.805-6.785 7.68q-4.481 2.817-10.879 2.816z"/></svg>