<svg xmlns="http://www.w3.org/2000/svg" width="6338" height="1011" preserveAspectRatio="xMinYMin slice" viewBox="-100 -250 6338 1011"><path fill="#fff" d="M14 256q27-66 35-117.5T51.5 42t-21-90.5T-5-149l-45 91q19 42 36 85t26 97.5T14 256M.5 411q16.5 0 28-12T40 370.5t-11.5-28T.5 331-28 342.5t-12 28 12 28.5T.5 411M324-120q-44-29-92-29-38 0-69.5 18t-50 49T94-13q0 30 15 60.5T162 99q39 20 61.5 40t30.5 47 3 69q30-56 30-96.5T261.5 88 189 35q-63-30-63-68 0-17 14-27t34-14.5 36-4.5q26 0 54 8.5T324-42zm-76.5 531q16.5 0 28-12t11.5-28.5-11.5-28-28-11.5-28.5 11.5-12 28 12 28.5 28.5 12m157 0q16.5 0 28-12t11.5-28.5-11.5-28-28-11.5-28.5 11.5-12 28 12 28.5 28.5 12m0-180q16.5 0 28-12t11.5-28.5-11.5-28-28-11.5-28.5 11.5-12 28 12 28.5 28.5 12M531 493q12 0 20.5-8.5T560 464t-8.5-20.5T531 435t-20.5 8.5T502 464t8.5 20.5T531 493m22-267q-49 26-59.5 75T529 411l43-58q-12-11-22-33t-11-47.5 14-46.5m120 0q-49 26-59.5 75T649 411l43-58q-12-11-22-33t-11-47.5 14-46.5m51 185h310v-70H794v-70h240V61h-70v140h-50V61h-70v140h-50V61h-70zm350 0h70V222h140V61h-70v91h-70V61h-70zm250 0h70V61h-70zm110-210v70h70v-70zm190 5 47-79-17-10-47 79zm-210 455h242q17 0 27.5-10.5T1694 621V411h40v-70h-50l-70-70-40 70 40 40v210h-100q-15 0-27.5-4.5T1466 571z"/><path fill="#fff" d="M1694 411h260v-70h-41q1-9 1-20 0-38-29.5-64t-70.5-26-70.5 26-29.5 64q0 11 2 20h-22zm120-70q-8 0-14-6t-6-14 6-14 14-6 14 6 6 14-6 14-14 6"/><path fill="#fff" d="M2034 301v-450l-80 20v470h-20v70h140v-70q-16 0-28-12t-12-28"/><path fill="#fff" d="M2054 411h539q5 0 13-2.5t8-18.5q0-52-11.5-83.5t-29-48-37-22-36.5-5.5h-370l27-70h-3l-80 140h416q17 0 28.5 11.5T2530 341h-476zm931 224 47-79-17-10-47 79zm46 0 47-79-17-10-47 79zm-246-114h560l41-70h-573q-24 0-42-5t-35-21l-31-31q-8-9-8.5-23.5t3.5-23.5q2-5 6-6 2 0 5 3l52 52q15 15 31 15h67v-70h-31q-7 0-11.5-3.5t-6.5-5.5l-64-64q-15-15-29-9t-25.5 25-20.5 44.5-14 49-5 38.5q0 42 17 64.5t47 31 67 9.5"/><path fill="#fff" d="M2841 411h690v-70h-43q-7-48-26.5-71.5t-42.5-31-42-7.5h-436v-380l-80 20v470h-20zm100-70v-40h426q17 0 28.5 11.5T3407 341z"/><path fill="#fff" d="M3491 411h339l41-70h-137q-29 0-59-19.5t-60-51.5-61-69l-43 70q14 21 32.5 40.5T3573 341h-82zm560-325 47-79-17-10-47 79zm-180 325h339q5 0 13-2.5t8-18.5q0-70-23.5-111.5t-71-68T4015 161l-80 140h172q17 0 28.5 11.5T4147 341h-236zm350 110h256q22 0 29.5-32t7.5-78h37v-70h-44q-9-44-33-77t-72-33q-42 0-71.5 26t-29.5 63.5 29.5 64T4401 411h31q3 21-1 40h-110q-33 0-48-20zm180-180q-8 0-14-6t-6-14 6-14 14-6 14 6 6 14-6 14-14 6"/><path fill="#fff" d="M4651 521q100 0 100-90V196q-15 26-42.5 30.5T4651 231q-41 0-70.5 26t-29.5 64q0 10 2 20h-52v70h52q-1 4-1.5 9.5t-.5 10.5q0 45 29.5 67.5T4651 521m0-70q-8 0-14-6t-6-14q0-9 6-14.5t14-5.5 14 5.5 6 14.5q0 8-6 14t-14 6m0-110q-8 0-14-6t-6-14 6-14 14-6 14 6 6 14-6 14-14 6m140 70h600v-70h-43q-7-48-26.5-71.5t-42.5-31-42-7.5h-326l27-70h-3l-80 140h372q17 0 28.5 11.5T5267 341h-435zm660 124 47-79-17-10-47 79z"/><path fill="#fff" d="M5351 411h339l41-70h-137q-29 0-59-19.5t-60-51.5-61-69l-43 70q14 21 32.5 40.5T5433 341h-82zm197 122 47-79-17-10-47 79z"/><path fill="#fff" d="M5458 299q43 0 71.5-20t28.5-50v-90l-80 20v70q0 14-2.5 29.5T5458 274zm424.147-362h107.633l17.36-28.934h-52.659q-6.365 0-10.127-4.63-3.761-4.629-3.761-10.415 0-6.366 5.497-12.152 5.498-5.787 16.493-5.787 9.258 0 19.675 4.05-4.051-13.888-13.889-21.41t-20.832-7.523q-15.624 0-25.172 8.97-9.548 8.969-12.731 21.989t.29 26.33v.578h-10.996z"/><path fill="#fff" d="M5926 411q45 0 89-18t73-52q-21 9-52 15.5t-63 6.5-60.5-8.5T5866 326t-18-55v-420l-80 20v400q0 47 22.5 78.5T5849 396t77 15"/></svg>