<?xml version="1.0" encoding="UTF-8"?>
<svg version="1.1" viewBox="0 0 2148 322.12" xmlns="http://www.w3.org/2000/svg">
 <style>:root { color-scheme: light dark; }</style>
 <g fill="light-dark(black, white)">
  <g transform="translate(16 220.8)">
   <path d="m21.844-52.906c6.1445-15.02 10.129-28.387 11.949-40.105 1.8203-11.723 2.1055-22.699 0.85156-32.941-1.25-10.238-3.6406-20.535-7.168-30.891-3.5273-10.352-7.5664-21.789-12.117-34.305l-15.359 31.062c4.3242 9.5586 8.418 19.23 12.289 29.016 3.8672 9.7812 6.8242 20.875 8.875 33.277 2.0469 12.402 2.2734 27.363 0.67969 44.887zm4.9492 48.809c2.6172-2.7305 3.9258-5.9727 3.9258-9.7266s-1.3086-6.9414-3.9258-9.5586c-2.6133-2.6172-5.8008-3.9258-9.5547-3.9258s-7 1.3086-9.7305 3.9258-4.0938 5.8047-4.0938 9.5586 1.3633 6.9961 4.0938 9.7266 5.9766 4.0977 9.7305 4.0977 6.9414-1.3672 9.5547-4.0977z"/>
  </g>
  <g transform="translate(65.156 220.8)">
   <path d="m78.508-181.25c-10.012-6.6016-20.48-9.9024-31.402-9.9024-8.6484 0-16.555 2.0508-23.723 6.1445-7.168 4.0977-12.859 9.6719-17.066 16.727-4.2109 7.0547-6.3164 14.906-6.3164 23.551 0 6.8281 1.707 13.711 5.1211 20.652 3.4141 6.9414 9.4414 12.801 18.09 17.578 8.875 4.5508 15.871 9.1016 20.992 13.652s8.5898 9.8984 10.41 16.043c1.8203 6.1445 2.1602 13.996 1.0234 23.555 6.8281-12.746 10.242-23.723 10.242-32.941 0-9.2148-2.9023-17.238-8.707-24.062-5.8008-6.8281-14.051-12.859-24.746-18.09-14.336-6.8281-21.504-14.566-21.504-23.211 0-3.8711 1.5938-6.9414 4.7812-9.2188 3.1836-2.2734 7.0508-3.9219 11.605-4.9492 4.5508-1.0234 8.6445-1.5352 12.285-1.5352 5.918 0 12.062 0.96875 18.434 2.9024 6.3711 1.9336 13.199 5.1758 20.48 9.7266zm-16.555 177.15c2.6172-2.7305 3.9258-5.9727 3.9258-9.7266s-1.3086-6.9414-3.9258-9.5586-5.8047-3.9258-9.5586-3.9258-6.9961 1.3086-9.7266 3.9258-4.0977 5.8047-4.0977 9.5586 1.3672 6.9961 4.0977 9.7266 5.9727 4.0977 9.7266 4.0977 6.9414-1.3672 9.5586-4.0977z"/>
  </g>
  <g transform="translate(157.31 220.8)">
   <path d="m23.383-4.0977c2.6172-2.7305 3.9258-5.9727 3.9258-9.7266s-1.3086-6.9414-3.9258-9.5586-5.8047-3.9258-9.5586-3.9258-6.9961 1.3086-9.7266 3.9258-4.0977 5.8047-4.0977 9.5586 1.3672 6.9961 4.0977 9.7266 5.9727 4.0977 9.7266 4.0977 6.9414-1.3672 9.5586-4.0977zm0-61.438c2.6172-2.7305 3.9258-5.9727 3.9258-9.7305 0-3.7539-1.3086-6.9375-3.9258-9.5547s-5.8047-3.9258-9.5586-3.9258-6.9961 1.3086-9.7266 3.9258-4.0977 5.8008-4.0977 9.5547c0 3.7578 1.3672 7 4.0977 9.7305s5.9727 4.0938 9.7266 4.0938 6.9414-1.3633 9.5586-4.0938z"/>
  </g>
  <g transform="translate(198.27 220.8)">
   <path d="m23.039 25.09c1.9336-1.9375 2.9023-4.2695 2.9023-7s-0.96875-5.0625-2.9023-6.9961c-1.9336-1.9336-4.2656-2.9023-6.9961-2.9023s-5.0625 0.96875-6.9961 2.9023c-1.9375 1.9336-2.9023 4.2656-2.9023 6.9961s0.96484 5.0625 2.9023 7c1.9336 1.9336 4.2656 2.8984 6.9961 2.8984s5.0625-0.96484 6.9961-2.8984zm0.51172-88.238c-11.148 5.918-17.918 14.453-20.309 25.602-2.3906 11.152 1.6484 23.664 12.117 37.547l14.68-19.797c-2.7305-2.5039-5.2344-6.2578-7.5117-11.266-2.2734-5.0039-3.5273-10.41-3.7539-16.211-0.22656-5.8047 1.3633-11.094 4.7773-15.875z"/>
  </g>
  <g transform="translate(239.22 220.8)">
   <path d="m23.551-63.148c-11.148 5.918-17.918 14.453-20.309 25.602-2.3906 11.152 1.6484 23.664 12.117 37.547l14.68-19.797c-2.7305-2.5039-5.2344-6.2578-7.5117-11.266-2.2734-5.0039-3.5273-10.41-3.7539-16.211-0.22656-5.8047 1.3633-11.094 4.7773-15.875z"/>
  </g>
  <g transform="translate(280.17 220.8)">
   <path d="m40.961-119.46v47.785h-17.066v-47.785h-23.895v119.46h105.81v-23.895h-81.918v-23.891h81.918v-71.68h-23.891v47.785h-17.07v-47.785z"/>
  </g>
  <g transform="translate(399.64 220.8)">
   <path d="m47.785-119.46v31.059h-23.891v-31.059h-23.895v119.46h23.895v-64.512h47.785v-54.953z"/>
  </g>
  <g transform="translate(484.97 220.8)">
   <path d="m0-119.46v119.46h23.895v-119.46z"/>
  </g>
  <g transform="translate(522.52 220.8)">
   <path d="m0-71.68v23.895h23.895v-23.895z"/>
  </g>
  <g transform="translate(581.56 150.83)">
   <path d="m5.8008 0 16.043-26.965-5.8008-3.4141-16.043 26.965z"/>
  </g>
  <g transform="translate(560.06 220.8)">
   <path d="m-44.375 85.332h82.605c3.8672 0 6.9961-1.1914 9.3867-3.582 2.3867-2.3906 3.582-5.7461 3.582-10.07v-92.16l-27.305-27.305-13.656 23.891 13.656 13.656v71.68h-34.133c-3.4141 0-6.543-0.51172-9.3867-1.5391-2.8477-1.0234-5.1797-2.7852-7-5.2891zm75.094-85.332h34.133v-23.895h-34.133z"/>
  </g>
  <g transform="translate(618.09 220.8)">
   <path d="m-6.8281 0h88.75v-23.895h-13.996c0.22656-2.0469 0.33984-4.3242 0.33984-6.8242 0-8.4219-3.3555-15.645-10.066-21.676-6.7148-6.0312-14.734-9.0469-24.066-9.0469-9.3281 0-17.352 2.9609-24.062 8.875-6.7148 5.918-10.07 13.199-10.07 21.848 0 2.5 0.22656 4.7773 0.68359 6.8242h-7.5117zm40.961-23.895c-1.8203 0-3.4141-0.67969-4.7773-2.0469-1.3672-1.3672-2.0469-2.957-2.0469-4.7773s0.67969-3.4141 2.0469-4.7812c1.3633-1.3633 2.957-2.0469 4.7773-2.0469s3.4141 0.68359 4.7773 2.0469c1.3672 1.3672 2.0508 2.9609 2.0508 4.7812s-0.68359 3.4102-2.0508 4.7773c-1.3633 1.3672-2.957 2.0469-4.7773 2.0469z"/>
  </g>
  <g transform="translate(700.02 220.8)">
   <path d="m-6.8281 0h21.164c3.8672 0 6.9961-1.1953 9.3867-3.5859 2.3906-2.3867 3.5859-5.7422 3.5859-10.066v-177.5l-27.309 6.8281v160.43h-6.8281zm20.48 0h27.309v-23.895c-3.6406 0-6.8281-1.3633-9.5586-4.0938s-4.0938-5.918-4.0938-9.5586h-13.656z"/>
  </g>
  <g transform="translate(740.97 220.8)">
   <path d="m-6.8281 0h183.98c1.1367 0 2.6172-0.28516 4.4375-0.85156 1.8203-0.57031 2.7305-2.6758 2.7305-6.3164 0-11.832-1.3086-21.332-3.9258-28.5s-5.918-12.629-9.8984-16.387c-3.9805-3.7539-8.1914-6.2578-12.629-7.5078s-8.5898-1.8789-12.461-1.8789h-126.29l9.2188-23.891h-1.0234l-27.309 47.785h142c3.8672 0 7.1094 1.3086 9.7266 3.9258s3.9258 5.8594 3.9258 9.7266h-162.48z"/>
  </g>
  <g transform="translate(1046.1 297.25)">
   <path d="m5.8008 0 16.043-26.965-5.8008-3.4141-16.043 26.965zm15.703 0 16.043-26.965-5.8047-3.4141-16.039 26.965z"/>
  </g>
  <g transform="translate(938.94 220.8)">
   <path d="m44.715 37.547h191.14l13.996-23.895h-195.58c-5.4609 0-10.242-0.51172-14.336-1.5352-4.0977-1.0234-8.0781-3.4688-11.949-7.3398l-10.582-10.578c-1.8203-2.0508-2.8438-4.7227-3.0703-8.0234-0.22656-3.3008 0.22656-5.9727 1.3672-8.0195 0.45312-1.1406 1.0234-1.8203 1.7031-2.0508 0.68359 0 1.3672 0.34375 2.0508 1.0234l17.75 17.75c3.4102 3.4141 6.9375 5.1211 10.578 5.1211h22.871v-23.895h-10.582c-1.5938 0-2.8438-0.33984-3.7539-1.0234-0.91016-0.68359-1.707-1.3633-2.3906-2.0469l-21.844-21.848c-3.4141-3.4102-6.7148-4.4336-9.8984-3.0703-3.1875 1.3672-6.0898 4.2109-8.7031 8.5352-2.6172 4.3203-4.9492 9.3867-7 15.188-2.0469 5.8047-3.6406 11.379-4.7773 16.727s-1.707 9.7266-1.707 13.141c0 9.7852 2.0469 17.293 6.1445 22.527 4.0938 5.2344 9.6719 8.7617 16.727 10.582 6.5977 1.5938 13.879 2.5039 21.844 2.7305z"/>
  </g>
  <g transform="translate(1009.6 220.8)">
   <path d="m23.895 0h183.98c1.1367 0 2.6172-0.28516 4.4375-0.85156 1.8203-0.57031 2.7305-2.6758 2.7305-6.3164 0-11.832-1.3086-21.332-3.9258-28.5s-5.9141-12.629-9.8984-16.387c-3.9805-3.7539-8.1914-6.2578-12.629-7.5078s-8.5898-1.8789-12.457-1.8789h-171.69v23.895h168.28c3.8672 0 7.1094 1.3086 9.7266 3.9258s3.9258 5.8594 3.9258 9.7266h-181.93v23.895zm-30.723 0h21.164c3.8672 0 6.9961-1.1953 9.3867-3.5859 2.3906-2.3867 3.5859-5.7422 3.5859-10.066v-177.5l-27.309 6.8281v160.43h-6.8281zm201.39 0h34.133v-23.895h-34.133z"/>
  </g>
  <g transform="translate(1231.5 220.8)">
   <path d="m-6.8281 0h115.71l13.992-23.895h-46.762c-6.5977 0-13.312-2.2188-20.137-6.6562-6.8281-4.4375-13.711-10.238-20.652-17.406s-13.824-15.074-20.652-23.723l-14.676 23.895c3.1875 4.7773 6.8281 9.3867 10.922 13.824 4.0977 4.4375 7.5117 7.793 10.242 10.066h-27.992z"/>
  </g>
  <g transform="translate(1402.1 147.41)">
   <path d="m5.8008 0 16.043-26.965-5.8008-3.4141-16.043 26.965z"/>
  </g>
  <g transform="translate(1368 220.8)">
   <path d="m-21.504 37.547h115.71c1.1406 0 2.6172-0.28516 4.4375-0.85547 1.8203-0.56641 2.7305-2.6719 2.7305-6.3125 0-15.93-2.6719-28.617-8.0195-38.059-5.3477-9.4453-13.426-17.125-24.234-23.039-10.809-5.918-24.633-11.605-41.473-17.066l-27.309 47.785h58.711c3.8672 0 7.1094 1.3086 9.7266 3.9258s3.9258 5.8594 3.9258 9.7266h-80.555z"/>
  </g>
  <g transform="translate(1498.4 220.8)">
   <path d="m-17.066 37.547h82.945c5.2305 0 8.875-1.1367 10.922-3.4141 2.0469-2.2734 3.5273-5.4609 4.4375-9.5586 0.68359-2.957 1.1367-6.2578 1.3633-9.8984 0.23047-3.6406 0.34375-7.7344 0.34375-12.285v-2.3906h12.629v-23.895h-14.68c-0.45312-2.5-0.91016-4.8906-1.3633-7.168-2.7305-9.5547-7.1133-17.008-13.141-22.355-6.0312-5.3477-13.371-8.0234-22.016-8.0234-9.332 0-17.352 3.0156-24.066 9.0469-6.7109 6.0312-10.07 13.254-10.07 21.676 0 8.418 3.3594 15.645 10.07 21.672 6.7148 6.0312 14.734 9.0469 24.066 9.0469h10.578c0.23047 2.0469 0.34375 4.0977 0.34375 6.1445 0 2.5039-0.22656 5.0039-0.68359 7.5078h-37.547c-7.5078 0-12.969-2.2734-16.383-6.8242zm61.441-61.441c-1.8203 0-3.4141-0.67969-4.7812-2.0469-1.3633-1.3672-2.0469-2.957-2.0469-4.7773s0.68359-3.4141 2.0469-4.7812c1.3672-1.3633 2.9609-2.0469 4.7812-2.0469s3.4102 0.68359 4.7773 2.0469c1.3633 1.3672 2.0469 2.9609 2.0469 4.7812s-0.68359 3.4102-2.0469 4.7773c-1.3672 1.3672-2.957 2.0469-4.7773 2.0469z"/>
  </g>
  <g transform="translate(1594 220.8)">
   <path d="m34.133 37.547c22.758 0 34.133-10.238 34.133-30.719v-80.215c-3.4141 5.918-8.2461 9.3867-14.504 10.41-6.2578 1.0234-12.801 1.5352-19.629 1.5352-9.3281 0-17.352 2.9609-24.062 8.875-6.7148 5.918-10.07 13.199-10.07 21.848 0 2.5 0.22656 4.7773 0.68359 6.8242h-17.75v23.895h17.75c-0.45703 2.2773-0.68359 4.5508-0.68359 6.8281 0 10.238 3.3555 17.918 10.07 23.039 6.7109 5.1211 14.734 7.6797 24.062 7.6797zm0-61.441c-1.8203 0-3.4141-0.67969-4.7773-2.0469-1.3672-1.3672-2.0469-2.957-2.0469-4.7773s0.67969-3.4141 2.0469-4.7812c1.3633-1.3633 2.957-2.0469 4.7773-2.0469s3.4141 0.68359 4.7773 2.0469c1.3672 1.3672 2.0508 2.9609 2.0508 4.7812s-0.68359 3.4102-2.0508 4.7773c-1.3633 1.3672-2.957 2.0469-4.7773 2.0469zm0 37.547c-1.8203 0-3.4141-0.68359-4.7773-2.0469-1.3672-1.3672-2.0469-2.957-2.0469-4.7773s0.67969-3.4141 2.0469-4.7812c1.3633-1.3633 2.957-2.0469 4.7773-2.0469s3.4141 0.68359 4.7773 2.0469c1.3672 1.3672 2.0508 2.9609 2.0508 4.7812s-0.68359 3.4102-2.0508 4.7773c-1.3633 1.3633-2.957 2.0469-4.7773 2.0469z"/>
  </g>
  <g transform="translate(1675.9 220.8)">
   <path d="m0 0h183.98c1.1367 0 2.6133-0.28516 4.4336-0.85156 1.8242-0.57031 2.7344-2.6758 2.7344-6.3164 0-11.832-1.3086-21.332-3.9258-28.5s-5.918-12.629-9.8984-16.387c-3.9844-3.7539-8.1953-6.2578-12.633-7.5078-4.4336-1.25-8.5898-1.8789-12.457-1.8789h-111.27l9.2148-23.891h-1.0234l-27.309 47.785h126.98c3.8711 0 7.1133 1.3086 9.7305 3.9258s3.9258 5.8594 3.9258 9.7266h-148.82zm170.67 0h34.133v-23.895h-34.133z"/>
  </g>
  <g transform="translate(1895.3 263.12)">
   <path d="m5.8008 0 16.043-26.965-5.8008-3.4141-16.043 26.965z"/>
  </g>
  <g transform="translate(1873.8 220.8)">
   <path d="m-6.8281 0h115.71l13.992-23.895h-46.762c-6.5977 0-13.312-2.2188-20.137-6.6562-6.8281-4.4375-13.711-10.238-20.652-17.406s-13.824-15.074-20.652-23.723l-14.676 23.895c3.1875 4.7773 6.8281 9.3867 10.922 13.824 4.0977 4.4375 7.5117 7.793 10.242 10.066h-27.992z"/>
  </g>
  <g transform="translate(1928.5 262.45)">
   <path d="m5.8008 0 16.043-26.965-5.8008-3.4141-16.043 26.965z"/>
  </g>
  <g transform="translate(1910.4 182.58)">
   <path d="m-6.8281 0c9.7852 0 17.922-2.2773 24.406-6.8281s9.7305-10.238 9.7305-17.066v-30.719l-27.309 6.8281v23.891c0 3.1875-0.28516 6.543-0.85156 10.07-0.57031 3.5273-2.5625 5.2891-5.9766 5.2891z"/>
  </g>
  <g transform="translate(2048.3 59)">
   <path d="m28.887-9.875h-4.1445c-1.4492 0-2.6016-0.52734-3.457-1.582-0.85547-1.0508-1.2852-2.2383-1.2852-3.5547 0-1.4492 0.625-2.832 1.875-4.1484 1.2539-1.3164 3.1289-1.9727 5.6289-1.9727 2.1094 0 4.3477 0.45703 6.7188 1.3789-0.92188-3.1602-2.5039-5.5938-4.7422-7.3047-2.2383-1.7148-4.6094-2.5703-7.1094-2.5703-4.082 0-7.2773 1.3164-9.582 3.9531-2.3047 2.6328-3.5859 5.793-3.8516 9.4805-0.26172 2.2383-0.066406 4.3438 0.59375 6.3203h-3.7539l-5.7266 9.875h36.738l5.9258-9.875z"/>
  </g>
  <g transform="translate(2009.4 220.8)">
   <path d="m27.309-47.785v-143.36l-27.309 6.8281v139.95c0.45703 9.332 2.957 17.184 7.5078 23.555 5.2344 7.0547 11.949 12.285 20.141 15.699 8.1914 3.4141 16.953 5.1211 26.281 5.1211 10.242 0 20.367-2.0469 30.379-6.1445 10.012-4.0938 18.32-10.012 24.918-17.75-4.7773 2.0508-10.695 3.8125-17.75 5.293-7.0547 1.4766-14.223 2.2188-21.504 2.2188s-14.164-0.96875-20.648-2.9023c-6.4883-1.9336-11.777-5.1758-15.875-9.7266-4.0938-4.5508-6.1406-10.809-6.1406-18.773z"/>
  </g>
 </g>
</svg>
