<svg xmlns="http://www.w3.org/2000/svg" width="1200" height="300" viewBox="0 0 12000 3000"><g fill="#fff"><path fill="#d22e1f" d="M318 2650c56 0 100-44 100-100s-44-100-100-100-100 44-100 100 44 100 100 100"/><path d="M398 2850c172 0 322-112 328-300 6-192-78-332-198-500 0 122-28 218-100 300 62 36 102 104 102 182 0 118-94 212-212 212s-212-94-212-212c-2-68 22-156 124-218 36-22 100-42 166-32-8-32-40-54-70-54 12-28 36-158-104-180 88 52 72 144 20 196-16 16-34 34-52 46-90 62-122 150-122 230 0 182 148 330 330 330"/><path d="M796 2500h20v-200h-20zm-200 50h700v-200H596zm680 0h120c-60-46-100-118-100-200v-50h-20zm-230-200c-28 0-50-22-50-50s22-50 50-50 50 22 50 50-22 50-50 50m-250-50c0 138 112 250 250 250s250-112 250-250c0-26-2-54-18-104-38-122-168-212-232-246 0 52-56 104-84 114-96 34-166 128-166 236"/><path d="M1596 2550V550h-200v2000zm0-1960V150c-60 136-170 240-300 300 6 0 100 2 100 100v40zm-400 1960h400v-200h-400z"/><path d="M1696 2250h400v-200h-240zM2696 642c-28-318-242-492-598-492h-402c116 78 188 172 200 300 70-66 108-100 202-100 252 0 380 98 398 308 32 378-234 744-490 1094-114 156-270 364-310 498h214c184-360 842-964 786-1608M1580 2350v200h100v-200zm16 200h1600v-200H1596zm300-300h1000v-200H1896zm1100 300h200v-500h-200zm-50-800c-140 0-250 114-250 252v88h200v-92c0-26 22-48 50-48s50 22 50 48v92h200v-88c0-138-112-252-250-252m998 800 116-200-462-800c-40 46-84 92-152 130zm-608-460 10 18 170-100-10-18c-26-48-14-114 36-136l22-10-100-174-18 10c-146 80-190 266-110 410m608 460h116v-200h-116zm-490-852 172-100-60-104c-10 74-52 146-122 186zm-118 1152h2144l116-200H3658c48-46 106-80 172-100l-324-560-160 118 210 366c-114 94-194 226-220 376"/><path d="M3960 2350v200h200v-200zm200 200h1600v-200H4160zm1400 0h200v-500h-200zm-1400-500v200h1300v-200zm1350-300c-140 0-250 114-250 252v88h200v-92c0-26 22-48 50-48s50 22 50 48v92h200v-88c0-138-112-252-250-252m-1350 800h200V550h-200zm0-1960h200v-40c0-98 94-100 100-100-130-60-240-164-300-300z"/><path d="M6160 2550h200v-200h-200zm-224-180h302c-94-22-156-74-156-182 0-110 78-238 78-392 0-186-144-346-320-346h-380c74 100 106 200 100 300 16-32 72-100 150-100h70c86 0 180 62 180 148 0 128-82 230-82 390 0 90 24 146 58 182m-276 180h500v-200h-500zm660 0h340c-116-46-200-170-200-300 0 0 0 100-100 100h-40z"/><path fill="#d22e1f" d="M6760 1950c56 0 100-44 100-100s-44-100-100-100-100 44-100 100 44 100 100 100"/><path d="M6642 2850c120 0 218-98 218-216v-284h-200v300c0 70-54 124-124 124-30 0-54-8-76-24 40 60 106 100 182 100m218-460v-340c-46 116-170 200-300 200 0 0 100 0 100 100v40zm340 460c240 0 260-220 260-320h-200c0 76-26 248-300 246 82 62 162 74 240 74m-240-300h500v-200h-500zm300-80h200v-420h-200zm0-400h200v-120c-46 60-118 100-200 100zm-100 300v-20c0-56 44-100 100-100h20v-200h-20c-166 0-300 134-300 300v20z"/><path d="M8364 2550h348l-174-300zm-1004 0h300v-200h-300zm238-734 10 18 170-100-10-18c-26-48-14-114 36-136l22-10-100-174-18 10c-144 84-190 266-110 410m462 734h420v-200h-420zm254-88 166-112-620-1074c-40 46-84 92-152 130zm-468-606-94-166-148 136 130 226zm-312 668c0 180 144 326 324 326s326-146 326-326c0-68-20-132-56-184l-144-246-112 198 98 170c10 18 16 40 16 62 0 70-56 126-126 126s-126-56-126-126c0-22 6-44 16-62l110-192 112-198 48-82-114-196-316 546c-36 52-56 116-56 184M7360 650c32-144 132-322 376-322 278 0 440 228 428 586-6 206-46 422-128 626l122 210c98-182 206-508 206-882 0-438-232-718-544-718-276 0-460 224-460 500m1352 1100v400h200v-400zm0 800h1300v-200H8712zm0-500v200h1600v-200zm1400 500h200v-500h-200zm-50 300c138 0 250-114 250-252v-88h-200v92c0 26-22 48-50 48s-50-22-50-48v-92h-200v88c0 138 110 252 250 252m-1350-340v340c46-116 170-200 300-200 0 0-100 0-100-100v-40zm0-720h200v-40c0-100 100-100 100-100-130 0-254-84-300-200z"/><path fill="#d22e1f" d="M10562 2850c56 0 100-44 100-100s-44-100-100-100-100 44-100 100 44 100 100 100"/><path d="M10712 2550h200v-200h-200zm-224-180h302c-94-22-156-74-156-182 0-110 78-238 78-392 0-186-144-346-320-346h-380c74 100 106 200 100 300 16-32 72-100 150-100h70c86 0 180 62 180 148 0 128-82 230-82 390 0 90 24 146 58 182m-276 180h500v-200h-500zm660 0h340c-116-46-200-170-200-300 0 0 0 100-100 100h-40z"/><path fill="#d22e1f" d="M10892 2850c56 0 100-44 100-100s-44-100-100-100-100 44-100 100 44 100 100 100"/><path d="M10792 2250h200v-500h-200v300zm200-460v-340c-46 116-170 200-300 200 0 0 100 0 100 100v40zm-400 460h400v-200h-400zm556-1976c-4-24-12-40-38-50 12-22 10-50-4-72-4 28-16 50-58 72-50 24-70 74-54 128h-32v66h258c-38-16-66-56-66-100-8 18-26 34-48 34-26 0-50-24-50-50 0-28 24-50 50-50 18 0 34 8 42 22m484 2076h-300v200h300zm-400 200h200V550h-200zm0-1960h200v-40c0-98 94-100 100-100-130-60-240-164-300-300zm360 1960h340c-116-46-200-170-200-300 0 0 0 100-100 100h-40z"/></g></svg>