<?xml version="1.0" encoding="UTF-8"?>
<svg width="2792" height="421" preserveAspectRatio="xMinYMin slice" version="1.1" viewBox="-34 -152 2792 421" xmlns="http://www.w3.org/2000/svg">
 <rect x="-64.171" y="-168.25" width="2866" height="462"/>
 <g fill="#fff">
  <path transform="matrix(.3125 0 0 -.3125 -.9375 85.438)" d="m16 13q-10 0-10 10 0 5 4 8 22 17 41 37.5t37 42.5q3 4 8 4 10 0 10-10 0-4-2-6-37-48-82-84-2-2-6-2z"/>
  <path transform="matrix(.3125 0 0 -.3125 0 117)" d="m719 793c-5.3333.66667-9.6667-1.6667-13-7-10.667-18-21.833-33.833-33.5-47.5s-24.167-24.5-37.5-32.5c-8-5.3333-12.167-13.5-12.5-24.5s.83334-30.5 3.5-58.5c0-2 .16667-4 .5-6s.5-4.3333.5-7c2.6667-30 4.8333-67 6.5-111s3-91.5 4-142.5 1.8333-102.5 2.5-154.5c.20181-15.742.49334-30.671.75625-45.862-1.5182 6.9803-3.2598 14.095-5.2562 21.362-8.3333 30.333-20.667 59.5-37 87.5s-36.5 51-60.5 69-51.667 27-83 27c-36 0-68.167-7.6667-96.5-23s-52-35.667-71-61-32.333-53-40-83c-6.4773-25.346-8.5011-50.692-6.175-76.038-6.3086 8.355-13.411 16.371-21.325 24.038-21.333 20.667-50.667 41.333-88 62-6.6667 3.3333-11.667 3.6667-15 1s-5.6667-6.6667-7-12c-6.6667-26-18.833-48.667-36.5-68s-38.167-32.333-61.5-39c-8-2-11.833-5.8333-11.5-11.5s4.8333-9.5 13.5-11.5c39.333-8 72.167-16.5 98.5-25.5 26.333-9 46.333-23.333 60-43s20.833-49.833 21.5-90.5v-10c.66667-24.667 1-52.833 1-84.5s-.66667-66.5-2-104.5c-35.333-.66667-62.333 1.3333-81 6-18.667 4.6667-35 10.667-49 18-2 1.3333-4.3333 2.3333-7 3s-5-.66667-7-4c-14-20.667-27.833-38.167-41.5-52.5s-26.5-24.167-38.5-29.5c-7.3333-2.6667-10.5-6.6667-9.5-12s4.5-10 10.5-14c15.333-10.667 34.5-19.167 57.5-25.5s47.167-10.5 72.5-12.5c25.333-2 49.833-1.6667 73.5 1s43.833 7.3333 60.5 14c12 5.3333 21.333 14.833 28 28.5s11.5 28.833 14.5 45.5 4.5 32 4.5 46v12c.66667 22.667 1.1667 48.667 1.5 78s.5 59.167.5 89.5c0 30.333-.33333 57.5-1 81.5-.3573 20.009-2.0512 38.286-4.9938 54.944 17.647-20.729 42.963-37.053 75.994-48.944 33.333-12 75.667-18 127-18 40.667.66667 73.333 4.5 98 11.5s42.5 19.833 53.5 38.5c5.2935 8.9828 9.2789 19.708 12.025 32.088 1.563-14.042 6.212-25.249 13.975-33.588 9-9.6667 25.833-14.5 50.5-14.5h22 27 32 37.5 40 42.5 44.5 46.5 48.5 49.5 50.5 51.5 52 52.5 52.5 52 51c17.333 0 29.167 3.5 35.5 10.5s9.5 17.5 9.5 31.5c0 28-4.8333 59.667-14.5 95s-22.167 66.333-37.5 93c-5.3333 10-12.333 15-21 15h-38c-12.667 0-25.5-.16667-38.5-.5l-39-1c-13-.33333-26.167-.66667-39.5-1s-26.5-.66667-39.5-1-26.167-.5-39.5-.5-26.5-.16667-39.5-.5l-39-1c-13-.33333-25.833-.5-38.5-.5s-25.333.16667-38 .5l-38 1c-12.667.33333-25 .66667-37 1s-23.833.83333-35.5 1.5-23.333 1.5-35 2.5-22.833 2.1667-33.5 3.5l51 79c4.6667 7.3333 4.8333 12.167.5 14.5s-8.8333.83333-13.5-4.5l-139-175c-3.3333-4.6667-2.6667-8.3333 2-11s15-5.3333 31-8 36-5 60-7c8.6667-.66667 17.833-1.3333 27.5-2s19.833-1.1667 30.5-1.5 21.5-.66667 32.5-1 22.167-.66667 33.5-1 23-.5 35-.5h36 36.5 36.5c12 0 24 .16667 36 .5s23.833.5 35.5.5 23.167.16667 34.5.5 22.333.5 33 .5 20.833.16667 30.5.5 19.167.5 28.5.5h26c2 0 4.5-.16667 7.5-.5s4.8333-1.5 5.5-3.5c2-2.6667 1.3333-5-2-7s-10.667-3.3333-22-4c-10.667 0-21.5-.16667-32.5-.5s-21.667-.66667-32-1l-93-3c-10.333-.33333-20.667-.5-31-.5s-20.667-.16667-31-.5-20.667-.5-31-.5h-31-31.5-32.5c-11 0-22 .16667-33 .5s-22.333.66667-34 1l-35 1c-11.667.33333-23.5.83333-35.5 1.5-41.333 2-69.667 4.3333-85 7-11.636 2.0237-19.8 5.7834-24.525 11.262-.95707 6.8665-1.7854 15.394-2.475 25.738-1.3333 20-3 48.667-5 86-.66667 16-1.3333 39.167-2 69.5s-1.5 65.167-2.5 104.5-1.8333 80.333-2.5 123-1.3333 84.167-2 124.5-1 76.5-1 108.5c0 10-2.6667 15.333-8 16zm-265-620c3.3333 0 6.1667-1.1667 8.5-3.5s3.5-5.1667 3.5-8.5c0-8.6667-4-13-12-13-8.6667 0-13 4.3333-13 13 0 8 4.3333 12 13 12z"/>
  <path transform="matrix(.3125 0 0 -.3125 701.25 221.38)" d="m16 32q-10 0-10 10 0 5 4 8 22 17 41 37.5t37 42.5q3 4 8 4 10 0 10-10 0-4-2-6-37-48-82-84-2-2-6-2zm30-27q-10 0-10 10 0 5 4 8 22 17 41 37.5t37 42.5q3 4 8 4 10 0 10-10 0-4-2-6-37-48-82-84-2-2-6-2z"/>
  <path transform="matrix(.3125 0 0 -.3125 595.31 117)" d="m363 792.16c-4-.4375-8-4.1563-12-11.156-4-7.3333-10.333-15.667-19-25s-17.667-18-27-26-17-14.667-23-20c-7.3333-6.6667-10.667-13-10-19s1.3333-11.667 2-17c2.6667-40 5.3333-85.833 8-137.5 2.6667-51.667 5.3333-104.83 8-159.5s4.8333-107.17 6.5-157.5c1.3971-42.192 2.2368-77.174 2.9312-110.23l-17.431.3375v.39375c-10.667 3.3333-20.167 10.5-28.5 21.5-8.3333 11-16.667 23.167-25 36.5s-17.5 24.833-27.5 34.5-22 14.5-36 14.5c-29.333.66667-56.5-7.8334-81.5-25.5-25-17.667-45.167-40.833-60.5-69.5-15.333-28.667-23-59.333-23-92 2.2737e-13-127.33 81.333-186.33 244-177 5.3333.66667 8.8333 0 10.5-2s2.8333-4 3.5-6 1.3333-3.3333 2-4c-43.333-6-86-6.3333-128-1-42 5.3333-75.667 15.333-101 30-6 3.3333-11.167 3.1667-15.5-.5s-8.1667-8.1667-11.5-13.5c-8-13.333-18.333-27-31-41s-23.333-21-32-21-13.667-2.5-15-7.5c-1.3333-5 .66667-10.833 6-17.5 12-13.333 30.167-23.833 54.5-31.5s52.333-12.833 84-15.5c31.667-2.6667 64.167-3.3333 97.5-2s65.333 3.8333 96 7.5 56.667 8.1667 78 13.5c20 5.3333 33.167 16.5 39.5 33.5s7.1667 39.833 2.5 68.5c-4.6667 26.667-11.833 50.167-21.5 70.5-9.6667 20.333-18.167 36.833-25.5 49.5-3.3333 6-6.5 10-9.5 12s-10.167 3-21.5 3h-47.5c-18.333 0-36.667 1.1667-55 3.5s-34.833 6.3333-49.5 12-25 13.5-31 23.5c-3.3333 6-3.8333 10.333-1.5 13s6.1667 1.3333 11.5-4c14.667-13.333 31.5-21.167 50.5-23.5s42.833-3.1667 71.5-2.5h7c18 0 36-.16667 54-.5s35.833-.66667 53.5-1 35-.66667 52-1 34-.5 51-.5 34-.16667 51-.5 33.667-.5 50-.5h49 48.5 48c16 0 31.833.16667 47.5.5s31.167.66667 46.5 1 30.667.83333 46 1.5c7.6667.33333 15.167.66667 22.75 1h158.25v.10625c22.097.056268 44.742.1321 73 .39375 36 .33333 74.333.66667 115 1s81.667.83333 123 1.5c51.333.66667 100.33 1.3333 147 2s86 1 118 1c8.6667 0 19 1 31 3s21 5.6667 27 11c11.333 9.3333 22.5 19.667 33.5 31s21.833 25 32.5 41c3.3333 4.6667 4.1667 8.5 2.5 11.5s-5.1667 4.5-10.5 4.5c-56.667 0-112 1.1667-166 3.5s-105.67 8.6667-155 19-95.667 27-139 50-83 55.167-119 96.5c-4 4.6667-8.3333 6.6667-13 6s-8-2.6667-10-6c-11.333-17.333-23.667-33.167-37-47.5s-25-24.833-35-31.5c-6-4-8.8333-7.8333-8.5-11.5s3.1667-8.1667 8.5-13.5c23.333-24.667 46.667-45.667 70-63h-24.344c-16.673 13.631-32.751 28.095-48.156 43.5-17.667 17.667-33.5 37.167-47.5 58.5-7.3333 10.667-12.833 18.5-16.5 23.5-.19727.269-.42337.50604-.63125.7625-.43223.62215-.95194 1.6924-1.3688 2.2375-4.3333 5.6667-12.5 8.1667-24.5 7.5-12 0-24-.16667-36-.5s-24.167-.66667-36.5-1l-37-1c-12.333-.33333-24.833-.66667-37.5-1s-25.333-.5-38-.5h-37.5-37.5-38-37.5c-12.333 0-24.667.16667-37 .5s-24.5.66667-36.5 1-23.833.66667-35.5 1c-11.667.33333-23.333.83333-35 1.5s-23.167 1.3333-34.5 2-22.333 1.3333-33 2c-10 1.3333-16.333 3.1667-19 5.5s-4 8.1667-4 17.5c0 18-.5 43.667-1.5 77s-2.3333 70.333-4 111l-5 122c-1.6667 40.667-3.3333 77.667-5 111s-2.8333 59-3.5 77c-.66667 11.333-3.6667 18.167-9 20.5-1.3333.58333-2.6667.80208-4 .65625zm530.62-661.91c1.75-.16667 3.0417-.58333 3.875-1.25 1.6667-1.3333 2.8333-2.6667 3.5-4 1.3333-4 .66666-7.1667-2-9.5s-11.333-4.1667-26-5.5c-14-.66667-28.167-1.5-42.5-2.5s-28.667-1.6667-43-2-28.667-.83333-43-1.5-28.5-1-42.5-1-27.667-.16667-41-.5-26.667-.33333-40 0-26.167.5-38.5.5-24.5.16667-36.5.5-23.667.5-35 .5-22.167.16667-32.5.5-20.167.66667-29.5 1-18.167.66667-26.5 1-16 .5-23 .5c-.89742 0-1.619.05702-2.5.0625v16.369l71.5-1.9312c12.333-.33333 24.5-.5 36.5-.5s24-.16667 36-.5 23.833-.5 35.5-.5h35.5 35 34.5c11.667 0 23.167.16667 34.5.5s22.833.66667 34.5 1 23.167.83333 34.5 1.5l34 2c11.333.66667 22.667 1.5 34 2.5s22.667 1.8333 34 2.5c2.6667.33333 4.875.41667 6.625.25z"/>
  <path transform="matrix(.3125 0 0 -.3125 1309.7 66.688)" d="m10 24q-10 0-10 10 0 4 3 7 20 20 38 40.5t35 42.5q3 4 8 4 10 0 10-10 0-4-2-6-17-22-36-43.5t-39-41.5q-3-3-7-3z"/>
  <path transform="matrix(.3125 0 0 -.3125 1265 117)" d="m228-54q-64 2-124.5 12t-92.5 24q-13 6-11 14t12 12q23 8 42.5 34.5t34.5 45.5q4 5 7.5 4.5t10.5-3.5q32-14 73-21.5t79-9 61 1.5q8 1 6.5 7.5t-7.5 6.5q-24-1-58.5 1t-67.5 8-56 18q-11 6-10.5 14.5t6.5 13.5q14 14 34 36.5t41 47 39 45.5 28 31q1 1 3 3 5 5 9.5 7t15.5-6q33-22 66-61t56.5-87.5 24.5-98.5q1-27-7.5-50.5t-47.5-34.5q-33-10-76.5-13t-90.5-2z"/>
  <path transform="matrix(.3125 0 0 -.3125 1530.6 117)" d="m742.5 485.5c-6.3333.33333-10.833-3.1667-13.5-10.5-4.6667-14.667-13.667-28-27-40s-26-21-38-27c-8-4-11-9-9-15 2-3.3333 4-8 6-14-30-12-59.667-27.667-89-47s-51.667-40.667-67-64c-11.333-18-20.167-37.833-26.5-59.5-4.6696-15.975-6.5103-32.406-5.5625-49.288-.3287.76662-.60443 1.5196-.9375 2.2875-12 27.667-26.833 53.5-44.5 77.5s-38.167 43.5-61.5 58.5c-23.333 15-49 22.5-77 22.5-32 0-61.167-8.6667-87.5-26s-47.5-40.167-63.5-68.5c-16-28.333-24-59.833-24-94.5 0-46 12-79.833 36-101.5s56.167-34.167 96.5-37.5 84.167-.66666 131.5 8c6.6667 1.3333 10.167-1 10.5-7s-3.5-9.6667-11.5-11c-10.667-2-25.5-4-44.5-6s-40.167-2.6667-63.5-2-47 3.5-71 8.5-46.333 13.5-67 25.5c-.66667 0-1.3333.33333-2 1-5.3333 3.3333-11.167 6-17.5 8s-11.167.33333-14.5-5c-4-7.3333-11-16.167-21-26.5s-20.333-19.167-31-26.5-19.667-11-27-11c-5.3333 0-10.333-2-15-6s-3.6667-9.6667 3-17c15.333-15.333 36.167-28 62.5-38s56.167-17.333 89.5-22 67.333-6.3333 102-5c26.667 1.3333 55.333 4.6667 86 10s59.333 13.833 86 25.5c26.667 11.667 46.333 26.833 59 45.5 7.3333 10 12.167 21.167 14.5 33.5s3.5 25.833 3.5 40.5c0 18-3.1667 40-9.5 66-.21654.88895-.50184 1.7966-.725 2.6875 3.1426-4.8723 6.4976-9.762 10.225-14.688 22-28.667 50.5-48.333 85.5-59 35-10.667 72.167-15.667 111.5-15s68.333 10 87 28 27.333 41.667 26 71c-.66667 22.667-3.1667 49.5-7.5 80.5s-9.3333 63.167-15 96.5-11.333 64.667-17 94-10.833 54.167-15.5 74.5-7.6667 32.5-9 36.5c-2 6-6.1667 9.1667-12.5 9.5zm-73.5-219.5c3.3333 0 6.1667-1.1667 8.5-3.5s3.5-5.1667 3.5-8.5c0-8.6667-4-13-12-13-8.6667 0-13 4.3333-13 13 0 8 4.3333 12 13 12zm-392-81c3.3333 0 6.1667-1.1667 8.5-3.5s3.5-5.1667 3.5-8.5c0-8.6667-4-13-12-13-8.6667 0-13 4.3333-13 13 0 8 4.3333 12 13 12zm413-27c3.3333 0 6.1667-1.1667 8.5-3.5s3.5-5.1667 3.5-8.5c0-8.6667-4-13-12-13-8.6667 0-13 4.3333-13 13 0 8 4.3333 12 13 12z"/>
  <path transform="matrix(.3125 0 0 -.3125 1911.6 117)" d="m1156.4 471.72c-2.6615.18229-5.4521-2.0583-8.3688-6.725-10-15.333-20.833-32-32.5-50s-24.833-31.667-39.5-41c-6-4-9.3333-9.8333-10-17.5s-.6667-17.5 0-29.5c.6667-4.6667 1-8 1-10 .6667-8 1.1667-16 1.5-24s.6667-18 1-30 .8333-28.167 1.5-48.5c.1171-3.5728.2329-8.3902.35-12.344-29.667 20.238-57.472 45.132-83.35 74.844-4 4.6667-8.3333 6.6667-13 6s-8-2.6667-10-6c-11.333-17.333-23.667-33.167-37-47.5s-25-24.833-35-31.5c-6-4-8.8333-7.8333-8.5-11.5s3.1667-8.1667 8.5-13.5c23.333-24.667 46.667-45.667 70-63h-24.344c-16.673 13.631-32.751 28.095-48.156 43.5-17.667 17.667-33.5 37.167-47.5 58.5-7.3333 10.667-12.833 18.5-16.5 23.5-1.4042 1.9148-3.0831 3.5082-5.025 4.7875-4.6901 3.6098-11.762 5.2521-21.475 4.7125-12 0-24.167-.33333-36.5-1s-25-1.1667-38-1.5-26.333-.66667-40-1l-82-2c-13.667-.33333-27.5-.66667-41.5-1s-28-.5-42-.5h-41.5-40.5-39.5c-13 0-25.667.16667-38 .5s-24.5.66667-36.5 1-23.5.83333-34.5 1.5-21.667 1.5-32 2.5-20.167 1.8333-29.5 2.5c2.6667 6.6667 6.6667 16.167 12 28.5s10.833 24.833 16.5 37.5 9.8333 22 12.5 28 1.8333 10-2.5 12-8.1667.33333-11.5-5c-18.667-31.333-39-62.167-61-92.5s-44.333-60.5-67-90.5c-6.6667-9.3333-6.8333-16.667-.5-22s17.833-9 34.5-11c8-1.3333 16.833-2.5 26.5-3.5s20-1.8333 31-2.5 22.5-1.3333 34.5-2 24.667-1.3333 38-2 27-1 41-1 28.167-.16667 42.5-.5 28.833-.5 43.5-.5h44.5c15 0 29.667.16667 44 .5s28.5.66667 42.5 1 27.667.66667 41 1 26.167.83333 38.5 1.5 24.167 1.3333 35.5 2 21.833 1.3333 31.5 2 18.5 1.3333 26.5 2c5.3333.66667 8.8333.33333 10.5-1s2.8333-2.6667 3.5-4c1.3333-4 .66666-7.1667-2-9.5s-11.333-4.1667-26-5.5c-14-.66667-28.167-1.5-42.5-2.5s-28.667-1.8333-43-2.5-28.667-1.1667-43-1.5-28.5-.66667-42.5-1-27.667-.66667-41-1-26.667-.5-40-.5h-38.5c-12.333 0-24.5.16667-36.5.5s-23.667.5-35 .5-22.167.16667-32.5.5-20.167.66667-29.5 1-18.167.66667-26.5 1-16 .66667-23 1-13.5.66667-19.5 1-11.333.5-16 .5c-17.333 1.3333-33.667 3-49 5s-26.667 5-34 9c-16 9.3333-27.667 8.3333-35-3-7.3333-12-15.5-23.833-24.5-35.5s-16.5-20.5-22.5-26.5c-2.6667-2.6667-5.8333-5.1667-9.5-7.5s-7.5-3.5-11.5-3.5c-8 0-12.333-2.6667-13-8s2.6667-10.667 10-16c10.667-8.6667 30-14.833 58-18.5s62.333-5.8333 103-6.5c14.667 0 29.5-.16667 44.5-.5s29.833-.5 44.5-.5 29.333-.16667 44-.5 29.333-.5 44-.5h43.5 43.5 44c1.0473 0 2.0606.0358 3.1062.0375l-.10625-.0375c68.667 0 136.5.66667 203.5 2s130.17 3 189.5 5v.10625c22.097.056268 44.742.1321 73 .39375 36 .33333 74.333.66667 115 1s81.667.83333 123 1.5c51.333.66667 100.33 1.3333 147 2s86 1 118 1c8.6667 0 19 1 31 3s21 5.6667 27 11c11.333 9.3333 22.5 19.667 33.5 31s21.833 25 32.5 41c3.3333 4.6667 4.1667 8.5 2.5 11.5s-5.1667 4.5-10.5 4.5c-56.667 0-112 1.1667-166 3.5s-105.67 8.6667-155 19c-25.754 5.3943-50.669 12.56-74.788 21.406-2.325 47.938-4.4219 96.553-6.2125 146.09-2 55.333-3 110.33-3 165 0 4.6667-1.5 7.5-4.5 8.5-.375.125-.751.19896-1.1312.225z"/>
  <path transform="matrix(.3125 0 0 -.3125 2251.6 152)" d="m16 5q-10 0-10 10 0 5 4 8 22 17 41 37.5t37 42.5q3 4 8 4 10 0 10-10 0-4-2-6-37-48-82-84-2-2-6-2z"/>
  <path transform="matrix(.3125 0 0 -.3125 2279.4 59.188)" d="m16 5q-10 0-10 10 0 5 4 8 22 17 41 37.5t37 42.5q3 4 8 4 10 0 10-10 0-4-2-6-37-48-82-84-2-2-6-2z"/>
  <path transform="matrix(.3125 0 0 -.3125 2530.9 117)" d="m311-48q-61 1-116.5 19t-99 55-69 95.5-26.5 140.5q0 42-1 92.5t-2.5 102.5-4 98.5-5.5 78.5q-3 23-5 37t5 19q11 7 26.5 20.5t29.5 29.5 20 29q5 11 12.5 11t10.5-20q5-36 6-86t1-107 0-114.5 3-107.5q3-55 21-100t49.5-78.5 72.5-55.5q52-27 117-35t138 5 148 46q9 5 13.5 2t.5-12q-37-82-127.5-124t-217.5-41z"/>
 </g>
 <g fill="#e22e00" fill-opacity=".9">
  <path transform="matrix(.3125 0 0 -.3125 48.125 83.875)" d="m75 14q-24 0-42.5 18.5t-18.5 42.5q0 25 18.5 43t42.5 18q25 0 43-18t18-43q0-24-18-42.5t-43-18.5z"/>
  <path transform="matrix(.3125 0 0 -.3125 154.69 -54.875)" d="m75 14q-24 0-42.5 18.5t-18.5 42.5q0 25 18.5 43t42.5 18q25 0 43-18t18-43q0-24-18-42.5t-43-18.5z"/>
  <path transform="matrix(.3125 0 0 -.3125 267.5 29.812)" d="m75 14q-24 0-42.5 18.5t-18.5 42.5q0 25 18.5 43t42.5 18q25 0 43-18t18-43q0-24-18-42.5t-43-18.5z"/>
  <path transform="matrix(.3125 0 0 -.3125 844.06 157.62)" d="m75 14q-24 0-42.5 18.5t-18.5 42.5q0 25 18.5 43t42.5 18q25 0 43-18t18-43q0-24-18-42.5t-43-18.5z"/>
  <path transform="matrix(.3125 0 0 -.3125 1727.8 -23.312)" d="m75 14q-24 0-42.5 18.5t-18.5 42.5q0 25 18.5 43t42.5 18q25 0 43-18t18-43q0-24-18-42.5t-43-18.5z"/>
  <path transform="matrix(.3125 0 0 -.3125 2186.9 35.125)" d="m75 14q-24 0-42.5 18.5t-18.5 42.5q0 25 18.5 43t42.5 18q25 0 43-18t18-43q0-24-18-42.5t-43-18.5z"/>
  <path transform="matrix(.3125 0 0 -.3125 2553.4 -53.938)" d="m75 14q-24 0-42.5 18.5t-18.5 42.5q0 25 18.5 43t42.5 18q25 0 43-18t18-43q0-24-18-42.5t-43-18.5z"/>
  <path transform="matrix(.3125 0 0 -.3125 908.75 96.062)" d="m75 14q-24 0-42.5 18.5t-18.5 42.5q0 25 18.5 43t42.5 18q25 0 43-18t18-43q0-24-18-42.5t-43-18.5z"/>
 </g>
</svg>
