<svg xmlns="http://www.w3.org/2000/svg" width="2792" height="421" preserveAspectRatio="xMinYMin slice" viewBox="-34 -152 2792 421"><path d="M4.063 81.376q-3.125 0-3.125-3.126 0-1.562 1.25-2.5Q9.061 70.439 15 64.033T26.563 50.75q.937-1.25 2.5-1.25 3.125 0 3.125 3.125 0 1.25-.626 1.875Q20 69.5 5.939 80.75q-.625.624-1.875.624m220.624-212.186q-2.5-.313-4.063 2.187-5 8.438-10.469 14.844c-5.469 6.406-7.552 7.656-11.719 10.156q-3.75 2.5-3.906 7.656c-.156 5.156.26 9.531 1.094 18.281q0 .938.156 1.876c.156.937.156 1.354.156 2.187q1.25 14.063 2.032 34.688c.782 20.624.937 28.593 1.25 44.53s.573 32.032.781 48.282c.063 4.92.154 9.585.236 14.332a127 127 0 0 0-1.642-6.676q-3.907-14.218-11.563-27.343c-7.656-13.126-11.406-15.938-18.906-21.563s-16.146-8.437-25.937-8.437q-16.876 0-30.157 7.187c-13.28 7.187-16.25 11.146-22.187 19.063S79.74 47 77.344 56.375c-2.024 7.92-2.657 15.841-1.93 23.762a65 65 0 0 0-6.664-7.512q-10-9.687-27.5-19.375-3.125-1.563-4.687-.312c-1.562 1.25-1.771 2.083-2.188 3.75q-3.124 12.186-11.406 21.25C14.687 87 11.042 88.042 3.75 90.125Q0 91.063.156 93.719c.156 2.656 1.51 2.969 4.219 3.594q18.438 3.75 30.781 7.968 12.345 4.22 18.75 13.438c6.405 9.218 6.51 15.573 6.719 28.281v3.125q.313 11.562.313 26.406c0 14.844-.209 20.781-.625 32.656Q43.75 209.5 35 207.313t-15.312-5.625q-.938-.625-2.188-.937c-1.25-.312-1.562.208-2.187 1.25q-6.562 9.687-12.97 16.406c-6.407 6.72-8.28 7.552-12.03 9.219q-3.438 1.25-2.97 3.75c.469 2.5 1.407 3.125 3.282 4.375q7.188 5 17.969 7.969c10.78 2.969 14.74 3.281 22.656 3.906q11.875.937 22.969-.312c11.094-1.25 13.698-2.292 18.906-4.375q5.625-2.5 8.75-8.907c3.125-6.407 3.594-9.01 4.531-14.219s1.407-10 1.407-14.375v-3.75q.312-10.625.468-24.375c.156-13.75.157-18.49.157-27.968q0-14.22-.313-25.469c-.112-6.253-.641-11.964-1.56-17.17 5.514 6.478 13.425 11.58 23.748 15.295q15.625 5.625 39.687 5.625 19.063-.312 30.625-3.594c11.562-3.282 13.281-6.198 16.719-12.031 1.654-2.807 2.9-6.159 3.758-10.027.488 4.388 1.94 7.89 4.367 10.496q4.219 4.53 15.781 4.531h235q8.125 0 11.094-3.281c2.969-3.281 2.969-5.469 2.969-9.844q0-13.125-4.532-29.687c-4.532-16.563-6.927-20.73-11.718-29.063q-2.5-4.687-6.563-4.687h-11.875q-5.938 0-12.031.156l-12.188.312q-6.094.157-12.343.313c-6.25.156-8.282.208-12.344.312s-8.177.157-12.344.157-8.281.052-12.344.156l-12.187.312q-6.094.156-12.031.157c-5.937 0-7.917-.053-11.875-.157l-11.875-.312q-5.938-.157-11.563-.313c-5.625-.156-7.448-.26-11.094-.468s-7.291-.47-10.937-.782-7.135-.677-10.469-1.093L285.938 14.5q2.187-3.438.156-4.531c-2.031-1.093-2.76-.26-4.219 1.406l-43.437 54.688q-1.563 2.187.625 3.437c2.188 1.25 4.687 1.667 9.687 2.5s11.25 1.563 18.75 2.188q4.062.312 8.594.624c4.532.313 6.198.365 9.531.47s6.719.208 10.156.312 6.928.208 10.47.312 7.187.156 10.937.156h34.062q5.625 0 11.25-.156c5.625-.156 7.448-.156 11.094-.156s7.24-.052 10.781-.156 6.98-.156 10.313-.156 6.51-.053 9.53-.157 5.99-.156 8.907-.156h8.125q.937 0 2.344.156c1.407.156 1.51.469 1.719 1.094q.937 1.25-.625 2.188c-1.562.937-3.334 1.041-6.875 1.25q-5.001 0-10.157.156c-5.156.156-6.77.208-10 .312l-29.062.938q-4.845.156-9.688.156c-4.843 0-6.458.052-9.687.156s-6.459.156-9.688.156h-29.687q-5.156 0-10.313-.156c-5.157-.156-6.979-.208-10.625-.312l-10.937-.313q-5.469-.156-11.094-.469-19.374-.937-26.562-2.187c-3.637-.632-6.188-1.807-7.664-3.52-.3-2.145-.558-4.81-.774-8.042q-.625-9.375-1.562-26.876-.313-7.5-.625-21.718c-.312-14.218-.47-20.365-.782-32.656s-.573-25.105-.78-38.438-.418-26.302-.626-38.906-.312-23.906-.312-33.906q0-4.689-2.5-5m-82.813 193.75q1.563 0 2.656 1.093c1.093 1.093 1.094 1.615 1.094 2.656q0 4.063-3.75 4.063-4.062 0-4.062-4.062 0-3.75 4.062-3.75M706.25 211.38q-3.125 0-3.125-3.125 0-1.562 1.25-2.5 6.875-5.312 12.813-11.719t11.562-13.281q.938-1.25 2.5-1.25 3.125 0 3.125 3.125 0 1.25-.625 1.875-11.562 15-25.625 26.25-.625.625-1.875.625m9.375 8.438q-3.125 0-3.125-3.126 0-1.562 1.25-2.5 6.875-5.312 12.813-11.718t11.562-13.281q.938-1.25 2.5-1.25 3.125 0 3.125 3.124 0 1.25-.625 1.875-11.562 15-25.625 26.25-.625.625-1.875.625"/><path d="M708.748-130.55q-1.875.206-3.75 3.486-1.875 3.438-5.938 7.813c-4.063 4.375-5.52 5.625-8.437 8.125s-5.313 4.583-7.188 6.25q-3.437 3.124-3.125 5.937c.312 2.813.417 3.646.625 5.313q1.25 18.75 2.5 42.969 1.25 24.217 2.5 49.843c1.25 25.626 1.51 33.49 2.031 49.219.437 13.185.7 24.117.916 34.447l-5.447-.106v-.123q-5-1.561-8.906-6.718t-7.813-11.407c-3.906-6.25-5.468-7.76-8.593-10.78s-6.875-4.532-11.25-4.532q-13.75-.312-25.47 7.969-11.718 8.28-18.905 21.718t-7.188 28.75q0 59.686 76.25 55.313 2.5-.312 3.281.625c.781.937.886 1.25 1.094 1.875s.417 1.042.625 1.25q-20.312 2.813-40 .312-19.688-2.499-31.562-9.375-2.813-1.562-4.844.157c-2.031 1.719-2.552 2.552-3.594 4.218q-3.75 6.25-9.687 12.813c-5.937 6.563-7.292 6.562-10 6.562s-4.271.782-4.688 2.344q-.625 2.344 1.875 5.469 5.625 6.25 17.031 9.844c11.406 3.594 16.354 4.01 26.25 4.843q14.843 1.25 30.47.625c15.626-.625 20.416-1.198 30-2.343s17.707-2.552 24.374-4.22q9.375-2.499 12.344-10.468c2.969-7.969 2.24-12.448.781-21.406q-2.187-12.5-6.719-22.031-4.53-9.53-7.968-15.47-1.563-2.811-2.97-3.75c-1.406-.938-3.176-.937-6.718-.937h-14.844q-8.593 0-17.187-1.093c-8.594-1.093-10.886-1.98-15.469-3.75s-7.812-4.22-9.687-7.344q-1.562-2.813-.47-4.063c1.093-1.25 1.928-.416 3.595 1.25q6.874 6.25 15.78 7.344c8.907 1.094 13.386.99 22.345.781h2.187q8.438 0 16.875.157l16.719.312q8.28.156 16.25.313c7.97.157 10.625.156 15.937.156s10.625.052 15.938.156 10.52.156 15.625.156h45.469q7.5 0 14.843-.156c7.343-.156 9.74-.208 14.532-.312s9.583-.26 14.375-.47c2.395-.103 4.74-.207 7.109-.312h49.453v-.033c6.905-.017 13.982-.041 22.813-.123q16.875-.156 35.937-.312c19.062-.156 25.521-.26 38.438-.47q24.061-.311 45.937-.624c21.876-.313 26.875-.313 36.875-.313q4.063 0 9.688-.937c5.625-.937 6.562-1.771 8.437-3.438q5.313-4.375 10.469-9.687c5.156-5.312 6.823-7.813 10.156-12.813q1.563-2.187.781-3.593c-.782-1.406-1.614-1.407-3.28-1.407q-26.563 0-51.876-1.093c-25.313-1.093-33.022-2.709-48.437-5.938s-29.896-8.437-43.438-15.625-25.937-17.24-37.187-30.156q-1.876-2.187-4.063-1.875c-2.187.312-2.5.833-3.125 1.875q-5.312 8.125-11.562 14.844c-6.25 6.719-7.813 7.76-10.938 9.843q-2.812 1.875-2.656 3.594c.156 1.72.99 2.552 2.656 4.219q10.938 11.562 21.875 19.687h-7.607a203 203 0 0 1-15.05-13.593q-8.28-8.281-14.843-18.282-3.437-4.999-5.156-7.343c-.062-.084-.132-.159-.197-.239-.136-.194-.298-.529-.428-.699q-2.031-2.656-7.656-2.344-5.625 0-11.25.157c-5.625.157-7.553.208-11.407.312l-11.562.313q-5.78.156-11.719.312c-5.939.156-7.917.156-11.875.156h-47.032q-5.78 0-11.562-.156c-5.782-.156-7.656-.208-11.406-.312s-7.448-.209-11.094-.313q-5.468-.156-10.937-.469c-5.47-.313-7.24-.416-10.781-.625s-6.98-.416-10.313-.625q-4.687-.625-5.937-1.718c-1.25-1.093-1.25-2.552-1.25-5.47q0-8.436-.47-24.062c-.47-15.626-.728-21.979-1.25-34.687l-1.562-38.125q-.78-19.063-1.562-34.688c-.782-15.625-.886-18.437-1.094-24.062q-.312-5.313-2.812-6.406a2.4 2.4 0 0 0-1.25-.205M874.565 76.297q.82.078 1.211.39.782.626 1.094 1.25.625 1.875-.625 2.97c-1.25 1.094-3.542 1.301-8.125 1.718q-6.562.313-13.281.781c-6.72.468-8.959.521-13.438.625s-8.958.26-13.437.469-8.907.313-13.282.313-8.646.052-12.812.156-8.334.104-12.5 0-8.177-.156-12.031-.156-7.657-.053-11.407-.157-7.396-.156-10.937-.156-6.927-.052-10.156-.156-6.303-.209-9.22-.313-5.676-.208-8.28-.312-5-.156-7.188-.156c-.28 0-.506-.018-.781-.02v-5.115l22.344.603q5.781.156 11.406.156c5.625 0 7.5.052 11.25.157s7.448.156 11.094.156h32.812q5.47 0 10.781-.156c5.311-.156 7.136-.209 10.782-.313s7.24-.26 10.78-.469l10.626-.625q5.312-.312 10.625-.78c5.313-.469 7.083-.574 10.625-.782q1.25-.156 2.07-.078m438.26-17.109q-3.125 0-3.125-3.125 0-1.25.938-2.187 6.25-6.25 11.875-12.657t10.937-13.281q.938-1.25 2.5-1.25 3.125 0 3.125 3.125 0 1.25-.625 1.875-5.312 6.875-11.25 13.594t-12.187 12.969q-.938.937-2.188.937m23.425 74.687q-20-.625-38.906-3.75t-28.907-7.5q-4.062-1.875-3.437-4.375t3.75-3.75q7.188-2.5 13.281-10.781t10.782-14.219q1.25-1.562 2.343-1.406t3.282 1.094q10 4.374 22.812 6.718t24.688 2.813T1365 98.25q2.5-.312 2.031-2.344t-2.343-2.031q-7.5.313-18.282-.312t-21.093-2.5-17.5-5.626q-3.438-1.874-3.282-4.53t2.032-4.22q4.374-4.374 10.624-11.406T1330 50.594t12.188-14.219 8.75-9.687l.937-.938q1.563-1.562 2.969-2.187t4.843 1.875Q1370 32.313 1380.314 44.5t17.656 27.344 7.656 30.781q.313 8.438-2.344 15.781t-14.843 10.781q-10.313 3.125-23.907 4.063t-28.281.625m426.38-168.594q-2.968-.156-4.219 3.282-2.187 6.875-8.437 12.5c-6.25 5.625-8.125 6.562-11.875 8.437q-3.75 1.875-2.812 4.688.937 1.562 1.874 4.375-14.062 5.624-27.812 14.687c-13.75 9.063-16.146 12.708-20.937 20q-5.313 8.438-8.282 18.594c-1.459 4.992-2.034 10.127-1.738 15.402-.103-.24-.189-.475-.293-.715q-5.625-12.969-13.906-24.218c-8.281-11.25-11.927-13.594-19.219-18.282q-10.937-7.03-24.062-7.03-15 0-27.344 8.124c-12.344 8.124-14.844 12.552-19.844 21.406q-7.5 13.281-7.5 29.532 0 21.562 11.25 31.718c11.25 10.156 17.552 10.678 30.156 11.72s26.302.207 41.094-2.5q3.125-.626 3.281 2.187c.156 2.813-1.094 3.02-3.594 3.437q-5 .937-13.906 1.875c-8.906.938-12.552.834-19.844.625s-14.687-1.094-22.187-2.656-14.48-4.219-20.937-7.969q-.313 0-.626-.312-2.5-1.563-5.468-2.5c-2.968-.937-3.49-.105-4.532 1.562q-1.875 3.438-6.562 8.281c-4.687 4.843-6.354 5.99-9.687 8.282s-6.146 3.437-8.438 3.437q-2.501 0-4.687 1.875c-2.187 1.875-1.146 3.021.937 5.313q7.188 7.187 19.531 11.875c12.343 4.688 17.552 5.416 27.969 6.875s21.042 1.979 31.875 1.562q12.5-.624 26.875-3.125c14.375-2.5 18.542-4.323 26.875-7.969q12.5-5.469 18.438-14.218 3.437-4.688 4.53-10.47c1.094-5.781 1.094-8.072 1.094-12.655q0-8.438-2.968-20.625c-.068-.278-.157-.562-.227-.84a74 74 0 0 0 3.195 4.59q10.313 13.437 26.72 18.437 16.405 5 34.843 4.688c18.438-.312 21.354-3.125 27.188-8.75s8.541-13.021 8.124-22.188q-.313-10.624-2.343-25.156c-2.03-14.532-2.917-19.74-4.688-30.156s-3.541-20.209-5.312-29.375-3.386-16.927-4.844-23.281-2.396-10.157-2.812-11.407q-.939-2.812-3.907-2.968zm-22.969 68.594q1.563 0 2.657 1.094c1.094 1.094 1.093 1.614 1.093 2.656q0 4.063-3.75 4.063-4.062 0-4.062-4.063 0-3.75 4.063-3.75m-122.5 25.313q1.563 0 2.657 1.093c1.094 1.093 1.093 1.615 1.093 2.657q0 4.062-3.75 4.062-4.062 0-4.062-4.062 0-3.75 4.063-3.75m129.063 8.437q1.563 0 2.656 1.094c1.093 1.094 1.094 1.614 1.094 2.656q0 4.063-3.75 4.063-4.062 0-4.062-4.063 0-3.75 4.062-3.75m526.748-98.038q-1.248-.085-2.615 2.102-4.687 7.188-10.157 15.625c-5.47 8.437-7.76 9.896-12.343 12.813q-2.813 1.875-3.125 5.468c-.312 3.593-.209 5.47 0 9.22q.312 2.187.312 3.124.313 3.75.469 7.5c.156 3.75.208 5.625.313 9.375s.26 8.802.468 15.156c.037 1.117.073 2.622.11 3.858-9.271-6.325-17.96-14.104-26.047-23.389q-1.875-2.187-4.063-1.875c-2.188.312-2.5.833-3.125 1.875q-5.312 8.125-11.562 14.844c-6.25 6.719-7.813 7.76-10.938 9.844q-2.812 1.874-2.656 3.593c.156 1.72.99 2.552 2.656 4.22q10.938 11.561 21.875 19.687h-7.607a203 203 0 0 1-15.049-13.594q-8.28-8.282-14.844-18.281-3.437-5.001-5.156-7.344a6.1 6.1 0 0 0-1.57-1.496c-1.466-1.128-3.676-1.642-6.711-1.473q-5.625 0-11.407.313c-5.781.313-7.812.364-11.874.468s-8.23.209-12.5.313l-25.626.625q-6.405.156-12.968.312c-6.563.156-8.75.157-13.125.157h-37.969q-6.093 0-11.875-.157c-5.782-.157-7.656-.208-11.406-.312s-7.344-.26-10.781-.469-6.771-.469-10-.781-6.303-.573-9.22-.781q1.251-3.126 3.75-8.907c2.5-5.78 3.386-7.76 5.157-11.718s3.073-6.875 3.906-8.75.573-3.125-.781-3.75-2.552-.105-3.594 1.562q-8.75 14.688-19.062 28.906c-10.312 14.218-13.854 18.907-20.938 28.282q-3.125 4.374-.156 6.875c2.969 2.5 5.573 2.812 10.781 3.437q3.75.625 8.282 1.094c4.532.469 6.25.573 9.687.781s7.031.417 10.781.625 7.709.417 11.875.625 8.438.313 12.813.313 8.802.052 13.281.156 9.01.156 13.594.156h13.906q7.031 0 13.75-.156c6.719-.156 8.906-.209 13.281-.313s8.646-.208 12.813-.312 8.177-.26 12.031-.469 7.552-.417 11.094-.625 6.823-.417 9.843-.625 5.782-.417 8.282-.625q2.5-.312 3.281.313c.781.625.885.833 1.094 1.25q.624 1.875-.625 2.968c-1.25 1.093-3.542 1.302-8.125 1.72q-6.562.311-13.282.78c-6.72.47-8.958.573-13.437.782s-8.958.364-13.437.468-8.907.209-13.282.313-8.646.208-12.812.312-8.334.157-12.5.157h-12.032q-5.781 0-11.406-.157c-5.625-.157-7.396-.156-10.937-.156s-6.927-.052-10.156-.156-6.303-.209-9.22-.313-5.676-.208-8.28-.312-5-.209-7.188-.313-4.219-.208-6.094-.312-3.541-.156-5-.156q-8.124-.626-15.312-1.563c-7.188-.937-8.334-1.562-10.625-2.812q-7.5-4.376-10.938.937-3.437 5.625-7.656 11.094c-4.219 5.469-5.156 6.406-7.031 8.281q-1.25 1.25-2.969 2.344c-1.719 1.094-2.344 1.094-3.594 1.094q-3.75 0-4.062 2.5c-.312 2.5.833 3.333 3.125 5q5 4.062 18.125 5.78c13.125 1.719 19.479 1.824 32.187 2.032q6.876 0 13.907.156c7.03.156 9.322.157 13.906.157s9.166.052 13.75.156 9.166.156 13.75.156h40.937c.328 0 .644-.011.97-.012l-.032.012q32.187 0 63.593-.625c31.406-.625 40.679-.937 59.22-1.562v-.034c6.905-.017 13.981-.04 22.812-.123q16.875-.156 35.937-.312c19.062-.156 25.521-.26 38.438-.469q24.061-.312 45.937-.625c21.876-.313 26.875-.312 36.875-.312q4.063 0 9.688-.938c5.625-.938 6.562-1.77 8.437-3.437q5.313-4.375 10.469-9.688c5.156-5.313 6.823-7.812 10.156-12.812q1.563-2.189.781-3.594c-.782-1.405-1.614-1.406-3.28-1.406q-26.564 0-51.876-1.094c-25.312-1.094-33.022-2.709-48.437-5.938a167.5 167.5 0 0 1-23.372-6.69 3700 3700 0 0 1-1.94-45.652 1427 1427 0 0 1-.938-51.563q0-2.187-1.407-2.656a1.4 1.4 0 0 0-.353-.07zM2256.6 150.438q-3.125 0-3.125-3.125 0-1.563 1.25-2.5 6.875-5.313 12.813-11.72t11.562-13.28q.938-1.25 2.5-1.25 3.125 0 3.125 3.124 0 1.25-.625 1.876-11.562 15-25.625 26.25-.625.625-1.875.625"/><path d="M2284.4 57.626q-3.125 0-3.125-3.125 0-1.563 1.25-2.5 6.875-5.313 12.813-11.72t11.562-13.28q.938-1.25 2.5-1.25 3.125 0 3.125 3.125 0 1.25-.625 1.875-11.562 15-25.625 26.25-.625.625-1.875.625M2628.088 132q-19.063-.312-36.407-5.937t-30.937-17.188-21.563-29.844-8.281-43.906q0-13.125-.312-28.906t-.782-32.031-1.25-30.782-1.718-24.531q-.938-7.187-1.563-11.562t1.563-5.938q3.437-2.187 8.28-6.406t9.22-9.219 6.25-9.062q1.562-3.438 3.906-3.438t3.281 6.25q1.563 11.25 1.875 26.875t.313 33.438 0 35.78.937 33.595q.938 17.187 6.563 31.25t15.468 24.53 22.657 17.344q16.25 8.438 36.562 10.938t43.125-1.562 46.25-14.376q2.813-1.562 4.219-.624t.156 3.75q-11.562 25.624-39.844 38.75T2628.088 132"/><path fill="#e22e00" fill-opacity=".9" d="M71.563 79.5q-7.5 0-13.282-5.781T52.5 60.438q0-7.813 5.781-13.438t13.282-5.625Q79.375 41.375 85 47t5.625 13.438q0 7.5-5.625 13.28T71.563 79.5M178.128-59.25q-7.5 0-13.282-5.781t-5.781-13.281q0-7.813 5.781-13.438t13.281-5.625q7.813 0 13.438 5.625t5.625 13.438q0 7.5-5.625 13.28t-13.437 5.782m112.81 84.687q-7.5 0-13.282-5.781t-5.781-13.281q0-7.813 5.781-13.438t13.281-5.625q7.813 0 13.438 5.625T310 6.375q0 7.5-5.625 13.28t-13.437 5.782m576.56 127.808q-7.5 0-13.282-5.781t-5.781-13.281q0-7.813 5.781-13.438t13.281-5.625q7.813 0 13.438 5.625t5.625 13.438q0 7.5-5.625 13.28t-13.437 5.782m883.74-180.932q-7.5 0-13.282-5.781t-5.781-13.281q0-7.813 5.781-13.438t13.282-5.625q7.812 0 13.437 5.625t5.625 13.438q0 7.5-5.625 13.28t-13.437 5.782m459.1 58.437q-7.5 0-13.282-5.781t-5.781-13.282q0-7.812 5.781-13.437t13.282-5.625q7.812 0 13.437 5.625t5.625 13.438q0 7.5-5.625 13.28t-13.437 5.782m366.5-89.063q-7.5 0-13.282-5.781t-5.781-13.282q0-7.812 5.781-13.437t13.282-5.625q7.812 0 13.437 5.625t5.625 13.438q0 7.5-5.625 13.28t-13.437 5.782m-1644.65 150q-7.5 0-13.282-5.781t-5.781-13.282q0-7.812 5.781-13.437t13.282-5.625q7.812 0 13.437 5.625t5.625 13.438q0 7.5-5.625 13.28t-13.437 5.782"/></svg>