<?xml version="1.0" encoding="UTF-8"?>
<svg version="1.1" viewBox="0 -100 2947 416" xmlns="http://www.w3.org/2000/svg">
 <g fill="white" transform="scale(.26)">
  <path d="M54,760 h90 v-571 h-90 v571 Z M102,1 q-28,0 -46,15.5 q-18,15.5 -18,40.5 q0,24 18.5,40.5 q18.5,16.5 45.5,16.5 q27,0 44.5,-16.5 q17.5,-16.5 17.5,-40.5 q0,-25 -17.5,-40.5 q-17.5,-15.5 -44.5,-15.5 Z" transform="matrix(1,0,0,-1,-50,760)"/>
  <path d="M193,187 v39 q0,40 -10,64.5 q-10,24.5 -26.5,42.5 q-16.5,18 -37.5,36 q-37,33 -66,76 q-29,43 -28,109 q1,46 27,90 q26,44 70.5,73 q44.5,29 100.5,29 q47,1 83,-14.5 q36,-15.5 62,-39 q26,-23.5 43,-48.5 q11,-16 28.5,-27 q17.5,-11 27.5,-15 l-109,-72 q-1,12 -8.5,31 q-7.5,19 -13.5,29 q-17,26 -42.5,44 q-25.5,18 -60.5,18 q-48,0 -82,-30 q-34,-30 -34,-77 q0,-30 13.5,-52.5 q13.5,-22.5 34,-40 q20.5,-17.5 40.5,-34.5 q22,-19 41,-40.5 q19,-21.5 30.5,-52 q11.5,-30.5 11.5,-77.5 v-61 h-95 Z M241,0 q-24,0 -41,17 q-17,17 -17,41 q0,24 17,41 q17,17 41,17 q24,0 41,-17 q17,-17 17,-41 q0,-24 -17,-41 q-17,-17 -41,-17 Z" transform="matrix(1,0,0,-1,152,760)"/>
  <path d="M87,274 q-22,0 -39,15.5 q-17,15.5 -17,40.5 q0,24 17,40.5 q17,16.5 39,16.5 q19,0 36.5,-16.5 q17.5,-16.5 17.5,-40.5 q0,-25 -17.5,-40.5 q-17.5,-15.5 -36.5,-15.5 Z M87,0 q-22,0 -39,15.5 q-17,15.5 -17,40.5 q0,24 17,40.5 q17,16.5 39,16.5 q19,0 36.5,-16.5 q17.5,-16.5 17.5,-40.5 q0,-25 -17.5,-40.5 q-17.5,-15.5 -36.5,-15.5 Z" transform="matrix(1,0,0,-1,629,760)"/>
  <path d="M122,0 q-24,0 -41,17 q-17,17 -17,41 q0,24 17,41 q17,17 41,17 q24,0 41,-17 q17,-17 17,-41 q0,-24 -17,-41 q-17,-17 -41,-17 Z M180,411 q-30,-17 -47,-41.5 q-17,-24.5 -20.5,-47 q-3.5,-22.5 5.5,-34.5 l-29,4 q13,14 33.5,12.5 q20.5,-1.5 37,-16.5 q16.5,-15 16.5,-40 q0,-27 -17,-43 q-17,-16 -42,-16 q-26,0 -41,14.5 q-15,14.5 -20.5,36 q-5.5,21.5 -5.5,42.5 q0,20 8,48.5 q8,28.5 30,59.5 q22,31 65,57 l27,-36 Z" transform="matrix(1,0,0,-1,807,760)"/>
  <path d="M180,222 q-30,-17 -47,-41.5 q-17,-24.5 -20.5,-47 q-3.5,-22.5 5.5,-34.5 l-29,4 q13,14 33.5,12.5 q20.5,-1.5 37,-16.5 q16.5,-15 16.5,-40 q0,-27 -17,-43 q-17,-16 -42,-16 q-26,0 -41,14.5 q-15,14.5 -20.5,36 q-5.5,21.5 -5.5,42.5 q0,20 8,48.5 q8,28.5 30,59.5 q22,31 65,57 l27,-36 Z" transform="matrix(1,0,0,-1,1012,760)"/>
  <path d="M50,300 v100 h150 v177 l100,23 v-200 h80 v178 l100,22 v-277 q0,-12 -10,-17 q-10,-5 -20,-5.5 q-10,-0.5 -10,-0.5 h-390 Z M20,0 v578 l100,22 v-600 h-100 Z" transform="matrix(1,0,0,-1,1217,760)"/>
  <path d="M110,0 v410 q0,62 17.5,99.5 q17.5,37.5 46.5,57 q29,19.5 65.5,26.5 q36.5,7 75.5,7 q39,0 75,0 v-100 h-80 q-28,0 -50.5,-7 q-22.5,-7 -36,-26 q-13.5,-19 -13.5,-57 v-410 h-100 Z" transform="matrix(1,0,0,-1,1717,760)"/>
  <path d="M200,0 v578 l100,22 v-600 h-100 Z" transform="matrix(1,0,0,-1,2217,760)"/>
  <path d="M250,230 q-29,0 -49.5,20.5 q-20.5,20.5 -20.5,49.5 q0,29 20.5,49.5 q20.5,20.5 49.5,20.5 q29,0 49.5,-20.5 q20.5,-20.5 20.5,-49.5 q0,-29 -20.5,-49.5 q-20.5,-20.5 -49.5,-20.5 Z" transform="matrix(1,0,0,-1,2717,760)"/>
  <path d="" transform="matrix(1,0,0,-1,3217,760)"/>
  <path d="M58,-58 q-24,0 -41,17 q-17,17 -17,41 q0,24 17,41 q17,17 41,17 q24,0 41,-17 q17,-17 17,-41 q0,-24 -17,-41 q-17,-17 -41,-17 Z" transform="matrix(1,0,0,-1,3519,360)"/>
  <path d="M364,0 v100 h146 v-100 h-146 Z M221,-204 q-59,0 -97,22.5 q-38,22.5 -59.5,56 q-21.5,33.5 -30.5,68 q-9,34.5 -9,57.5 q0,44 18.5,84 q18.5,40 47.5,71.5 q29,31.5 60,51.5 q2,-19 -2,-36 q-4,-17 -18,-36 q11,-5 18.5,-14.5 q7.5,-9.5 10.5,-20.5 q3,-11 0,-23 q-14,8 -24.5,11.5 q-10.5,3.5 -24.5,1.5 q-28,-3 -42,-32 q-14,-29 -14,-58 q0,-34 16.5,-65.5 q16.5,-31.5 52,-51 q35.5,-19.5 92.5,-19.5 q51,0 81.5,24 q30.5,24 43,60.5 q12.5,36.5 9.5,71.5 q-2,29 -14,56 q-12,27 -26.5,48.5 q-14.5,21.5 -24.5,33.5 l52,104 q38,-46 68,-107.5 q30,-61.5 30,-149.5 q0,-56 -26,-104 q-26,-48 -73.5,-76.5 q-47.5,-28.5 -114.5,-28.5 Z" transform="matrix(1,0,0,-1,3347,760)"/>
  <path d="M-20,0 v100 h200 l65,-100 h-265 Z M245,0 l65,100 h200 v-100 h-265 Z M245,0 q-41,0 -75,20 q-34,20 -54,54.5 q-20,34.5 -20,75.5 q0,51 30,90.5 q30,39.5 76,53.5 q11,3 23.5,14.5 q12.5,11.5 19.5,41.5 q8,-30 21.5,-41.5 q13.5,-11.5 23.5,-15.5 q45,-14 74,-53.5 q29,-39.5 29,-89.5 q0,-41 -20,-75.5 q-20,-34.5 -53.5,-54.5 q-33.5,-20 -74.5,-20 Z M245,100 q21,0 35.5,14.5 q14.5,14.5 14.5,35.5 q0,21 -14.5,35.5 q-14.5,14.5 -35.5,14.5 q-21,0 -35.5,-14.5 q-14.5,-14.5 -14.5,-35.5 q0,-21 14.5,-35.5 q14.5,-14.5 35.5,-14.5 Z" transform="matrix(1,0,0,-1,3837,760)"/>
  <path d="M100,0 v100 h220 v-100 h-220 Z M-20,0 v100 h120 v678 l100,22 v-777 q0,-12 -10,-17 q-10,-5 -20,-5.5 q-10,-0.5 -10,-0.5 h-180 Z" transform="matrix(1,0,0,-1,4327,760)"/>
  <path d="M-60,0 l60,100 h800 q1,42 -16.5,71 q-17.5,29 -73.5,29 h-630 l100,100 h530 q62,0 99.5,-17 q37.5,-17 57,-46 q19.5,-29 26.5,-65 q7,-36 7,-74.5 q0,-38.5 0,-74.5 q0,-12 -10,-17 q-10,-5 -20,-5.5 q-10,-0.5 -10,-0.5 h-920 Z M235,222 l-66,67 l332,327 v-165 q-6,11 -13.5,10.5 q-7.5,-0.5 -12.5,-5.5 l-240,-234 Z" transform="matrix(1,0,0,-1,4627,760)"/>
  <path d="" transform="matrix(1,0,0,-1,5552,760)"/>
  <path d="M231,-58 q-24,0 -41,17 q-17,17 -17,41 q0,24 17,41 q17,17 41,17 q24,0 41,-17 q17,-17 17,-41 q0,-24 -17,-41 q-17,-17 -41,-17 Z M58,-58 q-24,0 -41,17 q-17,17 -17,41 q0,24 17,41 q17,17 41,17 q24,0 41,-17 q17,-17 17,-41 q0,-24 -17,-41 q-17,-17 -41,-17 Z" transform="matrix(1,0,0,-1,5777,1060)"/>
  <path d="M393,-200 l-231,403 q-41,71 -39,125 q2,54 31,94.5 q29,40.5 69,70.5 q31,23 48,41 q17,18 17,57 l339,-591 h-115 l-237,410 q-37,-20 -45.5,-64.5 q-8.5,-44.5 19.5,-93.5 l258,-452 h-114 Z M544,0 v100 h156 v-100 h-156 Z M25,-200 l84,140 q10,-20 30,-30 q20,-10 38,-10 h203 l60,-100 h-415 Z" transform="matrix(1,0,0,-1,5682,760)"/>
  <path d="M860,0 v100 h175 v-100 h-175 Z M-50,0 v100 h175 v-100 h-175 Z M115,50 v728 l100,22 v-750 h-100 Z M-45,0 l60,100 h260 v-100 h-320 Z M160,0 v100 h655 q1,42 -16.5,71 q-17.5,29 -73.5,29 h-565 v100 h565 q62,0 99.5,-17 q37.5,-17 57,-46 q19.5,-29 26.5,-65 q7,-36 7,-74.5 q0,-38.5 0,-74.5 q0,-12 -10,-17 q-10,-5 -20,-5.5 q-10,-0.5 -10,-0.5 h-715 Z" transform="matrix(1,0,0,-1,6362,760)"/>
  <path d="M-20,0 v100 h193 q-21,12 -43.5,38 q-22.5,26 -34.5,45 l56,107 q35,-55 78.5,-98 q43.5,-43 91,-67.5 q47.5,-24.5 95.5,-24.5 h244 l-60,-100 h-620 Z" transform="matrix(1,0,0,-1,7377,760)"/>
  <path d="" transform="matrix(1,0,0,-1,8062,760)"/>
  <path d="M58,-58 q-24,0 -41,17 q-17,17 -17,41 q0,24 17,41 q17,17 41,17 q24,0 41,-17 q17,-17 17,-41 q0,-24 -17,-41 q-17,-17 -41,-17 Z" transform="matrix(1,0,0,-1,8284,260)"/>
  <path d="M-85,-150 q57,-15 93.5,-13 q36.5,2 56.5,16 q20,14 27.5,35 q7.5,21 7.5,42 v348 l100,22 v-360 q0,-53 -22.5,-86.5 q-22.5,-33.5 -58.5,-49 q-36,-15.5 -75.5,-14.5 q-39.5,1 -74,16.5 q-34.5,15.5 -54.5,43.5 Z" transform="matrix(1,0,0,-1,8192,760)"/>
  <path d="M173,0 l50,100 h197 v-100 h-247 Z M39,-132 q57,-15 93.5,-13 q36.5,2 56.5,16 q20,14 27.5,35 q7.5,21 7.5,42 v180 l100,22 v-192 q0,-53 -22.5,-86.5 q-22.5,-33.5 -58.5,-49 q-36,-15.5 -75.5,-14.5 q-39.5,1 -74,16.5 q-34.5,15.5 -54.5,43.5 Z M324,150 l-149,150 q13,0 34,0 q21,0 43.5,3.5 q22.5,3.5 42,13.5 q19.5,10 29.5,29 v-196 Z M175,0 q-41,0 -75,20 q-34,20 -54.5,54.5 q-20.5,34.5 -20.5,75.5 q0,42 20.5,76 q20.5,34 54.5,54 q34,20 75,20 q41,0 75,-20 q34,-20 54,-54 q20,-34 20,-76 q0,-41 -20,-75.5 q-20,-34.5 -54,-54.5 q-34,-20 -75,-20 Z M175,100 q21,0 35.5,14.5 q14.5,14.5 14.5,35.5 q0,21 -14.5,35.5 q-14.5,14.5 -35.5,14.5 q-21,0 -35.5,-14.5 q-14.5,-14.5 -14.5,-35.5 q0,-21 14.5,-35.5 q14.5,-14.5 35.5,-14.5 Z" transform="matrix(1,0,0,-1,8417,760)"/>
  <path d="M95,-50 v200 h14 v-200 h-14 Z M-20,0 v100 h200 l65,-100 h-265 Z M350,-50 v200 h44 v-200 h-44 Z M245,-200 q-41,0 -75,20 q-34,20 -54.5,54.5 q-20.5,34.5 -20.5,75.5 q0,42 20.5,76 q20.5,34 54.5,54 q34,20 75,20 q41,0 75,-20 q34,-20 54,-54 q20,-34 20,-76 q0,-41 -20,-75.5 q-20,-34.5 -54,-54.5 q-34,-20 -75,-20 Z M245,-100 q21,0 35.5,14.5 q14.5,14.5 14.5,35.5 q0,21 -14.5,35.5 q-14.5,14.5 -35.5,14.5 q-21,0 -35.5,-14.5 q-14.5,-14.5 -14.5,-35.5 q0,-21 14.5,-35.5 q14.5,-14.5 35.5,-14.5 Z M394,150 l-149,150 q13,0 34,0 q21,0 43.5,3.5 q22.5,3.5 42,13.5 q19.5,10 29.5,29 v-196 Z M245,0 q-41,0 -75,20 q-34,20 -54.5,54.5 q-20.5,34.5 -20.5,75.5 q0,42 20.5,76 q20.5,34 54.5,54 q34,20 75,20 q41,0 75,-20 q34,-20 54,-54 q20,-34 20,-76 q0,-41 -20,-75.5 q-20,-34.5 -54,-54.5 q-34,-20 -75,-20 Z M245,100 q21,0 35.5,14.5 q14.5,14.5 14.5,35.5 q0,21 -14.5,35.5 q-14.5,14.5 -35.5,14.5 q-21,0 -35.5,-14.5 q-14.5,-14.5 -14.5,-35.5 q0,-21 14.5,-35.5 q14.5,-14.5 35.5,-14.5 Z" transform="matrix(1,0,0,-1,8817,760)"/>
  <path d="" transform="matrix(1,0,0,-1,9236,760)"/>
  <path d="M25,0 l60,100 h635 q1,42 -16.5,71 q-17.5,29 -73.5,29 h-495 l132,220 l10,-7 l-52,-113 h405 q62,0 99,-17 q37,-17 56.5,-45.5 q19.5,-28.5 26.5,-64 q7,-35.5 8,-73.5 h120 v-100 h-915 Z" transform="matrix(1,0,0,-1,9366,760)"/>
  <path d="M58,-58 q-24,0 -41,17 q-17,17 -17,41 q0,24 17,41 q17,17 41,17 q24,0 41,-17 q17,-17 17,-41 q0,-24 -17,-41 q-17,-17 -41,-17 Z" transform="matrix(1,0,0,-1,10468,910)"/>
  <path d="M-20,0 v100 h193 q-21,12 -43.5,38 q-22.5,26 -34.5,45 l56,107 q35,-55 78.5,-98 q43.5,-43 91,-67.5 q47.5,-24.5 95.5,-24.5 h244 l-60,-100 h-620 Z" transform="matrix(1,0,0,-1,10286,760)"/>
  <path d="M58,-58 q-24,0 -41,17 q-17,17 -17,41 q0,24 17,41 q17,17 41,17 q24,0 41,-17 q17,-17 17,-41 q0,-24 -17,-41 q-17,-17 -41,-17 Z" transform="matrix(1,0,0,-1,10765,858)"/>
  <path d="M-435,165 q38,5 52,24 q14,19 16,47.5 q2,28.5 2,63.5 v78 l100,22 v-100 q0,-55 -14,-85.5 q-14,-30.5 -35.5,-43.5 q-21.5,-13 -45.5,-14.5 q-24,-1.5 -44,2.5 q-20,4 -31,6 Z" transform="matrix(1,0,0,-1,10971,760)"/>
  <path d="M73,9 v33 q0,19 1,30.5 q1,11.5 5,26.5 q8,30 27,49.5 q19,19.5 58,19.5 q14,0 33.5,-8.5 q19.5,-8.5 29.5,-31.5 q-6,3 -26,8 q-20,5 -34,1 q-16,-4 -23,-14.5 q-7,-10.5 -8,-20 q-1,-9.5 -1,-13.5 q0,-20 10.5,-28 q10.5,-8 25,-9.5 q14.5,-1.5 26.5,-1.5 h26 l1,-41 h-151 Z M0,0 l30,50 h240 l-30,-50 h-240 Z" transform="matrix(1,0,0,-1,10926,-90)"/>
  <path d="M220,58 q-6,-22 -27.5,-37.5 q-21.5,-15.5 -50,-21.5 q-28.5,-6 -55,0 q-26.5,6 -44.5,25.5 q-18,19.5 -18,55.5 v698 l100,22 v-720 q0,-18 11,-25.5 q11,-7.5 27,-8 q16,-0.5 32,3.5 q16,4 25,8 Z" transform="matrix(1,0,0,-1,10971,760)"/>
 </g>
</svg>
