<?xml version="1.0" encoding="UTF-8"?>
<svg version="1.1" viewBox="0 0 2947 416" xmlns="http://www.w3.org/2000/svg">
 <defs></defs>
 <g fill="#fff">
  <g transform="translate(16 297.59)">
   <path d="m13.824-194.56h23.039v146.18h-23.039zm12.289 194.3c-4.7812 0-8.707-1.3203-11.777-3.9648-3.0703-2.6484-4.6094-6.1016-4.6094-10.371 0-4.0938 1.582-7.5508 4.7383-10.367 3.1562-2.8164 7.0391-4.2227 11.648-4.2227 4.6055 0 8.4023 1.4062 11.391 4.2227 2.9883 2.8164 4.4805 6.2734 4.4805 10.367 0 4.2695-1.4922 7.7227-4.4805 10.371-2.9883 2.6445-6.7852 3.9648-11.391 3.9648z"/>
  </g>
  <g transform="translate(67.719 297.59)">
   <path d="m49.406-47.871v-9.9844c0-6.8281-0.85156-12.332-2.5586-16.512-1.707-4.1836-3.9688-7.8086-6.7852-10.879-2.8164-3.0742-6.0156-6.1445-9.5977-9.2188-6.3164-5.6328-11.949-12.117-16.898-19.457-4.9492-7.3359-7.3359-16.637-7.168-27.902 0.17187-7.8516 2.4766-15.531 6.9141-23.039 4.4375-7.5117 10.453-13.738 18.047-18.688s16.172-7.4258 25.73-7.4258c8.0195-0.17188 15.102 1.0664 21.246 3.7109 6.1445 2.6484 11.434 5.9766 15.871 9.9844 4.4375 4.0117 8.1094 8.1523 11.008 12.418 1.8789 2.7305 4.3086 5.0352 7.2969 6.9102 2.9883 1.8789 5.332 3.1602 7.0391 3.8398l-27.902 18.434c-0.17188-2.0469-0.89453-4.6953-2.1758-7.9375-1.2812-3.2422-2.4336-5.7148-3.457-7.4219-2.9023-4.4375-6.5273-8.1914-10.879-11.266-4.3516-3.0703-9.5156-4.6055-15.488-4.6055-8.1914 0-15.191 2.5586-20.992 7.6797-5.8047 5.1172-8.7031 11.688-8.7031 19.711 0 5.1211 1.1523 9.5977 3.4531 13.441 2.3047 3.8398 5.207 7.25 8.707 10.238 3.4961 2.9883 6.9531 5.9297 10.367 8.832 3.7539 3.2422 7.2539 6.6992 10.496 10.367 3.2422 3.6719 5.8438 8.1055 7.8086 13.312 1.9609 5.207 2.9414 11.82 2.9414 19.84v15.617zm12.289 47.871c-4.0938 0-7.5938-1.4492-10.496-4.3516-2.9023-2.9023-4.3516-6.4023-4.3516-10.496 0-4.0977 1.4492-7.5938 4.3516-10.496 2.9023-2.9023 6.4023-4.3516 10.496-4.3516 4.0977 0 7.5938 1.4492 10.496 4.3516s4.3516 6.3984 4.3516 10.496c0 4.0938-1.4492 7.5938-4.3516 10.496-2.9023 2.9023-6.3984 4.3516-10.496 4.3516z"/>
  </g>
  <g transform="translate(189.83 297.59)">
   <path d="m7.9375-84.48c0-4.0938 1.4492-7.5508 4.3516-10.367 2.8984-2.8164 6.2266-4.2227 9.9844-4.2227 3.2422 0 6.3555 1.4062 9.3438 4.2227 2.9844 2.8164 4.4805 6.2734 4.4805 10.367 0 4.2656-1.4961 7.7227-4.4805 10.367-2.9883 2.6484-6.1016 3.9688-9.3438 3.9688-3.7578 0-7.0859-1.3203-9.9844-3.9688-2.9023-2.6445-4.3516-6.1016-4.3516-10.367zm0 70.145c0-4.0977 1.4492-7.5508 4.3516-10.367 2.8984-2.8164 6.2266-4.2266 9.9844-4.2266 3.2422 0 6.3555 1.4102 9.3438 4.2266 2.9844 2.8164 4.4805 6.2695 4.4805 10.367 0 4.2656-1.4961 7.7227-4.4805 10.367-2.9883 2.6445-6.1016 3.9688-9.3438 3.9688-3.7578 0-7.0859-1.3242-9.9844-3.9688-2.9023-2.6445-4.3516-6.1016-4.3516-10.367z"/>
  </g>
  <g transform="translate(235.39 297.59)">
   <path d="m31.23 0c-4.0938 0-7.5938-1.4492-10.496-4.3516-2.8984-2.9023-4.3516-6.4023-4.3516-10.496 0-4.0977 1.4531-7.5938 4.3516-10.496 2.9023-2.9023 6.4023-4.3516 10.496-4.3516 4.0977 0 7.5977 1.4492 10.496 4.3516 2.9023 2.9023 4.3516 6.3984 4.3516 10.496 0 4.0938-1.4492 7.5938-4.3516 10.496-2.8984 2.9023-6.3984 4.3516-10.496 4.3516zm14.848-105.21c-5.1172 2.8984-9.1289 6.4414-12.031 10.621-2.8984 4.1836-4.6484 8.1953-5.2461 12.035-0.59766 3.8398-0.12891 6.7812 1.4062 8.832l-7.4219-1.0273c2.2188-2.3867 5.0781-3.4531 8.5742-3.1992 3.5 0.25781 6.6562 1.6641 9.4727 4.2266 2.8164 2.5586 4.2227 5.9727 4.2227 10.238 0 4.6094-1.4492 8.2773-4.3516 11.008s-6.4844 4.0977-10.75 4.0977c-4.4375 0-7.9375-1.2383-10.496-3.7148-2.5625-2.4727-4.3086-5.5469-5.25-9.2148-0.9375-3.668-1.4062-7.2969-1.4062-10.879 0-3.4141 0.68359-7.5508 2.0469-12.418 1.3672-4.8633 3.9258-9.9414 7.6797-15.23 3.7539-5.2891 9.3008-10.156 16.641-14.594z"/>
  </g>
  <g transform="translate(287.88 297.59)">
   <path d="m46.078-56.832c-5.1172 2.9023-9.1289 6.4414-12.031 10.625-2.8984 4.1797-4.6484 8.1914-5.2461 12.031-0.59766 3.8398-0.12891 6.7852 1.4062 8.832l-7.4219-1.0234c2.2188-2.3906 5.0781-3.457 8.5742-3.1992 3.5 0.25391 6.6562 1.6641 9.4727 4.2227 2.8164 2.5586 4.2227 5.9727 4.2227 10.238 0 4.6094-1.4492 8.2773-4.3516 11.008-2.9023 2.7305-6.4844 4.0977-10.75 4.0977-4.4375 0-7.9375-1.2383-10.496-3.7109-2.5625-2.4766-4.3086-5.5469-5.25-9.2188-0.9375-3.668-1.4062-7.293-1.4062-10.879 0-3.4141 0.68359-7.5508 2.0469-12.414 1.3672-4.8672 3.9258-9.9414 7.6797-15.234 3.7539-5.2891 9.3008-10.152 16.641-14.59z"/>
  </g>
  <g transform="translate(373.64 297.59)">
   <path d="m12.801-76.801v-25.598h38.398v-45.312l25.602-5.8906v51.203h20.48v-45.57l25.598-5.6328v70.914c0 2.0469-0.85157 3.5-2.5586 4.3516-1.707 0.85156-3.4141 1.3242-5.1211 1.4062-1.707 0.08594-2.5586 0.12891-2.5586 0.12891zm-7.6797 76.801v-147.97l25.598-5.6328v153.6z"/>
  </g>
  <g transform="translate(501.64 297.59)">
   <path d="m28.16 0v-104.96c0-10.582 1.4922-19.07 4.4805-25.473 2.9844-6.3984 6.9531-11.262 11.902-14.59 4.9492-3.3281 10.539-5.5898 16.77-6.7852 6.2305-1.1953 12.672-1.793 19.328-1.793h19.199v25.602h-20.48c-4.7773 0-9.0859 0.59766-12.926 1.793s-6.9141 3.4141-9.2188 6.6562c-2.3047 3.2422-3.4531 8.1055-3.4531 14.59v104.96z"/>
  </g>
  <g transform="translate(629.64 297.59)">
   <path d="m51.199 0v-147.97l25.602-5.6328v153.6z"/>
  </g>
  <g transform="translate(757.64 297.59)">
   <path d="m64-58.879c-4.9492 0-9.1719-1.75-12.672-5.25-3.5-3.4961-5.25-7.7227-5.25-12.672s1.75-9.1719 5.25-12.672c3.5-3.4961 7.7227-5.2461 12.672-5.2461s9.1719 1.75 12.672 5.2461c3.5 3.5 5.25 7.7227 5.25 12.672s-1.75 9.1758-5.25 12.672c-3.5 3.5-7.7227 5.25-12.672 5.25z"/>
  </g>
  <g transform="translate(962.95 195.19)">
   <path d="m14.848 14.848c-4.0938 0-7.5938-1.4492-10.496-4.3516-2.9023-2.9023-4.3516-6.3984-4.3516-10.496s1.4492-7.5938 4.3516-10.496c2.9023-2.9023 6.4023-4.3516 10.496-4.3516 4.0977 0 7.5938 1.4492 10.496 4.3516s4.3516 6.3984 4.3516 10.496-1.4492 7.5938-4.3516 10.496-6.3984 4.3516-10.496 4.3516z"/>
  </g>
  <g transform="translate(918.92 297.59)">
   <path d="m93.184 0v-25.602h37.375v25.602zm-36.609 52.223c-10.066 0-18.344-1.918-24.832-5.7578-6.4844-3.8398-11.562-8.6211-15.23-14.336-3.668-5.7188-6.2734-11.52-7.8086-17.41-1.5352-5.8867-2.3047-10.793-2.3047-14.719 0-7.5078 1.582-14.676 4.7383-21.504s7.2109-12.93 12.16-18.305 10.07-9.7695 15.359-13.184c0.33984 3.2422 0.17188 6.3164-0.51172 9.2148-0.68359 2.9023-2.2188 5.9766-4.6094 9.2188 1.8789 0.85156 3.457 2.0898 4.7383 3.7109 1.2773 1.6211 2.1758 3.3711 2.6875 5.2461 0.51172 1.8789 0.51172 3.8398 0 5.8906-2.3906-1.3672-4.4805-2.3477-6.2734-2.9453s-3.8828-0.72656-6.2734-0.38281c-4.7773 0.51172-8.3594 3.2422-10.75 8.1914-2.3906 4.9492-3.5859 9.8984-3.5859 14.848 0 5.8008 1.4102 11.391 4.2266 16.77 2.8164 5.375 7.2539 9.7266 13.312 13.055 6.0586 3.3281 13.949 4.9922 23.68 4.9922 8.7031 0 15.656-2.0469 20.863-6.1445 5.207-4.0977 8.875-9.2578 11.008-15.488 2.1328-6.2305 2.9453-12.332 2.4336-18.305-0.34375-4.9492-1.5391-9.7266-3.5859-14.336-2.0469-4.6055-4.3086-8.7461-6.7852-12.414-2.4727-3.6719-4.5625-6.5273-6.2695-8.5781l13.312-26.621c6.4844 7.8477 12.285 17.023 17.406 27.52 5.1211 10.496 7.6797 23.254 7.6797 38.27 0 9.5586-2.2188 18.434-6.6562 26.625s-10.707 14.719-18.816 19.586c-8.1055 4.8633-17.875 7.293-29.312 7.293z"/>
  </g>
  <g transform="translate(1044.4 297.59)">
   <path d="m-5.1211 0v-25.602h51.199l16.641 25.602zm67.84 0 16.641-25.602h51.199v25.602zm0 0c-6.9961 0-13.395-1.707-19.199-5.1211-5.8008-3.4141-10.41-8.0625-13.824-13.949-3.4141-5.8906-5.1211-12.332-5.1211-19.328 0-8.707 2.5625-16.43 7.6836-23.168 5.1172-6.7422 11.605-11.309 19.453-13.699 1.8789-0.51172 3.8828-1.7461 6.0156-3.7109 2.1367-1.9609 3.7969-5.5039 4.9922-10.625 1.3672 5.1211 3.2031 8.6641 5.5039 10.625 2.3047 1.9648 4.3125 3.2852 6.0156 3.9688 7.6836 2.3906 13.996 6.9531 18.945 13.695 4.9492 6.7422 7.4258 14.379 7.4258 22.914 0 6.9961-1.707 13.438-5.1211 19.328-3.4141 5.8867-7.9805 10.535-13.695 13.949-5.7188 3.4141-12.074 5.1211-19.074 5.1211zm0-25.602c3.5859 0 6.6133-1.2344 9.0898-3.7109 2.4727-2.4727 3.7109-5.5039 3.7109-9.0859 0-3.5859-1.2383-6.6133-3.7109-9.0898-2.4766-2.4727-5.5039-3.7109-9.0898-3.7109-3.582 0-6.6133 1.2383-9.0859 3.7109-2.4766 2.4766-3.7109 5.5039-3.7109 9.0898 0 3.582 1.2344 6.6133 3.7109 9.0859 2.4727 2.4766 5.5039 3.7109 9.0859 3.7109z"/>
  </g>
  <g transform="translate(1169.8 297.59)">
   <path d="m25.602 0v-25.602h56.32v25.602zm-30.723 0v-25.602h30.723v-173.57l25.598-5.6328v198.91c0 2.0469-0.85156 3.4961-2.5586 4.3516-1.707 0.85156-3.4141 1.3203-5.1211 1.4062-1.707 0.085937-2.5586 0.12891-2.5586 0.12891z"/>
  </g>
  <g transform="translate(1246.6 297.59)">
   <path d="m-5.1211 0v-25.602h213.76c0.17188-7.168-1.2383-13.227-4.2266-18.176-2.9844-4.9492-9.2578-7.4219-18.812-7.4219h-144.64v-25.602h144.64c10.578 0 19.07 1.4531 25.469 4.3516 6.4024 2.9023 11.266 6.8281 14.594 11.777 3.3281 4.9492 5.5898 10.496 6.7852 16.641s1.7891 12.5 1.7891 19.07v19.074c0 2.0469-0.85156 3.4961-2.5586 4.3516-1.707 0.85156-3.4141 1.3203-5.1211 1.4062-1.707 0.085937-2.5586 0.12891-2.5586 0.12891zm34.562-51.199v-147.97l25.598-5.6328v153.6z"/>
  </g>
  <g transform="translate(1544.8 374.39)">
   <path d="m59.137 14.848c-4.0977 0-7.5938-1.4492-10.496-4.3516s-4.3516-6.3984-4.3516-10.496 1.4492-7.5938 4.3516-10.496 6.3984-4.3516 10.496-4.3516c4.0938 0 7.5938 1.4492 10.496 4.3516 2.9023 2.9023 4.3516 6.3984 4.3516 10.496s-1.4492 7.5938-4.3516 10.496c-2.9023 2.9023-6.4023 4.3516-10.496 4.3516zm-44.289 0c-4.0938 0-7.5938-1.4492-10.496-4.3516-2.9023-2.9023-4.3516-6.3984-4.3516-10.496s1.4492-7.5938 4.3516-10.496c2.9023-2.9023 6.4023-4.3516 10.496-4.3516 4.0977 0 7.5938 1.4492 10.496 4.3516s4.3516 6.3984 4.3516 10.496-1.4492 7.5938-4.3516 10.496-6.3984 4.3516-10.496 4.3516z"/>
  </g>
  <g transform="translate(1520.5 297.59)">
   <path d="m100.61 51.199-59.137-103.17c-6.9961-12.117-10.324-22.785-9.9844-32 0.33984-9.2148 2.9883-17.277 7.9375-24.191 4.9492-6.9102 10.836-12.93 17.664-18.047 5.2891-3.9258 9.3867-7.4258 12.285-10.496 2.9023-3.0742 4.3516-7.9375 4.3516-14.594l86.785 151.3h-29.441l-60.672-104.96c-6.3125 3.4141-10.195 8.918-11.645 16.512-1.4531 7.5977 0.21094 15.574 4.9883 23.938l66.051 115.71zm38.656-51.199v-25.602h39.934v25.602zm-132.87 51.199 21.504-35.84c1.707 3.4141 4.2695 5.9727 7.6836 7.6797 3.4102 1.707 6.6523 2.5625 9.7266 2.5625h51.969l15.359 25.598z"/>
  </g>
  <g transform="translate(1694.6 297.59)">
   <path d="m220.16 0v-25.602h44.801v25.602zm-232.96 0v-25.602h44.801v25.602zm42.242-12.801v-186.37l25.598-5.6328v192zm-40.961 12.801 15.359-25.602h66.559v25.602zm52.48 0v-25.602h167.68c0.17188-7.168-1.2383-13.227-4.2266-18.176-2.9844-4.9492-9.2578-7.4219-18.812-7.4219h-144.64v-25.602h144.64c10.578 0 19.07 1.4531 25.469 4.3516 6.4024 2.9023 11.266 6.8281 14.594 11.777 3.3281 4.9492 5.5898 10.496 6.7852 16.641s1.7891 12.5 1.7891 19.07v19.074c0 2.0469-0.85156 3.4961-2.5586 4.3516-1.707 0.85156-3.4141 1.3203-5.1211 1.4062-1.707 0.085937-2.5586 0.12891-2.5586 0.12891z"/>
  </g>
  <g transform="translate(1954.4 297.59)">
   <path d="m-5.1211 0v-25.602h49.41c-3.5859-2.0469-7.2969-5.2891-11.137-9.7266s-6.7852-8.2773-8.832-11.52l14.336-27.391c5.9727 9.3867 12.672 17.746 20.098 25.086 7.4219 7.3398 15.188 13.098 23.293 17.281 8.1094 4.1797 16.258 6.2695 24.449 6.2695h62.465l-15.359 25.602z"/>
  </g>
  <g transform="translate(2186.6 169.59)">
   <path d="m14.848 14.848c-4.0938 0-7.5938-1.4492-10.496-4.3516-2.9023-2.9023-4.3516-6.3984-4.3516-10.496s1.4492-7.5938 4.3516-10.496c2.9023-2.9023 6.4023-4.3516 10.496-4.3516 4.0977 0 7.5938 1.4492 10.496 4.3516s4.3516 6.3984 4.3516 10.496-1.4492 7.5938-4.3516 10.496-6.3984 4.3516-10.496 4.3516z"/>
  </g>
  <g transform="translate(2163.1 297.59)">
   <path d="m-21.762 38.398c9.7305 2.5625 17.707 3.6719 23.938 3.3281 6.2305-0.33984 11.051-1.707 14.465-4.0938 3.4141-2.3906 5.7578-5.375 7.0391-8.9609 1.2812-3.582 1.9219-7.168 1.9219-10.75v-89.09l25.598-5.6328v92.16c0 9.0469-1.918 16.426-5.7578 22.145s-8.832 9.8984-14.977 12.543c-6.1445 2.6445-12.586 3.8828-19.328 3.7148-6.7422-0.17188-13.059-1.582-18.945-4.2266-5.8867-2.6445-10.539-6.3555-13.953-11.137z"/>
  </g>
  <g transform="translate(2220.7 297.59)">
   <path d="m44.289 0 12.801-25.602h50.43v25.602zm38.656-38.398-38.145-38.402h8.7031c3.5859 0 7.2969-0.29688 11.137-0.89453 3.8398-0.59766 7.4219-1.75 10.75-3.457 3.3281-1.707 5.8477-4.1797 7.5547-7.4219zm-38.145 38.398c-7 0-13.398-1.707-19.199-5.1211-5.8047-3.4141-10.453-8.0625-13.953-13.949-3.5-5.8906-5.25-12.332-5.25-19.328 0-7.168 1.75-13.656 5.25-19.457 3.5-5.8047 8.1484-10.41 13.953-13.824 5.8008-3.4141 12.199-5.1211 19.199-5.1211 6.9961 0 13.398 1.707 19.199 5.1211 5.8008 3.4141 10.41 8.0195 13.824 13.824 3.4141 5.8008 5.1211 12.289 5.1211 19.457 0 6.9961-1.707 13.438-5.1211 19.328-3.4141 5.8867-8.0234 10.535-13.824 13.949-5.8008 3.4141-12.203 5.1211-19.199 5.1211zm0-25.602c3.582 0 6.6133-1.2344 9.0859-3.7109 2.4766-2.4727 3.7148-5.5039 3.7148-9.0859 0-3.5859-1.2383-6.6133-3.7148-9.0898-2.4727-2.4727-5.5039-3.7109-9.0859-3.7109-3.5859 0-6.6133 1.2383-9.0898 3.7109-2.4727 2.4766-3.7109 5.5039-3.7109 9.0898 0 3.582 1.2383 6.6133 3.7109 9.0859 2.4766 2.4766 5.5039 3.7109 9.0898 3.7109zm-34.816 59.395c9.7266 2.5586 17.707 3.668 23.938 3.3281 6.2266-0.34375 11.047-1.707 14.461-4.0977 3.4141-2.3906 5.7617-5.375 7.043-8.9609 1.2773-3.582 1.918-7.168 1.918-10.75v-46.082l25.602-5.6289v49.152c0 9.043-1.9219 16.426-5.7617 22.141-3.8398 5.7188-8.832 9.8984-14.977 12.547-6.1445 2.6445-12.586 3.8828-19.328 3.7109-6.7383-0.17188-13.055-1.5781-18.941-4.2227-5.8906-2.6484-10.539-6.3594-13.953-11.137z"/>
  </g>
  <g transform="translate(2323.1 297.59)">
   <path d="m24.32 12.801v-51.199h3.582v51.199zm-29.441-12.801v-25.602h51.199l16.641 25.602zm94.723 12.801v-51.199h11.262v51.199zm-26.883 38.398c-6.9961 0-13.395-1.707-19.199-5.1211-5.8008-3.4102-10.453-8.0625-13.953-13.949-3.4961-5.8906-5.2461-12.332-5.2461-19.328 0-7.168 1.75-13.652 5.2461-19.457 3.5-5.8008 8.1523-10.41 13.953-13.824 5.8047-3.4141 12.203-5.1211 19.199-5.1211 7 0 13.398 1.707 19.203 5.1211 5.8008 3.4141 10.41 8.0234 13.82 13.824 3.4141 5.8047 5.1211 12.289 5.1211 19.457 0 6.9961-1.707 13.438-5.1211 19.328-3.4102 5.8867-8.0195 10.539-13.82 13.949-5.8047 3.4141-12.203 5.1211-19.203 5.1211zm0-25.598c3.5859 0 6.6133-1.2383 9.0898-3.7148 2.4727-2.4727 3.7109-5.5039 3.7109-9.0859 0-3.5859-1.2383-6.6133-3.7109-9.0898-2.4766-2.4727-5.5039-3.7109-9.0898-3.7109-3.582 0-6.6133 1.2383-9.0859 3.7109-2.4766 2.4766-3.7109 5.5039-3.7109 9.0898 0 3.582 1.2344 6.6133 3.7109 9.0859 2.4727 2.4766 5.5039 3.7148 9.0859 3.7148zm38.145-64-38.145-38.402h8.707c3.582 0 7.293-0.29688 11.133-0.89453 3.8398-0.59766 7.4258-1.75 10.754-3.457 3.3281-1.707 5.8438-4.1797 7.5508-7.4219zm-38.145 38.398c-6.9961 0-13.395-1.707-19.199-5.1211-5.8008-3.4141-10.453-8.0625-13.953-13.949-3.4961-5.8906-5.2461-12.332-5.2461-19.328 0-7.168 1.75-13.656 5.2461-19.457 3.5-5.8047 8.1523-10.41 13.953-13.824 5.8047-3.4141 12.203-5.1211 19.199-5.1211 7 0 13.398 1.707 19.203 5.1211 5.8008 3.4141 10.41 8.0195 13.82 13.824 3.4141 5.8008 5.1211 12.289 5.1211 19.457 0 6.9961-1.707 13.438-5.1211 19.328-3.4102 5.8867-8.0195 10.535-13.82 13.949-5.8047 3.4141-12.203 5.1211-19.203 5.1211zm0-25.602c3.5859 0 6.6133-1.2344 9.0898-3.7109 2.4727-2.4727 3.7109-5.5039 3.7109-9.0859 0-3.5859-1.2383-6.6133-3.7109-9.0898-2.4766-2.4727-5.5039-3.7109-9.0898-3.7109-3.582 0-6.6133 1.2383-9.0859 3.7109-2.4766 2.4766-3.7109 5.5039-3.7109 9.0898 0 3.582 1.2344 6.6133 3.7109 9.0859 2.4727 2.4766 5.5039 3.7109 9.0859 3.7109z"/>
  </g>
  <g transform="translate(2463.6 297.59)">
   <path d="m6.3984 0 15.363-25.602h162.56c0.17188-7.168-1.2383-13.227-4.2226-18.176-2.9883-4.9492-9.2617-7.4219-18.816-7.4219h-126.72l33.793-56.32 2.5586 1.793-13.309 28.926h103.68c10.582 0 19.027 1.4531 25.344 4.3516 6.3125 2.9023 11.137 6.7852 14.465 11.648 3.3242 4.8633 5.5859 10.324 6.7812 16.387 1.1953 6.0586 1.8789 12.328 2.0508 18.812h30.719v25.602z"/>
  </g>
  <g transform="translate(2745.7 336)">
   <path d="m14.848 14.848c-4.0938 0-7.5938-1.4492-10.496-4.3516-2.9023-2.9023-4.3516-6.3984-4.3516-10.496s1.4492-7.5938 4.3516-10.496c2.9023-2.9023 6.4023-4.3516 10.496-4.3516 4.0977 0 7.5938 1.4492 10.496 4.3516s4.3516 6.3984 4.3516 10.496-1.4492 7.5938-4.3516 10.496-6.3984 4.3516-10.496 4.3516z"/>
  </g>
  <g transform="translate(2699.1 297.59)">
   <path d="m-5.1211 0v-25.602h49.41c-3.5859-2.0469-7.2969-5.2891-11.137-9.7266s-6.7852-8.2773-8.832-11.52l14.336-27.391c5.9727 9.3867 12.672 17.746 20.098 25.086 7.4219 7.3398 15.188 13.098 23.293 17.281 8.1094 4.1797 16.258 6.2695 24.449 6.2695h62.465l-15.359 25.602z"/>
  </g>
  <g transform="translate(2821.8 322.69)">
   <path d="m14.848 14.848c-4.0938 0-7.5938-1.4492-10.496-4.3516-2.9023-2.9023-4.3516-6.3984-4.3516-10.496s1.4492-7.5938 4.3516-10.496c2.9023-2.9023 6.4023-4.3516 10.496-4.3516 4.0977 0 7.5938 1.4492 10.496 4.3516s4.3516 6.3984 4.3516 10.496-1.4492 7.5938-4.3516 10.496-6.3984 4.3516-10.496 4.3516z"/>
  </g>
  <g transform="translate(2874.5 297.59)">
   <path d="m-111.36-42.238c6.4844-0.85547 10.922-2.9023 13.313-6.1445 2.3867-3.2422 3.7539-7.2969 4.0938-12.16 0.34375-4.8633 0.51172-10.285 0.51172-16.258v-19.969l25.602-5.6289v25.598c0 9.3867-1.1953 16.684-3.5859 21.891-2.3867 5.2031-5.418 8.9141-9.0859 11.133s-7.5508 3.457-11.648 3.7148c-4.0977 0.25391-7.8516 0.04297-11.266-0.64062-3.4102-0.68359-6.0586-1.1953-7.9336-1.5352z"/>
  </g>
  <g transform="translate(2863 80)">
   <path d="m18.688-2.3047v-8.4492c0-3.2422 0.08594-5.8438 0.25781-7.8047 0.16797-1.9648 0.59766-4.2266 1.2773-6.7852 1.3672-5.1211 3.6719-9.3438 6.9141-12.672 3.2422-3.3281 8.1914-4.9922 14.848-4.9922 2.3906 0 5.2461 0.72656 8.5742 2.1758s5.8477 4.1406 7.5547 8.0625c-1.0234-0.51172-3.2422-1.1914-6.6562-2.0469-3.4141-0.85156-6.3164-0.9375-8.7031-0.25391-2.7344 0.67969-4.6953 1.918-5.8906 3.7109-1.1953 1.793-1.875 3.4961-2.0469 5.1211-0.17188 1.6211-0.25781 2.7734-0.25781 3.4531 0 3.4141 0.89844 5.8047 2.6875 7.168 1.793 1.3672 3.9258 2.1758 6.4023 2.4336 2.4727 0.25391 4.7344 0.38281 6.7852 0.38281h6.6562l0.25391 10.496zm-18.688 2.3047 7.6797-12.801h61.441l-7.6797 12.801z"/>
  </g>
  <g transform="translate(2874.5 297.59)">
   <path d="m56.32-14.848c-1.0234 3.7539-3.3711 6.9531-7.0391 9.6016-3.6719 2.6445-7.9375 4.4766-12.801 5.5039-4.8633 1.0234-9.5586 1.0234-14.082 0-4.5195-1.0273-8.3203-3.2031-11.391-6.5312-3.0703-3.3281-4.6094-8.0625-4.6094-14.207v-178.69l25.602-5.6328v184.32c0 3.0742 0.9375 5.25 2.8164 6.5273 1.875 1.2812 4.1797 1.9648 6.9102 2.0508 2.7305 0.08203 5.4609-0.21484 8.1953-0.89844 2.7305-0.68359 4.8633-1.3633 6.3984-2.0469z"/>
  </g>
 </g>
</svg>
