<svg xmlns="http://www.w3.org/2000/svg" viewBox="0 -100 2947 416"><path d="M1.04 0h23.4v148.46H1.04zm12.48 197.34q-7.28 0-11.96-4.03t-4.68-10.53q0-6.24 4.81-10.53t11.83-4.29 11.57 4.29 4.55 10.53q0 6.5-4.55 10.53t-11.57 4.03m76.18-48.36v-10.14q0-10.4-2.6-16.77t-6.89-11.05-9.75-9.36Q60.84 93.08 53.3 81.9t-7.28-28.34q.26-11.96 7.02-23.4t18.33-18.98T97.5 3.64q12.22-.26 21.58 3.77t16.12 10.14 11.18 12.61q2.86 4.16 7.41 7.02t7.15 3.9L132.6 59.8q-.26-3.12-2.21-8.06t-3.51-7.54q-4.42-6.76-11.05-11.44t-15.73-4.68q-12.48 0-21.32 7.8T69.94 55.9q0 7.8 3.51 13.65t8.84 10.4 10.53 8.97q5.72 4.94 10.66 10.53t7.93 13.52 2.99 20.15v15.86zm12.48 48.62q-6.24 0-10.66-4.42t-4.42-10.66 4.42-10.66 10.66-4.42 10.66 4.42 4.42 10.66-4.42 10.66-10.66 4.42m83.98-71.24q-5.72 0-10.14-4.03t-4.42-10.53q0-6.24 4.42-10.53t10.14-4.29q4.94 0 9.49 4.29t4.55 10.53q0 6.5-4.55 10.53t-9.49 4.03m0 71.24q-5.72 0-10.14-4.03t-4.42-10.53q0-6.24 4.42-10.53t10.14-4.29q4.94 0 9.49 4.29t4.55 10.53q0 6.5-4.55 10.53t-9.49 4.03m55.38 0q-6.24 0-10.66-4.42t-4.42-10.66 4.42-10.66 10.66-4.42 10.66 4.42 4.42 10.66-4.42 10.66-10.66 4.42m15.08-106.86q-7.8 4.42-12.22 10.79t-5.33 12.22 1.43 8.97l-7.54-1.04q3.38-3.64 8.71-3.25t9.62 4.29 4.29 10.4q0 7.02-4.42 11.18t-10.92 4.16q-6.76 0-10.66-3.77t-5.33-9.36-1.43-11.05q0-5.2 2.08-12.61t7.8-15.47 16.9-14.82zm53.3 49.14q-7.8 4.42-12.22 10.79t-5.33 12.22 1.43 8.97l-7.54-1.04q3.38-3.64 8.71-3.25t9.62 4.29 4.29 10.4q0 7.02-4.42 11.18t-10.92 4.16q-6.76 0-10.66-3.77t-5.33-9.36-1.43-11.05q0-5.2 2.08-12.61t7.8-15.47 16.9-14.82zm19.5-20.28v-26h39V47.58l26-5.98v52h20.8V47.32l26-5.72v72.02q0 3.12-2.6 4.42t-5.2 1.43l-2.6.13zm-7.8 78V47.32l26-5.72v156zm153.4 0V91q0-16.12 4.55-25.87t12.09-14.82 17.03-6.89 19.63-1.82h19.5v26h-20.8q-7.28 0-13.13 1.82t-9.36 6.76T501.02 91v106.6zm153.4 0V47.32l26-5.72v156zm143-59.8q-7.54 0-12.87-5.33t-5.33-12.87 5.33-12.87 12.87-5.33 12.87 5.33 5.33 12.87-5.33 12.87-12.87 5.33m158.6-29.12q-6.24 0-10.66-4.42t-4.42-10.66 4.42-10.66 10.66-4.42 10.66 4.42 4.42 10.66-4.42 10.66-10.66 4.42m34.84 88.92v-26h37.96v26zm-37.18 53.04q-15.34 0-25.22-5.85t-15.47-14.56-7.93-17.68-2.34-14.95q0-11.44 4.81-21.84t12.35-18.59 15.6-13.39q.52 4.94-.52 9.36t-4.68 9.36q2.86 1.3 4.81 3.77t2.73 5.33 0 5.98q-3.64-2.08-6.37-2.99t-6.37-.39q-7.28.78-10.92 8.32t-3.64 15.08q0 8.84 4.29 17.03t13.52 13.26 24.05 5.07q13.26 0 21.19-6.24t11.18-15.73 2.47-18.59q-.52-7.54-3.64-14.56t-6.89-12.61-6.37-8.71l13.52-27.04q9.88 11.96 17.68 27.95t7.8 38.87q0 14.56-6.76 27.04t-19.11 19.89-29.77 7.41"/><path d="M992.42 197.6v-26h52l16.9 26zm68.9 0 16.9-26h52v26zm0 0q-10.66 0-19.5-5.2t-14.04-14.17-5.2-19.63q0-13.26 7.8-23.53t19.76-13.91q2.86-.78 6.11-3.77t5.07-10.79q2.08 7.8 5.59 10.79t6.11 4.03q11.7 3.64 19.24 13.91t7.54 23.27q0 10.66-5.2 19.63t-13.91 14.17-19.37 5.2m0-26q5.46 0 9.23-3.77t3.77-9.23-3.77-9.23-9.23-3.77-9.23 3.77-3.77 9.23 3.77 9.23 9.23 3.77"/><path d="M1151.02 197.6v-26h57.2v26zm-31.2 0v-26h31.2V-4.68l26-5.72v202.02q0 3.12-2.6 4.42t-5.2 1.43l-2.6.13z"/><path d="m1187.42 197.6 15.6-26h208q.26-10.92-4.29-18.46t-19.11-7.54h-163.8l26-26h137.8q16.12 0 25.87 4.42t14.82 11.96 6.89 16.9 1.82 19.37v19.37q0 3.12-2.6 4.42t-5.2 1.43l-2.6.13zm76.7-57.72-17.16-17.42 86.32-85.02v42.9q-1.56-2.86-3.51-2.73t-3.25 1.43zm297.96 150.8q-6.24 0-10.66-4.42T1547 275.6t4.42-10.66 10.66-4.42 10.66 4.42 4.42 10.66-4.42 10.66-10.66 4.42m-44.98 0q-6.24 0-10.66-4.42t-4.42-10.66 4.42-10.66 10.66-4.42 10.66 4.42 4.42 10.66-4.42 10.66-10.66 4.42m62.4-41.08-60.06-104.78q-10.66-18.46-10.14-32.5t8.06-24.57 17.94-18.33q8.06-5.98 12.48-10.66t4.42-14.82l88.14 153.66h-29.9L1548.82 91q-9.62 5.2-11.83 16.77t5.07 24.31l67.08 117.52zm39.26-52v-26h40.56v26zm-134.94 52 21.84-36.4q2.6 5.2 7.8 7.8t9.88 2.6h52.78l15.6 26z"/><path d="M1877.72 197.6v-26h45.5v26zm-236.6 0v-26h45.5v26zm42.9-13V-4.68l26-5.72v195zm-41.6 13 15.6-26h67.6v26zm53.3 0v-26h170.3q.26-10.92-4.29-18.46t-19.11-7.54h-146.9v-26h146.9q16.12 0 25.87 4.42t14.82 11.96 6.89 16.9 1.82 19.37v19.37q0 3.12-2.6 4.42t-5.2 1.43l-2.6.13z"/><path d="M1912.82 197.6v-26H1963q-5.46-3.12-11.31-9.88t-8.97-11.7l14.56-27.82q9.1 14.3 20.41 25.48t23.66 17.55 24.83 6.37h63.44l-15.6 26zm256.1-114.92q-6.24 0-10.66-4.42t-4.42-10.66 4.42-10.66 10.66-4.42 10.66 4.42T2184 67.6t-4.42 10.66-10.66 4.42m-61.1 153.92q14.82 3.9 24.31 3.38t14.69-4.16 7.15-9.1 1.95-10.92v-90.48l26-5.72v93.6q0 13.78-5.85 22.49t-15.21 12.74-19.63 3.77-19.24-4.29-14.17-11.31m125.58-39 13-26h51.22v26zm-34.84 34.32q14.82 3.9 24.31 3.38t14.69-4.16 7.15-9.1 1.95-10.92v-46.8l26-5.72v49.92q0 13.78-5.85 22.49t-15.21 12.74-19.63 3.77-19.24-4.29-14.17-11.31m74.1-73.32-38.74-39h8.84q5.46 0 11.31-.91t10.92-3.51 7.67-7.54zm-38.74 39q-10.66 0-19.5-5.2t-14.17-14.17-5.33-19.63q0-10.92 5.33-19.76t14.17-14.04 19.5-5.2 19.5 5.2 14.04 14.04 5.2 19.76q0 10.66-5.2 19.63t-14.04 14.17-19.5 5.2m0-26q5.46 0 9.23-3.77t3.77-9.23-3.77-9.23-9.23-3.77-9.23 3.77-3.77 9.23 3.77 9.23 9.23 3.77"/><path d="M2317.12 210.6v-52h3.64v52zm-29.9-13v-26h52l16.9 26zm96.2 13v-52h11.44v52zm-27.3 39q-10.66 0-19.5-5.2t-14.17-14.17-5.33-19.63q0-10.92 5.33-19.76t14.17-14.04 19.5-5.2 19.5 5.2 14.04 14.04 5.2 19.76q0 10.66-5.2 19.63t-14.04 14.17-19.5 5.2m0-26q5.46 0 9.23-3.77t3.77-9.23-3.77-9.23-9.23-3.77-9.23 3.77-3.77 9.23 3.77 9.23 9.23 3.77m38.74-65-38.74-39h8.84q5.46 0 11.31-.91t10.92-3.51 7.67-7.54zm-38.74 39q-10.66 0-19.5-5.2t-14.17-14.17-5.33-19.63q0-10.92 5.33-19.76t14.17-14.04 19.5-5.2 19.5 5.2 14.04 14.04 5.2 19.76q0 10.66-5.2 19.63t-14.04 14.17-19.5 5.2m0-26q5.46 0 9.23-3.77t3.77-9.23-3.77-9.23-9.23-3.77-9.23 3.77-3.77 9.23 3.77 9.23 9.23 3.77m85.54 26 15.6-26h165.1q.26-10.92-4.29-18.46t-19.11-7.54h-128.7l34.32-57.2 2.6 1.82-13.52 29.38h105.3q16.12 0 25.74 4.42t14.69 11.83 6.89 16.64 2.08 19.11h31.2v26zm295.1 54.08q-6.24 0-10.66-4.42t-4.42-10.66 4.42-10.66 10.66-4.42 10.66 4.42 4.42 10.66-4.42 10.66-10.66 4.42"/><path d="M2669.16 197.6v-26h50.18q-5.46-3.12-11.31-9.88t-8.97-11.7l14.56-27.82q9.1 14.3 20.41 25.48t23.66 17.55 24.83 6.37h63.44l-15.6 26zm144.82 40.56q-6.24 0-10.66-4.42t-4.42-10.66 4.42-10.66 10.66-4.42 10.66 4.42 4.42 10.66-4.42 10.66-10.66 4.42"/><path d="M2739.36 154.7q9.88-1.3 13.52-6.24t4.16-12.35.52-16.51V99.32l26-5.72v26q0 14.3-3.64 22.23t-9.23 11.31-11.83 3.77-11.44-.65-8.06-1.56m120.38-180.44v-8.58q0-4.94.26-7.93t1.3-6.89q2.08-7.8 7.02-12.87t15.08-5.07q3.64 0 8.71 2.21t7.67 8.19q-1.56-.78-6.76-2.08t-8.84-.26q-4.16 1.04-5.98 3.77t-2.08 5.2-.26 3.51q0 5.2 2.73 7.28t6.5 2.47 6.89.39h6.76l.26 10.66zm-18.98 2.34 7.8-13h62.4l-7.8 13zm68.9 205.92q-1.56 5.72-7.15 9.75t-13 5.59-14.3 0-11.57-6.63-4.68-14.43V-4.68l26-5.72v187.2q0 4.68 2.86 6.63t7.02 2.08 8.32-.91 6.5-2.08"/></svg>