<svg xmlns="http://www.w3.org/2000/svg" viewBox="0 0 323.29 93.504"><g fill="#fff"><path d="M8.08 92.75c-2.969-3.078-6.344-9.781-6.344-19.688 0-10.312 3.375-16.594 6.344-19.672v-.734C3.361 56.453.002 64.125.002 73.062c0 8.968 3.36 16.64 8.078 20.438z" /><path d="M12.81 84.71c-.437 1.766-.781 2.922-1.64 2.922-.126 0-.204-.047-.204-.156.031-.157.297-.344.297-.657 0-.296-.25-.406-.5-.406-.515 0-.922.438-.922 1.016 0 .375.266.719.953.719 1.844 0 2.86-1.672 3.47-4.063l5.562-22.641c.422-1.719.812-2.937 1.672-2.937.125 0 .203.062.203.156-.031.187-.313.312-.313.672 0 .297.25.39.5.39.531 0 .953-.437.953-.984 0-.406-.28-.734-.968-.734-1.891 0-2.922 1.796-3.563 4.375z" /><path d="M28.49 61.18c-.266.344-.75.953-1.625.953-.89 0-1.39-.828-1.39-1.672 0-.64.437-1.187 1-1.187.671 0 1.296.687 2.015 1.875zm.656-.64c.297-.422.672-1.016 1.563-1.016.875 0 1.39.765 1.39 1.672 0 .64-.437 1.187-1 1.187-.687 0-1.234-.625-1.953-1.812zm3.547.218c0-1.328-.922-2.062-1.812-2.062-1.016 0-1.47.625-1.922 1.453-.953-1.266-1.453-1.453-2.172-1.453-.578 0-1.906.453-1.906 2.28 0 1.376.89 2 1.75 2 .953 0 1.64-.53 2.078-1.452.625.922 1.187 1.453 2.015 1.453 1.25 0 1.97-1.25 1.97-2.219z" /><path d="M20.65 85.57c0 1.969-.438 3.11-1.281 3.11-.86 0-1.297-1.126-1.297-3.157 0-2.015.437-3.203 1.265-3.203.875 0 1.313 1.172 1.313 3.25m.969-.062c0-2.032-.907-3.438-2.22-3.438-1.608 0-2.296 1.625-2.296 3.39 0 1.626.547 3.485 2.266 3.485 1.609 0 2.25-1.719 2.25-3.437" /><path d="M40.28 63.02q.374.002.625.062.264.064.703.11.059.3.094.687.045.394.062.735 0 .063-.14.062h-.11a.2.2 0 0 1-.109-.062 2.5 2.5 0 0 0-.219-.516 1.7 1.7 0 0 0-.375-.469.73.73 0 0 0-.5-.203q-.468 0-.703.235a.8.8 0 0 0-.219.578q-.001.328.157.547.17.205.421.359.264.142.563.312l.625.391q.357.221.61.5c.163.188.25.422.25.703q0 .517-.282.922a2 2 0 0 1-.734.64 2.3 2.3 0 0 1-.985.22q-.455 0-.765-.094-.316-.076-.75-.156a4 4 0 0 1-.11-.391 6.5 6.5 0 0 1-.109-.953.4.4 0 0 1 .234-.078q.075 0 .11.03c.05.18.144.36.281.548q.202.282.484.484.294.188.641.188.404 0 .672-.235.265-.233.266-.687-.002-.406-.25-.64a2.3 2.3 0 0 0-.594-.438 25 25 0 0 1-.735-.422 2.6 2.6 0 0 1-.687-.547q-.298-.328-.297-.844-.002-.466.266-.828.281-.358.703-.547.42-.201.906-.203m3.36-2.016q0-.264.187-.453c.187-.189.273-.187.453-.187a.62.62 0 0 1 .453.187.6.6 0 0 1 .203.453q-.002.27-.203.47a.62.62 0 0 1-.453.187.6.6 0 0 1-.453-.188.66.66 0 0 1-.188-.469m1.234 6.188v.547q.013.253.078.406.012.066.187.125.17.048.344.078.188.017.281.016.031.046.032.187c.008.086 0 .145-.032.188q-.41-.036-.703-.047-.3-.03-.687-.031-.376 0-.688.03-.3.013-.687.048c-.043-.043-.063-.102-.063-.188q.014-.14.063-.187.076.001.265-.016a3 3 0 0 0 .375-.078q.172-.06.172-.125.062-.153.063-.406.014-.247.015-.547V64.77c0-.082-.008-.191-.015-.328a.8.8 0 0 0-.063-.344q-.032-.123-.218-.172a1.5 1.5 0 0 0-.375-.047q-.188-.014-.235-.015-.018-.012-.031-.14-.017-.141.031-.204a6.5 6.5 0 0 0 .969-.188q.481-.138.875-.359.046 0 .094.094a.3.3 0 0 1 .047.125q-.001.047-.032.234a6 6 0 0 1-.047.36q-.016.189-.015.25zm5.336-4.188c.468 0 .82.102 1.062.297q.357.298.485.907.124.609.125 1.546v1.985q.013.253.062.406.03.066.188.125.17.048.359.078a3 3 0 0 0 .266.016q.045.046.046.187c0 .086-.015.145-.046.188q-.41-.036-.704-.047-.297-.03-.671-.031c-.374-.001-.48.011-.688.03q-.3.013-.703.048a.3.3 0 0 1-.047-.188q.012-.14.047-.187.076.001.266-.016.198-.03.375-.078.17-.06.187-.125.047-.153.047-.406.014-.247.016-.547v-1.297c0-.539-.04-.96-.11-1.266q-.093-.468-.375-.656-.282-.201-.781-.203c-.168 0-.344.055-.531.156q-.283.142-.5.313c-.149.117-.219.199-.219.25v3.25q.013.253.078.406.012.066.188.125.168.048.343.078.188.017.282.016.03.046.03.187c.009.086 0 .145-.03.188q-.41-.036-.704-.047-.3-.03-.687-.031-.375 0-.688.03-.3.013-.687.048c-.043-.043-.063-.102-.063-.188.008-.093.032-.156.063-.187q.076.001.266-.016.198-.03.375-.078.17-.06.171-.125.061-.153.063-.406.014-.247.016-.547v-2.36c0-.093-.008-.218-.016-.374a.9.9 0 0 0-.063-.36q-.033-.123-.218-.172a1.5 1.5 0 0 0-.375-.047q-.187-.014-.235-.015-.018-.012-.03-.14c-.013-.095 0-.161.03-.204a6.5 6.5 0 0 0 .97-.187c.32-.094.612-.211.874-.36q.047 0 .094.094a.3.3 0 0 1 .047.125q-.002.047-.016.219-.018.158-.047.312-.017.16-.015.219-.002.047.03.047.013.002.048-.031c.082-.094.222-.211.422-.36a3.4 3.4 0 0 1 .656-.406 1.45 1.45 0 0 1 .672-.188" /><path d="m59.18 64.86-.266-.734c-.156-.438-.406-.97-.984-1.297l-1.766.437.047.235c.125-.047.328-.079.5-.079.735 0 1.078.547 1.297 1.188l.453 1.219-.875 1.344c-.422.656-.765.78-.922.78-.328 0-.28-.265-.625-.265-.328 0-.5.281-.5.5 0 .281.204.625.688.625.734 0 1.125-.578 1.547-1.234l.844-1.297.53 1.5c.173.484.423 1.031.97 1.031.765 0 1.359-1.281 1.53-1.484l-.187-.125c-.28.562-.61.75-.812.75-.594 0-.906-1.797-1.313-2.61l.735-1.125c.187-.297.328-.515.734-.515.219 0 .297.125.578.125.344 0 .531-.313.531-.563 0-.281-.234-.437-.656-.437-.672 0-1.125.593-1.469 1.125z" /><path d="M37.75 72.63v.877h24.689v-.877z" color="#000"/><path d="M53.08 77.02h-.719l-5.5 14.156H46.8l-2.703-7.125h-.25l-2.078 1.656.156.266c.297-.266.64-.422.875-.422.328 0 .594.187.812.797l2.688 7.031h.422z" /><path d="M52.6 77.02v.875h7.307v-.875z" color="#000"/><path d="m56.65 85.22-.266-.734c-.156-.438-.406-.97-.984-1.297l-1.766.437.047.235c.125-.047.328-.078.5-.078.735 0 1.078.546 1.297 1.187l.453 1.219-.875 1.344c-.422.656-.765.78-.922.78-.328 0-.28-.265-.625-.265-.328 0-.5.281-.5.5 0 .281.204.625.688.625.734 0 1.125-.578 1.547-1.234l.844-1.297.53 1.5c.173.484.423 1.031.97 1.031.765 0 1.359-1.281 1.53-1.484l-.187-.125c-.281.562-.61.75-.812.75-.594 0-.906-1.797-1.313-2.61l.735-1.125c.187-.297.328-.515.734-.515.219 0 .297.125.578.125.344 0 .531-.313.531-.563 0-.281-.234-.437-.656-.437-.672 0-1.125.593-1.469 1.125z" /><path d="M68.86 71.88c0 .406-.078.922-.219 1.39-.375 1.22-1.25 2.47-2.172 2.47-.375 0-.75-.22-.75-.876 0-1.265 1.078-3.922 2.391-3.922.547 0 .75.313.75.938m2.172-4.36-2.078.329.062.187c.094-.015.235-.031.36-.031.343 0 .437.094.437.266a.5.5 0 0 1-.031.156l-.703 2.781h-.031c-.016-.328-.313-.672-1.078-.672-2.032 0-3.407 2.969-3.407 4.328 0 .703.203 1.688 1.172 1.688.485 0 1.281-.156 2.266-1.39h.062c-.093.39-.125.577-.125.843 0 .25.11.547.532.547.625 0 1.328-.797 1.718-1.39l-.14-.157c-.188.281-.563.734-.828.734-.125 0-.188-.03-.188-.109 0-.047 0-.125.016-.172zm4.91 5.048-.266-.735c-.156-.437-.406-.969-.984-1.297l-1.765.438.046.234a1.6 1.6 0 0 1 .5-.078c.735 0 1.078.547 1.297 1.188l.453 1.218-.875 1.344c-.421.656-.765.781-.921.781-.329 0-.282-.265-.625-.265a.5.5 0 0 0-.5.5c0 .281.203.625.687.625.734 0 1.125-.578 1.547-1.235l.844-1.297.53 1.5c.173.485.423 1.032.97 1.032.765 0 1.36-1.282 1.53-1.485l-.187-.125c-.28.563-.609.75-.812.75-.594 0-.906-1.797-1.313-2.61l.735-1.124c.187-.297.328-.516.734-.516.219 0 .297.125.578.125.344 0 .532-.312.532-.562 0-.282-.235-.438-.657-.438-.672 0-1.125.594-1.469 1.125z" /><path d="M80.22 53.39c2.969 3.094 6.344 9.484 6.344 19.656 0 10.062-3.375 16.641-6.344 19.703v.75c4.703-3.797 8.063-11.578 8.063-20.438 0-9.047-3.36-16.609-8.063-20.406z" /><path d="m94.66 56.27-.14-.063c-.329.547-.532.672-.954.672h-2.328l1.64-1.765c.891-.938 1.282-1.688 1.282-2.469 0-.984-.719-1.75-1.844-1.75-1.234 0-1.86.812-2.078 1.984l.219.047c.39-.984.734-1.297 1.453-1.297.86 0 1.39.5 1.39 1.407 0 .843-.359 1.609-1.296 2.593l-1.766 1.875v.125h3.89z" /><path d="M107.61 74.8v-.875h-7.812v.875zm0-2.656v-.875h-7.812v.875z" /><path d="M120.24 57.34c-.266.344-.75.953-1.625.953-.89 0-1.39-.828-1.39-1.672 0-.64.437-1.187 1-1.187.671 0 1.296.687 2.015 1.875zm.656-.64c.297-.422.672-1.016 1.563-1.016.875 0 1.39.765 1.39 1.672 0 .64-.437 1.187-1 1.187-.687 0-1.234-.625-1.953-1.812zm3.547.218c0-1.328-.922-2.062-1.812-2.062-1.016 0-1.47.625-1.922 1.453-.953-1.266-1.453-1.453-2.172-1.453-.578 0-1.906.453-1.906 2.28 0 1.376.89 2 1.75 2 .953 0 1.64-.53 2.078-1.452.625.922 1.187 1.453 2.015 1.453 1.25 0 1.97-1.25 1.97-2.219z" /><path d="M127.93 76.86h-.516c-.484 2.172-1.406 3.094-3.25 3.094h-7.547l6.25-8.14-5.453-7.5h5c.47 0 1.032.015 1.407.077.89.094 1.78.797 2.156 2.531.047.266.14.61.14.86h.485v-4.656h-12.97l6.923 9.5-7.39 9.75h13.78z" /><path d="M117.19 87.49h-1.937l-.032.125h.125c.094 0 .25.063.25.188s-.093.25-.203.359l-1.672 1.484 1.125-4.547-1.578.25.031.141c.094-.031.188-.031.282-.031.218 0 .312.11.312.219a.8.8 0 0 1-.031.203l-1.469 5.875h.75l.453-1.657.563-.484.625 1.469c.11.25.312.781.781.781.672 0 1.14-1.062 1.266-1.281l-.157-.11c-.218.297-.437.735-.734.735-.266 0-.375-.234-.531-.594l-.64-1.515 1.062-.907c.375-.328.656-.515 1.328-.578zm6.492 3.063v-.657h-5.86v.657zm0-1.985v-.656h-5.86v.656zm4.262-.047c0 1.969-.438 3.11-1.281 3.11-.86 0-1.297-1.125-1.297-3.157 0-2.015.437-3.203 1.265-3.203.875 0 1.313 1.172 1.313 3.25m.969-.062c0-2.031-.907-3.438-2.22-3.438-1.609 0-2.296 1.625-2.296 3.39 0 1.626.547 3.485 2.266 3.485 1.609 0 2.25-1.719 2.25-3.437" /><path d="M145.21 69.79c-1.86-1.563-2.25-3.063-2.25-5.531 0-2.563.406-3.797 2.25-5.375l-.11-.219c-2.124 1.266-3.28 3.188-3.28 5.64 0 2.25 1.14 4.5 3.234 5.688zm6.687-3.953-.187-.094c-.438.75-.719.89-1.281.89h-3.094l2.187-2.327c1.172-1.25 1.704-2.25 1.704-3.297 0-1.313-.97-2.344-2.47-2.344-1.624 0-2.484 1.094-2.75 2.656l.266.063c.532-1.313 1-1.735 1.954-1.735 1.14 0 1.843.672 1.843 1.875 0 1.125-.468 2.14-1.718 3.453l-2.36 2.516v.156h5.188zm7.344-3.875h-2.578l-.047.156h.157c.125 0 .343.094.343.266s-.14.344-.281.469l-2.219 1.984 1.5-6.063-2.094.329.032.187c.109-.016.25-.016.359-.016.297 0 .438.141.438.282a.7.7 0 0 1-.047.265l-1.97 7.828h1.017l.593-2.203.75-.656.828 1.953c.157.344.422 1.047 1.047 1.047.89 0 1.516-1.422 1.688-1.687l-.203-.157c-.297.407-.594.97-.985.97-.343 0-.5-.313-.703-.782l-.86-2.016 1.423-1.219c.5-.437.875-.687 1.765-.78zm.594-3.078c1.922 1.515 2.25 3.047 2.25 5.531 0 2.562-.375 3.812-2.25 5.375l.11.203c2.109-1.281 3.28-3.172 3.28-5.625 0-2.25-1.202-4.469-3.234-5.703zm7.172 8.203a.724.724 0 0 0-.703-.719.69.69 0 0 0-.703.703c0 .407.28.703.687.703s.719-.296.719-.687m-.813-1.781h.188l.594-5.047c.015-.156.03-.36.03-.516 0-.64-.265-1.078-.702-1.078-.516 0-.703.438-.703 1.016 0 .14 0 .312.03.578z" /><path d="M132.95 72.63v.877h43.562v-.877z" color="#000"/><path d="m139.25 84.72-.187-.094c-.438.75-.72.89-1.282.89h-3.094l2.188-2.327c1.172-1.25 1.703-2.25 1.703-3.297 0-1.313-.969-2.344-2.469-2.344-1.625 0-2.484 1.094-2.75 2.656l.266.063c.531-1.313 1-1.735 1.953-1.735 1.14 0 1.844.672 1.844 1.875 0 1.125-.469 2.141-1.719 3.454l-2.36 2.515v.156h5.188z" /><path d="m144.31 81.52-.14-.063c-.329.547-.532.672-.954.672h-2.328l1.64-1.765c.891-.938 1.282-1.688 1.282-2.469 0-.984-.719-1.75-1.844-1.75-1.234 0-1.86.812-2.078 1.984l.219.047c.39-.984.734-1.297 1.453-1.297.86 0 1.39.5 1.39 1.407 0 .843-.359 1.609-1.296 2.593l-1.766 1.875v.125h3.89zm5.512-2.906h-1.938l-.031.125h.125c.094 0 .25.062.25.187s-.094.25-.203.36l-1.672 1.484 1.125-4.547-1.578.25.031.14c.094-.03.188-.03.281-.03.22 0 .313.109.313.218 0 .078-.016.141-.031.203l-1.47 5.875h.75l.454-1.656.562-.484.625 1.469c.11.25.313.78.782.78.672 0 1.14-1.062 1.265-1.28l-.156-.11c-.219.297-.437.735-.734.735-.266 0-.375-.235-.532-.594l-.64-1.516 1.062-.906c.375-.328.657-.516 1.328-.578z" /><path d="M154.55 88.67c-1.86-1.563-2.25-3.063-2.25-5.531 0-2.563.406-3.797 2.25-5.375l-.11-.219c-2.124 1.266-3.28 3.188-3.28 5.64 0 2.25 1.14 4.5 3.234 5.688zm7.39-7.828h-2.577l-.047.156h.156c.125 0 .344.094.344.266s-.141.344-.282.469l-2.218 1.984 1.5-6.063-2.094.329.031.187c.11-.016.25-.016.36-.016.296 0 .437.141.437.282a.7.7 0 0 1-.047.265l-1.969 7.828h1.016l.593-2.203.75-.656.829 1.953c.156.344.421 1.047 1.047 1.047.89 0 1.515-1.422 1.687-1.687l-.203-.157c-.297.407-.594.97-.984.97-.344 0-.5-.313-.704-.782l-.859-2.016 1.422-1.219c.5-.437.875-.687 1.766-.78zm3.344 5.125a.724.724 0 0 0-.703-.719.69.69 0 0 0-.703.703c0 .407.281.703.688.703s.718-.296.718-.687m-.812-1.781h.187l.594-5.047a6 6 0 0 0 .031-.516c0-.64-.265-1.078-.703-1.078-.515 0-.703.438-.703 1.016 0 .14 0 .312.031.578zm2.484-6.422c1.922 1.515 2.25 3.047 2.25 5.531 0 2.562-.375 3.812-2.25 5.375l.11.203c2.11-1.281 3.28-3.172 3.28-5.625 0-2.25-1.202-4.469-3.234-5.703z"/><path d="m175.71 81.52-.14-.063c-.329.547-.532.672-.954.672h-2.328l1.64-1.765c.891-.938 1.282-1.688 1.282-2.469 0-.984-.719-1.75-1.844-1.75-1.234 0-1.86.812-2.078 1.984l.219.047c.39-.984.734-1.297 1.453-1.297.86 0 1.39.5 1.39 1.407 0 .843-.359 1.609-1.296 2.593l-1.766 1.875v.125h3.89z" /><path d="M199.36 68.69v-.203c-1 0-1.266-.234-1.266-.813v-7.922l-.109-.046-2.39 1.218v.188l.359-.14c.25-.094.469-.157.61-.157.265 0 .39.203.39.656v5.953c0 .735-.281 1.016-1.266 1.063v.203z" /><path d="M179.7 72.63v.877h35.486v-.877z" color="#000"/><path d="m186 83.88-.187-.094c-.438.75-.72.89-1.282.89h-3.094l2.188-2.327c1.172-1.25 1.703-2.25 1.703-3.297 0-1.313-.969-2.344-2.469-2.344-1.625 0-2.484 1.094-2.75 2.656l.266.063c.531-1.313 1-1.735 1.953-1.735 1.14 0 1.844.672 1.844 1.875 0 1.125-.469 2.141-1.719 3.454l-2.36 2.515v.156h5.188zm7.344-3.875h-2.578l-.047.156h.156c.125 0 .344.094.344.266s-.14.344-.281.469l-2.22 1.984 1.5-6.062-2.093.328.031.187c.11-.015.25-.015.36-.015.296 0 .437.14.437.28a.7.7 0 0 1-.047.266l-1.969 7.829h1.016l.594-2.204.75-.656.828 1.953c.156.344.422 1.047 1.047 1.047.89 0 1.515-1.422 1.687-1.687l-.203-.157c-.297.407-.594.97-.984.97-.344 0-.5-.313-.703-.782l-.86-2.016 1.422-1.218c.5-.438.875-.688 1.766-.782zm11.605 2.766v-.875h-3.469v-3.47h-.875v3.47h-3.469v.875h3.469v3.468h.875v-3.468zm8.828 2.922v-.204c-1 0-1.266-.234-1.266-.812v-7.922l-.11-.047-2.39 1.219v.187l.36-.14c.25-.094.468-.156.61-.156.265 0 .39.203.39.656v5.953c0 .734-.282 1.015-1.266 1.062v.203z"/><path d="M228.93 74.8v-.875h-7.812v.875zm0-2.656v-.875h-7.812v.875z" /><path d="M241.96 57.33c-.266.344-.75.953-1.625.953-.89 0-1.39-.828-1.39-1.672 0-.64.437-1.187 1-1.187.671 0 1.296.687 2.015 1.875zm.656-.64c.297-.423.672-1.016 1.563-1.016.875 0 1.39.765 1.39 1.672 0 .64-.437 1.187-1 1.187-.687 0-1.234-.625-1.953-1.812zm3.547.218c0-1.328-.922-2.062-1.812-2.062-1.016 0-1.47.625-1.922 1.453-.953-1.266-1.453-1.453-2.172-1.453-.578 0-1.906.453-1.906 2.28 0 1.376.89 2 1.75 2 .953 0 1.64-.53 2.078-1.452.625.922 1.187 1.453 2.015 1.453 1.25 0 1.97-1.25 1.97-2.219z" /><path d="M250.59 82.38v-.5h-.328c-1.235 0-1.844-.797-1.844-2.39V65.863c0-1.578.516-2.25 2.172-2.25v-.5h-16.656v.5h.312c1.157 0 1.875.485 1.875 2.328v13.892c0 1.359-.593 2.046-1.843 2.046h-.344v.5h6.828v-.5h-.562c-1.22 0-1.657-.78-1.657-2.515V64.303h7.438v15.062c0 1.437-.344 2.515-1.64 2.515h-.579v.5z" /><path d="M238.91 87.5h-1.937l-.032.125h.125c.094 0 .25.063.25.188s-.093.25-.203.359l-1.672 1.484 1.125-4.547-1.578.25.031.141c.094-.031.188-.031.282-.031.218 0 .312.11.312.219a.8.8 0 0 1-.031.203l-1.469 5.875h.75l.453-1.657.563-.484.625 1.469c.11.25.312.781.781.781.672 0 1.14-1.062 1.266-1.281l-.157-.11c-.218.297-.437.735-.734.735-.266 0-.375-.234-.531-.594l-.64-1.515 1.062-.907c.375-.328.656-.515 1.328-.578zm6.492 3.063v-.657h-5.86v.656zm0-1.985v-.656h-5.86v.656zm4.403 3.188v-.157c-.735 0-.938-.172-.938-.593v-5.953l-.094-.032-1.78.907v.14l.265-.11c.187-.062.343-.109.453-.109.203 0 .297.141.297.485v4.469c0 .546-.219.765-.953.796v.157z" /><path d="M269.77 65.63h-3.187l3.187-4.562zm2.406.844v-.844h-1.36v-5.922h-.593l-4.172 5.922v.844h3.719v2.219h1.047v-2.22zm7.36-3.47h-2.578l-.047.157h.156c.125 0 .344.094.344.266s-.141.344-.282.469l-2.218 1.984 1.5-6.063-2.094.329.031.187c.11-.015.25-.015.36-.015.296 0 .437.14.437.28a.7.7 0 0 1-.047.266l-1.969 7.828h1.016l.593-2.203.75-.656.829 1.953c.156.344.421 1.047 1.047 1.047.89 0 1.515-1.422 1.687-1.687l-.203-.157c-.297.407-.594.97-.984.97-.344 0-.5-.313-.704-.782l-.859-2.016 1.422-1.219c.5-.437.875-.687 1.766-.78z" /><path d="m284.45 62.02-.14-.063c-.329.547-.532.672-.954.672h-2.328l1.64-1.765c.891-.938 1.282-1.688 1.282-2.469 0-.984-.719-1.75-1.844-1.75-1.234 0-1.86.812-2.078 1.984l.219.047c.39-.984.734-1.297 1.453-1.297.86 0 1.39.5 1.39 1.407 0 .843-.359 1.609-1.296 2.593l-1.766 1.875v.125h3.89z" /><path d="M255.07 72.63v.877h41.014v-.877z" color="#000"/><path d="M258.95 83.47h-3.187l3.187-4.562zm2.406.844v-.844h-1.36v-5.922h-.593l-4.172 5.922v.844h3.719v2.219h1.047v-2.22zm7.36-3.469h-2.579l-.046.156h.156c.125 0 .344.094.344.266s-.141.344-.282.469l-2.218 1.984 1.5-6.063-2.094.329.031.187c.11-.016.25-.016.36-.016.296 0 .437.141.437.282a.7.7 0 0 1-.047.265l-1.969 7.828h1.016l.593-2.203.75-.656.829 1.953c.156.344.421 1.047 1.047 1.047.89 0 1.515-1.422 1.687-1.687l-.203-.157c-.297.407-.594.97-.984.97-.344 0-.5-.313-.704-.782L265.481 83l1.422-1.219c.5-.437.875-.687 1.766-.78z" /><path d="m273.63 81.52-.14-.063c-.329.547-.532.672-.954.672h-2.328l1.64-1.765c.891-.938 1.282-1.688 1.282-2.469 0-.984-.719-1.75-1.844-1.75-1.234 0-1.86.812-2.078 1.984l.219.047c.39-.984.734-1.297 1.453-1.297.86 0 1.39.5 1.39 1.407 0 .843-.359 1.609-1.296 2.593l-1.766 1.875v.125h3.89z" /><path d="M285.64 83.61v-.875h-7.406v.875zm9.035 2.922v-.203c-1 0-1.265-.235-1.265-.813v-7.922l-.11-.047-2.39 1.22v.187l.359-.14c.25-.095.469-.157.61-.157.265 0 .39.203.39.656v5.953c0 .735-.281 1.016-1.266 1.063v.203z" /><path d="M309.82 74.8v-.875h-7.812v.875zm0-2.656v-.875h-7.812v.875z" /><path d="M323.29 63h-3.75c-1.375 0-2.234.61-2.812 1.672h.218c.578-.703 1.063-.703 1.844-.703l-1.187 2.734c-.172.39-.407.781-.985.938-.344.093-.406.437-.406.64 0 .313.328.578.672.578.156 0 .36-.03.5-.14 1.125-.844 1.531-3.125 2.14-4.75h1.25c-.328 1.125-.734 2.047-1.03 2.984a2.9 2.9 0 0 0-.126.828c0 .516.235 1 .766 1 .922 0 1.625-.937 1.906-1.89h-.219c-.312.718-.687.875-.968.875s-.5-.328-.5-.625c0-.89.703-2.594.89-3.172h1.485z" /><path d="M315.75 72.63v.877h7.412v-.877z" color="#000"/><path d="m322.43 83.88-.187-.094c-.438.75-.72.89-1.282.89h-3.094l2.188-2.327c1.172-1.25 1.703-2.25 1.703-3.297 0-1.313-.969-2.344-2.469-2.344-1.625 0-2.484 1.094-2.75 2.656l.266.063c.531-1.313 1-1.735 1.953-1.735 1.14 0 1.844.672 1.844 1.875 0 1.125-.469 2.141-1.719 3.454l-2.36 2.515v.156h5.188z" /></g><g fill="#fff"><path d="M315.886 1.16c2.723 3.094 5.818 9.484 5.818 19.656 0 10.062-3.095 16.641-5.818 19.703v.75c4.313-3.797 7.395-11.578 7.395-20.438 0-9.047-3.082-16.609-7.395-20.406z" /><path d="m310.997 32.48-5.044-22.328c-.573-2.578-1.534-4.375-3.253-4.375-.645 0-.889.328-.889.734 0 .547.387.985.86.985.23 0 .459-.094.459-.39 0-.36-.258-.485-.273-.673 0-.093.072-.156.172-.156.803 0 1.147 1.219 1.548 2.937l5.102 22.641c.544 2.391 1.476 4.063 3.181 4.063.617 0 .875-.344.875-.719 0-.578-.387-1.015-.86-1.015-.23 0-.459.109-.459.406 0 .312.258.5.287.656 0 .11-.086.156-.187.156-.788 0-1.117-1.156-1.519-2.922" /><path d="M296.616 8.96c-.244.344-.688.953-1.49.953-.817 0-1.276-.828-1.276-1.672 0-.64.402-1.187.917-1.187.617 0 1.19.687 1.85 1.875zm.602-.64c.272-.423.616-1.016 1.433-1.016.803 0 1.275.765 1.275 1.672 0 .64-.4 1.187-.917 1.187-.63 0-1.132-.625-1.791-1.812zm3.253.218c0-1.328-.845-2.062-1.662-2.062-.932 0-1.347.625-1.763 1.453-.874-1.266-1.333-1.453-1.992-1.453-.53 0-1.748.453-1.748 2.28 0 1.376.817 2 1.605 2 .874 0 1.504-.53 1.906-1.452.573.922 1.089 1.453 1.848 1.453 1.147 0 1.806-1.25 1.806-2.219" /><path d="m304.779 33.47-.344 1.063c-.043.14-.043.25.029.296l.845.532c.143.109.258.078.301-.094l.301-.984c.043-.157.014-.266-.1-.344l-.76-.531c-.129-.094-.23-.079-.272.062" /><path d="M285.087 12q.243.111.545.234.313.113.673.22.373.095.717.155c.236.032.473.043.702.032q.097.002.172.062.056.047.014.188-.116.25-.2.437-.075.188-.13.281c-.085.149-.164.22-.228.22q-.333-.046-.703-.032-.36.018-.774.094-.417.08-.788.171a6 6 0 0 0-.673.22q-1.839.656-2.279.702a3.8 3.8 0 0 1-.845 0c-.029-.851-.015-1.328.043-1.422q.154-.358.358-.687.2-.327.415-.64.7-.968 1.147-.938.213.017.673.187.474.176 1.161.516m-.774 1.063c-.508-.313-.996-.477-1.461-.5q-.375 0-.703.328-.316.3-.487.875.559.033 2.121-.407l.53-.14a.3.3 0 0 0 .072-.047q.026-.046-.072-.11m.344 3q.026-.048.1-.032.486.188.875.563.042.045 0 .11l-.573 1q-.031.075-.115 0a2 2 0 0 0-.258-.204 15 15 0 0 0-.602-.39c-.04-.024-.043-.047-.014-.079zm-5.227-10.64c.036-.063.065-.086.086-.079q.07 0 .1.282.226 2.05.301 3.515.056 1.376.1 2.219l.058 1.125q.085 1.22 1.218 1.297.329.034.258.484-.118.72-.258.72-1.607.001-1.705-1.626-.06-.667-.086-1.36-.032-.683-.057-1.374-.032-1.372-.144-2.235-.117-.856-.286-1.953a.46.46 0 0 1 .028-.328z" /><path d="m275.329 8.47-.23.953c0 .031.015.094.058.14a.7.7 0 0 1 .057.298 1.47 1.47 0 0 1-1.09-.329c.072-.437.072-.703 0-.765-.042-.031-.085-.031-.143 0-.043.031-.085.062-.1.14-.129.657-.286 1.079-.444 1.22-.43.374-.86.5-1.261.406-.072-.016-.172-.141-.301-.391-.13-.25-.23-.406-.272-.438-.029-.046-.072-.03-.1.016-.13.203-.273.5-.445.906-.014.063 0 .125.043.219.344.86.502 1.625.473 2.313-.717 1.234-1.92 1.812-3.611 1.78-1.233-.046-1.978-.64-2.293-1.796-.086-.36.114-1.094.616-2.172.029-.031.029-.078.014-.11a.09.09 0 0 0-.043-.078c-.014 0-.043-.015-.071-.015h-.015c-.014 0-.043.015-.057.015a1 1 0 0 1-.115.094c-.659.703-1.375 1.047-2.092 1.063-.086 0-.115.078-.129.25l-.029.453c-.014.156.058.203.158.187.63-.11 1.204-.437 1.734-.984-.143.375-.258.75-.315 1.11-.13.656-.144 1.14-.058 1.484.33 1.234 1.19 1.86 2.58 1.906 1.118.015 2.135-.36 3.081-1.14.43-.36.731-.829.903-1.391s.272-1.203.315-1.97c.674.095 1.204-.202 1.562-.905.502.328.96.453 1.333.375.129-.032.215-.11.301-.25.272-.5.416-1.078.416-1.72 0-.421-.043-.702-.158-.905-.029-.079-.1-.125-.158-.125s-.1.062-.114.156" /><path d="M263.03 20.41v.875h25.642v-.875z" color="#000"/><path d="m276.493 24.79 5.833 16.359h.387l2.45-7.031c.216-.61.46-.797.76-.797.215 0 .53.156.788.422l.158-.266-1.906-1.656h-.23l-2.493 7.125h-.043l-5.044-14.156z" /><path d="M263.479 24.79v.875h13.438v-.875z" color="#000"/><path d="m275.778 30.08-.23.953c0 .031.015.094.058.14a.7.7 0 0 1 .057.298 1.47 1.47 0 0 1-1.089-.329c.072-.437.072-.703 0-.765-.043-.031-.086-.031-.143 0-.043.031-.086.062-.1.14-.13.657-.287 1.079-.445 1.22-.43.374-.86.5-1.26.406-.072-.016-.173-.141-.302-.391s-.229-.406-.272-.438c-.029-.046-.072-.03-.1.016-.13.203-.273.5-.445.906-.014.063 0 .125.043.219.344.86.502 1.625.473 2.313-.716 1.234-1.92 1.812-3.611 1.78-1.232-.046-1.978-.64-2.293-1.796-.086-.36.115-1.094.616-2.172.029-.031.029-.078.015-.11a.09.09 0 0 0-.043-.078c-.015 0-.043-.015-.072-.015h-.014c-.015 0-.043.015-.058.015a1 1 0 0 1-.114.094c-.66.703-1.376 1.047-2.093 1.063-.085 0-.114.078-.129.25l-.028.453c-.014.156.057.203.157.187.631-.11 1.204-.437 1.734-.984-.143.375-.257.75-.315 1.11-.129.656-.143 1.14-.057 1.484.33 1.234 1.19 1.86 2.58 1.906 1.117.016 2.135-.36 3.08-1.14.43-.36.731-.829.903-1.391s.273-1.203.316-1.97c.673.095 1.203-.202 1.562-.905.501.328.96.453 1.332.375.13-.032.215-.11.301-.25.273-.5.416-1.078.416-1.72 0-.421-.043-.702-.158-.905-.028-.078-.1-.125-.157-.125s-.1.062-.115.156" /><path d="M260.846 17.7c-.028.281-.1.61-.243 1-.029.094-.072.11-.143.094-.373-.157-.774-.11-1.262.125-.472.25-.73.515-.816.843-.072.282.458.72 1.619 1.344.23.11.358.297.416.563.085.297.057.625-.058 1.015-.157.547-.358.97-.587 1.266-.172.219-.416.36-.746.437-.644.125-1.433.204-2.35.235-.143 0-.215-.047-.215-.172 0-.094.058-.172.187-.219 1.418-.547 2.464-1.062 3.124-1.531.186-.156.157-.266-.043-.344-.66-.281-1.175-.61-1.52-.969-.315-.296-.415-.765-.3-1.359.129-.594.372-1.14.73-1.656.46-.625.946-.969 1.462-.984.33-.016.56.03.674.14.057.047.086.11.071.172m-6.244-.047-.23.953c0 .031.015.094.058.14a.7.7 0 0 1 .057.298 1.47 1.47 0 0 1-1.089-.328c.072-.438.072-.704 0-.766-.043-.031-.086-.031-.143 0-.043.031-.086.062-.1.14-.13.657-.287 1.079-.445 1.22-.43.374-.86.5-1.26.406-.073-.016-.173-.141-.302-.391s-.23-.406-.272-.437c-.029-.047-.072-.032-.1.015-.13.203-.273.5-.445.906-.014.063 0 .125.043.22.344.859.502 1.624.473 2.312-.716 1.234-1.92 1.812-3.611 1.78-1.233-.046-1.978-.64-2.293-1.796-.086-.36.115-1.094.616-2.172.029-.031.029-.078.014-.11a.09.09 0 0 0-.043-.077c-.014 0-.043-.016-.071-.016h-.015c-.014 0-.043.016-.057.016a1 1 0 0 1-.114.093c-.66.703-1.376 1.047-2.093 1.063-.086 0-.114.078-.129.25l-.028.453c-.015.156.057.203.157.187.63-.109 1.204-.437 1.734-.984-.143.375-.258.75-.315 1.11-.129.656-.143 1.14-.057 1.484.33 1.234 1.19 1.86 2.58 1.906 1.117.016 2.135-.36 3.08-1.14.43-.36.731-.829.903-1.391s.273-1.203.316-1.969c.673.094 1.203-.203 1.562-.906.501.328.96.453 1.332.375.13-.031.215-.11.301-.25.273-.5.416-1.078.416-1.719 0-.422-.043-.703-.158-.906-.028-.078-.1-.125-.157-.125s-.1.062-.115.156" /><path d="M241.375 40.52c-2.723-3.078-5.818-9.781-5.818-19.688 0-10.312 3.095-16.594 5.818-19.672V.426c-4.328 3.797-7.409 11.469-7.409 20.406 0 8.968 3.081 16.64 7.409 20.438z" /><path d="m228.36.21-.229 1.016c-.014.125.014.28.129.468.717 1.235 1.146 2.72 1.247 4.438 0 .062.014.11.057.14.043.047.072.047.13.016.056-.016.085-.047.1-.125.171-.984.071-2.266-.316-3.844.731.14 1.247-.047 1.548-.531.186-.281.315-.625.372-1 .043-.375.072-.61.043-.672-.028-.078-.071-.11-.157-.11s-.143.063-.158.173c-.086.703-.473 1.047-1.19 1.047-.515 0-.916-.297-1.217-.938-.172-.36-.287-.39-.359-.078" /><path d="M222.637 22.57v-.875h-7.165v.875zm0-2.656v-.875h-7.165v.875z" /><path d="M202.469 5.11c-.244.344-.688.953-1.49.953-.818 0-1.276-.828-1.276-1.672 0-.64.401-1.187.917-1.187.616 0 1.19.687 1.849 1.875zm.601-.64c.273-.423.617-1.016 1.434-1.016.802 0 1.275.765 1.275 1.672 0 .64-.401 1.187-.917 1.187-.63 0-1.132-.625-1.792-1.812zm3.254.218c0-1.328-.846-2.062-1.663-2.062-.931 0-1.347.625-1.762 1.453-.875-1.266-1.333-1.453-1.992-1.453-.53 0-1.749.453-1.749 2.28 0 1.376.817 2 1.605 2 .874 0 1.505-.53 1.906-1.452.573.922 1.09 1.453 1.849 1.453 1.146 0 1.806-1.25 1.806-2.219" /><path d="m195.975 24.63.889 5.516h12.654l-6.793-9.75 6.349-9.5h-11.88v4.656h.43c0-.25.085-.594.128-.86.344-1.734 1.161-2.437 1.978-2.53.344-.063.874-.079 1.29-.079h4.6l-5.016 7.5 5.732 8.14h-6.921c-1.692 0-2.537-.921-2.967-3.093z" /><path d="M208.2 34.97c-.5.14-.845.64-1.017 1.469-.028.11.015.219.086.328q.13.14.344.187l.273.079c.028 0 .057.015.071.046 0 .032 0 .063-.028.079-.1.046-.402.093-.889.109-.258 0-.459.015-.616.015q-.086 0-.086.094c0 .094.029.11.1.125.172.094.43.14.731.172s.516.047.63 0c.13-.031.259-.156.388-.36.43-.656.444-1.015.014-1.077a3 3 0 0 1-.444-.125c-.13-.063-.187-.11-.144-.157.058-.093.187-.172.359-.203a.27.27 0 0 0 .1-.14l.186-.532c.015-.03.015-.047 0-.078 0-.015-.028-.031-.057-.031m1.85-2.078c-.029-.047-.043-.078-.072-.094-.029 0-.057.016-.072.063l-.172.375a.47.47 0 0 0-.014.312c.029.094.057.25.1.469.058.203.201 1.094.473 2.656.258 1.563.373 2.469.344 2.703-.387.282-1.447.39-3.21.36-.587 0-.989-.047-1.232-.157-.043-.015-.058 0-.058.047a6 6 0 0 0 .015.86c.014.047.028.078.057.078.401.078.874.11 1.419.125 1.906.03 2.937-.125 3.08-.485a3.7 3.7 0 0 0 .273-1.265v-.485c-.014-.593-.23-2.015-.66-4.28q0-.024.044-.095l.172-.296q.064-.117 0-.188c-.2-.172-.358-.406-.487-.703" /><path d="M205.147 39.48v-.656h-5.374v.656zm0-1.984v-.657h-5.374v.657zm-8.871.078-.344 1.062c-.043.14-.043.25.029.297l.845.531c.143.11.258.078.301-.093l.301-.985c.043-.156.014-.265-.1-.344l-.76-.53c-.129-.094-.23-.079-.272.062" /><path d="M177.999 6.66c1.762 1.516 2.063 3.047 2.063 5.531 0 2.563-.344 3.813-2.063 5.375l.1.203c1.934-1.28 3.01-3.172 3.01-5.625 0-2.25-1.104-4.468-2.967-5.703zm-5.826 1.844-.3 1.36c-.03.171.013.374.157.624.96 1.656 1.533 3.625 1.662 5.906.014.094.029.141.086.204.043.046.1.046.172.03q.108-.046.129-.187c.23-1.312.1-3.015-.416-5.11.96.173 1.663-.062 2.064-.718.258-.375.416-.812.487-1.328.072-.5.1-.813.072-.906-.043-.078-.1-.14-.215-.14q-.194 0-.215.233-.15 1.407-1.59 1.407c-.674 0-1.205-.422-1.606-1.25-.243-.485-.401-.516-.487-.125" /><path d="M166.103 7.8c-.674.203-1.132.844-1.362 1.969-.043.14.015.297.115.422.115.14.258.234.459.265l.358.094c.043.016.071.031.086.062.014.047.014.079-.015.094-.143.078-.544.14-1.203.156-.33 0-.602.016-.817.032-.086 0-.115.047-.115.125s.043.125.13.172c.243.109.572.187.974.218.4.047.702.063.86 0 .157-.047.33-.203.501-.468.573-.875.588-1.36.029-1.454a2.6 2.6 0 0 1-.602-.171c-.172-.079-.244-.141-.186-.204q.128-.187.472-.28c.043 0 .1-.063.13-.188l.257-.703a.1.1 0 0 0 0-.094c-.014-.016-.028-.047-.071-.047m2.45-2.766c-.028-.062-.043-.109-.086-.109-.043-.016-.071 0-.1.063l-.23.5a.7.7 0 0 0-.028.421c.043.125.086.344.158.61.057.281.258 1.469.616 3.547.358 2.093.502 3.297.444 3.61-.487.374-1.92.53-4.27.483-.774-.015-1.304-.078-1.634-.218-.057-.016-.086 0-.086.062-.014.219-.014.594.029 1.14.014.063.028.11.086.126.516.093 1.16.14 1.877.156 2.537.047 3.912-.172 4.113-.656.23-.563.344-1.125.358-1.672v-.64c-.014-.798-.3-2.688-.874-5.704 0-.031.014-.062.057-.14l.215-.391c.058-.11.058-.188 0-.25a2.7 2.7 0 0 1-.644-.938z" /><path d="M162.269 17.56c-1.705-1.562-2.064-3.062-2.064-5.531 0-2.563.373-3.797 2.064-5.375l-.1-.219c-1.95 1.266-3.01 3.188-3.01 5.64 0 2.25 1.046 4.5 2.967 5.688zm-4.876-2.703c0-.39-.3-.719-.645-.719-.372 0-.645.313-.645.703 0 .407.258.703.63.703s.66-.296.66-.687m-.745-1.781h.172l.544-5.047c.015-.156.029-.36.029-.516 0-.64-.244-1.078-.645-1.078-.473 0-.645.438-.645 1.016 0 .14 0 .312.029.578z" /><path d="M145.714 20.41v.875h44.784v-.875z" color="#000"/><path d="m185.033 28.53-.3 1.36c-.03.171.014.374.157.624.96 1.657 1.533 3.625 1.662 5.907.015.093.029.14.086.203.043.047.1.047.172.03q.108-.046.13-.187c.228-1.312.1-3.015-.416-5.109.96.172 1.662-.062 2.063-.719.258-.375.416-.812.487-1.328.072-.5.1-.812.072-.906-.043-.078-.1-.14-.215-.14q-.193 0-.215.234-.15 1.406-1.59 1.406c-.674 0-1.204-.422-1.606-1.25-.243-.485-.4-.516-.487-.125m-5.76-1.91-.229 1.016c-.014.125.014.28.13.468.716 1.235 1.146 2.72 1.246 4.438 0 .062.014.11.057.14.043.047.072.047.13.016.056-.016.085-.047.1-.125.171-.984.071-2.266-.316-3.844.731.14 1.247-.047 1.548-.531.186-.281.315-.625.373-1 .043-.375.071-.61.043-.672-.03-.078-.072-.11-.158-.11s-.143.063-.158.173c-.086.703-.473 1.047-1.19 1.047-.515 0-.916-.297-1.217-.938-.172-.36-.287-.39-.359-.078" /><path d="M174.715 26.08c-.502.14-.845.64-1.017 1.469-.03.11.014.219.085.328q.13.14.344.187l.273.079c.028 0 .057.015.071.046 0 .032 0 .063-.028.079-.1.046-.402.093-.889.109-.258 0-.458.015-.616.015q-.086 0-.086.094c0 .094.029.11.1.125.172.094.43.14.731.172s.516.047.63 0c.13-.031.259-.156.388-.36.43-.656.444-1.015.014-1.077a3 3 0 0 1-.444-.125c-.13-.063-.187-.11-.144-.157.058-.093.187-.172.359-.203a.27.27 0 0 0 .1-.14l.186-.532c.015-.03.015-.047 0-.078 0-.015-.028-.031-.057-.031m1.849-2.078c-.029-.047-.043-.078-.072-.094-.029 0-.057.016-.072.063l-.172.375a.47.47 0 0 0-.014.312c.029.094.057.25.1.469.058.203.201 1.094.473 2.656.258 1.563.373 2.469.344 2.703-.387.281-1.447.39-3.21.36-.587 0-.989-.047-1.232-.157-.043-.015-.058 0-.058.047a6 6 0 0 0 .015.86c.014.047.028.078.057.078.401.078.874.11 1.419.125 1.906.03 2.938-.125 3.081-.485a3.7 3.7 0 0 0 .272-1.265v-.485c-.014-.593-.23-2.015-.659-4.28q0-.024.043-.095l.172-.296q.065-.118 0-.188c-.2-.172-.358-.406-.487-.703" /><path d="M167.91 26.69c1.762 1.516 2.063 3.047 2.063 5.531 0 2.563-.344 3.813-2.063 5.375l.1.203c1.935-1.28 3.01-3.172 3.01-5.625 0-2.25-1.104-4.468-2.967-5.703z" /><path d="M163.15 27.83c-.674.203-1.133.844-1.362 1.969-.043.14.014.297.115.422.114.14.258.234.458.265l.359.094c.043.016.071.031.086.062.014.047.014.079-.015.094-.143.078-.544.14-1.204.156-.33 0-.601.016-.816.032-.086 0-.115.047-.115.125s.043.125.129.172c.244.109.573.187.974.218.402.047.703.063.86 0 .158-.047.33-.203.502-.468.573-.875.587-1.36.028-1.454a2.6 2.6 0 0 1-.601-.171c-.172-.079-.244-.141-.187-.204q.13-.187.473-.28c.043 0 .1-.063.13-.188l.257-.703a.1.1 0 0 0 0-.094c-.014-.016-.029-.047-.072-.047m2.45-2.766c-.029-.062-.043-.109-.086-.109-.043-.016-.071 0-.1.063l-.23.5a.7.7 0 0 0-.028.421c.043.125.086.344.158.61.057.281.258 1.469.616 3.547.358 2.093.501 3.297.444 3.61-.487.374-1.92.53-4.27.483-.774-.015-1.305-.078-1.634-.218-.057-.016-.086 0-.086.062-.014.219-.014.594.029 1.14.014.063.028.11.085.126.516.093 1.161.14 1.878.156 2.536.047 3.912-.172 4.113-.656.23-.563.344-1.125.358-1.672v-.64c-.014-.798-.3-2.688-.874-5.704 0-.031.014-.062.057-.14l.215-.391c.058-.11.058-.188 0-.25a2.7 2.7 0 0 1-.645-.938" /><path d="M158.49 34.89c0-.39-.3-.719-.645-.719-.372 0-.644.313-.644.703 0 .407.257.703.63.703s.66-.296.66-.687m-.745-1.781h.172l.545-5.047a6 6 0 0 0 .028-.516c0-.64-.243-1.078-.645-1.078-.473 0-.645.438-.645 1.016 0 .14 0 .312.03.578zm-2.497 4.484c-1.705-1.562-2.064-3.062-2.064-5.531 0-2.563.373-3.797 2.064-5.375l-.1-.219c-1.95 1.266-3.01 3.188-3.01 5.64 0 2.25 1.046 4.5 2.967 5.688z" /><path d="m147.457 26.62-.23 1.016c-.014.125.015.28.13.468.716 1.235 1.146 2.72 1.246 4.438 0 .062.015.11.058.14.043.047.071.047.129.016.057-.016.085-.047.1-.125.172-.984.071-2.266-.315-3.844.73.14 1.246-.047 1.547-.531.187-.281.316-.625.373-1 .043-.375.072-.61.043-.672-.029-.078-.072-.11-.158-.11s-.143.063-.157.173c-.086.703-.473 1.047-1.19 1.047-.516 0-.917-.297-1.218-.938-.172-.36-.287-.39-.358-.078" /><path d="m124.27 9.51-.415 1.328c-.057.172-.014.406.115.672.86 1.672 1.29 3.64 1.26 5.906 0 .156.058.25.158.266.115.031.187-.016.23-.172.286-.906.33-2.234.1-3.938-.158-1.234-.487-2.5-.96-3.828-.2-.53-.373-.61-.487-.234" /><path d="M106.89 20.41v.875h35.9v-.875z" color="#000"/><path d="m137.322 27.51-.3 1.36c-.03.171.013.374.157.624.96 1.657 1.533 3.625 1.662 5.907.014.093.029.14.086.203.043.047.1.047.172.03q.108-.046.129-.187c.23-1.312.1-3.015-.416-5.109.96.172 1.663-.062 2.064-.719.258-.375.416-.812.487-1.328.072-.5.1-.812.072-.906-.043-.078-.1-.14-.215-.14q-.194 0-.215.234-.15 1.406-1.59 1.406c-.674 0-1.205-.422-1.606-1.25-.243-.484-.401-.516-.487-.125" /><path d="M131.26 26.81c-.674.203-1.133.844-1.362 1.969-.043.14.014.297.115.422.114.14.258.234.458.265l.359.094c.043.016.071.031.086.063.014.046.014.078-.015.093-.143.078-.544.14-1.204.156-.33 0-.601.016-.816.032-.086 0-.115.047-.115.125s.043.125.129.172c.244.109.573.187.974.218.402.047.703.063.86 0 .158-.047.33-.203.502-.468.573-.875.587-1.36.028-1.454a2.6 2.6 0 0 1-.601-.171c-.172-.079-.244-.141-.187-.204q.13-.187.473-.28c.043 0 .1-.063.13-.188l.257-.703a.1.1 0 0 0 0-.094c-.014-.016-.029-.047-.072-.047m2.45-2.766c-.029-.062-.043-.109-.086-.109-.043-.016-.071 0-.1.063l-.23.5a.7.7 0 0 0-.028.421c.043.125.086.344.158.61.057.281.258 1.469.616 3.547.358 2.093.501 3.297.444 3.61-.487.374-1.92.53-4.27.483-.774-.015-1.305-.078-1.634-.218-.057-.016-.086 0-.086.062-.014.219-.014.594.029 1.14.014.063.028.11.085.126.516.094 1.161.14 1.878.156 2.536.047 3.912-.172 4.113-.656.23-.563.344-1.125.358-1.672v-.64c-.014-.798-.3-2.688-.874-5.704 0-.031.014-.062.057-.14l.215-.391c.058-.11.058-.188 0-.25a2.7 2.7 0 0 1-.645-.938" /><path d="M124.472 31.51v-.875h-3.181v-3.469h-.803v3.469h-3.181v.875h3.181v3.469h.803V31.51zm-14.588-4.031-.416 1.328c-.057.172-.014.406.115.672.86 1.672 1.29 3.64 1.261 5.906 0 .156.057.25.158.266.114.03.186-.016.23-.172.286-.907.329-2.235.1-3.938-.158-1.234-.488-2.5-.96-3.828-.201-.531-.373-.61-.488-.234" /><path d="M101.452 22.57v-.875h-7.166v.875zm0-2.656v-.875h-7.166v.875z" /><path d="M81.283 5.1c-.244.344-.688.953-1.49.953-.817 0-1.276-.828-1.276-1.672 0-.64.401-1.187.917-1.187.617 0 1.19.687 1.849 1.875zm.602-.64c.272-.423.616-1.016 1.433-1.016.802 0 1.275.765 1.275 1.672 0 .64-.4 1.187-.917 1.187-.63 0-1.132-.625-1.791-1.812zm3.253.218c0-1.328-.846-2.062-1.662-2.062-.932 0-1.348.625-1.763 1.453-.874-1.266-1.333-1.453-1.992-1.453-.53 0-1.748.453-1.748 2.28 0 1.376.816 2 1.605 2 .874 0 1.504-.53 1.906-1.452.573.922 1.089 1.453 1.848 1.453 1.147 0 1.806-1.25 1.806-2.219" /><path d="M89.189 30.15v-.5h-.301c-1.132 0-1.691-.797-1.691-2.39V13.633c0-1.578.473-2.25 1.992-2.25v-.5H73.913v.5h.286c1.06 0 1.72.485 1.72 2.329v13.89c0 1.36-.545 2.047-1.691 2.047h-.316v.5h6.263v-.5h-.516c-1.118 0-1.519-.78-1.519-2.515V12.073h6.822v15.062c0 1.437-.316 2.515-1.505 2.515h-.53v.5z" /><path d="M87.006 34.97c-.502.14-.845.64-1.017 1.469-.029.11.014.219.086.328q.128.14.343.187l.273.079c.028 0 .057.015.071.046 0 .032 0 .063-.028.079-.1.046-.402.093-.889.109-.258 0-.458.015-.616.015q-.086 0-.086.094c0 .094.029.11.1.125.172.094.43.14.731.172s.516.047.63 0c.13-.031.259-.156.388-.36.43-.656.444-1.015.014-1.077a3 3 0 0 1-.444-.125c-.13-.063-.186-.11-.144-.157.058-.093.187-.172.359-.203a.27.27 0 0 0 .1-.14l.186-.532c.015-.03.015-.047 0-.078 0-.015-.028-.031-.057-.031m1.849-2.078c-.029-.047-.043-.078-.072-.094-.029 0-.057.016-.072.063l-.172.375a.47.47 0 0 0-.014.312c.029.094.058.25.1.469.058.203.201 1.094.473 2.656.258 1.563.373 2.469.344 2.703-.387.282-1.447.39-3.21.36-.587 0-.989-.047-1.232-.157-.043-.015-.058 0-.058.047a6 6 0 0 0 .015.86c.014.047.028.078.057.078.401.078.874.11 1.419.125 1.906.03 2.938-.125 3.081-.485a3.7 3.7 0 0 0 .272-1.265v-.485c-.014-.593-.229-2.015-.659-4.28q0-.024.043-.095l.172-.296q.065-.117 0-.188c-.2-.172-.358-.406-.487-.703" /><path d="M83.961 39.49v-.656h-5.374v.656zm0-1.984v-.657h-5.374v.657zm-8.914-2.032-.315.985q-.064.21.086.515c.645 1.25.974 2.735.946 4.438 0 .125.043.172.129.203.071.016.129-.031.157-.14q.323-1.032.086-2.954c-.114-.922-.372-1.875-.73-2.875-.144-.39-.273-.453-.359-.172" /><path d="M55.29 9.26c-.559.61-.96 1.203-1.203 1.766l-.387.906c-.187.437-.158.734.071.906.444.328.874.578 1.319.75-.63.61-.99 1.063-1.075 1.406l-.272 1.094c-.086.328-.043.563.114.688.702.53 1.548.859 2.508.968.13.016.23-.03.287-.172l.344-.906c.086-.25.028-.375-.201-.406-.745-.094-1.447-.375-2.12-.844-.216-.156-.216-.328-.058-.547q.408-.515 1.118-1.03c.129-.095.243-.25.33-.454l.214-.516c.115-.265.058-.437-.129-.484-.473-.125-.989-.375-1.533-.75-.158-.125-.187-.25-.13-.39.101-.22.373-.407.846-.579.1-.047.172-.11.187-.187l.215-1a.25.25 0 0 0-.058-.219.24.24 0 0 0-.186-.078.3.3 0 0 0-.2.078" /><path d="M47.33 8.84c-.674.203-1.133.844-1.362 1.969-.043.14.014.297.114.422.115.14.258.234.46.265l.357.094c.043.016.072.031.086.062.015.047.015.079-.014.094-.143.078-.545.14-1.204.156-.33 0-.602.016-.817.032-.086 0-.114.047-.114.125s.043.125.129.172c.243.109.573.187.974.218.401.047.702.063.86 0 .158-.047.33-.203.502-.468.573-.875.587-1.36.028-1.454a2.6 2.6 0 0 1-.602-.171c-.172-.079-.243-.141-.186-.204q.13-.187.473-.28c.043 0 .1-.063.129-.188l.258-.703a.1.1 0 0 0 0-.094c-.014-.016-.029-.047-.072-.047m2.45-2.766c-.029-.062-.043-.109-.086-.109-.043-.016-.072 0-.1.063l-.23.5a.7.7 0 0 0-.028.421c.043.125.086.344.157.61.058.281.258 1.469.617 3.547.358 2.093.501 3.297.444 3.61-.487.374-1.92.53-4.27.483-.775-.015-1.305-.078-1.634-.218-.058-.016-.086 0-.086.062-.015.219-.015.594.028 1.14.015.063.029.11.086.126.516.093 1.161.14 1.878.156 2.536.047 3.912-.172 4.113-.656a4.8 4.8 0 0 0 .358-1.672v-.64c-.014-.798-.301-2.688-.874-5.704 0-.031.014-.062.057-.14l.215-.391c.057-.11.057-.188 0-.25a2.7 2.7 0 0 1-.645-.938" /><path d="m39.753 5.96-.229 1.016c-.014.125.014.28.13.468.716 1.235 1.146 2.72 1.246 4.438 0 .062.014.11.057.14.043.047.072.047.13.016.057-.016.085-.047.1-.125.172-.984.071-2.266-.316-3.844.731.14 1.247-.047 1.548-.531.186-.281.315-.625.373-1 .043-.375.071-.61.043-.672-.029-.078-.072-.11-.158-.11s-.143.063-.158.173c-.086.703-.473 1.047-1.19 1.047-.515 0-.916-.297-1.217-.938-.172-.36-.287-.39-.358-.078" /><path d="M27.564 20.41v.875h41.743v-.875z" color="#000"/><path d="M65.728 27.23c-.56.61-.96 1.203-1.204 1.766l-.387.906c-.186.437-.158.734.072.906a5.7 5.7 0 0 0 1.318.75c-.63.61-.989 1.063-1.075 1.406l-.272 1.094c-.086.328-.043.563.115.688.702.53 1.547.859 2.508.968.128.016.229-.03.286-.172l.344-.906c.086-.25.029-.375-.2-.406-.746-.094-1.448-.375-2.122-.844-.214-.156-.214-.328-.057-.547q.408-.515 1.118-1.03c.129-.095.244-.25.33-.454l.215-.516c.114-.265.057-.437-.13-.484-.472-.125-.988-.375-1.533-.75-.157-.125-.186-.25-.129-.39.1-.22.373-.407.846-.579.1-.047.172-.11.186-.187l.215-1a.25.25 0 0 0-.057-.219.24.24 0 0 0-.187-.078.3.3 0 0 0-.2.078" /><path d="M57.776 26.81c-.674.203-1.132.844-1.362 1.969-.043.14.015.297.115.422.115.14.258.234.459.265l.358.094c.043.016.072.031.086.063.014.046.014.078-.014.093-.144.078-.545.14-1.204.156-.33 0-.602.016-.817.032-.086 0-.115.047-.115.125s.043.125.13.172c.243.109.572.187.974.218.401.047.702.063.86 0 .157-.047.33-.203.501-.468.573-.875.588-1.36.029-1.454a2.6 2.6 0 0 1-.602-.171c-.172-.079-.244-.141-.186-.204q.129-.187.472-.28c.044 0 .1-.063.13-.188l.257-.703a.1.1 0 0 0 0-.094c-.014-.016-.028-.047-.071-.047m2.45-2.766c-.028-.062-.043-.109-.085-.109-.044-.016-.072 0-.1.063l-.23.5a.7.7 0 0 0-.029.421c.043.125.086.344.158.61.057.281.258 1.469.616 3.547.358 2.093.502 3.297.444 3.61-.487.374-1.92.53-4.27.483-.774-.015-1.304-.078-1.634-.218-.057-.016-.086 0-.086.062-.014.219-.014.594.029 1.14.014.063.029.11.086.126.516.094 1.16.14 1.877.156 2.537.047 3.912-.172 4.113-.656.23-.563.344-1.125.358-1.672v-.64c-.014-.798-.3-2.688-.874-5.704 0-.031.015-.062.058-.14l.215-.391c.057-.11.057-.188 0-.25a2.7 2.7 0 0 1-.645-.938z" /><path d="m50.2 25.6-.23 1.016c-.014.125.015.28.13.468.716 1.235 1.146 2.72 1.247 4.438 0 .062.014.11.057.14.043.047.071.047.129.016.057-.016.086-.047.1-.125.172-.984.072-2.266-.315-3.844.73.14 1.247-.047 1.548-.531.186-.281.315-.625.372-1 .043-.375.072-.61.043-.672-.028-.078-.071-.11-.157-.11s-.144.063-.158.173c-.086.703-.473 1.047-1.19 1.047-.515 0-.917-.297-1.218-.938-.172-.36-.286-.39-.358-.078" /><path d="M44.963 31.51v-.875H38.17v.875zm-14.402-4.031-.416 1.328c-.057.172-.014.406.115.672.86 1.672 1.29 3.64 1.26 5.906 0 .156.058.25.158.266.115.03.187-.016.23-.172.286-.907.33-2.235.1-3.938-.158-1.234-.487-2.5-.96-3.828-.2-.531-.373-.61-.487-.234" /><path d="M22.125 22.57v-.875H14.96v.875zm0-2.656v-.875H14.96v.875z" /><path d="M3.452 7.54a.6.6 0 0 0 0 .234c.029.078.086.5.158 1.266.085.75.171 1.64.257 2.64s.115 1.97.072 2.876l-.802.875c-.96.062-1.72.062-2.308-.032-.143-.015-.157.078-.057.297.115.203.33.422.616.656.287.25.688.407 1.132.485 1.219-.063 2.38-.297 3.497-.672s1.777-.672 1.978-.906c.143-.14.315-.438.53-.89.215-.454.315-.829.287-1.095-.015-.265-.258-.562-.703-.86-.2-.14-.387-.187-.559-.17-.315.03-.687.187-1.117.39-.43.218-1.133.75-2.15 1.61.057-.22.086-.657.129-1.313.029-.657-.043-2.047-.23-4.188 0-.078.015-.156.072-.219l.23-.343c.057-.094.057-.172 0-.266-.158-.203-.273-.36-.33-.484-.057-.141-.129-.313-.215-.563-.014-.031-.043-.078-.086-.078-.057 0-.1.031-.129.062-.029.047-.115.266-.272.688m2.608 6.219c.932-.313 1.534-.172 1.806.406-1.003.563-2.336.969-4.013 1.172.903-.875 1.634-1.39 2.207-1.578" /><path d="M-.006 20.41v.875h9.529v-.875z" color="#000"/><path d="m2.856 26.54-.301 1.36c-.029.171.014.374.157.624.96 1.657 1.534 3.625 1.663 5.907.014.093.028.14.086.203.043.047.1.047.172.03q.106-.046.129-.187c.229-1.312.1-3.015-.416-5.109.96.172 1.662-.062 2.064-.719.258-.375.415-.812.487-1.328.072-.5.1-.812.072-.906-.043-.078-.1-.14-.215-.14q-.194 0-.215.234-.15 1.406-1.591 1.406c-.674 0-1.204-.422-1.605-1.25-.244-.485-.401-.516-.487-.125" /></g></svg>