<?xml version="1.0" encoding="UTF-8"?>
<svg version="1.1" viewBox="0 0 323.29 93.504" xmlns="http://www.w3.org/2000/svg">
 <g transform="translate(-245.94 -130.12)" fill="#fff">
  <path d="m254.02 222.87c-2.9688-3.0781-6.3438-9.7812-6.3438-19.688 0-10.312 3.375-16.594 6.3438-19.672v-0.73437c-4.7188 3.7969-8.0781 11.469-8.0781 20.406 0 8.9688 3.3594 16.641 8.0781 20.438z" aria-label="("/>
  <path d="m258.75 214.83c-0.4375 1.7656-0.78125 2.9219-1.6406 2.9219-0.125 0-0.20312-0.0469-0.20312-0.15625 0.0312-0.15625 0.29687-0.34375 0.29687-0.65625 0-0.29688-0.25-0.40625-0.5-0.40625-0.51562 0-0.92187 0.4375-0.92187 1.0156 0 0.375 0.26562 0.71875 0.95312 0.71875 1.8438 0 2.8594-1.6719 3.4688-4.0625l5.5625-22.641c0.42188-1.7188 0.8125-2.9375 1.6719-2.9375 0.125 0 0.20312 0.0625 0.20312 0.15625-0.0312 0.1875-0.3125 0.3125-0.3125 0.67187 0 0.29688 0.25 0.39063 0.5 0.39063 0.53125 0 0.95313-0.4375 0.95313-0.98438 0-0.40625-0.28125-0.73437-0.96875-0.73437-1.8906 0-2.9219 1.7969-3.5625 4.375z" aria-label="âˆ«"/>
  <path d="m274.43 191.3c-0.26563 0.34375-0.75 0.95313-1.625 0.95313-0.89063 0-1.3906-0.82813-1.3906-1.6719 0-0.64062 0.4375-1.1875 1-1.1875 0.67188 0 1.2969 0.6875 2.0156 1.875zm0.65625-0.64062c0.29687-0.42188 0.67187-1.0156 1.5625-1.0156 0.875 0 1.3906 0.76563 1.3906 1.6719 0 0.64062-0.4375 1.1875-1 1.1875-0.6875 0-1.2344-0.625-1.9531-1.8125zm3.5469 0.21875c0-1.3281-0.92187-2.0625-1.8125-2.0625-1.0156 0-1.4688 0.625-1.9219 1.4531-0.95313-1.2656-1.4531-1.4531-2.1719-1.4531-0.57812 0-1.9062 0.45312-1.9062 2.2812 0 1.375 0.89063 2 1.75 2 0.95313 0 1.6406-0.53125 2.0781-1.4531 0.625 0.92188 1.1875 1.4531 2.0156 1.4531 1.25 0 1.9688-1.25 1.9688-2.2188z" aria-label="âˆž"/>
  <path d="m266.59 215.69c0 1.9688-0.4375 3.1094-1.2812 3.1094-0.85938 0-1.2969-1.125-1.2969-3.1562 0-2.0156 0.4375-3.2031 1.2656-3.2031 0.875 0 1.3125 1.1719 1.3125 3.25zm0.96875-0.0625c0-2.0312-0.90625-3.4375-2.2188-3.4375-1.6094 0-2.2969 1.625-2.2969 3.3906 0 1.625 0.54688 3.4844 2.2656 3.4844 1.6094 0 2.25-1.7188 2.25-3.4375z" aria-label="0"/>
  <path d="m286.22 193.14c0.25 0 0.45703 0.0234 0.625 0.0625 0.17578 0.043 0.41016 0.0781 0.70312 0.10937 0.0391 0.19922 0.0703 0.42969 0.0937 0.6875 0.0312 0.26172 0.0508 0.50781 0.0625 0.73438 0 0.043-0.0469 0.0625-0.14062 0.0625h-0.10938c-0.043-8e-3 -0.0781-0.0312-0.10937-0.0625-0.043-0.15625-0.11719-0.32813-0.21875-0.51563-0.10547-0.1875-0.23047-0.34375-0.375-0.46875-0.14844-0.13281-0.3125-0.20312-0.5-0.20312-0.3125 0-0.54688 0.0781-0.70313 0.23437-0.14843 0.15625-0.21875 0.35156-0.21875 0.57813 0 0.21875 0.0508 0.40234 0.15625 0.54687 0.11329 0.13672 0.25391 0.25781 0.42188 0.35938 0.17578 0.0937 0.36328 0.19921 0.5625 0.3125 0.1875 0.11718 0.39453 0.24609 0.625 0.39062 0.23828 0.14844 0.44141 0.3125 0.60937 0.5 0.16407 0.1875 0.25 0.42188 0.25 0.70313 0 0.34375-0.0937 0.65234-0.28125 0.92187-0.1875 0.27344-0.43359 0.48438-0.73437 0.64063-0.30469 0.14453-0.63281 0.21875-0.98438 0.21875-0.30468 0-0.55859-0.0312-0.76562-0.0937-0.21094-0.0508-0.46094-0.10157-0.75-0.15625-0.0312-0.0937-0.0703-0.22266-0.10938-0.39063-0.0312-0.16406-0.0586-0.33594-0.0781-0.51562-0.0234-0.17579-0.0312-0.32032-0.0312-0.4375 0.0703-0.0508 0.14844-0.0781 0.23437-0.0781 0.0508 0 0.0859 0.0117 0.10938 0.0312 0.0508 0.17969 0.14453 0.35937 0.28125 0.54687 0.13281 0.1875 0.29687 0.35157 0.48437 0.48438 0.19532 0.125 0.41016 0.1875 0.64063 0.1875 0.26953 0 0.49219-0.0781 0.67187-0.23438 0.17579-0.15625 0.26563-0.38281 0.26563-0.6875 0-0.26953-0.0859-0.48437-0.25-0.64062-0.15625-0.16406-0.35547-0.3125-0.59375-0.4375-0.24219-0.13281-0.48438-0.27344-0.73438-0.42187-0.26171-0.14454-0.49218-0.32813-0.6875-0.54688-0.19921-0.21875-0.29687-0.5-0.29687-0.84375 0-0.3125 0.0859-0.58594 0.26562-0.82812 0.1875-0.23829 0.42188-0.42188 0.70313-0.54688 0.28125-0.13281 0.58203-0.20312 0.90625-0.20312zm3.3594-2.0156c0-0.17578 0.0625-0.32812 0.1875-0.45312s0.27344-0.1875 0.45313-0.1875c0.17578 0 0.32812 0.0625 0.45312 0.1875 0.13282 0.125 0.20313 0.27734 0.20313 0.45312 0 0.17969-0.0703 0.33594-0.20313 0.46875-0.125 0.125-0.27734 0.1875-0.45312 0.1875-0.17969 0-0.32813-0.0625-0.45313-0.1875-0.125-0.13281-0.1875-0.28906-0.1875-0.46875zm1.2344 6.1875v0.54688c8e-3 0.16796 0.0352 0.30468 0.0781 0.40625 8e-3 0.043 0.0703 0.0859 0.1875 0.125 0.11329 0.0312 0.22657 0.0586 0.34375 0.0781 0.125 0.0117 0.21875 0.0156 0.28125 0.0156 0.0195 0.0312 0.0312 0.0937 0.0312 0.1875 8e-3 0.0859 0 0.14453-0.0312 0.1875-0.27343-0.0234-0.50781-0.0391-0.70312-0.0469-0.19922-0.0195-0.42969-0.0312-0.6875-0.0312-0.25 0-0.48047 0.0117-0.6875 0.0312-0.19922 8e-3 -0.42969 0.0234-0.6875 0.0469-0.043-0.043-0.0625-0.10157-0.0625-0.1875 8e-3 -0.0937 0.0312-0.15625 0.0625-0.1875 0.0508 0 0.14062-4e-3 0.26562-0.0156 0.13282-0.0195 0.25782-0.0469 0.375-0.0781 0.11329-0.0391 0.17188-0.082 0.17188-0.125 0.0391-0.10157 0.0625-0.23829 0.0625-0.40625 8e-3 -0.16407 0.0156-0.34766 0.0156-0.54688v-2.4219c0-0.082-8e-3 -0.19141-0.0156-0.32813 0-0.14453-0.0234-0.25781-0.0625-0.34375-0.0234-0.082-0.0937-0.14062-0.21875-0.17187-0.125-0.0312-0.25-0.0469-0.375-0.0469-0.125-8e-3 -0.20313-0.0156-0.23438-0.0156-0.0117-8e-3 -0.0234-0.0547-0.0312-0.14063-0.0117-0.0937 0-0.16016 0.0312-0.20312 0.33204-0.0391 0.65625-0.10157 0.96875-0.1875 0.32032-0.0937 0.61329-0.21094 0.875-0.35938 0.0312 0 0.0625 0.0312 0.0937 0.0937 0.0312 0.0547 0.0469 0.0937 0.0469 0.125 0 0.0312-0.0117 0.10937-0.0312 0.23437-0.0117 0.11719-0.0273 0.23438-0.0469 0.35938-0.0117 0.125-0.0156 0.21094-0.0156 0.25zm5.3359-4.1875c0.46875 0 0.82031 0.10156 1.0625 0.29688 0.23828 0.19921 0.39843 0.5 0.48437 0.90625 0.082 0.40625 0.125 0.92187 0.125 1.5469v1.9844c8e-3 0.16796 0.0312 0.30468 0.0625 0.40625 0.0195 0.043 0.082 0.0859 0.1875 0.125 0.11328 0.0312 0.23438 0.0586 0.35938 0.0781 0.125 0.0117 0.21094 0.0156 0.26562 0.0156 0.0313 0.0312 0.0469 0.0937 0.0469 0.1875 0 0.0859-0.0156 0.14453-0.0469 0.1875-0.27343-0.0234-0.5078-0.0391-0.70311-0.0469-0.19922-0.0195-0.42188-0.0312-0.67188-0.0312s-0.48047 0.0117-0.6875 0.0312c-0.19922 8e-3 -0.43359 0.0234-0.70312 0.0469-0.0312-0.043-0.0469-0.10157-0.0469-0.1875 8e-3 -0.0937 0.0234-0.15625 0.0469-0.1875 0.0508 0 0.14062-4e-3 0.26562-0.0156 0.13281-0.0195 0.25781-0.0469 0.375-0.0781 0.11328-0.0391 0.17578-0.082 0.1875-0.125 0.0312-0.10157 0.0469-0.23829 0.0469-0.40625 8e-3 -0.16407 0.0156-0.34766 0.0156-0.54688v-1.2969c0-0.53907-0.0391-0.96094-0.10937-1.2656-0.0625-0.3125-0.1875-0.53125-0.375-0.65625-0.1875-0.13281-0.44922-0.20312-0.78125-0.20312-0.16797 0-0.34375 0.0547-0.53125 0.15625-0.1875 0.0937-0.35547 0.19921-0.5 0.3125-0.14844 0.11718-0.21875 0.19921-0.21875 0.25v3.25c8e-3 0.16796 0.0351 0.30468 0.0781 0.40625 8e-3 0.043 0.0703 0.0859 0.1875 0.125 0.11328 0.0312 0.22656 0.0586 0.34375 0.0781 0.125 0.0117 0.21875 0.0156 0.28125 0.0156 0.0195 0.0312 0.0312 0.0937 0.0312 0.1875 8e-3 0.0859 0 0.14453-0.0312 0.1875-0.27344-0.0234-0.50781-0.0391-0.70312-0.0469-0.19922-0.0195-0.42969-0.0312-0.6875-0.0312-0.25 0-0.48047 0.0117-0.6875 0.0312-0.19922 8e-3 -0.42969 0.0234-0.6875 0.0469-0.043-0.043-0.0625-0.10157-0.0625-0.1875 8e-3 -0.0937 0.0312-0.15625 0.0625-0.1875 0.0508 0 0.14062-4e-3 0.26562-0.0156 0.13281-0.0195 0.25781-0.0469 0.375-0.0781 0.11328-0.0391 0.17188-0.082 0.17188-0.125 0.0391-0.10157 0.0625-0.23829 0.0625-0.40625 8e-3 -0.16407 0.0156-0.34766 0.0156-0.54688v-2.3594c0-0.0937-8e-3 -0.21875-0.0156-0.375 0-0.15625-0.0234-0.27344-0.0625-0.35938-0.0234-0.082-0.0937-0.14062-0.21875-0.17187-0.125-0.0312-0.25-0.0469-0.375-0.0469-0.125-8e-3 -0.20313-0.0156-0.23438-0.0156-0.0117-8e-3 -0.0234-0.0547-0.0312-0.14063-0.0117-0.0937 0-0.16016 0.0312-0.20312 0.33203-0.0391 0.65625-0.10157 0.96875-0.1875 0.32031-0.0937 0.61328-0.21094 0.875-0.35938 0.0312 0 0.0625 0.0312 0.0937 0.0937 0.0312 0.0547 0.0469 0.0937 0.0469 0.125 0 0.0312-8e-3 0.10547-0.0156 0.21875-0.0117 0.10547-0.0273 0.21094-0.0469 0.3125-0.0117 0.10547-0.0156 0.17969-0.0156 0.21875 0 0.0312 8e-3 0.0469 0.0312 0.0469 8e-3 0 0.0234-8e-3 0.0469-0.0312 0.082-0.0937 0.22266-0.21094 0.42188-0.35938 0.19531-0.15625 0.41406-0.28906 0.65625-0.40625 0.23828-0.125 0.46094-0.1875 0.67187-0.1875z" aria-label="sin"/>
  <path d="m305.12 194.98-0.26563-0.73438c-0.15625-0.4375-0.40625-0.96875-0.98437-1.2969l-1.7656 0.4375 0.0469 0.23437c0.125-0.0469 0.32812-0.0781 0.5-0.0781 0.73437 0 1.0781 0.54687 1.2969 1.1875l0.45313 1.2188-0.875 1.3438c-0.42188 0.65625-0.76563 0.78125-0.92188 0.78125-0.32812 0-0.28125-0.26563-0.625-0.26563-0.32812 0-0.5 0.28125-0.5 0.5 0 0.28125 0.20313 0.625 0.6875 0.625 0.73438 0 1.125-0.57812 1.5469-1.2344l0.84375-1.2969 0.53125 1.5c0.17187 0.48438 0.42187 1.0312 0.96875 1.0312 0.76562 0 1.3594-1.2812 1.5312-1.4844l-0.1875-0.125c-0.28125 0.5625-0.60938 0.75-0.8125 0.75-0.59375 0-0.90625-1.7969-1.3125-2.6094l0.73437-1.125c0.1875-0.29687 0.32813-0.51562 0.73438-0.51562 0.21875 0 0.29687 0.125 0.57812 0.125 0.34375 0 0.53125-0.3125 0.53125-0.5625 0-0.28125-0.23437-0.4375-0.65625-0.4375-0.67187 0-1.125 0.59375-1.4688 1.125z" aria-label="ð‘¥"/>
  <path d="m283.69 202.75v0.87695h24.689v-0.87695z" color="#000000" stroke-miterlimit="10" style="-inkscape-stroke:none"/>
  <path d="m299.02 207.14h-0.71875l-5.5 14.156h-0.0625l-2.7031-7.125h-0.25l-2.0781 1.6562 0.15625 0.26563c0.29687-0.26563 0.64062-0.42188 0.875-0.42188 0.32812 0 0.59375 0.1875 0.8125 0.79688l2.6875 7.0312h0.42187z" aria-label="âˆš"/>
  <path d="m298.54 207.14v0.875h7.3066v-0.875z" color="#000000" stroke-miterlimit="10" style="-inkscape-stroke:none"/>
  <path d="m302.59 215.34-0.26563-0.73437c-0.15625-0.4375-0.40625-0.96875-0.98437-1.2969l-1.7656 0.4375 0.0469 0.23438c0.125-0.0469 0.32812-0.0781 0.5-0.0781 0.73437 0 1.0781 0.54687 1.2969 1.1875l0.45313 1.2188-0.875 1.3438c-0.42188 0.65625-0.76563 0.78125-0.92188 0.78125-0.32812 0-0.28125-0.26562-0.625-0.26562-0.32812 0-0.5 0.28125-0.5 0.5 0 0.28125 0.20313 0.62499 0.6875 0.62499 0.73438 0 1.125-0.57812 1.5469-1.2344l0.84375-1.2969 0.53125 1.5c0.17187 0.48437 0.42187 1.0312 0.96875 1.0312 0.76562 0 1.3594-1.2812 1.5312-1.4844l-0.1875-0.125c-0.28125 0.5625-0.60938 0.75-0.8125 0.75-0.59375 0-0.90625-1.7969-1.3125-2.6094l0.73437-1.125c0.1875-0.29688 0.32813-0.51563 0.73438-0.51563 0.21875 0 0.29687 0.125 0.57812 0.125 0.34375 0 0.53125-0.3125 0.53125-0.5625 0-0.28125-0.23437-0.4375-0.65625-0.4375-0.67187 0-1.125 0.59375-1.4688 1.125z" aria-label="ð‘¥"/>
  <path d="m314.8 202c0 0.40625-0.0781 0.92188-0.21875 1.3906-0.375 1.2188-1.25 2.4688-2.1719 2.4688-0.375 0-0.75-0.21875-0.75-0.875 0-1.2656 1.0781-3.9219 2.3906-3.9219 0.54688 0 0.75 0.3125 0.75 0.9375zm2.1719-4.3594-2.0781 0.32812 0.0625 0.1875c0.0937-0.0156 0.23438-0.0312 0.35938-0.0312 0.34375 0 0.4375 0.0937 0.4375 0.26563 0 0.0469-0.0156 0.10937-0.0312 0.15625l-0.70313 2.7812h-0.0312c-0.0156-0.32813-0.3125-0.67188-1.0781-0.67188-2.0312 0-3.4062 2.9688-3.4062 4.3281 0 0.70312 0.20312 1.6875 1.1719 1.6875 0.48438 0 1.2812-0.15625 2.2656-1.3906h0.0625c-0.0937 0.39063-0.125 0.57813-0.125 0.84375 0 0.25 0.10937 0.54688 0.53125 0.54688 0.625 0 1.3281-0.79688 1.7188-1.3906l-0.14063-0.15625c-0.1875 0.28125-0.5625 0.73438-0.82812 0.73438-0.125 0-0.1875-0.0312-0.1875-0.10938 0-0.0469 0-0.125 0.0156-0.17187zm4.9102 5.0469-0.26562-0.73437c-0.15625-0.4375-0.40625-0.96875-0.98438-1.2969l-1.7656 0.4375 0.0469 0.23438c0.125-0.0469 0.32813-0.0781 0.5-0.0781 0.73438 0 1.0781 0.54688 1.2969 1.1875l0.45312 1.2188-0.875 1.3438c-0.42187 0.65625-0.76562 0.78125-0.92187 0.78125-0.32813 0-0.28125-0.26562-0.625-0.26562-0.32813 0-0.5 0.28125-0.5 0.5 0 0.28125 0.20312 0.625 0.6875 0.625 0.73437 0 1.125-0.57813 1.5469-1.2344l0.84375-1.2969 0.53125 1.5c0.17188 0.48437 0.42188 1.0312 0.96875 1.0312 0.76563 0 1.3594-1.2812 1.5312-1.4844l-0.1875-0.125c-0.28125 0.5625-0.60937 0.75-0.8125 0.75-0.59375 0-0.90625-1.7969-1.3125-2.6094l0.73438-1.125c0.1875-0.29688 0.32812-0.51563 0.73437-0.51563 0.21875 0 0.29688 0.125 0.57813 0.125 0.34375 0 0.53125-0.3125 0.53125-0.5625 0-0.28125-0.23438-0.4375-0.65625-0.4375-0.67188 0-1.125 0.59375-1.4688 1.125z" aria-label="ð‘‘ð‘¥"/>
  <path d="m326.16 183.51c2.9688 3.0938 6.3438 9.4844 6.3438 19.656 0 10.062-3.375 16.641-6.3438 19.703v0.75c4.7031-3.7969 8.0625-11.578 8.0625-20.438 0-9.0469-3.3594-16.609-8.0625-20.406z" aria-label=")"/>
  <path d="m340.6 186.39-0.14062-0.0625c-0.32813 0.54688-0.53125 0.67188-0.95313 0.67188h-2.3281l1.6406-1.7656c0.89063-0.9375 1.2812-1.6875 1.2812-2.4688 0-0.98437-0.71875-1.75-1.8438-1.75-1.2344 0-1.8594 0.8125-2.0781 1.9844l0.21875 0.0469c0.39062-0.98437 0.73437-1.2969 1.4531-1.2969 0.85938 0 1.3906 0.5 1.3906 1.4062 0 0.84375-0.35938 1.6094-1.2969 2.5938l-1.7656 1.875v0.125h3.8906z" aria-label="2"/>
  <path d="m353.55 204.92v-0.875h-7.8125v0.875zm0-2.6562v-0.875h-7.8125v0.875z" aria-label="="/>
  <path d="m366.18 187.46c-0.26563 0.34375-0.75 0.95313-1.625 0.95313-0.89063 0-1.3906-0.82813-1.3906-1.6719 0-0.64062 0.4375-1.1875 1-1.1875 0.67188 0 1.2969 0.6875 2.0156 1.875zm0.65625-0.64062c0.29687-0.42188 0.67187-1.0156 1.5625-1.0156 0.875 0 1.3906 0.76563 1.3906 1.6719 0 0.64062-0.4375 1.1875-1 1.1875-0.6875 0-1.2344-0.625-1.9531-1.8125zm3.5469 0.21875c0-1.3281-0.92187-2.0625-1.8125-2.0625-1.0156 0-1.4688 0.625-1.9219 1.4531-0.95313-1.2656-1.4531-1.4531-2.1719-1.4531-0.57812 0-1.9062 0.45312-1.9062 2.2812 0 1.375 0.89063 2 1.75 2 0.95313 0 1.6406-0.53125 2.0781-1.4531 0.625 0.92188 1.1875 1.4531 2.0156 1.4531 1.25 0 1.9688-1.25 1.9688-2.2188z" aria-label="âˆž"/>
  <path d="m373.87 206.98h-0.51563c-0.48437 2.1719-1.4062 3.0938-3.25 3.0938h-7.5469l6.25-8.1406-5.4531-7.5h5c0.46875 0 1.0312 0.0156 1.4062 0.0781 0.89063 0.0937 1.7812 0.79687 2.1562 2.5312 0.0469 0.26562 0.14063 0.60937 0.14063 0.85937h0.48437v-4.6562h-12.969l6.9219 9.5-7.3906 9.75h13.781z" aria-label="âˆ‘"/>
  <path d="m363.13 217.61h-1.9375l-0.0312 0.125h0.125c0.0937 0 0.25 0.0625 0.25 0.1875s-0.0937 0.25-0.20313 0.35937l-1.6719 1.4844 1.125-4.5469-1.5781 0.25 0.0312 0.14063c0.0937-0.0312 0.1875-0.0312 0.28125-0.0312 0.21875 0 0.3125 0.10937 0.3125 0.21875 0 0.0781-0.0156 0.14062-0.0312 0.20312l-1.4688 5.875h0.75l0.45313-1.6562 0.5625-0.48437 0.625 1.4688c0.10937 0.25 0.3125 0.78125 0.78125 0.78125 0.67187 0 1.1406-1.0625 1.2656-1.2812l-0.15625-0.10938c-0.21875 0.29688-0.4375 0.73438-0.73437 0.73438-0.26563 0-0.375-0.23438-0.53125-0.59375l-0.64063-1.5156 1.0625-0.90625c0.375-0.32812 0.65625-0.51562 1.3281-0.57812zm6.4922 3.0625v-0.65625h-5.8594v0.65625zm0-1.9844v-0.65625h-5.8594v0.65625zm4.2617-0.0469c0 1.9688-0.4375 3.1094-1.2812 3.1094-0.85938 0-1.2969-1.125-1.2969-3.1562 0-2.0156 0.4375-3.2031 1.2656-3.2031 0.875 0 1.3125 1.1719 1.3125 3.25zm0.96876-0.0625c0-2.0312-0.90626-3.4375-2.2188-3.4375-1.6094 0-2.2969 1.625-2.2969 3.3906 0 1.625 0.54688 3.4844 2.2656 3.4844 1.6094 0 2.25-1.7188 2.25-3.4375z" aria-label="ð‘˜=0"/>
  <path d="m391.15 199.91c-1.8594-1.5625-2.25-3.0625-2.25-5.5312 0-2.5625 0.40625-3.7969 2.25-5.375l-0.10937-0.21875c-2.125 1.2656-3.2812 3.1875-3.2812 5.6406 0 2.25 1.1406 4.5 3.2344 5.6875zm6.6875-3.9531-0.1875-0.0937c-0.4375 0.75-0.71875 0.89063-1.2812 0.89063h-3.0938l2.1875-2.3281c1.1719-1.25 1.7031-2.25 1.7031-3.2969 0-1.3125-0.96875-2.3438-2.4688-2.3438-1.625 0-2.4844 1.0938-2.75 2.6562l0.26562 0.0625c0.53125-1.3125 1-1.7344 1.9531-1.7344 1.1406 0 1.8438 0.67188 1.8438 1.875 0 1.125-0.46875 2.1406-1.7188 3.4531l-2.3594 2.5156v0.15625h5.1875zm7.3438-3.875h-2.5781l-0.0469 0.15625h0.15625c0.125 0 0.34375 0.0937 0.34375 0.26563 0 0.17187-0.14063 0.34375-0.28125 0.46875l-2.2188 1.9844 1.5-6.0625-2.0938 0.32813 0.0312 0.1875c0.10937-0.0156 0.25-0.0156 0.35937-0.0156 0.29688 0 0.4375 0.14063 0.4375 0.28125 0 0.0937-0.0156 0.1875-0.0469 0.26563l-1.9687 7.8281h1.0156l0.59375-2.2031 0.75-0.65625 0.82812 1.9531c0.15625 0.34375 0.42188 1.0469 1.0469 1.0469 0.89062 0 1.5156-1.4219 1.6875-1.6875l-0.20313-0.15625c-0.29687 0.40625-0.59375 0.96875-0.98437 0.96875-0.34375 0-0.5-0.3125-0.70313-0.78125l-0.85937-2.0156 1.4219-1.2188c0.5-0.4375 0.875-0.6875 1.7656-0.78125zm0.59375-3.0781c1.9219 1.5156 2.25 3.0469 2.25 5.5312 0 2.5625-0.375 3.8125-2.25 5.375l0.10938 0.20312c2.1094-1.2812 3.2812-3.1719 3.2812-5.625 0-2.25-1.2031-4.4688-3.2344-5.7031zm7.1719 8.2031c0-0.39062-0.32813-0.71875-0.70313-0.71875-0.40625 0-0.70312 0.3125-0.70312 0.70313 0 0.40625 0.28125 0.70312 0.6875 0.70312s0.71875-0.29687 0.71875-0.6875zm-0.8125-1.7812h0.1875l0.59375-5.0469c0.0156-0.15625 0.0312-0.35938 0.0312-0.51563 0-0.64062-0.26562-1.0781-0.70312-1.0781-0.51563 0-0.70313 0.4375-0.70313 1.0156 0 0.14063 0 0.3125 0.0313 0.57813z" aria-label="(2ð‘˜)!"/>
  <path d="m378.89 202.75v0.87695h43.562v-0.87695z" color="#000000" stroke-miterlimit="10" style="-inkscape-stroke:none"/>
  <path d="m385.19 214.84-0.1875-0.0937c-0.4375 0.75-0.71875 0.89062-1.2812 0.89062h-3.0938l2.1875-2.3281c1.1719-1.25 1.7031-2.25 1.7031-3.2969 0-1.3125-0.96875-2.3438-2.4688-2.3438-1.625 0-2.4844 1.0938-2.75 2.6562l0.26563 0.0625c0.53125-1.3125 1-1.7344 1.9531-1.7344 1.1406 0 1.8438 0.67187 1.8438 1.875 0 1.125-0.46875 2.1406-1.7188 3.4531l-2.3594 2.5156v0.15625h5.1875z" aria-label="2"/>
  <path d="m390.25 211.64-0.14063-0.0625c-0.32812 0.54688-0.53125 0.67188-0.95312 0.67188h-2.3281l1.6406-1.7656c0.89062-0.9375 1.2812-1.6875 1.2812-2.4688 0-0.98437-0.71875-1.75-1.8438-1.75-1.2344 0-1.8594 0.8125-2.0781 1.9844l0.21875 0.0469c0.39063-0.98437 0.73438-1.2969 1.4531-1.2969 0.85937 0 1.3906 0.5 1.3906 1.4062 0 0.84375-0.35937 1.6094-1.2969 2.5938l-1.7656 1.875v0.125h3.8906zm5.5117-2.9062h-1.9375l-0.0312 0.125h0.125c0.0937 0 0.25 0.0625 0.25 0.1875s-0.0937 0.25-0.20313 0.35938l-1.6719 1.4844 1.125-4.5469-1.5781 0.25 0.0312 0.14062c0.0937-0.0312 0.1875-0.0312 0.28125-0.0312 0.21875 0 0.3125 0.10938 0.3125 0.21875 0 0.0781-0.0156 0.14063-0.0312 0.20313l-1.4688 5.875h0.75l0.45312-1.6562 0.5625-0.48438 0.625 1.4688c0.10938 0.25 0.3125 0.78125 0.78125 0.78125 0.67188 0 1.1406-1.0625 1.2656-1.2812l-0.15629-0.10942c-0.21875 0.29687-0.4375 0.73437-0.73438 0.73437-0.26562 0-0.375-0.23437-0.53125-0.59375l-0.64062-1.5156 1.0625-0.90625c0.375-0.32813 0.65625-0.51563 1.3281-0.57813z" aria-label="2ð‘˜"/>
  <path d="m400.49 218.79c-1.8594-1.5625-2.25-3.0625-2.25-5.5312 0-2.5625 0.40625-3.7969 2.25-5.375l-0.10937-0.21875c-2.125 1.2656-3.2812 3.1875-3.2812 5.6406 0 2.25 1.1406 4.5 3.2344 5.6875zm7.3906-7.8281h-2.5781l-0.0469 0.15625h0.15625c0.125 0 0.34375 0.0937 0.34375 0.26562 0 0.17188-0.14063 0.34375-0.28125 0.46875l-2.2188 1.9844 1.5-6.0625-2.0938 0.32812 0.0312 0.1875c0.10937-0.0156 0.25-0.0156 0.35937-0.0156 0.29688 0 0.4375 0.14062 0.4375 0.28125 0 0.0937-0.0156 0.1875-0.0469 0.26562l-1.9688 7.8281h1.0156l0.59375-2.2031 0.75-0.65625 0.82813 1.9531c0.15625 0.34375 0.42187 1.0469 1.0469 1.0469 0.89063 0 1.5156-1.4219 1.6875-1.6875l-0.20312-0.15625c-0.29688 0.40625-0.59375 0.96875-0.98438 0.96875-0.34375 0-0.5-0.3125-0.70312-0.78125l-0.85938-2.0156 1.4219-1.2188c0.5-0.4375 0.875-0.6875 1.7656-0.78125zm3.3438 5.125c0-0.39063-0.32813-0.71875-0.70313-0.71875-0.40625 0-0.70312 0.3125-0.70312 0.70312 0 0.40625 0.28125 0.70313 0.6875 0.70313s0.71875-0.29688 0.71875-0.6875zm-0.8125-1.7812h0.1875l0.59375-5.0469c0.0156-0.15625 0.0312-0.35937 0.0312-0.51562 0-0.64063-0.26562-1.0781-0.70312-1.0781-0.51563 0-0.70313 0.4375-0.70313 1.0156 0 0.14062 0 0.3125 0.0312 0.57812zm2.4844-6.4219c1.9219 1.5156 2.25 3.0469 2.25 5.5312 0 2.5625-0.375 3.8125-2.25 5.375l0.10938 0.20313c2.1094-1.2812 3.2812-3.1719 3.2812-5.625 0-2.25-1.2031-4.4688-3.2344-5.7031z" aria-label="(ð‘˜!)"/>
  <path d="m421.65 211.64-0.14062-0.0625c-0.32813 0.54688-0.53125 0.67188-0.95313 0.67188h-2.3281l1.6406-1.7656c0.89063-0.9375 1.2812-1.6875 1.2812-2.4688 0-0.98437-0.71875-1.75-1.8438-1.75-1.2344 0-1.8594 0.8125-2.0781 1.9844l0.21875 0.0469c0.39062-0.98437 0.73437-1.2969 1.4531-1.2969 0.85938 0 1.3906 0.5 1.3906 1.4062 0 0.84375-0.35938 1.6094-1.2969 2.5938l-1.7656 1.875v0.125h3.8906z" aria-label="2"/>
  <path d="m445.3 198.81v-0.20312c-1 0-1.2656-0.23438-1.2656-0.8125v-7.9219l-0.10938-0.0469-2.3906 1.2188v0.1875l0.35937-0.14063c0.25-0.0937 0.46875-0.15625 0.60938-0.15625 0.26562 0 0.39062 0.20313 0.39062 0.65625v5.9531c0 0.73437-0.28125 1.0156-1.2656 1.0625v0.20312z" aria-label="1"/>
  <path d="m425.64 202.75v0.87695h35.486v-0.87695z" color="#000000" stroke-miterlimit="10" style="-inkscape-stroke:none"/>
  <path d="m431.94 214-0.1875-0.0937c-0.4375 0.75-0.71875 0.89063-1.2812 0.89063h-3.0938l2.1875-2.3281c1.1719-1.25 1.7031-2.25 1.7031-3.2969 0-1.3125-0.96875-2.3438-2.4688-2.3438-1.625 0-2.4844 1.0938-2.75 2.6562l0.26562 0.0625c0.53125-1.3125 1-1.7344 1.9531-1.7344 1.1406 0 1.8438 0.67188 1.8438 1.875 0 1.125-0.46875 2.1406-1.7188 3.4531l-2.3594 2.5156v0.15625h5.1875zm7.3438-3.875h-2.5781l-0.0469 0.15625h0.15625c0.125 0 0.34375 0.0937 0.34375 0.26563 0 0.17187-0.14062 0.34375-0.28125 0.46875l-2.2187 1.9844 1.5-6.0625-2.0938 0.32813 0.0312 0.1875c0.10938-0.0156 0.25-0.0156 0.35938-0.0156 0.29687 0 0.4375 0.14063 0.4375 0.28125 0 0.0937-0.0156 0.1875-0.0469 0.26563l-1.9688 7.8281h1.0156l0.59375-2.2031 0.75-0.65625 0.82812 1.9531c0.15625 0.34375 0.42188 1.0469 1.0469 1.0469 0.89062 0 1.5156-1.4219 1.6875-1.6875l-0.20313-0.15625c-0.29687 0.40625-0.59375 0.96875-0.98437 0.96875-0.34375 0-0.5-0.3125-0.70313-0.78125l-0.85937-2.0156 1.4219-1.2188c0.5-0.4375 0.875-0.6875 1.7656-0.78125zm11.605 2.7656v-0.875h-3.4688v-3.4688h-0.875v3.4688h-3.4688v0.875h3.4688v3.4688h0.875v-3.4688zm8.8281 2.9219v-0.20312c-1 0-1.2656-0.23438-1.2656-0.8125v-7.9219l-0.10937-0.0469-2.3906 1.2188v0.1875l0.35938-0.14063c0.25-0.0937 0.46875-0.15625 0.60937-0.15625 0.26563 0 0.39063 0.20313 0.39063 0.65625v5.9531c0 0.73437-0.28125 1.0156-1.2656 1.0625v0.20312z" aria-label="2ð‘˜+1"/>
  <path d="m474.87 204.92v-0.875h-7.8125v0.875zm0-2.6562v-0.875h-7.8125v0.875z" aria-label="="/>
  <path d="m487.9 187.45c-0.26563 0.34375-0.75 0.95312-1.625 0.95312-0.89063 0-1.3906-0.82812-1.3906-1.6719 0-0.64063 0.4375-1.1875 1-1.1875 0.67188 0 1.2969 0.6875 2.0156 1.875zm0.65625-0.64063c0.29687-0.42187 0.67187-1.0156 1.5625-1.0156 0.875 0 1.3906 0.76562 1.3906 1.6719 0 0.64063-0.4375 1.1875-1 1.1875-0.6875 0-1.2344-0.625-1.9531-1.8125zm3.5469 0.21875c0-1.3281-0.92187-2.0625-1.8125-2.0625-1.0156 0-1.4688 0.625-1.9219 1.4531-0.95313-1.2656-1.4531-1.4531-2.1719-1.4531-0.57812 0-1.9062 0.45313-1.9062 2.2812 0 1.375 0.89063 2 1.75 2 0.95313 0 1.6406-0.53125 2.0781-1.4531 0.625 0.92187 1.1875 1.4531 2.0156 1.4531 1.25 0 1.9688-1.25 1.9688-2.2188z" aria-label="âˆž"/>
  <path d="m496.53 212.5v-0.5h-0.32812c-1.2344 0-1.8438-0.79687-1.8438-2.3906v-13.625c0-1.5781 0.51562-2.25 2.1719-2.25v-0.5h-16.656v0.5h0.3125c1.1562 0 1.875 0.48437 1.875 2.3281v13.891c0 1.3594-0.59375 2.0469-1.8438 2.0469h-0.34375v0.5h6.8281v-0.5h-0.5625c-1.2188 0-1.6562-0.78125-1.6562-2.5156v-15.062h7.4375v15.062c0 1.4375-0.34375 2.5156-1.6406 2.5156h-0.57812v0.5z" aria-label="âˆ"/>
  <path d="m484.85 217.62h-1.9375l-0.0312 0.125h0.125c0.0937 0 0.25 0.0625 0.25 0.1875s-0.0937 0.25-0.20312 0.35938l-1.6719 1.4844 1.125-4.5469-1.5781 0.25 0.0312 0.14062c0.0937-0.0312 0.1875-0.0312 0.28125-0.0312 0.21875 0 0.3125 0.10938 0.3125 0.21875 0 0.0781-0.0156 0.14063-0.0312 0.20313l-1.4688 5.875h0.75l0.45312-1.6562 0.5625-0.48438 0.625 1.4688c0.10938 0.25 0.3125 0.78125 0.78125 0.78125 0.67188 0 1.1406-1.0625 1.2656-1.2812l-0.15625-0.10937c-0.21875 0.29687-0.4375 0.73437-0.73438 0.73437-0.26562 0-0.375-0.23437-0.53125-0.59375l-0.64062-1.5156 1.0625-0.90625c0.375-0.32813 0.65625-0.51563 1.3281-0.57813zm6.4922 3.0625v-0.65625h-5.8594v0.65625zm0-1.9844v-0.65625h-5.8594v0.65625zm4.4023 3.1875v-0.15625c-0.73437 0-0.9375-0.17188-0.9375-0.59375v-5.9531l-0.0937-0.0312-1.7812 0.90625v0.14063l0.26562-0.10937c0.1875-0.0625 0.34375-0.10938 0.45313-0.10938 0.20312 0 0.29687 0.14063 0.29687 0.48438v4.4688c0 0.54687-0.21875 0.76562-0.95312 0.79687v0.15625z" aria-label="ð‘˜=1"/>
  <path d="m515.71 195.75h-3.1875l3.1875-4.5625zm2.4062 0.84375v-0.84375h-1.3594v-5.9219h-0.59375l-4.1719 5.9219v0.84375h3.7188v2.2188h1.0469v-2.2188zm7.3594-3.4688h-2.5781l-0.0469 0.15625h0.15625c0.125 0 0.34375 0.0937 0.34375 0.26563 0 0.17187-0.14063 0.34375-0.28125 0.46875l-2.2188 1.9844 1.5-6.0625-2.0938 0.32813 0.0312 0.1875c0.10937-0.0156 0.25-0.0156 0.35937-0.0156 0.29688 0 0.4375 0.14063 0.4375 0.28125 0 0.0937-0.0156 0.1875-0.0469 0.26563l-1.9688 7.8281h1.0156l0.59375-2.2031 0.75-0.65625 0.82813 1.9531c0.15625 0.34375 0.42187 1.0469 1.0469 1.0469 0.89063 0 1.5156-1.4219 1.6875-1.6875l-0.20312-0.15625c-0.29688 0.40625-0.59375 0.96875-0.98438 0.96875-0.34375 0-0.5-0.3125-0.70312-0.78125l-0.85938-2.0156 1.4219-1.2188c0.5-0.4375 0.875-0.6875 1.7656-0.78125z" aria-label="4ð‘˜"/>
  <path d="m530.39 192.14-0.14062-0.0625c-0.32813 0.54687-0.53125 0.67187-0.95313 0.67187h-2.3281l1.6406-1.7656c0.89063-0.9375 1.2812-1.6875 1.2812-2.4688 0-0.98438-0.71875-1.75-1.8438-1.75-1.2344 0-1.8594 0.8125-2.0781 1.9844l0.21875 0.0469c0.39062-0.98438 0.73437-1.2969 1.4531-1.2969 0.85938 0 1.3906 0.5 1.3906 1.4062 0 0.84375-0.35938 1.6094-1.2969 2.5938l-1.7656 1.875v0.125h3.8906z" aria-label="2"/>
  <path d="m501.01 202.75v0.87695h41.014v-0.87695z" color="#000000" stroke-miterlimit="10" style="-inkscape-stroke:none"/>
  <path d="m504.89 213.59h-3.1875l3.1875-4.5625zm2.4062 0.84375v-0.84375h-1.3594v-5.9219h-0.59375l-4.1719 5.9219v0.84375h3.7188v2.2188h1.0469v-2.2188zm7.3594-3.4688h-2.5781l-0.0469 0.15625h0.15625c0.125 0 0.34375 0.0937 0.34375 0.26562 0 0.17188-0.14063 0.34375-0.28125 0.46875l-2.2188 1.9844 1.5-6.0625-2.0938 0.32812 0.0312 0.1875c0.10937-0.0156 0.25-0.0156 0.35937-0.0156 0.29688 0 0.4375 0.14062 0.4375 0.28125 0 0.0937-0.0156 0.1875-0.0469 0.26562l-1.9688 7.8281h1.0156l0.59375-2.2031 0.75-0.65625 0.82813 1.9531c0.15625 0.34375 0.42187 1.0469 1.0469 1.0469 0.89063 0 1.5156-1.4219 1.6875-1.6875l-0.20312-0.15625c-0.29688 0.40625-0.59375 0.96875-0.98438 0.96875-0.34375 0-0.5-0.3125-0.70312-0.78125l-0.85938-2.0156 1.4219-1.2188c0.5-0.4375 0.875-0.6875 1.7656-0.78125z" aria-label="4ð‘˜"/>
  <path d="m519.57 211.64-0.14062-0.0625c-0.32813 0.54688-0.53125 0.67188-0.95313 0.67188h-2.3281l1.6406-1.7656c0.89063-0.9375 1.2812-1.6875 1.2812-2.4688 0-0.98437-0.71875-1.75-1.8438-1.75-1.2344 0-1.8594 0.8125-2.0781 1.9844l0.21875 0.0469c0.39062-0.98437 0.73437-1.2969 1.4531-1.2969 0.85938 0 1.3906 0.5 1.3906 1.4062 0 0.84375-0.35938 1.6094-1.2969 2.5938l-1.7656 1.875v0.125h3.8906z" aria-label="2"/>
  <path d="m531.58 213.73v-0.875h-7.4062v0.875zm9.0352 2.9219v-0.20313c-1 0-1.2656-0.23437-1.2656-0.8125v-7.9219l-0.10937-0.0469-2.3906 1.2188v0.1875l0.35938-0.14062c0.25-0.0937 0.46875-0.15625 0.60937-0.15625 0.26563 0 0.39063 0.20312 0.39063 0.65625v5.9531c0 0.73438-0.28125 1.0156-1.2656 1.0625v0.20313z" aria-label="âˆ’1"/>
  <path d="m555.76 204.92v-0.875h-7.8125v0.875zm0-2.6562v-0.875h-7.8125v0.875z" aria-label="="/>
  <path d="m569.23 193.12h-3.75c-1.375 0-2.2344 0.60938-2.8125 1.6719h0.21875c0.57813-0.70313 1.0625-0.70313 1.8438-0.70313l-1.1875 2.7344c-0.17188 0.39062-0.40625 0.78125-0.98438 0.9375-0.34375 0.0937-0.40625 0.4375-0.40625 0.64062 0 0.3125 0.32812 0.57813 0.67187 0.57813 0.15625 0 0.35938-0.0312 0.50001-0.14063 1.125-0.84375 1.5312-3.125 2.1406-4.75h1.25c-0.32813 1.125-0.73438 2.0469-1.0312 2.9844-0.0781 0.26562-0.125 0.53125-0.125 0.82812 0 0.51563 0.23437 1 0.76562 1 0.92188 0 1.625-0.9375 1.9062-1.8906h-0.21875c-0.3125 0.71875-0.6875 0.875-0.96875 0.875s-0.5-0.32813-0.5-0.625c0-0.89063 0.70313-2.5938 0.89063-3.1719h1.4844z" aria-label="ðœ‹"/>
  <path d="m561.69 202.75v0.87695h7.4121v-0.87695z" color="#000000" stroke-miterlimit="10" style="-inkscape-stroke:none"/>
  <path d="m568.37 214-0.1875-0.0937c-0.4375 0.75-0.71875 0.89063-1.2812 0.89063h-3.0938l2.1875-2.3281c1.1719-1.25 1.7031-2.25 1.7031-3.2969 0-1.3125-0.96875-2.3438-2.4688-2.3438-1.625 0-2.4844 1.0938-2.75 2.6562l0.26562 0.0625c0.53125-1.3125 1-1.7344 1.9531-1.7344 1.1406 0 1.8438 0.67188 1.8438 1.875 0 1.125-0.46875 2.1406-1.7188 3.4531l-2.3594 2.5156v0.15625h5.1875z" aria-label="2"/>
 </g>
 <g transform="matrix(.91717 0 0 1 -218.65 -116.12)" fill="#fff">
  <path d="m582.81 117.28c2.9688 3.0938 6.3438 9.4844 6.3438 19.656 0 10.062-3.375 16.641-6.3438 19.703v0.75c4.7031-3.7969 8.0625-11.578 8.0625-20.438 0-9.0469-3.3594-16.609-8.0625-20.406z" aria-label=")"/>
  <path d="m577.48 148.6-5.5-22.328c-0.625-2.5781-1.6719-4.375-3.5469-4.375-0.70312 0-0.96875 0.32812-0.96875 0.73437 0 0.54688 0.42188 0.98438 0.9375 0.98438 0.25 0 0.5-0.0937 0.5-0.39063 0-0.35937-0.28125-0.48437-0.29687-0.67187 0-0.0937 0.0781-0.15625 0.1875-0.15625 0.875 0 1.25 1.2188 1.6875 2.9375l5.5625 22.641c0.59375 2.3906 1.6094 4.0625 3.4688 4.0625 0.67187 0 0.95312-0.34375 0.95312-0.71875 0-0.57813-0.42187-1.0156-0.9375-1.0156-0.25 0-0.5 0.10938-0.5 0.40625 0 0.3125 0.28125 0.5 0.3125 0.65625 0 0.10938-0.0937 0.15625-0.20312 0.15625-0.85938 0-1.2188-1.1562-1.6562-2.9219z" aria-label="âˆ«"/>
  <path d="m561.8 125.08c-0.26562 0.34375-0.75 0.95312-1.625 0.95312-0.89062 0-1.3906-0.82812-1.3906-1.6719 0-0.64063 0.4375-1.1875 1-1.1875 0.67187 0 1.2969 0.6875 2.0156 1.875zm0.65625-0.64063c0.29688-0.42187 0.67188-1.0156 1.5625-1.0156 0.875 0 1.3906 0.76562 1.3906 1.6719 0 0.64063-0.4375 1.1875-1 1.1875-0.6875 0-1.2344-0.625-1.9531-1.8125zm3.5469 0.21875c0-1.3281-0.92188-2.0625-1.8125-2.0625-1.0156 0-1.4688 0.625-1.9219 1.4531-0.95312-1.2656-1.4531-1.4531-2.1719-1.4531-0.57812 0-1.9062 0.45313-1.9062 2.2812 0 1.375 0.89063 2 1.75 2 0.95312 0 1.6406-0.53125 2.0781-1.4531 0.625 0.92187 1.1875 1.4531 2.0156 1.4531 1.25 0 1.9688-1.25 1.9688-2.2188z" aria-label="âˆž"/>
  <path d="m570.7 149.59-0.375 1.0625c-0.0469 0.14062-0.0469 0.25 0.0312 0.29687l0.92187 0.53125c0.15625 0.10938 0.28125 0.0781 0.32813-0.0937l0.32812-0.98437c0.0469-0.15625 0.0156-0.26563-0.10937-0.34375l-0.82813-0.53125c-0.14062-0.0937-0.24999-0.0781-0.29687 0.0625z" aria-label="Ù "/>
  <path d="m549.23 128.12c0.17578 0.0742 0.375 0.15234 0.59375 0.23437 0.22656 0.0742 0.47266 0.14844 0.73437 0.21875 0.26954 0.0625 0.53125 0.11719 0.78125 0.15625 0.25782 0.0312 0.51563 0.043 0.76563 0.0312 0.0703 0 0.13281 0.0234 0.1875 0.0625 0.0391 0.0312 0.0469 0.0937 0.0156 0.1875-0.0859 0.16797-0.15625 0.3125-0.21875 0.4375-0.0547 0.125-0.10156 0.21875-0.14062 0.28125-0.0937 0.14844-0.17969 0.21875-0.25 0.21875-0.24219-0.0312-0.49609-0.0391-0.76563-0.0312-0.26171 0.0117-0.54296 0.043-0.84375 0.0937-0.30468 0.0547-0.58984 0.10938-0.85937 0.17188-0.26172 0.0625-0.50781 0.13672-0.73438 0.21875-1.3359 0.4375-2.1641 0.67187-2.4844 0.70312-0.33594 0.0312-0.64063 0.0312-0.92188 0-0.0312-0.85156-0.0156-1.3281 0.0469-1.4219 0.11328-0.23828 0.24219-0.46875 0.39062-0.6875 0.14454-0.21875 0.29688-0.42969 0.45313-0.64063 0.50781-0.64453 0.92578-0.95703 1.25-0.9375 0.15625 0.0117 0.39844 0.0742 0.73437 0.1875 0.34375 0.11719 0.76563 0.28907 1.2656 0.51563zm-0.84375 1.0625c-0.55469-0.3125-1.0859-0.47656-1.5938-0.5-0.27344 0-0.52734 0.10937-0.76563 0.32812-0.23046 0.19922-0.40625 0.49219-0.53125 0.875 0.40625 0.0234 1.1758-0.11328 2.3125-0.40625l0.57813-0.14062c0.0391-0.0195 0.0664-0.0352 0.0781-0.0469 0.0195-0.0312-8e-3 -0.0664-0.0781-0.10937zm0.375 3c0.0195-0.0312 0.0547-0.043 0.10937-0.0312 0.35157 0.125 0.67188 0.3125 0.95313 0.5625 0.0312 0.0312 0.0312 0.0664 0 0.10937l-0.625 1c-0.0234 0.0508-0.0625 0.0508-0.125 0-0.0312-0.0312-0.125-0.10156-0.28125-0.20312-0.14844-0.0937-0.36719-0.22656-0.65625-0.39063-0.043-0.0234-0.0469-0.0469-0.0156-0.0781zm-5.6992-10.641c0.0391-0.0625 0.0703-0.0859 0.0937-0.0781 0.0508 0 0.0859 0.0937 0.10937 0.28125 0.16407 1.3672 0.27344 2.5391 0.32813 3.5156 0.0391 0.91797 0.0781 1.6562 0.10937 2.2188 0.0312 0.55469 0.0508 0.92969 0.0625 1.125 0.0625 0.8125 0.50391 1.2461 1.3281 1.2969 0.23828 0.0234 0.33203 0.18359 0.28125 0.48437-0.0859 0.48047-0.17969 0.71875-0.28125 0.71875-1.168 0-1.7891-0.53906-1.8594-1.625-0.043-0.44531-0.0742-0.89843-0.0937-1.3594-0.0234-0.45703-0.043-0.91406-0.0625-1.375-0.0234-0.91406-0.0742-1.6602-0.15625-2.2344-0.0859-0.57031-0.1875-1.2226-0.3125-1.9531-0.0312-0.125-0.0234-0.23438 0.0312-0.32813z" aria-label="Ø¬Ø§"/>
  <path d="m538.59 124.59-0.25 0.95312c0 0.0312 0.0156 0.0937 0.0625 0.14063 0.0312 0.0625 0.0625 0.15625 0.0625 0.29687-0.4375 0.0312-0.82812-0.0625-1.1875-0.32812 0.0781-0.4375 0.0781-0.70313 0-0.76563-0.0469-0.0312-0.0937-0.0312-0.15625 0-0.0469 0.0312-0.0937 0.0625-0.10937 0.14063-0.14063 0.65625-0.3125 1.0781-0.48438 1.2188-0.46875 0.375-0.9375 0.5-1.375 0.40625-0.0781-0.0156-0.1875-0.14063-0.32812-0.39063-0.14063-0.25-0.25-0.40625-0.29688-0.4375-0.0312-0.0469-0.0781-0.0312-0.10937 0.0156-0.14063 0.20312-0.29688 0.5-0.48438 0.90625-0.0156 0.0625 0 0.125 0.0469 0.21875 0.375 0.85937 0.54687 1.625 0.51562 2.3125-0.78125 1.2344-2.0938 1.8125-3.9375 1.7812-1.3438-0.0469-2.1562-0.64063-2.5-1.7969-0.0937-0.35937 0.125-1.0938 0.67188-2.1719 0.0312-0.0312 0.0312-0.0781 0.0156-0.10938 0-0.0312-0.0156-0.0625-0.0469-0.0781-0.0156 0-0.0469-0.0156-0.0781-0.0156h-0.0156c-0.0156 0-0.0469 0.0156-0.0625 0.0156-0.0312 0.0312-0.0781 0.0625-0.125 0.0937-0.71875 0.70312-1.5 1.0469-2.2812 1.0625-0.0937 0-0.125 0.0781-0.14063 0.25l-0.0312 0.45312c-0.0156 0.15625 0.0625 0.20313 0.17188 0.1875 0.6875-0.10937 1.3125-0.4375 1.8906-0.98437-0.15625 0.375-0.28125 0.75-0.34375 1.1094-0.14062 0.65625-0.15625 1.1406-0.0625 1.4844 0.35938 1.2344 1.2969 1.8594 2.8125 1.9062 1.2188 0.0156 2.3281-0.35938 3.3594-1.1406 0.46875-0.35937 0.79687-0.82812 0.98437-1.3906s0.29688-1.2031 0.34375-1.9688c0.73438 0.0937 1.3125-0.20313 1.7031-0.90625 0.54687 0.32812 1.0469 0.45312 1.4531 0.375 0.14063-0.0312 0.23438-0.10938 0.32813-0.25 0.29687-0.5 0.45312-1.0781 0.45312-1.7188 0-0.42188-0.0469-0.70313-0.17187-0.90625-0.0313-0.0781-0.10938-0.125-0.17188-0.125s-0.10937 0.0625-0.125 0.15625z" aria-label="ðž¹Ž"/>
  <path d="m525.18 136.53v0.875h27.959v-0.875z" color="#000000" style="-inkscape-stroke:none"/>
  <path d="m539.86 140.91 6.3594 16.359h0.42188l2.6719-7.0312c0.23438-0.60938 0.5-0.79688 0.82813-0.79688 0.23437 0 0.57812 0.15625 0.85937 0.42188l0.17188-0.26563-2.0781-1.6562h-0.25l-2.7188 7.125h-0.0469l-5.5-14.156z" aria-label="âˆš"/>
  <path d="m525.67 140.91v0.875h14.652v-0.875z" color="#000000" stroke-miterlimit="10" style="-inkscape-stroke:none"/>
  <path d="m539.08 146.2-0.25 0.95313c0 0.0312 0.0156 0.0937 0.0625 0.14062 0.0312 0.0625 0.0625 0.15625 0.0625 0.29688-0.4375 0.0312-0.82813-0.0625-1.1875-0.32813 0.0781-0.4375 0.0781-0.70312 0-0.76562-0.0469-0.0312-0.0937-0.0312-0.15625 0-0.0469 0.0312-0.0937 0.0625-0.10938 0.14062-0.14062 0.65625-0.3125 1.0781-0.48437 1.2188-0.46875 0.375-0.9375 0.5-1.375 0.40625-0.0781-0.0156-0.1875-0.14062-0.32813-0.39062-0.14062-0.25-0.25-0.40625-0.29687-0.4375-0.0312-0.0469-0.0781-0.0312-0.10938 0.0156-0.14062 0.20313-0.29687 0.5-0.48437 0.90625-0.0156 0.0625 0 0.125 0.0469 0.21875 0.375 0.85938 0.54688 1.625 0.51563 2.3125-0.78125 1.2344-2.0938 1.8125-3.9375 1.7812-1.3438-0.0469-2.1562-0.64062-2.5-1.7969-0.0937-0.35938 0.125-1.0938 0.67187-2.1719 0.0312-0.0312 0.0312-0.0781 0.0156-0.10937 0-0.0312-0.0156-0.0625-0.0469-0.0781-0.0156 0-0.0469-0.0156-0.0781-0.0156h-0.0156c-0.0156 0-0.0469 0.0156-0.0625 0.0156-0.0312 0.0312-0.0781 0.0625-0.125 0.0937-0.71875 0.70313-1.5 1.0469-2.2812 1.0625-0.0937 0-0.125 0.0781-0.14062 0.25l-0.0312 0.45313c-0.0156 0.15625 0.0625 0.20312 0.17187 0.1875 0.6875-0.10938 1.3125-0.4375 1.8906-0.98438-0.15625 0.375-0.28125 0.75-0.34375 1.1094-0.14063 0.65625-0.15625 1.1406-0.0625 1.4844 0.35937 1.2344 1.2969 1.8594 2.8125 1.9062 1.2188 0.0156 2.3281-0.35937 3.3594-1.1406 0.46875-0.35938 0.79688-0.82813 0.98438-1.3906s0.29687-1.2031 0.34375-1.9688c0.73437 0.0937 1.3125-0.20312 1.7031-0.90625 0.54688 0.32813 1.0469 0.45313 1.4531 0.375 0.14062-0.0312 0.23437-0.10937 0.32812-0.25 0.29688-0.5 0.45312-1.0781 0.45312-1.7188 0-0.42187-0.0469-0.70312-0.17187-0.90625-0.0312-0.0781-0.10937-0.125-0.17187-0.125s-0.10938 0.0625-0.125 0.15625z" aria-label="ðž¹Ž"/>
  <path d="m522.8 133.82c-0.0312 0.28125-0.10938 0.60937-0.26563 1-0.0312 0.0937-0.0781 0.10937-0.15625 0.0937-0.40625-0.15625-0.84375-0.10938-1.375 0.125-0.51562 0.25-0.79687 0.51562-0.89062 0.84375-0.0781 0.28125 0.5 0.71875 1.7656 1.3438 0.25 0.10937 0.39063 0.29687 0.45313 0.5625 0.0937 0.29687 0.0625 0.625-0.0625 1.0156-0.17188 0.54688-0.39063 0.96875-0.64063 1.2656-0.1875 0.21875-0.45312 0.35937-0.8125 0.4375-0.70312 0.125-1.5625 0.20312-2.5625 0.23437-0.15625 0-0.23437-0.0469-0.23437-0.17187 0-0.0937 0.0625-0.17188 0.20312-0.21875 1.5469-0.54688 2.6875-1.0625 3.4062-1.5312 0.20313-0.15625 0.17188-0.26563-0.0469-0.34375-0.71875-0.28125-1.2812-0.60938-1.6562-0.96875-0.34375-0.29688-0.45313-0.76563-0.32813-1.3594 0.14063-0.59375 0.40625-1.1406 0.79688-1.6562 0.5-0.625 1.0312-0.96875 1.5938-0.98437 0.35937-0.0156 0.60937 0.0312 0.73437 0.14062 0.0625 0.0469 0.0937 0.10938 0.0781 0.17188zm-6.8086-0.0469-0.25 0.95313c0 0.0312 0.0156 0.0937 0.0625 0.14062 0.0312 0.0625 0.0625 0.15625 0.0625 0.29688-0.4375 0.0312-0.82812-0.0625-1.1875-0.32813 0.0781-0.4375 0.0781-0.70312 0-0.76562-0.0469-0.0312-0.0937-0.0312-0.15625 0-0.0469 0.0312-0.0937 0.0625-0.10937 0.14062-0.14063 0.65625-0.3125 1.0781-0.48438 1.2188-0.46875 0.375-0.9375 0.5-1.375 0.40625-0.0781-0.0156-0.1875-0.14062-0.32812-0.39062-0.14063-0.25-0.25-0.40625-0.29688-0.4375-0.0312-0.0469-0.0781-0.0312-0.10937 0.0156-0.14063 0.20313-0.29688 0.5-0.48438 0.90625-0.0156 0.0625 0 0.125 0.0469 0.21875 0.375 0.85938 0.54687 1.625 0.51562 2.3125-0.78125 1.2344-2.0938 1.8125-3.9375 1.7812-1.3438-0.0469-2.1562-0.64062-2.5-1.7969-0.0937-0.35938 0.125-1.0938 0.67188-2.1719 0.0312-0.0312 0.0312-0.0781 0.0156-0.10937 0-0.0312-0.0156-0.0625-0.0469-0.0781-0.0156 0-0.0469-0.0156-0.0781-0.0156h-0.0156c-0.0156 0-0.0469 0.0156-0.0625 0.0156-0.0312 0.0312-0.0781 0.0625-0.125 0.0937-0.71875 0.70313-1.5 1.0469-2.2812 1.0625-0.0937 0-0.125 0.0781-0.14063 0.25l-0.0312 0.45313c-0.0156 0.15625 0.0625 0.20312 0.17187 0.1875 0.6875-0.10938 1.3125-0.4375 1.8906-0.98438-0.15625 0.375-0.28125 0.75-0.34375 1.1094-0.14063 0.65625-0.15625 1.1406-0.0625 1.4844 0.35937 1.2344 1.2969 1.8594 2.8125 1.9062 1.2188 0.0156 2.3281-0.35937 3.3594-1.1406 0.46875-0.35938 0.79688-0.82813 0.98438-1.3906s0.29687-1.2031 0.34375-1.9688c0.73437 0.0937 1.3125-0.20312 1.7031-0.90625 0.54688 0.32813 1.0469 0.45313 1.4531 0.375 0.14062-0.0312 0.23437-0.10937 0.32812-0.25 0.29688-0.5 0.45313-1.0781 0.45313-1.7188 0-0.42187-0.0469-0.70312-0.17188-0.90625-0.0312-0.0781-0.10937-0.125-0.17187-0.125s-0.10938 0.0625-0.125 0.15625z" aria-label="ðž¸ƒðž¹Ž"/>
  <path d="m501.57 156.64c-2.9688-3.0781-6.3438-9.7812-6.3438-19.688 0-10.312 3.375-16.594 6.3438-19.672v-0.73438c-4.7188 3.7969-8.0781 11.469-8.0781 20.406 0 8.9688 3.3594 16.641 8.0781 20.438z" aria-label="("/>
  <path d="m487.38 116.33-0.25 1.0156c-0.0156 0.125 0.0156 0.28125 0.14063 0.46875 0.78125 1.2344 1.25 2.7188 1.3594 4.4375 0 0.0625 0.0156 0.10938 0.0625 0.14063 0.0469 0.0469 0.0781 0.0469 0.14063 0.0156 0.0625-0.0156 0.0937-0.0469 0.10937-0.125 0.1875-0.98437 0.0781-2.2656-0.34375-3.8438 0.79688 0.14063 1.3594-0.0469 1.6875-0.53125 0.20313-0.28125 0.34375-0.625 0.40625-1 0.0469-0.375 0.0781-0.60937 0.0469-0.67187-0.0312-0.0781-0.0781-0.10938-0.17188-0.10938-0.0937 0-0.15625 0.0625-0.17187 0.17188-0.0937 0.70312-0.51563 1.0469-1.2969 1.0469-0.5625 0-1-0.29687-1.3281-0.9375-0.1875-0.35937-0.3125-0.39062-0.39063-0.0781z" aria-label="Ù¢"/>
  <path d="m481.14 138.69v-0.875h-7.8125v0.875zm0-2.6562v-0.875h-7.8125v0.875z" aria-label="="/>
  <path d="m459.15 121.23c-0.26562 0.34375-0.75 0.95312-1.625 0.95312-0.89062 0-1.3906-0.82812-1.3906-1.6719 0-0.64063 0.4375-1.1875 1-1.1875 0.67187 0 1.2969 0.6875 2.0156 1.875zm0.65625-0.64063c0.29688-0.42187 0.67188-1.0156 1.5625-1.0156 0.875 0 1.3906 0.76562 1.3906 1.6719 0 0.64063-0.4375 1.1875-1 1.1875-0.6875 0-1.2344-0.625-1.9531-1.8125zm3.5469 0.21875c0-1.3281-0.92188-2.0625-1.8125-2.0625-1.0156 0-1.4688 0.625-1.9219 1.4531-0.95312-1.2656-1.4531-1.4531-2.1719-1.4531-0.57813 0-1.9062 0.45313-1.9062 2.2812 0 1.375 0.89062 2 1.75 2 0.95312 0 1.6406-0.53125 2.0781-1.4531 0.625 0.92187 1.1875 1.4531 2.0156 1.4531 1.25 0 1.9688-1.25 1.9688-2.2188z" aria-label="âˆž"/>
  <path d="m452.07 140.75 0.96875 5.5156h13.797l-7.4062-9.75 6.9219-9.5h-12.953v4.6562h0.46875c0-0.25 0.0937-0.59375 0.14062-0.85938 0.375-1.7344 1.2656-2.4375 2.1562-2.5312 0.375-0.0625 0.95313-0.0781 1.4062-0.0781h5.0156l-5.4688 7.5 6.25 8.1406h-7.5469c-1.8438 0-2.7656-0.92187-3.2344-3.0938z" aria-label="âˆ‘"/>
  <path d="m465.4 151.09c-0.54687 0.14062-0.92187 0.64062-1.1094 1.4688-0.0312 0.10937 0.0156 0.21875 0.0937 0.32812 0.0937 0.0937 0.21875 0.15625 0.375 0.1875l0.29687 0.0781c0.0312 0 0.0625 0.0156 0.0781 0.0469 0 0.0312 0 0.0625-0.0312 0.0781-0.10938 0.0469-0.4375 0.0937-0.96875 0.10937-0.28125 0-0.5 0.0156-0.67188 0.0156-0.0625 0-0.0937 0.0312-0.0937 0.0937s0.0312 0.10937 0.10938 0.125c0.1875 0.0937 0.46875 0.14062 0.79687 0.17187 0.32813 0.0312 0.5625 0.0469 0.6875 0 0.14063-0.0312 0.28125-0.15625 0.42188-0.35937 0.46875-0.65625 0.48437-1.0156 0.0156-1.0781-0.1875-0.0312-0.34375-0.0781-0.48437-0.125-0.14063-0.0625-0.20313-0.10937-0.15625-0.15625 0.0625-0.0937 0.20312-0.17187 0.39062-0.20312 0.0312-0.0156 0.0781-0.0625 0.10938-0.14063l0.20312-0.53125c0.0156-0.0312 0.0156-0.0469 0-0.0781 0-0.0156-0.0312-0.0312-0.0625-0.0312zm2.0156-2.0781c-0.0312-0.0469-0.0469-0.0781-0.0781-0.0937-0.0312 0-0.0625 0.0156-0.0781 0.0625l-0.1875 0.375c-0.0469 0.10938-0.0469 0.20313-0.0156 0.3125 0.0312 0.0937 0.0625 0.25 0.10938 0.46875 0.0625 0.20313 0.21875 1.0938 0.51562 2.6562 0.28125 1.5625 0.40625 2.4688 0.375 2.7031-0.42187 0.28125-1.5781 0.39062-3.5 0.35937-0.64062 0-1.0781-0.0469-1.3438-0.15625-0.0469-0.0156-0.0625 0-0.0625 0.0469-0.0156 0.15625-0.0156 0.4375 0.0156 0.85937 0.0156 0.0469 0.0312 0.0781 0.0625 0.0781 0.4375 0.0781 0.95312 0.10937 1.5469 0.125 2.0781 0.0312 3.2031-0.125 3.3594-0.48438 0.1875-0.4375 0.28125-0.84375 0.29687-1.2656v-0.48438c-0.0156-0.59375-0.25-2.0156-0.71875-4.2812 0-0.0156 0.0156-0.0469 0.0469-0.0937l0.1875-0.29687c0.0469-0.0781 0.0469-0.14063 0-0.1875-0.21875-0.17188-0.39063-0.40625-0.53125-0.70313z" aria-label="ðž¸Š"/>
  <path d="m462.07 155.6v-0.65625h-5.8594v0.65625zm0-1.9844v-0.65625h-5.8594v0.65625zm-9.6719 0.0781-0.375 1.0625c-0.0469 0.14063-0.0469 0.25 0.0312 0.29688l0.92187 0.53125c0.15625 0.10937 0.28125 0.0781 0.32813-0.0937l0.32812-0.98438c0.0469-0.15625 0.0156-0.26562-0.10937-0.34375l-0.82813-0.53125c-0.14062-0.0937-0.25-0.0781-0.29687 0.0625z" aria-label="=Ù "/>
  <path d="m432.47 122.78c1.9219 1.5156 2.25 3.0469 2.25 5.5312 0 2.5625-0.375 3.8125-2.25 5.375l0.10937 0.20313c2.1094-1.2812 3.2812-3.1719 3.2812-5.625 0-2.25-1.2031-4.4688-3.2344-5.7031zm-6.3516 1.8438-0.32813 1.3594c-0.0312 0.17187 0.0156 0.375 0.17188 0.625 1.0469 1.6562 1.6719 3.625 1.8125 5.9062 0.0156 0.0937 0.0312 0.14062 0.0937 0.20312 0.0469 0.0469 0.10938 0.0469 0.1875 0.0312 0.0781-0.0312 0.125-0.0937 0.14063-0.1875 0.25-1.3125 0.10937-3.0156-0.45313-5.1094 1.0469 0.17187 1.8125-0.0625 2.25-0.71875 0.28125-0.375 0.45313-0.8125 0.53125-1.3281 0.0781-0.5 0.10938-0.8125 0.0781-0.90625-0.0469-0.0781-0.10937-0.14062-0.23437-0.14062-0.14063 0-0.21875 0.0781-0.23438 0.23437-0.10937 0.9375-0.6875 1.4062-1.7344 1.4062-0.73438 0-1.3125-0.42187-1.75-1.25-0.26563-0.48437-0.4375-0.51562-0.53125-0.125z" aria-label=")Ù¢"/>
  <path d="m419.5 123.92c-0.73437 0.20312-1.2344 0.84375-1.4844 1.9688-0.0469 0.14062 0.0156 0.29687 0.125 0.42187 0.125 0.14063 0.28125 0.23438 0.5 0.26563l0.39062 0.0937c0.0469 0.0156 0.0781 0.0312 0.0937 0.0625 0.0156 0.0469 0.0156 0.0781-0.0156 0.0937-0.15625 0.0781-0.59375 0.14062-1.3125 0.15625-0.35938 0-0.65625 0.0156-0.89063 0.0312-0.0937 0-0.125 0.0469-0.125 0.125s0.0469 0.125 0.14063 0.17187c0.26562 0.10938 0.625 0.1875 1.0625 0.21875 0.4375 0.0469 0.76562 0.0625 0.9375 0 0.17187-0.0469 0.35937-0.20312 0.54687-0.46875 0.625-0.875 0.64063-1.3594 0.0312-1.4531-0.26562-0.0469-0.46875-0.0937-0.65625-0.17188-0.1875-0.0781-0.26562-0.14062-0.20312-0.20312 0.0937-0.125 0.26562-0.21875 0.51562-0.28125 0.0469 0 0.10938-0.0625 0.14063-0.1875l0.28125-0.70313c0.0156-0.0312 0.0156-0.0625 0-0.0937-0.0156-0.0156-0.0312-0.0469-0.0781-0.0469zm2.6719-2.7656c-0.0312-0.0625-0.0469-0.10937-0.0937-0.10937-0.0469-0.0156-0.0781 0-0.10938 0.0625l-0.25 0.5c-0.0625 0.15625-0.0625 0.28125-0.0312 0.42188 0.0469 0.125 0.0937 0.34375 0.17187 0.60937 0.0625 0.28125 0.28125 1.4688 0.67188 3.5469 0.39062 2.0938 0.54687 3.2969 0.48437 3.6094-0.53125 0.375-2.0938 0.53125-4.6562 0.48437-0.84375-0.0156-1.4219-0.0781-1.7812-0.21875-0.0625-0.0156-0.0937 0-0.0937 0.0625-0.0156 0.21875-0.0156 0.59375 0.0312 1.1406 0.0156 0.0625 0.0312 0.10937 0.0937 0.125 0.5625 0.0937 1.2656 0.14062 2.0469 0.15625 2.7656 0.0469 4.2656-0.17188 4.4844-0.65625 0.25-0.5625 0.375-1.125 0.39062-1.6719v-0.64062c-0.0156-0.79688-0.32812-2.6875-0.95312-5.7031 0-0.0312 0.0156-0.0625 0.0625-0.14062l0.23437-0.39063c0.0625-0.10937 0.0625-0.1875 0-0.25-0.28125-0.23437-0.51562-0.54687-0.70312-0.9375z" aria-label="ðž¸Š"/>
  <path d="m415.32 133.68c-1.8594-1.5625-2.25-3.0625-2.25-5.5312 0-2.5625 0.40625-3.7969 2.25-5.375l-0.10937-0.21875c-2.125 1.2656-3.2812 3.1875-3.2812 5.6406 0 2.25 1.1406 4.5 3.2344 5.6875zm-5.3164-2.7031c0-0.39063-0.32813-0.71875-0.70313-0.71875-0.40625 0-0.70312 0.3125-0.70312 0.70312 0 0.40625 0.28125 0.70313 0.6875 0.70313s0.71875-0.29688 0.71875-0.6875zm-0.8125-1.7812h0.1875l0.59375-5.0469c0.0156-0.15625 0.0312-0.35937 0.0312-0.51562 0-0.64063-0.26563-1.0781-0.70313-1.0781-0.51562 0-0.70312 0.4375-0.70312 1.0156 0 0.14062 0 0.3125 0.0312 0.57812z" aria-label="(!"/>
  <path d="m397.27 136.53v0.875h48.828v-0.875z" color="#000000" stroke-miterlimit="10" style="-inkscape-stroke:none"/>
  <path d="m440.14 144.65-0.32813 1.3594c-0.0312 0.17187 0.0156 0.375 0.17188 0.625 1.0469 1.6562 1.6719 3.625 1.8125 5.9062 0.0156 0.0937 0.0312 0.14062 0.0937 0.20312 0.0469 0.0469 0.10937 0.0469 0.1875 0.0312 0.0781-0.0312 0.125-0.0937 0.14062-0.1875 0.25-1.3125 0.10938-3.0156-0.45312-5.1094 1.0469 0.17187 1.8125-0.0625 2.25-0.71875 0.28125-0.375 0.45312-0.8125 0.53125-1.3281 0.0781-0.5 0.10937-0.8125 0.0781-0.90625-0.0469-0.0781-0.10937-0.14062-0.23437-0.14062-0.14063 0-0.21875 0.0781-0.23438 0.23437-0.10937 0.9375-0.6875 1.4062-1.7344 1.4062-0.73438 0-1.3125-0.42187-1.75-1.25-0.26563-0.48437-0.4375-0.51562-0.53125-0.125z" aria-label="Ù¢"/>
  <path d="m433.86 142.74-0.25 1.0156c-0.0156 0.125 0.0156 0.28125 0.14062 0.46875 0.78125 1.2344 1.25 2.7188 1.3594 4.4375 0 0.0625 0.0156 0.10938 0.0625 0.14063 0.0469 0.0469 0.0781 0.0469 0.14062 0.0156 0.0625-0.0156 0.0937-0.0469 0.10938-0.125 0.1875-0.98437 0.0781-2.2656-0.34375-3.8438 0.79687 0.14063 1.3594-0.0469 1.6875-0.53125 0.20312-0.28125 0.34375-0.625 0.40625-1 0.0469-0.375 0.0781-0.60937 0.0469-0.67187-0.0312-0.0781-0.0781-0.10938-0.17187-0.10938-0.0937 0-0.15625 0.0625-0.17188 0.17188-0.0937 0.70312-0.51562 1.0469-1.2969 1.0469-0.5625 0-1-0.29687-1.3281-0.9375-0.1875-0.35937-0.3125-0.39062-0.39062-0.0781z" aria-label="Ù¢"/>
  <path d="m428.89 142.2c-0.54687 0.14062-0.92187 0.64062-1.1094 1.4688-0.0312 0.10937 0.0156 0.21875 0.0937 0.32812 0.0937 0.0937 0.21875 0.15625 0.375 0.1875l0.29687 0.0781c0.0312 0 0.0625 0.0156 0.0781 0.0469 0 0.0312 0 0.0625-0.0312 0.0781-0.10938 0.0469-0.4375 0.0937-0.96875 0.10937-0.28125 0-0.5 0.0156-0.67188 0.0156-0.0625 0-0.0937 0.0312-0.0937 0.0937s0.0312 0.10937 0.10938 0.125c0.1875 0.0937 0.46875 0.14062 0.79687 0.17187 0.32813 0.0312 0.5625 0.0469 0.6875 0 0.14063-0.0312 0.28125-0.15625 0.42188-0.35937 0.46875-0.65625 0.48437-1.0156 0.0156-1.0781-0.1875-0.0312-0.34375-0.0781-0.48437-0.125-0.14063-0.0625-0.20313-0.10937-0.15625-0.15625 0.0625-0.0937 0.20312-0.17187 0.39062-0.20312 0.0312-0.0156 0.0781-0.0625 0.10938-0.14063l0.20312-0.53125c0.0156-0.0312 0.0156-0.0469 0-0.0781 0-0.0156-0.0312-0.0312-0.0625-0.0312zm2.0156-2.0781c-0.0312-0.0469-0.0469-0.0781-0.0781-0.0937-0.0312 0-0.0625 0.0156-0.0781 0.0625l-0.1875 0.375c-0.0469 0.10938-0.0469 0.20313-0.0156 0.3125 0.0312 0.0937 0.0625 0.25 0.10938 0.46875 0.0625 0.20313 0.21875 1.0938 0.51562 2.6562 0.28125 1.5625 0.40625 2.4688 0.375 2.7031-0.42187 0.28125-1.5781 0.39062-3.5 0.35937-0.64062 0-1.0781-0.0469-1.3438-0.15625-0.0469-0.0156-0.0625 0-0.0625 0.0469-0.0156 0.15625-0.0156 0.4375 0.0156 0.85937 0.0156 0.0469 0.0312 0.0781 0.0625 0.0781 0.4375 0.0781 0.95312 0.10937 1.5469 0.125 2.0781 0.0312 3.2031-0.125 3.3594-0.48438 0.1875-0.4375 0.28125-0.84375 0.29687-1.2656v-0.48438c-0.0156-0.59375-0.25-2.0156-0.71875-4.2812 0-0.0156 0.0156-0.0469 0.0469-0.0937l0.1875-0.29688c0.0469-0.0781 0.0469-0.14062 0-0.1875-0.21875-0.17188-0.39063-0.40625-0.53125-0.70313z" aria-label="ðž¸Š"/>
  <path d="m421.47 142.81c1.9219 1.5156 2.25 3.0469 2.25 5.5312 0 2.5625-0.375 3.8125-2.25 5.375l0.10937 0.20313c2.1094-1.2812 3.2812-3.1719 3.2812-5.625 0-2.25-1.2031-4.4688-3.2344-5.7031z" aria-label=")"/>
  <path d="m416.28 143.95c-0.73438 0.20312-1.2344 0.84375-1.4844 1.9688-0.0469 0.14062 0.0156 0.29687 0.125 0.42187 0.125 0.14063 0.28125 0.23438 0.5 0.26563l0.39063 0.0937c0.0469 0.0156 0.0781 0.0312 0.0937 0.0625 0.0156 0.0469 0.0156 0.0781-0.0156 0.0937-0.15625 0.0781-0.59375 0.14062-1.3125 0.15625-0.35937 0-0.65625 0.0156-0.89062 0.0312-0.0937 0-0.125 0.0469-0.125 0.125s0.0469 0.125 0.14062 0.17187c0.26563 0.10938 0.625 0.1875 1.0625 0.21875 0.4375 0.0469 0.76563 0.0625 0.9375 0 0.17188-0.0469 0.35938-0.20312 0.54688-0.46875 0.625-0.875 0.64062-1.3594 0.0312-1.4531-0.26563-0.0469-0.46875-0.0937-0.65625-0.17188-0.1875-0.0781-0.26563-0.14062-0.20313-0.20312 0.0937-0.125 0.26563-0.21875 0.51563-0.28125 0.0469 0 0.10937-0.0625 0.14062-0.1875l0.28125-0.70313c0.0156-0.0312 0.0156-0.0625 0-0.0937-0.0156-0.0156-0.0312-0.0469-0.0781-0.0469zm2.6719-2.7656c-0.0312-0.0625-0.0469-0.10937-0.0937-0.10937-0.0469-0.0156-0.0781 0-0.10937 0.0625l-0.25 0.5c-0.0625 0.15625-0.0625 0.28125-0.0312 0.42188 0.0469 0.125 0.0937 0.34375 0.17187 0.60937 0.0625 0.28125 0.28125 1.4688 0.67188 3.5469 0.39062 2.0938 0.54687 3.2969 0.48437 3.6094-0.53125 0.375-2.0938 0.53125-4.6562 0.48437-0.84375-0.0156-1.4219-0.0781-1.7812-0.21875-0.0625-0.0156-0.0937 0-0.0937 0.0625-0.0156 0.21875-0.0156 0.59375 0.0312 1.1406 0.0156 0.0625 0.0312 0.10937 0.0937 0.125 0.5625 0.0937 1.2656 0.14062 2.0469 0.15625 2.7656 0.0469 4.2656-0.17188 4.4844-0.65625 0.25-0.5625 0.375-1.125 0.39063-1.6719v-0.64062c-0.0156-0.79688-0.32813-2.6875-0.95313-5.7031 0-0.0312 0.0156-0.0625 0.0625-0.14063l0.23438-0.39062c0.0625-0.10938 0.0625-0.1875 0-0.25-0.28125-0.23438-0.51563-0.54688-0.70313-0.9375z" aria-label="ðž¸Š"/>
  <path d="m411.2 151.01c0-0.39063-0.32813-0.71875-0.70313-0.71875-0.40625 0-0.70312 0.3125-0.70312 0.70312 0 0.40625 0.28125 0.70313 0.6875 0.70313s0.71875-0.29688 0.71875-0.6875zm-0.8125-1.7812h0.1875l0.59375-5.0469c0.0156-0.15625 0.0312-0.35937 0.0312-0.51562 0-0.64063-0.26563-1.0781-0.70313-1.0781-0.51562 0-0.70312 0.4375-0.70312 1.0156 0 0.14062 0 0.3125 0.0312 0.57812zm-2.7227 4.4844c-1.8594-1.5625-2.25-3.0625-2.25-5.5312 0-2.5625 0.40625-3.7969 2.25-5.375l-0.10937-0.21875c-2.125 1.2656-3.2812 3.1875-3.2812 5.6406 0 2.25 1.1406 4.5 3.2344 5.6875z" aria-label="!("/>
  <path d="m399.17 142.74-0.25 1.0156c-0.0156 0.125 0.0156 0.28125 0.14063 0.46875 0.78125 1.2344 1.25 2.7188 1.3594 4.4375 0 0.0625 0.0156 0.10938 0.0625 0.14063 0.0469 0.0469 0.0781 0.0469 0.14063 0.0156 0.0625-0.0156 0.0937-0.0469 0.10937-0.125 0.1875-0.98437 0.0781-2.2656-0.34375-3.8438 0.79688 0.14063 1.3594-0.0469 1.6875-0.53125 0.20313-0.28125 0.34375-0.625 0.40625-1 0.0469-0.375 0.0781-0.60937 0.0469-0.67187-0.0312-0.0781-0.0781-0.10938-0.17188-0.10938-0.0937 0-0.15625 0.0625-0.17187 0.17188-0.0937 0.70312-0.51563 1.0469-1.2969 1.0469-0.5625 0-1-0.29687-1.3281-0.9375-0.1875-0.35937-0.3125-0.39062-0.39063-0.0781z" aria-label="Ù¢"/>
  <path d="m373.89 125.63-0.45312 1.3281c-0.0625 0.17187-0.0156 0.40625 0.125 0.67187 0.9375 1.6719 1.4062 3.6406 1.375 5.9062 0 0.15625 0.0625 0.25 0.17187 0.26563 0.125 0.0312 0.20313-0.0156 0.25-0.17188 0.3125-0.90625 0.35938-2.2344 0.10938-3.9375-0.17188-1.2344-0.53125-2.5-1.0469-3.8281-0.21875-0.53125-0.40625-0.60938-0.53125-0.23438z" aria-label="Ù¡"/>
  <path d="m354.94 136.53v0.875h39.141v-0.875z" color="#000000" stroke-miterlimit="10" style="-inkscape-stroke:none"/>
  <path d="m388.12 143.63-0.32812 1.3594c-0.0312 0.17187 0.0156 0.375 0.17187 0.625 1.0469 1.6562 1.6719 3.625 1.8125 5.9062 0.0156 0.0937 0.0312 0.14063 0.0937 0.20313 0.0469 0.0469 0.10938 0.0469 0.1875 0.0312 0.0781-0.0312 0.125-0.0937 0.14063-0.1875 0.25-1.3125 0.10937-3.0156-0.45313-5.1094 1.0469 0.17187 1.8125-0.0625 2.25-0.71875 0.28125-0.375 0.45313-0.8125 0.53125-1.3281 0.0781-0.5 0.10938-0.8125 0.0781-0.90625-0.0469-0.0781-0.10938-0.14062-0.23438-0.14062-0.14062 0-0.21875 0.0781-0.23437 0.23437-0.10938 0.9375-0.6875 1.4062-1.7344 1.4062-0.73437 0-1.3125-0.42187-1.75-1.25-0.26562-0.48437-0.4375-0.51562-0.53125-0.125z" aria-label="Ù¢"/>
  <path d="m381.51 142.93c-0.73437 0.20312-1.2344 0.84375-1.4844 1.9688-0.0469 0.14062 0.0156 0.29687 0.125 0.42187 0.125 0.14063 0.28125 0.23438 0.5 0.26563l0.39062 0.0937c0.0469 0.0156 0.0781 0.0312 0.0937 0.0625 0.0156 0.0469 0.0156 0.0781-0.0156 0.0937-0.15625 0.0781-0.59375 0.14063-1.3125 0.15625-0.35938 0-0.65625 0.0156-0.89063 0.0312-0.0937 0-0.125 0.0469-0.125 0.125s0.0469 0.125 0.14063 0.17188c0.26562 0.10937 0.625 0.1875 1.0625 0.21875 0.4375 0.0469 0.76562 0.0625 0.9375 0 0.17187-0.0469 0.35937-0.20313 0.54687-0.46875 0.625-0.875 0.64063-1.3594 0.0312-1.4531-0.26562-0.0469-0.46875-0.0937-0.65625-0.17187-0.1875-0.0781-0.26562-0.14062-0.20312-0.20312 0.0937-0.125 0.26562-0.21875 0.51562-0.28125 0.0469 0 0.10938-0.0625 0.14063-0.1875l0.28125-0.70313c0.0156-0.0312 0.0156-0.0625 0-0.0937-0.0156-0.0156-0.0312-0.0469-0.0781-0.0469zm2.6719-2.7656c-0.0312-0.0625-0.0469-0.10937-0.0937-0.10937-0.0469-0.0156-0.0781 0-0.10938 0.0625l-0.25 0.5c-0.0625 0.15625-0.0625 0.28125-0.0312 0.42187 0.0469 0.125 0.0937 0.34375 0.17188 0.60938 0.0625 0.28125 0.28125 1.4688 0.67187 3.5469 0.39063 2.0938 0.54688 3.2969 0.48438 3.6094-0.53125 0.375-2.0938 0.53126-4.6562 0.48438-0.84375-0.0156-1.4219-0.0781-1.7812-0.21875-0.0625-0.0156-0.0937 0-0.0937 0.0625-0.0156 0.21875-0.0156 0.59375 0.0312 1.1406 0.0156 0.0625 0.0312 0.10937 0.0937 0.125 0.5625 0.0937 1.2656 0.14062 2.0469 0.15624 2.7656 0.0469 4.2656-0.17187 4.4844-0.65624 0.25-0.5625 0.375-1.125 0.39062-1.6719v-0.64062c-0.0156-0.79688-0.32812-2.6875-0.95312-5.7031 0-0.0312 0.0156-0.0625 0.0625-0.14062l0.23437-0.39063c0.0625-0.10937 0.0625-0.1875 0-0.25-0.28125-0.23437-0.51562-0.54687-0.70312-0.9375z" aria-label="ðž¸Š"/>
  <path d="m374.11 147.63v-0.875h-3.4688v-3.4688h-0.875v3.4688h-3.4688v0.875h3.4688v3.4688h0.875v-3.4688zm-15.906-4.0312-0.45313 1.3281c-0.0625 0.17187-0.0156 0.40625 0.125 0.67187 0.9375 1.6719 1.4062 3.6406 1.375 5.9062 0 0.15625 0.0625 0.25 0.17188 0.26562 0.125 0.0312 0.20312-0.0156 0.25-0.17187 0.3125-0.90625 0.35937-2.2344 0.10937-3.9375-0.17187-1.2344-0.53125-2.5-1.0469-3.8281-0.21875-0.53125-0.40625-0.60938-0.53125-0.23438z" aria-label="+Ù¡"/>
  <path d="m349.01 138.69v-0.875h-7.8125v0.875zm0-2.6562v-0.875h-7.8125v0.875z" aria-label="="/>
  <path d="m327.02 121.22c-0.26563 0.34375-0.75 0.95313-1.625 0.95313-0.89063 0-1.3906-0.82813-1.3906-1.6719 0-0.64062 0.4375-1.1875 1-1.1875 0.67188 0 1.2969 0.6875 2.0156 1.875zm0.65625-0.64062c0.29687-0.42188 0.67187-1.0156 1.5625-1.0156 0.875 0 1.3906 0.76563 1.3906 1.6719 0 0.64062-0.4375 1.1875-1 1.1875-0.6875 0-1.2344-0.625-1.9531-1.8125zm3.5469 0.21875c0-1.3281-0.92187-2.0625-1.8125-2.0625-1.0156 0-1.4688 0.625-1.9219 1.4531-0.95313-1.2656-1.4531-1.4531-2.1719-1.4531-0.57812 0-1.9062 0.45312-1.9062 2.2812 0 1.375 0.89063 2 1.75 2 0.95313 0 1.6406-0.53125 2.0781-1.4531 0.625 0.92188 1.1875 1.4531 2.0156 1.4531 1.25 0 1.9688-1.25 1.9688-2.2188z" aria-label="âˆž"/>
  <path d="m335.64 146.27v-0.5h-0.32813c-1.2344 0-1.8438-0.79688-1.8438-2.3906v-13.625c0-1.5781 0.51563-2.25 2.1719-2.25v-0.5h-16.656v0.5h0.3125c1.1562 0 1.875 0.48438 1.875 2.3281v13.891c0 1.3594-0.59375 2.0469-1.8438 2.0469h-0.34375v0.5h6.8281v-0.5h-0.5625c-1.2188 0-1.6562-0.78125-1.6562-2.5156v-15.062h7.4375v15.062c0 1.4375-0.34375 2.5156-1.6406 2.5156h-0.57813v0.5z" aria-label="âˆ"/>
  <path d="m333.26 151.09c-0.54688 0.14062-0.92188 0.64062-1.1094 1.4688-0.0312 0.10937 0.0156 0.21875 0.0937 0.32812 0.0937 0.0937 0.21875 0.15625 0.375 0.1875l0.29688 0.0781c0.0312 0 0.0625 0.0156 0.0781 0.0469 0 0.0312 0 0.0625-0.0312 0.0781-0.10937 0.0469-0.4375 0.0937-0.96875 0.10937-0.28125 0-0.5 0.0156-0.67187 0.0156-0.0625 0-0.0937 0.0312-0.0937 0.0937s0.0312 0.10937 0.10938 0.125c0.1875 0.0937 0.46874 0.14062 0.79687 0.17187 0.32812 0.0312 0.5625 0.0469 0.6875 0 0.14062-0.0312 0.28125-0.15625 0.42187-0.35937 0.46875-0.65625 0.48438-1.0156 0.0156-1.0781-0.1875-0.0312-0.34375-0.0781-0.48437-0.125-0.14063-0.0625-0.20313-0.10937-0.15625-0.15625 0.0625-0.0937 0.20312-0.17187 0.39062-0.20312 0.0312-0.0156 0.0781-0.0625 0.10937-0.14063l0.20313-0.53125c0.0156-0.0312 0.0156-0.0469 0-0.0781 0-0.0156-0.0312-0.0312-0.0625-0.0312zm2.0156-2.0781c-0.0312-0.0469-0.0469-0.0781-0.0781-0.0937-0.0312 0-0.0625 0.0156-0.0781 0.0625l-0.1875 0.375c-0.0469 0.10938-0.0469 0.20313-0.0156 0.3125 0.0312 0.0937 0.0625 0.25 0.10937 0.46875 0.0625 0.20313 0.21875 1.0938 0.51563 2.6562 0.28125 1.5625 0.40625 2.4688 0.375 2.7031-0.42188 0.28125-1.5781 0.39062-3.5 0.35937-0.64063 0-1.0781-0.0469-1.3438-0.15625-0.0469-0.0156-0.0625 0-0.0625 0.0469-0.0156 0.15625-0.0156 0.4375 0.0156 0.85937 0.0156 0.0469 0.0312 0.0781 0.0625 0.0781 0.4375 0.0781 0.95313 0.10937 1.5469 0.125 2.0781 0.0312 3.2031-0.125 3.3594-0.48438 0.1875-0.4375 0.28125-0.84375 0.29688-1.2656v-0.48438c-0.0156-0.59375-0.25-2.0156-0.71875-4.2812 0-0.0156 0.0156-0.0469 0.0469-0.0937l0.1875-0.29687c0.0469-0.0781 0.0469-0.14063 0-0.1875-0.21875-0.17188-0.39062-0.40625-0.53125-0.70313z" aria-label="ðž¸Š"/>
  <path d="m329.94 155.61v-0.65625h-5.8594v0.65625zm0-1.9844v-0.65625h-5.8594v0.65625zm-9.7188-2.0312-0.34375 0.98437c-0.0469 0.14063-0.0156 0.3125 0.0937 0.51563 0.70313 1.25 1.0625 2.7344 1.0312 4.4375 0 0.125 0.0469 0.17187 0.14063 0.20312 0.0781 0.0156 0.14062-0.0312 0.17187-0.14062 0.23438-0.6875 0.26563-1.6719 0.0937-2.9531-0.125-0.92187-0.40625-1.875-0.79688-2.875-0.15625-0.39062-0.29687-0.45312-0.39062-0.17187z" aria-label="=Ù¡"/>
  <path d="m298.68 125.38c-0.60938 0.60938-1.0469 1.2031-1.3125 1.7656l-0.42188 0.90625c-0.20312 0.4375-0.17187 0.73437 0.0781 0.90625 0.48437 0.32812 0.95312 0.57812 1.4375 0.75-0.6875 0.60937-1.0781 1.0625-1.1719 1.4062l-0.29687 1.0938c-0.0937 0.32812-0.0469 0.5625 0.125 0.6875 0.76562 0.53125 1.6875 0.85937 2.7344 0.96875 0.14063 0.0156 0.25-0.0312 0.3125-0.17188l0.375-0.90625c0.0937-0.25 0.0312-0.375-0.21875-0.40625-0.8125-0.0937-1.5781-0.375-2.3125-0.84375-0.23437-0.15625-0.23437-0.32812-0.0625-0.54687 0.29688-0.34375 0.70313-0.6875 1.2188-1.0312 0.14063-0.0937 0.26563-0.25 0.35938-0.45313l0.23437-0.51562c0.125-0.26563 0.0625-0.4375-0.14062-0.48438-0.51563-0.125-1.0781-0.375-1.6719-0.75-0.17187-0.125-0.20312-0.25-0.14062-0.39062 0.10937-0.21875 0.40625-0.40625 0.92187-0.57813 0.10938-0.0469 0.1875-0.10937 0.20313-0.1875l0.23437-1c0.0156-0.0781 0-0.15625-0.0625-0.21875-0.0469-0.0469-0.10937-0.0781-0.20312-0.0781-0.0937 0-0.15625 0.0312-0.21875 0.0781z" aria-label="Ù¤"/>
  <path d="m290 124.96c-0.73437 0.20312-1.2344 0.84375-1.4844 1.9688-0.0469 0.14062 0.0156 0.29687 0.125 0.42187 0.125 0.14063 0.28125 0.23438 0.5 0.26563l0.39062 0.0937c0.0469 0.0156 0.0781 0.0312 0.0937 0.0625 0.0156 0.0469 0.0156 0.0781-0.0156 0.0937-0.15625 0.0781-0.59375 0.14062-1.3125 0.15625-0.35937 0-0.65625 0.0156-0.89062 0.0312-0.0937 0-0.125 0.0469-0.125 0.125s0.0469 0.125 0.14062 0.17187c0.26563 0.10938 0.625 0.1875 1.0625 0.21875 0.4375 0.0469 0.76563 0.0625 0.9375 0 0.17188-0.0469 0.35938-0.20312 0.54688-0.46875 0.625-0.875 0.64062-1.3594 0.0312-1.4531-0.26563-0.0469-0.46875-0.0937-0.65625-0.17188-0.1875-0.0781-0.26563-0.14062-0.20313-0.20312 0.0937-0.125 0.26563-0.21875 0.51563-0.28125 0.0469 0 0.10937-0.0625 0.14062-0.1875l0.28125-0.70313c0.0156-0.0312 0.0156-0.0625 0-0.0937-0.0156-0.0156-0.0312-0.0469-0.0781-0.0469zm2.6719-2.7656c-0.0312-0.0625-0.0469-0.10937-0.0937-0.10937-0.0469-0.0156-0.0781 0-0.10938 0.0625l-0.25 0.5c-0.0625 0.15625-0.0625 0.28125-0.0312 0.42187 0.0469 0.125 0.0937 0.34375 0.17188 0.60938 0.0625 0.28125 0.28125 1.4688 0.67187 3.5469 0.39063 2.0938 0.54688 3.2969 0.48438 3.6094-0.53125 0.375-2.0938 0.53125-4.6562 0.48437-0.84375-0.0156-1.4219-0.0781-1.7812-0.21875-0.0625-0.0156-0.0937 0-0.0937 0.0625-0.0156 0.21875-0.0156 0.59375 0.0312 1.1406 0.0156 0.0625 0.0312 0.10937 0.0937 0.125 0.5625 0.0937 1.2656 0.14062 2.0469 0.15625 2.7656 0.0469 4.2656-0.17188 4.4844-0.65625 0.25-0.5625 0.375-1.125 0.39062-1.6719v-0.64062c-0.0156-0.79688-0.32812-2.6875-0.95312-5.7031 0-0.0312 0.0156-0.0625 0.0625-0.14062l0.23437-0.39063c0.0625-0.10937 0.0625-0.1875 0-0.25-0.28125-0.23437-0.51562-0.54687-0.70312-0.9375z" aria-label="ðž¸Š"/>
  <path d="m281.74 122.08-0.25 1.0156c-0.0156 0.125 0.0156 0.28125 0.14062 0.46875 0.78125 1.2344 1.25 2.7188 1.3594 4.4375 0 0.0625 0.0156 0.10937 0.0625 0.14062 0.0469 0.0469 0.0781 0.0469 0.14062 0.0156 0.0625-0.0156 0.0937-0.0469 0.10937-0.125 0.1875-0.98438 0.0781-2.2656-0.34374-3.8438 0.79687 0.14062 1.3594-0.0469 1.6875-0.53125 0.20313-0.28125 0.34375-0.625 0.40625-1 0.0469-0.375 0.0781-0.60938 0.0469-0.67188-0.0312-0.0781-0.0781-0.10937-0.17188-0.10937-0.0937 0-0.15625 0.0625-0.17187 0.17187-0.0937 0.70313-0.51563 1.0469-1.2969 1.0469-0.5625 0-1-0.29688-1.3281-0.9375-0.1875-0.35938-0.3125-0.39063-0.39062-0.0781z" aria-label="Ù¢"/>
  <path d="m268.45 136.53v0.875h45.512v-0.875z" color="#000000" stroke-miterlimit="10" style="-inkscape-stroke:none"/>
  <path d="m310.06 143.35c-0.60938 0.60938-1.0469 1.2031-1.3125 1.7656l-0.42188 0.90625c-0.20312 0.4375-0.17187 0.73437 0.0781 0.90625 0.48437 0.32812 0.95312 0.57812 1.4375 0.75-0.6875 0.60937-1.0781 1.0625-1.1719 1.4062l-0.29687 1.0938c-0.0937 0.32812-0.0469 0.56249 0.125 0.68749 0.76562 0.53125 1.6875 0.85938 2.7344 0.96875 0.14063 0.0156 0.25-0.0312 0.3125-0.17187l0.375-0.90625c0.0937-0.25 0.0312-0.375-0.21875-0.40625-0.8125-0.0937-1.5781-0.375-2.3125-0.84375-0.23437-0.15625-0.23437-0.32813-0.0625-0.54688 0.29688-0.34375 0.70313-0.6875 1.2188-1.0312 0.14063-0.0937 0.26563-0.24999 0.35938-0.45312l0.23437-0.51562c0.125-0.26563 0.0625-0.4375-0.14062-0.48438-0.51563-0.125-1.0781-0.375-1.6719-0.75-0.17187-0.125-0.20312-0.25-0.14062-0.39062 0.10937-0.21875 0.40625-0.40625 0.92187-0.57813 0.10938-0.0469 0.1875-0.10937 0.20313-0.1875l0.23437-1c0.0156-0.0781 0-0.15625-0.0625-0.21875-0.0469-0.0469-0.10937-0.0781-0.20312-0.0781-0.0937 0-0.15625 0.0312-0.21875 0.0781z" aria-label="Ù¤"/>
  <path d="m301.39 142.93c-0.73437 0.20312-1.2344 0.84375-1.4844 1.9688-0.0469 0.14062 0.0156 0.29687 0.125 0.42187 0.125 0.14063 0.28125 0.23438 0.5 0.26563l0.39062 0.0937c0.0469 0.0156 0.0781 0.0312 0.0937 0.0625 0.0156 0.0469 0.0156 0.0781-0.0156 0.0937-0.15625 0.0781-0.59375 0.14063-1.3125 0.15625-0.35938 0-0.65625 0.0156-0.89063 0.0312-0.0937 0-0.125 0.0469-0.125 0.125s0.0469 0.125 0.14063 0.17188c0.26562 0.10937 0.625 0.1875 1.0625 0.21875 0.4375 0.0469 0.76562 0.0625 0.9375 0 0.17187-0.0469 0.35937-0.20313 0.54687-0.46875 0.625-0.875 0.64063-1.3594 0.0312-1.4531-0.26562-0.0469-0.46875-0.0937-0.65625-0.17187-0.1875-0.0781-0.26562-0.14063-0.20312-0.20313 0.0937-0.125 0.26562-0.21875 0.51562-0.28125 0.0469 0 0.10938-0.0625 0.14063-0.1875l0.28125-0.70312c0.0156-0.0312 0.0156-0.0625 0-0.0937-0.0156-0.0156-0.0312-0.0469-0.0781-0.0469zm2.6719-2.7656c-0.0312-0.0625-0.0469-0.10937-0.0937-0.10937-0.0469-0.0156-0.0781 0-0.10938 0.0625l-0.25 0.5c-0.0625 0.15625-0.0625 0.28125-0.0312 0.42187 0.0469 0.125 0.0937 0.34375 0.17188 0.60938 0.0625 0.28125 0.28125 1.4688 0.67187 3.5469 0.39063 2.0938 0.54688 3.2969 0.48438 3.6094-0.53125 0.375-2.0938 0.53126-4.6562 0.48438-0.84375-0.0156-1.4219-0.0781-1.7812-0.21875-0.0625-0.0156-0.0937 0-0.0937 0.0625-0.0156 0.21875-0.0156 0.59375 0.0312 1.1406 0.0156 0.0625 0.0312 0.10937 0.0937 0.125 0.5625 0.0937 1.2656 0.14062 2.0469 0.15624 2.7656 0.0469 4.2656-0.17187 4.4844-0.65624 0.25-0.5625 0.375-1.125 0.39062-1.6719v-0.64062c-0.0156-0.79688-0.32812-2.6875-0.95312-5.7031 0-0.0312 0.0156-0.0625 0.0625-0.14062l0.23437-0.39063c0.0625-0.10937 0.0625-0.1875 0-0.25-0.28125-0.23437-0.51562-0.54687-0.70312-0.9375z" aria-label="ðž¸Š"/>
  <path d="m293.13 141.72-0.25 1.0156c-0.0156 0.125 0.0156 0.28125 0.14062 0.46875 0.78125 1.2344 1.25 2.7188 1.3594 4.4375 0 0.0625 0.0156 0.10937 0.0625 0.14062 0.0469 0.0469 0.0781 0.0469 0.14062 0.0156 0.0625-0.0156 0.0937-0.0469 0.10938-0.125 0.1875-0.98438 0.0781-2.2656-0.34375-3.8438 0.79687 0.14062 1.3594-0.0469 1.6875-0.53125 0.20312-0.28125 0.34375-0.625 0.40625-1 0.0469-0.375 0.0781-0.60938 0.0469-0.67188-0.0312-0.0781-0.0781-0.10937-0.17187-0.10937-0.0937 0-0.15625 0.0625-0.17188 0.17187-0.0937 0.70313-0.51562 1.0469-1.2969 1.0469-0.5625 0-1-0.29688-1.3281-0.9375-0.1875-0.35938-0.3125-0.39063-0.39062-0.0781z" aria-label="Ù¢"/>
  <path d="m287.42 147.63v-0.875h-7.4062v0.875zm-15.703-4.0312-0.45313 1.3281c-0.0625 0.17187-0.0156 0.40625 0.125 0.67187 0.9375 1.6719 1.4062 3.6406 1.375 5.9062 0 0.15625 0.0625 0.25 0.17188 0.26562 0.125 0.0312 0.20312-0.0156 0.25-0.17187 0.3125-0.90625 0.35937-2.2344 0.10937-3.9375-0.17187-1.2344-0.53125-2.5-1.0469-3.8281-0.21875-0.53125-0.40625-0.60938-0.53125-0.23438z" aria-label="âˆ’Ù¡"/>
  <path d="m262.52 138.69v-0.875h-7.8125v0.875zm0-2.6562v-0.875h-7.8125v0.875z" aria-label="="/>
  <path d="m242.16 123.66c-0.0156 0.0625-0.0156 0.15625 0 0.23438 0.0312 0.0781 0.0937 0.5 0.17188 1.2656 0.0937 0.75 0.1875 1.6406 0.28125 2.6406 0.0937 1 0.125 1.9688 0.0781 2.875l-0.875 0.875c-1.0469 0.0625-1.875 0.0625-2.5156-0.0312-0.15625-0.0156-0.17188 0.0781-0.0625 0.29687 0.125 0.20313 0.35937 0.42188 0.67187 0.65625 0.3125 0.25 0.75 0.40625 1.2344 0.48438 1.3281-0.0625 2.5938-0.29688 3.8125-0.67188s1.9375-0.67187 2.1562-0.90625c0.15625-0.14062 0.34375-0.4375 0.57812-0.89062 0.23438-0.45313 0.34375-0.82813 0.3125-1.0938-0.0156-0.26563-0.28125-0.5625-0.76562-0.85938-0.21875-0.14062-0.42188-0.1875-0.60938-0.17187-0.34375 0.0312-0.75 0.1875-1.2188 0.39062-0.46875 0.21875-1.2344 0.75-2.3438 1.6094 0.0625-0.21875 0.0937-0.65625 0.14063-1.3125 0.0312-0.65625-0.0469-2.0469-0.25-4.1875 0-0.0781 0.0156-0.15625 0.0781-0.21875l0.25-0.34375c0.0625-0.0937 0.0625-0.17188 0-0.26563-0.17187-0.20312-0.29687-0.35937-0.35937-0.48437-0.0625-0.14063-0.14063-0.3125-0.23438-0.5625-0.0156-0.0312-0.0469-0.0781-0.0937-0.0781-0.0625 0-0.10937 0.0312-0.14062 0.0625-0.0312 0.0469-0.125 0.26563-0.29688 0.6875zm2.8438 6.2188c1.0156-0.3125 1.6719-0.17187 1.9688 0.40625-1.0938 0.5625-2.5469 0.96875-4.375 1.1719 0.98438-0.875 1.7812-1.3906 2.4062-1.5781z" aria-label="ðž¸ˆ"/>
  <path d="m238.39 136.53v0.875h10.389v-0.875z" color="#000000" stroke-miterlimit="10" style="-inkscape-stroke:none"/>
  <path d="m241.51 142.66-0.32813 1.3594c-0.0312 0.17187 0.0156 0.375 0.17188 0.625 1.0469 1.6562 1.6719 3.625 1.8125 5.9062 0.0156 0.0937 0.0312 0.14062 0.0937 0.20312 0.0469 0.0469 0.10937 0.0469 0.1875 0.0312 0.0781-0.0312 0.125-0.0937 0.14062-0.1875 0.25-1.3125 0.10938-3.0156-0.45312-5.1094 1.0469 0.17187 1.8125-0.0625 2.25-0.71875 0.28125-0.375 0.45312-0.8125 0.53125-1.3281 0.0781-0.5 0.10937-0.8125 0.0781-0.90625-0.0469-0.0781-0.10937-0.14062-0.23437-0.14062-0.14063 0-0.21875 0.0781-0.23438 0.23437-0.10937 0.9375-0.6875 1.4062-1.7344 1.4062-0.73438 0-1.3125-0.42187-1.75-1.25-0.26563-0.48437-0.4375-0.51562-0.53125-0.125z" aria-label="Ù¢"/>
 </g>
</svg>
