<svg xmlns="http://www.w3.org/2000/svg" version="1.1" width="128" height="128" viewBox="0 0 512 512">
  <g transform="translate(0,448)">
    <g transform="matrix(1,0,0,-1,-400.90878,41.094064)">
      <path
         d="m 622,310.401 c 24.2988,11.6631 46,27.5986 63,48.5986 0,0 0.93726,14.7657 8,13 8,-2 4.11133,-12.0254 2,-21 -7.32812,-31.1426 -52,-48 -72,-46 -4.97519,0.49752 -5.45996,3.26074 -1,5.40137 z M 659,454 c 4,-14 15,-36 28.9707,-56 2.56836,-3.67676 0.92655,-8.61118 -0.9707,-13 l -6.91667,-16 C 678.66121,365.71028 677.21093,360.06836 678,356 691.8213,284.7432 720,178 708,119 699,87 702.85615,77.3511 686,56 671,37 638.4942,26.6112 613.0367,22.5896 c -10.1192,-1.59856 -7.03668,3.41043 -2.03668,6.41043 22.2198,13.3319 77,57 85,90 -2,88 -41.7408,204.965 -53.0601,305 -0.56941,5.03218 -0.0374,6.97116 1.20432,11 l 5.85575,19 c 2.7934,9.06367 6.78513,7.75205 9,0 z"/>
    </g>
  </g>
</svg>
