<svg xmlns="http://www.w3.org/2000/svg" xmlns:xlink="http://www.w3.org/1999/xlink" width="1440" height="900" viewBox="0 0 1080 675"><defs><path id="a" d="M12.875 0c-.992 0-1.828-.336-2.516-1.016q-1.03-1.03-1.03-2.53 0-1.405 1.03-2.423Q11.39-6.999 12.875-7c.938 0 1.742.344 2.422 1.031q1.03 1.018 1.031 2.422 0 1.5-1.031 2.531C14.617-.336 13.812 0 12.875 0M3.547 0c-1 0-1.844-.336-2.531-1.016C.336-1.703 0-2.546 0-3.546 0-4.485.336-5.29 1.016-5.97Q2.046-6.999 3.546-7 4.952-7 5.97-5.969 6.999-4.95 7-3.547q0 1.5-1.031 2.531C5.289-.336 4.484 0 3.547 0m0 0"/><path id="b" d="M19.234-2.234q-1.876-7.186-5.656-12.688-3.785-5.513-9.844-9.812l2.797-3.735q6.622 4.77 10.875 10.922 4.247 6.16 6.297 14.188ZM3.454 0v-3.36l.75-1.312H28V0Zm4.483-2.234L3.454-3.36a25.4 25.4 0 0 1 3.735-8.172q2.606-3.779 7.468-6.11l2.047 4.297c-2.492 1.18-4.406 2.719-5.75 4.625Q8.95-5.872 7.938-2.234m1.579-17.641c-1.555-1.562-3.125-2.68-4.72-3.36q-2.377-1.03-4.233-.562l-.375-.937c1.863-.688 3.445-1.664 4.75-2.938q1.967-1.92 2.906-4.812l1.015.375q-.457 1.782.563 4.203 1.029 2.424 3.36 4.765Zm0 0"/><path id="c" d="M0 0v-37.328c0-.688-.125-1.617-.375-2.797a10.4 10.4 0 0 0-1.39-3.406q-1.032-1.64-2.907-2.39v-.75q3.362-.373 5.219-1.345c1.25-.656 2.375-1.757 3.375-3.312h.75V0Zm-.937 0v-4.672h5.609V0Zm0 0"/><path id="d" d="M-4.953 11.672v-.75Q-2.61 9.328-1.625 7.5q.97-1.815 1.344-5.172h.75c.5 1.25 1.304 2.211 2.422 2.89 1.125.688 2.273 1.157 3.453 1.407Q8.123 7 9.047 7q4.105 0 6.672-2.39 2.578-2.38 2.578-6.938 0-2.81-.844-4.906-.844-2.093-2.062-3.266-1.206-1.172-2.422-1.172-1.393 0-2.422 1.313Q9.515-9.046 9.328-7h9.985v4.672H6.906q-2.424 0-2.234-2.438.091-2.981 1.062-5.593c.657-1.739 1.602-3.164 2.844-4.282q1.873-1.687 4.39-1.687 2.795 0 5.032 1.875c1.5 1.242 2.695 2.918 3.594 5.031q1.36 3.174 1.36 7.094-.002 4.465-1.86 7.594-1.862 3.139-5 4.765-3.128 1.64-7.047 1.64Zm0 0"/><path id="e" d="M304.172 0v-4.672h5.61V0Zm-6.906 0v-4.672h3.921L305.767 0Zm-287-9.328 2.328-19.984.844.093q1.31 2.532 2.984 3.703c1.125.774 2.742 1.438 4.86 2v.75q-2.05.456-3.266 2c-.813 1.024-1.407 2.094-1.782 3.22q-.549 1.687-.734 2.702l-.469 4.766Zm0 0L13.063-14H303.89l-2.704 4.672ZM305.766 0l-5.422-4.672-.656-4.656L303.89-14ZM0 0v-.75q2.326-1.575 3.313-3.39c.656-1.22 1.109-2.946 1.359-5.188h.734q.748 1.861 2.422 2.89 1.686 1.032 3.406 1.407 1.736.362 2.766.36h284.86L303.515 0Zm0 0"/><path id="f" d="M3.547 0c-1 0-1.844-.336-2.531-1.016C.336-1.703 0-2.546 0-3.546 0-4.485.336-5.29 1.016-5.97Q2.046-6.999 3.546-7 4.952-7 5.97-5.969 6.999-4.95 7-3.547q0 1.5-1.031 2.531C5.289-.336 4.484 0 3.547 0m0 0"/><path id="g" d="M21.75 9.89a229 229 0 0 1-2.86-4.906A124 124 0 0 0 14.923-1.5a68 68 0 0 0-4.844-6.578q-2.611-3.123-5.375-5.078-2.753-1.97-5.453-1.969l-.562-.562Q.282-18.013.75-20.157c.313-1.437.344-2.804.094-4.109l.562-.562a57 57 0 0 1 8.25 7.844A87 87 0 0 1 16.47-7.97c2.02 3.074 3.804 5.95 5.36 8.625a355 355 0 0 1 3.843 6.719ZM-.937 0v-4.672h19.609V0Zm19.14 0v-4.672h7.469V0Zm0 0"/><path id="h" d="M19.313 0v-4.672h5.609V0ZM12.5 5.875A7.83 7.83 0 0 1 8.39 4.75a8.66 8.66 0 0 1-2.984-2.937C4.664.601 4.296-.773 4.296-2.328c0-1.5.368-2.867 1.11-4.11a8.15 8.15 0 0 1 2.985-2.937c1.25-.719 2.617-1.078 4.109-1.078 1.5 0 2.867.36 4.11 1.078a7.7 7.7 0 0 1 2.937 2.938q1.078 1.861 1.078 4.109c0 1.555-.36 2.93-1.078 4.14a8.14 8.14 0 0 1-2.938 2.938C15.367 5.5 14 5.875 12.5 5.875M-.937 0v-4.672H6.53V0ZM12.5 1.219c.938 0 1.742-.344 2.422-1.031q1.03-1.027 1.031-2.516c0-.938-.344-1.742-1.031-2.422Q13.904-5.78 12.5-5.781c-.992 0-1.828.343-2.516 1.031-.687.68-1.03 1.484-1.03 2.422q0 1.489 1.03 2.516 1.03 1.03 2.516 1.03m0 0"/><path id="i" d="M0 0v-37.328c0-.688-.125-1.617-.375-2.797a10.4 10.4 0 0 0-1.39-3.406q-1.032-1.64-2.907-2.39v-.75q3.362-.373 5.219-1.345c1.25-.656 2.375-1.757 3.375-3.312h.75v46.656q3.077.002 3.922-2.797h.734q.375 3.361 1.594 4.766c.812.93 1.836 1.578 3.078 1.953V0Zm0 0"/><path id="k" d="M0 0v-.75q2.326-1.575 3.313-3.39c.656-1.22 1.109-2.946 1.359-5.188h.734q.748 1.861 2.422 2.89 1.686 1.032 3.406 1.407 1.736.362 2.766.36h4.672V0Zm26.5 5.875a7.83 7.83 0 0 1-4.11-1.125 8.66 8.66 0 0 1-2.984-2.937c-.742-1.211-1.11-2.586-1.11-4.141 0-1.5.368-2.867 1.11-4.11a8.15 8.15 0 0 1 2.985-2.937c1.25-.719 2.617-1.078 4.109-1.078 1.5 0 2.867.36 4.11 1.078a7.7 7.7 0 0 1 2.937 2.938q1.078 1.861 1.078 4.109c0 1.555-.36 2.93-1.078 4.14a8.14 8.14 0 0 1-2.938 2.938Q28.748 5.875 26.5 5.875M13.063 0v-4.672h7.468V0ZM26.5 1.219c.938 0 1.742-.344 2.422-1.031q1.03-1.027 1.031-2.516c0-.938-.344-1.742-1.031-2.422Q27.904-5.78 26.5-5.781c-.992 0-1.828.343-2.516 1.031-.687.68-1.03 1.484-1.03 2.422q0 1.489 1.03 2.516 1.03 1.03 2.516 1.03m0 0"/><path id="l" d="M0 0v-37.328c0-.688-.125-1.617-.375-2.797a10.4 10.4 0 0 0-1.39-3.406q-1.032-1.64-2.907-2.39v-.75q3.362-.373 5.219-1.345c1.25-.656 2.375-1.757 3.375-3.312h.75v46.656h4.656V0Zm0 0"/><path id="m" d="M-.937 0v-4.672H292.5V0Zm0 0"/><path id="n" d="M-.937 0v-4.672H15.03q-.937-7.56-2.344-11.515c-.93-2.645-2.171-3.97-3.734-3.97q-.924 0-2.14 1.5-1.22 1.488-1.672 4.563h9.422v4.672H2.328q-1.111 0-1.765-.61-.656-.608-.563-1.827c.125-2.727.617-5.055 1.484-6.985q1.31-2.904 3.313-4.437c1.344-1.032 2.726-1.547 4.156-1.547q2.999 0 4.953 1.922 1.953 1.909 3.172 5.312c.813 2.274 1.445 4.903 1.906 7.89Q19.688-5.231 20.25 0Zm0 0"/><path id="o" d="M-9.328 11.672v-.75C-7.773 9.859-6.672 8.719-6.016 7.5c.649-1.21 1.094-2.934 1.344-5.172h.75q.75 1.873 2.438 2.89c1.117.688 2.257 1.157 3.437 1.407Q3.735 7 4.672 7q4.089-.001 6.75-2.656 2.672-2.66 2.672-6.672 0-3.356-1.5-5.5a11.1 11.1 0 0 0-3.688-3.406Q6.717-12.5 4.672-12.97v-.75q3.263-.841 4.937-2 1.686-1.17 2.891-3.687l.844-.094q1.03 2.05 2.234 4.656 1.219 2.611 2.156 5.75.938 3.128.938 6.766 0 4.013-1.781 7.187c-1.18 2.114-2.828 3.774-4.953 4.985q-3.177 1.828-7.266 1.828Zm0 0"/><path id="p" d="M3.031 0v-2.344H5.75q-1.078-1.483-1.078-3.5-.002-1.763.781-3.062a5.5 5.5 0 0 1 2.125-2.031 5.9 5.9 0 0 1 2.875-.735q1.406.001 2.875.64 1.467.628 2.688 1.97l-.094.28q-.75.188-1.594.798-.843.609-.984 1.312h-.266q-.094-1.359-.875-2.016-.767-.656-1.703-.656-1.439 0-2.469 1.031Q7.001-7.28 7-5.842q0 1.45 1.031 2.482A3.38 3.38 0 0 0 10.5-2.344c.594 0 1.176-.148 1.75-.453q.872-.468 1.328-1.406h.281q.188 1.125.47 1.781.279.644.765 1.094.499.439 1.25.953V0ZM0 0v-.375q.797-.515 1.266-.953.468-.45.75-1.094.28-.656.468-1.781h.266q.516.938 1.36 1.406c.562.305 1.14.453 1.734.453V0Zm0 0"/><path id="q" d="M5.594-1.312 1.125-3.641Q7.56-8.404 11.938-14.28q4.387-5.872 6.953-12.172 2.577-6.31 3.422-12.094.45-3.544-.813-5.125-1.253-1.593-2.828-2.25v-.75c2.238-.25 3.976-.695 5.219-1.344 1.25-.656 2.367-1.757 3.359-3.312H28q0 15.86-5.61 28.469Q16.797-10.264 5.595-1.312M14 9.328 1.125-3.64 5.781-5.5 14 2.703l7.844-7.844 5.125 1.5Zm7.938-11.015q-11.017-9.046-16.485-21.5Q0-35.656 0-51.328h.75c1.05 1.555 2.18 2.656 3.39 3.312 1.22.649 2.946 1.094 5.188 1.344v.75c-1.055.438-2 1.188-2.844 2.25q-1.254 1.581-.796 5.125.841 5.784 3.406 12.094 2.577 6.3 7 12.219Q20.53-8.31 26.969-3.641Zm0 0"/><path id="r" d="M12.078 0a186 186 0 0 0-3.125-17.281A159 159 0 0 0 4-34.406L7.594-36a156 156 0 0 1 5.203 17.531A176 176 0 0 1 16-.797Zm0 0"/><path id="s" d="M20-35.594h4q0 3.44-1.36 6.078-1.36 2.643-3.64 4.078-2.284 1.44-5.078 1.438a9.1 9.1 0 0 1-4.235-1.031 10.1 10.1 0 0 1-3.374-2.813l3.203-2.39q.48 1.03 1.593 1.64c.75.399 1.579.594 2.485.594q1.452 0 2.922-.75 1.482-.762 2.484-2.437.998-1.687 1-4.407M12.078 0a186 186 0 0 0-3.125-17.281A159 159 0 0 0 4-34.406L7.594-36a156 156 0 0 1 5.203 17.531A176 176 0 0 1 16-.797Zm0 0"/><path id="t" d="m-3.125 10.078-1.11-2.234q3.831-1.612 6.267-4.016 2.45-2.393 3.844-5.11C6.813-3.093 7.492-4.8 7.922-6.405l2.312.64q-.72 2.642-2.203 5.641-1.47 3-4.187 5.719C2.03 7.406-.29 8.898-3.125 10.078M8.719-1.594 3.844-4l1.844-4.156 4.546 2.39Zm0 0"/><path id="u" d="M13.594-13.125 8-18.797l5.594-5.687 5.61 5.687Zm0 0"/><path id="v" d="M25.844 0q-2.8-8.076-4.125-16.797-1.313-8.718-1.485-16.562L24-36q.153 8.157 1.39 17.047a89.3 89.3 0 0 0 4.204 17.266Zm-3.047-31.594q-4.642.878-9.406.766A48 48 0 0 1 4-32v-4q4.95 1.124 10 1.172A41 41 0 0 0 24-36Zm0 0"/><path id="w" d="M16-36a201 201 0 0 1-5.234 17.719A253 253 0 0 1 4-.797L7.516.72a222 222 0 0 0 6.953-17.828 225 225 0 0 0 5.375-18.094h-3.688a228 228 0 0 0 5.36 18.094A225 225 0 0 0 28.484.719L32-.797a249 249 0 0 1-6.766-17.484A200 200 0 0 1 20-36Zm0 0"/><path id="x" d="M16 0a202 202 0 0 0-5.234-17.719A255 255 0 0 0 4-35.203l3.516-1.516a221 221 0 0 1 6.953 17.844A224 224 0 0 1 19.844-.797h-3.688a227 227 0 0 1 5.36-18.078 224 224 0 0 1 6.968-17.844L32-35.203a251 251 0 0 0-6.766 17.484A201 201 0 0 0 20 0Zm0 0"/><path id="y" d="M23.516 0 12-2.64q-2.237-.564-3.078-1.922Q8.078-5.921 8.875-8l3.531-8.797-5.765-1.844q-1.69-.562-2.407-1.922-.72-1.358.329-3.437l5.921-12 3.594 1.766-5.844 11.922 5.532 1.75q1.826.562 2.468 1.921.638 1.362-.078 3.203l-3.36 8.641 11.61 2.875Zm0 0"/><path id="z" d="M12.078-25.594c-1.543 0-2.902-.492-4.078-1.484q-1.77-1.481-2.719-3.719l3.516-1.687q.563 1.283 1.406 2.093.844.798 2.203.797c.906 0 1.727-.554 2.469-1.672Q16-32.952 16-35.594h4q0 2.72 1.031 4.36 1.044 1.64 2.563 1.64c1.02 0 1.875-.554 2.562-1.672q1.046-1.686 1.047-4.328h4q0 2.643-.922 4.922c-.617 1.512-1.484 2.735-2.61 3.672q-1.674 1.406-3.983 1.406-1.77 0-3.204-.843-1.44-.843-2.484-2.36a7.46 7.46 0 0 1-2.61 2.36 6.8 6.8 0 0 1-3.312.843m0 25.594a186 186 0 0 0-3.125-17.281A159 159 0 0 0 4-34.406L7.594-36a156 156 0 0 1 5.203 17.531A176 176 0 0 1 16-.797Zm0 0"/><path id="A" d="M17.672 0a186 186 0 0 0-3.125-17.281 159 159 0 0 0-4.953-17.125L13.188-36a156 156 0 0 1 5.203 17.531A176 176 0 0 1 21.594-.797Zm0 0"/><path id="B" d="M21.594-35.594h4q0 3.44-1.36 6.078-1.36 2.643-3.64 4.078-2.285 1.44-5.078 1.438a9.1 9.1 0 0 1-4.235-1.031 10.1 10.1 0 0 1-3.375-2.813l3.203-2.39q.48 1.03 1.594 1.64c.75.399 1.578.594 2.485.594q1.45 0 2.921-.75 1.483-.762 2.485-2.437.998-1.687 1-4.407M13.672 0a186 186 0 0 0-3.125-17.281 159 159 0 0 0-4.953-17.125L9.187-36a156 156 0 0 1 5.204 17.531A176 176 0 0 1 17.594-.797Zm0 0"/><path id="C" d="M15.594-13.125 10-18.797l5.594-5.687 5.61 5.687Zm0 0"/><path id="D" d="M24.64 0q-2.8-8.076-4.124-16.797-1.313-8.718-1.485-16.562L22.797-36q.153 8.157 1.39 17.047a89.3 89.3 0 0 0 4.204 17.266Zm-3.046-31.594q-4.641.878-9.407.766A48 48 0 0 1 2.797-32v-4q4.95 1.124 10 1.172a41 41 0 0 0 10-1.172Zm0 0"/><path id="E" d="M13.594-36q-1.36 7.69-3.688 16.375Q7.592-10.952 4-.797L7.516.72Q10-6.075 11.594-12a289 289 0 0 0 2.89-11.562c.852-3.758 1.735-7.641 2.641-11.641h-3.047c.957 4 1.848 7.883 2.672 11.64A263 263 0 0 0 19.594-12c1.07 3.95 2.437 8.191 4.093 12.719l3.516-1.516q-3.61-10.156-5.937-18.828Q18.952-28.311 17.594-36Zm0 0"/><path id="F" d="M13.594 0q-1.36-7.687-3.688-16.36Q7.592-25.042 4-35.202l3.516-1.516Q10-29.919 11.594-24q1.606 5.926 2.89 11.563c.852 3.761 1.735 7.64 2.641 11.64h-3.047q1.436-6 2.672-11.64A265 265 0 0 1 19.594-24c1.07-3.945 2.437-8.187 4.093-12.719l3.516 1.516q-3.61 10.16-5.937 18.844Q18.952-7.69 17.594 0Zm0 0"/><path id="G" d="M24.953 0 13.438-2.64c-1.493-.376-2.516-1.016-3.079-1.922Q9.516-5.921 10.313-8l3.53-8.797-5.765-1.844c-1.125-.375-1.93-1.015-2.406-1.922Q4.952-21.92 6-24l5.922-12 3.594 1.766-5.844 11.922 5.531 1.75q1.827.562 2.469 1.921.637 1.362-.078 3.203l-3.36 8.641 11.61 2.875Zm0 0"/><path id="H" d="M10.078-25.594c-1.543 0-2.902-.492-4.078-1.484q-1.77-1.481-2.719-3.719l3.516-1.687q.563 1.283 1.406 2.093.844.798 2.203.797c.906 0 1.727-.554 2.469-1.672Q14-32.952 14-35.594h4q0 2.72 1.031 4.36 1.044 1.64 2.563 1.64c1.02 0 1.875-.554 2.562-1.672q1.046-1.686 1.047-4.328h4q0 2.643-.922 4.922c-.617 1.512-1.484 2.735-2.61 3.672q-1.674 1.406-3.983 1.406-1.77 0-3.204-.843-1.44-.843-2.484-2.36a7.46 7.46 0 0 1-2.61 2.36 6.8 6.8 0 0 1-3.312.843m0 25.594a186 186 0 0 0-3.125-17.281A159 159 0 0 0 2-34.406L5.594-36a156 156 0 0 1 5.203 17.531A176 176 0 0 1 14-.797Zm0 0"/></defs><path d="M-108-67.5h1296v810H-108z"/><use xlink:href="#a" x="97.133" y="86.499" fill="#fcee21"/><g fill="#fcee21"><use xlink:href="#b" x="91.183" y="123.809"/><use xlink:href="#c" x="119.183" y="123.809"/><use xlink:href="#d" x="128.493" y="123.809"/><use xlink:href="#e" x="156.003" y="123.809"/></g><use xlink:href="#f" x="471.633" y="135.5" fill="#fcee21"/><g fill="#fcee21"><use xlink:href="#g" x="465.823" y="123.809"/><use xlink:href="#h" x="491.513" y="123.809"/><use xlink:href="#c" x="516.433" y="123.809"/><use xlink:href="#i" x="525.743" y="123.809"/><use xlink:href="#j" x="544.433" y="123.809"/><use xlink:href="#k" x="549.123" y="123.809"/><use xlink:href="#l" x="588.043" y="123.809"/><use xlink:href="#m" x="597.353" y="123.809"/></g><use xlink:href="#a" x="889.953" y="91.12" fill="#fcee21"/><g fill="#fcee21"><use xlink:href="#n" x="889.883" y="123.809"/><use xlink:href="#o" x="914.243" y="123.809"/></g><use xlink:href="#p" x="931.883" y="67.809" fill="#fcee21"/><g fill="#fcee21"><use xlink:href="#q" x="937.553" y="123.809"/><use xlink:href="#i" x="970.243" y="123.809"/></g><g fill="#fff"><use xlink:href="#r" x="694.98" y="235"/><use xlink:href="#s" x="714.96" y="235"/><use xlink:href="#t" x="742.98" y="235"/><use xlink:href="#u" x="756.96" y="235"/></g><use xlink:href="#r" x="781.764" y="235" fill="#fff"/><g fill="#fff"><use xlink:href="#v" x="694.98" y="307"/><use xlink:href="#r" x="725.4" y="307"/></g><use xlink:href="#t" x="745.398" y="307" fill="#fff"/><g fill="#fff"><use xlink:href="#w" x="759.396" y="307"/><use xlink:href="#s" x="792.216" y="307"/></g><g fill="#fff"><use xlink:href="#x" x="694.98" y="379"/><use xlink:href="#w" x="727.8" y="379"/></g><use xlink:href="#y" x="714.96" y="451" fill="#fff"/><g fill="#fff"><use xlink:href="#r" x="694.98" y="523"/><use xlink:href="#r" x="714.96" y="523"/></g><g fill="#fff"><use xlink:href="#r" x="675" y="595"/><use xlink:href="#v" x="694.98" y="595"/><use xlink:href="#v" x="728.58" y="595"/><use xlink:href="#t" x="762.18" y="595"/><use xlink:href="#w" x="776.16" y="595"/></g><use xlink:href="#z" x="808.962" y="595" fill="#fff"/><g fill="#fff"><use xlink:href="#A" x="211.2" y="235"/><use xlink:href="#B" x="242.4" y="235"/><use xlink:href="#t" x="273.6" y="235"/><use xlink:href="#C" x="287.58" y="235"/><use xlink:href="#A" x="318.78" y="235"/></g><g fill="#fff"><use xlink:href="#D" x="211.2" y="307"/><use xlink:href="#A" x="242.4" y="307"/><use xlink:href="#t" x="273.6" y="307"/><use xlink:href="#E" x="287.58" y="307"/><use xlink:href="#B" x="318.78" y="307"/></g><g fill="#fff"><use xlink:href="#F" x="211.2" y="379"/><use xlink:href="#E" x="242.4" y="379"/></g><use xlink:href="#G" x="242.4" y="451" fill="#fff"/><g fill="#fff"><use xlink:href="#A" x="211.2" y="523"/><use xlink:href="#A" x="242.4" y="523"/></g><g fill="#fff"><use xlink:href="#A" x="180" y="595"/><use xlink:href="#D" x="211.2" y="595"/><use xlink:href="#D" x="242.4" y="595"/><use xlink:href="#t" x="273.6" y="595"/><use xlink:href="#E" x="287.58" y="595"/><use xlink:href="#H" x="318.78" y="595"/></g><path fill="none" stroke="#ff0" stroke-miterlimit="10" stroke-width="5" d="M180 540h225m270 0h225"/></svg>