<svg xmlns="http://www.w3.org/2000/svg" xmlns:xlink="http://www.w3.org/1999/xlink" width="1440" height="1800" viewBox="0 0 1080 1350"><defs><path id="a" d="M0 2.031q-.001-.86.578-1.453Q1.17-.002 2.031 0q.796-.001 1.375.578Q4 1.17 4 2.031q-.002.796-.594 1.375Q2.827 4 2.031 4q-.86-.002-1.453-.594A1.88 1.88 0 0 1 0 2.031m0 0"/><path id="b" d="m0 221.234 2.672-.375q.575-.066 1.531-.406A5.8 5.8 0 0 0 6 219.406q.824-.689 1.094-1.86l.484-.046q.468 1.857 1.188 2.813.732.965 2.109 1.656l.063.437L0 223.891Zm0-4.218h2.672v6.5H0ZM0 0h.422c.601.883 1.25 1.516 1.937 1.89.696.376 1.688.633 2.97.782v.422a3.34 3.34 0 0 0-1.657 1.375 6.5 6.5 0 0 0-.797 1.953Q2.671 7.404 2.672 8v212.86L0 223.515Zm0 0"/><path id="c" d="M.75 3.203 2.078.641c1.813 2.445 3.836 4.504 6.078 6.172q3.357 2.512 6.953 3.984c2.407.976 4.711 1.629 6.922 1.953q2.015.262 2.922-.453.904-.722 1.281-1.625h.438q.201 1.92.765 2.984.562 1.06 1.891 1.922V16q-9.065-.002-16.265-3.203Q5.857 9.59.75 3.203M-5.328 8 2.078.64l1.063 2.673L-1.547 8l4.485 4.484-.86 2.922Zm6.281 4.531Q6.138 6.232 13.25 3.11 20.375 0 29.328 0v.422c-.887.601-1.515 1.25-1.89 1.937q-.565 1.045-.766 2.97h-.438c-.25-.606-.68-1.15-1.28-1.626q-.908-.722-2.923-.453-3.313.481-6.922 1.953-3.597 1.468-6.984 4-3.375 2.53-6.047 6.203Zm0 0"/><path id="d" d="M-10.672-5.328h.438q.908 1.33 1.953 1.89 1.031.565 2.953.766v.438a3.26 3.26 0 0 0-1.656 1.39 6 6 0 0 0-.797 1.969Q-8 2.139-8 2.672q.001 2.343 1.531 3.86c1.012 1.007 2.278 1.515 3.797 1.515 1.281 0 2.332-.29 3.14-.86a6.4 6.4 0 0 0 1.954-2.093c.476-.836.805-1.64.984-2.422h.438q.467 1.858 1.14 2.812.669.966 2.11 1.657l.047.484q-1.172.591-2.672 1.281-1.488.686-3.282 1.219-1.78.546-3.859.547-2.279-.001-4.094-1.016a7.34 7.34 0 0 1-2.859-2.828c-.695-1.21-1.047-2.594-1.047-4.156ZM0 9.062h2.672v4.266H0Zm0 0"/><path id="e" d="M0 222.984h2.672v3.203H0ZM0 0l22.563 17.016v3.25L0 3.313Zm0 2.766h2.672v218.562L0 223.891ZM0 223.89l2.672-3.094 2.656-.375L8 222.828ZM5.328 6.67H8v216.157l-2.672-1.5Zm15.797 11.095 1.281-1.657q.359-.485.782-1.422.434-.926.546-2.015.106-1.095-.53-2.11l.265-.328q1.652.969 2.843 1.157c.801.125 1.704.007 2.704-.344l.312.265-6.765 8.954ZM0-.531h2.672v3.203H0Zm0 0"/><path id="f" d="M0 19.047 2.672 16l2.61-.312q.575-.066 1.53-.407a5.8 5.8 0 0 0 1.797-1.047q.825-.689 1.094-1.859l.485-.062q.48 1.873 1.203 2.828.715.965 2.109 1.656l.047.437ZM0 3.89l2.672-.375q.575-.048 1.531-.407A6 6 0 0 0 6 2.08C6.55 1.616 6.914 1 7.094.218l.484-.063q.468 1.875 1.188 2.828.732.966 2.109 1.657l.063.422L0 6.563ZM0-.531h2.672v17.328L0 18.984ZM1.063 9.922l2.671-.375q.575-.048 1.532-.406a5.8 5.8 0 0 0 1.797-1.047c.55-.461.914-1.078 1.093-1.86l.485-.046Q9.12 8.044 9.844 9q.714.968 2.11 1.672l.046.422-10.937 1.5Zm0 0"/><path id="g" d="M0 1.734h1.344v1.547q.841-.61 2-.61.998-.001 1.75.454.748.451 1.156 1.203a3.37 3.37 0 0 1 .422 1.656c0 .532-.121 1.07-.36 1.625q-.361.845-1.14 1.547l-.156-.062c-.075-.281-.227-.586-.453-.906q-.346-.487-.75-.563v-.156q.78-.049 1.156-.5.375-.44.375-.969-.002-.831-.594-1.422A1.95 1.95 0 0 0 3.344 4q-.832-.001-1.422.578A1.96 1.96 0 0 0 1.344 6q-.002.515.265 1 .264.497.797.766v.156c-.43.07-.765.16-1.015.266a1.64 1.64 0 0 0-.625.437 6.4 6.4 0 0 0-.547.719H0ZM0 0h.219q.294.45.547.719a1.8 1.8 0 0 0 .625.422q.373.17 1.015.28v.157a1.99 1.99 0 0 0-1.062 1.766H0Zm0 0"/><path id="h" d="M0 0h21.328q.591.001 1.61-.203A6 6 0 0 0 24.875-1q.937-.593 1.36-1.672h.437q.201 1.922.765 2.985Q28 1.39 29.329 2.234v.438H2.672q0 1.747 1.594 2.234v.422q-1.922.216-2.72.906A3.8 3.8 0 0 0 .423 8H0Zm0 0"/><path id="j" d="M0 222.984h2.672v3.203H0ZM0 0l22.563 17.016v3.25L0 3.313Zm0 2.766h2.672v218.562L0 223.891ZM0 223.89l2.672-3.094 2.656-.375L8 222.828ZM5.328 6.67H8v216.157l-2.672-1.5Zm15.797 11.095 1.281-1.657q.359-.485.782-1.422.434-.926.546-2.015.106-1.095-.53-2.11l.265-.328q1.652.969 2.843 1.157c.801.125 1.704.007 2.704-.344l.312.265-6.765 8.954Zm0 0"/><path id="k" d="M0 2.031q-.001-.86.578-1.453Q1.17-.002 2.031 0q.796-.001 1.375.578Q4 1.17 4 2.031q-.002.796-.594 1.375Q2.827 4 2.031 4q-.86-.002-1.453-.594A1.88 1.88 0 0 1 0 2.031m0 0"/><path id="l" d="M-5.656 12.422c.71-.43 1.64-.969 2.797-1.625A72 72 0 0 0 .844 8.53a38 38 0 0 0 3.765-2.78q1.793-1.487 2.907-3.062C8.266 1.645 8.64.604 8.64-.422l.312-.328c.895.605 1.75.992 2.563 1.172q1.23.263 2.343.062l.329.313a31.5 31.5 0 0 1-4.485 4.719 48 48 0 0 1-5.14 3.89A104 104 0 0 1-.375 12.47a221 221 0 0 1-3.844 2.203ZM0-.531h2.672v11.203H0Zm0 0"/><path id="m" d="M0 211.734h2.672v9.125q4.311-.549 6.578-1.343c1.508-.532 2.266-1.243 2.266-2.125 0-.356-.29-.766-.86-1.235q-.844-.69-2.61-.953v5.375H5.392v-6.984q-.001-.643.343-1.016.34-.361 1.032-.312 2.357.105 4 .843 1.652.75 2.53 1.891.892 1.155.892 2.39c0 1.133-.368 2.07-1.094 2.813q-1.095 1.123-3.047 1.813-1.94.702-4.5 1.093-2.566.406-5.547.735ZM0 0h.422c.601.883 1.25 1.516 1.937 1.89.696.376 1.688.633 2.97.782v.422a3.34 3.34 0 0 0-1.657 1.375 6.5 6.5 0 0 0-.797 1.953Q2.671 7.404 2.672 8v212.86L0 223.515Zm0 0"/><path id="n" d="M-6.672-2.828h.438q.908 1.329 1.953 1.89 1.031.564 2.953.782v.422A3.27 3.27 0 0 0-2.984 1.64a6.1 6.1 0 0 0-.797 1.984Q-4 4.639-4 5.172q0 2.343 1.36 3.812c.906.977 2.23 1.47 3.968 1.47 1.07 0 2.004-.165 2.797-.485Q5.325 9.5 6 8.797c.445-.461.672-.922.672-1.39q0-.799-.75-1.391-.75-.582-1.922-.688v5.719H1.328V3.953q-.002-1.394 1.39-1.281a9.7 9.7 0 0 1 3.188.61q1.5.56 2.453 1.624.969 1.06.97 2.5-.001 1.606-1.063 2.89-1.066 1.28-2.876 2.049-1.815.78-4.063.781-2.561 0-4.344-1.078a7.14 7.14 0 0 1-2.718-2.86q-.938-1.782-.938-4.015Zm0 0"/><path id="o" d="M0-.531h2.672V223.25H0Zm0 0"/><path id="p" d="M0-2.031q.001.86-.578 1.453-.592.58-1.453.578-.796.001-1.375-.578A1.98 1.98 0 0 1-4-2.031q.002-.796.594-1.375Q-2.827-4-2.031-4q.86.002 1.453.594.58.579.578 1.375m0 0"/><path id="q" d="m0-221.234-2.672.375q-.575.066-1.531.406A5.8 5.8 0 0 0-6-219.406q-.824.689-1.094 1.86l-.484.046q-.468-1.857-1.188-2.812-.732-.966-2.109-1.657l-.062-.437L0-223.891Zm0 4.218h-2.672v-6.5H0ZM0 0h-.422c-.601-.883-1.25-1.516-1.937-1.89-.696-.376-1.688-.633-2.97-.782v-.422a3.34 3.34 0 0 0 1.657-1.375 6.5 6.5 0 0 0 .797-1.953q.204-.982.203-1.578v-212.86L0-223.515Zm0 0"/><path id="r" d="M-.75-3.203-2.078-.641c-1.813-2.445-3.836-4.504-6.078-6.171q-3.357-2.514-6.953-3.985c-2.407-.976-4.711-1.629-6.922-1.953q-2.015-.262-2.922.453-.904.722-1.281 1.625h-.438q-.201-1.92-.765-2.984-.562-1.06-1.891-1.922V-16q9.064.002 16.266 3.203Q-5.857-9.59-.75-3.203M5.328-8-2.078-.64l-1.063-2.672L1.547-8l-4.484-4.484.859-2.922Zm-6.281-4.531Q-6.138-6.232-13.25-3.11-20.375 0-29.328 0v-.422c.887-.601 1.515-1.25 1.89-1.937q.565-1.045.766-2.97h.438c.25.606.68 1.15 1.28 1.626q.908.722 2.923.453 3.313-.481 6.922-1.953 3.597-1.468 6.984-4 3.375-2.53 6.047-6.203Zm0 0"/><path id="s" d="M10.672 5.328h-.438q-.908-1.33-1.953-1.89-1.031-.565-2.953-.766v-.438A3.26 3.26 0 0 0 6.984.844a6 6 0 0 0 .797-1.969Q8-2.139 8-2.672q-.001-2.343-1.531-3.86C5.457-7.538 4.19-8.046 2.672-8.046c-1.281 0-2.332.29-3.14.86a6.4 6.4 0 0 0-1.954 2.093c-.476.836-.805 1.64-.984 2.422h-.438q-.467-1.857-1.14-2.812-.669-.966-2.11-1.657l-.047-.484q1.172-.591 2.672-1.281a25 25 0 0 1 3.282-1.219q1.78-.546 3.859-.547 2.279.001 4.094 1.016a7.34 7.34 0 0 1 2.859 2.828c.695 1.21 1.047 2.594 1.047 4.156ZM0-9.062h-2.672v-4.266H0Zm0 0"/><path id="t" d="M0-222.984h-2.672v-3.203H0ZM0 0l-22.562-17.016v-3.25L0-3.312Zm0-2.766h-2.672v-218.562L0-223.891ZM0-223.89l-2.672 3.094-2.656.375L-8-222.828ZM-5.328-6.67H-8v-216.157l2.672 1.5Zm-15.797-11.095-1.281 1.657q-.359.485-.782 1.422a6.2 6.2 0 0 0-.546 2.015q-.106 1.095.53 2.11l-.265.328q-1.652-.969-2.843-1.157c-.801-.125-1.704-.007-2.704.344l-.312-.265 6.765-8.954ZM0 .531h-2.672v-3.203H0Zm0 0"/><path id="u" d="M0-19.047-2.672-16l-2.61.313c-.382.042-.894.18-1.53.406a5.8 5.8 0 0 0-1.797 1.047q-.825.689-1.094 1.859l-.485.063q-.48-1.874-1.203-2.829-.715-.965-2.109-1.656l-.047-.437ZM0-3.89l-2.672.375q-.575.048-1.531.407A6 6 0 0 0-6-2.08c-.55.462-.914 1.079-1.094 1.86l-.484.063q-.468-1.875-1.188-2.828-.732-.966-2.109-1.657l-.062-.421L0-6.562ZM0 .531h-2.672v-17.328L0-18.984ZM-1.062-9.922l-2.672.375q-.575.048-1.532.406a5.8 5.8 0 0 0-1.796 1.047c-.551.461-.915 1.078-1.094 1.86l-.485.046Q-9.12-8.044-9.844-9q-.714-.968-2.11-1.672l-.046-.422 10.938-1.5Zm0 0"/><path id="v" d="M0-1.734h-1.344v-1.547q-.841.61-2 .61-.998.001-1.75-.454-.748-.451-1.156-1.203a3.37 3.37 0 0 1-.422-1.656c0-.532.121-1.07.36-1.625q.361-.844 1.14-1.547l.156.062c.075.281.227.586.454.906q.345.487.75.563v.156q-.781.049-1.157.5-.375.44-.375.969.002.831.594 1.422.597.58 1.406.578.832.001 1.422-.578.58-.591.578-1.422a2.03 2.03 0 0 0-.265-1 1.78 1.78 0 0 0-.797-.766v-.156c.43-.07.765-.16 1.015-.266.25-.101.461-.25.625-.437a6.4 6.4 0 0 0 .547-.719H0ZM0 0h-.219q-.294-.45-.547-.719a1.8 1.8 0 0 0-.625-.422q-.373-.17-1.015-.28v-.157a1.99 1.99 0 0 0 1.062-1.766H0Zm0 0"/><path id="w" d="M0 0h-21.328q-.591-.001-1.61.203Q-23.95.42-24.874 1q-.937.593-1.36 1.672h-.437q-.201-1.922-.765-2.984-.562-1.08-1.891-1.922v-.438h26.656q0-1.747-1.594-2.234v-.422q1.922-.216 2.72-.906A3.8 3.8 0 0 0-.423-8H0Zm0 0"/><path id="y" d="M0-222.984h-2.672v-3.203H0ZM0 0l-22.562-17.016v-3.25L0-3.312Zm0-2.766h-2.672v-218.562L0-223.891ZM0-223.89l-2.672 3.094-2.656.375L-8-222.828ZM-5.328-6.67H-8v-216.157l2.672 1.5Zm-15.797-11.095-1.281 1.657q-.359.485-.782 1.422a6.2 6.2 0 0 0-.546 2.015q-.106 1.095.53 2.11l-.265.328q-1.652-.969-2.843-1.157c-.801-.125-1.704-.007-2.704.344l-.312-.265 6.765-8.954Zm0 0"/><path id="z" d="M0-2.031q.001.86-.578 1.453-.592.58-1.453.578-.796.001-1.375-.578A1.98 1.98 0 0 1-4-2.031q.002-.796.594-1.375Q-2.827-4-2.031-4q.86.002 1.453.594.58.579.578 1.375m0 0"/><path id="A" d="M5.656-12.422c-.71.43-1.64.969-2.797 1.625A72 72 0 0 0-.844-8.53a38 38 0 0 0-3.765 2.78q-1.793 1.487-2.907 3.063C-8.266-1.645-8.64-.606-8.64.422l-.312.328c-.895-.605-1.75-.992-2.563-1.172a6 6 0 0 0-2.343-.062l-.328-.313a31.5 31.5 0 0 1 4.484-4.719 48 48 0 0 1 5.14-3.89A104 104 0 0 1 .375-12.47a221 221 0 0 1 3.844-2.203ZM0 .531h-2.672v-11.203H0Zm0 0"/><path id="B" d="M0-211.734h-2.672v-9.125q-4.311.549-6.578 1.343c-1.508.532-2.266 1.243-2.266 2.125 0 .356.29.766.86 1.235q.844.69 2.61.953v-5.375h2.655v6.984q.001.643-.343 1.016-.34.361-1.032.312-2.357-.105-4-.843-1.652-.75-2.53-1.891-.892-1.155-.892-2.39c0-1.133.368-2.07 1.094-2.813q1.095-1.123 3.047-1.813 1.94-.702 4.5-1.093 2.566-.406 5.547-.735ZM0 0h-.422c-.601-.883-1.25-1.516-1.937-1.89-.696-.376-1.688-.633-2.97-.782v-.422a3.34 3.34 0 0 0 1.657-1.375 6.5 6.5 0 0 0 .797-1.953q.204-.982.203-1.578v-212.86L0-223.515Zm0 0"/><path id="C" d="M6.672 2.828h-.438Q5.326 1.5 4.281.938 3.25.375 1.328.155v-.422A3.27 3.27 0 0 0 2.984-1.64q.592-.965.797-1.984Q4-4.639 4-5.172q0-2.343-1.36-3.812c-.906-.977-2.23-1.47-3.968-1.47-1.07 0-2.004.165-2.797.485Q-5.325-9.5-6-8.797c-.445.461-.672.922-.672 1.39q0 .799.75 1.391.75.582 1.922.688v-5.719h2.672v7.094q.002 1.394-1.39 1.281a9.7 9.7 0 0 1-3.188-.61q-1.5-.56-2.453-1.624a3.6 3.6 0 0 1-.97-2.5q.001-1.606 1.063-2.89 1.066-1.279 2.875-2.048 1.815-.78 4.063-.781 2.561 0 4.344 1.078a7.14 7.14 0 0 1 2.718 2.86q.938 1.782.938 4.015Zm0 0"/><path id="D" d="M0 .531h-2.672V-223.25H0Zm0 0"/><path id="E" d="M3.031 0v-2.344H5.75q-1.078-1.483-1.078-3.5-.002-1.763.781-3.062a5.5 5.5 0 0 1 2.125-2.031 5.9 5.9 0 0 1 2.875-.735q1.406.001 2.875.64 1.467.628 2.688 1.97l-.094.28q-.75.188-1.594.798-.843.609-.984 1.312h-.266q-.094-1.359-.875-2.016-.767-.656-1.703-.656-1.439 0-2.469 1.031Q7.001-7.28 7-5.842q0 1.45 1.031 2.482A3.38 3.38 0 0 0 10.5-2.344c.594 0 1.176-.148 1.75-.453q.872-.468 1.328-1.406h.281q.188 1.125.47 1.781.279.644.765 1.094.499.439 1.25.953V0ZM0 0v-.375q.797-.515 1.266-.953.468-.45.75-1.094.28-.656.468-1.781h.266q.516.938 1.36 1.406c.562.305 1.14.453 1.734.453V0Zm0 0"/><path id="F" d="M0 0v-37.328c0-.688-.125-1.617-.375-2.797a10.4 10.4 0 0 0-1.39-3.406q-1.032-1.64-2.907-2.39v-.75q3.362-.373 5.219-1.345c1.25-.656 2.375-1.757 3.375-3.312h.75v46.656q3.077.002 3.922-2.797h.734q.375 3.361 1.594 4.766c.812.93 1.836 1.578 3.078 1.953V0Zm0 0"/><path id="G" d="M0 0v-37.328c0-.688-.125-1.617-.375-2.797a10.4 10.4 0 0 0-1.39-3.406q-1.032-1.64-2.907-2.39v-.75q3.362-.373 5.219-1.345c1.25-.656 2.375-1.757 3.375-3.312h.75v46.656h4.656V0Zm0 0"/><path id="I" d="M8.219-7q-1.5.002-2.531-1.016-1.018-1.03-1.016-2.53c0-.938.336-1.743 1.016-2.423q1.03-1.03 2.53-1.031 1.39 0 2.423 1.031 1.03 1.018 1.03 2.422 0 1.5-1.03 2.531Q9.609-6.998 8.219-7M3.547 0c-1 0-1.844-.336-2.531-1.016C.336-1.703 0-2.546 0-3.546 0-4.485.336-5.29 1.016-5.97Q2.046-6.999 3.546-7 4.952-7 5.97-5.969 6.999-4.95 7-3.547q0 1.5-1.031 2.531C5.289-.336 4.484 0 3.547 0m9.328 0c-.992 0-1.828-.336-2.516-1.016q-1.03-1.03-1.03-2.53 0-1.405 1.03-2.423Q11.39-6.999 12.875-7c.938 0 1.742.344 2.422 1.031q1.03 1.018 1.031 2.422 0 1.5-1.031 2.531C14.617-.336 13.812 0 12.875 0m0 0"/><path id="J" d="M42.656 0 42-4.672q-.093-1.013-.703-2.687c-.399-1.125-1-2.172-1.813-3.141q-1.22-1.452-3.265-1.906l-.094-.844q3.263-.841 4.938-2.094 1.686-1.266 2.906-3.703l.75-.094L47.329 0Zm-7.375 0v-4.672h11.39V0ZM0 0v-.75q2.326-1.575 3.313-3.39c.656-1.22 1.109-2.946 1.359-5.188h.734q.748 1.861 2.422 2.89 1.686 1.032 3.406 1.407 1.736.362 2.766.36h28L46.672 0Zm0 0"/><path id="K" d="M6.438 0 5.78-4.672q-.093-1.013-.703-2.687-.595-1.687-1.812-3.141Q2.046-11.952 0-12.406l-.094-.844q3.263-.841 4.938-2.094Q6.53-16.61 7.75-19.047l.75-.094L11.11 0ZM-.937 0v-4.672h11.39V0Zm0 0"/><path id="L" d="M9.516 0v-4.672h5.609V0ZM6.438 0 5.78-4.672q-.093-1.013-.703-2.687-.595-1.687-1.812-3.141Q2.046-11.952 0-12.406l-.094-.844q3.263-.841 4.938-2.094Q6.53-16.61 7.75-19.047l.75-.094L11.11 0ZM-.937 0v-4.672h11.39V0Zm0 0"/><path id="M" d="M42.656 0 42-4.672q-.093-1.013-.703-2.687c-.399-1.125-1-2.172-1.813-3.141q-1.22-1.452-3.265-1.906l-.094-.844q3.263-.841 4.938-2.094 1.686-1.266 2.906-3.703l.75-.094L47.329 0Zm-7.375 0v-4.672h11.39V0ZM0 0v-.75q2.326-1.575 3.313-3.39c.656-1.22 1.109-2.946 1.359-5.188h.734q.748 1.861 2.422 2.89 1.686 1.032 3.406 1.407 1.736.362 2.766.36h28L46.672 0Zm45.734 0v-4.672h5.61V0Zm0 0"/><path id="N" d="M3.547 0c-1 0-1.844-.336-2.531-1.016C.336-1.703 0-2.546 0-3.546 0-4.485.336-5.29 1.016-5.97Q2.046-6.999 3.546-7 4.952-7 5.97-5.969 6.999-4.95 7-3.547q0 1.5-1.031 2.531C5.289-.336 4.484 0 3.547 0m0 0"/><path id="O" d="M10.453 9.234q-2.799 0-5.187-.562-2.378-.549-3.828-2.094Q-.002 5.046 0 2.328C0-.398 1.242-2.25 3.734-3.219Q7.467-4.672 14-4.672h4.672V0H14Q8.856 0 6.766.281c-1.399.188-2.094.867-2.094 2.047 0 .563.21 1 .64 1.313q.655.468 2.516.703 1.873.234 5.281.281 3.404.047 8.829.047v3.36c-1.563.25-3.372.507-5.422.78a45 45 0 0 1-6.063.422m26.235.657a229 229 0 0 1-2.86-4.907A124 124 0 0 0 29.86-1.5a68 68 0 0 0-4.843-6.578q-2.613-3.123-5.375-5.078-2.753-1.97-5.453-1.969l-.563-.562c1.063-1.551 1.742-3.04 2.047-4.47.312-1.437.344-2.804.094-4.109l.562-.562a56.3 56.3 0 0 1 8.266 7.844 87 87 0 0 1 6.812 9.015q3.029 4.612 5.36 8.625a307 307 0 0 1 3.828 6.719ZM14 0v-4.672h19.594V0Zm0 0"/><path id="P" d="M21.75 9.89a229 229 0 0 1-2.86-4.906A124 124 0 0 0 14.923-1.5a68 68 0 0 0-4.844-6.578q-2.611-3.123-5.375-5.078-2.753-1.97-5.453-1.969l-.562-.562Q.282-18.013.75-20.157c.313-1.437.344-2.804.094-4.109l.562-.562a57 57 0 0 1 8.25 7.844A87 87 0 0 1 16.47-7.97c2.02 3.074 3.804 5.95 5.36 8.625a355 355 0 0 1 3.843 6.719ZM-.937 0v-4.672h19.609V0Zm0 0"/><path id="Q" d="M21.75 9.89a229 229 0 0 1-2.86-4.906A124 124 0 0 0 14.923-1.5a68 68 0 0 0-4.844-6.578q-2.611-3.123-5.375-5.078-2.753-1.97-5.453-1.969l-.562-.562Q.282-18.013.75-20.157c.313-1.437.344-2.804.094-4.109l.562-.562a57 57 0 0 1 8.25 7.844A87 87 0 0 1 16.47-7.97c2.02 3.074 3.804 5.95 5.36 8.625a355 355 0 0 1 3.843 6.719ZM-.937 0v-4.672h19.609V0Zm19.14 0v-4.672h7.469V0Zm0 0"/><path id="R" d="M10.453 9.234q-2.799 0-5.187-.562-2.378-.549-3.828-2.094Q-.002 5.046 0 2.328C0-.398 1.242-2.25 3.734-3.219Q7.467-4.672 14-4.672h4.672V0H14Q8.856 0 6.766.281c-1.399.188-2.094.867-2.094 2.047 0 .563.21 1 .64 1.313q.655.468 2.516.703 1.873.234 5.281.281 3.404.047 8.829.047v3.36c-1.563.25-3.372.507-5.422.78a45 45 0 0 1-6.063.422m26.235.657a229 229 0 0 1-2.86-4.907A124 124 0 0 0 29.86-1.5a68 68 0 0 0-4.843-6.578q-2.613-3.123-5.375-5.078-2.753-1.97-5.453-1.969l-.563-.562c1.063-1.551 1.742-3.04 2.047-4.47.312-1.437.344-2.804.094-4.109l.562-.562a56.3 56.3 0 0 1 8.266 7.844 87 87 0 0 1 6.812 9.015q3.029 4.612 5.36 8.625a307 307 0 0 1 3.828 6.719ZM14 0v-4.672h19.594V0Zm19.125 0v-4.672h7.469V0Zm0 0"/><path id="S" d="M11.203 9.14q-5.97-.187-8.594-1.546C.867 6.695 0 4.94 0 2.328 0-.398 1.242-2.25 3.734-3.219Q7.467-4.672 14-4.672h4.672V0H14Q8.856 0 6.766.281c-1.399.188-2.094.867-2.094 2.047 0 .563.242 1 .734 1.313q.748.468 2.89.703 2.156.234 6.36.281 4.202.047 11.016.047v3.36q-3.456.56-6.766.874-3.315.328-7.703.235m25.485.75a229 229 0 0 1-2.86-4.906A124 124 0 0 0 29.86-1.5a68 68 0 0 0-4.843-6.578q-2.613-3.123-5.375-5.078-2.753-1.97-5.453-1.969l-.563-.562c1.063-1.551 1.742-3.04 2.047-4.47.312-1.437.344-2.804.094-4.109l.562-.562a56.3 56.3 0 0 1 8.266 7.844 87 87 0 0 1 6.812 9.015q3.029 4.612 5.36 8.625a307 307 0 0 1 3.828 6.719ZM14 0v-4.672h19.594V0Zm0 0"/><path id="T" d="M33.125 0v-4.672h7.469V0ZM11.203 9.14q-5.97-.187-8.594-1.546C.867 6.695 0 4.94 0 2.328 0-.398 1.242-2.25 3.734-3.219Q7.467-4.672 14-4.672h4.672V0H14Q8.856 0 6.766.281c-1.399.188-2.094.867-2.094 2.047 0 .563.242 1 .734 1.313q.748.468 2.89.703 2.156.234 6.36.281 4.202.047 11.016.047v3.36q-3.456.56-6.766.874-3.315.328-7.703.235m25.485.75a229 229 0 0 1-2.86-4.906A124 124 0 0 0 29.86-1.5a68 68 0 0 0-4.843-6.578q-2.613-3.123-5.375-5.078-2.753-1.97-5.453-1.969l-.563-.562c1.063-1.551 1.742-3.04 2.047-4.47.312-1.437.344-2.804.094-4.109l.562-.562a56.3 56.3 0 0 1 8.266 7.844 87 87 0 0 1 6.812 9.015q3.029 4.612 5.36 8.625a307 307 0 0 1 3.828 6.719ZM14 0v-4.672h19.594V0Zm0 0"/><path id="U" d="M3.547 0c-1 0-1.844-.336-2.531-1.016C.336-1.703 0-2.546 0-3.546 0-4.485.336-5.29 1.016-5.97Q2.046-6.999 3.546-7 4.952-7 5.97-5.969 6.999-4.95 7-3.547q0 1.5-1.031 2.531C5.289-.336 4.484 0 3.547 0m0 0"/><path id="V" d="M37.328 0v-4.672h10.078L51.984 0ZM10.266-9.328l2.328-19.984.844.093q1.31 2.532 2.984 3.703c1.125.774 2.742 1.438 4.86 2v.75q-2.05.456-3.266 2c-.813 1.024-1.407 2.094-1.782 3.22q-.549 1.687-.734 2.702l-.469 4.766Zm0 0L13.063-14h37.062l-2.719 4.672ZM51.984 0l-5.406-4.672-.656-4.656L50.125-14ZM0 0v-.75q2.326-1.575 3.313-3.39c.656-1.22 1.109-2.946 1.359-5.188h.734q.748 1.861 2.422 2.89 1.686 1.032 3.406 1.407 1.736.362 2.766.36h28L46.672 0Zm0 0"/><path id="W" d="M50.39 0v-4.672H56V0ZM37.329 0v-4.672h10.078L51.984 0ZM10.266-9.328l2.328-19.984.844.093q1.31 2.532 2.984 3.703c1.125.774 2.742 1.438 4.86 2v.75q-2.05.456-3.266 2c-.813 1.024-1.407 2.094-1.782 3.22q-.549 1.687-.734 2.702l-.469 4.766Zm0 0L13.063-14h37.062l-2.719 4.672ZM51.984 0l-5.406-4.672-.656-4.656L50.125-14ZM0 0v-.75q2.326-1.575 3.313-3.39c.656-1.22 1.109-2.946 1.359-5.188h.734q.748 1.861 2.422 2.89 1.686 1.032 3.406 1.407 1.736.362 2.766.36h28L46.672 0Zm0 0"/><path id="X" d="M-9.328 11.672v-.75C-7.773 9.859-6.672 8.719-6.016 7.5c.649-1.21 1.094-2.934 1.344-5.172h.75q.75 1.873 2.438 2.89c1.117.688 2.257 1.157 3.437 1.407Q3.735 7 4.672 7q4.089-.001 6.75-2.656 2.672-2.66 2.672-6.672 0-3.356-1.5-5.5a11.1 11.1 0 0 0-3.688-3.406Q6.717-12.5 4.672-12.97v-.75q3.263-.841 4.937-2 1.686-1.17 2.891-3.687l.844-.094q1.03 2.05 2.234 4.656 1.219 2.611 2.156 5.75.938 3.128.938 6.766 0 4.013-1.781 7.187c-1.18 2.114-2.828 3.774-4.953 4.985q-3.177 1.828-7.266 1.828Zm0 0"/><path id="Y" d="M-9.328 18.672v-.75c1.555-1.063 2.656-2.203 3.312-3.422.649-1.21 1.094-2.934 1.344-5.172h.75q.75 1.873 2.438 2.89c1.117.688 2.257 1.157 3.437 1.407Q3.735 14 4.672 14q4.089-.001 6.75-2.656 2.672-2.66 2.672-6.672 0-3.362-1.5-5.5a11.1 11.1 0 0 0-3.688-3.406Q6.717-5.5 4.672-5.97v-.75q3.263-.841 4.937-2 1.686-1.17 2.891-3.687l.844-.094q1.03 2.05 2.234 4.656 1.219 2.612 2.156 5.75c.625 2.086.938 4.336.938 6.766q0 4.013-1.781 7.187c-1.18 2.114-2.828 3.774-4.953 4.985Q8.76 18.67 4.672 18.672ZM15.859 0v-4.672h7.47V0Zm0 0"/><path id="Z" d="M30.047 14q-3.737 0-6.438-1.36a15.1 15.1 0 0 1-4.672-3.593 27.7 27.7 0 0 1-3.453-4.985 144 144 0 0 1-2.89-5.656l1.969-3.078c1.175 2.617 2.476 4.977 3.906 7.094q2.154 3.169 5 5.031 2.84 1.875 6.578 1.875 4.576-.002 9.469-2.094Q44.419 5.138 47.875.75l-.562 3.922-1.297-9.344q-.094-1.013-.703-2.687a10.3 10.3 0 0 0-1.829-3.141q-1.205-1.452-3.25-1.906l-.093-.844q3.262-.841 4.937-2.094 1.686-1.266 2.89-3.703l.75-.094L51.329 0q.187 1.686-.281 2.89c-.305.813-.828 1.65-1.578 2.516q-4.019 4.67-9.11 6.625-5.08 1.97-10.312 1.969M4.672 4.672Q4.297 1.31 3.312-.547 2.328-2.422 0-3.922v-.75h14.563v3.734q-1.313 0-3.188.61-1.861.604-3.547 1.86-1.674 1.265-2.422 3.14ZM50.406 0v-4.672H70L73.078 0Zm6.813-1.86-.657-4.671c-.062-.688-.296-1.586-.703-2.703a10.2 10.2 0 0 0-1.828-3.125q-1.204-1.454-3.265-1.922l-.078-.844q3.262-.827 4.937-2.094 1.686-1.263 2.89-3.687l.75-.094 2.61 19.14ZM73.079 0l-5.313-4.672-.563-4.562c-.062-.688-.297-1.586-.703-2.703a10.2 10.2 0 0 0-1.828-3.126c-.805-.968-1.89-1.609-3.266-1.921l-.093-.844c2.187-.563 3.835-1.258 4.953-2.094 1.125-.844 2.086-2.07 2.89-3.687l.75-.094Zm0 0"/><path id="aa" d="M33.313 0 28-4.672l-.562-4.562c-.063-.688-.297-1.586-.704-2.703a10 10 0 0 0-1.812-3.126q-1.22-1.453-3.266-1.921l-.093-.844c2.175-.563 3.82-1.258 4.937-2.094 1.125-.844 2.094-2.07 2.906-3.687l.735-.094Zm-26.5 0-.657-4.672q-.093-1.013-.703-2.687-.595-1.687-1.812-3.141-1.22-1.452-3.266-1.906l-.094-.844q3.263-.841 4.938-2.094 1.687-1.266 2.906-3.703l.734-.094L11.484 0Zm-7.75 0v-4.672h30.343L33.234 0Zm18.296-1.86-.656-4.671c-.062-.688-.297-1.586-.703-2.703a10 10 0 0 0-1.812-3.125q-1.22-1.454-3.266-1.922l-.094-.844q3.262-.827 4.938-2.094 1.687-1.263 2.906-3.687l.734-.094 2.625 19.14Zm0 0"/><path id="ab" d="M31.734 0v-4.672h5.61V0Zm1.578 0L28-4.672l-.562-4.562c-.063-.688-.297-1.586-.704-2.703a10 10 0 0 0-1.812-3.126q-1.22-1.453-3.266-1.921l-.093-.844c2.175-.563 3.82-1.258 4.937-2.094 1.125-.844 2.094-2.07 2.906-3.687l.735-.094Zm-26.5 0-.656-4.672q-.093-1.013-.703-2.687-.595-1.687-1.812-3.141-1.22-1.452-3.266-1.906l-.094-.844q3.263-.841 4.938-2.094 1.687-1.266 2.906-3.703l.734-.094L11.484 0Zm-7.75 0v-4.672h30.344L33.234 0ZM17.36-1.86l-.656-4.671c-.062-.688-.297-1.586-.703-2.703a10 10 0 0 0-1.812-3.125q-1.22-1.454-3.266-1.922l-.094-.844q3.262-.827 4.938-2.094 1.687-1.263 2.906-3.687l.734-.094 2.625 19.14Zm0 0"/><path id="ac" d="M30.047 14q-3.737 0-6.438-1.36a15.1 15.1 0 0 1-4.672-3.593 27.7 27.7 0 0 1-3.453-4.985 144 144 0 0 1-2.89-5.656l1.969-3.078c1.175 2.617 2.476 4.977 3.906 7.094q2.154 3.169 5 5.031 2.84 1.875 6.578 1.875 4.576-.002 9.469-2.094Q44.419 5.138 47.875.75l-.562 3.922-1.297-9.344q-.094-1.013-.703-2.687a10.3 10.3 0 0 0-1.829-3.141q-1.205-1.452-3.25-1.906l-.093-.844q3.262-.841 4.937-2.094 1.686-1.266 2.89-3.703l.75-.094L51.329 0q.187 1.686-.281 2.89c-.305.813-.828 1.65-1.578 2.516q-4.019 4.67-9.11 6.625-5.08 1.97-10.312 1.969M4.672 4.672Q4.297 1.31 3.312-.547 2.328-2.422 0-3.922v-.75h14.563v3.734q-1.313 0-3.188.61-1.861.604-3.547 1.86-1.674 1.265-2.422 3.14ZM50.406 0v-4.672H70L73.078 0Zm6.813-1.86-.657-4.671c-.062-.688-.296-1.586-.703-2.703a10.2 10.2 0 0 0-1.828-3.125q-1.204-1.454-3.265-1.922l-.078-.844q3.262-.827 4.937-2.094 1.686-1.263 2.89-3.687l.75-.094 2.61 19.14ZM73.079 0l-5.313-4.672-.563-4.562c-.062-.688-.297-1.586-.703-2.703a10.2 10.2 0 0 0-1.828-3.126c-.805-.968-1.89-1.609-3.266-1.921l-.093-.844c2.187-.563 3.835-1.258 4.953-2.094 1.125-.844 2.086-2.07 2.89-3.687l.75-.094Zm-1.595 0v-4.672h5.61V0Zm0 0"/><path id="ad" d="M30.047 14q-3.737 0-6.438-1.36a15.1 15.1 0 0 1-4.672-3.593 27.7 27.7 0 0 1-3.453-4.985 144 144 0 0 1-2.89-5.656l1.969-3.078c1.175 2.617 2.476 4.977 3.906 7.094q2.154 3.169 5 5.031 2.84 1.875 6.578 1.875 3.091 0 6.312-.797a22.5 22.5 0 0 0 6.203-2.562q2.982-1.768 5.313-4.656l-.281 4.562-1.578-3.922c-.75-1.867-1.453-3.258-2.11-4.187-.648-.938-1.39-1.625-2.234-2.063Q40.405-4.95 38.453-5.5l-.187-.656c1.988-1.063 3.414-2.133 4.28-3.219q1.313-1.64 1.876-4.344l.75-.281L49.75-.656q.56 1.682.781 3.078.234 1.406-.968 2.812-4.019 4.653-9.157 6.704Q35.28 14 30.046 14M4.672 4.672Q4.297 1.31 3.312-.547 2.328-2.422 0-3.922v-.75h14.563v3.734q-1.313 0-3.188.61-1.861.604-3.547 1.86-1.674 1.265-2.422 3.14Zm42-4.672v-4.672h33.406L84.656 0Zm-1.594-2.797L53.484-14l4.938 1.125-7.563 10.078Zm8.406-6.531V-14h29.297l-2.703 4.672ZM84.656 0l-5.422-4.672-.64-4.656L82.78-14Zm0 0"/><path id="ae" d="M6.438 0 5.78-4.672q-.093-1.013-.703-2.687-.595-1.687-1.812-3.141Q2.046-11.952 0-12.406l-.094-.844q3.263-.841 4.938-2.094Q6.53-16.61 7.75-19.047l.75-.094L11.11 0ZM-.937 0v-4.672h11.39V0ZM9.328 0v-4.672h33.406L47.312 0ZM7.734-2.797 16.141-14l4.953 1.125L13.53-2.797Zm8.407-6.531V-14h29.312l-2.719 4.672ZM47.313 0l-5.407-4.672-.656-4.656L45.453-14Zm0 0"/><path id="af" d="M45.734 0v-4.672h5.61V0ZM6.438 0 5.78-4.672q-.093-1.013-.703-2.687-.595-1.687-1.812-3.141Q2.046-11.952 0-12.406l-.094-.844q3.263-.841 4.938-2.094Q6.53-16.61 7.75-19.047l.75-.094L11.11 0ZM-.937 0v-4.672h11.39V0ZM9.328 0v-4.672h33.406L47.312 0ZM7.734-2.797 16.141-14l4.953 1.125L13.53-2.797Zm8.407-6.531V-14h29.312l-2.719 4.672ZM47.313 0l-5.407-4.672-.656-4.656L45.453-14Zm0 0"/><path id="ag" d="M83.063 0v-4.672h5.609V0ZM30.047 14q-3.737 0-6.438-1.36a15.1 15.1 0 0 1-4.672-3.593 27.7 27.7 0 0 1-3.453-4.985 144 144 0 0 1-2.89-5.656l1.969-3.078c1.175 2.617 2.476 4.977 3.906 7.094q2.154 3.169 5 5.031 2.84 1.875 6.578 1.875 3.091 0 6.312-.797a22.5 22.5 0 0 0 6.203-2.562q2.982-1.768 5.313-4.656l-.281 4.562-1.578-3.922c-.75-1.867-1.453-3.258-2.11-4.187-.648-.938-1.39-1.625-2.234-2.063Q40.405-4.95 38.453-5.5l-.187-.656c1.988-1.063 3.414-2.133 4.28-3.219q1.313-1.64 1.876-4.344l.75-.281L49.75-.656q.56 1.682.781 3.078.234 1.406-.968 2.812-4.019 4.653-9.157 6.704Q35.28 14 30.046 14M4.672 4.672Q4.297 1.31 3.312-.547 2.328-2.422 0-3.922v-.75h14.563v3.734q-1.313 0-3.188.61-1.861.604-3.547 1.86-1.674 1.265-2.422 3.14Zm42-4.672v-4.672h33.406L84.656 0Zm-1.594-2.797L53.484-14l4.938 1.125-7.563 10.078Zm8.406-6.531V-14h29.297l-2.703 4.672ZM84.656 0l-5.422-4.672-.64-4.656L82.78-14Zm0 0"/><path id="ah" d="m0 0 29.766-39.484h5.703L5.78 0Zm4.86 0v-4.672h37.984L47.312 0Zm42.453 0-5.407-4.672-.656-4.656L45.453-14ZM11.672-9.328V-14h33.781l-2.61 4.672Zm19.406-27.625-2.89-2.25q-.844-.655-2.485-1.39a11 11 0 0 0-3.547-.938q-1.909-.188-3.672.937l-.562-.468q1.67-2.888 2-4.985c.219-1.406.015-2.976-.61-4.719l.47-.562 15.687 11.844Zm0 0"/><path id="ai" d="m0 0 29.766-39.484h5.703L5.78 0Zm4.86 0v-4.672h37.984L47.312 0Zm42.453 0-5.407-4.672-.656-4.656L45.453-14ZM11.672-9.328V-14h33.781l-2.61 4.672Zm19.406-27.625-2.89-2.25q-.844-.655-2.485-1.39a11 11 0 0 0-3.547-.938q-1.909-.188-3.672.937l-.562-.468q1.67-2.888 2-4.985c.219-1.406.015-2.976-.61-4.719l.47-.562 15.687 11.844ZM-.938 0v-4.672h5.61V0Zm0 0"/><path id="aj" d="M45.734 0v-4.672h5.61V0ZM0 0l29.766-39.484h5.703L5.78 0Zm4.86 0v-4.672h37.984L47.312 0Zm42.453 0-5.407-4.672-.656-4.656L45.453-14ZM11.672-9.328V-14h33.781l-2.61 4.672Zm19.406-27.625-2.89-2.25q-.844-.655-2.485-1.39a11 11 0 0 0-3.547-.938q-1.909-.188-3.672.937l-.562-.468q1.67-2.888 2-4.985c.219-1.406.015-2.976-.61-4.719l.47-.562 15.687 11.844ZM-.938 0v-4.672h5.61V0Zm0 0"/><path id="ak" d="M45.734 0v-4.672h5.61V0ZM0 0l29.766-39.484h5.703L5.78 0Zm4.86 0v-4.672h37.984L47.312 0Zm42.453 0-5.407-4.672-.656-4.656L45.453-14ZM11.672-9.328V-14h33.781l-2.61 4.672Zm19.406-27.625-2.89-2.25q-.844-.655-2.485-1.39a11 11 0 0 0-3.547-.938q-1.909-.188-3.672.937l-.562-.468q1.67-2.888 2-4.985c.219-1.406.015-2.976-.61-4.719l.47-.562 15.687 11.844Zm0 0"/><path id="al" d="M11.203 9.14q-5.97-.187-8.594-1.546C.867 6.695 0 4.94 0 2.328 0-.398 1.242-2.25 3.734-3.219Q7.467-4.672 14-4.672h18.672V0H14Q8.856 0 6.766.281c-1.399.188-2.094.867-2.094 2.047 0 .563.242 1 .734 1.313q.748.468 2.89.703 2.156.234 6.36.281 4.202.047 11.016.047v3.36q-3.456.56-6.766.874-3.315.328-7.703.235M28 0q-4.019.002-7.187-1.812a13.36 13.36 0 0 1-5-5Q13.998-9.982 14-14q-.002-4.294 1.906-7.422 1.92-3.122 5.047-4.844Q24.075-28 27.813-28q2.7 0 5.593.984c1.938.649 3.774 1.688 5.516 3.125l-.094.75q-1.875.643-2.86 1.766-.97 1.126-1.812 3.36h-.562q-.094-2.513-1.922-3.907-1.815-1.406-4.235-1.406c-1.367 0-2.718.344-4.062 1.031-1.336.68-2.453 1.703-3.36 3.078-.898 1.367-1.343 3.106-1.343 5.219 0 1.742.398 3.328 1.203 4.766a8.8 8.8 0 0 0 3.36 3.359c1.437.805 3.023 1.203 4.765 1.203 1.926 0 3.71-.445 5.36-1.344 1.656-.906 2.734-2.007 3.234-3.312h.734q.375 3.361 1.36 5.187C39.344-2.93 40.445-1.8 42-.75V0ZM13.063 0v-4.672H28V0Zm0 0"/><path id="am" d="M14 0Q9.981.002 6.813-1.812a13.36 13.36 0 0 1-5-5Q-.002-9.982 0-14q-.002-4.294 1.906-7.422c1.282-2.082 2.961-3.695 5.047-4.844Q10.075-28 13.813-28q2.7 0 5.593.984c1.938.649 3.774 1.688 5.516 3.125l-.094.75q-1.875.643-2.86 1.766-.97 1.126-1.812 3.36h-.562q-.094-2.513-1.922-3.907-1.815-1.406-4.235-1.406c-1.367 0-2.718.344-4.062 1.031-1.336.68-2.453 1.703-3.36 3.078Q4.67-17.169 4.673-14c0 1.742.398 3.328 1.203 4.766a8.8 8.8 0 0 0 3.36 3.359c1.437.805 3.023 1.203 4.765 1.203 1.926 0 3.71-.445 5.36-1.344 1.656-.906 2.734-2.007 3.234-3.312h.734q.375 3.361 1.36 5.187C25.344-2.93 26.445-1.8 28-.75V0ZM-.937 0v-4.672H14V0Zm0 0"/><path id="an" d="M12.594-2.328v-2.344q0-2.512.844-5.406a18.9 18.9 0 0 1 2.609-5.453c1.187-1.719 2.726-3.117 4.625-4.203q2.84-1.641 6.765-1.641l.47.656q-.281 1.768-.188 3.125.093 1.361.281 3.594l-.469.375q-1.674-1.688-3.593-1.64-1.91.046-3.594 1.265c-1.305.938-2.297 2.324-2.985 4.156q-1.03 2.753-1.03 5.172v2.344Zm-.922 0v-2.344q0-2.419-1.031-5.172Q9.608-12.594 7.656-14q-1.687-1.218-3.61-1.266-1.908-.046-3.577 1.641L0-14q.188-2.233.281-3.594.094-1.357-.187-3.125l.469-.656q3.919 0 6.765 1.64c1.895 1.087 3.43 2.485 4.61 4.204a18.7 18.7 0 0 1 2.624 5.453q.844 2.894.844 5.406v2.344ZM-.938 0v-4.672h7.47V0Zm6.626 0v-4.672h7.468V0Zm6.437 0v-4.672h7.469V0Zm6.531 0v-4.672h7.469V0Zm6.547 0v-4.672h7.469V0Zm0 0"/><path id="ao" d="M11.203 9.14q-5.97-.187-8.594-1.546C.867 6.695 0 4.94 0 2.328 0-.398 1.242-2.25 3.734-3.219Q7.467-4.672 14-4.672h25.672V0H14Q8.856 0 6.766.281c-1.399.188-2.094.867-2.094 2.047 0 .563.242 1 .734 1.313q.748.468 2.89.703 2.156.234 6.36.281 4.202.047 11.016.047v3.36q-3.456.56-6.766.874-3.315.328-7.703.235m8.39-11.468v-2.344q0-2.512.845-5.406a18.9 18.9 0 0 1 2.609-5.453c1.187-1.719 2.726-3.117 4.625-4.203q2.84-1.641 6.765-1.641l.47.656q-.282 1.768-.188 3.125.093 1.361.281 3.594l-.469.375q-1.673-1.688-3.593-1.64-1.91.046-3.594 1.265c-1.305.938-2.297 2.324-2.985 4.156q-1.03 2.753-1.03 5.172v2.344Zm-.921 0v-2.344q0-2.419-1.031-5.172-1.033-2.75-2.985-4.156-1.687-1.218-3.61-1.266-1.908-.046-3.577 1.641L7-14q.188-2.233.281-3.594.094-1.357-.187-3.125l.468-.656q3.92 0 6.766 1.64c1.895 1.087 3.43 2.485 4.61 4.204a18.7 18.7 0 0 1 2.625 5.453q.843 2.894.843 5.406v2.344Zm0 0"/><path id="ap" d="M26.031 0v-4.672H42q-.937-7.56-2.344-11.515c-.93-2.645-2.172-3.97-3.734-3.97q-.924 0-2.14 1.5-1.22 1.488-1.673 4.563h9.422v4.672H29.297c-.742 0-1.328-.203-1.766-.61q-.656-.608-.562-1.827c.125-2.727.617-5.055 1.484-6.985q1.31-2.904 3.313-4.437 2.013-1.548 4.156-1.547c2 0 3.648.64 4.953 1.922q1.952 1.909 3.172 5.312 1.216 3.41 1.906 7.89Q46.656-5.231 47.22 0ZM0 0v-.75q2.326-1.575 3.313-3.39c.656-1.22 1.109-2.946 1.359-5.188h.734q.748 1.861 2.422 2.89 1.686 1.032 3.406 1.407 1.736.362 2.766.36h28L46.672 0Zm0 0"/><path id="aq" d="M-.937 0v-4.672H15.03q-.937-7.56-2.344-11.515c-.93-2.645-2.171-3.97-3.734-3.97q-.924 0-2.14 1.5-1.22 1.488-1.672 4.563h9.422v4.672H2.328q-1.111 0-1.765-.61-.656-.608-.563-1.827c.125-2.727.617-5.055 1.484-6.985q1.31-2.904 3.313-4.437c1.344-1.032 2.726-1.547 4.156-1.547q2.999 0 4.953 1.922 1.953 1.909 3.172 5.312c.813 2.274 1.445 4.903 1.906 7.89Q19.688-5.231 20.25 0Zm0 0"/><path id="ar" d="M18.75 0v-4.672h5.61V0ZM-.937 0v-4.672H15.03q-.937-7.56-2.344-11.515c-.93-2.645-2.171-3.97-3.734-3.97q-.924 0-2.14 1.5-1.22 1.488-1.672 4.563h9.422v4.672H2.328q-1.111 0-1.765-.61-.656-.608-.563-1.827c.125-2.727.617-5.055 1.484-6.985q1.31-2.904 3.313-4.437c1.344-1.032 2.726-1.547 4.156-1.547q2.999 0 4.953 1.922 1.953 1.909 3.172 5.312c.813 2.274 1.445 4.903 1.906 7.89Q19.688-5.231 20.25 0Zm0 0"/><path id="as" d="M45.734 0v-4.672h5.61V0ZM26.031 0v-4.672H42q-.937-7.56-2.344-11.515c-.93-2.645-2.172-3.97-3.734-3.97q-.924 0-2.14 1.5-1.22 1.488-1.673 4.563h9.422v4.672H29.297c-.742 0-1.328-.203-1.766-.61q-.656-.608-.562-1.827c.125-2.727.617-5.055 1.484-6.985q1.31-2.904 3.313-4.437 2.013-1.548 4.156-1.547c2 0 3.648.64 4.953 1.922q1.952 1.909 3.172 5.312 1.216 3.41 1.906 7.89Q46.656-5.231 47.22 0ZM0 0v-.75q2.326-1.575 3.313-3.39c.656-1.22 1.109-2.946 1.359-5.188h.734q.748 1.861 2.422 2.89 1.686 1.032 3.406 1.407 1.736.362 2.766.36h28L46.672 0Zm0 0"/><path id="at" d="M12.875 0c-.992 0-1.828-.336-2.516-1.016q-1.03-1.03-1.03-2.53 0-1.405 1.03-2.423Q11.39-6.999 12.875-7c.938 0 1.742.344 2.422 1.031q1.03 1.018 1.031 2.422 0 1.5-1.031 2.531C14.617-.336 13.812 0 12.875 0M3.547 0c-1 0-1.844-.336-2.531-1.016C.336-1.703 0-2.546 0-3.546 0-4.485.336-5.29 1.016-5.97Q2.046-6.999 3.546-7 4.952-7 5.97-5.969 6.999-4.95 7-3.547q0 1.5-1.031 2.531C5.289-.336 4.484 0 3.547 0m0 0"/><path id="au" d="M30.047 18.672q-3.737 0-6.438-1.36a15.4 15.4 0 0 1-4.672-3.593 27.4 27.4 0 0 1-3.453-5 149 149 0 0 1-2.89-5.64L14.563 0q1.762 3.919 3.906 7.094 2.154 3.169 5 5.031Q26.309 14 30.047 14q3.263 0 6.719-1.687 3.466-1.676 6.593-4.61A30.1 30.1 0 0 0 48.72.938q-.75-8.028-2.297-12.235-1.535-4.201-3.953-4.203-.937 0-2.157 1.5-1.205 1.5-1.671 4.578h9.422v4.656h-12.22q-1.125.002-1.78-.593-.657-.61-.563-1.828.187-4.107 1.547-7 1.358-2.888 3.312-4.422 1.952-1.548 4.11-1.547 3.544.001 5.687 2.515c1.438 1.68 2.555 3.996 3.36 6.953q1.218 4.441 1.78 10.126 0 1.682-.187 2.703-.187 1.03-1.125 2.53a36.4 36.4 0 0 1-6.203 7.095q-3.596 3.169-7.61 5.03-4.018 1.875-8.124 1.876M4.672 9.328q-.375-3.361-1.36-5.234Q2.328 2.232 0 .75V0h14.563v3.734q-1.313 0-3.188.61a13 13 0 0 0-3.547 1.812 6.87 6.87 0 0 0-2.422 3.172Zm0 0"/><path id="av" d="M50.86 0v-4.672h5.609V0ZM30.046 23.438q-3.737 0-6.438-1.36a15.4 15.4 0 0 1-4.672-3.594 27.4 27.4 0 0 1-3.453-5 149 149 0 0 1-2.89-5.64l1.969-3.078q1.762 3.918 3.906 7.093c1.437 2.114 3.101 3.79 5 5.032q2.84 1.875 6.578 1.875 3.263 0 6.719-1.688 3.466-1.674 6.593-4.61a30.1 30.1 0 0 0 5.36-6.765c-.5-5.355-1.266-9.43-2.297-12.234q-1.535-4.202-3.953-4.203-.937 0-2.157 1.5-1.205 1.5-1.671 4.578h9.422V0h-12.22c-.75 0-1.343-.195-1.78-.594q-.657-.609-.563-1.828.187-4.106 1.547-7 1.358-2.887 3.312-4.422 1.952-1.547 4.11-1.547 3.544.001 5.687 2.516c1.438 1.68 2.555 3.996 3.36 6.953.812 2.961 1.406 6.332 1.78 10.125q0 1.686-.187 2.703-.187 1.032-1.125 2.532a36.4 36.4 0 0 1-6.203 7.093q-3.596 3.17-7.61 5.032-4.018 1.875-8.124 1.875M4.672 14.094q-.375-3.361-1.36-5.235Q2.328 6.997 0 5.516v-.75h14.563V8.5q-1.313 0-3.188.61a13 13 0 0 0-3.547 1.812 6.87 6.87 0 0 0-2.422 3.172Zm0 0"/><path id="aw" d="m14-9.328 20.625-27.36 4.297 1.876L19.688-9.328ZM8.39 0v-4.672h45.454V0Zm10.735-9.328V-14h33.047v4.672ZM51.891 0l-1.875-14h4.765l1.86 14ZM34.813-32.11l-3.173-2.42q-.844-.657-2.485-1.407c-1.086-.5-2.265-.804-3.547-.921q-1.908-.187-3.687.922l-.547-.47q1.67-2.886 2-4.984.329-2.107-.61-4.718l.47-.563 15.687 11.86ZM0 0v-.75q2.326-1.575 3.313-3.39c.656-1.22 1.109-2.946 1.359-5.188h.734q.748 1.861 2.422 2.89 1.686 1.032 3.406 1.407 1.736.362 2.766.36h28L46.672 0Zm0 0"/><path id="ax" d="m4.672-9.328 20.625-27.36 4.297 1.876L10.359-9.328ZM-.938 0v-4.672h45.454V0ZM9.798-9.328V-14h33.047v4.672ZM42.563 0l-1.876-14h4.766l1.86 14ZM25.484-32.11l-3.172-2.421q-.843-.657-2.484-1.407c-1.086-.5-2.265-.804-3.547-.921q-1.908-.187-3.687.922l-.547-.47q1.67-2.886 2-4.984.328-2.107-.61-4.718l.47-.563 15.687 11.86Zm0 0"/><path id="az" d="M45.734 0v-4.672h5.61V0ZM4.672-9.328l20.625-27.36 4.297 1.876L10.359-9.328ZM-.938 0v-4.672h45.454V0ZM9.798-9.328V-14h33.047v4.672ZM42.563 0l-1.876-14h4.766l1.86 14ZM25.484-32.11l-3.172-2.421q-.843-.657-2.484-1.407c-1.086-.5-2.265-.804-3.547-.921q-1.908-.187-3.687.922l-.547-.47q1.67-2.886 2-4.984.328-2.107-.61-4.718l.47-.563 15.687 11.86Zm0 0"/><path id="aA" d="M55.063 0v-4.672h5.609V0ZM14-9.328l20.625-27.36 4.297 1.876L19.688-9.328ZM8.39 0v-4.672h45.454V0Zm10.735-9.328V-14h33.047v4.672ZM51.891 0l-1.875-14h4.765l1.86 14ZM34.813-32.11l-3.173-2.42q-.844-.657-2.485-1.407c-1.086-.5-2.265-.804-3.547-.921q-1.908-.187-3.687.922l-.547-.47q1.67-2.886 2-4.984.329-2.107-.61-4.718l.47-.563 15.687 11.86ZM0 0v-.75q2.326-1.575 3.313-3.39c.656-1.22 1.109-2.946 1.359-5.188h.734q.748 1.861 2.422 2.89 1.686 1.032 3.406 1.407 1.736.362 2.766.36h28L46.672 0Zm0 0"/><path id="aB" d="M0 11.672v-.75q1.859-.562 3.078-1.969 1.22-1.394 1.594-4.75h.734C5.97 6.066 7.273 7 9.328 7h14v-44.328c0-.688-.125-1.617-.375-2.797a10.7 10.7 0 0 0-1.344-3.406q-.985-1.64-2.937-2.39v-.75q3.356-.373 5.219-1.345c1.25-.656 2.367-1.757 3.359-3.312H28v63Zm0 0"/><path id="aC" d="M0 0v-37.328c0-.688-.125-1.617-.375-2.797a10.4 10.4 0 0 0-1.39-3.406q-1.032-1.64-2.907-2.39v-.75q3.362-.373 5.219-1.345c1.25-.656 2.375-1.757 3.375-3.312h.75V0Zm-.937 0v-4.672h5.609V0Zm0 0"/><path id="aD" d="M3.734 0v-4.672h5.61V0ZM0 0v-37.328c0-.688-.125-1.617-.375-2.797a10.4 10.4 0 0 0-1.39-3.406q-1.032-1.64-2.907-2.39v-.75q3.362-.373 5.219-1.345c1.25-.656 2.375-1.757 3.375-3.312h.75V0Zm-.937 0v-4.672h5.609V0Zm0 0"/><path id="aE" d="M27.063 0v-4.672h5.609V0ZM0 11.672v-.75q1.859-.562 3.078-1.969 1.22-1.394 1.594-4.75h.734C5.97 6.066 7.273 7 9.328 7h14v-44.328c0-.688-.125-1.617-.375-2.797a10.7 10.7 0 0 0-1.344-3.406q-.985-1.64-2.937-2.39v-.75q3.356-.373 5.219-1.345c1.25-.656 2.367-1.757 3.359-3.312H28v63Zm0 0"/><path id="aF" d="M0 0v-.75q2.326-1.575 3.313-3.39c.656-1.22 1.109-2.946 1.359-5.188h.734q.748 1.861 2.422 2.89 1.686 1.032 3.406 1.407 1.736.362 2.766.36h4.672V0Zm26.5 5.875a7.83 7.83 0 0 1-4.11-1.125 8.66 8.66 0 0 1-2.984-2.937c-.742-1.211-1.11-2.586-1.11-4.141 0-1.5.368-2.867 1.11-4.11a8.15 8.15 0 0 1 2.985-2.937c1.25-.719 2.617-1.078 4.109-1.078 1.5 0 2.867.36 4.11 1.078a7.7 7.7 0 0 1 2.937 2.938q1.078 1.861 1.078 4.109c0 1.555-.36 2.93-1.078 4.14a8.14 8.14 0 0 1-2.938 2.938Q28.748 5.875 26.5 5.875M13.063 0v-4.672h7.468V0ZM26.5 1.219c.938 0 1.742-.344 2.422-1.031q1.03-1.027 1.031-2.516c0-.938-.344-1.742-1.031-2.422Q27.904-5.78 26.5-5.781c-.992 0-1.828.343-2.516 1.031-.687.68-1.03 1.484-1.03 2.422q0 1.489 1.03 2.516 1.03 1.03 2.516 1.03m0 0"/><path id="aG" d="M12.5 5.875A7.83 7.83 0 0 1 8.39 4.75a8.66 8.66 0 0 1-2.984-2.937C4.664.601 4.296-.773 4.296-2.328c0-1.5.368-2.867 1.11-4.11a8.15 8.15 0 0 1 2.985-2.937c1.25-.719 2.617-1.078 4.109-1.078 1.5 0 2.867.36 4.11 1.078a7.7 7.7 0 0 1 2.937 2.938q1.078 1.861 1.078 4.109c0 1.555-.36 2.93-1.078 4.14a8.14 8.14 0 0 1-2.938 2.938C15.367 5.5 14 5.875 12.5 5.875M-.937 0v-4.672H6.53V0ZM12.5 1.219c.938 0 1.742-.344 2.422-1.031q1.03-1.027 1.031-2.516c0-.938-.344-1.742-1.031-2.422Q13.904-5.78 12.5-5.781c-.992 0-1.828.343-2.516 1.031-.687.68-1.03 1.484-1.03 2.422q0 1.489 1.03 2.516 1.03 1.03 2.516 1.03m0 0"/><path id="aH" d="M19.313 0v-4.672h5.609V0ZM12.5 5.875A7.83 7.83 0 0 1 8.39 4.75a8.66 8.66 0 0 1-2.984-2.937C4.664.601 4.296-.773 4.296-2.328c0-1.5.368-2.867 1.11-4.11a8.15 8.15 0 0 1 2.985-2.937c1.25-.719 2.617-1.078 4.109-1.078 1.5 0 2.867.36 4.11 1.078a7.7 7.7 0 0 1 2.937 2.938q1.078 1.861 1.078 4.109c0 1.555-.36 2.93-1.078 4.14a8.14 8.14 0 0 1-2.938 2.938C15.367 5.5 14 5.875 12.5 5.875M-.937 0v-4.672H6.53V0ZM12.5 1.219c.938 0 1.742-.344 2.422-1.031q1.03-1.027 1.031-2.516c0-.938-.344-1.742-1.031-2.422Q13.904-5.78 12.5-5.781c-.992 0-1.828.343-2.516 1.031-.687.68-1.03 1.484-1.03 2.422q0 1.489 1.03 2.516 1.03 1.03 2.516 1.03m0 0"/><path id="aI" d="M33.313 0v-4.672h5.609V0ZM0 0v-.75q2.326-1.575 3.313-3.39c.656-1.22 1.109-2.946 1.359-5.188h.734q.748 1.861 2.422 2.89 1.686 1.032 3.406 1.407 1.736.362 2.766.36h4.672V0Zm26.5 5.875a7.83 7.83 0 0 1-4.11-1.125 8.66 8.66 0 0 1-2.984-2.937c-.742-1.211-1.11-2.586-1.11-4.141 0-1.5.368-2.867 1.11-4.11a8.15 8.15 0 0 1 2.985-2.937c1.25-.719 2.617-1.078 4.109-1.078 1.5 0 2.867.36 4.11 1.078a7.7 7.7 0 0 1 2.937 2.938q1.078 1.861 1.078 4.109c0 1.555-.36 2.93-1.078 4.14a8.14 8.14 0 0 1-2.938 2.938Q28.748 5.875 26.5 5.875M13.063 0v-4.672h7.468V0ZM26.5 1.219c.938 0 1.742-.344 2.422-1.031q1.03-1.027 1.031-2.516c0-.938-.344-1.742-1.031-2.422Q27.904-5.78 26.5-5.781c-.992 0-1.828.343-2.516 1.031-.687.68-1.03 1.484-1.03 2.422q0 1.489 1.03 2.516 1.03 1.03 2.516 1.03m0 0"/><path id="aJ" d="M30.047 18.672q-3.737 0-6.438-1.36a15.4 15.4 0 0 1-4.672-3.593 27.4 27.4 0 0 1-3.453-5 149 149 0 0 1-2.89-5.64L14.563 0q1.762 3.919 3.906 7.094 2.154 3.169 5 5.031Q26.309 14 30.047 14q3.638 0 7.515-2.11 3.873-2.096 7.282-5.64a29.2 29.2 0 0 0 5.468-8.016l.094 6.72-4.015-9.25c-.25-.626-.766-1.43-1.547-2.423-.774-1-1.735-1.898-2.89-2.703a7.64 7.64 0 0 0-3.782-1.406l-.188-.75q3.17-1.294 4.657-2.735 1.5-1.452 2.343-4.078l.657-.28 6.906 16.984q.281.656.469 1.359c.125.465.187.953.187 1.453q0 1.67-1.125 3.547a36.4 36.4 0 0 1-6.203 7.094q-3.597 3.169-7.656 5.03-4.066 1.875-8.172 1.876M4.672 9.328q-.375-3.361-1.36-5.234Q2.328 2.232 0 .75V0h14.563v3.734q-1.313 0-3.188.61a13 13 0 0 0-3.547 1.812 6.87 6.87 0 0 0-2.422 3.172Zm0 0"/><path id="aK" d="M50.39 0v-4.672H56V0ZM30.048 18.672q-3.737 0-6.438-1.36a15.4 15.4 0 0 1-4.672-3.593 27.4 27.4 0 0 1-3.453-5 149 149 0 0 1-2.89-5.64L14.563 0q1.762 3.919 3.906 7.094 2.154 3.169 5 5.031Q26.309 14 30.047 14q3.638 0 7.515-2.11 3.873-2.096 7.282-5.64a29.2 29.2 0 0 0 5.468-8.016l.094 6.72-4.015-9.25c-.25-.626-.766-1.43-1.547-2.423-.774-1-1.735-1.898-2.89-2.703a7.64 7.64 0 0 0-3.782-1.406l-.188-.75q3.17-1.294 4.657-2.735 1.5-1.452 2.343-4.078l.657-.28 6.906 16.984q.281.656.469 1.359c.125.465.187.953.187 1.453q0 1.67-1.125 3.547a36.4 36.4 0 0 1-6.203 7.094q-3.597 3.169-7.656 5.03-4.066 1.875-8.172 1.876M4.672 9.328q-.375-3.361-1.36-5.234Q2.328 2.232 0 .75V0h14.563v3.734q-1.313 0-3.188.61a13 13 0 0 0-3.547 1.812 6.87 6.87 0 0 0-2.422 3.172Zm0 0"/><path id="aL" d="M16.797 0q.188-5.966-1.36-11.328-1.534-5.373-5.921-11.078c-1.118-1.489-2.328-2.602-3.641-3.344q-1.956-1.125-3.64-.937l-.188-1.032c2-.312 3.742-.992 5.234-2.047 1.489-1.062 2.703-2.46 3.64-4.203l.938.563c-.437 1.68-.43 3.234.032 4.672q.703 2.144 2.062 4.234a96 96 0 0 1 2.75 4.531q2.89 5.127 3.922 10.219 1.032 5.08.844 9.75ZM0 0v-3.36l.75-1.312h17.547V0Zm15.86-14.375q-5.127 1.688-7.704 4.813-2.564 3.127-3.672 7.328L0-3.36a25.1 25.1 0 0 1 4.484-9.047q3.17-4.11 9.422-6.36Zm0 0"/><path id="aM" d="M4.672-1.031v-3.64c0-3.04.726-5.79 2.187-8.25q2.185-3.686 5.922-5.876Q16.513-21 21-21q4.575 0 8.266 2.203a16.6 16.6 0 0 1 5.875 5.875q2.186 3.692 2.187 8.25v3.64h-4.656v-3.64q0-3.263-1.594-5.875a12.2 12.2 0 0 0-4.203-4.187Q24.262-16.328 21-16.328c-2.117 0-4.062.531-5.844 1.594a12.2 12.2 0 0 0-4.25 4.187q-1.58 2.613-1.578 5.875v3.64ZM-.938 0v-4.672h38.266V0Zm19.704-2.234Q16.89-9.42 13.109-14.922q-3.784-5.513-9.843-9.812l2.797-3.735q6.621 4.77 10.875 10.922 4.247 6.16 6.296 14.188Zm-9.72-17.641q-2.329-2.341-4.718-3.36-2.378-1.03-4.234-.562l-.375-.937c1.863-.688 3.445-1.664 4.75-2.938q1.968-1.92 2.906-4.812l1.031.375c-.312 1.187-.133 2.59.547 4.203.688 1.617 1.805 3.203 3.36 4.765Zm0 0"/><path id="aN" d="M36.39 0v-4.672H42V0ZM4.673-1.031v-3.64c0-3.04.726-5.79 2.187-8.25q2.185-3.686 5.922-5.876Q16.513-21 21-21q4.575 0 8.266 2.203a16.6 16.6 0 0 1 5.875 5.875q2.186 3.692 2.187 8.25v3.64h-4.656v-3.64q0-3.263-1.594-5.875a12.2 12.2 0 0 0-4.203-4.187Q24.262-16.328 21-16.328c-2.117 0-4.062.531-5.844 1.594a12.2 12.2 0 0 0-4.25 4.187q-1.58 2.613-1.578 5.875v3.64ZM-.938 0v-4.672h38.266V0Zm19.704-2.234Q16.89-9.42 13.109-14.922q-3.784-5.513-9.843-9.812l2.797-3.735q6.621 4.77 10.875 10.922 4.247 6.16 6.296 14.188Zm-9.72-17.641q-2.329-2.341-4.718-3.36-2.378-1.03-4.234-.562l-.375-.937c1.863-.688 3.445-1.664 4.75-2.938q1.968-1.92 2.906-4.812l1.031.375c-.312 1.187-.133 2.59.547 4.203.688 1.617 1.805 3.203 3.36 4.765Zm0 0"/><path id="aO" d="M19.234-2.234q-1.876-7.186-5.656-12.688-3.785-5.513-9.844-9.812l2.797-3.735q6.622 4.77 10.875 10.922 4.247 6.16 6.297 14.188ZM3.454 0v-3.36l.75-1.312H28V0Zm4.483-2.234L3.454-3.36a25.4 25.4 0 0 1 3.735-8.172q2.606-3.779 7.468-6.11l2.047 4.297c-2.492 1.18-4.406 2.719-5.75 4.625Q8.95-5.872 7.938-2.234m1.579-17.641c-1.555-1.562-3.125-2.68-4.72-3.36q-2.377-1.03-4.233-.562l-.375-.937c1.863-.688 3.445-1.664 4.75-2.938q1.967-1.92 2.906-4.812l1.015.375q-.457 1.782.563 4.203 1.029 2.424 3.36 4.765Zm0 0"/><path id="aP" d="M-4.953 11.672v-.75Q-2.61 9.328-1.625 7.5q.97-1.815 1.344-5.172h.75c.5 1.25 1.304 2.211 2.422 2.89 1.125.688 2.273 1.157 3.453 1.407Q8.123 7 9.047 7q4.105 0 6.672-2.39 2.578-2.38 2.578-6.938 0-2.81-.844-4.906-.844-2.093-2.062-3.266-1.206-1.172-2.422-1.172-1.393 0-2.422 1.313Q9.515-9.046 9.328-7h9.985v4.672H6.906q-2.424 0-2.234-2.438.091-2.981 1.062-5.593c.657-1.739 1.602-3.164 2.844-4.282q1.873-1.687 4.39-1.687 2.795 0 5.032 1.875c1.5 1.242 2.695 2.918 3.594 5.031q1.36 3.174 1.36 7.094-.002 4.465-1.86 7.594-1.862 3.139-5 4.765-3.128 1.64-7.047 1.64Zm0 0"/><path id="aQ" d="M-4.953 14v-.75q2.344-1.593 3.328-3.422.97-1.814 1.344-5.172h.75c.5 1.25 1.304 2.211 2.422 2.89 1.125.688 2.273 1.157 3.453 1.407q1.779.375 2.703.375 4.105 0 6.672-2.39Q18.297 4.558 18.297 0q0-2.81-.844-4.906Q16.61-7 15.391-8.172q-1.206-1.172-2.422-1.172-1.393 0-2.422 1.313-1.032 1.313-1.219 3.36h9.985V0H6.906Q4.482 0 4.672-2.437q.091-2.982 1.062-5.594c.657-1.739 1.602-3.164 2.844-4.281Q10.451-14 12.968-14q2.795 0 5.032 1.875c1.5 1.242 2.695 2.918 3.594 5.031Q22.954-3.92 22.954 0q-.002 4.465-1.86 7.594-1.862 3.139-5 4.765Q12.966 14 9.047 14ZM21.375 0v-4.672h5.61V0Zm0 0"/><path id="aR" d="M5.594-1.312 1.125-3.641Q7.56-8.404 11.938-14.28q4.387-5.872 6.953-12.172 2.577-6.31 3.422-12.094.45-3.544-.813-5.125-1.253-1.593-2.828-2.25v-.75c2.238-.25 3.976-.695 5.219-1.344 1.25-.656 2.367-1.757 3.359-3.312H28q0 15.86-5.61 28.469Q16.797-10.264 5.595-1.312M14 9.328 1.125-3.64 5.781-5.5 14 2.703l7.844-7.844 5.125 1.5Zm7.938-11.015q-11.017-9.046-16.485-21.5Q0-35.656 0-51.328h.75c1.05 1.555 2.18 2.656 3.39 3.312 1.22.649 2.946 1.094 5.188 1.344v.75c-1.055.438-2 1.188-2.844 2.25q-1.254 1.581-.796 5.125.841 5.784 3.406 12.094 2.577 6.3 7 12.219Q20.53-8.31 26.969-3.641Zm0 0"/><path id="aS" d="M4.672-17.734v-1.86q2.419 0 3.812-1.172 1.406-1.169 2.063-3.125.656-1.967.656-4.109 0-3.263-.937-6.812A28 28 0 0 1 9.328-42q0-3.45 1.406-5.36c.938-1.28 2.07-2.195 3.407-2.75q1.997-.843 3.765-1.03 1.782-.189 2.625-.188v1.86q-1.125 0-2.672.515-1.533.516-2.703 2.11Q13.998-45.264 14-42q0 3.644.844 6.766.843 3.127.844 6.109c0 2.43-.594 4.484-1.782 6.172q-1.768 2.518-4.297 3.875-2.519 1.346-4.937 1.344M20.532 14q-.844 0-2.626-.187-1.768-.189-3.765-1.032-2.003-.83-3.407-2.75-1.406-1.908-1.406-5.36c0-2.429.313-4.82.938-7.187q.937-3.543.937-6.812 0-2.248-.656-4.156c-.438-1.282-1.125-2.305-2.063-3.078q-1.394-1.173-3.812-1.172v-1.86q2.419 0 4.937 1.36 2.53 1.346 4.297 3.859 1.782 2.518 1.781 6.156 0 2.986-.843 6.125C14.28-.008 14 2.242 14 4.672q-.002 3.263 1.156 4.844 1.17 1.593 2.703 2.109 1.548.516 2.672.516Zm0 0"/><path id="aT" d="M4.672 14v-65.328h4.656V14Zm0 0"/><path id="aU" d="M20.531-19.594v1.86c-1.617 0-2.89.39-3.828 1.172q-1.393 1.171-2.047 3.14A12.8 12.8 0 0 0 14-9.328q0 3.27.938 6.812c.624 2.368.937 4.758.937 7.188q0 3.45-1.406 5.36-1.408 1.919-3.406 2.75-2.002.843-3.782 1.03c-1.18.126-2.047.188-2.61.188v-1.86q1.124 0 2.657-.515 1.545-.516 2.703-2.11 1.172-1.58 1.172-4.843c0-2.43-.281-4.68-.844-6.766q-.843-3.122-.843-6.11-.002-3.637 1.765-6.155c1.188-1.688 2.617-2.977 4.297-3.875 1.688-.907 3.336-1.36 4.953-1.36M4.671-51.328c.563 0 1.43.062 2.61.187q1.78.188 3.782 1.032 1.999.829 3.406 2.75Q15.875-45.45 15.875-42q0 3.643-.937 7.188Q14-31.262 14-28q0 2.25.656 4.172c.438 1.273 1.117 2.297 2.047 3.078.938.773 2.211 1.156 3.828 1.156v1.86c-1.617 0-3.265-.446-4.953-1.344q-2.518-1.357-4.297-3.875c-1.18-1.676-1.765-3.727-1.765-6.156q0-2.982.843-6.11.844-3.138.844-6.781 0-3.264-1.172-4.844-1.158-1.593-2.703-2.11-1.533-.515-2.656-.515Zm0 0"/><path id="aV" d="M16.89 14.563q-5.782-7.097-9-14.938-3.22-7.842-3.218-18.297c0-4.664.476-8.91 1.437-12.734.97-3.82 2.368-7.414 4.204-10.782q2.747-5.044 6.578-9.703l1.78 1.203q-3.83 6.082-6.593 14.297c-1.836 5.47-2.75 11.375-2.75 17.72 0 6.292.914 12.194 2.75 17.702q2.764 8.25 6.594 14.313Zm0 0"/><path id="aW" d="M9.234 14.938 4.672 14l14.094-66.266 4.562.938Zm0 0"/><path id="aX" d="M6.438-51.984q5.776 7.096 9 14.937 3.217 7.844 3.218 18.297 0 7.003-1.453 12.734a45.8 45.8 0 0 1-4.187 10.782 62.3 62.3 0 0 1-6.578 9.703l-1.782-1.203q3.825-6.08 6.578-14.282Q14-9.232 14-18.75q0-9.436-2.766-17.687Q8.481-44.7 4.656-50.766Zm0 0"/><path id="aY" d="M18.672 14V9.328H9.328v-56h9.344v-4.656h-14V14Zm0 0"/><path id="aZ" d="m9.234-52.266-4.562.938 14.094 66.266L23.328 14Zm0 0"/><path id="ba" d="M4.656-51.422v4.672H14v56H4.656v4.656h14v-65.328Zm0 0"/><path id="bb" d="m19.313-11.672-.641-14.281 3.172 2.344q-4.862.843-8.735-.75-3.878-1.592-6.156-5-2.283-3.404-2.281-7.97-.002-4.293 1.906-7.421 1.92-3.122 5.047-4.844 3.122-1.734 6.86-1.734 2.699 0 5.593.984 2.89.972 5.516 3.11l-.094.75q-1.875.655-2.86 1.78c-.648.743-1.25 1.86-1.812 3.36h-.562q-.094-2.515-1.922-3.922-1.815-1.406-4.235-1.406-2.063 0-4.062 1.031c-1.336.688-2.453 1.72-3.36 3.094q-1.359 2.05-1.359 5.219 0 2.611 1.219 4.766a8.8 8.8 0 0 0 3.36 3.359c1.425.805 3.015 1.203 4.765 1.203q2.419 0 4.656-1.031l-.64 17.36ZM21 0c-1 0-1.844-.336-2.531-1.016-.68-.687-1.016-1.53-1.016-2.53 0-.938.336-1.743 1.016-2.423Q19.499-6.999 21-7c.938 0 1.742.344 2.422 1.031q1.03 1.018 1.031 2.422 0 1.5-1.031 2.531C22.742-.336 21.937 0 21 0m0 0"/><path id="bc" d="M10.547-51.328 9.89-11.672H6.53l-.656-39.656ZM8.219 0c-1 0-1.844-.336-2.531-1.016q-1.018-1.03-1.016-2.53Q4.67-4.952 5.688-5.97 6.718-6.999 8.218-7q1.39 0 2.423 1.031 1.03 1.018 1.03 2.422 0 1.5-1.03 2.531C9.953-.336 9.145 0 8.219 0m0 0"/><path id="bd" d="M4.672-18.672v-4.656h18.656v4.656Zm0 0"/><path id="be" d="M2.328-18.672v-4.656h30.344v4.656Zm17.547 12.61h-4.656v-30.344h4.656Zm0 0"/><path id="bf" d="M2.328-18.672v-4.656h30.344v4.656Zm15.219-10.734q-1.5.002-2.531-1.016-1.018-1.03-1.016-2.531c0-.938.336-1.742 1.016-2.422q1.03-1.03 2.53-1.031 1.39 0 2.423 1.031c.687.68 1.031 1.484 1.031 2.422q0 1.5-1.031 2.531-1.032 1.018-2.422 1.016m0 23.344q-1.5.002-2.531-1.016Q13.998-8.11 14-9.61q-.002-1.405 1.016-2.422 1.03-1.032 2.53-1.031 1.39 0 2.423 1.03c.687.68 1.031 1.485 1.031 2.423q0 1.5-1.031 2.53-1.032 1.018-2.422 1.016m0 0"/><path id="bg" d="m8.594-8.687-3.297-3.297 21.469-21.47 3.297 3.298Zm21.328-3.485L26.64-8.89 5.17-30.359l3.282-3.282Zm0 0"/><path id="bh" d="M8.766 1.313 4.672-1.031l23.89-41.344 4.11 2.328ZM28.469 0c-1 0-1.844-.336-2.532-1.016-.68-.687-1.015-1.53-1.015-2.53q-.002-1.405 1.015-2.423Q26.97-6.999 28.47-7q1.39 0 2.422 1.031 1.03 1.018 1.03 2.422 0 1.5-1.03 2.531C30.203-.336 29.395 0 28.469 0M8.313-35c-1 0-1.844-.336-2.532-1.016-.68-.687-1.015-1.53-1.015-2.53q-.002-1.405 1.015-2.423Q6.813-41.999 8.313-42q1.389 0 2.421 1.031 1.032 1.018 1.032 2.422 0 1.5-1.032 2.531Q9.702-34.998 8.313-35m0 0"/><path id="bi" d="M2.328-12.14v-4.657h30.344v4.656Zm0-13.063v-4.656h30.344v4.656Zm0 0"/><path id="bj" d="M2.328-18.672v-4.656h30.344v4.656Zm0 0"/><path id="bk" d="M0-18.672v-4.656h70v4.656Zm0 0"/><path id="bl" d="M8.219 11.672q-1.5 0-2.531-1.031Q4.67 9.623 4.672 8.125 4.67 6.719 5.688 5.688q1.03-1.018 2.53-1.016 1.39-.002 2.423 1.016 1.03 1.031 1.03 2.437 0 1.498-1.03 2.516-1.032 1.03-2.422 1.03M8.219 0c-1 0-1.844-.336-2.531-1.016q-1.018-1.03-1.016-2.53c-.125-1.74.414-3.571 1.625-5.5A19.3 19.3 0 0 1 10.734-14l1.032 1.219q-2.531 2.33-3.422 4.937-.877 2.611-.781 4.578L5.233-5.5Q6.622-7.093 8.11-7.047q1.5.046 2.532 1.078 1.03 1.018 1.03 2.422 0 1.5-1.03 2.531C9.953-.336 9.145 0 8.219 0m0 0"/><path id="bm" d="M8.219 0c-1 0-1.844-.336-2.531-1.016q-1.018-1.03-1.016-2.53c-.125-1.74.414-3.571 1.625-5.5A19.3 19.3 0 0 1 10.734-14l1.032 1.219q-2.531 2.33-3.422 4.937-.877 2.611-.781 4.578L5.233-5.5Q6.622-7.093 8.11-7.047q1.5.046 2.532 1.078 1.03 1.018 1.03 2.422 0 1.5-1.03 2.531C9.953-.336 9.145 0 8.219 0m0 0"/><path id="bn" d="M8.219 0c-1 0-1.844-.336-2.531-1.016q-1.018-1.03-1.016-2.53Q4.67-4.952 5.688-5.97 6.718-6.999 8.218-7q1.39 0 2.423 1.031 1.03 1.018 1.03 2.422 0 1.5-1.03 2.531C9.953-.336 9.145 0 8.219 0m0 0"/><path id="bo" d="M8.219 0c-1 0-1.844-.336-2.531-1.016q-1.018-1.03-1.016-2.53Q4.67-4.952 5.688-5.97 6.718-6.999 8.218-7q1.39 0 2.423 1.031 1.03 1.018 1.03 2.422 0 1.5-1.03 2.531C9.953-.336 9.145 0 8.219 0m0-16.328q-1.5 0-2.531-1.031-1.018-1.03-1.016-2.516-.002-1.404 1.016-2.422 1.03-1.03 2.53-1.031 1.39 0 2.423 1.031 1.03 1.018 1.03 2.422c0 .992-.343 1.828-1.03 2.516q-1.032 1.03-2.422 1.03m0 0"/><path id="bp" d="M22.39 0v-4.672H28V0ZM5.595-1.312l-4.47-2.329Q7.56-8.404 11.938-14.28q4.387-5.872 6.953-12.172 2.577-6.31 3.422-12.094.45-3.544-.813-5.125-1.253-1.593-2.828-2.25v-.75c2.238-.25 3.976-.695 5.219-1.344 1.25-.656 2.367-1.757 3.359-3.312H28q0 15.86-5.61 28.469Q16.797-10.264 5.595-1.312M14 9.328 1.125-3.64 5.781-5.5 14 2.703l7.844-7.844 5.125 1.5Zm7.938-11.015q-11.017-9.046-16.485-21.5Q0-35.656 0-51.328h.75c1.05 1.555 2.18 2.656 3.39 3.312 1.22.649 2.946 1.094 5.188 1.344v.75c-1.055.438-2 1.188-2.844 2.25q-1.254 1.581-.796 5.125.841 5.784 3.406 12.094 2.577 6.3 7 12.219Q20.53-8.31 26.969-3.641ZM27.063 0v-4.672h5.609V0Zm0 0"/><path id="bq" d="M31.078 18.672q-4.206 0-7.14-1.36-2.94-1.36-5-3.593a25 25 0 0 1-3.547-5 149 149 0 0 1-2.891-5.64L14.469 0q1.763 3.919 3.953 7.094c1.469 2.113 3.226 3.789 5.281 5.031Q26.778 14 31.078 14q4.013 0 7.563-2.11 3.543-2.096 5.968-5.64 2.436-3.551 3.078-8.016l.094 7.36-7.922-19.688 4.563-1.219 5.516 13.626q.28.656.468 1.359c.125.465.188.953.188 1.453q0 2.7-1.5 5.781-1.501 3.075-4.157 5.735-2.659 2.669-6.203 4.343-3.55 1.688-7.656 1.688M4.672 9.328q-.375-3.361-1.36-5.234Q2.328 2.232 0 .75V0h14.563v3.734q-1.313 0-3.188.61a13 13 0 0 0-3.547 1.812 6.87 6.87 0 0 0-2.422 3.172Zm38.172-19.875-2.985-3.547 11.375-9.515.844 5.312ZM55.625 0l-7.469-18.578 3.078-5.031L60.672 0Zm0 0"/><path id="br" d="M12.875 0c-.992 0-1.828-.336-2.516-1.016q-1.03-1.03-1.03-2.53 0-1.405 1.03-2.423Q11.39-6.999 12.875-7c.938 0 1.742.344 2.422 1.031q1.03 1.018 1.031 2.422 0 1.5-1.031 2.531C14.617-.336 13.812 0 12.875 0M3.547 0c-1 0-1.844-.336-2.531-1.016C.336-1.703 0-2.546 0-3.546 0-4.485.336-5.29 1.016-5.97Q2.046-6.999 3.546-7 4.952-7 5.97-5.969 6.999-4.95 7-3.547q0 1.5-1.031 2.531C5.289-.336 4.484 0 3.547 0m0 0"/><path id="bs" d="M57.86 0v-4.672h5.609V0ZM31.077 18.672q-4.206 0-7.14-1.36-2.94-1.36-5-3.593a25 25 0 0 1-3.547-5 149 149 0 0 1-2.891-5.64L14.469 0q1.763 3.919 3.953 7.094c1.469 2.113 3.226 3.789 5.281 5.031Q26.778 14 31.078 14q4.013 0 7.563-2.11 3.543-2.096 5.968-5.64 2.436-3.551 3.078-8.016l.094 7.36-7.922-19.688 4.563-1.219 5.516 13.626q.28.656.468 1.359c.125.465.188.953.188 1.453q0 2.7-1.5 5.781-1.501 3.075-4.157 5.735-2.659 2.669-6.203 4.343-3.55 1.688-7.656 1.688M4.672 9.328q-.375-3.361-1.36-5.234Q2.328 2.232 0 .75V0h14.563v3.734q-1.313 0-3.188.61a13 13 0 0 0-3.547 1.812 6.87 6.87 0 0 0-2.422 3.172Zm38.172-19.875-2.985-3.547 11.375-9.515.844 5.312ZM55.625 0l-7.469-18.578 3.078-5.031L60.672 0Zm0 0"/><path id="bt" d="M3.031 0v-2.344H5.75q-1.078-1.483-1.078-3.5-.002-1.763.781-3.062a5.5 5.5 0 0 1 2.125-2.031 5.9 5.9 0 0 1 2.875-.735q1.406.001 2.875.64 1.467.628 2.688 1.97l-.094.28q-.75.188-1.594.798-.843.609-.984 1.312h-.266q-.094-1.359-.875-2.016-.767-.656-1.703-.656-1.439 0-2.469 1.031Q7.001-7.28 7-5.842q0 1.45 1.031 2.482A3.38 3.38 0 0 0 10.5-2.344c.594 0 1.176-.148 1.75-.453q.872-.468 1.328-1.406h.281q.188 1.125.47 1.781.279.644.765 1.094.499.439 1.25.953V0ZM0 0v-.375q.797-.515 1.266-.953.468-.45.75-1.094.28-.656.468-1.781h.266q.516.938 1.36 1.406c.562.305 1.14.453 1.734.453V0Zm0 0"/><path id="bu" d="M14.094 0a218 218 0 0 0-3.64-20.156 184 184 0 0 0-5.782-19.985L8.859-42a183 183 0 0 1 6.063 20.438 202 202 0 0 1 3.75 20.625Zm0 0"/><path id="bv" d="M23.328-41.531H28q0 4.019-1.594 7.093-1.579 3.08-4.25 4.766-2.659 1.674-5.922 1.672a10.66 10.66 0 0 1-4.953-1.203 11.6 11.6 0 0 1-3.906-3.281l3.734-2.797q.561 1.218 1.86 1.922 1.31.688 2.89.687 1.686.002 3.407-.875c1.156-.594 2.117-1.539 2.89-2.844q1.173-1.966 1.172-5.14M14.094 0a218 218 0 0 0-3.64-20.156 184 184 0 0 0-5.782-19.985L8.859-42a183 183 0 0 1 6.063 20.438 202 202 0 0 1 3.75 20.625Zm0 0"/><path id="bw" d="M14.094-29.86c-1.805 0-3.39-.57-4.766-1.718q-2.049-1.734-3.172-4.36l4.11-1.953c.437.993.976 1.797 1.625 2.422q.984.938 2.578.938 1.576.002 2.89-1.953 1.313-1.968 1.313-5.047h4.656c0 2.117.406 3.812 1.219 5.093.812 1.274 1.805 1.907 2.984 1.907 1.188 0 2.18-.649 2.985-1.953q1.218-1.968 1.218-5.047h4.672q0 3.08-1.078 5.734c-.719 1.774-1.734 3.203-3.047 4.297q-1.955 1.64-4.656 1.64-2.05 0-3.734-.984c-1.118-.656-2.078-1.57-2.891-2.75a8.6 8.6 0 0 1-3.047 2.75 8 8 0 0 1-3.86.985m0 29.86a218 218 0 0 0-3.64-20.156A184 184 0 0 0 4.671-40.14L8.859-42a183 183 0 0 1 6.063 20.438 202 202 0 0 1 3.75 20.625Zm0 0"/><path id="bx" d="M27.438 0 14-3.078c-1.742-.438-2.937-1.18-3.594-2.234q-.984-1.592-.047-4.016l4.11-10.266L7.75-21.75q-1.969-.654-2.812-2.234-.832-1.593.375-4.016l6.921-14 4.188 2.047-6.813 13.906 6.438 2.063q2.154.656 2.89 2.25.75 1.58-.078 3.718L14.937-7.938l13.532 3.36Zm0 0"/><path id="by" d="M16.328-11.672q-5.595.002-8.625-3.031-3.033-3.03-3.031-8.625c0-1.125.21-2.352.64-3.688q.657-2.013 2.016-3.828 1.357-1.825 3.594-2.984Q13.153-35 16.328-35q3.169 0 5.406 1.172 2.249 1.158 3.594 2.984 1.359 1.815 2.016 3.828.656 2.002.656 3.688-.001 5.595-3.031 8.625-3.035 3.033-8.64 3.031m0-4.656q3.544.001 5.266-1.625c1.156-1.094 1.734-2.883 1.734-5.375q0-1.498-.703-3.078-.689-1.592-2.187-2.75c-.993-.782-2.36-1.172-4.11-1.172-1.68 0-3.031.39-4.062 1.172-1.024.773-1.766 1.687-2.235 2.75q-.703 1.58-.703 3.078c0 2.492.586 4.281 1.766 5.375q1.78 1.627 5.234 1.625m0 0"/><path id="bz" d="M30.14 0c-2.18-6.281-3.78-12.812-4.812-19.594q-1.533-10.17-1.719-19.328L28-42q.186 9.516 1.625 19.875a104 104 0 0 0 4.906 20.172Zm-3.546-36.86q-5.409 1.018-10.969.876-5.55-.14-10.953-1.344V-42a54.4 54.4 0 0 0 11.656 1.36A47.6 47.6 0 0 0 28-42Zm0 0"/><path id="bA" d="M18.672 0a238 238 0 0 0-6.125-20.672 304 304 0 0 0-7.875-20.39l4.094-1.782A263 263 0 0 1 16.89-22.03 260 260 0 0 1 23.14-.937h-4.282q2.607-10.454 6.25-21.094a260 260 0 0 1 8.125-20.813l4.094 1.782a300 300 0 0 0-7.875 20.39A237 237 0 0 0 23.328 0Zm0 0"/><path id="bB" d="M18.672-42a238 238 0 0 1-6.125 20.672A304 304 0 0 1 4.672-.938L8.766.845A263 263 0 0 0 16.89-19.97a260 260 0 0 0 6.25-21.093h-4.282q2.607 10.453 6.25 21.093A260 260 0 0 0 33.234.844l4.094-1.781a300 300 0 0 1-7.875-20.391A237 237 0 0 1 23.328-42Zm0 0"/><path id="bC" d="M16.328-19.594q-5.595.002-8.625-3.031-3.033-3.046-3.031-8.64c0-1.126.21-2.352.64-3.688q.657-1.997 2.016-3.813 1.358-1.827 3.594-3 2.231-1.171 5.406-1.172 4.294 0 6.813 1.829 2.529 1.814 3.687 4.53Q28-33.871 28-31.265q-.001 5.595-3.031 8.641-3.035 3.033-8.64 3.031M29.5 0a105 105 0 0 1-4.406-17.172c-.992-5.914-1.64-11.61-1.953-17.078L28-31.266q.561 7.285 2 14.703a114 114 0 0 0 3.875 14.61ZM16.328-24.266q3.544.002 5.266-1.625 1.734-1.637 1.734-5.375a10.3 10.3 0 0 0-.75-3.312c-.43-1.094-1.14-1.977-2.14-2.656-.993-.688-2.36-1.032-4.11-1.032-1.68 0-3.031.391-4.062 1.172-1.024.774-1.766 1.688-2.235 2.75-.469 1.055-.703 2.078-.703 3.078q-.002 3.738 1.766 5.375 1.78 1.627 5.234 1.625m0 0"/></defs><path d="M-108-135h1296v1620H-108z"/><use xlink:href="#a" x="992.334" y="157.693" fill="#fcee21"/><g fill="#fcee21"><use xlink:href="#b" x="999.014" y="46.613"/><use xlink:href="#c" x="999.014" y="272.813"/><use xlink:href="#d" x="999.014" y="291.493"/><use xlink:href="#e" x="999.014" y="304.813"/><use xlink:href="#f" x="999.014" y="531.013"/></g><use xlink:href="#g" x="1031.014" y="548.973" fill="#fcee21"/><use xlink:href="#h" x="999.014" y="552.333" fill="#fcee21"/><use xlink:href="#i" x="1017.667" y="504.253" fill="#fcee21"/><use xlink:href="#j" x="999.001" y="565.64" fill="#fcee21"/><use xlink:href="#k" x="1017.681" y="793.48" fill="#fcee21"/><use xlink:href="#l" x="999.001" y="791.84" fill="#fcee21"/><use xlink:href="#i" x="1017.667" y="747.773" fill="#fcee21"/><use xlink:href="#k" x="1017.668" y="1024.146" fill="#fcee21"/><g fill="#fcee21"><use xlink:href="#m" x="998.988" y="809.145"/><use xlink:href="#n" x="998.988" y="1035.345"/><use xlink:href="#d" x="998.988" y="1051.065"/><use xlink:href="#o" x="998.988" y="1064.386"/><use xlink:href="#l" x="998.988" y="1287.626"/></g><use xlink:href="#p" x="87.666" y="1192.307" fill="#fcee21"/><g fill="#fcee21"><use xlink:href="#q" x="80.986" y="1303.387"/><use xlink:href="#r" x="80.986" y="1077.187"/><use xlink:href="#s" x="80.986" y="1058.507"/><use xlink:href="#t" x="80.986" y="1045.187"/><use xlink:href="#u" x="80.986" y="818.987"/></g><use xlink:href="#v" x="48.986" y="801.027" fill="#fcee21"/><use xlink:href="#w" x="80.986" y="797.667" fill="#fcee21"/><use xlink:href="#x" x="62.333" y="845.747" fill="#fcee21"/><use xlink:href="#y" x="80.999" y="784.36" fill="#fcee21"/><use xlink:href="#z" x="62.319" y="556.52" fill="#fcee21"/><use xlink:href="#A" x="80.999" y="558.16" fill="#fcee21"/><use xlink:href="#x" x="62.333" y="602.227" fill="#fcee21"/><use xlink:href="#z" x="62.332" y="325.853" fill="#fcee21"/><g fill="#fcee21"><use xlink:href="#B" x="81.012" y="540.854"/><use xlink:href="#C" x="81.012" y="314.654"/><use xlink:href="#s" x="81.012" y="298.933"/><use xlink:href="#D" x="81.012" y="285.613"/><use xlink:href="#A" x="81.012" y="62.373"/></g><use xlink:href="#E" x="884.787" y="56.666" fill="#fff"/><use xlink:href="#F" x="890.667" y="112.666" fill="#fff"/><use xlink:href="#E" x="799.457" y="56.666" fill="#fff"/><use xlink:href="#G" x="805.337" y="112.666" fill="#fff"/><use xlink:href="#H" x="814.667" y="112.666" fill="#fff"/><use xlink:href="#I" x="891.807" y="356.546" fill="#fff"/><use xlink:href="#J" x="874.377" y="382.656" fill="#fff"/><use xlink:href="#H" x="802.487" y="382.656" fill="#fff"/><use xlink:href="#I" x="797.517" y="356.546" fill="#fff"/><use xlink:href="#K" x="802.487" y="382.656" fill="#fff"/><use xlink:href="#H" x="712.467" y="382.656" fill="#fff"/><use xlink:href="#I" x="707.497" y="356.546" fill="#fff"/><use xlink:href="#L" x="712.467" y="382.656" fill="#fff"/><use xlink:href="#I" x="622.657" y="359.346" fill="#fff"/><use xlink:href="#M" x="604.387" y="382.656" fill="#fff"/><use xlink:href="#H" x="655.697" y="382.656" fill="#fff"/><use xlink:href="#N" x="904.197" y="484.296" fill="#fff"/><use xlink:href="#O" x="879.767" y="472.606" fill="#fff"/><use xlink:href="#H" x="797.237" y="472.606" fill="#fff"/><use xlink:href="#N" x="803.047" y="484.296" fill="#fff"/><use xlink:href="#P" x="797.237" y="472.606" fill="#fff"/><use xlink:href="#H" x="707.217" y="472.606" fill="#fff"/><use xlink:href="#N" x="713.027" y="484.296" fill="#fff"/><use xlink:href="#Q" x="707.217" y="472.606" fill="#fff"/><use xlink:href="#H" x="732.907" y="472.606" fill="#fff"/><use xlink:href="#N" x="634.207" y="484.296" fill="#fff"/><use xlink:href="#R" x="609.777" y="472.606" fill="#fff"/><use xlink:href="#H" x="650.377" y="472.606" fill="#fff"/><use xlink:href="#S" x="879.767" y="562.626" fill="#fff"/><use xlink:href="#H" x="797.237" y="562.626" fill="#fff"/><use xlink:href="#P" x="797.237" y="562.626" fill="#fff"/><use xlink:href="#H" x="707.217" y="562.626" fill="#fff"/><use xlink:href="#Q" x="707.217" y="562.626" fill="#fff"/><use xlink:href="#H" x="732.907" y="562.626" fill="#fff"/><use xlink:href="#T" x="609.777" y="562.626" fill="#fff"/><use xlink:href="#U" x="897.617" y="619.956" fill="#fff"/><use xlink:href="#S" x="879.767" y="652.646" fill="#fff"/><use xlink:href="#U" x="807.597" y="619.956" fill="#fff"/><use xlink:href="#S" x="789.747" y="652.646" fill="#fff"/><use xlink:href="#H" x="707.217" y="652.646" fill="#fff"/><use xlink:href="#U" x="710.087" y="619.956" fill="#fff"/><use xlink:href="#Q" x="707.217" y="652.646" fill="#fff"/><use xlink:href="#H" x="732.907" y="652.646" fill="#fff"/><use xlink:href="#U" x="627.557" y="619.956" fill="#fff"/><use xlink:href="#T" x="609.707" y="652.646" fill="#fff"/><use xlink:href="#V" x="871.997" y="742.666" fill="#fff"/><use xlink:href="#W" x="781.977" y="742.666" fill="#fff"/><use xlink:href="#H" x="837.977" y="742.666" fill="#fff"/><use xlink:href="#U" x="721.217" y="719.356" fill="#fff"/><use xlink:href="#V" x="692.027" y="742.666" fill="#fff"/><use xlink:href="#U" x="631.267" y="719.356" fill="#fff"/><use xlink:href="#W" x="602.077" y="742.666" fill="#fff"/><use xlink:href="#H" x="658.077" y="742.666" fill="#fff"/><use xlink:href="#X" x="888.377" y="832.686" fill="#fff"/><use xlink:href="#Y" x="798.357" y="832.686" fill="#fff"/><use xlink:href="#H" x="821.667" y="832.686" fill="#fff"/><use xlink:href="#U" x="713.027" y="806.926" fill="#fff"/><use xlink:href="#X" x="708.337" y="832.686" fill="#fff"/><use xlink:href="#U" x="623.007" y="813.926" fill="#fff"/><use xlink:href="#Y" x="618.317" y="832.686" fill="#fff"/><use xlink:href="#H" x="641.627" y="832.686" fill="#fff"/><use xlink:href="#Z" x="861.427" y="922.706" fill="#fff"/><use xlink:href="#H" x="791.287" y="922.706" fill="#fff"/><use xlink:href="#aa" x="791.287" y="922.706" fill="#fff"/><use xlink:href="#H" x="701.267" y="922.706" fill="#fff"/><use xlink:href="#ab" x="701.267" y="922.706" fill="#fff"/><use xlink:href="#ac" x="591.367" y="922.706" fill="#fff"/><use xlink:href="#I" x="909.447" y="989.346" fill="#fff"/><use xlink:href="#Z" x="861.357" y="1012.656" fill="#fff"/><use xlink:href="#H" x="791.217" y="1012.656" fill="#fff"/><use xlink:href="#I" x="799.407" y="989.346" fill="#fff"/><use xlink:href="#aa" x="791.217" y="1012.656" fill="#fff"/><use xlink:href="#H" x="701.197" y="1012.656" fill="#fff"/><use xlink:href="#I" x="709.387" y="989.346" fill="#fff"/><use xlink:href="#ab" x="701.197" y="1012.656" fill="#fff"/><use xlink:href="#H" x="738.507" y="1012.656" fill="#fff"/><use xlink:href="#I" x="639.387" y="989.346" fill="#fff"/><use xlink:href="#ac" x="591.297" y="1012.656" fill="#fff"/><use xlink:href="#ad" x="855.477" y="1102.676" fill="#fff"/><use xlink:href="#H" x="784.147" y="1102.676" fill="#fff"/><use xlink:href="#ae" x="784.147" y="1102.676" fill="#fff"/><use xlink:href="#H" x="694.127" y="1102.676" fill="#fff"/><use xlink:href="#af" x="694.127" y="1102.676" fill="#fff"/><use xlink:href="#H" x="745.437" y="1102.676" fill="#fff"/><use xlink:href="#ag" x="585.487" y="1102.676" fill="#fff"/><use xlink:href="#H" x="674.177" y="1102.676" fill="#fff"/><use xlink:href="#U" x="918.197" y="1169.316" fill="#fff"/><use xlink:href="#ad" x="855.477" y="1192.626" fill="#fff"/><use xlink:href="#H" x="784.147" y="1192.626" fill="#fff"/><use xlink:href="#U" x="808.577" y="1169.316" fill="#fff"/><use xlink:href="#ae" x="784.147" y="1192.626" fill="#fff"/><use xlink:href="#H" x="694.127" y="1192.626" fill="#fff"/><use xlink:href="#U" x="718.557" y="1169.316" fill="#fff"/><use xlink:href="#af" x="694.127" y="1192.626" fill="#fff"/><use xlink:href="#H" x="745.437" y="1192.626" fill="#fff"/><use xlink:href="#U" x="648.207" y="1169.316" fill="#fff"/><use xlink:href="#ag" x="585.487" y="1192.626" fill="#fff"/><use xlink:href="#H" x="674.177" y="1192.626" fill="#fff"/><use xlink:href="#ah" x="424.137" y="112.596" fill="#fff"/><use xlink:href="#H" x="334.117" y="112.596" fill="#fff"/><use xlink:href="#ai" x="334.117" y="112.596" fill="#fff"/><use xlink:href="#H" x="244.097" y="112.596" fill="#fff"/><use xlink:href="#aj" x="244.097" y="112.596" fill="#fff"/><use xlink:href="#H" x="295.407" y="112.596" fill="#fff"/><use xlink:href="#ak" x="154.077" y="112.596" fill="#fff"/><use xlink:href="#U" x="458.437" y="179.236" fill="#fff"/><use xlink:href="#ah" x="424.067" y="202.546" fill="#fff"/><use xlink:href="#H" x="334.047" y="202.546" fill="#fff"/><use xlink:href="#U" x="368.417" y="179.236" fill="#fff"/><use xlink:href="#ai" x="334.047" y="202.546" fill="#fff"/><use xlink:href="#H" x="244.027" y="202.546" fill="#fff"/><use xlink:href="#U" x="278.397" y="179.236" fill="#fff"/><use xlink:href="#aj" x="244.027" y="202.546" fill="#fff"/><use xlink:href="#H" x="295.337" y="202.546" fill="#fff"/><use xlink:href="#U" x="188.377" y="179.236" fill="#fff"/><use xlink:href="#ak" x="154.007" y="202.546" fill="#fff"/><use xlink:href="#H" x="205.317" y="202.546" fill="#fff"/><use xlink:href="#al" x="426.307" y="292.566" fill="#fff"/><use xlink:href="#H" x="343.287" y="292.566" fill="#fff"/><use xlink:href="#am" x="343.287" y="292.566" fill="#fff"/><use xlink:href="#H" x="253.267" y="292.566" fill="#fff"/><use xlink:href="#an" x="253.267" y="292.566" fill="#fff"/><use xlink:href="#H" x="285.957" y="292.566" fill="#fff"/><use xlink:href="#ao" x="159.747" y="292.566" fill="#fff"/><use xlink:href="#U" x="450.527" y="345.206" fill="#fff"/><use xlink:href="#al" x="426.237" y="382.516" fill="#fff"/><use xlink:href="#H" x="343.217" y="382.516" fill="#fff"/><use xlink:href="#am" x="343.217" y="382.516" fill="#fff"/><use xlink:href="#H" x="253.197" y="382.516" fill="#fff"/><use xlink:href="#an" x="253.197" y="382.516" fill="#fff"/><use xlink:href="#H" x="285.887" y="382.516" fill="#fff"/><use xlink:href="#U" x="177.177" y="354.516" fill="#fff"/><use xlink:href="#ao" x="159.747" y="382.516" fill="#fff"/><use xlink:href="#U" x="455.637" y="439.846" fill="#fff"/><use xlink:href="#ap" x="423.927" y="472.536" fill="#fff"/><use xlink:href="#H" x="347.417" y="472.536" fill="#fff"/><use xlink:href="#U" x="352.177" y="439.846" fill="#fff"/><use xlink:href="#aq" x="347.417" y="472.536" fill="#fff"/><use xlink:href="#H" x="257.397" y="472.536" fill="#fff"/><use xlink:href="#U" x="262.157" y="439.846" fill="#fff"/><use xlink:href="#ar" x="257.397" y="472.536" fill="#fff"/><use xlink:href="#U" x="185.647" y="439.846" fill="#fff"/><use xlink:href="#as" x="153.937" y="472.536" fill="#fff"/><use xlink:href="#at" x="455.147" y="534.556" fill="#fff"/><use xlink:href="#au" x="420.917" y="562.556" fill="#fff"/><use xlink:href="#H" x="347.417" y="562.556" fill="#fff"/><use xlink:href="#at" x="347.487" y="529.866" fill="#fff"/><use xlink:href="#aq" x="347.417" y="562.556" fill="#fff"/><use xlink:href="#H" x="257.397" y="562.556" fill="#fff"/><use xlink:href="#at" x="257.467" y="529.866" fill="#fff"/><use xlink:href="#ar" x="257.397" y="562.556" fill="#fff"/><use xlink:href="#at" x="185.577" y="539.316" fill="#fff"/><use xlink:href="#av" x="151.347" y="562.556" fill="#fff"/><use xlink:href="#aw" x="419.237" y="652.576" fill="#fff"/><use xlink:href="#H" x="333.907" y="652.576" fill="#fff"/><use xlink:href="#ax" x="333.907" y="652.576" fill="#fff"/><use xlink:href="#ay" x="243.887" y="652.576" fill="#fff"/><use xlink:href="#az" x="243.887" y="652.576" fill="#fff"/><use xlink:href="#H" x="295.197" y="652.576" fill="#fff"/><use xlink:href="#aA" x="149.247" y="652.576" fill="#fff"/><use xlink:href="#H" x="209.937" y="652.576" fill="#fff"/><use xlink:href="#aB" x="433.237" y="742.596" fill="#fff"/><use xlink:href="#H" x="354.907" y="742.596" fill="#fff"/><use xlink:href="#aC" x="354.907" y="742.596" fill="#fff"/><use xlink:href="#H" x="264.887" y="742.596" fill="#fff"/><use xlink:href="#aD" x="264.887" y="742.596" fill="#fff"/><use xlink:href="#H" x="274.197" y="742.596" fill="#fff"/><use xlink:href="#aE" x="163.247" y="742.596" fill="#fff"/><use xlink:href="#H" x="195.937" y="742.596" fill="#fff"/><use xlink:href="#aF" x="430.087" y="832.616" fill="#fff"/><use xlink:href="#H" x="347.067" y="832.616" fill="#fff"/><use xlink:href="#aG" x="347.067" y="832.616" fill="#fff"/><use xlink:href="#H" x="257.047" y="832.616" fill="#fff"/><use xlink:href="#aH" x="257.047" y="832.616" fill="#fff"/><use xlink:href="#H" x="281.967" y="832.616" fill="#fff"/><use xlink:href="#aI" x="160.027" y="832.616" fill="#fff"/><use xlink:href="#H" x="198.947" y="832.616" fill="#fff"/><use xlink:href="#U" x="456.197" y="899.256" fill="#fff"/><use xlink:href="#aJ" x="421.477" y="922.566" fill="#fff"/><use xlink:href="#H" x="351.897" y="922.566" fill="#fff"/><use xlink:href="#U" x="351.617" y="896.456" fill="#fff"/><use xlink:href="#K" x="351.897" y="922.566" fill="#fff"/><use xlink:href="#H" x="261.877" y="922.566" fill="#fff"/><use xlink:href="#U" x="261.597" y="896.456" fill="#fff"/><use xlink:href="#L" x="261.877" y="922.566" fill="#fff"/><use xlink:href="#H" x="276.997" y="922.566" fill="#fff"/><use xlink:href="#U" x="186.137" y="899.256" fill="#fff"/><use xlink:href="#aK" x="151.417" y="922.566" fill="#fff"/><use xlink:href="#H" x="207.417" y="922.566" fill="#fff"/><use xlink:href="#aL" x="436.317" y="1012.586" fill="#fff"/><use xlink:href="#H" x="338.387" y="1012.586" fill="#fff"/><use xlink:href="#aM" x="338.387" y="1012.586" fill="#fff"/><use xlink:href="#H" x="248.367" y="1012.586" fill="#fff"/><use xlink:href="#aN" x="248.367" y="1012.586" fill="#fff"/><use xlink:href="#H" x="290.367" y="1012.586" fill="#fff"/><use xlink:href="#aO" x="165.347" y="1012.586" fill="#fff"/><use xlink:href="#H" x="193.347" y="1012.586" fill="#fff"/><use xlink:href="#E" x="260.337" y="1081.606" fill="#fff"/><use xlink:href="#aP" x="255.577" y="1102.606" fill="#fff"/><use xlink:href="#E" x="170.597" y="1083.916" fill="#fff"/><use xlink:href="#aQ" x="165.837" y="1102.606" fill="#fff"/><use xlink:href="#H" x="192.787" y="1102.606" fill="#fff"/><use xlink:href="#aP" x="435.547" y="1102.606" fill="#fff"/><use xlink:href="#aQ" x="345.807" y="1102.606" fill="#fff"/><use xlink:href="#H" x="372.757" y="1102.606" fill="#fff"/><use xlink:href="#aR" x="522.977" y="112.596" fill="#fff"/><g fill="#fff"><use xlink:href="#aS" x="507.087" y="382.586"/><use xlink:href="#aT" x="532.287" y="382.586"/><use xlink:href="#aU" x="546.287" y="382.586"/></g><g fill="#fff"><use xlink:href="#aV" x="501.977" y="292.566"/><use xlink:href="#aW" x="525.287" y="292.566"/><use xlink:href="#aX" x="553.287" y="292.566"/></g><g fill="#fff"><use xlink:href="#aY" x="501.977" y="472.536"/><use xlink:href="#aZ" x="525.287" y="472.536"/><use xlink:href="#ba" x="553.287" y="472.536"/></g><g fill="#fff"><use xlink:href="#bb" x="514.017" y="562.556"/><use xlink:href="#bc" x="548.247" y="562.556"/></g><g fill="#fff"><use xlink:href="#bd" x="507.787" y="922.566"/><use xlink:href="#be" x="535.787" y="922.566"/></g><g fill="#fff"><use xlink:href="#bf" x="504.287" y="1012.586"/><use xlink:href="#bg" x="539.287" y="1012.586"/></g><use xlink:href="#bh" x="520.597" y="1102.606" fill="#fff"/><use xlink:href="#bi" x="521.787" y="1192.626" fill="#fff"/><use xlink:href="#bj" x="521.787" y="652.646" fill="#fff"/><use xlink:href="#bk" x="504.287" y="742.666" fill="#fff"/><g fill="#fff"><use xlink:href="#bl" x="506.597" y="832.686"/><use xlink:href="#bm" x="522.907" y="832.686"/><use xlink:href="#bn" x="539.217" y="832.686"/><use xlink:href="#bo" x="555.527" y="832.686"/></g><use xlink:href="#bp" x="522.907" y="202.686" fill="#fff"/><use xlink:href="#H" x="555.597" y="202.686" fill="#fff"/><use xlink:href="#bq" x="416.577" y="1192.696" fill="#fff"/><use xlink:href="#H" x="351.687" y="1192.696" fill="#fff"/><use xlink:href="#br" x="348.117" y="1204.386" fill="#fff"/><use xlink:href="#K" x="351.687" y="1192.696" fill="#fff"/><use xlink:href="#H" x="261.667" y="1192.696" fill="#fff"/><use xlink:href="#br" x="258.097" y="1204.386" fill="#fff"/><use xlink:href="#L" x="261.667" y="1192.696" fill="#fff"/><use xlink:href="#H" x="276.787" y="1192.696" fill="#fff"/><use xlink:href="#bs" x="147.497" y="1192.696" fill="#fff"/><use xlink:href="#H" x="210.987" y="1192.696" fill="#fff"/><use xlink:href="#N" x="895.657" y="214.376" fill="#fff"/><use xlink:href="#J" x="873.537" y="202.686" fill="#fff"/><use xlink:href="#H" x="801.647" y="202.686" fill="#fff"/><use xlink:href="#N" x="802.767" y="214.376" fill="#fff"/><use xlink:href="#K" x="801.647" y="202.686" fill="#fff"/><use xlink:href="#H" x="711.627" y="202.686" fill="#fff"/><use xlink:href="#N" x="712.747" y="214.376" fill="#fff"/><use xlink:href="#L" x="711.627" y="202.686" fill="#fff"/><use xlink:href="#H" x="726.747" y="202.686" fill="#fff"/><use xlink:href="#N" x="626.507" y="214.376" fill="#fff"/><use xlink:href="#M" x="603.547" y="202.686" fill="#fff"/><use xlink:href="#H" x="654.857" y="202.686" fill="#fff"/><use xlink:href="#bt" x="705.607" y="129.046" fill="#fff"/><use xlink:href="#F" x="709.877" y="112.736" fill="#fff"/><use xlink:href="#bt" x="617.757" y="129.046" fill="#fff"/><use xlink:href="#G" x="624.547" y="112.736" fill="#fff"/><use xlink:href="#at" x="890.967" y="266.596" fill="#fff"/><use xlink:href="#J" x="873.537" y="292.706" fill="#fff"/><use xlink:href="#H" x="801.647" y="292.706" fill="#fff"/><use xlink:href="#at" x="796.677" y="266.596" fill="#fff"/><use xlink:href="#K" x="801.647" y="292.706" fill="#fff"/><use xlink:href="#H" x="711.627" y="292.706" fill="#fff"/><use xlink:href="#at" x="706.657" y="266.596" fill="#fff"/><use xlink:href="#L" x="711.627" y="292.706" fill="#fff"/><use xlink:href="#H" x="726.747" y="292.706" fill="#fff"/><use xlink:href="#at" x="621.817" y="269.396" fill="#fff"/><use xlink:href="#M" x="603.547" y="292.706" fill="#fff"/><use xlink:href="#H" x="654.857" y="292.706" fill="#fff"/><use xlink:href="#bu" x="887.537" y="1293.846" fill="#fff"/><use xlink:href="#bv" x="792.897" y="1293.846" fill="#fff"/><use xlink:href="#bw" x="698.677" y="1293.846" fill="#fff"/><use xlink:href="#bx" x="612.647" y="1293.846" fill="#fff"/><use xlink:href="#by" x="522.907" y="1293.846" fill="#fff"/><use xlink:href="#bz" x="429.667" y="1293.846" fill="#fff"/><use xlink:href="#bA" x="338.247" y="1293.846" fill="#fff"/><use xlink:href="#bB" x="248.227" y="1293.846" fill="#fff"/><use xlink:href="#bC" x="159.957" y="1293.846" fill="#fff"/></svg>