<svg xmlns="http://www.w3.org/2000/svg" xmlns:xlink="http://www.w3.org/1999/xlink" width="1440" height="900" viewBox="0 0 1080 675"><defs><path id="a" d="M12.875 0c-.992 0-1.828-.336-2.516-1.016q-1.03-1.03-1.03-2.53 0-1.405 1.03-2.423Q11.39-6.999 12.875-7c.938 0 1.742.344 2.422 1.031q1.03 1.018 1.031 2.422 0 1.5-1.031 2.531C14.617-.336 13.812 0 12.875 0M3.547 0c-1 0-1.844-.336-2.531-1.016C.336-1.703 0-2.546 0-3.546 0-4.485.336-5.29 1.016-5.97Q2.046-6.999 3.546-7 4.952-7 5.97-5.969 6.999-4.95 7-3.547q0 1.5-1.031 2.531C5.289-.336 4.484 0 3.547 0m0 0"/><path id="b" d="M19.234-2.234q-1.876-7.186-5.656-12.688-3.785-5.513-9.844-9.812l2.797-3.735q6.622 4.77 10.875 10.922 4.247 6.16 6.297 14.188ZM3.454 0v-3.36l.75-1.312H28V0Zm4.483-2.234L3.454-3.36a25.4 25.4 0 0 1 3.735-8.172q2.606-3.779 7.468-6.11l2.047 4.297c-2.492 1.18-4.406 2.719-5.75 4.625Q8.95-5.872 7.938-2.234m1.579-17.641c-1.555-1.562-3.125-2.68-4.72-3.36q-2.377-1.03-4.233-.562l-.375-.937c1.863-.688 3.445-1.664 4.75-2.938q1.967-1.92 2.906-4.812l1.015.375q-.457 1.782.563 4.203 1.029 2.424 3.36 4.765Zm0 0"/><path id="c" d="M12.875 0c-.992 0-1.828-.336-2.516-1.016q-1.03-1.03-1.03-2.53 0-1.405 1.03-2.423Q11.39-6.999 12.875-7c.938 0 1.742.344 2.422 1.031q1.03 1.018 1.031 2.422 0 1.5-1.031 2.531C14.617-.336 13.812 0 12.875 0M3.547 0c-1 0-1.844-.336-2.531-1.016C.336-1.703 0-2.546 0-3.546 0-4.485.336-5.29 1.016-5.97Q2.046-6.999 3.546-7 4.952-7 5.97-5.969 6.999-4.95 7-3.547q0 1.5-1.031 2.531C5.289-.336 4.484 0 3.547 0m0 0"/><path id="d" d="M-.937 0v-4.672H303.89V0Zm0 0"/><path id="e" d="M6.438 0 5.78-4.672q-.093-1.013-.703-2.687-.595-1.687-1.812-3.141Q2.046-11.952 0-12.406l-.094-.844q3.263-.841 4.938-2.094Q6.53-16.61 7.75-19.047l.75-.094L11.11 0ZM-.937 0v-4.672h11.39V0Zm0 0"/><path id="f" d="M-9.328 11.672v-.75C-7.773 9.859-6.672 8.719-6.016 7.5c.649-1.21 1.094-2.934 1.344-5.172h.75q.75 1.873 2.438 2.89c1.117.688 2.257 1.157 3.437 1.407Q3.735 7 4.672 7q4.089-.001 6.75-2.656 2.672-2.66 2.672-6.672 0-3.356-1.5-5.5a11.1 11.1 0 0 0-3.688-3.406Q6.717-12.5 4.672-12.97v-.75q3.263-.841 4.937-2 1.686-1.17 2.891-3.687l.844-.094q1.03 2.05 2.234 4.656 1.219 2.611 2.156 5.75.938 3.128.938 6.766 0 4.013-1.781 7.187c-1.18 2.114-2.828 3.774-4.953 4.985q-3.177 1.828-7.266 1.828Zm0 0"/><path id="g" d="M0 0v-37.328c0-.688-.125-1.617-.375-2.797a10.4 10.4 0 0 0-1.39-3.406q-1.032-1.64-2.907-2.39v-.75q3.362-.373 5.219-1.345c1.25-.656 2.375-1.757 3.375-3.312h.75v46.656h4.656V0Zm0 0"/><path id="h" d="M9.516 0v-4.672h5.609V0ZM6.438 0 5.78-4.672q-.093-1.013-.703-2.687-.595-1.687-1.812-3.141Q2.046-11.952 0-12.406l-.094-.844q3.263-.841 4.938-2.094Q6.53-16.61 7.75-19.047l.75-.094L11.11 0ZM-.937 0v-4.672h11.39V0Zm0 0"/><path id="i" d="M3.547 0c-1 0-1.844-.336-2.531-1.016C.336-1.703 0-2.546 0-3.546 0-4.485.336-5.29 1.016-5.97Q2.046-6.999 3.546-7 4.952-7 5.97-5.969 6.999-4.95 7-3.547q0 1.5-1.031 2.531C5.289-.336 4.484 0 3.547 0m0 0"/><path id="j" d="M21.75 9.89a229 229 0 0 1-2.86-4.906A124 124 0 0 0 14.923-1.5a68 68 0 0 0-4.844-6.578q-2.611-3.123-5.375-5.078-2.753-1.97-5.453-1.969l-.562-.562Q.282-18.013.75-20.157c.313-1.437.344-2.804.094-4.109l.562-.562a57 57 0 0 1 8.25 7.844A87 87 0 0 1 16.47-7.97c2.02 3.074 3.804 5.95 5.36 8.625a355 355 0 0 1 3.843 6.719ZM-.937 0v-4.672h19.609V0Zm0 0"/><path id="k" d="M5.594-1.312 1.125-3.641Q7.56-8.404 11.938-14.28q4.387-5.872 6.953-12.172 2.577-6.31 3.422-12.094.45-3.544-.813-5.125-1.253-1.593-2.828-2.25v-.75c2.238-.25 3.976-.695 5.219-1.344 1.25-.656 2.367-1.757 3.359-3.312H28q0 15.86-5.61 28.469Q16.797-10.264 5.595-1.312M14 9.328 1.125-3.64 5.781-5.5 14 2.703l7.844-7.844 5.125 1.5Zm7.938-11.015q-11.017-9.046-16.485-21.5Q0-35.656 0-51.328h.75c1.05 1.555 2.18 2.656 3.39 3.312 1.22.649 2.946 1.094 5.188 1.344v.75c-1.055.438-2 1.188-2.844 2.25q-1.254 1.581-.796 5.125.841 5.784 3.406 12.094 2.577 6.3 7 12.219Q20.53-8.31 26.969-3.641Zm0 0"/><path id="l" d="M0 0v-37.328c0-.688-.125-1.617-.375-2.797a10.4 10.4 0 0 0-1.39-3.406q-1.032-1.64-2.907-2.39v-.75q3.362-.373 5.219-1.345c1.25-.656 2.375-1.757 3.375-3.312h.75v46.656q3.077.002 3.922-2.797h.734q.375 3.361 1.594 4.766c.812.93 1.836 1.578 3.078 1.953V0Zm0 0"/><path id="n" d="M27.063 0v-4.672h5.609V0ZM0 11.672v-.75q1.859-.562 3.078-1.969 1.22-1.394 1.594-4.75h.734C5.97 6.066 7.273 7 9.328 7h14v-44.328c0-.688-.125-1.617-.375-2.797a10.7 10.7 0 0 0-1.344-3.406q-.985-1.64-2.937-2.39v-.75q3.356-.373 5.219-1.345c1.25-.656 2.367-1.757 3.359-3.312H28v63Zm0 0"/><path id="o" d="M3.031 0v-2.344H5.75q-1.078-1.483-1.078-3.5-.002-1.763.781-3.062a5.5 5.5 0 0 1 2.125-2.031 5.9 5.9 0 0 1 2.875-.735q1.406.001 2.875.64 1.467.628 2.688 1.97l-.094.28q-.75.188-1.594.798-.843.609-.984 1.312h-.266q-.094-1.359-.875-2.016-.767-.656-1.703-.656-1.439 0-2.469 1.031Q7.001-7.28 7-5.842q0 1.45 1.031 2.482A3.38 3.38 0 0 0 10.5-2.344c.594 0 1.176-.148 1.75-.453q.872-.468 1.328-1.406h.281q.188 1.125.47 1.781.279.644.765 1.094.499.439 1.25.953V0ZM0 0v-.375q.797-.515 1.266-.953.468-.45.75-1.094.28-.656.468-1.781h.266q.516.938 1.36 1.406c.562.305 1.14.453 1.734.453V0Zm0 0"/><path id="p" d="M6.438 0 5.78-4.672q-.093-1.013-.703-2.687-.595-1.687-1.812-3.141Q2.046-11.952 0-12.406l-.094-.844q3.263-.841 4.938-2.094Q6.53-16.61 7.75-19.047l.75-.094L11.11 0ZM-.937 0v-4.672h11.39V0Zm0 0"/><path id="q" d="M0 0v-37.328c0-.688-.125-1.617-.375-2.797a10.4 10.4 0 0 0-1.39-3.406q-1.032-1.64-2.907-2.39v-.75q3.362-.373 5.219-1.345c1.25-.656 2.375-1.757 3.375-3.312h.75v46.656q3.077.002 3.922-2.797h.734q.375 3.361 1.594 4.766c.812.93 1.836 1.578 3.078 1.953V0Zm0 0"/><path id="r" d="M294.094 0v-4.672h5.61V0ZM287 0v-4.672h4.11L295.686 0ZM10.266-9.328l2.328-19.984.844.093q1.31 2.532 2.984 3.703c1.125.774 2.742 1.438 4.86 2v.75q-2.05.456-3.266 2c-.813 1.024-1.407 2.094-1.782 3.22q-.549 1.687-.734 2.702l-.469 4.766Zm0 0L13.063-14h280.75l-2.704 4.672ZM295.688 0l-5.422-4.672-.657-4.656L293.813-14ZM0 0v-.75q2.326-1.575 3.313-3.39c.656-1.22 1.109-2.946 1.359-5.188h.734q.748 1.861 2.422 2.89 1.686 1.032 3.406 1.407 1.736.362 2.766.36h274.688L293.344 0Zm0 0"/><path id="s" d="M3.547 0c-1 0-1.844-.336-2.531-1.016C.336-1.703 0-2.546 0-3.546 0-4.485.336-5.29 1.016-5.97Q2.046-6.999 3.546-7 4.952-7 5.97-5.969 6.999-4.95 7-3.547q0 1.5-1.031 2.531C5.289-.336 4.484 0 3.547 0m0 0"/><path id="t" d="M9.516 0v-4.672h5.609V0ZM6.438 0 5.78-4.672q-.093-1.013-.703-2.687-.595-1.687-1.812-3.141Q2.046-11.952 0-12.406l-.094-.844q3.263-.841 4.938-2.094Q6.53-16.61 7.75-19.047l.75-.094L11.11 0ZM-.937 0v-4.672h11.39V0Zm0 0"/><path id="u" d="M0 0v-37.328c0-.688-.125-1.617-.375-2.797a10.4 10.4 0 0 0-1.39-3.406q-1.032-1.64-2.907-2.39v-.75q3.362-.373 5.219-1.345c1.25-.656 2.375-1.757 3.375-3.312h.75V0Zm-.937 0v-4.672h5.609V0Zm0 0"/><path id="w" d="M15.64 0c-1.21 0-2.23-.414-3.062-1.25-.836-.832-1.25-1.852-1.25-3.062 0-1.125.414-2.102 1.25-2.938q1.247-1.249 3.063-1.25 1.7.001 2.937 1.25 1.249 1.252 1.25 2.938-.001 1.814-1.25 3.062C17.754-.414 16.773 0 15.641 0M4.314 0C3.101 0 2.082-.414 1.25-1.25.414-2.082 0-3.102 0-4.312 0-5.437.414-6.414 1.25-7.25Q2.497-8.499 4.313-8.5c1.125 0 2.101.418 2.937 1.25Q8.499-5.998 8.5-4.312 8.499-2.498 7.25-1.25C6.414-.414 5.438 0 4.313 0m0 0"/><path id="x" d="M23.344-2.719q-2.267-8.731-6.86-15.406-4.581-6.686-11.953-11.906l3.407-4.532q8.045 5.784 13.203 13.266 5.156 7.47 7.64 17.219ZM4.188 0v-4.078l.906-1.594H34V0ZM9.64-2.719l-5.453-1.36A30.7 30.7 0 0 1 8.718-14q3.187-4.592 9.079-7.422l2.484 5.219q-4.532 2.156-6.968 5.61-2.44 3.455-3.673 7.873m1.922-21.422q-2.83-2.823-5.72-4.078-2.894-1.249-5.155-.687l-.454-1.125Q3.621-31.28 6-33.594q2.391-2.327 3.516-5.843l1.25.453q-.564 2.156.672 5.109 1.247 2.94 4.093 5.766Zm0 0"/><path id="y" d="M4.313 0C3.101 0 2.082-.414 1.25-1.25.414-2.082 0-3.102 0-4.312 0-5.437.414-6.414 1.25-7.25Q2.497-8.499 4.313-8.5c1.125 0 2.101.418 2.937 1.25Q8.499-5.998 8.5-4.312 8.499-2.498 7.25-1.25C6.414-.414 5.438 0 4.313 0m0 0"/><path id="z" d="M7.813 0 7.03-5.672c-.086-.82-.37-1.914-.86-3.281a12.5 12.5 0 0 0-2.2-3.797Q2.497-14.497 0-15.078l-.11-1.016q3.968-1.012 6-2.547 2.046-1.53 3.516-4.484l.906-.11L13.485 0Zm-8.954 0v-5.672h13.829V0Zm0 0"/><path id="A" d="M0 0v-45.328c0-.832-.148-1.969-.453-3.406q-.45-2.156-1.703-4.141-1.248-1.981-3.516-2.89v-.907q4.08-.451 6.344-1.64 2.279-1.186 4.094-4.016h.906v56.656h5.656V0Zm0 0"/><path id="B" d="M-1.14 0v-5.672h3.406V0Zm0 0"/><path id="C" d="M11.547 0v-5.672h6.812V0ZM7.812 0l-.78-5.672q-.13-1.23-.86-3.281a12.5 12.5 0 0 0-2.203-3.797Q2.497-14.497 0-15.078l-.11-1.016q3.968-1.012 6-2.547 2.046-1.53 3.516-4.484l.906-.11L13.485 0ZM-1.14 0v-5.672h13.829V0Zm0 0"/><path id="D" d="m5.672-11.328 25.047-33.219 5.203 2.281-23.344 30.938ZM-1.141 0v-5.672H83.75V0Zm13.047-11.328V-17H81.72v5.672ZM81.375 0l-2.266-17h5.782l2.265 17ZM30.938-38.984l-3.844-2.953c-.688-.532-1.696-1.098-3.016-1.704q-1.987-.901-4.312-1.125-2.314-.233-4.47 1.125l-.671-.562q2.029-3.514 2.422-6.063.404-2.543-.735-5.718l.579-.688 19.03 14.406Zm0 0"/><path id="E" d="M40.219 0v-5.672h9.078V0ZM13.594 11.11Q6.34 10.874 3.172 9.233-.002 7.594 0 2.828q-.002-4.981 4.531-6.734Q9.061-5.671 17-5.672h5.672V0H17c-4.156 0-7.086.113-8.781.344Q5.67.683 5.672 2.828q-.002 1.032.906 1.594.904.562 3.5.844 2.607.28 7.703.343c3.407.04 7.867.063 13.39.063V9.75q-4.204.668-8.233 1.063-4.019.403-9.344.296m30.953.906a356 356 0 0 1-3.469-5.953 156 156 0 0 0-4.812-7.875 83 83 0 0 0-5.891-7.985q-3.176-3.795-6.516-6.172-3.344-2.39-6.625-2.39l-.687-.688q1.922-2.824 2.484-5.437.575-2.607.125-4.985l.672-.672a68 68 0 0 1 10.031 9.516q4.594 5.332 8.266 10.938Q41.811-4.077 44.641.797a435 435 0 0 1 4.656 8.156ZM17 0v-5.672h23.797V0Zm0 0"/><path id="G" d="M13.594 11.11Q6.34 10.874 3.172 9.233-.002 7.594 0 2.828q-.002-4.981 4.531-6.734Q9.061-5.671 17-5.672h5.672V0H17c-4.156 0-7.086.113-8.781.344Q5.67.683 5.672 2.828q-.002 1.032.906 1.594.904.562 3.5.844 2.607.28 7.703.343c3.407.04 7.867.063 13.39.063V9.75q-4.204.668-8.233 1.063-4.019.403-9.344.296m30.953.906a356 356 0 0 1-3.469-5.953 156 156 0 0 0-4.812-7.875 83 83 0 0 0-5.891-7.985q-3.176-3.795-6.516-6.172-3.344-2.39-6.625-2.39l-.687-.688q1.922-2.824 2.484-5.437.575-2.607.125-4.985l.672-.672a68 68 0 0 1 10.031 9.516q4.594 5.332 8.266 10.938Q41.811-4.077 44.641.797a435 435 0 0 1 4.656 8.156ZM17 0v-5.672h23.797V0Zm0 0"/><path id="H" d="M13.594 11.11Q6.34 10.874 3.172 9.233-.002 7.594 0 2.828q-.002-4.981 4.531-6.734Q9.061-5.671 17-5.672h31.172V0H17c-4.156 0-7.086.113-8.781.344Q5.67.683 5.672 2.828q-.002 1.032.906 1.594.904.562 3.5.844 2.607.28 7.703.343c3.407.04 7.867.063 13.39.063V9.75q-4.204.668-8.233 1.063-4.019.403-9.344.296M23.797-2.829v-2.844q-.002-3.058 1.015-6.562a23 23 0 0 1 3.172-6.625c1.438-2.082 3.305-3.786 5.61-5.11q3.467-1.982 8.218-1.984l.579.797q-.346 2.156-.235 3.797c.07 1.093.188 2.547.344 4.359l-.562.453q-2.05-2.044-4.376-1.984-2.314.065-4.359 1.531-2.378 1.706-3.625 5.047-1.252 3.345-1.25 6.281v2.844Zm-1.125 0v-2.844q-.001-2.935-1.25-6.281-1.253-3.341-3.625-5.047-2.05-1.466-4.375-1.531-2.314-.061-4.36 1.984L8.5-17q.234-2.718.344-4.36.105-1.64-.235-3.796l.579-.797c3.164 0 5.898.664 8.203 1.984q3.467 1.986 5.609 5.11a22.6 22.6 0 0 1 3.172 6.625q1.03 3.504 1.031 6.562v2.844Zm0 0"/><path id="I" d="M15.297-2.828v-2.844q-.002-3.058 1.015-6.562a23 23 0 0 1 3.172-6.625c1.438-2.082 3.305-3.786 5.61-5.11q3.467-1.982 8.218-1.984l.579.797q-.346 2.156-.235 3.797c.07 1.093.188 2.547.344 4.359l-.562.453q-2.05-2.044-4.376-1.984-2.314.065-4.359 1.531-2.378 1.706-3.625 5.047-1.252 3.345-1.25 6.281v2.844Zm-1.125 0v-2.844q-.001-2.935-1.25-6.281Q11.669-15.294 9.297-17q-2.05-1.466-4.375-1.531-2.314-.061-4.36 1.984L0-17q.234-2.718.344-4.36.105-1.64-.235-3.796l.579-.797c3.164 0 5.898.664 8.203 1.984q3.467 1.986 5.609 5.11a22.6 22.6 0 0 1 3.172 6.625q1.03 3.504 1.031 6.562v2.844ZM-1.141 0v-5.672h9.079V0Zm8.047 0v-5.672h9.078V0Zm7.813 0v-5.672h9.078V0Zm7.937 0v-5.672h9.078V0Zm7.938 0v-5.672h9.078V0Zm0 0"/><path id="J" d="M4.313 0C3.101 0 2.082-.414 1.25-1.25.414-2.082 0-3.102 0-4.312 0-5.437.414-6.414 1.25-7.25Q2.497-8.499 4.313-8.5c1.125 0 2.101.418 2.937 1.25Q8.499-5.998 8.5-4.312 8.499-2.498 7.25-1.25C6.414-.414 5.438 0 4.313 0m0 0"/><path id="K" d="M85.219 0v-5.672h6.812V0ZM61.313 0v-5.672h19.39Q79.56-14.84 77.86-19.656q-1.688-4.828-4.53-4.828-1.126 0-2.61 1.812-1.47 1.815-2.031 5.563H80.14v5.656H65.28c-.906 0-1.625-.242-2.156-.735q-.784-.732-.672-2.203.232-4.982 1.813-8.5c1.062-2.343 2.398-4.132 4.015-5.375q2.436-1.875 5.047-1.875 3.621.002 6 2.328 2.39 2.316 3.86 6.454 1.483 4.127 2.328 9.578.841 5.439 1.53 11.781ZM0 0v-.906q2.826-1.921 4.016-4.125 1.2-2.217 1.656-6.297h.906q.904 2.268 2.938 3.515 2.044 1.237 4.14 1.688c1.395.305 2.508.453 3.344.453h63.688L86.359 0Zm0 0"/><path id="L" d="M22.766 0v-5.672h6.812V0ZM-1.141 0v-5.672H18.25q-1.143-9.168-2.844-13.984-1.688-4.828-4.531-4.828-1.126 0-2.61 1.812-1.47 1.815-2.03 5.563h11.453v5.656H2.828c-.906 0-1.625-.242-2.156-.735C.148-12.675-.07-13.41 0-14.39q.232-4.982 1.813-8.5 1.591-3.512 4.015-5.375 2.436-1.875 5.047-1.875 3.621.002 6 2.328 2.39 2.316 3.86 6.454 1.483 4.127 2.328 9.578.842 5.439 1.53 11.781Zm0 0"/><path id="M" d="M39.094 0v-5.672h9.078V0Zm4.312 12.016a300 300 0 0 1-3.453-5.953 151 151 0 0 0-4.828-7.875 83 83 0 0 0-5.89-7.985q-3.177-3.795-6.516-6.172-3.345-2.39-6.625-2.39l-.688-.688q1.936-2.824 2.5-5.437.561-2.607.11-4.985l.687-.672a67.7 67.7 0 0 1 10.016 9.516Q33.31-15.293 37-9.687q3.686 5.61 6.516 10.484a435 435 0 0 1 4.656 8.156ZM0 0v-.906q2.826-1.921 4.016-4.125 1.2-2.217 1.656-6.297h.906q.904 2.268 2.938 3.515 2.044 1.237 4.14 1.688c1.395.305 2.508.453 3.344.453h22.672V0Zm0 0"/><path id="N" d="M43.406 12.016a300 300 0 0 1-3.453-5.953 151 151 0 0 0-4.828-7.875 83 83 0 0 0-5.89-7.985q-3.177-3.795-6.516-6.172-3.345-2.39-6.625-2.39l-.688-.688q1.936-2.824 2.5-5.437.561-2.607.11-4.985l.687-.672a67.7 67.7 0 0 1 10.016 9.516Q33.31-15.293 37-9.687q3.686 5.61 6.516 10.484a435 435 0 0 1 4.656 8.156ZM0 0v-.906q2.826-1.921 4.016-4.125 1.2-2.217 1.656-6.297h.906q.904 2.268 2.938 3.515 2.044 1.237 4.14 1.688c1.395.305 2.508.453 3.344.453h22.672V0Zm0 0"/><path id="O" d="M13.594 11.11Q6.34 10.874 3.172 9.233-.002 7.594 0 2.828q-.002-4.981 4.531-6.734Q9.061-5.671 17-5.672h31.172V0H17c-4.156 0-7.086.113-8.781.344Q5.67.683 5.672 2.828q-.002 1.032.906 1.594.904.562 3.5.844 2.607.28 7.703.343c3.407.04 7.867.063 13.39.063V9.75q-4.204.668-8.233 1.063-4.019.403-9.344.296M23.797-2.829v-2.844q0-3.622 1.125-7.015 1.137-3.405 3.125-6.235 1.98-2.842 4.594-4.484a10.45 10.45 0 0 1 5.672-1.64q1.685 0 2.937 1.25 1.249 1.251 1.25 2.937-.001 1.815-1.25 3.062c-.836.836-1.812 1.25-2.937 1.25-1.512 0-2.684-.601-3.516-1.812q-3.065 1.813-4.766 5.328a16.66 16.66 0 0 0-1.703 7.36v2.843Zm-1.125 0v-2.844q-.002-3.843-1.703-7.36-1.706-3.512-4.766-5.327-1.254 1.814-3.515 1.812-1.69.002-2.938-1.25c-.836-.832-1.25-1.851-1.25-3.062 0-1.125.414-2.102 1.25-2.938q1.25-1.249 2.938-1.25 3.059 0 5.671 1.64 2.608 1.642 4.594 4.485a23.9 23.9 0 0 1 3.11 6.235 22 22 0 0 1 1.14 7.015v2.844Zm0 0"/><path id="P" d="M15.297-2.828v-2.844q0-3.622 1.125-7.015 1.137-3.405 3.125-6.235 1.98-2.842 4.594-4.484a10.45 10.45 0 0 1 5.672-1.64c1.125 0 2.101.417 2.937 1.25q1.249 1.251 1.25 2.937-.001 1.815-1.25 3.062c-.836.836-1.812 1.25-2.937 1.25-1.512 0-2.684-.601-3.516-1.812q-3.065 1.813-4.766 5.328a16.66 16.66 0 0 0-1.703 7.36v2.843Zm-1.125 0v-2.844q-.002-3.843-1.703-7.36-1.707-3.512-4.766-5.327-1.254 1.814-3.516 1.812-1.688.002-2.937-1.25C.414-18.629 0-19.648 0-20.859c0-1.125.414-2.102 1.25-2.938q1.25-1.249 2.938-1.25 3.059 0 5.671 1.64 2.608 1.642 4.594 4.485a23.9 23.9 0 0 1 3.11 6.235 22 22 0 0 1 1.14 7.015v2.844ZM-1.141 0v-5.672h9.079V0Zm8.047 0v-5.672h9.078V0Zm7.813 0v-5.672h9.078V0Zm7.937 0v-5.672h9.078V0Zm7.938 0v-5.672h9.078V0Zm0 0"/><path id="Q" d="M86.36-20.406q0 2.72-1.36 4.984a10.56 10.56 0 0 1-3.578 3.625c-1.469.906-3.149 1.36-5.031 1.36q-2.72 0-5-1.36a9.9 9.9 0 0 1-3.563-3.625q-1.299-2.264-1.297-4.984-.002-2.718 1.297-4.985a9.45 9.45 0 0 1 3.563-3.562q2.28-1.313 5-1.313c1.882 0 3.562.438 5.03 1.313A10.1 10.1 0 0 1 85-25.391q1.36 2.267 1.36 4.985M79.218-4.078h-5.672v-9.078h5.672Zm1.469-16.328q-.001-1.7-1.25-2.938-1.237-1.249-3.047-1.25-1.705.001-2.954 1.25-1.251 1.237-1.25 2.938-.001 1.815 1.25 3.062 1.249 1.252 2.954 1.25 1.81.002 3.046-1.25 1.25-1.247 1.25-3.062M65.39 0v-5.672h9.078V0Zm8.843 0v-5.672h9.079V0Zm8.72 0v-5.672h9.077V0ZM0 0v-.906q2.826-1.921 4.016-4.125 1.2-2.217 1.656-6.297h.906q.904 2.268 2.938 3.515 2.044 1.237 4.14 1.688c1.395.305 2.508.453 3.344.453h63.688L86.359 0Zm0 0"/><path id="R" d="M19.828-20.406q0 2.72-1.36 4.984a10.56 10.56 0 0 1-3.577 3.625q-2.206 1.36-5.032 1.36-2.719 0-5-1.36a9.9 9.9 0 0 1-3.562-3.625Q-.002-17.686 0-20.406q-.002-2.718 1.297-4.985a9.45 9.45 0 0 1 3.562-3.562q2.281-1.313 5-1.313 2.826 0 5.032 1.313a10.1 10.1 0 0 1 3.578 3.562q1.36 2.267 1.36 4.985m-7.14 16.328H7.016v-9.078h5.672Zm1.468-16.328q-.001-1.7-1.25-2.938-1.236-1.249-3.047-1.25-1.704.001-2.953 1.25-1.252 1.237-1.25 2.938-.002 1.815 1.25 3.062 1.249 1.252 2.953 1.25 1.81.002 3.047-1.25 1.249-1.247 1.25-3.062M-1.14 0v-5.672h9.079V0Zm8.844 0v-5.672h9.078V0Zm8.719 0v-5.672H25.5V0Zm0 0"/><path id="X" d="M32.86 0v-5.672h6.812V0ZM0 14.172v-.906q2.263-.692 3.734-2.391C4.723 9.75 5.367 7.82 5.672 5.094h.906Q7.591 8.5 11.328 8.5h17v-53.828q0-1.25-.453-3.406a13.5 13.5 0 0 0-1.64-4.141q-1.19-1.981-3.563-2.89v-.907q4.077-.451 6.344-1.64 2.261-1.186 4.078-4.016H34v76.5Zm0 0"/><path id="Y" d="M0 14.172v-.906q2.263-.692 3.734-2.391C4.723 9.75 5.367 7.82 5.672 5.094h.906Q7.591 8.5 11.328 8.5h17v-53.828q0-1.25-.453-3.406a13.5 13.5 0 0 0-1.64-4.141q-1.19-1.981-3.563-2.89v-.907q4.077-.451 6.344-1.64 2.261-1.186 4.078-4.016H34v76.5Zm0 0"/><path id="Z" d="M0 0v-.906q2.826-1.921 4.016-4.125 1.2-2.217 1.656-6.297h.906q.904 2.268 2.938 3.515 2.044 1.237 4.14 1.688c1.395.305 2.508.453 3.344.453h5.672V0Zm32.188 7.14q-2.721 0-4.985-1.359a10.56 10.56 0 0 1-3.625-3.578q-1.36-2.202-1.36-5.031 0-2.718 1.36-4.985a9.9 9.9 0 0 1 3.625-3.578q2.264-1.295 4.985-1.296 2.717 0 4.984 1.296a9.47 9.47 0 0 1 3.562 3.579q1.313 2.265 1.313 4.984 0 2.829-1.313 5.031a10.1 10.1 0 0 1-3.562 3.578q-2.267 1.36-4.984 1.36M15.859 0v-5.672h9.079V0Zm16.328 1.469q1.7-.001 2.938-1.25 1.249-1.23 1.25-3.047-.001-1.7-1.25-2.953-1.237-1.249-2.937-1.25-1.816.001-3.063 1.25-1.252 1.254-1.25 2.953-.002 1.815 1.25 3.047 1.247 1.249 3.063 1.25m0 0"/><path id="aa" d="M37.734 22.672c-3.398 0-6.289-.555-8.672-1.656q-3.564-1.64-6.062-4.36a30.5 30.5 0 0 1-4.297-6.062 163 163 0 0 1-3.515-6.86L17.562 0q2.155 4.765 4.813 8.61 2.67 3.856 6.406 6.124 3.75 2.264 8.953 2.266c3.25 0 6.313-.852 9.188-2.547q4.31-2.548 7.25-6.86c1.969-2.874 3.21-6.128 3.734-9.75l.125 8.954-9.64-23.906 5.562-1.485 6.688 16.547c.218.531.398 1.086.547 1.656a6.5 6.5 0 0 1 .234 1.75c0 2.188-.606 4.524-1.813 7.016q-1.813 3.75-5.047 6.984-3.22 3.234-7.53 5.266-4.301 2.046-9.298 2.047M5.672 11.328q-.457-4.08-1.656-6.344Q2.826 2.718 0 .906V0h17.688v4.531c-1.063 0-2.352.242-3.86.735a15.6 15.6 0 0 0-4.312 2.203 8.33 8.33 0 0 0-2.938 3.86Zm46.344-24.14L48.39-17.11l13.828-11.563 1.015 6.453ZM67.546 0l-9.062-22.547 3.735-6.125L73.672 0Zm0 0"/><path id="ab" d="M32.86 0v-5.672h6.812V0ZM0 0v-.906q2.263-.687 3.734-2.375c.989-1.133 1.633-3.063 1.938-5.781h.906q1.013 3.39 4.75 3.39h17v-39.656q0-1.25-.453-3.406a13.5 13.5 0 0 0-1.64-4.141q-1.19-1.981-3.563-2.89v-.907q4.077-.451 6.344-1.64 2.261-1.186 4.078-4.016H34V0Zm0 0"/><path id="ac" d="M0 0v-.906q2.263-.687 3.734-2.375c.989-1.133 1.633-3.063 1.938-5.781h.906q1.013 3.39 4.75 3.39h17v-39.656q0-1.25-.453-3.406a13.5 13.5 0 0 0-1.64-4.141q-1.19-1.981-3.563-2.89v-.907q4.077-.451 6.344-1.64 2.261-1.186 4.078-4.016H34V0Zm0 0"/><path id="ad" d="M55.531 0v-5.672h6.813V0ZM0 0v-.906q2.826-1.921 4.016-4.125 1.2-2.217 1.656-6.297h.906q1.576 1.69 4.578 2.828a36.3 36.3 0 0 0 6.469 1.766q3.45.609 6.39.843 2.954.222 4.313.22h9.078V0Zm47.266 7.14q-2.72 0-5-1.359a10.56 10.56 0 0 1-3.625-3.578Q37.28.001 37.28-2.828q0-2.718 1.36-4.985a9.9 9.9 0 0 1 3.625-3.578q2.28-1.295 5-1.296 2.717 0 4.984 1.296a9.47 9.47 0 0 1 3.563 3.579q1.311 2.265 1.312 4.984 0 2.829-1.312 5.031a10.1 10.1 0 0 1-3.563 3.578q-2.267 1.36-4.984 1.36M30.938 0v-5.672H40V0Zm16.328 1.469c1.125 0 2.101-.418 2.937-1.25q1.249-1.23 1.25-3.047-.001-1.7-1.25-2.953c-.836-.832-1.812-1.25-2.937-1.25q-1.815.001-3.063 1.25-1.252 1.254-1.25 2.953-.002 1.815 1.25 3.047 1.247 1.249 3.063 1.25m0 0"/><path id="ae" d="M0 0v-.906q2.826-1.921 4.016-4.125 1.2-2.217 1.656-6.297h.906q1.576 1.69 4.578 2.828a36.3 36.3 0 0 0 6.469 1.766q3.45.609 6.39.843 2.954.222 4.313.22h9.078V0Zm47.266 7.14q-2.72 0-5-1.359a10.56 10.56 0 0 1-3.625-3.578Q37.28.001 37.28-2.828q0-2.718 1.36-4.985a9.9 9.9 0 0 1 3.625-3.578q2.28-1.295 5-1.296 2.717 0 4.984 1.296a9.47 9.47 0 0 1 3.563 3.579q1.311 2.265 1.312 4.984 0 2.829-1.312 5.031a10.1 10.1 0 0 1-3.563 3.578q-2.267 1.36-4.984 1.36M30.938 0v-5.672H40V0Zm16.328 1.469c1.125 0 2.101-.418 2.937-1.25q1.249-1.23 1.25-3.047-.001-1.7-1.25-2.953c-.836-.832-1.812-1.25-2.937-1.25q-1.815.001-3.063 1.25-1.252 1.254-1.25 2.953-.002 1.815 1.25 3.047 1.247 1.249 3.063 1.25m0 0"/><path id="af" d="M6.578 0v-5.672H51c.832 0 1.96-.148 3.39-.453q2.156-.45 4.141-1.687 1.981-1.249 2.89-3.516h.907q.451 4.08 1.64 6.297Q65.17-2.83 68-.906V0ZM0 0l10.313-19.828 3.734 5.656L6.578 0Zm11.11-14.172-.797-5.656h22.671l6.797 5.656Zm28.671 0-7.703-1.812-5.89-9.282q-.69-1.137-2.22-2.609-1.533-1.481-3.687-2.5c-1.43-.676-2.937-.828-4.531-.453l-.453-.797q3.058-2.609 4.312-4.812 1.249-2.204 1.25-5.72l.782-.343Zm0 0"/><path id="S" d="m17.875.953 2.531-2.812-12-11.22h26.282v-4.015H8.406l12-11.218-2.531-2.829L1.563-15.234V-15Zm0 0"/><path id="T" d="M14.094 0a218 218 0 0 0-3.64-20.156 184 184 0 0 0-5.782-19.985L8.859-42a183 183 0 0 1 6.063 20.438 202 202 0 0 1 3.75 20.625Zm0 0"/><path id="U" d="M23.328-41.531H28q0 4.019-1.594 7.093-1.579 3.08-4.25 4.766-2.659 1.674-5.922 1.672a10.66 10.66 0 0 1-4.953-1.203 11.6 11.6 0 0 1-3.906-3.281l3.734-2.797q.561 1.218 1.86 1.922 1.31.688 2.89.687 1.686.002 3.407-.875c1.156-.594 2.117-1.539 2.89-2.844q1.173-1.966 1.172-5.14M14.094 0a218 218 0 0 0-3.64-20.156 184 184 0 0 0-5.782-19.985L8.859-42a183 183 0 0 1 6.063 20.438 202 202 0 0 1 3.75 20.625Zm0 0"/><path id="V" d="M14.094-29.86c-1.805 0-3.39-.57-4.766-1.718q-2.049-1.734-3.172-4.36l4.11-1.953c.437.993.976 1.797 1.625 2.422q.984.938 2.578.938 1.576.002 2.89-1.953 1.313-1.968 1.313-5.047h4.656c0 2.117.406 3.812 1.219 5.093.812 1.274 1.805 1.907 2.984 1.907 1.188 0 2.18-.649 2.985-1.953q1.218-1.968 1.218-5.047h4.672q0 3.08-1.078 5.734c-.719 1.774-1.734 3.203-3.047 4.297q-1.955 1.64-4.656 1.64-2.05 0-3.734-.984c-1.118-.656-2.078-1.57-2.891-2.75a8.6 8.6 0 0 1-3.047 2.75 8 8 0 0 1-3.86.985m0 29.86a218 218 0 0 0-3.64-20.156A184 184 0 0 0 4.671-40.14L8.859-42a183 183 0 0 1 6.063 20.438 202 202 0 0 1 3.75 20.625Zm0 0"/><path id="W" d="M27.438 0 14-3.078c-1.742-.438-2.937-1.18-3.594-2.234q-.984-1.592-.047-4.016l4.11-10.266L7.75-21.75q-1.969-.654-2.812-2.234-.832-1.593.375-4.016l6.921-14 4.188 2.047-6.813 13.906 6.438 2.063q2.154.656 2.89 2.25.75 1.58-.078 3.718L14.937-7.938l13.532 3.36Zm0 0"/><path id="ag" d="M16.328-11.672q-5.595.002-8.625-3.031-3.033-3.03-3.031-8.625c0-1.125.21-2.352.64-3.688q.657-2.013 2.016-3.828 1.357-1.825 3.594-2.984Q13.153-35 16.328-35q3.169 0 5.406 1.172 2.249 1.158 3.594 2.984 1.359 1.815 2.016 3.828.656 2.002.656 3.688-.001 5.595-3.031 8.625-3.035 3.033-8.64 3.031m0-4.656q3.544.001 5.266-1.625c1.156-1.094 1.734-2.883 1.734-5.375q0-1.498-.703-3.078-.689-1.592-2.187-2.75c-.993-.782-2.36-1.172-4.11-1.172-1.68 0-3.031.39-4.062 1.172-1.024.773-1.766 1.687-2.235 2.75q-.703 1.58-.703 3.078c0 2.492.586 4.281 1.766 5.375q1.78 1.627 5.234 1.625m0 0"/><path id="ah" d="M30.14 0c-2.18-6.281-3.78-12.812-4.812-19.594q-1.533-10.17-1.719-19.328L28-42q.186 9.516 1.625 19.875a104 104 0 0 0 4.906 20.172Zm-3.546-36.86q-5.409 1.018-10.969.876-5.55-.14-10.953-1.344V-42a54.4 54.4 0 0 0 11.656 1.36A47.6 47.6 0 0 0 28-42Zm0 0"/><path id="ai" d="M18.672 0a238 238 0 0 0-6.125-20.672 304 304 0 0 0-7.875-20.39l4.094-1.782A263 263 0 0 1 16.89-22.03 260 260 0 0 1 23.14-.937h-4.282q2.607-10.454 6.25-21.094a260 260 0 0 1 8.125-20.813l4.094 1.782a300 300 0 0 0-7.875 20.39A237 237 0 0 0 23.328 0Zm0 0"/></defs><path d="M-108-67.5h1296v810H-108z"/><use xlink:href="#a" x="96.946" y="86.499" fill="#fcee21"/><use xlink:href="#b" x="90.996" y="123.809" fill="#fcee21"/><use xlink:href="#c" x="266.346" y="135.5" fill="#fcee21"/><g fill="#fcee21"><use xlink:href="#d" x="118.996" y="123.809"/><use xlink:href="#e" x="422.866" y="123.809"/><use xlink:href="#f" x="437.986" y="123.809"/><use xlink:href="#g" x="461.296" y="123.809"/></g><use xlink:href="#c" x="463.396" y="135.5" fill="#fcee21"/><use xlink:href="#h" x="470.676" y="123.809" fill="#fcee21"/><use xlink:href="#a" x="478.026" y="97.7" fill="#fcee21"/><use xlink:href="#h" x="482.996" y="123.809" fill="#fcee21"/><use xlink:href="#i" x="500.986" y="91.12" fill="#fcee21"/><g fill="#fcee21"><use xlink:href="#j" x="498.116" y="123.809"/><use xlink:href="#k" x="523.806" y="123.809"/><use xlink:href="#l" x="556.496" y="123.809"/></g><use xlink:href="#m" x="575.186" y="123.809" fill="#fcee21"/><use xlink:href="#n" x="579.876" y="123.809" fill="#fcee21"/><use xlink:href="#o" x="607.526" y="97.7" fill="#fcee21"/><g fill="#fcee21"><use xlink:href="#p" x="612.496" y="123.809"/><use xlink:href="#q" x="627.616" y="123.809"/><use xlink:href="#r" x="646.306" y="123.809"/></g><use xlink:href="#s" x="947.096" y="135.5" fill="#fcee21"/><g fill="#fcee21"><use xlink:href="#t" x="945.976" y="123.809"/><use xlink:href="#u" x="961.096" y="123.809"/><use xlink:href="#q" x="970.406" y="123.809"/></g><use xlink:href="#v" x="805.551" y="307.166" fill="#fff"/><use xlink:href="#v" x="806.163" y="307.166" fill="#fff"/><use xlink:href="#w" x="819.066" y="261.861" fill="#fff"/><use xlink:href="#x" x="811.841" y="307.166" fill="#fff"/><use xlink:href="#y" x="847.201" y="321.361" fill="#fff"/><g fill="#fff"><use xlink:href="#z" x="845.841" y="307.166"/><use xlink:href="#A" x="864.201" y="307.166"/></g><use xlink:href="#w" x="871.766" y="275.461" fill="#fff"/><g fill="#fff"><use xlink:href="#B" x="875.506" y="307.166"/><use xlink:href="#C" x="877.801" y="307.166"/><use xlink:href="#D" x="896.161" y="307.166"/></g><use xlink:href="#E" x="830.881" y="409.166" fill="#fff"/><use xlink:href="#F" x="880.181" y="409.166" fill="#fff"/><g fill="#fff"><use xlink:href="#v" x="880.181" y="409.166"/><use xlink:href="#v" x="885.876" y="409.166"/><use xlink:href="#v" x="891.571" y="409.166"/><use xlink:href="#v" x="897.266" y="409.166"/><use xlink:href="#v" x="902.961" y="409.166"/><use xlink:href="#v" x="908.656" y="409.166"/><use xlink:href="#v" x="914.351" y="409.166"/><use xlink:href="#G" x="920.046" y="409.166"/></g><use xlink:href="#H" x="830.626" y="511.166" fill="#fff"/><use xlink:href="#F" x="878.821" y="511.166" fill="#fff"/><g fill="#fff"><use xlink:href="#v" x="878.821" y="511.166"/><use xlink:href="#v" x="884.516" y="511.166"/><use xlink:href="#v" x="890.211" y="511.166"/><use xlink:href="#v" x="895.906" y="511.166"/><use xlink:href="#v" x="901.601" y="511.166"/><use xlink:href="#v" x="907.296" y="511.166"/><use xlink:href="#v" x="912.991" y="511.166"/><use xlink:href="#v" x="918.686" y="511.166"/><use xlink:href="#v" x="924.381" y="511.166"/></g><use xlink:href="#F" x="930.076" y="511.166" fill="#fff"/><use xlink:href="#I" x="929.821" y="511.166" fill="#fff"/><use xlink:href="#F" x="969.516" y="511.166" fill="#fff"/><use xlink:href="#J" x="893.356" y="573.471" fill="#fff"/><use xlink:href="#K" x="825.101" y="613.166" fill="#fff"/><use xlink:href="#F" x="917.156" y="613.166" fill="#fff"/><use xlink:href="#v" x="917.156" y="613.166" fill="#fff"/><use xlink:href="#F" x="922.851" y="613.166" fill="#fff"/><g fill="#fff"><use xlink:href="#v" x="922.851" y="613.166"/><use xlink:href="#v" x="928.546" y="613.166"/><use xlink:href="#v" x="934.241" y="613.166"/><use xlink:href="#v" x="939.936" y="613.166"/></g><use xlink:href="#F" x="945.631" y="613.166" fill="#fff"/><use xlink:href="#J" x="951.326" y="573.471" fill="#fff"/><use xlink:href="#L" x="945.546" y="613.166" fill="#fff"/><use xlink:href="#F" x="975.126" y="613.166" fill="#fff"/><use xlink:href="#v" x="581.491" y="307.166" fill="#fff"/><g fill="#fff"><use xlink:href="#v" x="582.477" y="307.166"/><use xlink:href="#x" x="588.172" y="307.166"/><use xlink:href="#z" x="622.172" y="307.166"/><use xlink:href="#A" x="640.532" y="307.166"/><use xlink:href="#C" x="651.837" y="307.166"/><use xlink:href="#D" x="670.197" y="307.166"/></g><use xlink:href="#M" x="601.551" y="409.166" fill="#fff"/><use xlink:href="#F" x="649.746" y="409.166" fill="#fff"/><g fill="#fff"><use xlink:href="#v" x="649.746" y="409.166"/><use xlink:href="#v" x="655.441" y="409.166"/><use xlink:href="#v" x="661.136" y="409.166"/><use xlink:href="#v" x="666.831" y="409.166"/><use xlink:href="#v" x="672.526" y="409.166"/><use xlink:href="#v" x="678.221" y="409.166"/><use xlink:href="#v" x="683.916" y="409.166"/><use xlink:href="#v" x="689.611" y="409.166"/><use xlink:href="#v" x="695.306" y="409.166"/><use xlink:href="#N" x="701.001" y="409.166"/></g><use xlink:href="#O" x="605.801" y="511.166" fill="#fff"/><use xlink:href="#F" x="653.996" y="511.166" fill="#fff"/><g fill="#fff"><use xlink:href="#v" x="653.996" y="511.166"/><use xlink:href="#v" x="659.691" y="511.166"/><use xlink:href="#v" x="665.386" y="511.166"/><use xlink:href="#v" x="671.081" y="511.166"/><use xlink:href="#v" x="676.776" y="511.166"/><use xlink:href="#v" x="682.471" y="511.166"/><use xlink:href="#v" x="688.166" y="511.166"/><use xlink:href="#v" x="693.861" y="511.166"/><use xlink:href="#v" x="699.556" y="511.166"/></g><use xlink:href="#F" x="705.251" y="511.166" fill="#fff"/><use xlink:href="#P" x="704.996" y="511.166" fill="#fff"/><use xlink:href="#F" x="744.691" y="511.166" fill="#fff"/><use xlink:href="#J" x="674.481" y="573.471" fill="#fff"/><use xlink:href="#Q" x="602.316" y="613.166" fill="#fff"/><use xlink:href="#F" x="694.371" y="613.166" fill="#fff"/><g fill="#fff"><use xlink:href="#v" x="694.371" y="613.166"/><use xlink:href="#v" x="700.066" y="613.166"/><use xlink:href="#v" x="705.761" y="613.166"/><use xlink:href="#v" x="711.456" y="613.166"/><use xlink:href="#v" x="717.151" y="613.166"/></g><use xlink:href="#F" x="722.846" y="613.166" fill="#fff"/><use xlink:href="#J" x="728.371" y="573.471" fill="#fff"/><use xlink:href="#R" x="722.676" y="613.166" fill="#fff"/><use xlink:href="#F" x="748.176" y="613.166" fill="#fff"/><use xlink:href="#S" x="273.93" y="312.745" fill="#fcee21"/><use xlink:href="#S" x="273.93" y="414.745" fill="#fcee21"/><use xlink:href="#S" x="273.93" y="516.745" fill="#fcee21"/><use xlink:href="#S" x="768.93" y="312.745" fill="#fcee21"/><use xlink:href="#S" x="768.93" y="414.745" fill="#fcee21"/><use xlink:href="#S" x="768.93" y="516.745" fill="#fcee21"/><use xlink:href="#S" x="768.93" y="618.745" fill="#fcee21"/><use xlink:href="#T" x="1023.333" y="306" fill="#fcee21"/><use xlink:href="#U" x="1018.643" y="407.99" fill="#fcee21"/><use xlink:href="#V" x="1014.443" y="509.98" fill="#fcee21"/><use xlink:href="#W" x="1018.433" y="611.97" fill="#fcee21"/><use xlink:href="#X" x="317.167" y="307.166" fill="#fff"/><use xlink:href="#F" x="356.862" y="307.166" fill="#fff"/><g fill="#fff"><use xlink:href="#v" x="356.862" y="307.166"/><use xlink:href="#v" x="362.557" y="307.166"/><use xlink:href="#v" x="368.252" y="307.166"/><use xlink:href="#v" x="373.947" y="307.166"/><use xlink:href="#v" x="379.642" y="307.166"/><use xlink:href="#v" x="385.337" y="307.166"/><use xlink:href="#v" x="391.032" y="307.166"/><use xlink:href="#v" x="396.727" y="307.166"/><use xlink:href="#v" x="402.422" y="307.166"/><use xlink:href="#v" x="408.117" y="307.166"/><use xlink:href="#v" x="413.812" y="307.166"/><use xlink:href="#v" x="419.507" y="307.166"/><use xlink:href="#v" x="425.202" y="307.166"/><use xlink:href="#v" x="430.897" y="307.166"/><use xlink:href="#v" x="436.592" y="307.166"/><use xlink:href="#v" x="442.287" y="307.166"/><use xlink:href="#v" x="447.982" y="307.166"/><use xlink:href="#Y" x="453.677" y="307.166"/></g><g fill="#fff"><use xlink:href="#Z" x="315.297" y="409.166"/><use xlink:href="#v" x="362.557" y="409.166"/><use xlink:href="#v" x="368.252" y="409.166"/><use xlink:href="#v" x="373.947" y="409.166"/><use xlink:href="#v" x="379.642" y="409.166"/><use xlink:href="#v" x="385.337" y="409.166"/><use xlink:href="#v" x="391.032" y="409.166"/><use xlink:href="#v" x="396.727" y="409.166"/><use xlink:href="#v" x="402.422" y="409.166"/><use xlink:href="#v" x="408.117" y="409.166"/><use xlink:href="#v" x="413.812" y="409.166"/><use xlink:href="#v" x="419.507" y="409.166"/><use xlink:href="#v" x="425.202" y="409.166"/><use xlink:href="#v" x="430.897" y="409.166"/><use xlink:href="#v" x="436.592" y="409.166"/></g><use xlink:href="#F" x="442.287" y="409.166" fill="#fff"/><g fill="#fff"><use xlink:href="#v" x="441.862" y="409.166"/><use xlink:href="#Z" x="447.557" y="409.166"/></g><use xlink:href="#aa" x="365.362" y="511.166" fill="#fff"/><use xlink:href="#ab" x="92.172" y="307.166" fill="#fff"/><use xlink:href="#F" x="131.867" y="307.166" fill="#fff"/><g fill="#fff"><use xlink:href="#v" x="131.867" y="307.166"/><use xlink:href="#v" x="137.562" y="307.166"/><use xlink:href="#v" x="143.257" y="307.166"/><use xlink:href="#v" x="148.952" y="307.166"/><use xlink:href="#v" x="154.647" y="307.166"/><use xlink:href="#v" x="160.342" y="307.166"/><use xlink:href="#v" x="166.037" y="307.166"/><use xlink:href="#v" x="171.732" y="307.166"/><use xlink:href="#v" x="177.427" y="307.166"/><use xlink:href="#v" x="183.122" y="307.166"/><use xlink:href="#v" x="188.817" y="307.166"/><use xlink:href="#v" x="194.512" y="307.166"/><use xlink:href="#v" x="200.207" y="307.166"/><use xlink:href="#v" x="205.902" y="307.166"/><use xlink:href="#v" x="211.597" y="307.166"/><use xlink:href="#v" x="217.292" y="307.166"/><use xlink:href="#v" x="222.987" y="307.166"/><use xlink:href="#ac" x="228.682" y="307.166"/></g><use xlink:href="#ad" x="92.172" y="409.166" fill="#fff"/><use xlink:href="#F" x="154.477" y="409.166" fill="#fff"/><g fill="#fff"><use xlink:href="#v" x="154.477" y="409.166"/><use xlink:href="#v" x="160.172" y="409.166"/><use xlink:href="#v" x="165.867" y="409.166"/><use xlink:href="#v" x="171.562" y="409.166"/><use xlink:href="#v" x="177.257" y="409.166"/><use xlink:href="#v" x="182.952" y="409.166"/><use xlink:href="#v" x="188.647" y="409.166"/><use xlink:href="#v" x="194.342" y="409.166"/><use xlink:href="#v" x="200.037" y="409.166"/><use xlink:href="#ae" x="205.732" y="409.166"/></g><use xlink:href="#af" x="143.172" y="511.166" fill="#fff"/><use xlink:href="#ag" x="28.667" y="306" fill="#fcee21"/><use xlink:href="#ah" x="25.377" y="407.99" fill="#fcee21"/><use xlink:href="#ai" x="23.977" y="509.98" fill="#fcee21"/><path fill="none" stroke="#ff0" stroke-miterlimit="10" stroke-width="5" d="M540 180v450"/></svg>