<svg xmlns="http://www.w3.org/2000/svg" xmlns:xlink="http://www.w3.org/1999/xlink" width="1440" height="900" viewBox="0 0 1080 675"><defs><path id="a" d="M12.875 0c-.992 0-1.828-.336-2.516-1.016q-1.03-1.03-1.03-2.53 0-1.405 1.03-2.423Q11.39-6.999 12.875-7c.938 0 1.742.344 2.422 1.031q1.03 1.018 1.031 2.422 0 1.5-1.031 2.531C14.617-.336 13.812 0 12.875 0M3.547 0c-1 0-1.844-.336-2.531-1.016C.336-1.703 0-2.546 0-3.546 0-4.485.336-5.29 1.016-5.97Q2.046-6.999 3.546-7 4.952-7 5.97-5.969 6.999-4.95 7-3.547q0 1.5-1.031 2.531C5.289-.336 4.484 0 3.547 0m0 0"/><path id="b" d="M19.234-2.234q-1.876-7.186-5.656-12.688-3.785-5.513-9.844-9.812l2.797-3.735q6.622 4.77 10.875 10.922 4.247 6.16 6.297 14.188ZM3.454 0v-3.36l.75-1.312H28V0Zm4.483-2.234L3.454-3.36a25.4 25.4 0 0 1 3.735-8.172q2.606-3.779 7.468-6.11l2.047 4.297c-2.492 1.18-4.406 2.719-5.75 4.625Q8.95-5.872 7.938-2.234m1.579-17.641c-1.555-1.562-3.125-2.68-4.72-3.36q-2.377-1.03-4.233-.562l-.375-.937c1.863-.688 3.445-1.664 4.75-2.938q1.967-1.92 2.906-4.812l1.015.375q-.457 1.782.563 4.203 1.029 2.424 3.36 4.765Zm0 0"/><path id="c" d="M12.875 0c-.992 0-1.828-.336-2.516-1.016q-1.03-1.03-1.03-2.53 0-1.405 1.03-2.423Q11.39-6.999 12.875-7c.938 0 1.742.344 2.422 1.031q1.03 1.018 1.031 2.422 0 1.5-1.031 2.531C14.617-.336 13.812 0 12.875 0M3.547 0c-1 0-1.844-.336-2.531-1.016C.336-1.703 0-2.546 0-3.546 0-4.485.336-5.29 1.016-5.97Q2.046-6.999 3.546-7 4.952-7 5.97-5.969 6.999-4.95 7-3.547q0 1.5-1.031 2.531C5.289-.336 4.484 0 3.547 0m0 0"/><path id="d" d="M-.937 0v-4.672h307.156V0Zm0 0"/><path id="e" d="M9.516 0v-4.672h5.609V0ZM6.438 0 5.78-4.672q-.093-1.013-.703-2.687-.595-1.687-1.812-3.141Q2.046-11.952 0-12.406l-.094-.844q3.263-.841 4.938-2.094Q6.53-16.61 7.75-19.047l.75-.094L11.11 0ZM-.937 0v-4.672h11.39V0Zm0 0"/><path id="f" d="M-.937 0v-4.672H15.03q-.937-7.56-2.344-11.515c-.93-2.645-2.171-3.97-3.734-3.97q-.924 0-2.14 1.5-1.22 1.488-1.672 4.563h9.422v4.672H2.328q-1.111 0-1.765-.61-.656-.608-.563-1.827c.125-2.727.617-5.055 1.484-6.985q1.31-2.904 3.313-4.437c1.344-1.032 2.726-1.547 4.156-1.547q2.999 0 4.953 1.922 1.953 1.909 3.172 5.312c.813 2.274 1.445 4.903 1.906 7.89Q19.688-5.231 20.25 0Zm0 0"/><path id="g" d="M0 0v-37.328c0-.688-.125-1.617-.375-2.797a10.4 10.4 0 0 0-1.39-3.406q-1.032-1.64-2.907-2.39v-.75q3.362-.373 5.219-1.345c1.25-.656 2.375-1.757 3.375-3.312h.75v46.656h4.656V0Zm0 0"/><path id="h" d="M9.516 0v-4.672h5.609V0Zm1.687 0L5.97-3.172l-1.016-8.781q-.093-1.012-.703-2.688a10.3 10.3 0 0 0-1.828-3.14c-.805-.969-1.895-1.602-3.266-1.907l-.094-.843c2.176-.563 3.82-1.258 4.938-2.094 1.125-.844 2.094-2.07 2.906-3.687l.75-.094ZM-.844 0v-4.672H7.75L11.203 0Zm0 0"/><path id="i" d="M31.734 0v-4.672h5.61V0Zm1.578 0L28-4.672l-.562-4.562c-.063-.688-.297-1.586-.704-2.703a10 10 0 0 0-1.812-3.126q-1.22-1.453-3.266-1.921l-.093-.844c2.175-.563 3.82-1.258 4.937-2.094 1.125-.844 2.094-2.07 2.906-3.687l.735-.094Zm-26.5 0-.656-4.672q-.093-1.013-.703-2.687-.595-1.687-1.812-3.141-1.22-1.452-3.266-1.906l-.094-.844q3.263-.841 4.938-2.094 1.687-1.266 2.906-3.703l.734-.094L11.484 0Zm-7.75 0v-4.672h30.344L33.234 0ZM17.36-1.86l-.656-4.671c-.062-.688-.297-1.586-.703-2.703a10 10 0 0 0-1.812-3.125q-1.22-1.454-3.266-1.922l-.094-.844q3.262-.827 4.938-2.094 1.687-1.263 2.906-3.687l.734-.094 2.625 19.14Zm0 0"/><path id="j" d="M0 0v-37.328c0-.688-.125-1.617-.375-2.797a10.4 10.4 0 0 0-1.39-3.406q-1.032-1.64-2.907-2.39v-.75q3.362-.373 5.219-1.345c1.25-.656 2.375-1.757 3.375-3.312h.75V0Zm-.937 0v-4.672h5.609V0Zm0 0"/><path id="k" d="M0 0v-37.328c0-.688-.125-1.617-.375-2.797a10.4 10.4 0 0 0-1.39-3.406q-1.032-1.64-2.907-2.39v-.75q3.362-.373 5.219-1.345c1.25-.656 2.375-1.757 3.375-3.312h.75v46.656q3.077.002 3.922-2.797h.734q.375 3.361 1.594 4.766c.812.93 1.836 1.578 3.078 1.953V0Zm0 0"/><path id="m" d="M27.063 0v-4.672h5.609V0ZM0 11.672v-.75q1.859-.562 3.078-1.969 1.22-1.394 1.594-4.75h.734C5.97 6.066 7.273 7 9.328 7h14v-44.328c0-.688-.125-1.617-.375-2.797a10.7 10.7 0 0 0-1.344-3.406q-.985-1.64-2.937-2.39v-.75q3.356-.373 5.219-1.345c1.25-.656 2.367-1.757 3.359-3.312H28v63Zm0 0"/><path id="n" d="M3.031 0v-2.344H5.75q-1.078-1.483-1.078-3.5-.002-1.763.781-3.062a5.5 5.5 0 0 1 2.125-2.031 5.9 5.9 0 0 1 2.875-.735q1.406.001 2.875.64 1.467.628 2.688 1.97l-.094.28q-.75.188-1.594.798-.843.609-.984 1.312h-.266q-.094-1.359-.875-2.016-.767-.656-1.703-.656-1.439 0-2.469 1.031Q7.001-7.28 7-5.842q0 1.45 1.031 2.482A3.38 3.38 0 0 0 10.5-2.344c.594 0 1.176-.148 1.75-.453q.872-.468 1.328-1.406h.281q.188 1.125.47 1.781.279.644.765 1.094.499.439 1.25.953V0ZM0 0v-.375q.797-.515 1.266-.953.468-.45.75-1.094.28-.656.468-1.781h.266q.516.938 1.36 1.406c.562.305 1.14.453 1.734.453V0Zm0 0"/><path id="o" d="M6.438 0 5.78-4.672q-.093-1.013-.703-2.687-.595-1.687-1.812-3.141Q2.046-11.952 0-12.406l-.094-.844q3.263-.841 4.938-2.094Q6.53-16.61 7.75-19.047l.75-.094L11.11 0ZM-.937 0v-4.672h11.39V0Zm0 0"/><path id="p" d="M316.203 0v-4.672h5.61V0Zm-6.515 0v-4.672h3.53L317.798 0ZM10.265-9.328l2.328-19.984.844.093q1.31 2.532 2.984 3.703c1.125.774 2.742 1.438 4.86 2v.75q-2.05.456-3.266 2c-.813 1.024-1.407 2.094-1.782 3.22q-.549 1.687-.734 2.702l-.469 4.766Zm0 0L13.063-14h302.875l-2.72 4.672ZM317.796 0l-5.405-4.672-.657-4.656L315.938-14ZM0 0v-.75q2.326-1.575 3.313-3.39c.656-1.22 1.109-2.946 1.359-5.188h.734q.748 1.861 2.422 2.89 1.686 1.032 3.406 1.407 1.736.362 2.766.36h297.078L315.75 0Zm0 0"/><path id="q" d="M3.547 0c-1 0-1.844-.336-2.531-1.016C.336-1.703 0-2.546 0-3.546 0-4.485.336-5.29 1.016-5.97Q2.046-6.999 3.546-7 4.952-7 5.97-5.969 6.999-4.95 7-3.547q0 1.5-1.031 2.531C5.289-.336 4.484 0 3.547 0m0 0"/><path id="r" d="M40.453 0v-5.672h6.813V0ZM0 0v-.906q2.826-1.921 4.016-4.125 1.2-2.217 1.656-6.297h.906q.904 2.268 2.938 3.515 2.044 1.237 4.14 1.688c1.395.305 2.508.453 3.344.453h5.672V0Zm32.188 7.14q-2.721 0-4.985-1.359a10.56 10.56 0 0 1-3.625-3.578q-1.36-2.202-1.36-5.031 0-2.718 1.36-4.985a9.9 9.9 0 0 1 3.625-3.578q2.264-1.295 4.985-1.296 2.717 0 4.984 1.296a9.47 9.47 0 0 1 3.562 3.579q1.313 2.265 1.313 4.984 0 2.829-1.313 5.031a10.1 10.1 0 0 1-3.562 3.578q-2.267 1.36-4.984 1.36M15.859 0v-5.672h9.079V0Zm16.328 1.469q1.7-.001 2.938-1.25 1.249-1.23 1.25-3.047-.001-1.7-1.25-2.953-1.237-1.249-2.937-1.25-1.816.001-3.063 1.25-1.252 1.254-1.25 2.953-.002 1.815 1.25 3.047 1.247 1.249 3.063 1.25m0 0"/><path id="s" d="M4.313 0C3.101 0 2.082-.414 1.25-1.25.414-2.082 0-3.102 0-4.312 0-5.437.414-6.414 1.25-7.25Q2.497-8.499 4.313-8.5c1.125 0 2.101.418 2.937 1.25Q8.499-5.998 8.5-4.312 8.499-2.498 7.25-1.25C6.414-.414 5.438 0 4.313 0m0 0"/><path id="t" d="M11.547 0v-5.672h6.812V0ZM7.812 0l-.78-5.672q-.13-1.23-.86-3.281a12.5 12.5 0 0 0-2.203-3.797Q2.497-14.497 0-15.078l-.11-1.016q3.968-1.012 6-2.547 2.046-1.53 3.516-4.484l.906-.11L13.485 0ZM-1.14 0v-5.672h13.829V0Zm0 0"/><path id="u" d="M7.813 0 7.03-5.672c-.086-.82-.37-1.914-.86-3.281a12.5 12.5 0 0 0-2.2-3.797Q2.497-14.497 0-15.078l-.11-1.016q3.968-1.012 6-2.547 2.046-1.53 3.516-4.484l.906-.11L13.485 0Zm-8.954 0v-5.672h13.829V0Zm0 0"/><path id="w" d="M15.64 0c-1.21 0-2.23-.414-3.062-1.25-.836-.832-1.25-1.852-1.25-3.062 0-1.125.414-2.102 1.25-2.938q1.247-1.249 3.063-1.25 1.7.001 2.937 1.25 1.249 1.252 1.25 2.938-.001 1.814-1.25 3.062C17.754-.414 16.773 0 15.641 0M4.314 0C3.101 0 2.082-.414 1.25-1.25.414-2.082 0-3.102 0-4.312 0-5.437.414-6.414 1.25-7.25Q2.497-8.499 4.313-8.5c1.125 0 2.101.418 2.937 1.25Q8.499-5.998 8.5-4.312 8.499-2.498 7.25-1.25C6.414-.414 5.438 0 4.313 0m0 0"/><path id="x" d="M-1.14 0v-5.672h6.812V0Zm0 0"/><path id="y" d="M4.531 0v-5.672h6.813V0ZM0 0v-45.328c0-.832-.148-1.969-.453-3.406q-.45-2.156-1.703-4.141-1.248-1.981-3.516-2.89v-.907q4.08-.451 6.344-1.64 2.279-1.186 4.094-4.016h.906V0Zm-1.14 0v-5.672h6.812V0Zm0 0"/><path id="z" d="M15.64 0c-1.21 0-2.23-.414-3.062-1.25-.836-.832-1.25-1.852-1.25-3.062 0-1.125.414-2.102 1.25-2.938q1.247-1.249 3.063-1.25 1.7.001 2.937 1.25 1.249 1.252 1.25 2.938-.001 1.814-1.25 3.062C17.754-.414 16.773 0 15.641 0M4.314 0C3.101 0 2.082-.414 1.25-1.25.414-2.082 0-3.102 0-4.312 0-5.437.414-6.414 1.25-7.25Q2.497-8.499 4.313-8.5c1.125 0 2.101.418 2.937 1.25Q8.499-5.998 8.5-4.312 8.499-2.498 7.25-1.25C6.414-.414 5.438 0 4.313 0m0 0"/><path id="A" d="M-1.14 0v-5.672h3.406V0Zm0 0"/><path id="B" d="M0 0v-.906q2.263-.687 3.734-2.375c.989-1.133 1.633-3.063 1.938-5.781h.906q1.013 3.39 4.75 3.39h17v-39.656q0-1.25-.453-3.406a13.5 13.5 0 0 0-1.64-4.141q-1.19-1.981-3.563-2.89v-.907q4.077-.451 6.344-1.64 2.261-1.186 4.078-4.016H34V0Zm0 0"/><path id="C" d="M-11.328 14.172v-.906q2.831-1.94 4.015-4.157 1.19-2.202 1.641-6.28h.906q.908 2.26 2.954 3.515c1.367.832 2.757 1.398 4.187 1.703q2.156.451 3.297.453 4.98 0 8.203-3.234 3.234-3.224 3.234-8.094c0-2.719-.605-4.945-1.812-6.688-1.211-1.738-2.703-3.117-4.485-4.14q-2.658-1.53-5.14-2.094v-.906q3.966-1.031 6-2.438 2.045-1.418 3.515-4.484l1.016-.11a224 224 0 0 1 2.719 5.672c.988 2.118 1.86 4.438 2.61 6.97.757 2.53 1.14 5.273 1.14 8.218 0 3.246-.719 6.156-2.156 8.719-1.438 2.57-3.446 4.593-6.016 6.062-2.562 1.477-5.508 2.219-8.828 2.219Zm0 0"/><path id="D" d="M-6 14.172v-.906q2.832-1.94 4.016-4.157 1.19-2.202 1.64-6.28h.907q.903 2.26 2.937 3.515Q5.546 7.59 7.703 8.047 9.86 8.498 11 8.5q4.982-.001 8.094-2.89 3.124-2.895 3.125-8.438 0-3.405-1.032-5.953-1.02-2.545-2.484-3.969c-.98-.945-1.965-1.422-2.953-1.422q-1.705 0-2.953 1.594-1.235 1.582-1.469 4.078h12.125v5.672H8.391q-2.954 0-2.72-2.953.107-3.621 1.298-6.797 1.184-3.17 3.453-5.203 2.263-2.047 5.328-2.047c2.27 0 4.313.758 6.125 2.265q2.72 2.269 4.36 6.125 1.64 3.845 1.64 8.61c0 3.621-.758 6.703-2.266 9.234q-2.265 3.796-6.062 5.782c-2.531 1.32-5.383 1.984-8.547 1.984Zm0 0"/><path id="E" d="M0 0v-45.328c0-.832-.148-1.969-.453-3.406q-.45-2.156-1.703-4.141-1.248-1.981-3.516-2.89v-.907q4.08-.451 6.344-1.64 2.279-1.186 4.094-4.016h.906v56.656h5.656V0Zm0 0"/><path id="F" d="M4.313 0C3.101 0 2.082-.414 1.25-1.25.414-2.082 0-3.102 0-4.312 0-5.437.414-6.414 1.25-7.25Q2.497-8.499 4.313-8.5c1.125 0 2.101.418 2.937 1.25Q8.499-5.998 8.5-4.312 8.499-2.498 7.25-1.25C6.414-.414 5.438 0 4.313 0m0 0"/><path id="G" d="M3.688 0v-2.844h3.28Q5.67-4.655 5.673-7.094q-.001-2.138.953-3.718a6.74 6.74 0 0 1 2.578-2.47 7.16 7.16 0 0 1 3.5-.89q1.687.002 3.469.766 1.794.766 3.265 2.406l-.109.344q-.907.22-1.937.969c-.68.492-1.075 1.015-1.188 1.578h-.328c-.086-1.094-.437-1.907-1.062-2.438q-.926-.797-2.063-.797-1.752.001-3 1.25-1.252 1.254-1.25 3-.002 1.769 1.25 3.016 1.248 1.235 3 1.234 1.077 0 2.125-.562 1.043-.562 1.625-1.703h.328q.234 1.36.563 2.156.34.797.937 1.344.608.534 1.516 1.156V0ZM0 0v-.453q.968-.622 1.531-1.156.562-.547.907-1.344.34-.797.562-2.156h.344q.62 1.141 1.64 1.703 1.032.562 2.11.562V0Zm0 0"/><path id="H" d="M11.547 0v-5.672h6.812V0Zm2.047 0L7.25-3.86 6-14.5q-.11-1.248-.844-3.281a12.3 12.3 0 0 0-2.218-3.797q-1.473-1.765-3.954-2.328l-.125-1.032q3.968-1.012 6-2.546 2.045-1.529 3.532-4.47l.906-.124Zm-14.61 0v-5.672H9.406L13.594 0Zm0 0"/><path id="T" d="m1.703-51.453-.562-1.594 13.937-4.75.781 2.156Zm0 0"/><path id="U" d="m0 0 36.156-47.937h6.907L7.03 0Zm5.89 0v-5.672h46.126L57.453 0Zm51.563 0-6.562-5.672-.797-5.656L55.187-17ZM14.172-11.328V-17h41.016l-3.172 5.672Zm23.562-33.547-3.5-2.719c-.687-.531-1.695-1.097-3.015-1.703q-1.986-.901-4.313-1.125-2.313-.234-4.468 1.125l-.672-.562q2.028-3.515 2.422-6.063.403-2.56-.735-5.734l.578-.672 19.032 14.39ZM-1.14 0v-5.672h6.813V0Zm0 0"/><path id="J" d="M70.266 0v-5.672h6.812V0ZM37.734 22.672c-3.398 0-6.289-.555-8.672-1.656q-3.564-1.64-6.062-4.36a30.5 30.5 0 0 1-4.297-6.062 163 163 0 0 1-3.515-6.86L17.562 0q2.155 4.765 4.813 8.61 2.67 3.856 6.406 6.124 3.75 2.264 8.953 2.266c3.25 0 6.313-.852 9.188-2.547q4.31-2.548 7.25-6.86c1.969-2.874 3.21-6.128 3.734-9.75l.125 8.954-9.64-23.906 5.562-1.485 6.688 16.547c.218.531.398 1.086.547 1.656a6.5 6.5 0 0 1 .234 1.75c0 2.188-.606 4.524-1.813 7.016q-1.813 3.75-5.047 6.984-3.22 3.234-7.53 5.266-4.301 2.046-9.298 2.047M5.672 11.328q-.457-4.08-1.656-6.344Q2.826 2.718 0 .906V0h17.688v4.531c-1.063 0-2.352.242-3.86.735a15.6 15.6 0 0 0-4.312 2.203 8.33 8.33 0 0 0-2.938 3.86Zm46.344-24.14L48.39-17.11l13.828-11.563 1.015 6.453ZM67.546 0l-9.062-22.547 3.735-6.125L73.672 0Zm0 0"/><path id="K" d="M26.406 12.016a300 300 0 0 1-3.453-5.953 151 151 0 0 0-4.828-7.875 83 83 0 0 0-5.89-7.985q-3.177-3.795-6.516-6.172c-2.23-1.594-4.442-2.39-6.625-2.39l-.688-.688q1.939-2.824 2.5-5.437.561-2.607.11-4.985l.687-.672a67.7 67.7 0 0 1 10.016 9.516Q16.31-15.293 20-9.687q3.686 5.61 6.516 10.484a435 435 0 0 1 4.656 8.156ZM-1.14 0v-5.672h23.813V0Zm23.235 0v-5.672h9.078V0Zm0 0"/><path id="L" d="M4.313 0C3.101 0 2.082-.414 1.25-1.25.414-2.082 0-3.102 0-4.312 0-5.437.414-6.414 1.25-7.25Q2.497-8.499 4.313-8.5c1.125 0 2.101.418 2.937 1.25Q8.499-5.998 8.5-4.312 8.499-2.498 7.25-1.25C6.414-.414 5.438 0 4.313 0m0 0"/><path id="M" d="M7.813 0 7.03-5.672c-.086-.82-.37-1.914-.86-3.281a12.5 12.5 0 0 0-2.2-3.797Q2.497-14.497 0-15.078l-.11-1.016q3.968-1.012 6-2.547 2.046-1.53 3.516-4.484l.906-.11L13.485 0Zm-8.954 0v-5.672h13.829V0Zm0 0"/><path id="N" d="M15.64 0c-1.21 0-2.23-.414-3.062-1.25-.836-.832-1.25-1.852-1.25-3.062 0-1.125.414-2.102 1.25-2.938q1.247-1.249 3.063-1.25 1.7.001 2.937 1.25 1.249 1.252 1.25 2.938-.001 1.814-1.25 3.062C17.754-.414 16.773 0 15.641 0M4.314 0C3.101 0 2.082-.414 1.25-1.25.414-2.082 0-3.102 0-4.312 0-5.437.414-6.414 1.25-7.25Q2.497-8.499 4.313-8.5c1.125 0 2.101.418 2.937 1.25Q8.499-5.998 8.5-4.312 8.499-2.498 7.25-1.25C6.414-.414 5.438 0 4.313 0m0 0"/><path id="O" d="M-1.14 0v-5.672h9.078V0Zm0 0"/><path id="P" d="M0 0v-45.328c0-.832-.148-1.969-.453-3.406q-.45-2.156-1.703-4.141-1.248-1.981-3.516-2.89v-.907q4.08-.451 6.344-1.64 2.279-1.186 4.094-4.016h.906v56.656h5.656V0Zm0 0"/><path id="Q" d="m0-46.687.688-2.5L282.422-62l-.672 2.5Zm0 0"/><path id="R" d="m0 0 36.156-47.937h6.907L7.03 0Zm5.89 0v-5.672h318.47L329.796 0Zm323.907 0-6.578-5.672-.781-5.656L327.53-17ZM14.172-11.328V-17h313.36l-3.173 5.672Zm23.562-33.547-3.5-2.719c-.687-.531-1.695-1.097-3.015-1.703q-1.986-.901-4.313-1.125-2.313-.234-4.468 1.125l-.672-.562q2.028-3.515 2.422-6.063.403-2.56-.735-5.734l.578-.672 19.032 14.39ZM-1.14 0v-5.672h6.813V0Zm0 0"/><path id="V" d="m0-46.687.688-2.5 300.218-13.938-.578 2.484Zm1.14-4.876.688-2.5L302.047-68l-.578 2.484Zm0 0"/><path id="W" d="M4.313 0C3.101 0 2.082-.414 1.25-1.25.414-2.082 0-3.102 0-4.312 0-5.437.414-6.414 1.25-7.25Q2.497-8.499 4.313-8.5c1.125 0 2.101.418 2.937 1.25Q8.499-5.998 8.5-4.312 8.499-2.498 7.25-1.25C6.414-.414 5.438 0 4.313 0m0 0"/><path id="X" d="M-1.14 0v-5.672h311.906V0Zm0 0"/><path id="Y" d="M7.813 0 7.03-5.672c-.086-.82-.37-1.914-.86-3.281a12.5 12.5 0 0 0-2.2-3.797Q2.497-14.497 0-15.078l-.11-1.016q3.968-1.012 6-2.547 2.046-1.53 3.516-4.484l.906-.11L13.485 0Zm-8.954 0v-5.672h13.829V0Zm0 0"/><path id="Z" d="m1.703-51.453-.562-1.594 13.937-4.75.781 2.156Zm0 0"/></defs><path d="M-108-67.5h1296v810H-108z"/><use xlink:href="#a" x="97.6" y="86.499" fill="#fcee21"/><use xlink:href="#b" x="91.65" y="123.809" fill="#fcee21"/><use xlink:href="#c" x="268.12" y="135.5" fill="#fcee21"/><g fill="#fcee21"><use xlink:href="#d" x="119.65" y="123.809"/><use xlink:href="#e" x="425.9" y="123.809"/></g><use xlink:href="#a" x="441.09" y="91.12" fill="#fcee21"/><g fill="#fcee21"><use xlink:href="#f" x="441.02" y="123.809"/><use xlink:href="#g" x="465.38" y="123.809"/></g><use xlink:href="#c" x="467.41" y="135.5" fill="#fcee21"/><use xlink:href="#h" x="474.69" y="123.809" fill="#fcee21"/><g fill="#fcee21"><use xlink:href="#i" x="487.01" y="123.809"/><use xlink:href="#j" x="524.32" y="123.809"/><use xlink:href="#k" x="533.63" y="123.809"/><use xlink:href="#l" x="552.32" y="123.809"/><use xlink:href="#m" x="557.01" y="123.809"/></g><use xlink:href="#n" x="584.73" y="97.7" fill="#fcee21"/><g fill="#fcee21"><use xlink:href="#o" x="589.7" y="123.809"/><use xlink:href="#k" x="604.82" y="123.809"/><use xlink:href="#p" x="623.51" y="123.809"/></g><use xlink:href="#q" x="946.42" y="135.5" fill="#fcee21"/><g fill="#fcee21"><use xlink:href="#e" x="945.3" y="123.809"/><use xlink:href="#j" x="960.42" y="123.809"/><use xlink:href="#k" x="969.73" y="123.809"/></g><use xlink:href="#r" x="135.57" y="307.166" fill="#fff"/><use xlink:href="#s" x="182.49" y="275.461" fill="#fff"/><use xlink:href="#t" x="182.83" y="307.166" fill="#fff"/><use xlink:href="#s" x="197.45" y="275.461" fill="#fff"/><g fill="#fff"><use xlink:href="#u" x="197.79" y="307.166"/><use xlink:href="#v" x="216.15" y="307.166"/><use xlink:href="#r" x="221.845" y="307.166"/></g><use xlink:href="#w" x="264.77" y="321.361" fill="#fff"/><use xlink:href="#t" x="269.105" y="307.166" fill="#fff"/><use xlink:href="#w" x="288.825" y="321.361" fill="#fff"/><g fill="#fff"><use xlink:href="#x" x="287.465" y="307.166"/><use xlink:href="#u" x="293.16" y="307.166"/><use xlink:href="#v" x="311.52" y="307.166"/><use xlink:href="#r" x="317.215" y="307.166"/><use xlink:href="#y" x="364.475" y="307.166"/></g><use xlink:href="#s" x="375.44" y="275.461" fill="#fff"/><g fill="#fff"><use xlink:href="#u" x="375.78" y="307.166"/><use xlink:href="#v" x="394.14" y="307.166"/><use xlink:href="#r" x="399.835" y="307.166"/><use xlink:href="#y" x="447.095" y="307.166"/></g><use xlink:href="#z" x="454.66" y="275.461" fill="#fff"/><g fill="#fff"><use xlink:href="#A" x="458.4" y="307.166"/><use xlink:href="#u" x="460.695" y="307.166"/><use xlink:href="#v" x="479.055" y="307.166"/><use xlink:href="#B" x="484.75" y="307.166"/></g><g fill="#fff"><use xlink:href="#C" x="519.889" y="307.166"/><use xlink:href="#v" x="548.194" y="307.166"/><use xlink:href="#B" x="553.889" y="307.166"/></g><g fill="#fff"><use xlink:href="#D" x="587.889" y="307.166"/><use xlink:href="#v" x="621.294" y="307.166"/><use xlink:href="#E" x="626.989" y="307.166"/></g><use xlink:href="#z" x="634.52" y="275.461" fill="#fff"/><g fill="#fff"><use xlink:href="#A" x="638.26" y="307.166"/><use xlink:href="#t" x="640.555" y="307.166"/></g><use xlink:href="#z" x="658.575" y="275.461" fill="#fff"/><g fill="#fff"><use xlink:href="#x" x="658.915" y="307.166"/><use xlink:href="#u" x="664.61" y="307.166"/><use xlink:href="#v" x="682.97" y="307.166"/><use xlink:href="#E" x="688.665" y="307.166"/></g><use xlink:href="#F" x="696.74" y="321.361" fill="#fff"/><use xlink:href="#t" x="699.885" y="307.166" fill="#fff"/><use xlink:href="#F" x="721.305" y="321.361" fill="#fff"/><g fill="#fff"><use xlink:href="#u" x="714.845" y="307.166"/><use xlink:href="#v" x="733.205" y="307.166"/></g><use xlink:href="#G" x="730.57" y="326.971" fill="#fff"/><use xlink:href="#E" x="738.815" y="307.166" fill="#fff"/><use xlink:href="#F" x="751.48" y="321.361" fill="#fff"/><g fill="#fff"><use xlink:href="#u" x="750.12" y="307.166"/><use xlink:href="#v" x="768.48" y="307.166"/></g><use xlink:href="#G" x="765.845" y="326.971" fill="#fff"/><use xlink:href="#E" x="774.09" y="307.166" fill="#fff"/><use xlink:href="#w" x="786.755" y="321.361" fill="#fff"/><g fill="#fff"><use xlink:href="#x" x="785.395" y="307.166"/><use xlink:href="#u" x="791.09" y="307.166"/><use xlink:href="#v" x="809.45" y="307.166"/><use xlink:href="#E" x="815.145" y="307.166"/></g><use xlink:href="#w" x="817.61" y="321.361" fill="#fff"/><g fill="#fff"><use xlink:href="#u" x="826.45" y="307.166"/><use xlink:href="#v" x="844.81" y="307.166"/><use xlink:href="#E" x="850.505" y="307.166"/></g><use xlink:href="#F" x="858.665" y="321.361" fill="#fff"/><g fill="#fff"><use xlink:href="#u" x="861.81" y="307.166"/><use xlink:href="#v" x="880.17" y="307.166"/><use xlink:href="#E" x="885.865" y="307.166"/></g><use xlink:href="#F" x="894.025" y="321.361" fill="#fff"/><use xlink:href="#t" x="897.17" y="307.166" fill="#fff"/><use xlink:href="#F" x="917.485" y="321.361" fill="#fff"/><use xlink:href="#H" x="911.025" y="307.166" fill="#fff"/><use xlink:href="#F" x="932.445" y="321.361" fill="#fff"/><use xlink:href="#u" x="925.985" y="307.166" fill="#fff"/><g fill="#fff"><use xlink:href="#I" x="400.855" y="397.181"/><use xlink:href="#J" x="406.55" y="397.181"/><use xlink:href="#K" x="483.645" y="397.181"/></g><use xlink:href="#L" x="514.415" y="365.476" fill="#fff"/><g fill="#fff"><use xlink:href="#M" x="514.755" y="397.181"/><use xlink:href="#I" x="533.115" y="397.181"/><use xlink:href="#J" x="538.81" y="397.181"/><use xlink:href="#K" x="615.905" y="397.181"/></g><use xlink:href="#N" x="650.67" y="411.376" fill="#fff"/><g fill="#fff"><use xlink:href="#O" x="647.015" y="397.181"/><use xlink:href="#M" x="654.92" y="397.181"/></g><use xlink:href="#P" x="133.7" y="517.201" fill="#fff"/><use xlink:href="#Q" x="190.14" y="522.896" fill="#fff"/><g fill="#fff"><use xlink:href="#R" x="145.005" y="517.201"/><use xlink:href="#S" x="479.65" y="517.201"/></g><use xlink:href="#E" x="485.345" y="517.201" fill="#fff"/><use xlink:href="#T" x="534.22" y="534.201" fill="#fff"/><use xlink:href="#U" x="496.735" y="517.201" fill="#fff"/><use xlink:href="#I" x="559.04" y="517.201" fill="#fff"/><g fill="#fff"><use xlink:href="#S" x="564.735" y="517.201"/><use xlink:href="#P" x="570.43" y="517.201"/></g><use xlink:href="#V" x="590.83" y="526.041" fill="#fff"/><use xlink:href="#W" x="737.03" y="531.396" fill="#fff"/><g fill="#fff"><use xlink:href="#X" x="581.735" y="517.201"/><use xlink:href="#Y" x="892.495" y="517.201"/><use xlink:href="#S" x="910.855" y="517.201"/><use xlink:href="#P" x="916.55" y="517.201"/></g><use xlink:href="#Z" x="923.35" y="530.801" fill="#fff"/><use xlink:href="#W" x="924.71" y="531.396" fill="#fff"/><use xlink:href="#Y" x="927.855" y="517.201" fill="#fff"/></svg>