<svg xmlns="http://www.w3.org/2000/svg" xmlns:xlink="http://www.w3.org/1999/xlink" width="1440" height="1800" viewBox="0 0 1080 1350"><defs><path id="b" d="M149.703 0v-4.672h5.61V0ZM0 0l29.766-39.484h5.703L5.78 0Zm4.86 0v-4.672h141.953L151.297 0Zm146.437 0-5.422-4.672-.656-4.656L149.422-14ZM11.672-9.328V-14h137.75l-2.61 4.672Zm19.406-27.625-2.89-2.25q-.844-.655-2.485-1.39a11 11 0 0 0-3.547-.938q-1.909-.188-3.672.937l-.562-.468q1.67-2.888 2-4.985c.219-1.406.015-2.976-.61-4.719l.47-.562 15.687 11.844Zm0 0"/><path id="c" d="M3.547 0c-1 0-1.844-.336-2.531-1.016C.336-1.703 0-2.546 0-3.546 0-4.485.336-5.29 1.016-5.97Q2.046-6.999 3.546-7 4.952-7 5.97-5.969 6.999-4.95 7-3.547q0 1.5-1.031 2.531C5.289-.336 4.484 0 3.547 0m0 0"/><path id="d" d="M21.75 9.89a229 229 0 0 1-2.86-4.906A124 124 0 0 0 14.923-1.5a68 68 0 0 0-4.844-6.578q-2.611-3.123-5.375-5.078-2.753-1.97-5.453-1.969l-.562-.562Q.282-18.013.75-20.157c.313-1.437.344-2.804.094-4.109l.562-.562a57 57 0 0 1 8.25 7.844A87 87 0 0 1 16.47-7.97c2.02 3.074 3.804 5.95 5.36 8.625a355 355 0 0 1 3.843 6.719ZM-.937 0v-4.672h19.609V0Zm0 0"/><path id="f" d="M57.86 0v-4.672h5.609V0ZM31.077 18.672q-4.206 0-7.14-1.36-2.94-1.36-5-3.593a25 25 0 0 1-3.547-5 149 149 0 0 1-2.891-5.64L14.469 0q1.763 3.919 3.953 7.094c1.469 2.113 3.226 3.789 5.281 5.031Q26.778 14 31.078 14q4.013 0 7.563-2.11 3.543-2.096 5.968-5.64 2.436-3.551 3.078-8.016l.094 7.36-7.922-19.688 4.563-1.219 5.516 13.626q.28.656.468 1.359c.125.465.188.953.188 1.453q0 2.7-1.5 5.781-1.501 3.075-4.157 5.735-2.659 2.669-6.203 4.343-3.55 1.688-7.656 1.688M4.672 9.328q-.375-3.361-1.36-5.234Q2.328 2.232 0 .75V0h14.563v3.734q-1.313 0-3.188.61a13 13 0 0 0-3.547 1.812 6.87 6.87 0 0 0-2.422 3.172Zm38.172-19.875-2.985-3.547 11.375-9.515.844 5.312ZM55.625 0l-7.469-18.578 3.078-5.031L60.672 0Zm0 0"/><path id="g" d="M-.937 0v-4.672H15.03q-.937-7.56-2.344-11.515c-.93-2.645-2.171-3.97-3.734-3.97q-.924 0-2.14 1.5-1.22 1.488-1.672 4.563h9.422v4.672H2.328q-1.111 0-1.765-.61-.656-.608-.563-1.827c.125-2.727.617-5.055 1.484-6.985q1.31-2.904 3.313-4.437c1.344-1.032 2.726-1.547 4.156-1.547q2.999 0 4.953 1.922 1.953 1.909 3.172 5.312c.813 2.274 1.445 4.903 1.906 7.89Q19.688-5.231 20.25 0Zm0 0"/><path id="h" d="M130.016 0v-4.672h15.968q-.937-7.56-2.343-11.515c-.93-2.645-2.172-3.97-3.735-3.97q-.924 0-2.14 1.5-1.22 1.488-1.672 4.563h9.422v4.672H133.28q-1.111 0-1.765-.61-.656-.608-.563-1.827c.125-2.727.617-5.055 1.484-6.985q1.31-2.904 3.313-4.437 2.014-1.548 4.156-1.547 2.999 0 4.953 1.922 1.953 1.909 3.172 5.312 1.218 3.41 1.906 7.89.704 4.472 1.266 9.704ZM0 0v-.75q2.326-1.575 3.313-3.39c.656-1.22 1.109-2.946 1.359-5.188h.734q.748 1.861 2.422 2.89 1.686 1.032 3.406 1.407 1.736.362 2.766.36h131.969L150.64 0Zm0 0"/><path id="i" d="M-4.953 11.672v-.75Q-2.61 9.328-1.625 7.5q.97-1.815 1.344-5.172h.75c.5 1.25 1.304 2.211 2.422 2.89 1.125.688 2.273 1.157 3.453 1.407Q8.123 7 9.047 7q4.105 0 6.672-2.39 2.578-2.38 2.578-6.938 0-2.81-.844-4.906-.844-2.093-2.062-3.266-1.206-1.172-2.422-1.172-1.393 0-2.422 1.313Q9.515-9.046 9.328-7h9.985v4.672H6.906q-2.424 0-2.234-2.438.091-2.981 1.062-5.593c.657-1.739 1.602-3.164 2.844-4.282q1.873-1.687 4.39-1.687 2.795 0 5.032 1.875c1.5 1.242 2.695 2.918 3.594 5.031q1.36 3.174 1.36 7.094-.002 4.465-1.86 7.594-1.862 3.139-5 4.765-3.128 1.64-7.047 1.64Zm0 0"/><path id="j" d="M-9.328 18.672v-.75c1.555-1.063 2.656-2.203 3.312-3.422.649-1.21 1.094-2.934 1.344-5.172h.75q.75 1.873 2.438 2.89c1.117.688 2.257 1.157 3.437 1.407Q3.735 14 4.672 14q4.089-.001 6.75-2.656 2.672-2.66 2.672-6.672 0-3.362-1.5-5.5a11.1 11.1 0 0 0-3.688-3.406Q6.717-5.5 4.672-5.97v-.75q3.263-.841 4.937-2 1.686-1.17 2.891-3.687l.844-.094q1.03 2.05 2.234 4.656 1.219 2.612 2.156 5.75c.625 2.086.938 4.336.938 6.766q0 4.013-1.781 7.187c-1.18 2.114-2.828 3.774-4.953 4.985Q8.76 18.67 4.672 18.672ZM15.859 0v-4.672h7.47V0Zm0 0"/><path id="k" d="M21.75 9.89a229 229 0 0 1-2.86-4.906A124 124 0 0 0 14.923-1.5a68 68 0 0 0-4.844-6.578q-2.611-3.123-5.375-5.078-2.753-1.97-5.453-1.969l-.562-.562Q.282-18.013.75-20.157c.313-1.437.344-2.804.094-4.109l.562-.562a57 57 0 0 1 8.25 7.844A87 87 0 0 1 16.47-7.97c2.02 3.074 3.804 5.95 5.36 8.625a355 355 0 0 1 3.843 6.719ZM-.937 0v-4.672h19.609V0Zm19.14 0v-4.672h7.469V0Zm0 0"/><path id="l" d="M0 0v-37.328c0-.688-.125-1.617-.375-2.797a10.4 10.4 0 0 0-1.39-3.406q-1.032-1.64-2.907-2.39v-.75q3.362-.373 5.219-1.345c1.25-.656 2.375-1.757 3.375-3.312h.75V0Zm-.937 0v-4.672h5.609V0Zm0 0"/><path id="m" d="M0 0v-37.328c0-.688-.125-1.617-.375-2.797a10.4 10.4 0 0 0-1.39-3.406q-1.032-1.64-2.907-2.39v-.75q3.362-.373 5.219-1.345c1.25-.656 2.375-1.757 3.375-3.312h.75v46.656q3.077.002 3.922-2.797h.734q.375 3.361 1.594 4.766c.812.93 1.836 1.578 3.078 1.953V0Zm0 0"/><path id="o" d="M27.063 0v-4.672h5.609V0ZM0 11.672v-.75q1.859-.562 3.078-1.969 1.22-1.394 1.594-4.75h.734C5.97 6.066 7.273 7 9.328 7h14v-44.328c0-.688-.125-1.617-.375-2.797a10.7 10.7 0 0 0-1.344-3.406q-.985-1.64-2.937-2.39v-.75q3.356-.373 5.219-1.345c1.25-.656 2.367-1.757 3.359-3.312H28v63Zm0 0"/><path id="p" d="M3.031 0v-2.344H5.75q-1.078-1.483-1.078-3.5-.002-1.763.781-3.062a5.5 5.5 0 0 1 2.125-2.031 5.9 5.9 0 0 1 2.875-.735q1.406.001 2.875.64 1.467.628 2.688 1.97l-.094.28q-.75.188-1.594.798-.843.609-.984 1.312h-.266q-.094-1.359-.875-2.016-.767-.656-1.703-.656-1.439 0-2.469 1.031Q7.001-7.28 7-5.842q0 1.45 1.031 2.482A3.38 3.38 0 0 0 10.5-2.344c.594 0 1.176-.148 1.75-.453q.872-.468 1.328-1.406h.281q.188 1.125.47 1.781.279.644.765 1.094.499.439 1.25.953V0ZM0 0v-.375q.797-.515 1.266-.953.468-.45.75-1.094.28-.656.468-1.781h.266q.516.938 1.36 1.406c.562.305 1.14.453 1.734.453V0Zm0 0"/><path id="q" d="M6.438 0 5.78-4.672q-.093-1.013-.703-2.687-.595-1.687-1.812-3.141Q2.046-11.952 0-12.406l-.094-.844q3.263-.841 4.938-2.094Q6.53-16.61 7.75-19.047l.75-.094L11.11 0ZM-.937 0v-4.672h11.39V0Zm0 0"/><path id="r" d="M300.156 0v-4.672h5.61V0Zm-7 0v-4.672h4.016L301.75 0ZM10.266-9.328l2.328-19.984.844.093q1.31 2.532 2.984 3.703c1.125.774 2.742 1.438 4.86 2v.75q-2.05.456-3.266 2c-.813 1.024-1.407 2.094-1.782 3.22q-.549 1.687-.734 2.702l-.469 4.766Zm0 0L13.063-14h286.812l-2.703 4.672ZM301.75 0l-5.422-4.672-.64-4.656L299.875-14ZM0 0v-.75q2.326-1.575 3.313-3.39c.656-1.22 1.109-2.946 1.359-5.188h.734q.748 1.861 2.422 2.89 1.686 1.032 3.406 1.407 1.736.362 2.766.36h280.75L299.406 0Zm0 0"/><path id="s" d="M3.547 0c-1 0-1.844-.336-2.531-1.016C.336-1.703 0-2.546 0-3.546 0-4.485.336-5.29 1.016-5.97Q2.046-6.999 3.546-7 4.952-7 5.97-5.969 6.999-4.95 7-3.547q0 1.5-1.031 2.531C5.289-.336 4.484 0 3.547 0m0 0"/><path id="t" d="M3.547 0c-1 0-1.844-.336-2.531-1.016C.336-1.703 0-2.546 0-3.546 0-4.485.336-5.29 1.016-5.97Q2.046-6.999 3.546-7 4.952-7 5.97-5.969 6.999-4.95 7-3.547q0 1.5-1.031 2.531C5.289-.336 4.484 0 3.547 0m0 0"/><path id="u" d="m429.984 0-.656-4.672q-.094-1.013-.703-2.687-.596-1.687-1.812-3.141-1.22-1.452-3.266-1.906l-.094-.844q3.263-.841 4.938-2.094 1.687-1.266 2.906-3.703l.75-.094L434.657 0Zm-7.375 0v-4.672H434V0ZM0 0v-.75q2.326-1.575 3.313-3.39c.656-1.22 1.109-2.946 1.359-5.188h.734q.748 1.861 2.422 2.89 1.686 1.032 3.406 1.407 1.736.362 2.766.36h415.328L434 0Zm0 0"/><path id="v" d="M5.594-1.312 1.125-3.641Q7.56-8.404 11.938-14.28q4.387-5.872 6.953-12.172 2.577-6.31 3.422-12.094.45-3.544-.813-5.125-1.253-1.593-2.828-2.25v-.75c2.238-.25 3.976-.695 5.219-1.344 1.25-.656 2.367-1.757 3.359-3.312H28q0 15.86-5.61 28.469Q16.797-10.264 5.595-1.312M14 9.328 1.125-3.64 5.781-5.5 14 2.703l7.844-7.844 5.125 1.5Zm7.938-11.015q-11.017-9.046-16.485-21.5Q0-35.656 0-51.328h.75c1.05 1.555 2.18 2.656 3.39 3.312 1.22.649 2.946 1.094 5.188 1.344v.75c-1.055.438-2 1.188-2.844 2.25q-1.254 1.581-.796 5.125.841 5.784 3.406 12.094 2.577 6.3 7 12.219Q20.53-8.31 26.969-3.641Zm0 0"/><path id="w" d="M-9.328 18.672v-.75c1.555-1.063 2.656-2.203 3.312-3.422.649-1.21 1.094-2.934 1.344-5.172h.75q.75 1.873 2.438 2.89c1.117.688 2.257 1.157 3.437 1.407Q3.735 14 4.672 14q4.089-.001 6.75-2.656 2.672-2.66 2.672-6.672 0-3.362-1.5-5.5a11.1 11.1 0 0 0-3.688-3.406Q6.717-5.5 4.672-5.97v-.75q3.263-.841 4.937-2 1.686-1.17 2.891-3.687l.844-.094q1.03 2.05 2.234 4.656 1.219 2.612 2.156 5.75c.625 2.086.938 4.336.938 6.766q0 4.013-1.781 7.187c-1.18 2.114-2.828 3.774-4.953 4.985Q8.76 18.67 4.672 18.672ZM15.859 0v-4.672h7.47V0Zm0 0"/><path id="x" d="M371.922 0v-4.672h5.61V0ZM0 0l29.766-39.484h5.703L5.78 0Zm4.86 0v-4.672h364.187L373.516 0Zm368.656 0-5.407-4.672-.656-4.656L371.656-14ZM11.672-9.328V-14h359.984l-2.61 4.672Zm19.406-27.625-2.89-2.25q-.844-.655-2.485-1.39a11 11 0 0 0-3.547-.938q-1.909-.188-3.672.937l-.562-.468q1.67-2.888 2-4.985c.219-1.406.015-2.976-.61-4.719l.47-.562 15.687 11.844ZM-.938 0v-4.672h5.61V0Zm0 0"/><path id="y" d="M33.313 0 28-4.672l-.562-4.562c-.063-.688-.297-1.586-.704-2.703a10 10 0 0 0-1.812-3.126q-1.22-1.453-3.266-1.921l-.093-.844c2.175-.563 3.82-1.258 4.937-2.094 1.125-.844 2.094-2.07 2.906-3.687l.735-.094Zm-26.5 0-.657-4.672q-.093-1.013-.703-2.687-.595-1.687-1.812-3.141-1.22-1.452-3.266-1.906l-.094-.844q3.263-.841 4.938-2.094 1.687-1.266 2.906-3.703l.734-.094L11.484 0Zm-7.75 0v-4.672h30.343L33.234 0Zm18.296-1.86-.656-4.671c-.062-.688-.297-1.586-.703-2.703a10 10 0 0 0-1.812-3.125q-1.22-1.454-3.266-1.922l-.094-.844q3.262-.827 4.938-2.094 1.687-1.263 2.906-3.687l.734-.094 2.625 19.14Zm0 0"/><path id="z" d="M3.031 0v-2.344H5.75q-1.078-1.483-1.078-3.5-.002-1.763.781-3.062a5.5 5.5 0 0 1 2.125-2.031 5.9 5.9 0 0 1 2.875-.735q1.406.001 2.875.64 1.467.628 2.688 1.97l-.094.28q-.75.188-1.594.798-.843.609-.984 1.312h-.266q-.094-1.359-.875-2.016-.767-.656-1.703-.656-1.439 0-2.469 1.031Q7.001-7.28 7-5.842q0 1.45 1.031 2.482A3.38 3.38 0 0 0 10.5-2.344c.594 0 1.176-.148 1.75-.453q.872-.468 1.328-1.406h.281q.188 1.125.47 1.781.279.644.765 1.094.499.439 1.25.953V0ZM0 0v-.375q.797-.515 1.266-.953.468-.45.75-1.094.28-.656.468-1.781h.266q.516.938 1.36 1.406c.562.305 1.14.453 1.734.453V0Zm0 0"/><path id="A" d="M0 0v-37.328c0-.688-.125-1.617-.375-2.797a10.4 10.4 0 0 0-1.39-3.406q-1.032-1.64-2.907-2.39v-.75q3.362-.373 5.219-1.345c1.25-.656 2.375-1.757 3.375-3.312h.75v46.656q3.077.002 3.922-2.797h.734q.375 3.361 1.594 4.766c.812.93 1.836 1.578 3.078 1.953V0Zm0 0"/><path id="B" d="M0 0v-45.328c0-.832-.148-1.969-.453-3.406q-.45-2.156-1.703-4.141-1.248-1.981-3.516-2.89v-.907q4.08-.451 6.344-1.64 2.279-1.186 4.094-4.016h.906v56.656h5.656V0Zm0 0"/><path id="C" d="M11.547 0v-5.672h6.812V0ZM7.812 0l-.78-5.672q-.13-1.23-.86-3.281a12.5 12.5 0 0 0-2.203-3.797Q2.497-14.497 0-15.078l-.11-1.016q3.968-1.012 6-2.547 2.046-1.53 3.516-4.484l.906-.11L13.485 0ZM-1.14 0v-5.672h13.829V0Zm0 0"/><path id="D" d="M11.547 0v-5.672h6.812V0Zm2.047 0L7.25-3.86 6-14.5q-.11-1.248-.844-3.281a12.3 12.3 0 0 0-2.218-3.797q-1.473-1.765-3.954-2.328l-.125-1.032q3.968-1.012 6-2.546 2.045-1.529 3.532-4.47l.906-.124Zm-14.61 0v-5.672H9.406L13.594 0Zm0 0"/><path id="E" d="M7.813 0 7.03-5.672c-.086-.82-.37-1.914-.86-3.281a12.5 12.5 0 0 0-2.2-3.797Q2.497-14.497 0-15.078l-.11-1.016q3.968-1.012 6-2.547 2.046-1.53 3.516-4.484l.906-.11L13.485 0Zm-8.954 0v-5.672h13.829V0Zm0 0"/><path id="F" d="M15.64 0c-1.21 0-2.23-.414-3.062-1.25-.836-.832-1.25-1.852-1.25-3.062 0-1.125.414-2.102 1.25-2.938q1.247-1.249 3.063-1.25 1.7.001 2.937 1.25 1.249 1.252 1.25 2.938-.001 1.814-1.25 3.062C17.754-.414 16.773 0 15.641 0M4.314 0C3.101 0 2.082-.414 1.25-1.25.414-2.082 0-3.102 0-4.312 0-5.437.414-6.414 1.25-7.25Q2.497-8.499 4.313-8.5c1.125 0 2.101.418 2.937 1.25Q8.499-5.998 8.5-4.312 8.499-2.498 7.25-1.25C6.414-.414 5.438 0 4.313 0m0 0"/><path id="H" d="M4.313 0C3.101 0 2.082-.414 1.25-1.25.414-2.082 0-3.102 0-4.312 0-5.437.414-6.414 1.25-7.25Q2.497-8.499 4.313-8.5c1.125 0 2.101.418 2.937 1.25Q8.499-5.998 8.5-4.312 8.499-2.498 7.25-1.25C6.414-.414 5.438 0 4.313 0m0 0"/><path id="I" d="M3.688 0v-2.844h3.28Q5.67-4.655 5.673-7.094q-.001-2.138.953-3.718a6.74 6.74 0 0 1 2.578-2.47 7.16 7.16 0 0 1 3.5-.89q1.687.002 3.469.766 1.794.766 3.265 2.406l-.109.344q-.907.22-1.937.969c-.68.492-1.075 1.015-1.188 1.578h-.328c-.086-1.094-.437-1.907-1.062-2.438q-.926-.797-2.063-.797-1.752.001-3 1.25-1.252 1.254-1.25 3-.002 1.769 1.25 3.016 1.248 1.235 3 1.234 1.077 0 2.125-.562 1.043-.562 1.625-1.703h.328q.234 1.36.563 2.156.34.797.937 1.344.608.534 1.516 1.156V0ZM0 0v-.453q.968-.622 1.531-1.156.562-.547.907-1.344.34-.797.562-2.156h.344q.62 1.141 1.64 1.703 1.032.562 2.11.562V0Zm0 0"/><path id="J" d="M-1.14 0v-5.672h6.812V0Zm0 0"/><path id="K" d="M15.64 0c-1.21 0-2.23-.414-3.062-1.25-.836-.832-1.25-1.852-1.25-3.062 0-1.125.414-2.102 1.25-2.938q1.247-1.249 3.063-1.25 1.7.001 2.937 1.25 1.249 1.252 1.25 2.938-.001 1.814-1.25 3.062C17.754-.414 16.773 0 15.641 0M4.314 0C3.101 0 2.082-.414 1.25-1.25.414-2.082 0-3.102 0-4.312 0-5.437.414-6.414 1.25-7.25Q2.497-8.499 4.313-8.5c1.125 0 2.101.418 2.937 1.25Q8.499-5.998 8.5-4.312 8.499-2.498 7.25-1.25C6.414-.414 5.438 0 4.313 0m0 0"/><path id="L" d="M-1.14 0v-5.672h3.406V0Zm0 0"/><path id="M" d="M0 0v-.906q2.263-.687 3.734-2.375c.989-1.133 1.633-3.063 1.938-5.781h.906q1.013 3.39 4.75 3.39h17v-39.656q0-1.25-.453-3.406a13.5 13.5 0 0 0-1.64-4.141q-1.19-1.981-3.563-2.89v-.907q4.077-.451 6.344-1.64 2.261-1.186 4.078-4.016H34V0Zm0 0"/><path id="N" d="M-11.328 14.172v-.906q2.831-1.94 4.015-4.157 1.19-2.202 1.641-6.28h.906q.908 2.26 2.954 3.515c1.367.832 2.757 1.398 4.187 1.703q2.156.451 3.297.453 4.98 0 8.203-3.234 3.234-3.224 3.234-8.094c0-2.719-.605-4.945-1.812-6.688-1.211-1.738-2.703-3.117-4.485-4.14q-2.658-1.53-5.14-2.094v-.906q3.966-1.031 6-2.438 2.045-1.418 3.515-4.484l1.016-.11a224 224 0 0 1 2.719 5.672c.988 2.118 1.86 4.438 2.61 6.97.757 2.53 1.14 5.273 1.14 8.218 0 3.246-.719 6.156-2.156 8.719-1.438 2.57-3.446 4.593-6.016 6.062-2.562 1.477-5.508 2.219-8.828 2.219Zm0 0"/><path id="O" d="M-6 14.172v-.906q2.832-1.94 4.016-4.157 1.19-2.202 1.64-6.28h.907q.903 2.26 2.937 3.515Q5.546 7.59 7.703 8.047 9.86 8.498 11 8.5q4.982-.001 8.094-2.89 3.124-2.895 3.125-8.438 0-3.405-1.032-5.953-1.02-2.545-2.484-3.969c-.98-.945-1.965-1.422-2.953-1.422q-1.705 0-2.953 1.594-1.235 1.582-1.469 4.078h12.125v5.672H8.391q-2.954 0-2.72-2.953.107-3.621 1.298-6.797 1.184-3.17 3.453-5.203 2.263-2.047 5.328-2.047c2.27 0 4.313.758 6.125 2.265q2.72 2.269 4.36 6.125 1.64 3.845 1.64 8.61c0 3.621-.758 6.703-2.266 9.234q-2.265 3.796-6.062 5.782c-2.531 1.32-5.383 1.984-8.547 1.984Zm0 0"/><path id="P" d="M55.531 0v-5.672h6.813V0ZM0 0v-.906q2.826-1.921 4.016-4.125 1.2-2.217 1.656-6.297h.906q1.576 1.69 4.578 2.828a36.3 36.3 0 0 0 6.469 1.766q3.45.609 6.39.843 2.954.222 4.313.22h9.078V0Zm47.266 7.14q-2.72 0-5-1.359a10.56 10.56 0 0 1-3.625-3.578Q37.28.001 37.28-2.828q0-2.718 1.36-4.985a9.9 9.9 0 0 1 3.625-3.578q2.28-1.295 5-1.296 2.717 0 4.984 1.296a9.47 9.47 0 0 1 3.563 3.579q1.311 2.265 1.312 4.984 0 2.829-1.312 5.031a10.1 10.1 0 0 1-3.563 3.578q-2.267 1.36-4.984 1.36M30.938 0v-5.672H40V0Zm16.328 1.469c1.125 0 2.101-.418 2.937-1.25q1.249-1.23 1.25-3.047-.001-1.7-1.25-2.953c-.836-.832-1.812-1.25-2.937-1.25q-1.815.001-3.063 1.25-1.252 1.254-1.25 2.953-.002 1.815 1.25 3.047 1.247 1.249 3.063 1.25m0 0"/><path id="Q" d="M4.531 0v-5.672h6.813V0ZM0 0v-45.328c0-.832-.148-1.969-.453-3.406q-.45-2.156-1.703-4.141-1.248-1.981-3.516-2.89v-.907q4.08-.451 6.344-1.64 2.279-1.186 4.094-4.016h.906V0Zm-1.14 0v-5.672h6.812V0Zm0 0"/><path id="R" d="M4.313 0C3.101 0 2.082-.414 1.25-1.25.414-2.082 0-3.102 0-4.312 0-5.437.414-6.414 1.25-7.25Q2.497-8.499 4.313-8.5c1.125 0 2.101.418 2.937 1.25Q8.499-5.998 8.5-4.312 8.499-2.498 7.25-1.25C6.414-.414 5.438 0 4.313 0m0 0"/><path id="S" d="M70.266 0v-5.672h6.812V0ZM37.734 22.672c-3.398 0-6.289-.555-8.672-1.656q-3.564-1.64-6.062-4.36a30.5 30.5 0 0 1-4.297-6.062 163 163 0 0 1-3.515-6.86L17.562 0q2.155 4.765 4.813 8.61 2.67 3.856 6.406 6.124 3.75 2.264 8.953 2.266c3.25 0 6.313-.852 9.188-2.547q4.31-2.548 7.25-6.86c1.969-2.874 3.21-6.128 3.734-9.75l.125 8.954-9.64-23.906 5.562-1.485 6.688 16.547c.218.531.398 1.086.547 1.656a6.5 6.5 0 0 1 .234 1.75c0 2.188-.606 4.524-1.813 7.016q-1.813 3.75-5.047 6.984-3.22 3.234-7.53 5.266-4.301 2.046-9.298 2.047M5.672 11.328q-.457-4.08-1.656-6.344Q2.826 2.718 0 .906V0h17.688v4.531c-1.063 0-2.352.242-3.86.735a15.6 15.6 0 0 0-4.312 2.203 8.33 8.33 0 0 0-2.938 3.86Zm46.344-24.14L48.39-17.11l13.828-11.563 1.015 6.453ZM67.546 0l-9.062-22.547 3.735-6.125L73.672 0Zm0 0"/><path id="T" d="M26.406 12.016a300 300 0 0 1-3.453-5.953 151 151 0 0 0-4.828-7.875 83 83 0 0 0-5.89-7.985q-3.177-3.795-6.516-6.172c-2.23-1.594-4.442-2.39-6.625-2.39l-.688-.688q1.939-2.824 2.5-5.437.561-2.607.11-4.985l.687-.672a67.7 67.7 0 0 1 10.016 9.516Q16.31-15.293 20-9.687q3.686 5.61 6.516 10.484a435 435 0 0 1 4.656 8.156ZM-1.14 0v-5.672h23.813V0Zm23.235 0v-5.672h9.078V0Zm0 0"/><path id="U" d="M-1.14 0v-5.672h9.078V0Zm0 0"/><path id="aa" d="m1.703-51.453-.562-1.594 13.937-4.75.781 2.156Zm0 0"/><path id="V" d="M0 0v-45.328c0-.832-.148-1.969-.453-3.406q-.45-2.156-1.703-4.141-1.248-1.981-3.516-2.89v-.907q4.08-.451 6.344-1.64 2.279-1.186 4.094-4.016h.906v56.656h5.656V0Zm0 0"/><path id="W" d="m0-47.031.563-2.375L248.766-62l-.672 2.39Zm0 0"/><path id="X" d="M4.313 0C3.101 0 2.082-.414 1.25-1.25.414-2.082 0-3.102 0-4.312 0-5.437.414-6.414 1.25-7.25Q2.497-8.499 4.313-8.5c1.125 0 2.101.418 2.937 1.25Q8.499-5.998 8.5-4.312 8.499-2.498 7.25-1.25C6.414-.414 5.438 0 4.313 0m0 0"/><path id="Y" d="M-1.14 0v-5.672h256.484V0Zm0 0"/><path id="Z" d="M7.813 0 7.03-5.672c-.086-.82-.37-1.914-.86-3.281a12.5 12.5 0 0 0-2.2-3.797Q2.497-14.497 0-15.078l-.11-1.016q3.968-1.012 6-2.547 2.046-1.53 3.516-4.484l.906-.11L13.485 0Zm-8.954 0v-5.672h13.829V0Zm0 0"/><path id="ab" d="M0 9.203c0-.71.242-1.308.734-1.797q.732-.736 1.797-.734.996-.002 1.735.734.733.732.734 1.797-.001.996-.734 1.735-.739.733-1.735.734-1.064 0-1.797-.735C.242 10.446 0 9.868 0 9.204m0-6.672c0-.71.242-1.308.734-1.797C1.223.242 1.82 0 2.531 0c.664 0 1.242.242 1.735.734q.733.732.734 1.797-.001.996-.734 1.735-.739.733-1.735.734-1.064-.001-1.797-.734C.242 3.773 0 3.196 0 2.53m0 0"/><path id="ac" d="M1.594 13.734q5.138-1.33 9.062-4.03 3.936-2.709 7.016-7.032l2.656 2q-3.392 4.732-7.797 7.766-4.394 3.029-10.125 4.5ZM0 2.47h2.406l.922.53v17H0Zm1.594 3.203.812-3.203a18.1 18.1 0 0 1 5.828 2.656q2.701 1.875 4.36 5.344L9.53 11.938q-1.267-2.674-3.297-4.11Q4.2 6.404 1.593 5.672m12.61 1.125q1.651-1.66 2.39-3.36.733-1.706.406-3.03l.672-.266q.733 1.997 2.094 3.39 1.373 1.406 3.437 2.063l-.265.734q-1.266-.33-3 .406-1.736.732-3.407 2.407Zm0 0"/><path id="ad" d="M0 9.203c0-.71.242-1.308.734-1.797q.732-.736 1.797-.734.996-.002 1.735.734.733.732.734 1.797-.001.996-.734 1.735-.739.733-1.735.734-1.064 0-1.797-.735C.242 10.446 0 9.868 0 9.204m0-6.672c0-.71.242-1.308.734-1.797C1.223.242 1.82 0 2.531 0c.664 0 1.242.242 1.735.734q.733.732.734 1.797-.001.996-.734 1.735-.739.733-1.735.734-1.064-.001-1.797-.734C.242 3.773 0 3.196 0 2.53m0 0"/><path id="ae" d="M0-.672h3.328v261.813H0Zm0 0"/><path id="af" d="M0 6.797h3.328v4H0Zm0-2.203 3.328-.453q.731-.082 1.938-.516A7.1 7.1 0 0 0 7.5 2.328Q8.531 1.466 8.86 0l.609-.062q.592 2.325 1.484 3.53c.602.802 1.485 1.489 2.64 2.063l.079.532L0 7.938ZM0-.672h3.328v8.14H0Zm0 0"/><path id="ag" d="M0-.672h3.328v11.406q5.404-.674 8.235-1.671 2.842-1.003 2.843-2.657 0-.674-1.078-1.547-1.064-.86-3.265-1.187v6.734h-3.33V1.672q0-.814.422-1.281C7.446.086 7.883-.04 8.47 0c1.957.094 3.625.445 5 1.063q2.06.937 3.155 2.359 1.108 1.437 1.11 2.984c0 1.414-.462 2.586-1.376 3.516q-1.36 1.405-3.797 2.265-2.426.873-5.624 1.376-3.206.497-6.938.906Zm0 0"/><path id="ah" d="M0 0h26.672c.488 0 1.156-.086 2-.266a7.2 7.2 0 0 0 2.422-1q1.17-.732 1.703-2.062h.531q.265 2.393.969 3.719.702 1.34 2.375 2.406v.531H3.328v3.344H0Zm0 0"/><path id="ai" d="M0 6.797h3.328v4H0ZM0 8l2.266-3.734L8.53 3.53q.732-.065 1.938-.5 1.202-.44 2.234-1.312c.688-.574 1.14-1.348 1.36-2.313l.609-.078q.592 2.34 1.484 3.531c.602.801 1.485 1.493 2.64 2.079l.063.53ZM0-.594h3.328v6.125L0 8Zm0 0"/><path id="aj" d="M0 23.797 3.328 20l3.266-.406q.732-.066 1.937-.5a7.1 7.1 0 0 0 2.235-1.297q1.03-.863 1.375-2.328l.593-.063q.593 2.326 1.5 3.531.903 1.202 2.625 2.063l.078.531ZM0 4.859l3.328-.453q.731-.081 1.938-.515A7.1 7.1 0 0 0 7.5 2.594Q8.531 1.732 8.86.266l.609-.063q.592 2.325 1.484 3.531c.602.801 1.485 1.489 2.64 2.063l.079.531L0 8.203ZM0-.67h3.328V21L0 23.734Zm1.328 13.077 3.344-.469q.732-.081 1.922-.515a7.1 7.1 0 0 0 2.234-1.297q1.031-.863 1.375-2.328l.594-.063q.609 2.326 1.5 3.532c.601.8 1.484 1.488 2.64 2.062l.063.531-13.672 1.875Zm0 0"/><path id="al" d="M0 19.328h3.328v4H0ZM-8.328 0h.531a4.53 4.53 0 0 0 1.39 2.188q1.004.871 3.407 1.14v.531q-1.999.61-2 2.813v10h31.672q.733-.001 2-.266c.844-.18 1.648-.5 2.422-.968q1.17-.704 1.703-2.11h.531q.265 2.404.969 3.735.702 1.34 2.375 2.406V20h-45Zm0 0"/><path id="am" d="M0 2.172h1.672v1.937q1.06-.766 2.5-.765c.844 0 1.57.187 2.187.562q.938.562 1.454 1.516.528.95.53 2.047-.001.996-.452 2.047-.457 1.06-1.422 1.922l-.203-.063q-.13-.532-.563-1.14-.44-.599-.937-.704v-.187q.968-.082 1.437-.625.47-.551.469-1.219a2.4 2.4 0 0 0-.734-1.766A2.4 2.4 0 0 0 4.172 5c-.688 0-1.277.242-1.766.734A2.4 2.4 0 0 0 1.672 7.5q0 .64.328 1.25a2.27 2.27 0 0 0 1 .953v.203q-.796.123-1.266.328a2.2 2.2 0 0 0-.78.547c-.212.239-.438.535-.688.89H0ZM0 0h.266c.25.383.476.688.687.906q.312.328.781.532.47.199 1.266.328v.203c-.437.25-.773.57-1 .968a2.5 2.5 0 0 0-.328 1.235H0Zm0 0"/><path id="an" d="m0 4.594 3.328-.453q.731-.082 1.938-.516A7.1 7.1 0 0 0 7.5 2.328Q8.531 1.466 8.86 0l.609-.062q.592 2.325 1.484 3.53c.602.802 1.485 1.489 2.64 2.063l.079.532L0 7.938ZM0-.672h3.328v8.14H0Zm0 0"/><path id="ao" d="M0 0h26.672c.488 0 1.156-.086 2-.266a7.2 7.2 0 0 0 2.422-1q1.17-.732 1.703-2.062h.531q.265 2.393.969 3.719.702 1.34 2.375 2.406v.531H3.328q-.002 2.203 2 2.813v.53q-2.392.265-3.39 1.126A4.65 4.65 0 0 0 .53 10H0Zm0 0"/><path id="ap" d="M0 263.266h3.328v4H0Zm0-3.735h3.328v1.61L0 264.406ZM6.672 7.328 20.938 9l-.079.594q-1.799.936-2.625 2.14c-.554.801-1.03 1.957-1.437 3.47h-.531q-.33-1.472-1.438-2.345a7.7 7.7 0 0 0-2.297-1.265q-1.206-.392-1.937-.531l-3.39-.329Zm0 0 3.328 2v253.735l-3.328-1.922ZM0 264.406l3.328-3.875 3.344-.469 3.328 3ZM0 0h.531Q1.668 1.668 2.97 2.36q1.294.7 3.703.968v.531q-1.347.546-2.078 1.735a7.7 7.7 0 0 0-1 2.437c-.18.82-.266 1.477-.266 1.969v250.063L0 263.406Zm0 0"/><path id="aq" d="M0 2.531c0-.71.242-1.308.734-1.797C1.223.242 1.82 0 2.531 0c.664 0 1.242.242 1.735.734q.733.732.734 1.797-.001.996-.734 1.735-.739.733-1.735.734-1.064-.001-1.797-.734C.242 3.773 0 3.196 0 2.53m0 0"/><path id="ar" d="M0-9.203c0 .71-.242 1.308-.734 1.797q-.732.736-1.797.734-.996.002-1.735-.734-.733-.732-.734-1.797.001-.996.734-1.735.739-.733 1.735-.734 1.064 0 1.797.735c.492.492.734 1.07.734 1.734m0 6.672c0 .71-.242 1.308-.734 1.797C-1.223-.242-1.82 0-2.531 0c-.664 0-1.242-.242-1.735-.734Q-4.999-1.466-5-2.531q.001-.996.734-1.735.739-.733 1.735-.734 1.064.001 1.797.734C-.242-3.773 0-3.196 0-2.53m0 0"/><path id="as" d="M-1.594-13.734q-5.138 1.33-9.062 4.03-3.936 2.709-7.016 7.032l-2.656-2q3.392-4.732 7.797-7.765 4.394-3.03 10.125-4.5ZM0-2.47h-2.406L-3.328-3v-17H0Zm-1.594-3.203-.812 3.203a18.1 18.1 0 0 1-5.828-2.656q-2.701-1.875-4.36-5.344l3.063-1.469q1.267 2.674 3.297 4.11 2.033 1.425 4.64 2.156m-12.61-1.125q-1.651 1.66-2.39 3.36-.733 1.706-.406 3.03l-.672.266q-.733-1.997-2.094-3.39-1.373-1.406-3.437-2.063l.265-.734q1.266.33 3-.406 1.736-.732 3.407-2.407Zm0 0"/><path id="at" d="M0-9.203c0 .71-.242 1.308-.734 1.797q-.732.736-1.797.734-.996.002-1.735-.734-.733-.732-.734-1.797.001-.996.734-1.735.739-.733 1.735-.734 1.064 0 1.797.735c.492.492.734 1.07.734 1.734m0 6.672c0 .71-.242 1.308-.734 1.797C-1.223-.242-1.82 0-2.531 0c-.664 0-1.242-.242-1.735-.734Q-4.999-1.466-5-2.531q.001-.996.734-1.735.739-.733 1.735-.734 1.064.001 1.797.734C-.242-3.773 0-3.196 0-2.53m0 0"/><path id="au" d="M0 .672h-3.328v-256.875H0Zm0 0"/><path id="av" d="m0-4.594-3.328.453q-.731.082-1.938.516-1.201.423-2.234 1.297Q-8.53-1.466-8.86 0l-.609.063q-.592-2.325-1.484-3.532c-.602-.8-1.485-1.488-2.64-2.062l-.079-.532L0-7.937ZM0 .672h-3.328v-8.14H0Zm0 0"/><path id="aw" d="M8.328 6.672h-.531Q6.672 4.999 5.359 4.297c-.867-.469-2.093-.793-3.687-.969v-.531a4.2 4.2 0 0 0 2.062-1.735 7.9 7.9 0 0 0 1-2.468Q5-2.672 5-3.328q-.001-2.936-1.906-4.828-1.894-1.905-4.766-1.906c-1.594 0-2.898.355-3.922 1.062A7.9 7.9 0 0 0-8.03-6.36q-.905 1.566-1.235 3.032h-.53q-.609-2.343-1.438-3.531-.826-1.201-2.625-2.078l-.079-.594q1.47-.733 3.344-1.594A29 29 0 0 1-6.5-12.656q2.238-.67 4.828-.672 2.872 0 5.14 1.265A9.26 9.26 0 0 1 7.032-8.53q1.297 2.267 1.297 5.203Zm0 0"/><path id="ax" d="M0 0h-26.672c-.488 0-1.156.086-2 .266a7.2 7.2 0 0 0-2.422 1q-1.17.732-1.703 2.062h-.531q-.265-2.393-.969-3.719-.702-1.34-2.375-2.406v-.531h33.344v-3.344H0Zm0 0"/><path id="ay" d="M0-6.797h-3.328v-4H0Zm0 2.203-3.328.453q-.731.082-1.938.516-1.201.423-2.234 1.297Q-8.53-1.466-8.86 0l-.609.063q-.592-2.325-1.484-3.532c-.602-.8-1.485-1.488-2.64-2.062l-.079-.532L0-7.937ZM0 .672h-3.328v-8.14H0Zm0 0"/><path id="az" d="M0-2.531c0 .71-.242 1.308-.734 1.797C-1.223-.242-1.82 0-2.531 0c-.664 0-1.242-.242-1.735-.734Q-4.999-1.466-5-2.531q.001-.996.734-1.735.739-.733 1.735-.734 1.064.001 1.797.734C-.242-3.773 0-3.196 0-2.53m0 0"/><path id="aA" d="M7.063-15.531a177 177 0 0 1-3.5 2.031 97 97 0 0 0-4.626 2.844 47 47 0 0 0-4.703 3.469Q-7.996-5.326-9.39-3.36q-1.406 1.956-1.406 3.89l-.406.407q-1.652-1.141-3.188-1.47-1.543-.326-2.937-.062L-17.734-1a39.7 39.7 0 0 1 5.609-5.89 63 63 0 0 1 6.422-4.876q3.299-2.168 6.156-3.828a235 235 0 0 1 4.813-2.734ZM0 .672h-3.328v-14H0Zm0 0"/><path id="aB" d="M0 0h-26.672c-.488 0-1.156.086-2 .266a7.2 7.2 0 0 0-2.422 1q-1.17.732-1.703 2.062h-.531q-.265-2.393-.969-3.719-.702-1.34-2.375-2.406v-.531h33.344q.002-2.203-2-2.813v-.53q2.393-.265 3.39-1.126A4.65 4.65 0 0 0-.53-10H0Zm0 0"/><path id="aD" d="M0-19.328h-3.328v-4H0ZM8.328 0h-.531a4.53 4.53 0 0 0-1.39-2.187Q5.402-3.06 3-3.328v-.531q1.999-.61 2-2.813v-10h-31.672q-.733.001-2 .266c-.844.18-1.648.5-2.422.968q-1.17.704-1.703 2.11h-.531q-.265-2.404-.969-3.735-.702-1.34-2.375-2.406V-20h45Zm0 0"/><path id="aE" d="M0-2.172h-1.672v-1.937q-1.06.766-2.5.765c-.844 0-1.57-.187-2.187-.562a3.9 3.9 0 0 1-1.453-1.516 4.15 4.15 0 0 1-.532-2.047q.002-.996.453-2.047.457-1.06 1.422-1.921l.203.062q.13.532.563 1.14.44.599.937.704v.187q-.968.082-1.437.625-.47.551-.469 1.219.001 1.032.734 1.766A2.4 2.4 0 0 0-4.171-5c.688 0 1.277-.242 1.766-.734A2.4 2.4 0 0 0-1.672-7.5q0-.64-.328-1.25a2.27 2.27 0 0 0-1-.953v-.203q.797-.123 1.266-.328.47-.2.78-.547c.212-.239.438-.535.688-.89H0ZM0 0h-.266c-.25-.383-.476-.687-.687-.906a2.4 2.4 0 0 0-.781-.531q-.47-.2-1.266-.329v-.203c.438-.25.773-.57 1-.968q.328-.591.328-1.235H0Zm0 0"/><path id="aF" d="M0-259h-3.328v-4H0Zm0 3.938h-3.328v-1.797L0-260.141ZM-6.672-7.328-20.937-9l.078-.594q1.799-.936 2.625-2.14c.554-.801 1.03-1.957 1.437-3.47h.531q.33 1.472 1.438 2.345 1.095.861 2.297 1.265 1.206.392 1.937.531l3.39.329Zm0 0-3.328-2v-249.469l3.328 1.938ZM0-260.141l-3.328 3.875-3.344.47-3.328-3ZM0 0h-.531Q-1.668-1.668-2.97-2.36q-1.294-.7-3.703-.968v-.531q1.347-.546 2.078-1.735.737-1.2 1-2.437c.18-.82.266-1.477.266-1.969v-245.734L0-259.062Zm0 0"/><path id="aG" d="M0-2.531c0 .71-.242 1.308-.734 1.797C-1.223-.242-1.82 0-2.531 0c-.664 0-1.242-.242-1.735-.734Q-4.999-1.466-5-2.531q.001-.996.734-1.735.739-.733 1.735-.734 1.064.001 1.797.734C-.242-3.773 0-3.196 0-2.53m0 0"/><path id="aI" d="M15.64 0c-1.21 0-2.23-.414-3.062-1.25-.836-.832-1.25-1.852-1.25-3.062 0-1.125.414-2.102 1.25-2.938q1.247-1.249 3.063-1.25 1.7.001 2.937 1.25 1.249 1.252 1.25 2.938-.001 1.814-1.25 3.062C17.754-.414 16.773 0 15.641 0M4.314 0C3.101 0 2.082-.414 1.25-1.25.414-2.082 0-3.102 0-4.312 0-5.437.414-6.414 1.25-7.25Q2.497-8.499 4.313-8.5c1.125 0 2.101.418 2.937 1.25Q8.499-5.998 8.5-4.312 8.499-2.498 7.25-1.25C6.414-.414 5.438 0 4.313 0m0 0"/><path id="aJ" d="M23.344-2.719q-2.267-8.731-6.86-15.406-4.581-6.686-11.953-11.906l3.407-4.532q8.045 5.784 13.203 13.266 5.156 7.47 7.64 17.219ZM4.188 0v-4.078l.906-1.594H34V0ZM9.64-2.719l-5.453-1.36A30.7 30.7 0 0 1 8.718-14q3.187-4.592 9.079-7.422l2.484 5.219q-4.532 2.156-6.968 5.61-2.44 3.455-3.673 7.873m1.922-21.422q-2.83-2.823-5.72-4.078-2.894-1.249-5.155-.687l-.454-1.125Q3.621-31.28 6-33.594q2.391-2.327 3.516-5.843l1.25.453q-.564 2.156.672 5.109 1.247 2.94 4.093 5.766Zm0 0"/><path id="aK" d="M4.313 0C3.101 0 2.082-.414 1.25-1.25.414-2.082 0-3.102 0-4.312 0-5.437.414-6.414 1.25-7.25Q2.497-8.499 4.313-8.5c1.125 0 2.101.418 2.937 1.25Q8.499-5.998 8.5-4.312 8.499-2.498 7.25-1.25C6.414-.414 5.438 0 4.313 0m0 0"/><path id="aL" d="M7.813 0 7.03-5.672c-.086-.82-.37-1.914-.86-3.281a12.5 12.5 0 0 0-2.2-3.797Q2.497-14.497 0-15.078l-.11-1.016q3.968-1.012 6-2.547 2.046-1.53 3.516-4.484l.906-.11L13.485 0Zm-8.954 0v-5.672h13.829V0Zm0 0"/><path id="aM" d="M0 0v-45.328c0-.832-.148-1.969-.453-3.406q-.45-2.156-1.703-4.141-1.248-1.981-3.516-2.89v-.907q4.08-.451 6.344-1.64 2.279-1.186 4.094-4.016h.906v56.656h5.656V0Zm0 0"/><path id="aN" d="M-1.14 0v-5.672h3.406V0Zm0 0"/><path id="aO" d="M11.547 0v-5.672h6.812V0ZM7.812 0l-.78-5.672q-.13-1.23-.86-3.281a12.5 12.5 0 0 0-2.203-3.797Q2.497-14.497 0-15.078l-.11-1.016q3.968-1.012 6-2.547 2.046-1.53 3.516-4.484l.906-.11L13.485 0ZM-1.14 0v-5.672h13.829V0Zm0 0"/><path id="aP" d="m5.672-11.328 25.047-33.219 5.203 2.281-23.344 30.938ZM-1.141 0v-5.672H83.75V0Zm13.047-11.328V-17H81.72v5.672ZM81.375 0l-2.266-17h5.782l2.265 17ZM30.938-38.984l-3.844-2.953c-.688-.532-1.696-1.098-3.016-1.704q-1.987-.901-4.312-1.125-2.314-.233-4.47 1.125l-.671-.562q2.029-3.514 2.422-6.063.404-2.543-.735-5.718l.579-.688 19.03 14.406Zm0 0"/><path id="aQ" d="M40.219 0v-5.672h9.078V0ZM13.594 11.11Q6.34 10.874 3.172 9.233-.002 7.594 0 2.828q-.002-4.981 4.531-6.734Q9.061-5.671 17-5.672h5.672V0H17c-4.156 0-7.086.113-8.781.344Q5.67.683 5.672 2.828q-.002 1.032.906 1.594.904.562 3.5.844 2.607.28 7.703.343c3.407.04 7.867.063 13.39.063V9.75q-4.204.668-8.233 1.063-4.019.403-9.344.296m30.953.906a356 356 0 0 1-3.469-5.953 156 156 0 0 0-4.812-7.875 83 83 0 0 0-5.891-7.985q-3.176-3.795-6.516-6.172-3.344-2.39-6.625-2.39l-.687-.688q1.922-2.824 2.484-5.437.575-2.607.125-4.985l.672-.672a68 68 0 0 1 10.031 9.516q4.594 5.332 8.266 10.938Q41.811-4.077 44.641.797a435 435 0 0 1 4.656 8.156ZM17 0v-5.672h23.797V0Zm0 0"/><path id="aS" d="M13.594 11.11Q6.34 10.874 3.172 9.233-.002 7.594 0 2.828q-.002-4.981 4.531-6.734Q9.061-5.671 17-5.672h5.672V0H17c-4.156 0-7.086.113-8.781.344Q5.67.683 5.672 2.828q-.002 1.032.906 1.594.904.562 3.5.844 2.607.28 7.703.343c3.407.04 7.867.063 13.39.063V9.75q-4.204.668-8.233 1.063-4.019.403-9.344.296m30.953.906a356 356 0 0 1-3.469-5.953 156 156 0 0 0-4.812-7.875 83 83 0 0 0-5.891-7.985q-3.176-3.795-6.516-6.172-3.344-2.39-6.625-2.39l-.687-.688q1.922-2.824 2.484-5.437.575-2.607.125-4.985l.672-.672a68 68 0 0 1 10.031 9.516q4.594 5.332 8.266 10.938Q41.811-4.077 44.641.797a435 435 0 0 1 4.656 8.156ZM17 0v-5.672h23.797V0Zm0 0"/><path id="aT" d="M13.594 11.11Q6.34 10.874 3.172 9.233-.002 7.594 0 2.828q-.002-4.981 4.531-6.734Q9.061-5.671 17-5.672h31.172V0H17c-4.156 0-7.086.113-8.781.344Q5.67.683 5.672 2.828q-.002 1.032.906 1.594.904.562 3.5.844 2.607.28 7.703.343c3.407.04 7.867.063 13.39.063V9.75q-4.204.668-8.233 1.063-4.019.403-9.344.296M23.797-2.829v-2.844q-.002-3.058 1.015-6.562a23 23 0 0 1 3.172-6.625c1.438-2.082 3.305-3.786 5.61-5.11q3.467-1.982 8.218-1.984l.579.797q-.346 2.156-.235 3.797c.07 1.093.188 2.547.344 4.359l-.562.453q-2.05-2.044-4.376-1.984-2.314.065-4.359 1.531-2.378 1.706-3.625 5.047-1.252 3.345-1.25 6.281v2.844Zm-1.125 0v-2.844q-.001-2.935-1.25-6.281-1.253-3.341-3.625-5.047-2.05-1.466-4.375-1.531-2.314-.061-4.36 1.984L8.5-17q.234-2.718.344-4.36.105-1.64-.235-3.796l.579-.797c3.164 0 5.898.664 8.203 1.984q3.467 1.986 5.609 5.11a22.6 22.6 0 0 1 3.172 6.625q1.03 3.504 1.031 6.562v2.844Zm0 0"/><path id="aU" d="M15.297-2.828v-2.844q-.002-3.058 1.015-6.562a23 23 0 0 1 3.172-6.625c1.438-2.082 3.305-3.786 5.61-5.11q3.467-1.982 8.218-1.984l.579.797q-.346 2.156-.235 3.797c.07 1.093.188 2.547.344 4.359l-.562.453q-2.05-2.044-4.376-1.984-2.314.065-4.359 1.531-2.378 1.706-3.625 5.047-1.252 3.345-1.25 6.281v2.844Zm-1.125 0v-2.844q-.001-2.935-1.25-6.281Q11.669-15.294 9.297-17q-2.05-1.466-4.375-1.531-2.314-.061-4.36 1.984L0-17q.234-2.718.344-4.36.105-1.64-.235-3.796l.579-.797c3.164 0 5.898.664 8.203 1.984q3.467 1.986 5.609 5.11a22.6 22.6 0 0 1 3.172 6.625q1.03 3.504 1.031 6.562v2.844ZM-1.141 0v-5.672h9.079V0Zm8.047 0v-5.672h9.078V0Zm7.813 0v-5.672h9.078V0Zm7.937 0v-5.672h9.078V0Zm7.938 0v-5.672h9.078V0Zm0 0"/><path id="aV" d="M4.313 0C3.101 0 2.082-.414 1.25-1.25.414-2.082 0-3.102 0-4.312 0-5.437.414-6.414 1.25-7.25Q2.497-8.499 4.313-8.5c1.125 0 2.101.418 2.937 1.25Q8.499-5.998 8.5-4.312 8.499-2.498 7.25-1.25C6.414-.414 5.438 0 4.313 0m0 0"/><path id="aW" d="M85.219 0v-5.672h6.812V0ZM61.313 0v-5.672h19.39Q79.56-14.84 77.86-19.656q-1.688-4.828-4.53-4.828-1.126 0-2.61 1.812-1.47 1.815-2.031 5.563H80.14v5.656H65.28c-.906 0-1.625-.242-2.156-.735q-.784-.732-.672-2.203.232-4.982 1.813-8.5c1.062-2.343 2.398-4.132 4.015-5.375q2.436-1.875 5.047-1.875 3.621.002 6 2.328 2.39 2.316 3.86 6.454 1.483 4.127 2.328 9.578.841 5.439 1.53 11.781ZM0 0v-.906q2.826-1.921 4.016-4.125 1.2-2.217 1.656-6.297h.906q.904 2.268 2.938 3.515 2.044 1.237 4.14 1.688c1.395.305 2.508.453 3.344.453h63.688L86.359 0Zm0 0"/><path id="aX" d="M22.766 0v-5.672h6.812V0ZM-1.141 0v-5.672H18.25q-1.143-9.168-2.844-13.984-1.688-4.828-4.531-4.828-1.126 0-2.61 1.812-1.47 1.815-2.03 5.563h11.453v5.656H2.828c-.906 0-1.625-.242-2.156-.735C.148-12.675-.07-13.41 0-14.39q.232-4.982 1.813-8.5 1.591-3.512 4.015-5.375 2.436-1.875 5.047-1.875 3.621.002 6 2.328 2.39 2.316 3.86 6.454 1.483 4.127 2.328 9.578.842 5.439 1.53 11.781Zm0 0"/><path id="aY" d="M32.86 0v-5.672h6.812V0ZM0 14.172v-.906q2.263-.692 3.734-2.391C4.723 9.75 5.367 7.82 5.672 5.094h.906Q7.591 8.5 11.328 8.5h17v-53.828q0-1.25-.453-3.406a13.5 13.5 0 0 0-1.64-4.141q-1.19-1.981-3.563-2.89v-.907q4.077-.451 6.344-1.64 2.261-1.186 4.078-4.016H34v76.5Zm0 0"/><path id="aZ" d="M0 14.172v-.906q2.263-.692 3.734-2.391C4.723 9.75 5.367 7.82 5.672 5.094h.906Q7.591 8.5 11.328 8.5h17v-53.828q0-1.25-.453-3.406a13.5 13.5 0 0 0-1.64-4.141q-1.19-1.981-3.563-2.89v-.907q4.077-.451 6.344-1.64 2.261-1.186 4.078-4.016H34v76.5Zm0 0"/><path id="ba" d="M0 0v-.906q2.826-1.921 4.016-4.125 1.2-2.217 1.656-6.297h.906q.904 2.268 2.938 3.515 2.044 1.237 4.14 1.688c1.395.305 2.508.453 3.344.453h5.672V0Zm32.188 7.14q-2.721 0-4.985-1.359a10.56 10.56 0 0 1-3.625-3.578q-1.36-2.202-1.36-5.031 0-2.718 1.36-4.985a9.9 9.9 0 0 1 3.625-3.578q2.264-1.295 4.985-1.296 2.717 0 4.984 1.296a9.47 9.47 0 0 1 3.562 3.579q1.313 2.265 1.313 4.984 0 2.829-1.313 5.031a10.1 10.1 0 0 1-3.562 3.578q-2.267 1.36-4.984 1.36M15.859 0v-5.672h9.079V0Zm16.328 1.469q1.7-.001 2.938-1.25 1.249-1.23 1.25-3.047-.001-1.7-1.25-2.953-1.237-1.249-2.937-1.25-1.816.001-3.063 1.25-1.252 1.254-1.25 2.953-.002 1.815 1.25 3.047 1.247 1.249 3.063 1.25m0 0"/><path id="bb" d="M37.734 22.672c-3.398 0-6.289-.555-8.672-1.656q-3.564-1.64-6.062-4.36a30.5 30.5 0 0 1-4.297-6.062 163 163 0 0 1-3.515-6.86L17.562 0q2.155 4.765 4.813 8.61 2.67 3.856 6.406 6.124 3.75 2.264 8.953 2.266c3.25 0 6.313-.852 9.188-2.547q4.31-2.548 7.25-6.86c1.969-2.874 3.21-6.128 3.734-9.75l.125 8.954-9.64-23.906 5.562-1.485 6.688 16.547c.218.531.398 1.086.547 1.656a6.5 6.5 0 0 1 .234 1.75c0 2.188-.606 4.524-1.813 7.016q-1.813 3.75-5.047 6.984-3.22 3.234-7.53 5.266-4.301 2.046-9.298 2.047M5.672 11.328q-.457-4.08-1.656-6.344Q2.826 2.718 0 .906V0h17.688v4.531c-1.063 0-2.352.242-3.86.735a15.6 15.6 0 0 0-4.312 2.203 8.33 8.33 0 0 0-2.938 3.86Zm46.344-24.14L48.39-17.11l13.828-11.563 1.015 6.453ZM67.546 0l-9.062-22.547 3.735-6.125L73.672 0Zm0 0"/><path id="bc" d="M39.094 0v-5.672h9.078V0Zm4.312 12.016a300 300 0 0 1-3.453-5.953 151 151 0 0 0-4.828-7.875 83 83 0 0 0-5.89-7.985q-3.177-3.795-6.516-6.172-3.345-2.39-6.625-2.39l-.688-.688q1.936-2.824 2.5-5.437.561-2.607.11-4.985l.687-.672a67.7 67.7 0 0 1 10.016 9.516Q33.31-15.293 37-9.687q3.686 5.61 6.516 10.484a435 435 0 0 1 4.656 8.156ZM0 0v-.906q2.826-1.921 4.016-4.125 1.2-2.217 1.656-6.297h.906q.904 2.268 2.938 3.515 2.044 1.237 4.14 1.688c1.395.305 2.508.453 3.344.453h22.672V0Zm0 0"/><path id="bd" d="M43.406 12.016a300 300 0 0 1-3.453-5.953 151 151 0 0 0-4.828-7.875 83 83 0 0 0-5.89-7.985q-3.177-3.795-6.516-6.172-3.345-2.39-6.625-2.39l-.688-.688q1.936-2.824 2.5-5.437.561-2.607.11-4.985l.687-.672a67.7 67.7 0 0 1 10.016 9.516Q33.31-15.293 37-9.687q3.686 5.61 6.516 10.484a435 435 0 0 1 4.656 8.156ZM0 0v-.906q2.826-1.921 4.016-4.125 1.2-2.217 1.656-6.297h.906q.904 2.268 2.938 3.515 2.044 1.237 4.14 1.688c1.395.305 2.508.453 3.344.453h22.672V0Zm0 0"/><path id="be" d="M13.594 11.11Q6.34 10.874 3.172 9.233-.002 7.594 0 2.828q-.002-4.981 4.531-6.734Q9.061-5.671 17-5.672h31.172V0H17c-4.156 0-7.086.113-8.781.344Q5.67.683 5.672 2.828q-.002 1.032.906 1.594.904.562 3.5.844 2.607.28 7.703.343c3.407.04 7.867.063 13.39.063V9.75q-4.204.668-8.233 1.063-4.019.403-9.344.296M23.797-2.829v-2.844q0-3.622 1.125-7.015 1.137-3.405 3.125-6.235 1.98-2.842 4.594-4.484a10.45 10.45 0 0 1 5.672-1.64q1.685 0 2.937 1.25 1.249 1.251 1.25 2.937-.001 1.815-1.25 3.062c-.836.836-1.812 1.25-2.937 1.25-1.512 0-2.684-.601-3.516-1.812q-3.065 1.813-4.766 5.328a16.66 16.66 0 0 0-1.703 7.36v2.843Zm-1.125 0v-2.844q-.002-3.843-1.703-7.36-1.706-3.512-4.766-5.327-1.254 1.814-3.515 1.812-1.69.002-2.938-1.25c-.836-.832-1.25-1.851-1.25-3.062 0-1.125.414-2.102 1.25-2.938q1.25-1.249 2.938-1.25 3.059 0 5.671 1.64 2.608 1.642 4.594 4.485a23.9 23.9 0 0 1 3.11 6.235 22 22 0 0 1 1.14 7.015v2.844Zm0 0"/><path id="bf" d="M15.297-2.828v-2.844q0-3.622 1.125-7.015 1.137-3.405 3.125-6.235 1.98-2.842 4.594-4.484a10.45 10.45 0 0 1 5.672-1.64c1.125 0 2.101.417 2.937 1.25q1.249 1.251 1.25 2.937-.001 1.815-1.25 3.062c-.836.836-1.812 1.25-2.937 1.25-1.512 0-2.684-.601-3.516-1.812q-3.065 1.813-4.766 5.328a16.66 16.66 0 0 0-1.703 7.36v2.843Zm-1.125 0v-2.844q-.002-3.843-1.703-7.36-1.707-3.512-4.766-5.327-1.254 1.814-3.516 1.812-1.688.002-2.937-1.25C.414-18.629 0-19.648 0-20.859c0-1.125.414-2.102 1.25-2.938q1.25-1.249 2.938-1.25 3.059 0 5.671 1.64 2.608 1.642 4.594 4.485a23.9 23.9 0 0 1 3.11 6.235 22 22 0 0 1 1.14 7.015v2.844ZM-1.141 0v-5.672h9.079V0Zm8.047 0v-5.672h9.078V0Zm7.813 0v-5.672h9.078V0Zm7.937 0v-5.672h9.078V0Zm7.938 0v-5.672h9.078V0Zm0 0"/><path id="bg" d="M86.36-20.406q0 2.72-1.36 4.984a10.56 10.56 0 0 1-3.578 3.625c-1.469.906-3.149 1.36-5.031 1.36q-2.72 0-5-1.36a9.9 9.9 0 0 1-3.563-3.625q-1.299-2.264-1.297-4.984-.002-2.718 1.297-4.985a9.45 9.45 0 0 1 3.563-3.562q2.28-1.313 5-1.313c1.882 0 3.562.438 5.03 1.313A10.1 10.1 0 0 1 85-25.391q1.36 2.267 1.36 4.985M79.218-4.078h-5.672v-9.078h5.672Zm1.469-16.328q-.001-1.7-1.25-2.938-1.237-1.249-3.047-1.25-1.705.001-2.954 1.25-1.251 1.237-1.25 2.938-.001 1.815 1.25 3.062 1.249 1.252 2.954 1.25 1.81.002 3.046-1.25 1.25-1.247 1.25-3.062M65.39 0v-5.672h9.078V0Zm8.843 0v-5.672h9.079V0Zm8.72 0v-5.672h9.077V0ZM0 0v-.906q2.826-1.921 4.016-4.125 1.2-2.217 1.656-6.297h.906q.904 2.268 2.938 3.515 2.044 1.237 4.14 1.688c1.395.305 2.508.453 3.344.453h63.688L86.359 0Zm0 0"/><path id="bh" d="M19.828-20.406q0 2.72-1.36 4.984a10.56 10.56 0 0 1-3.577 3.625q-2.206 1.36-5.032 1.36-2.719 0-5-1.36a9.9 9.9 0 0 1-3.562-3.625Q-.002-17.686 0-20.406q-.002-2.718 1.297-4.985a9.45 9.45 0 0 1 3.562-3.562q2.281-1.313 5-1.313 2.826 0 5.032 1.313a10.1 10.1 0 0 1 3.578 3.562q1.36 2.267 1.36 4.985m-7.14 16.328H7.016v-9.078h5.672Zm1.468-16.328q-.001-1.7-1.25-2.938-1.236-1.249-3.047-1.25-1.704.001-2.953 1.25-1.252 1.237-1.25 2.938-.002 1.815 1.25 3.062 1.249 1.252 2.953 1.25 1.81.002 3.047-1.25 1.249-1.247 1.25-3.062M-1.14 0v-5.672h9.079V0Zm8.844 0v-5.672h9.078V0Zm8.719 0v-5.672H25.5V0Zm0 0"/><path id="bi" d="M32.86 0v-5.672h6.812V0ZM0 0v-.906q2.263-.687 3.734-2.375c.989-1.133 1.633-3.063 1.938-5.781h.906q1.013 3.39 4.75 3.39h17v-39.656q0-1.25-.453-3.406a13.5 13.5 0 0 0-1.64-4.141q-1.19-1.981-3.563-2.89v-.907q4.077-.451 6.344-1.64 2.261-1.186 4.078-4.016H34V0Zm0 0"/><path id="bj" d="M0 0v-.906q2.263-.687 3.734-2.375c.989-1.133 1.633-3.063 1.938-5.781h.906q1.013 3.39 4.75 3.39h17v-39.656q0-1.25-.453-3.406a13.5 13.5 0 0 0-1.64-4.141q-1.19-1.981-3.563-2.89v-.907q4.077-.451 6.344-1.64 2.261-1.186 4.078-4.016H34V0Zm0 0"/><path id="bk" d="M55.531 0v-5.672h6.813V0ZM0 0v-.906q2.826-1.921 4.016-4.125 1.2-2.217 1.656-6.297h.906q1.576 1.69 4.578 2.828a36.3 36.3 0 0 0 6.469 1.766q3.45.609 6.39.843 2.954.222 4.313.22h9.078V0Zm47.266 7.14q-2.72 0-5-1.359a10.56 10.56 0 0 1-3.625-3.578Q37.28.001 37.28-2.828q0-2.718 1.36-4.985a9.9 9.9 0 0 1 3.625-3.578q2.28-1.295 5-1.296 2.717 0 4.984 1.296a9.47 9.47 0 0 1 3.563 3.579q1.311 2.265 1.312 4.984 0 2.829-1.312 5.031a10.1 10.1 0 0 1-3.563 3.578q-2.267 1.36-4.984 1.36M30.938 0v-5.672H40V0Zm16.328 1.469c1.125 0 2.101-.418 2.937-1.25q1.249-1.23 1.25-3.047-.001-1.7-1.25-2.953c-.836-.832-1.812-1.25-2.937-1.25q-1.815.001-3.063 1.25-1.252 1.254-1.25 2.953-.002 1.815 1.25 3.047 1.247 1.249 3.063 1.25m0 0"/><path id="bl" d="M0 0v-.906q2.826-1.921 4.016-4.125 1.2-2.217 1.656-6.297h.906q1.576 1.69 4.578 2.828a36.3 36.3 0 0 0 6.469 1.766q3.45.609 6.39.843 2.954.222 4.313.22h9.078V0Zm47.266 7.14q-2.72 0-5-1.359a10.56 10.56 0 0 1-3.625-3.578Q37.28.001 37.28-2.828q0-2.718 1.36-4.985a9.9 9.9 0 0 1 3.625-3.578q2.28-1.295 5-1.296 2.717 0 4.984 1.296a9.47 9.47 0 0 1 3.563 3.579q1.311 2.265 1.312 4.984 0 2.829-1.312 5.031a10.1 10.1 0 0 1-3.563 3.578q-2.267 1.36-4.984 1.36M30.938 0v-5.672H40V0Zm16.328 1.469c1.125 0 2.101-.418 2.937-1.25q1.249-1.23 1.25-3.047-.001-1.7-1.25-2.953c-.836-.832-1.812-1.25-2.937-1.25q-1.815.001-3.063 1.25-1.252 1.254-1.25 2.953-.002 1.815 1.25 3.047 1.247 1.249 3.063 1.25m0 0"/><path id="bm" d="M6.578 0v-5.672H51c.832 0 1.96-.148 3.39-.453q2.156-.45 4.141-1.687 1.981-1.249 2.89-3.516h.907q.451 4.08 1.64 6.297Q65.17-2.83 68-.906V0ZM0 0l10.313-19.828 3.734 5.656L6.578 0Zm11.11-14.172-.797-5.656h22.671l6.797 5.656Zm28.671 0-7.703-1.812-5.89-9.282q-.69-1.137-2.22-2.609-1.533-1.481-3.687-2.5c-1.43-.676-2.937-.828-4.531-.453l-.453-.797q3.058-2.609 4.312-4.812 1.249-2.204 1.25-5.72l.782-.343Zm0 0"/><path id="bn" d="m17.875.953 2.531-2.812-12-11.22h26.282v-4.015H8.406l12-11.218-2.531-2.829L1.563-15.234V-15Zm0 0"/><path id="bo" d="M14.094 0a218 218 0 0 0-3.64-20.156 184 184 0 0 0-5.782-19.985L8.859-42a183 183 0 0 1 6.063 20.438 202 202 0 0 1 3.75 20.625Zm0 0"/><path id="bp" d="M23.328-41.531H28q0 4.019-1.594 7.093-1.579 3.08-4.25 4.766-2.659 1.674-5.922 1.672a10.66 10.66 0 0 1-4.953-1.203 11.6 11.6 0 0 1-3.906-3.281l3.734-2.797q.561 1.218 1.86 1.922 1.31.688 2.89.687 1.686.002 3.407-.875c1.156-.594 2.117-1.539 2.89-2.844q1.173-1.966 1.172-5.14M14.094 0a218 218 0 0 0-3.64-20.156 184 184 0 0 0-5.782-19.985L8.859-42a183 183 0 0 1 6.063 20.438 202 202 0 0 1 3.75 20.625Zm0 0"/><path id="bq" d="M14.094-29.86c-1.805 0-3.39-.57-4.766-1.718q-2.049-1.734-3.172-4.36l4.11-1.953c.437.993.976 1.797 1.625 2.422q.984.938 2.578.938 1.576.002 2.89-1.953 1.313-1.968 1.313-5.047h4.656c0 2.117.406 3.812 1.219 5.093.812 1.274 1.805 1.907 2.984 1.907 1.188 0 2.18-.649 2.985-1.953q1.218-1.968 1.218-5.047h4.672q0 3.08-1.078 5.734c-.719 1.774-1.734 3.203-3.047 4.297q-1.955 1.64-4.656 1.64-2.05 0-3.734-.984c-1.118-.656-2.078-1.57-2.891-2.75a8.6 8.6 0 0 1-3.047 2.75 8 8 0 0 1-3.86.985m0 29.86a218 218 0 0 0-3.64-20.156A184 184 0 0 0 4.671-40.14L8.859-42a183 183 0 0 1 6.063 20.438 202 202 0 0 1 3.75 20.625Zm0 0"/><path id="br" d="M27.438 0 14-3.078c-1.742-.438-2.937-1.18-3.594-2.234q-.984-1.592-.047-4.016l4.11-10.266L7.75-21.75q-1.969-.654-2.812-2.234-.832-1.593.375-4.016l6.921-14 4.188 2.047-6.813 13.906 6.438 2.063q2.154.656 2.89 2.25.75 1.58-.078 3.718L14.937-7.938l13.532 3.36Zm0 0"/><path id="bs" d="M16.328-11.672q-5.595.002-8.625-3.031-3.033-3.03-3.031-8.625c0-1.125.21-2.352.64-3.688q.657-2.013 2.016-3.828 1.357-1.825 3.594-2.984Q13.153-35 16.328-35q3.169 0 5.406 1.172 2.249 1.158 3.594 2.984 1.359 1.815 2.016 3.828.656 2.002.656 3.688-.001 5.595-3.031 8.625-3.035 3.033-8.64 3.031m0-4.656q3.544.001 5.266-1.625c1.156-1.094 1.734-2.883 1.734-5.375q0-1.498-.703-3.078-.689-1.592-2.187-2.75c-.993-.782-2.36-1.172-4.11-1.172-1.68 0-3.031.39-4.062 1.172-1.024.773-1.766 1.687-2.235 2.75q-.703 1.58-.703 3.078c0 2.492.586 4.281 1.766 5.375q1.78 1.627 5.234 1.625m0 0"/><path id="bt" d="M30.14 0c-2.18-6.281-3.78-12.812-4.812-19.594q-1.533-10.17-1.719-19.328L28-42q.186 9.516 1.625 19.875a104 104 0 0 0 4.906 20.172Zm-3.546-36.86q-5.409 1.018-10.969.876-5.55-.14-10.953-1.344V-42a54.4 54.4 0 0 0 11.656 1.36A47.6 47.6 0 0 0 28-42Zm0 0"/><path id="bu" d="M18.672 0a238 238 0 0 0-6.125-20.672 304 304 0 0 0-7.875-20.39l4.094-1.782A263 263 0 0 1 16.89-22.03 260 260 0 0 1 23.14-.937h-4.282q2.607-10.454 6.25-21.094a260 260 0 0 1 8.125-20.813l4.094 1.782a300 300 0 0 0-7.875 20.39A237 237 0 0 0 23.328 0Zm0 0"/></defs><path d="M-108-135h1296v1620H-108z"/><use xlink:href="#a" x="70.347" y="146.333" fill="#fcee21"/><use xlink:href="#b" x="75.037" y="146.333" fill="#fcee21"/><use xlink:href="#c" x="233.237" y="113.643" fill="#fcee21"/><g fill="#fcee21"><use xlink:href="#d" x="230.367" y="146.333"/><use xlink:href="#e" x="256.057" y="146.333"/><use xlink:href="#f" x="260.747" y="146.333"/></g><use xlink:href="#c" x="328.927" y="113.643" fill="#fcee21"/><g fill="#fcee21"><use xlink:href="#g" x="324.167" y="146.333"/><use xlink:href="#e" x="348.527" y="146.333"/></g><use xlink:href="#c" x="488.877" y="113.643" fill="#fcee21"/><use xlink:href="#h" x="353.147" y="146.333" fill="#fcee21"/><g fill="#fcee21"><use xlink:href="#i" x="508.477" y="146.333"/><use xlink:href="#j" x="535.987" y="146.333"/><use xlink:href="#k" x="559.297" y="146.333"/><use xlink:href="#l" x="584.987" y="146.333"/><use xlink:href="#m" x="594.297" y="146.333"/><use xlink:href="#n" x="612.987" y="146.333"/><use xlink:href="#o" x="617.677" y="146.333"/></g><use xlink:href="#p" x="645.397" y="120.223" fill="#fcee21"/><g fill="#fcee21"><use xlink:href="#q" x="650.367" y="146.333"/><use xlink:href="#m" x="665.487" y="146.333"/><use xlink:href="#r" x="684.177" y="146.333"/></g><use xlink:href="#s" x="991.057" y="158.023" fill="#fcee21"/><use xlink:href="#q" x="989.937" y="146.333" fill="#fcee21"/><use xlink:href="#t" x="291.757" y="247.973" fill="#fcee21"/><use xlink:href="#u" x="75.947" y="236.283" fill="#fcee21"/><g fill="#fcee21"><use xlink:href="#v" x="514.637" y="236.283"/><use xlink:href="#w" x="547.327" y="236.283"/><use xlink:href="#x" x="570.637" y="236.283"/><use xlink:href="#y" x="948.147" y="236.283"/></g><use xlink:href="#z" x="979.577" y="180.283" fill="#fcee21"/><use xlink:href="#A" x="985.457" y="236.283" fill="#fcee21"/><use xlink:href="#B" x="758.261" y="442.166" fill="#fff"/><g fill="#fff"><use xlink:href="#C" x="769.591" y="442.166"/><use xlink:href="#D" x="783.446" y="442.166"/></g><use xlink:href="#E" x="798.406" y="442.166" fill="#fff"/><use xlink:href="#B" x="754.946" y="541.191" fill="#fff"/><use xlink:href="#F" x="757.411" y="555.386" fill="#fff"/><g fill="#fff"><use xlink:href="#E" x="766.251" y="541.191"/><use xlink:href="#G" x="784.611" y="541.191"/><use xlink:href="#B" x="790.306" y="541.191"/></g><use xlink:href="#H" x="798.466" y="555.386" fill="#fff"/><use xlink:href="#E" x="801.611" y="541.191" fill="#fff"/><use xlink:href="#I" x="743.811" y="660.021" fill="#fff"/><use xlink:href="#B" x="752.056" y="640.216" fill="#fff"/><use xlink:href="#H" x="764.721" y="654.411" fill="#fff"/><g fill="#fff"><use xlink:href="#E" x="763.361" y="640.216"/><use xlink:href="#G" x="781.721" y="640.216"/></g><use xlink:href="#I" x="779.086" y="660.021" fill="#fff"/><use xlink:href="#B" x="787.331" y="640.216" fill="#fff"/><use xlink:href="#F" x="799.996" y="654.411" fill="#fff"/><g fill="#fff"><use xlink:href="#J" x="798.636" y="640.216"/><use xlink:href="#E" x="804.331" y="640.216"/></g><use xlink:href="#B" x="731.316" y="739.241" fill="#fff"/><use xlink:href="#K" x="738.881" y="707.536" fill="#fff"/><g fill="#fff"><use xlink:href="#L" x="742.621" y="739.241"/><use xlink:href="#C" x="744.916" y="739.241"/></g><use xlink:href="#K" x="762.936" y="707.536" fill="#fff"/><g fill="#fff"><use xlink:href="#J" x="763.276" y="739.241"/><use xlink:href="#E" x="768.971" y="739.241"/><use xlink:href="#G" x="787.331" y="739.241"/><use xlink:href="#B" x="793.026" y="739.241"/></g><use xlink:href="#H" x="801.101" y="753.436" fill="#fff"/><use xlink:href="#C" x="804.246" y="739.241" fill="#fff"/><use xlink:href="#H" x="825.666" y="753.436" fill="#fff"/><g fill="#fff"><use xlink:href="#E" x="819.206" y="739.241"/><use xlink:href="#G" x="837.566" y="739.241"/></g><use xlink:href="#M" x="718.991" y="838.266" fill="#fff"/><g fill="#fff"><use xlink:href="#N" x="754.121" y="838.266"/><use xlink:href="#G" x="782.426" y="838.266"/><use xlink:href="#M" x="788.121" y="838.266"/></g><use xlink:href="#O" x="822.121" y="838.266" fill="#fff"/><g fill="#fff"><use xlink:href="#P" x="691.281" y="937.291"/><use xlink:href="#Q" x="753.586" y="937.291"/></g><use xlink:href="#R" x="764.636" y="905.586" fill="#fff"/><g fill="#fff"><use xlink:href="#E" x="764.976" y="937.291"/><use xlink:href="#G" x="783.336" y="937.291"/><use xlink:href="#P" x="789.031" y="937.291"/><use xlink:href="#Q" x="851.336" y="937.291"/></g><use xlink:href="#K" x="858.901" y="905.586" fill="#fff"/><g fill="#fff"><use xlink:href="#L" x="862.641" y="937.291"/><use xlink:href="#E" x="864.936" y="937.291"/></g><use xlink:href="#P" x="684.226" y="1036.316" fill="#fff"/><use xlink:href="#R" x="746.191" y="1004.611" fill="#fff"/><use xlink:href="#C" x="746.531" y="1036.316" fill="#fff"/><use xlink:href="#R" x="761.151" y="1004.611" fill="#fff"/><g fill="#fff"><use xlink:href="#E" x="761.491" y="1036.316"/><use xlink:href="#G" x="779.851" y="1036.316"/><use xlink:href="#P" x="785.546" y="1036.316"/></g><use xlink:href="#F" x="843.516" y="1050.511" fill="#fff"/><use xlink:href="#C" x="847.851" y="1036.316" fill="#fff"/><use xlink:href="#F" x="867.571" y="1050.511" fill="#fff"/><g fill="#fff"><use xlink:href="#J" x="866.211" y="1036.316"/><use xlink:href="#E" x="871.906" y="1036.316"/></g><g fill="#fff"><use xlink:href="#S" x="653.796" y="1135.341"/><use xlink:href="#T" x="730.891" y="1135.341"/></g><use xlink:href="#R" x="761.661" y="1103.636" fill="#fff"/><g fill="#fff"><use xlink:href="#E" x="762.001" y="1135.341"/><use xlink:href="#G" x="780.361" y="1135.341"/><use xlink:href="#S" x="786.056" y="1135.341"/><use xlink:href="#T" x="863.151" y="1135.341"/></g><use xlink:href="#F" x="897.916" y="1149.536" fill="#fff"/><g fill="#fff"><use xlink:href="#U" x="894.261" y="1135.341"/><use xlink:href="#E" x="902.166" y="1135.341"/></g><use xlink:href="#V" x="626.936" y="1234.366" fill="#fff"/><use xlink:href="#W" x="645.551" y="1241.931" fill="#fff"/><use xlink:href="#X" x="765.571" y="1248.476" fill="#fff"/><g fill="#fff"><use xlink:href="#Y" x="638.326" y="1234.281"/><use xlink:href="#Z" x="893.666" y="1234.281"/></g><g fill="#fff"><use xlink:href="#G" x="912.026" y="1234.281"/><use xlink:href="#B" x="917.721" y="1234.281"/></g><use xlink:href="#aa" x="924.521" y="1247.881" fill="#fff"/><use xlink:href="#H" x="925.881" y="1248.476" fill="#fff"/><use xlink:href="#E" x="929.026" y="1234.281" fill="#fff"/><use xlink:href="#ab" x="1058.333" y="319.267" fill="#fcee21"/><use xlink:href="#ac" x="1031.684" y="315.017" fill="#fcee21"/><use xlink:href="#ad" x="1023.333" y="462.467" fill="#fcee21"/><g fill="#fcee21"><use xlink:href="#ae" x="1031.684" y="335.017"/><use xlink:href="#af" x="1031.684" y="596.167"/></g><use xlink:href="#ab" x="1055.034" y="607.017" fill="#fcee21"/><g fill="#fcee21"><use xlink:href="#ag" x="1031.684" y="606.967"/><use xlink:href="#ah" x="1031.684" y="624.367"/></g><use xlink:href="#ad" x="1023.333" y="758.517" fill="#fcee21"/><g fill="#fcee21"><use xlink:href="#ae" x="1031.684" y="631.067"/><use xlink:href="#ai" x="1031.684" y="892.217"/></g><g fill="#fcee21"><use xlink:href="#aj" x="1031.684" y="901.017"/><use xlink:href="#ak" x="1031.684" y="927.667"/><use xlink:href="#al" x="1031.684" y="931.017"/></g><use xlink:href="#am" x="1050.333" y="950.817" fill="#fcee21"/><g fill="#fcee21"><use xlink:href="#an" x="1031.684" y="954.367"/><use xlink:href="#ao" x="1031.684" y="965.167"/><use xlink:href="#ap" x="1031.684" y="978.517"/></g><use xlink:href="#aq" x="1023.333" y="1246.567" fill="#fcee21"/><use xlink:href="#an" x="1031.684" y="1245.767" fill="#fcee21"/><use xlink:href="#ar" x="21.662" y="1254.432" fill="#fcee21"/><use xlink:href="#as" x="48.312" y="1258.682" fill="#fcee21"/><use xlink:href="#at" x="56.662" y="1113.682" fill="#fcee21"/><g fill="#fcee21"><use xlink:href="#au" x="48.312" y="1238.682"/><use xlink:href="#av" x="48.312" y="982.482"/><use xlink:href="#aw" x="48.312" y="971.682"/><use xlink:href="#ax" x="48.312" y="955.032"/></g><use xlink:href="#at" x="56.662" y="823.332" fill="#fcee21"/><g fill="#fcee21"><use xlink:href="#au" x="48.312" y="948.332"/><use xlink:href="#ay" x="48.312" y="692.132"/></g><use xlink:href="#ar" x="29.662" y="686.882" fill="#fcee21"/><use xlink:href="#ay" x="48.312" y="683.332" fill="#fcee21"/><use xlink:href="#az" x="24.962" y="670.482" fill="#fcee21"/><g fill="#fcee21"><use xlink:href="#aA" x="48.312" y="672.532"/><use xlink:href="#aB" x="48.312" y="654.182"/><use xlink:href="#aC" x="48.312" y="640.832"/><use xlink:href="#aD" x="48.312" y="637.482"/></g><use xlink:href="#aE" x="29.662" y="617.732" fill="#fcee21"/><g fill="#fcee21"><use xlink:href="#av" x="48.312" y="614.182"/><use xlink:href="#aB" x="48.312" y="603.382"/><use xlink:href="#aF" x="48.312" y="590.032"/></g><use xlink:href="#aG" x="56.662" y="326.232" fill="#fcee21"/><use xlink:href="#av" x="48.312" y="327.032" fill="#fcee21"/><use xlink:href="#aH" x="310.551" y="487.166" fill="#fff"/><use xlink:href="#aH" x="311.163" y="487.166" fill="#fff"/><use xlink:href="#aI" x="324.066" y="441.861" fill="#fff"/><use xlink:href="#aJ" x="316.841" y="487.166" fill="#fff"/><use xlink:href="#aK" x="352.201" y="501.361" fill="#fff"/><g fill="#fff"><use xlink:href="#aL" x="350.841" y="487.166"/><use xlink:href="#aM" x="369.201" y="487.166"/></g><use xlink:href="#aI" x="376.766" y="455.461" fill="#fff"/><g fill="#fff"><use xlink:href="#aN" x="380.506" y="487.166"/><use xlink:href="#aO" x="382.801" y="487.166"/><use xlink:href="#aP" x="401.161" y="487.166"/></g><use xlink:href="#aQ" x="335.881" y="589.166" fill="#fff"/><use xlink:href="#aR" x="385.181" y="589.166" fill="#fff"/><g fill="#fff"><use xlink:href="#aH" x="385.181" y="589.166"/><use xlink:href="#aH" x="390.876" y="589.166"/><use xlink:href="#aH" x="396.571" y="589.166"/><use xlink:href="#aH" x="402.266" y="589.166"/><use xlink:href="#aH" x="407.961" y="589.166"/><use xlink:href="#aH" x="413.656" y="589.166"/><use xlink:href="#aH" x="419.351" y="589.166"/><use xlink:href="#aS" x="425.046" y="589.166"/></g><use xlink:href="#aT" x="335.626" y="691.166" fill="#fff"/><use xlink:href="#aR" x="383.821" y="691.166" fill="#fff"/><g fill="#fff"><use xlink:href="#aH" x="383.821" y="691.166"/><use xlink:href="#aH" x="389.516" y="691.166"/><use xlink:href="#aH" x="395.211" y="691.166"/><use xlink:href="#aH" x="400.906" y="691.166"/><use xlink:href="#aH" x="406.601" y="691.166"/><use xlink:href="#aH" x="412.296" y="691.166"/><use xlink:href="#aH" x="417.991" y="691.166"/><use xlink:href="#aH" x="423.686" y="691.166"/><use xlink:href="#aH" x="429.381" y="691.166"/></g><use xlink:href="#aR" x="435.076" y="691.166" fill="#fff"/><use xlink:href="#aU" x="434.821" y="691.166" fill="#fff"/><use xlink:href="#aR" x="474.516" y="691.166" fill="#fff"/><use xlink:href="#aV" x="398.356" y="753.471" fill="#fff"/><use xlink:href="#aW" x="330.101" y="793.166" fill="#fff"/><use xlink:href="#aR" x="422.156" y="793.166" fill="#fff"/><use xlink:href="#aH" x="422.156" y="793.166" fill="#fff"/><use xlink:href="#aR" x="427.851" y="793.166" fill="#fff"/><g fill="#fff"><use xlink:href="#aH" x="427.851" y="793.166"/><use xlink:href="#aH" x="433.546" y="793.166"/><use xlink:href="#aH" x="439.241" y="793.166"/><use xlink:href="#aH" x="444.936" y="793.166"/></g><use xlink:href="#aR" x="450.631" y="793.166" fill="#fff"/><use xlink:href="#aV" x="456.326" y="753.471" fill="#fff"/><use xlink:href="#aX" x="450.546" y="793.166" fill="#fff"/><use xlink:href="#aR" x="480.126" y="793.166" fill="#fff"/><use xlink:href="#aY" x="339.961" y="895.166" fill="#fff"/><use xlink:href="#aR" x="379.656" y="895.166" fill="#fff"/><g fill="#fff"><use xlink:href="#aH" x="379.656" y="895.166"/><use xlink:href="#aH" x="385.351" y="895.166"/><use xlink:href="#aH" x="391.046" y="895.166"/><use xlink:href="#aH" x="396.741" y="895.166"/><use xlink:href="#aH" x="402.436" y="895.166"/><use xlink:href="#aH" x="408.131" y="895.166"/><use xlink:href="#aH" x="413.826" y="895.166"/><use xlink:href="#aH" x="419.521" y="895.166"/><use xlink:href="#aH" x="425.216" y="895.166"/><use xlink:href="#aZ" x="430.911" y="895.166"/></g><g fill="#fff"><use xlink:href="#ba" x="343.701" y="997.166"/><use xlink:href="#aH" x="390.961" y="997.166"/><use xlink:href="#aH" x="396.656" y="997.166"/><use xlink:href="#aH" x="402.351" y="997.166"/><use xlink:href="#aH" x="408.046" y="997.166"/></g><use xlink:href="#aR" x="413.741" y="997.166" fill="#fff"/><g fill="#fff"><use xlink:href="#aH" x="413.656" y="997.166"/><use xlink:href="#ba" x="419.351" y="997.166"/></g><use xlink:href="#bb" x="365.461" y="1099.166" fill="#fff"/><use xlink:href="#aH" x="86.406" y="487.166" fill="#fff"/><g fill="#fff"><use xlink:href="#aH" x="87.392" y="487.166"/><use xlink:href="#aJ" x="93.087" y="487.166"/><use xlink:href="#aL" x="127.087" y="487.166"/><use xlink:href="#aM" x="145.447" y="487.166"/><use xlink:href="#aO" x="156.752" y="487.166"/><use xlink:href="#aP" x="175.112" y="487.166"/></g><use xlink:href="#bc" x="106.466" y="589.166" fill="#fff"/><use xlink:href="#aR" x="154.661" y="589.166" fill="#fff"/><g fill="#fff"><use xlink:href="#aH" x="154.661" y="589.166"/><use xlink:href="#aH" x="160.356" y="589.166"/><use xlink:href="#aH" x="166.051" y="589.166"/><use xlink:href="#aH" x="171.746" y="589.166"/><use xlink:href="#aH" x="177.441" y="589.166"/><use xlink:href="#aH" x="183.136" y="589.166"/><use xlink:href="#aH" x="188.831" y="589.166"/><use xlink:href="#aH" x="194.526" y="589.166"/><use xlink:href="#aH" x="200.221" y="589.166"/><use xlink:href="#bd" x="205.916" y="589.166"/></g><use xlink:href="#be" x="110.716" y="691.166" fill="#fff"/><use xlink:href="#aR" x="158.911" y="691.166" fill="#fff"/><g fill="#fff"><use xlink:href="#aH" x="158.911" y="691.166"/><use xlink:href="#aH" x="164.606" y="691.166"/><use xlink:href="#aH" x="170.301" y="691.166"/><use xlink:href="#aH" x="175.996" y="691.166"/><use xlink:href="#aH" x="181.691" y="691.166"/><use xlink:href="#aH" x="187.386" y="691.166"/><use xlink:href="#aH" x="193.081" y="691.166"/><use xlink:href="#aH" x="198.776" y="691.166"/><use xlink:href="#aH" x="204.471" y="691.166"/></g><use xlink:href="#aR" x="210.166" y="691.166" fill="#fff"/><use xlink:href="#bf" x="209.911" y="691.166" fill="#fff"/><use xlink:href="#aR" x="249.606" y="691.166" fill="#fff"/><use xlink:href="#aV" x="179.396" y="753.471" fill="#fff"/><use xlink:href="#bg" x="107.231" y="793.166" fill="#fff"/><use xlink:href="#aR" x="199.286" y="793.166" fill="#fff"/><g fill="#fff"><use xlink:href="#aH" x="199.286" y="793.166"/><use xlink:href="#aH" x="204.981" y="793.166"/><use xlink:href="#aH" x="210.676" y="793.166"/><use xlink:href="#aH" x="216.371" y="793.166"/><use xlink:href="#aH" x="222.066" y="793.166"/></g><use xlink:href="#aR" x="227.761" y="793.166" fill="#fff"/><use xlink:href="#aV" x="233.286" y="753.471" fill="#fff"/><use xlink:href="#bh" x="227.591" y="793.166" fill="#fff"/><use xlink:href="#aR" x="253.091" y="793.166" fill="#fff"/><use xlink:href="#bi" x="114.966" y="895.166" fill="#fff"/><use xlink:href="#aR" x="154.661" y="895.166" fill="#fff"/><g fill="#fff"><use xlink:href="#aH" x="154.661" y="895.166"/><use xlink:href="#aH" x="160.356" y="895.166"/><use xlink:href="#aH" x="166.051" y="895.166"/><use xlink:href="#aH" x="171.746" y="895.166"/><use xlink:href="#aH" x="177.441" y="895.166"/><use xlink:href="#aH" x="183.136" y="895.166"/><use xlink:href="#aH" x="188.831" y="895.166"/><use xlink:href="#aH" x="194.526" y="895.166"/><use xlink:href="#aH" x="200.221" y="895.166"/><use xlink:href="#bj" x="205.916" y="895.166"/></g><use xlink:href="#bk" x="103.661" y="997.166" fill="#fff"/><use xlink:href="#aR" x="165.966" y="997.166" fill="#fff"/><g fill="#fff"><use xlink:href="#aH" x="165.966" y="997.166"/><use xlink:href="#aH" x="171.661" y="997.166"/><use xlink:href="#aH" x="177.356" y="997.166"/><use xlink:href="#aH" x="183.051" y="997.166"/><use xlink:href="#aH" x="188.746" y="997.166"/><use xlink:href="#bl" x="194.441" y="997.166"/></g><use xlink:href="#bm" x="143.271" y="1099.166" fill="#fff"/><use xlink:href="#bn" x="273.93" y="484.174" fill="#fcee21"/><use xlink:href="#bn" x="273.93" y="586.174" fill="#fcee21"/><use xlink:href="#bn" x="273.93" y="688.174" fill="#fcee21"/><use xlink:href="#bn" x="273.93" y="790.174" fill="#fcee21"/><use xlink:href="#bn" x="273.93" y="892.174" fill="#fcee21"/><use xlink:href="#bn" x="273.93" y="994.174" fill="#fcee21"/><use xlink:href="#bn" x="273.93" y="1096.174" fill="#fcee21"/><use xlink:href="#bo" x="528.333" y="486" fill="#fcee21"/><use xlink:href="#bp" x="523.643" y="587.99" fill="#fcee21"/><use xlink:href="#bq" x="519.443" y="689.98" fill="#fcee21"/><use xlink:href="#br" x="523.433" y="791.97" fill="#fcee21"/><use xlink:href="#bs" x="523.643" y="893.96" fill="#fcee21"/><use xlink:href="#bt" x="520.353" y="995.95" fill="#fcee21"/><use xlink:href="#bu" x="518.953" y="1097.94" fill="#fcee21"/></svg>