<svg xmlns="http://www.w3.org/2000/svg" width="480" height="480" viewBox="-60 0 480 480"><path d="M-60 0h480v480H-60z"/><path fill="#fff" d="m22.267 411.11 198.49-263.2h37.956l-197.87 263.2zm32.356 0v-31.111h253.24l29.867 31.111zm283.11 0-36.089-31.111-4.356-31.111 28-31.111zm-237.69-62.222v-31.111h225.24l-17.422 31.111zm129.42-184.18-19.289-14.933q-5.6-4.356-16.8-9.333-10.578-4.978-23.644-6.222-12.444-1.245-24.267 6.222l-3.733-3.111q11.2-19.29 13.067-32.978 2.489-14.311-3.734-31.733l3.112-3.734 104.53 79.022z" aria-label="пи" style="white-space:pre"/></svg>